M48
;Layer_Color=6321
;FILE_FORMAT=2:3
INCH,TZ
;TYPE=PLATED
T1F00S00C0.015
T2F00S00C0.020
T3F00S00C0.028
T4F00S00C0.030
T5F00S00C0.035
T6F00S00C0.036
T7F00S00C0.040
T8F00S00C0.051
T9F00S00C0.063
T10F00S00C0.071
T11F00S00C0.087
T12F00S00C0.125
T13F00S00C0.130
%
T01
X7411Y2749
X6083Y2747
X5896Y2679
X5728Y2747
X5541Y2679
X5364Y2747
X5177Y2679
X5010Y2747
X4823Y2679
X4537Y2638
X4360Y2579
X4449Y2455
X4256Y2386
X4169Y2461
X4053Y2665
X3902Y2774
X3819Y2839
X3666
X3616Y2722
X3612Y2630
X3543Y2579
X3666Y2543
X3839Y2559
X3789Y2671
X3976Y2913
X4104Y2943
X4242Y2874
X3416Y2885
X3374Y2748
X3376Y2697
X3258Y2722
X3194Y2687
X3248Y2618
X3377Y2550
X3267Y2952
X3563Y2185
X3736Y2161
X4360Y2116
X4537Y2067
X3066Y2445
X3031Y2736
X3036Y2923
X2904Y2854
X2318Y3106
X2513Y2218
X2638Y2037
X2382Y2008
X2244Y3583
X2972Y3602
X2933Y3406
X3066Y3922
X3051Y4225
X2894Y4281
X2894Y4331
X2318Y4685
X3130Y4449
X3327
X3445Y4429
X3524Y4305
X3661Y4317
X3819Y4317
X3937Y4291
X4075Y4380
X4272Y4321
X4439Y4266
Y4445
X4055Y4114
X3793Y4148
X3661Y4075
X3602Y4101
X3405Y4173
X3374Y4224
X3258Y4199
X3256Y4122
X3207Y4169
X3242Y4305
X3307Y3849
X3839Y3878
X4180Y3898
X4256Y3705
X4380Y3543
X4675Y3583
X4547Y3327
X3720Y3248
X3736Y3480
X3740Y3543
X4833Y4254
X5010Y4322
X5187Y4254
X5364Y4322
X5541Y4254
X5720Y4322
X5896Y4254
X6075Y4322
X6201Y3425
X6437Y3484
X6476Y3543
X6909Y3681
X7244Y4101
X6668Y4435
X6331Y4677
X6668Y3155
X6476Y4764
X6439Y6102
X6501Y6250
X6888Y6122
X7204Y6166
X7337Y6100
X7283Y5866
X7402Y5404
X6201Y4705
X4675Y5000
X4035Y5157
Y5206
X4075Y5306
X3809Y5551
X3858Y5955
X3896Y6191
X3986Y6206
X3563Y6201
X3543Y5073
X3268Y5157
X3642Y6447
X4075Y6811
X4094Y6870
X4252Y7224
X4301
X4449Y7185
Y7136
X4595Y7002
X4369Y7701
X4173Y7657
X6935Y7707
X6988Y7411
X7185Y7323
X7343Y7205
X7480Y7126
X7559
X7579Y7264
X7717
X7475Y7343
X7205Y6949
X7283Y6811
X6762Y7146
X6697Y7973
X5039Y8140
X4484Y7835
X4291Y7900
X4232
X4173Y7835
X3976Y7900
X3927
T02
X6457Y5315
X6181Y6266
Y6366
T03
X7231Y2842
T04
X6332Y3051
X6542
X6079Y2982
X5725
X5371
X5016
X5189Y2441
X5544
X5898
X4831
X2863Y2431
Y2531
X2563
Y2431
Y2931
Y3031
X2863
Y2931
X2864Y3243
X2859Y4006
Y4106
X2559
Y4006
Y4506
Y4606
X2859
Y4506
X5012Y4557
X5366
X5720
X6075
X5894Y4016
X5539
X5185
X4831
X6332Y4331
X6542
X8504Y5767
X8681Y6161
X2859Y4817
X4869Y7362
X5239Y7008
X5787Y7014
X6339Y7014
X6437
Y7396
X6437Y7722
Y8104
X5787
X5236Y8104
X4870Y7874
T05
X7520Y2972
X7620
X2854Y2206
Y2106
Y3681
Y3781
X7520Y3819
Y3919
X7876Y6161
X8089
X8189
X8404
X8504
X7776
X7657Y5787
Y5687
X6299Y5706
Y5606
Y5506
Y5406
Y5306
Y5206
Y5106
Y5006
X6457
Y5106
Y5206
X6299Y5866
Y5966
Y6066
Y6166
X4656Y6220
X4556
X4399Y6206
Y6106
Y6006
Y5906
Y5806
Y5706
Y5506
Y5406
Y5306
Y5206
Y5106
Y5006
X3780Y5304
Y5404
X4399Y6306
Y6406
X3504Y6831
Y6931
X4723Y7205
X4823
X4824Y7736
X4724
X6299Y6766
Y6666
Y6566
Y6466
Y6366
Y6266
T06
X2256Y2748
Y4323
T07
X2607Y6437
X2725
X2843
T08
X8006Y2398
Y2798
X7606
Y2398
X7323Y2461
X6850
Y2941
X7087Y3041
X7323Y2941
X7606Y3146
Y3546
X7323Y3720
X6850
Y4201
X7087Y4301
X7323Y4201
X7606Y4091
Y4491
X8006
Y4091
X8006Y3546
Y3146
Y4839
Y5239
X7606
Y4839
X3024Y5036
X2624
Y5436
X2624Y5784
X3024
X3024Y5436
X3024Y6184
X2624
X2624Y6690
Y7090
Y7438
X3024
Y7090
Y6690
X3209Y7120
X3504
Y7711
X3209
Y7907
Y8104
X3504
Y7907
X3024Y7838
X2624
T09
X2497Y6437
X2954
T10
X1949Y2598
Y2898
Y4173
Y4472
T11
X7756Y2598
Y3346
X7756Y4291
X7756Y5039
X2874Y5236
X2874Y5984
X2874Y6890
Y7638
T12
X3887Y4666
X8691
X3887Y7500
X8691
T13
X8661Y2165
X1969
X8661Y8075
X1969Y8071
M30
