M48
;Layer_Color=6321
;FILE_FORMAT=2:3
INCH,TZ
;TYPE=PLATED
T1F00S00C0.015
T2F00S00C0.020
T3F00S00C0.030
T4F00S00C0.035
T5F00S00C0.036
T6F00S00C0.040
T7F00S00C0.051
T8F00S00C0.063
T9F00S00C0.071
T10F00S00C0.087
T11F00S00C0.125
T12F00S00C0.130
%
T01
X6370Y2608
X6348Y2687
X6319Y2742
X6540Y2657
X6575Y2687
X6713Y2740
X7411Y2749
X6079Y2746
X5725
X5650Y2776
X5637Y2670
X5640Y2441
X5282Y2444
Y2670
X5285Y2776
X5371Y2746
X5285Y2982
X4941Y2982
Y2776
X4938Y2670
X5044Y2747
X4938Y2444
X5650Y2982
X4414Y2726
X4261Y2677
X4138Y2740
X3937Y2736
X3819Y2740
X3666
X3666Y2500
X3612Y2531
X3543Y2480
X3445Y2549
X3376Y2598
X3374Y2650
X3258Y2624
X3194Y2589
X3193Y2940
X3327Y2874
X3789Y2573
X3031Y2638
X3036Y2825
X2904Y2756
X3066Y2347
X2638Y2037
X2362Y2283
X2318Y3106
X2352Y3563
X2638Y3593
X1949Y3612
X3066Y3922
X3051Y4225
X2894Y4281
X2894Y4331
X2318Y4685
X3130Y4449
X3327
X3445Y4429
X3524Y4305
X3661Y4317
X3819Y4317
X3937Y4291
X4055Y4311
X4272Y4252
X4449Y4245
X4350Y4472
X3793Y4148
X3661Y4075
X3602Y4101
X3405Y4173
X3374Y4224
X3258Y4199
X3207Y4169
X3242Y4305
X3740Y3396
X4934Y4023
Y4245
X4941Y4350
X5039Y4321
X5285Y4350
X5288Y4245
X5366Y4321
X5640Y4350
X5643Y4245
X5720Y4322
X5640Y4557
X5285
X4941
X5288Y4023
X5643Y4023
X6075Y4321
X6309Y4306
X6358Y4266
X6371Y4173
X6535Y4238
X6575Y4262
X6703Y4306
X6850Y3421
X6535Y4941
X6439Y6102
X6501Y6250
X6888Y6122
X7204Y6166
X7337Y6100
X7283Y5866
X7402Y5404
X4862Y5279
X4460Y5198
X4035Y5206
Y5157
X4075Y5306
X3809Y5551
X3858Y5955
X3896Y6171
X3976Y6206
X3563Y6201
X3543Y5073
X3268Y5157
X3642Y6447
X4075Y6811
X4094Y6870
X4252Y7224
X4301
X4449Y7185
Y7136
X4595Y7002
X4369Y7701
X4173Y7657
X6935Y7707
X6988Y7411
X7093Y7093
X7172Y6946
X7283Y6988
X7480Y6979
X7559Y6979
X7195Y6811
X6762Y7146
X6697Y7973
X5039Y8140
X4484Y7835
X4291Y7900
X4232
X4173Y7835
X3976Y7900
X3927
X3163Y7953
X3120Y7972
T02
X6181Y5306
Y6266
Y6366
X7913Y7047
T03
X4921Y2361
X5277
X5630Y2362
X6161Y2358
X4606Y2343
X2863Y2431
Y2531
X2563
Y2431
Y2931
Y3031
X2863
Y2931
X2864Y3243
X2859Y4006
Y4106
X2559
Y4006
Y4506
Y4606
X2859
Y4506
X4606Y3740
Y3268
X4921Y3421
Y3593
X5276Y3593
X5280Y3421
X5634
X5630Y3593
X5984Y3593
X5989Y3425
X6358Y3238
X6566Y3238
X8504Y5856
X6299Y5866
Y5966
Y6066
Y6166
Y5706
Y5606
Y5506
Y5406
Y5306
Y5206
Y5106
Y5006
X6352Y4813
X6565Y4813
X5984Y5000
X5630
X5276Y5006
X4921Y5000
X4606Y4839
X4399Y5006
Y5106
Y5206
Y5306
Y5406
Y5506
Y5706
Y5806
Y5906
Y6006
Y6106
Y6206
X2859Y4817
X4399Y6306
Y6406
X4869Y7362
X5239Y7008
X5787Y7014
X6339Y7014
X6437
Y7396
X6437Y7722
X6299Y6766
Y6666
Y6566
Y6466
Y6366
Y6266
X6437Y8104
X5787
X5236Y8104
X4870Y7874
T04
X7520Y2972
X7620
X2854Y2206
Y2106
Y3681
Y3781
X7520Y3819
Y3919
X7559Y5689
Y5789
X6457Y5206
Y5106
Y5006
X3780Y5304
Y5404
X4556Y6220
X4656
X3504Y6831
Y6931
X4723Y7205
X4823
X4824Y7736
X4724
T05
X2256Y2748
Y4323
T06
X2607Y6437
X2725
X2843
T07
X8006Y2398
Y2798
X7606
Y2398
X7323Y2461
X6850
Y2941
X7087Y3041
X7323Y2941
X7606Y3146
Y3546
X7323Y3720
X6850
Y4201
X7087Y4301
X7323Y4201
X7606Y4091
Y4491
X8006
Y4091
X8006Y3546
Y3146
Y4839
Y5239
X7606
Y4839
X3024Y5036
X2624
Y5436
X2624Y5784
X3024
X3024Y5436
X3024Y6184
X2624
X2624Y6690
Y7090
Y7438
X3024
Y7090
Y6690
X3209Y7120
X3504
Y7711
X3209
Y7907
Y8104
X3504
Y7907
X3024Y7838
X2624
T08
X2497Y6437
X2954
T09
X1949Y2598
Y2898
Y4173
Y4472
T10
X7756Y2598
Y3346
X7756Y4291
X7756Y5039
X2874Y5236
X2874Y5984
X2874Y6890
Y7638
T11
X3828Y4666
X8631
X3828Y7500
X8631
T12
X8661Y2165
X1969
X8661Y8075
X1969Y8071
M30
