M48
;Layer_Color=6321
;FILE_FORMAT=2:3
INCH,TZ
;TYPE=PLATED
T1F00S00C0.015
T2F00S00C0.020
T3F00S00C0.030
T4F00S00C0.035
T5F00S00C0.036
T6F00S00C0.040
T7F00S00C0.047
T8F00S00C0.051
T9F00S00C0.063
T10F00S00C0.071
T11F00S00C0.087
T12F00S00C0.125
T13F00S00C0.130
%
T01
X7913Y2283
X6693Y2185
Y2106
X7106Y3110
X5157
X4700Y2189
X4705Y2094
X4350Y2461
X4169
X3839Y2559
X3745Y2598
X3665Y2671
X3612Y2630
X3602Y2722
Y2815
X3666Y2839
X3416Y2885
X3374Y2748
X3376Y2697
X3258Y2722
X3194Y2687
X3248Y2618
X3377Y2550
X3543Y2579
X3602Y2146
X3736Y2161
X3267Y2952
X3036Y2854
X3031Y2736
X2904Y2854
X3066Y2445
X2815Y2106
X2638Y2037
X2382Y2008
X2513Y2218
X2318Y3106
X2244Y3583
X2815Y3681
X2972Y3602
X2933Y3406
X3066Y3922
X3051Y4225
X3031Y4272
X2894Y4331
X2318Y4685
X3189Y4449
X3327Y4449
X3445Y4429
X3524Y4305
X3661Y4252
X3661Y4145
X3602Y4101
X3793Y4148
X3839Y3878
X3838Y3740
X3736Y3480
X3602Y3465
X3594Y3128
X3307Y3849
X3256Y4122
X3258Y4199
X3207Y4169
X3242Y4305
X3374Y4224
X3405Y4173
X3622Y4498
X4055Y4508
X4242Y4400
X4370Y4370
X4180Y3858
X4256Y3705
X4547Y3209
X5000Y3583
X5610
X5232Y4001
X4710Y4114
X6142Y3917
X6212Y4387
X6341Y4362
X6677Y4123
X7161Y4000
X7205Y3957
X7244Y3583
X6831
X6516Y3209
X6969Y4488
X7101Y4404
X7913Y3937
X7835Y3780
X8130Y3898
X8653Y3917
X8632Y3839
Y5492
X8652Y5571
X8406Y5591
X8130Y5551
X7778Y5482
X7101Y5821
X7204Y6166
X7337Y6100
X6888Y6122
X6439Y6102
X6501Y6250
X3986Y6206
X3896Y6191
X3858Y5955
X3996Y6004
X3563Y6201
X3753Y5463
X4075Y5306
X4035Y5206
Y5148
X3543Y5000
X3268Y5039
X3642Y6447
X3445Y6752
X4075Y6811
X4094Y6870
X4252Y7224
X4301
X4449Y7185
Y7136
X4595Y7002
X4369Y7701
X4173Y7657
X6935Y7707
X6988Y7411
X7185Y7323
X7343Y7205
X7475Y7343
X7579Y7264
X7717
X7559Y7126
X7480Y7047
X7284Y6949
X7283Y6811
X6762Y7146
X7953Y6535
X6697Y7973
X5039Y8140
X4484Y7835
X4291Y7900
X4232
X4173Y7835
X3976Y7900
X3927
T02
X6181Y6266
T03
X2563Y2431
Y2531
X2863
Y2431
Y2931
Y3031
X2563
Y2931
X2864Y3243
X2859Y4006
Y4106
X2559
Y4006
Y4506
Y4606
X2859
Y4506
X4374Y4016
X4583
X6342
X6553Y4017
X7274Y4380
X2859Y4817
X4869Y7362
X5239Y7008
X5787Y7014
X6339Y7014
X6437
Y7396
X6437Y7722
Y8104
X5787
X5236Y8104
X4870Y7874
T04
X6219Y2182
Y2282
X4250
Y2182
X6299Y5006
Y5106
Y5206
Y5306
Y5406
Y5506
Y5606
Y5706
Y5866
Y5966
Y6066
Y6166
X6457Y5206
Y5106
Y5006
X4399
Y5106
Y5206
Y5306
Y5406
Y5506
Y5706
Y5806
Y5906
Y6006
Y6106
Y6206
X4556Y6220
X4656
X3780Y5226
Y5126
X4399Y6306
Y6406
X4723Y7205
X4823
X4824Y7736
X4724
X6299Y6766
Y6666
Y6566
Y6466
Y6366
Y6266
T05
X2256Y2807
Y4323
T06
X2607Y6437
X2725
X2843
T07
X4803Y3327
X4870
X4937
X5004
X5071
X5138
X5205
X5272
X5339
X5406
X5472
X6772
X6839
X6906
X6972
X7039
X7106
X7173
X7240
X7307
X7374
X7441
T08
X4825Y3780
X4724Y4016
X4825Y4252
X5305
Y3780
X6793
X6693Y4016
X6793Y4252
X7274
Y3780
X8157Y3704
Y4052
X8557
Y3704
Y3304
X8157
Y4452
X8557
Y4957
Y5357
Y5706
X8157
Y5357
Y4957
Y6106
X8557
X2472Y6184
Y5784
Y5436
X2072
Y5784
Y6184
Y5036
X2472
Y6690
X2072
Y7090
Y7438
X2472
Y7090
X3209Y7120
X3504
Y7711
X3209
Y7907
Y8104
X3504
Y7907
X2472Y7838
X2072
T09
X2497Y6437
X2954
T10
X1949Y2657
Y2957
Y4173
Y4472
T11
X8307Y3504
Y4252
Y5157
Y5906
X2323Y5984
Y5236
Y6890
Y7638
T12
X3887Y4666
X8691
X3887Y7500
X8691
T13
X8661Y2165
X1969
X8661Y8075
X1969Y8071
M30
