G04*
G04 #@! TF.GenerationSoftware,Altium Limited,CircuitStudio,1.5.1 (13)*
G04*
G04 Layer_Color=9474192*
%FSLAX23Y23*%
%MOIN*%
G70*
G01*
G75*
%ADD43C,0.010*%
%ADD44C,0.030*%
%ADD47C,0.020*%
%ADD70C,0.008*%
%ADD72C,0.005*%
G36*
X4575Y2284D02*
X4577Y2284D01*
X4579Y2283D01*
X4580Y2283D01*
X4581Y2283D01*
X4581Y2282D01*
X4582Y2282D01*
X4582Y2282D01*
X4583Y2282D01*
X4583Y2282D01*
X4583Y2281D01*
X4583Y2281D01*
X4583D01*
X4585Y2280D01*
X4586Y2279D01*
X4587Y2277D01*
X4587Y2276D01*
X4588Y2275D01*
X4588Y2274D01*
X4588Y2274D01*
X4588Y2273D01*
X4589Y2273D01*
X4589Y2273D01*
Y2273D01*
X4583Y2272D01*
X4582Y2274D01*
X4581Y2275D01*
X4581Y2276D01*
X4580Y2276D01*
X4580Y2277D01*
X4579Y2277D01*
X4579Y2278D01*
X4579Y2278D01*
X4578Y2278D01*
X4577Y2279D01*
X4576Y2279D01*
X4575Y2279D01*
X4574Y2279D01*
X4574Y2279D01*
X4573D01*
X4572Y2279D01*
X4572Y2279D01*
X4570Y2279D01*
X4569Y2278D01*
X4568Y2278D01*
X4567Y2277D01*
X4566Y2277D01*
X4566Y2277D01*
X4566Y2276D01*
X4566D01*
X4565Y2275D01*
X4564Y2274D01*
X4564Y2272D01*
X4563Y2271D01*
X4563Y2270D01*
X4563Y2269D01*
X4563Y2269D01*
Y2268D01*
X4563Y2268D01*
Y2268D01*
Y2268D01*
X4589D01*
X4589Y2267D01*
Y2266D01*
Y2266D01*
Y2266D01*
X4589Y2264D01*
X4589Y2263D01*
X4588Y2262D01*
X4588Y2260D01*
X4588Y2259D01*
X4587Y2258D01*
X4587Y2257D01*
X4587Y2256D01*
X4586Y2255D01*
X4586Y2255D01*
X4585Y2254D01*
X4585Y2254D01*
X4585Y2253D01*
X4585Y2253D01*
X4584Y2253D01*
X4584Y2253D01*
X4584Y2252D01*
X4583Y2251D01*
X4582Y2250D01*
X4581Y2250D01*
X4580Y2249D01*
X4579Y2249D01*
X4578Y2249D01*
X4577Y2248D01*
X4576Y2248D01*
X4575Y2248D01*
X4575Y2248D01*
X4574Y2248D01*
X4574Y2248D01*
X4573D01*
X4572Y2248D01*
X4570Y2248D01*
X4569Y2248D01*
X4568Y2249D01*
X4567Y2249D01*
X4566Y2249D01*
X4565Y2250D01*
X4564Y2250D01*
X4564Y2251D01*
X4563Y2251D01*
X4562Y2252D01*
X4562Y2252D01*
X4562Y2252D01*
X4561Y2253D01*
X4561Y2253D01*
X4561Y2253D01*
X4560Y2254D01*
X4560Y2255D01*
X4559Y2256D01*
X4559Y2257D01*
X4558Y2258D01*
X4558Y2259D01*
X4557Y2261D01*
X4557Y2262D01*
X4557Y2263D01*
X4557Y2264D01*
X4557Y2265D01*
X4557Y2266D01*
Y2266D01*
Y2266D01*
Y2266D01*
X4557Y2268D01*
X4557Y2269D01*
X4557Y2271D01*
X4557Y2272D01*
X4558Y2273D01*
X4558Y2274D01*
X4559Y2275D01*
X4559Y2276D01*
X4559Y2277D01*
X4560Y2278D01*
X4560Y2278D01*
X4560Y2279D01*
X4561Y2279D01*
X4561Y2279D01*
X4561Y2280D01*
X4561Y2280D01*
X4562Y2280D01*
X4563Y2281D01*
X4564Y2282D01*
X4565Y2282D01*
X4566Y2283D01*
X4567Y2283D01*
X4569Y2284D01*
X4570Y2284D01*
X4571Y2284D01*
X4571Y2284D01*
X4572Y2284D01*
X4573Y2284D01*
X4573D01*
X4575Y2284D01*
D02*
G37*
G36*
X4680D02*
X4682Y2284D01*
X4684Y2283D01*
X4684Y2283D01*
X4685Y2283D01*
X4686Y2282D01*
X4686Y2282D01*
X4687Y2282D01*
X4687Y2282D01*
X4687Y2282D01*
X4687Y2281D01*
X4688Y2281D01*
X4688D01*
X4689Y2280D01*
X4690Y2279D01*
X4691Y2277D01*
X4692Y2276D01*
X4692Y2275D01*
X4693Y2274D01*
X4693Y2274D01*
X4693Y2273D01*
X4693Y2273D01*
X4693Y2273D01*
Y2273D01*
X4687Y2272D01*
X4686Y2274D01*
X4686Y2275D01*
X4685Y2276D01*
X4685Y2276D01*
X4684Y2277D01*
X4684Y2277D01*
X4683Y2278D01*
X4683Y2278D01*
X4682Y2278D01*
X4681Y2279D01*
X4681Y2279D01*
X4680Y2279D01*
X4679Y2279D01*
X4678Y2279D01*
X4678D01*
X4677Y2279D01*
X4676Y2279D01*
X4675Y2279D01*
X4674Y2278D01*
X4672Y2278D01*
X4672Y2277D01*
X4671Y2277D01*
X4671Y2277D01*
X4670Y2276D01*
X4670D01*
X4669Y2275D01*
X4669Y2274D01*
X4668Y2272D01*
X4668Y2271D01*
X4667Y2270D01*
X4667Y2269D01*
X4667Y2269D01*
Y2268D01*
X4667Y2268D01*
Y2268D01*
Y2268D01*
X4693D01*
X4693Y2267D01*
Y2266D01*
Y2266D01*
Y2266D01*
X4693Y2264D01*
X4693Y2263D01*
X4693Y2262D01*
X4693Y2260D01*
X4692Y2259D01*
X4692Y2258D01*
X4691Y2257D01*
X4691Y2256D01*
X4691Y2255D01*
X4690Y2255D01*
X4690Y2254D01*
X4690Y2254D01*
X4689Y2253D01*
X4689Y2253D01*
X4689Y2253D01*
X4689Y2253D01*
X4688Y2252D01*
X4687Y2251D01*
X4686Y2250D01*
X4685Y2250D01*
X4684Y2249D01*
X4683Y2249D01*
X4682Y2249D01*
X4681Y2248D01*
X4681Y2248D01*
X4680Y2248D01*
X4679Y2248D01*
X4679Y2248D01*
X4678Y2248D01*
X4677D01*
X4676Y2248D01*
X4675Y2248D01*
X4674Y2248D01*
X4673Y2249D01*
X4671Y2249D01*
X4671Y2249D01*
X4670Y2250D01*
X4669Y2250D01*
X4668Y2251D01*
X4667Y2251D01*
X4667Y2252D01*
X4666Y2252D01*
X4666Y2252D01*
X4666Y2253D01*
X4666Y2253D01*
X4666Y2253D01*
X4665Y2254D01*
X4664Y2255D01*
X4664Y2256D01*
X4663Y2257D01*
X4663Y2258D01*
X4662Y2259D01*
X4662Y2261D01*
X4661Y2262D01*
X4661Y2263D01*
X4661Y2264D01*
X4661Y2265D01*
X4661Y2266D01*
Y2266D01*
Y2266D01*
Y2266D01*
X4661Y2268D01*
X4661Y2269D01*
X4662Y2271D01*
X4662Y2272D01*
X4662Y2273D01*
X4663Y2274D01*
X4663Y2275D01*
X4663Y2276D01*
X4664Y2277D01*
X4664Y2278D01*
X4665Y2278D01*
X4665Y2279D01*
X4665Y2279D01*
X4665Y2279D01*
X4666Y2280D01*
X4666Y2280D01*
X4666Y2280D01*
X4667Y2281D01*
X4668Y2282D01*
X4669Y2282D01*
X4670Y2283D01*
X4671Y2283D01*
X4673Y2284D01*
X4674Y2284D01*
X4675Y2284D01*
X4676Y2284D01*
X4676Y2284D01*
X4677Y2284D01*
X4678D01*
X4680Y2284D01*
D02*
G37*
G36*
X4649Y2270D02*
X4649Y2269D01*
X4648Y2268D01*
X4647Y2267D01*
X4646Y2266D01*
X4645Y2265D01*
X4645Y2265D01*
X4644Y2264D01*
X4644Y2264D01*
X4644Y2264D01*
X4643Y2263D01*
X4642Y2262D01*
X4641Y2262D01*
X4641Y2262D01*
X4641Y2262D01*
X4640Y2262D01*
X4642Y2261D01*
X4643Y2261D01*
X4644Y2261D01*
X4645Y2261D01*
X4646Y2260D01*
X4647Y2260D01*
X4647Y2259D01*
X4648Y2259D01*
X4649Y2259D01*
X4649Y2258D01*
X4650Y2258D01*
X4650Y2258D01*
X4650Y2258D01*
X4650Y2257D01*
X4651Y2257D01*
X4651Y2257D01*
X4651Y2257D01*
X4652Y2256D01*
X4653Y2254D01*
X4653Y2253D01*
X4654Y2252D01*
X4654Y2250D01*
X4654Y2250D01*
Y2249D01*
X4654Y2249D01*
Y2249D01*
Y2249D01*
Y2249D01*
X4654Y2247D01*
X4654Y2246D01*
X4653Y2245D01*
X4653Y2243D01*
X4653Y2243D01*
X4652Y2242D01*
X4652Y2241D01*
X4652Y2241D01*
Y2241D01*
X4651Y2240D01*
X4650Y2239D01*
X4649Y2238D01*
X4649Y2238D01*
X4648Y2237D01*
X4647Y2237D01*
X4647Y2237D01*
X4647Y2237D01*
X4647D01*
X4646Y2237D01*
X4645Y2236D01*
X4644Y2236D01*
X4642Y2236D01*
X4640Y2236D01*
X4639Y2236D01*
X4638D01*
X4638Y2235D01*
X4616D01*
Y2283D01*
X4622D01*
Y2262D01*
X4630D01*
X4631Y2262D01*
X4631D01*
X4632Y2262D01*
X4632Y2262D01*
X4633D01*
X4633Y2262D01*
X4633D01*
X4634Y2263D01*
X4634Y2263D01*
X4635Y2263D01*
X4635Y2263D01*
X4635Y2264D01*
X4636Y2264D01*
X4636Y2264D01*
X4636Y2264D01*
X4637Y2265D01*
X4638Y2266D01*
X4638Y2266D01*
X4639Y2267D01*
X4639Y2267D01*
X4639Y2267D01*
X4640Y2268D01*
X4640Y2269D01*
X4641Y2270D01*
X4642Y2271D01*
X4643Y2272D01*
X4643Y2273D01*
X4643Y2273D01*
X4643Y2273D01*
X4644Y2273D01*
Y2273D01*
X4650Y2283D01*
X4658D01*
X4649Y2270D01*
D02*
G37*
G36*
X4318Y2284D02*
X4320Y2284D01*
X4322Y2283D01*
X4322Y2283D01*
X4323Y2283D01*
X4324Y2282D01*
X4324Y2282D01*
X4325Y2282D01*
X4325Y2282D01*
X4325Y2282D01*
X4325Y2281D01*
X4326Y2281D01*
X4326D01*
X4327Y2280D01*
X4328Y2279D01*
X4329Y2277D01*
X4330Y2276D01*
X4330Y2275D01*
X4331Y2274D01*
X4331Y2274D01*
X4331Y2273D01*
X4331Y2273D01*
X4331Y2273D01*
Y2273D01*
X4325Y2272D01*
X4324Y2274D01*
X4324Y2275D01*
X4323Y2276D01*
X4323Y2276D01*
X4322Y2277D01*
X4322Y2277D01*
X4321Y2278D01*
X4321Y2278D01*
X4320Y2278D01*
X4319Y2279D01*
X4319Y2279D01*
X4318Y2279D01*
X4317Y2279D01*
X4316Y2279D01*
X4316D01*
X4315Y2279D01*
X4314Y2279D01*
X4313Y2279D01*
X4312Y2278D01*
X4310Y2278D01*
X4310Y2277D01*
X4309Y2277D01*
X4309Y2277D01*
X4308Y2276D01*
X4308D01*
X4307Y2275D01*
X4307Y2274D01*
X4306Y2272D01*
X4306Y2271D01*
X4305Y2270D01*
X4305Y2269D01*
X4305Y2269D01*
Y2268D01*
X4305Y2268D01*
Y2268D01*
Y2268D01*
X4331D01*
X4331Y2267D01*
Y2266D01*
Y2266D01*
Y2266D01*
X4331Y2264D01*
X4331Y2263D01*
X4331Y2262D01*
X4331Y2260D01*
X4330Y2259D01*
X4330Y2258D01*
X4329Y2257D01*
X4329Y2256D01*
X4329Y2255D01*
X4328Y2255D01*
X4328Y2254D01*
X4328Y2254D01*
X4327Y2253D01*
X4327Y2253D01*
X4327Y2253D01*
X4327Y2253D01*
X4326Y2252D01*
X4325Y2251D01*
X4324Y2250D01*
X4323Y2250D01*
X4322Y2249D01*
X4321Y2249D01*
X4320Y2249D01*
X4319Y2248D01*
X4319Y2248D01*
X4318Y2248D01*
X4317Y2248D01*
X4317Y2248D01*
X4316Y2248D01*
X4315D01*
X4314Y2248D01*
X4313Y2248D01*
X4312Y2248D01*
X4311Y2249D01*
X4309Y2249D01*
X4309Y2249D01*
X4308Y2250D01*
X4307Y2250D01*
X4306Y2251D01*
X4305Y2251D01*
X4305Y2252D01*
X4305Y2252D01*
X4304Y2252D01*
X4304Y2253D01*
X4304Y2253D01*
X4304Y2253D01*
X4303Y2254D01*
X4302Y2255D01*
X4302Y2256D01*
X4301Y2257D01*
X4301Y2258D01*
X4300Y2259D01*
X4300Y2261D01*
X4300Y2262D01*
X4299Y2263D01*
X4299Y2264D01*
X4299Y2265D01*
X4299Y2266D01*
Y2266D01*
Y2266D01*
Y2266D01*
X4299Y2268D01*
X4299Y2269D01*
X4300Y2271D01*
X4300Y2272D01*
X4300Y2273D01*
X4301Y2274D01*
X4301Y2275D01*
X4301Y2276D01*
X4302Y2277D01*
X4302Y2278D01*
X4303Y2278D01*
X4303Y2279D01*
X4303Y2279D01*
X4303Y2279D01*
X4304Y2280D01*
X4304Y2280D01*
X4305Y2280D01*
X4305Y2281D01*
X4306Y2282D01*
X4307Y2282D01*
X4308Y2283D01*
X4309Y2283D01*
X4311Y2284D01*
X4312Y2284D01*
X4313Y2284D01*
X4314Y2284D01*
X4314Y2284D01*
X4315Y2284D01*
X4316D01*
X4318Y2284D01*
D02*
G37*
G36*
X4966Y2172D02*
X4859D01*
Y2120D01*
X4956D01*
Y2088D01*
X4859D01*
Y2045D01*
X4963D01*
Y2013D01*
X4820D01*
Y2205D01*
X4966D01*
Y2172D01*
D02*
G37*
G36*
X5364Y2013D02*
X5327D01*
Y2047D01*
X5364D01*
Y2013D01*
D02*
G37*
G36*
X6006D02*
X5969D01*
Y2047D01*
X6006D01*
Y2013D01*
D02*
G37*
G36*
X4291D02*
X4252D01*
Y2205D01*
X4291D01*
Y2013D01*
D02*
G37*
G36*
X4712Y2284D02*
X4713Y2284D01*
X4714Y2284D01*
X4715Y2284D01*
X4716Y2283D01*
X4716Y2283D01*
X4717Y2283D01*
X4717Y2283D01*
X4718Y2283D01*
X4719Y2282D01*
X4720Y2281D01*
X4721Y2281D01*
X4722Y2280D01*
X4723Y2280D01*
X4723Y2279D01*
X4723Y2279D01*
X4723D01*
X4723Y2280D01*
X4724Y2281D01*
X4724Y2282D01*
X4724Y2282D01*
X4724Y2283D01*
X4724Y2283D01*
X4724Y2283D01*
X4724Y2283D01*
X4731D01*
X4730Y2283D01*
X4730Y2282D01*
X4730Y2281D01*
X4729Y2281D01*
X4729Y2280D01*
X4729Y2280D01*
X4729Y2279D01*
Y2279D01*
X4729Y2279D01*
X4729Y2278D01*
Y2277D01*
X4729Y2277D01*
X4729Y2275D01*
Y2273D01*
X4729Y2272D01*
Y2271D01*
Y2270D01*
Y2270D01*
Y2269D01*
Y2269D01*
Y2269D01*
Y2261D01*
Y2260D01*
X4729Y2258D01*
X4729Y2258D01*
Y2257D01*
X4729Y2256D01*
X4728Y2256D01*
X4728Y2256D01*
Y2256D01*
X4728Y2255D01*
X4728Y2254D01*
X4728Y2253D01*
X4727Y2253D01*
X4727Y2252D01*
X4727Y2252D01*
X4727Y2252D01*
X4727Y2252D01*
X4726Y2251D01*
X4725Y2250D01*
X4725Y2250D01*
X4724Y2250D01*
X4723Y2249D01*
X4723Y2249D01*
X4723Y2249D01*
X4722Y2249D01*
X4721Y2249D01*
X4720Y2248D01*
X4719Y2248D01*
X4718Y2248D01*
X4717Y2248D01*
X4716Y2248D01*
X4715D01*
X4714Y2248D01*
X4712Y2248D01*
X4711Y2248D01*
X4710Y2248D01*
X4709Y2249D01*
X4708Y2249D01*
X4708Y2249D01*
X4707Y2249D01*
X4707Y2249D01*
X4707D01*
X4706Y2250D01*
X4705Y2250D01*
X4704Y2251D01*
X4703Y2251D01*
X4703Y2252D01*
X4702Y2252D01*
X4702Y2253D01*
X4702Y2253D01*
X4701Y2254D01*
X4701Y2255D01*
X4700Y2255D01*
X4700Y2256D01*
X4700Y2257D01*
X4700Y2258D01*
X4700Y2258D01*
Y2258D01*
X4700Y2258D01*
Y2259D01*
X4705Y2259D01*
X4706Y2258D01*
X4706Y2257D01*
X4707Y2256D01*
X4707Y2255D01*
X4707Y2255D01*
X4708Y2254D01*
X4708Y2254D01*
X4708Y2254D01*
X4709Y2254D01*
X4710Y2253D01*
X4711Y2253D01*
X4712Y2253D01*
X4713Y2253D01*
X4714Y2253D01*
X4714D01*
X4716Y2253D01*
X4717Y2253D01*
X4718Y2253D01*
X4719Y2254D01*
X4720Y2254D01*
X4721Y2254D01*
X4721Y2255D01*
X4721Y2255D01*
X4722Y2255D01*
X4722Y2256D01*
X4722Y2257D01*
X4723Y2258D01*
X4723Y2259D01*
X4723Y2259D01*
Y2260D01*
Y2260D01*
Y2260D01*
Y2260D01*
Y2260D01*
Y2261D01*
X4723Y2261D01*
Y2261D01*
Y2261D01*
X4722Y2262D01*
X4721Y2262D01*
X4720Y2262D01*
X4718Y2263D01*
X4716Y2263D01*
X4715Y2263D01*
X4715Y2263D01*
X4714Y2263D01*
X4713Y2263D01*
X4713Y2263D01*
X4713D01*
X4712Y2263D01*
X4712D01*
X4711Y2264D01*
X4710Y2264D01*
X4709Y2264D01*
X4708Y2264D01*
X4708Y2264D01*
X4707Y2264D01*
X4707Y2264D01*
X4707D01*
X4706Y2265D01*
X4705Y2265D01*
X4705Y2265D01*
X4704Y2265D01*
X4703Y2266D01*
X4703Y2266D01*
X4703Y2266D01*
X4703Y2266D01*
X4702Y2267D01*
X4701Y2267D01*
X4701Y2268D01*
X4700Y2268D01*
X4700Y2269D01*
X4700Y2269D01*
X4700Y2270D01*
X4700Y2270D01*
X4699Y2270D01*
X4699Y2271D01*
X4699Y2272D01*
X4699Y2273D01*
X4699Y2273D01*
X4698Y2274D01*
Y2274D01*
Y2274D01*
X4699Y2275D01*
X4699Y2276D01*
X4699Y2277D01*
X4699Y2278D01*
X4700Y2280D01*
X4701Y2280D01*
X4701Y2281D01*
X4701Y2281D01*
X4702Y2281D01*
X4703Y2282D01*
X4704Y2283D01*
X4706Y2284D01*
X4707Y2284D01*
X4708Y2284D01*
X4709Y2284D01*
X4709D01*
X4710Y2284D01*
X4710D01*
X4712Y2284D01*
D02*
G37*
G36*
X4535D02*
X4536Y2284D01*
X4537Y2284D01*
X4538Y2283D01*
X4539Y2283D01*
X4540Y2283D01*
X4541Y2282D01*
X4541Y2282D01*
X4542Y2281D01*
X4542Y2281D01*
X4543Y2280D01*
X4543Y2280D01*
X4544Y2280D01*
X4544Y2279D01*
X4544Y2279D01*
X4544Y2279D01*
Y2283D01*
X4549D01*
Y2235D01*
X4543D01*
Y2253D01*
X4543Y2252D01*
X4542Y2251D01*
X4542Y2251D01*
X4541Y2250D01*
X4540Y2250D01*
X4540Y2249D01*
X4540Y2249D01*
X4539Y2249D01*
X4539Y2249D01*
X4538Y2248D01*
X4537Y2248D01*
X4536Y2248D01*
X4535Y2248D01*
X4534Y2248D01*
X4534D01*
X4532Y2248D01*
X4531Y2248D01*
X4529Y2249D01*
X4528Y2249D01*
X4527Y2249D01*
X4527Y2250D01*
X4526Y2250D01*
X4526Y2250D01*
X4526Y2250D01*
X4526D01*
X4525Y2251D01*
X4524Y2252D01*
X4523Y2253D01*
X4522Y2254D01*
X4522Y2255D01*
X4521Y2256D01*
X4521Y2256D01*
X4521Y2256D01*
X4521Y2257D01*
Y2257D01*
X4520Y2258D01*
X4520Y2260D01*
X4520Y2262D01*
X4519Y2263D01*
X4519Y2264D01*
Y2265D01*
X4519Y2265D01*
Y2266D01*
Y2266D01*
Y2266D01*
Y2266D01*
X4519Y2268D01*
X4519Y2270D01*
X4520Y2271D01*
X4520Y2273D01*
X4520Y2273D01*
X4520Y2274D01*
X4521Y2274D01*
X4521Y2275D01*
X4521Y2275D01*
X4521Y2275D01*
X4521Y2275D01*
Y2276D01*
X4522Y2277D01*
X4523Y2278D01*
X4524Y2279D01*
X4524Y2280D01*
X4525Y2281D01*
X4526Y2282D01*
X4526Y2282D01*
X4526Y2282D01*
X4526D01*
X4528Y2283D01*
X4529Y2283D01*
X4530Y2284D01*
X4532Y2284D01*
X4533Y2284D01*
X4533Y2284D01*
X4534Y2284D01*
X4534D01*
X4535Y2284D01*
D02*
G37*
G36*
X4744Y2235D02*
X4738D01*
Y2283D01*
X4744D01*
Y2235D01*
D02*
G37*
G36*
X4253D02*
X4247D01*
Y2283D01*
X4253D01*
Y2235D01*
D02*
G37*
G36*
X4278Y2284D02*
X4279Y2284D01*
X4280Y2284D01*
X4281Y2283D01*
X4282Y2283D01*
X4283Y2283D01*
X4283Y2282D01*
X4284Y2282D01*
X4284Y2281D01*
X4285Y2281D01*
X4285Y2280D01*
X4286Y2280D01*
X4286Y2280D01*
X4286Y2279D01*
X4286Y2279D01*
X4286Y2279D01*
Y2283D01*
X4292D01*
Y2235D01*
X4286D01*
Y2253D01*
X4285Y2252D01*
X4285Y2251D01*
X4284Y2251D01*
X4283Y2250D01*
X4283Y2250D01*
X4282Y2249D01*
X4282Y2249D01*
X4282Y2249D01*
X4281Y2249D01*
X4280Y2248D01*
X4279Y2248D01*
X4278Y2248D01*
X4277Y2248D01*
X4277Y2248D01*
X4276D01*
X4275Y2248D01*
X4273Y2248D01*
X4272Y2249D01*
X4271Y2249D01*
X4270Y2249D01*
X4269Y2250D01*
X4269Y2250D01*
X4269Y2250D01*
X4269Y2250D01*
X4269D01*
X4267Y2251D01*
X4266Y2252D01*
X4265Y2253D01*
X4265Y2254D01*
X4264Y2255D01*
X4264Y2256D01*
X4264Y2256D01*
X4263Y2256D01*
X4263Y2257D01*
Y2257D01*
X4263Y2258D01*
X4262Y2260D01*
X4262Y2262D01*
X4262Y2263D01*
X4262Y2264D01*
Y2265D01*
X4262Y2265D01*
Y2266D01*
Y2266D01*
Y2266D01*
Y2266D01*
X4262Y2268D01*
X4262Y2270D01*
X4262Y2271D01*
X4263Y2273D01*
X4263Y2273D01*
X4263Y2274D01*
X4263Y2274D01*
X4263Y2275D01*
X4263Y2275D01*
X4263Y2275D01*
X4263Y2275D01*
Y2276D01*
X4264Y2277D01*
X4265Y2278D01*
X4266Y2279D01*
X4267Y2280D01*
X4268Y2281D01*
X4268Y2282D01*
X4269Y2282D01*
X4269Y2282D01*
X4269D01*
X4270Y2283D01*
X4272Y2283D01*
X4273Y2284D01*
X4274Y2284D01*
X4275Y2284D01*
X4276Y2284D01*
X4276Y2284D01*
X4277D01*
X4278Y2284D01*
D02*
G37*
G36*
X4350D02*
X4351Y2284D01*
X4352Y2284D01*
X4353Y2284D01*
X4354Y2283D01*
X4354Y2283D01*
X4355Y2283D01*
X4355Y2283D01*
X4356Y2283D01*
X4357Y2282D01*
X4358Y2281D01*
X4359Y2281D01*
X4360Y2280D01*
X4361Y2280D01*
X4361Y2279D01*
X4361Y2279D01*
X4361D01*
X4361Y2280D01*
X4362Y2281D01*
X4362Y2282D01*
X4362Y2282D01*
X4362Y2283D01*
X4362Y2283D01*
X4362Y2283D01*
X4362Y2283D01*
X4369D01*
X4368Y2283D01*
X4368Y2282D01*
X4368Y2281D01*
X4367Y2281D01*
X4367Y2280D01*
X4367Y2280D01*
X4367Y2279D01*
Y2279D01*
X4367Y2279D01*
X4367Y2278D01*
Y2277D01*
X4367Y2277D01*
X4367Y2275D01*
Y2273D01*
X4367Y2272D01*
Y2271D01*
Y2270D01*
Y2270D01*
Y2269D01*
Y2269D01*
Y2269D01*
Y2261D01*
Y2260D01*
X4367Y2258D01*
X4367Y2258D01*
Y2257D01*
X4367Y2256D01*
X4366Y2256D01*
X4366Y2256D01*
Y2256D01*
X4366Y2255D01*
X4366Y2254D01*
X4366Y2253D01*
X4365Y2253D01*
X4365Y2252D01*
X4365Y2252D01*
X4365Y2252D01*
X4365Y2252D01*
X4364Y2251D01*
X4363Y2250D01*
X4363Y2250D01*
X4362Y2250D01*
X4361Y2249D01*
X4361Y2249D01*
X4361Y2249D01*
X4360Y2249D01*
X4359Y2249D01*
X4358Y2248D01*
X4357Y2248D01*
X4356Y2248D01*
X4355Y2248D01*
X4354Y2248D01*
X4353D01*
X4352Y2248D01*
X4350Y2248D01*
X4349Y2248D01*
X4348Y2248D01*
X4347Y2249D01*
X4346Y2249D01*
X4346Y2249D01*
X4345Y2249D01*
X4345Y2249D01*
X4345D01*
X4344Y2250D01*
X4343Y2250D01*
X4342Y2251D01*
X4341Y2251D01*
X4341Y2252D01*
X4340Y2252D01*
X4340Y2253D01*
X4340Y2253D01*
X4339Y2254D01*
X4339Y2255D01*
X4339Y2255D01*
X4338Y2256D01*
X4338Y2257D01*
X4338Y2258D01*
X4338Y2258D01*
Y2258D01*
X4338Y2258D01*
Y2259D01*
X4343Y2259D01*
X4344Y2258D01*
X4344Y2257D01*
X4345Y2256D01*
X4345Y2255D01*
X4345Y2255D01*
X4346Y2254D01*
X4346Y2254D01*
X4346Y2254D01*
X4347Y2254D01*
X4348Y2253D01*
X4349Y2253D01*
X4350Y2253D01*
X4351Y2253D01*
X4352Y2253D01*
X4352D01*
X4354Y2253D01*
X4355Y2253D01*
X4356Y2253D01*
X4357Y2254D01*
X4358Y2254D01*
X4359Y2254D01*
X4359Y2255D01*
X4359Y2255D01*
X4360Y2255D01*
X4360Y2256D01*
X4360Y2257D01*
X4361Y2258D01*
X4361Y2259D01*
X4361Y2259D01*
Y2260D01*
Y2260D01*
Y2260D01*
Y2260D01*
Y2260D01*
Y2261D01*
X4361Y2261D01*
Y2261D01*
Y2261D01*
X4360Y2262D01*
X4359Y2262D01*
X4358Y2262D01*
X4356Y2263D01*
X4354Y2263D01*
X4353Y2263D01*
X4353Y2263D01*
X4352Y2263D01*
X4351Y2263D01*
X4351Y2263D01*
X4351D01*
X4350Y2263D01*
X4350D01*
X4349Y2264D01*
X4348Y2264D01*
X4347Y2264D01*
X4346Y2264D01*
X4346Y2264D01*
X4345Y2264D01*
X4345Y2264D01*
X4345D01*
X4344Y2265D01*
X4343Y2265D01*
X4343Y2265D01*
X4342Y2265D01*
X4341Y2266D01*
X4341Y2266D01*
X4341Y2266D01*
X4341Y2266D01*
X4340Y2267D01*
X4339Y2267D01*
X4339Y2268D01*
X4338Y2268D01*
X4338Y2269D01*
X4338Y2269D01*
X4338Y2270D01*
X4338Y2270D01*
X4337Y2270D01*
X4337Y2271D01*
X4337Y2272D01*
X4337Y2273D01*
X4337Y2273D01*
X4336Y2274D01*
Y2274D01*
Y2274D01*
X4337Y2275D01*
X4337Y2276D01*
X4337Y2277D01*
X4337Y2278D01*
X4338Y2280D01*
X4339Y2280D01*
X4339Y2281D01*
X4339Y2281D01*
X4340Y2281D01*
X4341Y2282D01*
X4342Y2283D01*
X4344Y2284D01*
X4345Y2284D01*
X4346Y2284D01*
X4347Y2284D01*
X4347D01*
X4348Y2284D01*
X4348D01*
X4350Y2284D01*
D02*
G37*
G36*
X4495D02*
X4496Y2284D01*
X4498Y2284D01*
X4498Y2284D01*
X4499Y2283D01*
X4500Y2283D01*
X4500Y2283D01*
X4500Y2283D01*
X4502Y2283D01*
X4503Y2282D01*
X4504Y2281D01*
X4505Y2281D01*
X4506Y2280D01*
X4506Y2280D01*
X4507Y2279D01*
X4507Y2279D01*
X4507D01*
X4507Y2280D01*
X4507Y2281D01*
X4507Y2282D01*
X4507Y2282D01*
X4508Y2283D01*
X4508Y2283D01*
X4508Y2283D01*
X4508Y2283D01*
X4514D01*
X4514Y2283D01*
X4513Y2282D01*
X4513Y2281D01*
X4513Y2281D01*
X4513Y2280D01*
X4513Y2280D01*
X4513Y2279D01*
Y2279D01*
X4513Y2279D01*
X4512Y2278D01*
Y2277D01*
X4512Y2277D01*
X4512Y2275D01*
Y2273D01*
X4512Y2272D01*
Y2271D01*
Y2270D01*
Y2270D01*
Y2269D01*
Y2269D01*
Y2269D01*
Y2261D01*
Y2260D01*
X4512Y2258D01*
X4512Y2258D01*
Y2257D01*
X4512Y2256D01*
X4512Y2256D01*
X4512Y2256D01*
Y2256D01*
X4512Y2255D01*
X4511Y2254D01*
X4511Y2253D01*
X4511Y2253D01*
X4511Y2252D01*
X4510Y2252D01*
X4510Y2252D01*
X4510Y2252D01*
X4510Y2251D01*
X4509Y2250D01*
X4508Y2250D01*
X4508Y2250D01*
X4507Y2249D01*
X4506Y2249D01*
X4506Y2249D01*
X4506Y2249D01*
X4505Y2249D01*
X4504Y2248D01*
X4502Y2248D01*
X4501Y2248D01*
X4500Y2248D01*
X4500Y2248D01*
X4499D01*
X4497Y2248D01*
X4496Y2248D01*
X4494Y2248D01*
X4493Y2248D01*
X4492Y2249D01*
X4491Y2249D01*
X4491Y2249D01*
X4491Y2249D01*
X4491Y2249D01*
X4491D01*
X4490Y2250D01*
X4489Y2250D01*
X4488Y2251D01*
X4487Y2251D01*
X4486Y2252D01*
X4486Y2252D01*
X4486Y2253D01*
X4486Y2253D01*
X4485Y2254D01*
X4484Y2255D01*
X4484Y2255D01*
X4484Y2256D01*
X4483Y2257D01*
X4483Y2258D01*
X4483Y2258D01*
Y2258D01*
X4483Y2258D01*
Y2259D01*
X4489Y2259D01*
X4489Y2258D01*
X4490Y2257D01*
X4490Y2256D01*
X4491Y2255D01*
X4491Y2255D01*
X4491Y2254D01*
X4492Y2254D01*
X4492Y2254D01*
X4493Y2254D01*
X4493Y2253D01*
X4495Y2253D01*
X4495Y2253D01*
X4496Y2253D01*
X4497Y2253D01*
X4498D01*
X4499Y2253D01*
X4501Y2253D01*
X4502Y2253D01*
X4503Y2254D01*
X4504Y2254D01*
X4504Y2254D01*
X4505Y2255D01*
X4505Y2255D01*
X4505Y2255D01*
X4506Y2256D01*
X4506Y2257D01*
X4506Y2258D01*
X4506Y2259D01*
X4506Y2259D01*
Y2260D01*
Y2260D01*
Y2260D01*
Y2260D01*
Y2260D01*
Y2261D01*
X4506Y2261D01*
Y2261D01*
Y2261D01*
X4506Y2262D01*
X4505Y2262D01*
X4503Y2262D01*
X4501Y2263D01*
X4500Y2263D01*
X4499Y2263D01*
X4498Y2263D01*
X4497Y2263D01*
X4497Y2263D01*
X4496Y2263D01*
X4496D01*
X4496Y2263D01*
X4496D01*
X4494Y2264D01*
X4493Y2264D01*
X4493Y2264D01*
X4492Y2264D01*
X4491Y2264D01*
X4491Y2264D01*
X4491Y2264D01*
X4490D01*
X4490Y2265D01*
X4489Y2265D01*
X4488Y2265D01*
X4487Y2265D01*
X4487Y2266D01*
X4487Y2266D01*
X4486Y2266D01*
X4486Y2266D01*
X4485Y2267D01*
X4485Y2267D01*
X4484Y2268D01*
X4484Y2268D01*
X4484Y2269D01*
X4483Y2269D01*
X4483Y2270D01*
X4483Y2270D01*
X4483Y2270D01*
X4483Y2271D01*
X4482Y2272D01*
X4482Y2273D01*
X4482Y2273D01*
X4482Y2274D01*
Y2274D01*
Y2274D01*
X4482Y2275D01*
X4482Y2276D01*
X4483Y2277D01*
X4483Y2278D01*
X4484Y2280D01*
X4484Y2280D01*
X4485Y2281D01*
X4485Y2281D01*
X4485Y2281D01*
X4486Y2282D01*
X4488Y2283D01*
X4489Y2284D01*
X4491Y2284D01*
X4492Y2284D01*
X4492Y2284D01*
X4493D01*
X4493Y2284D01*
X4494D01*
X4495Y2284D01*
D02*
G37*
G36*
X4474Y2235D02*
X4466D01*
X4454Y2269D01*
X4454Y2271D01*
X4453Y2272D01*
X4453Y2274D01*
X4452Y2275D01*
X4452Y2275D01*
X4452Y2276D01*
X4452Y2276D01*
X4452Y2277D01*
X4452Y2276D01*
X4451Y2275D01*
X4451Y2273D01*
X4450Y2272D01*
X4450Y2271D01*
X4450Y2270D01*
X4450Y2270D01*
X4450Y2270D01*
X4450Y2270D01*
Y2270D01*
X4438Y2235D01*
X4429D01*
Y2283D01*
X4435D01*
Y2243D01*
X4449Y2283D01*
X4454D01*
X4468Y2243D01*
Y2283D01*
X4474D01*
Y2235D01*
D02*
G37*
G36*
X4390Y2284D02*
X4391Y2284D01*
X4392Y2284D01*
X4394Y2284D01*
X4394Y2283D01*
X4395Y2283D01*
X4396Y2283D01*
X4396Y2283D01*
X4396D01*
X4397Y2282D01*
X4398Y2282D01*
X4399Y2281D01*
X4399Y2280D01*
X4400Y2280D01*
X4400Y2279D01*
X4401Y2279D01*
X4401Y2279D01*
X4401Y2278D01*
X4402Y2277D01*
X4402Y2276D01*
X4402Y2275D01*
X4402Y2274D01*
X4402Y2274D01*
Y2273D01*
Y2273D01*
X4402Y2272D01*
X4402Y2271D01*
X4402Y2270D01*
X4402Y2270D01*
X4401Y2269D01*
X4401Y2269D01*
X4401Y2268D01*
X4401Y2268D01*
X4400Y2268D01*
X4400Y2267D01*
X4399Y2266D01*
X4399Y2266D01*
X4398Y2266D01*
X4397Y2265D01*
X4397Y2265D01*
X4397Y2265D01*
X4397Y2265D01*
X4396Y2265D01*
X4395Y2264D01*
X4393Y2264D01*
X4392Y2263D01*
X4390Y2263D01*
X4390Y2263D01*
X4389Y2263D01*
X4389Y2263D01*
X4389Y2262D01*
X4388Y2262D01*
X4388D01*
X4388Y2262D01*
X4387Y2262D01*
X4386Y2262D01*
X4386Y2262D01*
X4385Y2261D01*
X4384Y2261D01*
X4384Y2261D01*
X4383Y2261D01*
X4383Y2261D01*
X4383D01*
X4383Y2261D01*
X4382Y2260D01*
X4382Y2260D01*
X4381Y2260D01*
X4381Y2260D01*
X4381Y2259D01*
X4381Y2259D01*
X4381Y2259D01*
X4380Y2259D01*
X4380Y2258D01*
Y2258D01*
X4380Y2257D01*
Y2257D01*
Y2257D01*
X4380Y2257D01*
X4380Y2256D01*
X4381Y2255D01*
X4381Y2255D01*
X4381Y2255D01*
X4382Y2254D01*
X4382Y2254D01*
X4382Y2254D01*
X4383Y2254D01*
X4384Y2253D01*
X4385Y2253D01*
X4385Y2253D01*
X4386Y2253D01*
X4387Y2253D01*
X4388D01*
X4389Y2253D01*
X4390Y2253D01*
X4391Y2253D01*
X4392Y2253D01*
X4392Y2254D01*
X4393Y2254D01*
X4393Y2254D01*
X4393Y2254D01*
X4394Y2255D01*
X4394Y2256D01*
X4395Y2256D01*
X4395Y2257D01*
X4395Y2258D01*
X4395Y2258D01*
X4395Y2258D01*
Y2258D01*
X4401Y2258D01*
X4401Y2256D01*
X4401Y2255D01*
X4400Y2255D01*
X4400Y2254D01*
X4400Y2253D01*
X4399Y2253D01*
X4399Y2252D01*
X4399Y2252D01*
X4398Y2252D01*
X4398Y2251D01*
X4397Y2250D01*
X4396Y2250D01*
X4395Y2250D01*
X4395Y2249D01*
X4395Y2249D01*
X4395Y2249D01*
X4394D01*
X4393Y2249D01*
X4392Y2248D01*
X4391Y2248D01*
X4390Y2248D01*
X4389Y2248D01*
X4388Y2248D01*
X4386D01*
X4385Y2248D01*
X4384Y2248D01*
X4384Y2248D01*
X4383Y2248D01*
X4383Y2248D01*
X4382Y2249D01*
X4382Y2249D01*
X4381Y2249D01*
X4381Y2249D01*
X4380Y2249D01*
X4379Y2250D01*
X4379Y2250D01*
X4379Y2250D01*
X4378Y2250D01*
X4378Y2250D01*
X4378Y2251D01*
X4377Y2251D01*
X4377Y2252D01*
X4376Y2252D01*
X4376Y2253D01*
X4376Y2253D01*
X4376Y2254D01*
X4375Y2254D01*
X4375Y2254D01*
X4375Y2255D01*
X4375Y2256D01*
X4375Y2256D01*
X4375Y2257D01*
X4374Y2258D01*
Y2258D01*
Y2258D01*
X4375Y2259D01*
X4375Y2260D01*
X4375Y2261D01*
X4375Y2261D01*
X4375Y2262D01*
X4375Y2262D01*
X4376Y2263D01*
X4376Y2263D01*
X4376Y2263D01*
X4377Y2264D01*
X4378Y2265D01*
X4378Y2265D01*
X4379Y2265D01*
X4379Y2266D01*
X4379Y2266D01*
X4380Y2266D01*
X4380Y2266D01*
X4381Y2266D01*
X4382Y2267D01*
X4383Y2267D01*
X4385Y2268D01*
X4386Y2268D01*
X4387Y2268D01*
X4388Y2268D01*
X4388Y2269D01*
X4388Y2269D01*
X4388Y2269D01*
X4389D01*
X4389Y2269D01*
X4390Y2269D01*
X4391Y2269D01*
X4392Y2270D01*
X4392Y2270D01*
X4393Y2270D01*
X4393Y2270D01*
X4394Y2270D01*
X4394Y2271D01*
X4395Y2271D01*
X4395Y2271D01*
X4395Y2271D01*
X4396Y2272D01*
X4396Y2272D01*
X4396Y2273D01*
X4396Y2273D01*
X4396Y2274D01*
Y2274D01*
Y2274D01*
X4396Y2275D01*
X4396Y2275D01*
X4396Y2276D01*
X4395Y2277D01*
X4395Y2277D01*
X4395Y2277D01*
X4394Y2278D01*
X4394Y2278D01*
X4394Y2278D01*
X4393Y2279D01*
X4392Y2279D01*
X4391Y2279D01*
X4390Y2279D01*
X4389Y2279D01*
X4388D01*
X4387Y2279D01*
X4386Y2279D01*
X4385Y2279D01*
X4384Y2278D01*
X4383Y2278D01*
X4382Y2278D01*
X4382Y2278D01*
X4382Y2278D01*
X4381Y2277D01*
X4381Y2276D01*
X4380Y2275D01*
X4380Y2274D01*
X4380Y2273D01*
X4379Y2273D01*
X4379Y2272D01*
Y2272D01*
Y2272D01*
X4373Y2273D01*
X4374Y2275D01*
X4375Y2277D01*
X4375Y2278D01*
X4376Y2279D01*
X4377Y2280D01*
X4377Y2281D01*
X4378Y2281D01*
X4378Y2281D01*
X4378Y2281D01*
X4379Y2282D01*
X4379Y2282D01*
X4381Y2283D01*
X4383Y2284D01*
X4385Y2284D01*
X4385Y2284D01*
X4386Y2284D01*
X4387Y2284D01*
X4387D01*
X4388Y2284D01*
X4388D01*
X4390Y2284D01*
D02*
G37*
G36*
X5780Y2207D02*
X5788Y2206D01*
X5794Y2204D01*
X5800Y2203D01*
X5802Y2201D01*
X5804Y2201D01*
X5806Y2200D01*
X5808Y2199D01*
X5809Y2198D01*
X5810Y2198D01*
X5810Y2197D01*
X5810D01*
X5816Y2193D01*
X5820Y2188D01*
X5824Y2183D01*
X5827Y2178D01*
X5830Y2173D01*
X5831Y2171D01*
X5832Y2170D01*
X5832Y2168D01*
X5833Y2167D01*
X5833Y2167D01*
Y2166D01*
X5796Y2160D01*
X5795Y2164D01*
X5793Y2167D01*
X5792Y2170D01*
X5790Y2172D01*
X5789Y2174D01*
X5788Y2175D01*
X5787Y2175D01*
X5787Y2176D01*
X5785Y2177D01*
X5782Y2178D01*
X5780Y2179D01*
X5778Y2180D01*
X5776Y2180D01*
X5774Y2180D01*
X5773D01*
X5768Y2180D01*
X5764Y2179D01*
X5760Y2178D01*
X5757Y2176D01*
X5755Y2174D01*
X5753Y2173D01*
X5752Y2172D01*
X5751Y2171D01*
X5748Y2168D01*
X5747Y2164D01*
X5745Y2159D01*
X5744Y2155D01*
X5743Y2151D01*
X5743Y2149D01*
X5743Y2148D01*
Y2147D01*
Y2146D01*
Y2146D01*
X5835D01*
Y2138D01*
X5834Y2131D01*
X5833Y2124D01*
X5832Y2118D01*
X5831Y2113D01*
X5830Y2108D01*
X5828Y2103D01*
X5826Y2099D01*
X5825Y2095D01*
X5823Y2092D01*
X5822Y2089D01*
X5820Y2087D01*
X5819Y2085D01*
X5818Y2084D01*
X5818Y2083D01*
X5817Y2083D01*
X5814Y2079D01*
X5810Y2076D01*
X5806Y2073D01*
X5802Y2071D01*
X5798Y2069D01*
X5794Y2067D01*
X5790Y2066D01*
X5786Y2065D01*
X5783Y2064D01*
X5779Y2063D01*
X5776Y2063D01*
X5774Y2063D01*
X5772Y2062D01*
X5768D01*
X5763Y2063D01*
X5759Y2063D01*
X5754Y2064D01*
X5750Y2065D01*
X5746Y2067D01*
X5742Y2068D01*
X5738Y2070D01*
X5735Y2072D01*
X5733Y2074D01*
X5730Y2076D01*
X5728Y2078D01*
X5726Y2079D01*
X5725Y2080D01*
X5724Y2081D01*
X5723Y2082D01*
X5723Y2082D01*
X5720Y2086D01*
X5717Y2090D01*
X5715Y2094D01*
X5712Y2099D01*
X5711Y2103D01*
X5709Y2108D01*
X5707Y2116D01*
X5706Y2121D01*
X5706Y2124D01*
X5705Y2128D01*
X5705Y2130D01*
X5705Y2133D01*
Y2135D01*
Y2136D01*
Y2136D01*
X5705Y2141D01*
X5705Y2147D01*
X5706Y2151D01*
X5707Y2156D01*
X5708Y2160D01*
X5709Y2164D01*
X5710Y2168D01*
X5712Y2171D01*
X5713Y2174D01*
X5714Y2177D01*
X5715Y2179D01*
X5716Y2181D01*
X5717Y2182D01*
X5718Y2183D01*
X5718Y2184D01*
X5719Y2184D01*
X5722Y2188D01*
X5726Y2192D01*
X5730Y2195D01*
X5734Y2198D01*
X5739Y2200D01*
X5743Y2202D01*
X5748Y2204D01*
X5752Y2205D01*
X5756Y2206D01*
X5760Y2206D01*
X5763Y2207D01*
X5767Y2208D01*
X5769D01*
X5771Y2208D01*
X5772D01*
X5780Y2207D01*
D02*
G37*
G36*
X6276Y2261D02*
X6282Y2261D01*
X6288Y2260D01*
X6292Y2259D01*
X6296Y2259D01*
X6298Y2258D01*
X6300Y2257D01*
X6301Y2257D01*
X6305Y2256D01*
X6309Y2254D01*
X6312Y2252D01*
X6315Y2250D01*
X6317Y2249D01*
X6319Y2247D01*
X6320Y2247D01*
X6320Y2246D01*
X6323Y2244D01*
X6325Y2241D01*
X6327Y2237D01*
X6329Y2234D01*
X6330Y2231D01*
X6331Y2229D01*
X6331Y2228D01*
X6332Y2227D01*
X6332Y2225D01*
X6333Y2222D01*
X6334Y2216D01*
X6335Y2210D01*
X6335Y2204D01*
X6336Y2199D01*
X6336Y2197D01*
Y2194D01*
Y2193D01*
Y2192D01*
Y2191D01*
Y2191D01*
Y2065D01*
X6301D01*
Y2085D01*
X6298Y2081D01*
X6295Y2078D01*
X6291Y2074D01*
X6288Y2072D01*
X6284Y2070D01*
X6280Y2068D01*
X6277Y2066D01*
X6274Y2065D01*
X6271Y2064D01*
X6268Y2063D01*
X6265Y2063D01*
X6263Y2063D01*
X6261D01*
X6260Y2062D01*
X6259D01*
X6254Y2063D01*
X6250Y2063D01*
X6246Y2064D01*
X6241Y2065D01*
X6234Y2068D01*
X6231Y2070D01*
X6228Y2071D01*
X6226Y2073D01*
X6223Y2075D01*
X6221Y2076D01*
X6220Y2078D01*
X6218Y2079D01*
X6218Y2080D01*
X6217Y2081D01*
X6217Y2081D01*
X6214Y2084D01*
X6211Y2088D01*
X6209Y2093D01*
X6207Y2097D01*
X6206Y2101D01*
X6204Y2106D01*
X6202Y2115D01*
X6201Y2119D01*
X6201Y2123D01*
X6201Y2126D01*
X6200Y2129D01*
X6200Y2131D01*
Y2133D01*
Y2134D01*
Y2134D01*
X6200Y2139D01*
X6201Y2144D01*
X6202Y2153D01*
X6203Y2158D01*
X6204Y2161D01*
X6205Y2165D01*
X6206Y2168D01*
X6208Y2171D01*
X6209Y2174D01*
X6210Y2176D01*
X6211Y2178D01*
X6212Y2179D01*
X6212Y2180D01*
X6213Y2181D01*
Y2181D01*
X6216Y2185D01*
X6219Y2189D01*
X6223Y2192D01*
X6227Y2195D01*
X6230Y2197D01*
X6234Y2199D01*
X6238Y2201D01*
X6241Y2202D01*
X6244Y2203D01*
X6248Y2203D01*
X6250Y2204D01*
X6253Y2204D01*
X6254D01*
X6256Y2205D01*
X6257D01*
X6262Y2204D01*
X6266Y2204D01*
X6271Y2203D01*
X6274Y2201D01*
X6281Y2198D01*
X6285Y2196D01*
X6288Y2193D01*
X6290Y2191D01*
X6293Y2189D01*
X6294Y2188D01*
X6296Y2186D01*
X6297Y2184D01*
X6298Y2183D01*
X6299Y2183D01*
X6299Y2182D01*
Y2203D01*
Y2207D01*
X6299Y2210D01*
X6298Y2213D01*
X6298Y2215D01*
X6298Y2217D01*
X6297Y2218D01*
X6297Y2219D01*
Y2219D01*
X6296Y2221D01*
X6295Y2223D01*
X6294Y2225D01*
X6293Y2226D01*
X6291Y2227D01*
X6291Y2228D01*
X6290Y2228D01*
X6290Y2229D01*
X6287Y2230D01*
X6283Y2231D01*
X6280Y2232D01*
X6276Y2232D01*
X6273Y2233D01*
X6271Y2233D01*
X6268D01*
X6264Y2233D01*
X6261Y2232D01*
X6258Y2232D01*
X6256Y2231D01*
X6254Y2230D01*
X6253Y2229D01*
X6252Y2229D01*
X6252Y2229D01*
X6250Y2228D01*
X6249Y2226D01*
X6248Y2223D01*
X6248Y2221D01*
X6247Y2220D01*
X6247Y2219D01*
Y2219D01*
X6205Y2214D01*
X6204Y2216D01*
Y2217D01*
Y2218D01*
Y2218D01*
X6205Y2222D01*
X6205Y2225D01*
X6207Y2231D01*
X6209Y2236D01*
X6212Y2241D01*
X6214Y2244D01*
X6217Y2247D01*
X6219Y2249D01*
X6219Y2249D01*
X6219Y2249D01*
X6222Y2251D01*
X6226Y2253D01*
X6229Y2255D01*
X6233Y2256D01*
X6242Y2258D01*
X6250Y2260D01*
X6254Y2260D01*
X6258Y2261D01*
X6261Y2261D01*
X6264D01*
X6266Y2261D01*
X6269D01*
X6276Y2261D01*
D02*
G37*
G36*
X5126Y2118D02*
Y2113D01*
X5126Y2108D01*
X5125Y2103D01*
X5125Y2100D01*
X5125Y2097D01*
X5124Y2095D01*
X5124Y2094D01*
Y2094D01*
X5123Y2090D01*
X5122Y2088D01*
X5121Y2085D01*
X5119Y2083D01*
X5118Y2081D01*
X5117Y2079D01*
X5117Y2078D01*
X5116Y2078D01*
X5114Y2076D01*
X5112Y2073D01*
X5109Y2071D01*
X5107Y2070D01*
X5105Y2068D01*
X5103Y2068D01*
X5101Y2067D01*
X5101Y2067D01*
X5097Y2065D01*
X5093Y2064D01*
X5090Y2063D01*
X5086Y2063D01*
X5083Y2063D01*
X5081Y2062D01*
X5079D01*
X5074Y2063D01*
X5069Y2063D01*
X5064Y2064D01*
X5060Y2066D01*
X5056Y2068D01*
X5052Y2070D01*
X5048Y2072D01*
X5045Y2074D01*
X5043Y2076D01*
X5040Y2078D01*
X5038Y2080D01*
X5036Y2082D01*
X5035Y2084D01*
X5034Y2085D01*
X5033Y2086D01*
X5033Y2086D01*
Y2065D01*
X4999D01*
Y2205D01*
X5036D01*
Y2142D01*
Y2138D01*
Y2134D01*
X5036Y2130D01*
X5036Y2127D01*
Y2124D01*
X5036Y2122D01*
X5037Y2119D01*
X5037Y2117D01*
X5038Y2114D01*
X5038Y2112D01*
X5038Y2110D01*
Y2110D01*
X5040Y2107D01*
X5041Y2104D01*
X5043Y2102D01*
X5045Y2099D01*
X5046Y2098D01*
X5048Y2097D01*
X5048Y2096D01*
X5049Y2096D01*
X5052Y2094D01*
X5055Y2093D01*
X5058Y2092D01*
X5060Y2091D01*
X5063Y2091D01*
X5064Y2091D01*
X5066D01*
X5069Y2091D01*
X5071Y2091D01*
X5073Y2092D01*
X5075Y2093D01*
X5077Y2093D01*
X5078Y2094D01*
X5078Y2094D01*
X5079Y2094D01*
X5081Y2096D01*
X5082Y2098D01*
X5085Y2101D01*
X5085Y2103D01*
X5086Y2104D01*
X5086Y2104D01*
Y2105D01*
X5087Y2106D01*
X5087Y2108D01*
X5088Y2112D01*
X5088Y2117D01*
X5089Y2122D01*
X5089Y2126D01*
Y2128D01*
Y2130D01*
Y2132D01*
Y2133D01*
Y2134D01*
Y2134D01*
Y2205D01*
X5126D01*
Y2118D01*
D02*
G37*
G36*
X4701Y2167D02*
X4699Y2163D01*
X4696Y2159D01*
X4694Y2156D01*
X4692Y2153D01*
X4690Y2150D01*
X4688Y2148D01*
X4685Y2143D01*
X4682Y2140D01*
X4680Y2138D01*
X4679Y2136D01*
X4679Y2136D01*
X4676Y2133D01*
X4672Y2130D01*
X4669Y2127D01*
X4665Y2125D01*
X4663Y2123D01*
X4660Y2121D01*
X4659Y2120D01*
X4659Y2120D01*
X4658D01*
X4663Y2119D01*
X4667Y2118D01*
X4671Y2117D01*
X4675Y2116D01*
X4678Y2114D01*
X4681Y2113D01*
X4684Y2111D01*
X4687Y2110D01*
X4689Y2108D01*
X4691Y2107D01*
X4693Y2106D01*
X4694Y2104D01*
X4695Y2104D01*
X4696Y2103D01*
X4696Y2103D01*
X4696Y2102D01*
X4699Y2099D01*
X4700Y2097D01*
X4704Y2091D01*
X4706Y2085D01*
X4707Y2079D01*
X4709Y2074D01*
X4709Y2072D01*
Y2070D01*
X4709Y2069D01*
Y2067D01*
Y2067D01*
Y2066D01*
X4709Y2060D01*
X4708Y2054D01*
X4706Y2049D01*
X4705Y2045D01*
X4703Y2041D01*
X4702Y2039D01*
X4701Y2038D01*
X4701Y2037D01*
X4700Y2037D01*
Y2036D01*
X4697Y2032D01*
X4694Y2028D01*
X4690Y2025D01*
X4686Y2022D01*
X4683Y2020D01*
X4680Y2019D01*
X4679Y2018D01*
X4679Y2018D01*
X4678D01*
X4675Y2017D01*
X4672Y2016D01*
X4665Y2015D01*
X4658Y2014D01*
X4651Y2013D01*
X4647D01*
X4644Y2013D01*
X4641D01*
X4639Y2013D01*
X4552D01*
Y2205D01*
X4591D01*
Y2124D01*
X4603D01*
X4607Y2125D01*
X4610Y2125D01*
X4613Y2126D01*
X4615Y2126D01*
X4617Y2126D01*
X4618Y2127D01*
X4618D01*
X4620Y2128D01*
X4622Y2129D01*
X4624Y2130D01*
X4626Y2131D01*
X4628Y2133D01*
X4629Y2134D01*
X4629Y2134D01*
X4630Y2135D01*
X4631Y2136D01*
X4632Y2138D01*
X4635Y2142D01*
X4639Y2146D01*
X4642Y2151D01*
X4645Y2156D01*
X4647Y2158D01*
X4648Y2159D01*
X4649Y2161D01*
X4650Y2162D01*
X4650Y2163D01*
X4650Y2163D01*
X4678Y2205D01*
X4725D01*
X4701Y2167D01*
D02*
G37*
G36*
X5529Y2118D02*
Y2113D01*
X5529Y2108D01*
X5528Y2103D01*
X5528Y2100D01*
X5527Y2097D01*
X5527Y2095D01*
X5527Y2094D01*
Y2094D01*
X5526Y2090D01*
X5525Y2088D01*
X5524Y2085D01*
X5522Y2083D01*
X5521Y2081D01*
X5520Y2079D01*
X5520Y2078D01*
X5519Y2078D01*
X5517Y2076D01*
X5515Y2073D01*
X5512Y2071D01*
X5510Y2070D01*
X5507Y2068D01*
X5506Y2068D01*
X5504Y2067D01*
X5504Y2067D01*
X5500Y2065D01*
X5496Y2064D01*
X5492Y2063D01*
X5489Y2063D01*
X5486Y2063D01*
X5484Y2062D01*
X5482D01*
X5477Y2063D01*
X5472Y2063D01*
X5467Y2064D01*
X5463Y2066D01*
X5459Y2068D01*
X5455Y2070D01*
X5451Y2072D01*
X5448Y2074D01*
X5446Y2076D01*
X5443Y2078D01*
X5441Y2080D01*
X5439Y2082D01*
X5438Y2084D01*
X5437Y2085D01*
X5436Y2086D01*
X5436Y2086D01*
Y2065D01*
X5402D01*
Y2205D01*
X5439D01*
Y2142D01*
Y2138D01*
Y2134D01*
X5439Y2130D01*
X5439Y2127D01*
Y2124D01*
X5439Y2122D01*
X5440Y2119D01*
X5440Y2117D01*
X5441Y2114D01*
X5441Y2112D01*
X5441Y2110D01*
Y2110D01*
X5442Y2107D01*
X5444Y2104D01*
X5446Y2102D01*
X5447Y2099D01*
X5449Y2098D01*
X5451Y2097D01*
X5451Y2096D01*
X5452Y2096D01*
X5455Y2094D01*
X5458Y2093D01*
X5461Y2092D01*
X5463Y2091D01*
X5466Y2091D01*
X5467Y2091D01*
X5469D01*
X5472Y2091D01*
X5474Y2091D01*
X5476Y2092D01*
X5478Y2093D01*
X5480Y2093D01*
X5481Y2094D01*
X5481Y2094D01*
X5482Y2094D01*
X5484Y2096D01*
X5485Y2098D01*
X5487Y2101D01*
X5488Y2103D01*
X5489Y2104D01*
X5489Y2104D01*
Y2105D01*
X5490Y2106D01*
X5490Y2108D01*
X5491Y2112D01*
X5491Y2117D01*
X5492Y2122D01*
X5492Y2126D01*
Y2128D01*
Y2130D01*
Y2132D01*
Y2133D01*
Y2134D01*
Y2134D01*
Y2205D01*
X5529D01*
Y2118D01*
D02*
G37*
G36*
X5631Y2207D02*
X5639Y2206D01*
X5645Y2204D01*
X5650Y2203D01*
X5653Y2201D01*
X5655Y2201D01*
X5657Y2200D01*
X5658Y2199D01*
X5659Y2198D01*
X5660Y2198D01*
X5661Y2197D01*
X5661D01*
X5666Y2193D01*
X5671Y2188D01*
X5675Y2183D01*
X5678Y2178D01*
X5680Y2173D01*
X5681Y2171D01*
X5682Y2170D01*
X5683Y2168D01*
X5683Y2167D01*
X5684Y2167D01*
Y2166D01*
X5647Y2160D01*
X5645Y2164D01*
X5644Y2167D01*
X5643Y2170D01*
X5641Y2172D01*
X5640Y2174D01*
X5639Y2175D01*
X5638Y2175D01*
X5638Y2176D01*
X5635Y2177D01*
X5633Y2178D01*
X5630Y2179D01*
X5628Y2180D01*
X5626Y2180D01*
X5625Y2180D01*
X5623D01*
X5619Y2180D01*
X5615Y2179D01*
X5611Y2178D01*
X5608Y2176D01*
X5605Y2174D01*
X5604Y2173D01*
X5602Y2172D01*
X5602Y2171D01*
X5599Y2168D01*
X5597Y2164D01*
X5595Y2159D01*
X5594Y2155D01*
X5594Y2151D01*
X5594Y2149D01*
X5593Y2148D01*
Y2147D01*
Y2146D01*
Y2146D01*
X5685D01*
Y2138D01*
X5685Y2131D01*
X5684Y2124D01*
X5683Y2118D01*
X5682Y2113D01*
X5680Y2108D01*
X5679Y2103D01*
X5677Y2099D01*
X5675Y2095D01*
X5674Y2092D01*
X5672Y2089D01*
X5671Y2087D01*
X5670Y2085D01*
X5669Y2084D01*
X5668Y2083D01*
X5668Y2083D01*
X5665Y2079D01*
X5661Y2076D01*
X5657Y2073D01*
X5653Y2071D01*
X5649Y2069D01*
X5645Y2067D01*
X5641Y2066D01*
X5637Y2065D01*
X5633Y2064D01*
X5630Y2063D01*
X5627Y2063D01*
X5624Y2063D01*
X5622Y2062D01*
X5619D01*
X5614Y2063D01*
X5609Y2063D01*
X5605Y2064D01*
X5600Y2065D01*
X5596Y2067D01*
X5593Y2068D01*
X5589Y2070D01*
X5586Y2072D01*
X5583Y2074D01*
X5581Y2076D01*
X5579Y2078D01*
X5577Y2079D01*
X5575Y2080D01*
X5574Y2081D01*
X5574Y2082D01*
X5574Y2082D01*
X5570Y2086D01*
X5568Y2090D01*
X5565Y2094D01*
X5563Y2099D01*
X5561Y2103D01*
X5560Y2108D01*
X5558Y2116D01*
X5557Y2121D01*
X5556Y2124D01*
X5556Y2128D01*
X5556Y2130D01*
X5555Y2133D01*
Y2135D01*
Y2136D01*
Y2136D01*
X5556Y2141D01*
X5556Y2147D01*
X5557Y2151D01*
X5558Y2156D01*
X5559Y2160D01*
X5560Y2164D01*
X5561Y2168D01*
X5562Y2171D01*
X5564Y2174D01*
X5565Y2177D01*
X5566Y2179D01*
X5567Y2181D01*
X5568Y2182D01*
X5569Y2183D01*
X5569Y2184D01*
X5569Y2184D01*
X5573Y2188D01*
X5576Y2192D01*
X5580Y2195D01*
X5585Y2198D01*
X5589Y2200D01*
X5594Y2202D01*
X5598Y2204D01*
X5603Y2205D01*
X5607Y2206D01*
X5610Y2206D01*
X5614Y2207D01*
X5617Y2208D01*
X5620D01*
X5621Y2208D01*
X5623D01*
X5631Y2207D01*
D02*
G37*
G36*
X5231Y2261D02*
X5237Y2261D01*
X5243Y2260D01*
X5247Y2259D01*
X5251Y2259D01*
X5253Y2258D01*
X5255Y2257D01*
X5256Y2257D01*
X5260Y2256D01*
X5264Y2254D01*
X5267Y2252D01*
X5270Y2250D01*
X5272Y2249D01*
X5274Y2247D01*
X5275Y2247D01*
X5275Y2246D01*
X5278Y2244D01*
X5280Y2241D01*
X5282Y2237D01*
X5284Y2234D01*
X5285Y2231D01*
X5286Y2229D01*
X5286Y2228D01*
X5287Y2227D01*
X5288Y2225D01*
X5288Y2222D01*
X5289Y2216D01*
X5290Y2210D01*
X5290Y2204D01*
X5291Y2199D01*
X5291Y2197D01*
Y2194D01*
Y2193D01*
Y2192D01*
Y2191D01*
Y2191D01*
Y2065D01*
X5256D01*
Y2085D01*
X5253Y2081D01*
X5250Y2078D01*
X5246Y2074D01*
X5243Y2072D01*
X5239Y2070D01*
X5235Y2068D01*
X5232Y2066D01*
X5229Y2065D01*
X5226Y2064D01*
X5223Y2063D01*
X5220Y2063D01*
X5218Y2063D01*
X5216D01*
X5215Y2062D01*
X5214D01*
X5209Y2063D01*
X5205Y2063D01*
X5201Y2064D01*
X5196Y2065D01*
X5189Y2068D01*
X5186Y2070D01*
X5183Y2071D01*
X5181Y2073D01*
X5178Y2075D01*
X5176Y2076D01*
X5175Y2078D01*
X5173Y2079D01*
X5173Y2080D01*
X5172Y2081D01*
X5172Y2081D01*
X5169Y2084D01*
X5166Y2088D01*
X5164Y2093D01*
X5162Y2097D01*
X5161Y2101D01*
X5159Y2106D01*
X5157Y2115D01*
X5156Y2119D01*
X5156Y2123D01*
X5156Y2126D01*
X5155Y2129D01*
X5155Y2131D01*
Y2133D01*
Y2134D01*
Y2134D01*
X5155Y2139D01*
X5156Y2144D01*
X5157Y2153D01*
X5158Y2158D01*
X5159Y2161D01*
X5160Y2165D01*
X5161Y2168D01*
X5163Y2171D01*
X5164Y2174D01*
X5165Y2176D01*
X5166Y2178D01*
X5167Y2179D01*
X5167Y2180D01*
X5168Y2181D01*
Y2181D01*
X5171Y2185D01*
X5174Y2189D01*
X5178Y2192D01*
X5182Y2195D01*
X5185Y2197D01*
X5189Y2199D01*
X5193Y2201D01*
X5196Y2202D01*
X5199Y2203D01*
X5203Y2203D01*
X5205Y2204D01*
X5208Y2204D01*
X5209D01*
X5211Y2205D01*
X5212D01*
X5217Y2204D01*
X5221Y2204D01*
X5226Y2203D01*
X5229Y2201D01*
X5236Y2198D01*
X5240Y2196D01*
X5243Y2193D01*
X5245Y2191D01*
X5248Y2189D01*
X5249Y2188D01*
X5251Y2186D01*
X5252Y2184D01*
X5253Y2183D01*
X5254Y2183D01*
X5254Y2182D01*
Y2203D01*
Y2207D01*
X5254Y2210D01*
X5253Y2213D01*
X5253Y2215D01*
X5253Y2217D01*
X5252Y2218D01*
X5252Y2219D01*
Y2219D01*
X5251Y2221D01*
X5250Y2223D01*
X5249Y2225D01*
X5248Y2226D01*
X5246Y2227D01*
X5246Y2228D01*
X5245Y2228D01*
X5245Y2229D01*
X5242Y2230D01*
X5238Y2231D01*
X5235Y2232D01*
X5231Y2232D01*
X5228Y2233D01*
X5226Y2233D01*
X5223D01*
X5219Y2233D01*
X5216Y2232D01*
X5213Y2232D01*
X5211Y2231D01*
X5209Y2230D01*
X5208Y2229D01*
X5207Y2229D01*
X5207Y2229D01*
X5205Y2228D01*
X5204Y2226D01*
X5203Y2223D01*
X5203Y2221D01*
X5202Y2220D01*
X5202Y2219D01*
Y2219D01*
X5160Y2214D01*
X5159Y2216D01*
Y2217D01*
Y2218D01*
Y2218D01*
X5160Y2222D01*
X5160Y2225D01*
X5162Y2231D01*
X5164Y2236D01*
X5167Y2241D01*
X5169Y2244D01*
X5172Y2247D01*
X5174Y2249D01*
X5174Y2249D01*
X5174Y2249D01*
X5177Y2251D01*
X5181Y2253D01*
X5184Y2255D01*
X5188Y2256D01*
X5197Y2258D01*
X5205Y2260D01*
X5209Y2260D01*
X5213Y2261D01*
X5216Y2261D01*
X5219D01*
X5221Y2261D01*
X5224D01*
X5231Y2261D01*
D02*
G37*
G36*
X5900Y2162D02*
Y2156D01*
Y2150D01*
X5901Y2144D01*
X5901Y2140D01*
Y2135D01*
X5901Y2132D01*
X5902Y2128D01*
X5902Y2125D01*
X5902Y2123D01*
X5902Y2121D01*
X5903Y2119D01*
Y2118D01*
X5903Y2117D01*
X5903Y2116D01*
Y2115D01*
X5904Y2111D01*
X5906Y2108D01*
X5907Y2105D01*
X5908Y2103D01*
X5910Y2102D01*
X5911Y2101D01*
X5911Y2100D01*
X5912Y2100D01*
X5914Y2098D01*
X5916Y2097D01*
X5918Y2096D01*
X5920Y2096D01*
X5922Y2096D01*
X5923Y2095D01*
X5925D01*
X5928Y2096D01*
X5931Y2096D01*
X5933Y2097D01*
X5936Y2098D01*
X5938Y2099D01*
X5940Y2101D01*
X5941Y2101D01*
X5942Y2101D01*
X5953Y2069D01*
X5949Y2067D01*
X5945Y2065D01*
X5941Y2064D01*
X5937Y2063D01*
X5934Y2063D01*
X5931Y2062D01*
X5929D01*
X5926Y2063D01*
X5923Y2063D01*
X5920Y2064D01*
X5918Y2064D01*
X5916Y2065D01*
X5914Y2066D01*
X5913Y2066D01*
X5913Y2067D01*
X5910Y2069D01*
X5908Y2071D01*
X5905Y2074D01*
X5903Y2078D01*
X5901Y2081D01*
X5899Y2083D01*
X5898Y2085D01*
X5898Y2085D01*
Y2065D01*
X5863D01*
Y2205D01*
X5900D01*
Y2162D01*
D02*
G37*
G36*
X4512Y2013D02*
X4454D01*
X4420Y2144D01*
X4386Y2013D01*
X4328D01*
Y2205D01*
X4363D01*
Y2054D01*
X4401Y2205D01*
X4439D01*
X4476Y2054D01*
X4477Y2205D01*
X4512D01*
Y2013D01*
D02*
G37*
G36*
X4626Y3130D02*
Y2894D01*
X3642D01*
Y3150D01*
X4626D01*
Y3130D01*
D02*
G37*
G36*
X5364Y2065D02*
X5327D01*
Y2205D01*
X5364D01*
Y2065D01*
D02*
G37*
G36*
X6171Y2118D02*
Y2113D01*
X6171Y2108D01*
X6170Y2103D01*
X6170Y2100D01*
X6169Y2097D01*
X6169Y2095D01*
X6169Y2094D01*
Y2094D01*
X6168Y2090D01*
X6167Y2088D01*
X6166Y2085D01*
X6164Y2083D01*
X6163Y2081D01*
X6162Y2079D01*
X6162Y2078D01*
X6161Y2078D01*
X6159Y2076D01*
X6157Y2073D01*
X6154Y2071D01*
X6152Y2070D01*
X6149Y2068D01*
X6148Y2068D01*
X6146Y2067D01*
X6146Y2067D01*
X6142Y2065D01*
X6138Y2064D01*
X6134Y2063D01*
X6131Y2063D01*
X6128Y2063D01*
X6126Y2062D01*
X6124D01*
X6119Y2063D01*
X6114Y2063D01*
X6109Y2064D01*
X6105Y2066D01*
X6101Y2068D01*
X6097Y2070D01*
X6093Y2072D01*
X6090Y2074D01*
X6088Y2076D01*
X6085Y2078D01*
X6083Y2080D01*
X6081Y2082D01*
X6080Y2084D01*
X6079Y2085D01*
X6078Y2086D01*
X6078Y2086D01*
Y2065D01*
X6044D01*
Y2205D01*
X6081D01*
Y2142D01*
Y2138D01*
Y2134D01*
X6081Y2130D01*
X6081Y2127D01*
Y2124D01*
X6081Y2122D01*
X6082Y2119D01*
X6082Y2117D01*
X6083Y2114D01*
X6083Y2112D01*
X6083Y2110D01*
Y2110D01*
X6085Y2107D01*
X6086Y2104D01*
X6088Y2102D01*
X6090Y2099D01*
X6091Y2098D01*
X6093Y2097D01*
X6093Y2096D01*
X6094Y2096D01*
X6097Y2094D01*
X6100Y2093D01*
X6103Y2092D01*
X6105Y2091D01*
X6108Y2091D01*
X6109Y2091D01*
X6111D01*
X6114Y2091D01*
X6116Y2091D01*
X6118Y2092D01*
X6120Y2093D01*
X6122Y2093D01*
X6123Y2094D01*
X6123Y2094D01*
X6124Y2094D01*
X6126Y2096D01*
X6127Y2098D01*
X6129Y2101D01*
X6130Y2103D01*
X6131Y2104D01*
X6131Y2104D01*
Y2105D01*
X6132Y2106D01*
X6132Y2108D01*
X6133Y2112D01*
X6133Y2117D01*
X6134Y2122D01*
X6134Y2126D01*
Y2128D01*
Y2130D01*
Y2132D01*
Y2133D01*
Y2134D01*
Y2134D01*
Y2205D01*
X6171D01*
Y2118D01*
D02*
G37*
G36*
X6006Y2065D02*
X5969D01*
Y2205D01*
X6006D01*
Y2065D01*
D02*
G37*
%LPC*%
G36*
X4325Y2263D02*
X4306D01*
X4306Y2261D01*
X4306Y2260D01*
X4307Y2258D01*
X4307Y2257D01*
X4308Y2257D01*
X4308Y2256D01*
X4308Y2256D01*
X4309Y2255D01*
X4310Y2255D01*
X4311Y2254D01*
X4312Y2253D01*
X4313Y2253D01*
X4314Y2253D01*
X4315Y2253D01*
X4315Y2253D01*
X4315D01*
X4316Y2253D01*
X4317Y2253D01*
X4319Y2253D01*
X4320Y2254D01*
X4321Y2254D01*
X4322Y2255D01*
X4322Y2256D01*
X4323Y2256D01*
X4323Y2256D01*
Y2256D01*
X4323Y2257D01*
X4324Y2258D01*
X4324Y2259D01*
X4325Y2260D01*
X4325Y2261D01*
X4325Y2262D01*
Y2262D01*
X4325Y2263D01*
Y2263D01*
Y2263D01*
D02*
G37*
G36*
X5798Y2123D02*
X5743D01*
X5743Y2118D01*
X5744Y2113D01*
X5745Y2109D01*
X5747Y2106D01*
X5748Y2103D01*
X5750Y2101D01*
X5751Y2100D01*
X5751Y2099D01*
X5754Y2096D01*
X5757Y2094D01*
X5761Y2093D01*
X5764Y2092D01*
X5767Y2091D01*
X5769Y2091D01*
X5771D01*
X5775Y2091D01*
X5778Y2092D01*
X5782Y2093D01*
X5785Y2095D01*
X5787Y2096D01*
X5788Y2098D01*
X5790Y2099D01*
X5790Y2099D01*
X5792Y2103D01*
X5795Y2106D01*
X5796Y2111D01*
X5797Y2114D01*
X5798Y2118D01*
X5798Y2121D01*
X5798Y2122D01*
Y2123D01*
Y2123D01*
Y2123D01*
D02*
G37*
G36*
X4636Y2257D02*
X4622D01*
Y2241D01*
X4637D01*
X4639Y2241D01*
X4641Y2241D01*
X4642Y2241D01*
X4643Y2242D01*
X4644Y2242D01*
X4644Y2243D01*
X4645Y2243D01*
X4645Y2243D01*
X4646Y2244D01*
X4646Y2245D01*
X4647Y2246D01*
X4647Y2247D01*
X4647Y2247D01*
X4647Y2248D01*
X4647Y2248D01*
Y2249D01*
Y2249D01*
X4647Y2249D01*
X4647Y2250D01*
X4647Y2251D01*
X4647Y2252D01*
X4647Y2252D01*
X4646Y2253D01*
X4646Y2253D01*
X4646Y2253D01*
X4646Y2254D01*
X4645Y2254D01*
X4644Y2255D01*
X4644Y2255D01*
X4643Y2255D01*
X4643Y2256D01*
X4642Y2256D01*
X4642Y2256D01*
X4641Y2256D01*
X4640Y2256D01*
X4639Y2256D01*
X4638Y2257D01*
X4637Y2257D01*
X4636Y2257D01*
D02*
G37*
G36*
X4277Y2279D02*
X4277D01*
X4276Y2279D01*
X4276Y2279D01*
X4274Y2279D01*
X4273Y2278D01*
X4272Y2278D01*
X4272Y2277D01*
X4271Y2277D01*
X4271Y2276D01*
X4270Y2276D01*
X4270D01*
X4270Y2275D01*
X4270Y2275D01*
X4269Y2273D01*
X4268Y2271D01*
X4268Y2270D01*
X4268Y2268D01*
X4268Y2268D01*
Y2267D01*
X4268Y2267D01*
Y2266D01*
Y2266D01*
Y2266D01*
Y2265D01*
X4268Y2264D01*
X4268Y2263D01*
X4268Y2262D01*
X4268Y2261D01*
X4268Y2260D01*
X4269Y2259D01*
X4269Y2258D01*
X4269Y2258D01*
X4269Y2257D01*
X4270Y2257D01*
X4270Y2257D01*
X4270Y2256D01*
X4270Y2256D01*
X4270Y2256D01*
Y2256D01*
X4271Y2255D01*
X4271Y2255D01*
X4272Y2254D01*
X4274Y2253D01*
X4275Y2253D01*
X4275Y2253D01*
X4276Y2253D01*
X4277Y2253D01*
X4277D01*
X4278Y2253D01*
X4278Y2253D01*
X4280Y2253D01*
X4281Y2254D01*
X4282Y2254D01*
X4283Y2255D01*
X4283Y2256D01*
X4284Y2256D01*
X4284Y2256D01*
Y2256D01*
X4284Y2257D01*
X4285Y2258D01*
X4285Y2259D01*
X4286Y2261D01*
X4286Y2263D01*
X4286Y2263D01*
X4286Y2264D01*
X4286Y2265D01*
Y2265D01*
X4286Y2266D01*
Y2266D01*
Y2267D01*
Y2267D01*
Y2268D01*
X4286Y2269D01*
X4286Y2270D01*
X4286Y2271D01*
X4286Y2272D01*
X4286Y2272D01*
X4285Y2273D01*
X4285Y2274D01*
X4285Y2274D01*
X4285Y2275D01*
X4284Y2275D01*
X4284Y2276D01*
X4284Y2276D01*
X4284Y2276D01*
X4284Y2276D01*
Y2276D01*
X4283Y2277D01*
X4283Y2277D01*
X4282Y2278D01*
X4280Y2279D01*
X4279Y2279D01*
X4278Y2279D01*
X4278Y2279D01*
X4277Y2279D01*
D02*
G37*
G36*
X4496Y2280D02*
X4495D01*
X4494Y2280D01*
X4493Y2279D01*
X4492Y2279D01*
X4491Y2279D01*
X4491Y2279D01*
X4490Y2278D01*
X4490Y2278D01*
X4490Y2278D01*
X4490Y2277D01*
X4489Y2277D01*
X4489Y2276D01*
X4489Y2275D01*
X4488Y2275D01*
X4488Y2275D01*
Y2274D01*
Y2274D01*
X4488Y2274D01*
X4488Y2273D01*
X4489Y2273D01*
X4489Y2272D01*
X4489Y2272D01*
X4489Y2272D01*
X4489Y2271D01*
Y2271D01*
X4490Y2270D01*
X4491Y2270D01*
X4491Y2270D01*
X4491Y2270D01*
X4491Y2269D01*
X4491D01*
X4492Y2269D01*
X4493Y2269D01*
X4494Y2269D01*
X4495Y2269D01*
X4495Y2268D01*
X4496Y2268D01*
X4496Y2268D01*
X4497D01*
X4498Y2268D01*
X4499Y2268D01*
X4500Y2268D01*
X4501Y2268D01*
X4502Y2267D01*
X4502Y2267D01*
X4503Y2267D01*
X4504Y2267D01*
X4504Y2267D01*
X4505Y2266D01*
X4505Y2266D01*
X4506Y2266D01*
X4506Y2266D01*
X4506Y2266D01*
X4506Y2266D01*
X4506D01*
X4506Y2268D01*
X4506Y2270D01*
X4506Y2271D01*
X4506Y2272D01*
X4506Y2273D01*
X4506Y2273D01*
X4505Y2274D01*
X4505Y2274D01*
X4505Y2274D01*
X4505Y2275D01*
X4504Y2276D01*
X4503Y2276D01*
X4503Y2277D01*
X4502Y2277D01*
X4502Y2278D01*
X4502Y2278D01*
X4501Y2278D01*
X4500Y2279D01*
X4499Y2279D01*
X4498Y2279D01*
X4497Y2279D01*
X4497Y2280D01*
X4496Y2280D01*
D02*
G37*
G36*
X4350D02*
X4350D01*
X4349Y2280D01*
X4348Y2279D01*
X4347Y2279D01*
X4346Y2279D01*
X4345Y2279D01*
X4345Y2278D01*
X4345Y2278D01*
X4345Y2278D01*
X4344Y2277D01*
X4344Y2277D01*
X4343Y2276D01*
X4343Y2275D01*
X4343Y2275D01*
X4343Y2275D01*
Y2274D01*
Y2274D01*
X4343Y2274D01*
X4343Y2273D01*
X4343Y2273D01*
X4343Y2272D01*
X4343Y2272D01*
X4343Y2272D01*
X4344Y2271D01*
Y2271D01*
X4344Y2270D01*
X4345Y2270D01*
X4345Y2270D01*
X4346Y2270D01*
X4346Y2269D01*
X4346D01*
X4347Y2269D01*
X4347Y2269D01*
X4348Y2269D01*
X4349Y2269D01*
X4350Y2268D01*
X4351Y2268D01*
X4351Y2268D01*
X4351D01*
X4352Y2268D01*
X4353Y2268D01*
X4354Y2268D01*
X4355Y2268D01*
X4356Y2267D01*
X4357Y2267D01*
X4358Y2267D01*
X4358Y2267D01*
X4359Y2267D01*
X4359Y2266D01*
X4360Y2266D01*
X4360Y2266D01*
X4360Y2266D01*
X4361Y2266D01*
X4361Y2266D01*
X4361D01*
X4361Y2268D01*
X4361Y2270D01*
X4361Y2271D01*
X4360Y2272D01*
X4360Y2273D01*
X4360Y2273D01*
X4360Y2274D01*
X4360Y2274D01*
X4360Y2274D01*
X4359Y2275D01*
X4359Y2276D01*
X4358Y2276D01*
X4357Y2277D01*
X4357Y2277D01*
X4356Y2278D01*
X4356Y2278D01*
X4356Y2278D01*
X4355Y2279D01*
X4354Y2279D01*
X4353Y2279D01*
X4352Y2279D01*
X4351Y2280D01*
X4350Y2280D01*
D02*
G37*
G36*
X4712D02*
X4712D01*
X4711Y2280D01*
X4710Y2279D01*
X4709Y2279D01*
X4708Y2279D01*
X4707Y2279D01*
X4707Y2278D01*
X4707Y2278D01*
X4707Y2278D01*
X4706Y2277D01*
X4706Y2277D01*
X4705Y2276D01*
X4705Y2275D01*
X4705Y2275D01*
X4705Y2275D01*
Y2274D01*
Y2274D01*
X4705Y2274D01*
X4705Y2273D01*
X4705Y2273D01*
X4705Y2272D01*
X4705Y2272D01*
X4705Y2272D01*
X4706Y2271D01*
Y2271D01*
X4706Y2270D01*
X4707Y2270D01*
X4707Y2270D01*
X4708Y2270D01*
X4708Y2269D01*
X4708D01*
X4709Y2269D01*
X4709Y2269D01*
X4710Y2269D01*
X4711Y2269D01*
X4712Y2268D01*
X4713Y2268D01*
X4713Y2268D01*
X4713D01*
X4714Y2268D01*
X4715Y2268D01*
X4716Y2268D01*
X4717Y2268D01*
X4718Y2267D01*
X4719Y2267D01*
X4720Y2267D01*
X4720Y2267D01*
X4721Y2267D01*
X4721Y2266D01*
X4722Y2266D01*
X4722Y2266D01*
X4722Y2266D01*
X4723Y2266D01*
X4723Y2266D01*
X4723D01*
X4723Y2268D01*
X4723Y2270D01*
X4723Y2271D01*
X4722Y2272D01*
X4722Y2273D01*
X4722Y2273D01*
X4722Y2274D01*
X4722Y2274D01*
X4722Y2274D01*
X4721Y2275D01*
X4721Y2276D01*
X4720Y2276D01*
X4719Y2277D01*
X4719Y2277D01*
X4718Y2278D01*
X4718Y2278D01*
X4718Y2278D01*
X4717Y2279D01*
X4716Y2279D01*
X4715Y2279D01*
X4714Y2279D01*
X4713Y2280D01*
X4712Y2280D01*
D02*
G37*
G36*
X4629Y2094D02*
X4591D01*
Y2045D01*
X4635D01*
X4638Y2045D01*
X4644D01*
X4646Y2046D01*
X4648D01*
X4649Y2046D01*
X4649D01*
X4652Y2047D01*
X4655Y2048D01*
X4658Y2049D01*
X4660Y2050D01*
X4662Y2052D01*
X4663Y2053D01*
X4664Y2053D01*
X4664Y2054D01*
X4665Y2056D01*
X4667Y2059D01*
X4668Y2061D01*
X4669Y2064D01*
X4669Y2066D01*
X4669Y2068D01*
Y2069D01*
Y2069D01*
X4669Y2072D01*
X4669Y2075D01*
X4668Y2078D01*
X4667Y2080D01*
X4666Y2081D01*
X4665Y2083D01*
X4665Y2083D01*
X4665Y2084D01*
X4663Y2086D01*
X4662Y2087D01*
X4658Y2090D01*
X4657Y2091D01*
X4655Y2091D01*
X4654Y2092D01*
X4654D01*
X4653Y2092D01*
X4650Y2093D01*
X4648Y2093D01*
X4646Y2093D01*
X4640Y2093D01*
X4634Y2094D01*
X4629Y2094D01*
D02*
G37*
G36*
X6268Y2175D02*
X6267D01*
X6263Y2174D01*
X6259Y2173D01*
X6255Y2172D01*
X6252Y2170D01*
X6249Y2168D01*
X6248Y2166D01*
X6246Y2165D01*
X6246Y2165D01*
X6243Y2160D01*
X6241Y2155D01*
X6240Y2150D01*
X6239Y2145D01*
X6238Y2140D01*
X6238Y2138D01*
Y2136D01*
X6238Y2135D01*
Y2133D01*
Y2133D01*
Y2133D01*
X6238Y2125D01*
X6239Y2119D01*
X6241Y2113D01*
X6242Y2109D01*
X6244Y2106D01*
X6245Y2103D01*
X6246Y2102D01*
X6246Y2101D01*
X6249Y2098D01*
X6253Y2095D01*
X6257Y2093D01*
X6260Y2092D01*
X6263Y2091D01*
X6266Y2091D01*
X6268Y2091D01*
X6268D01*
X6273Y2091D01*
X6277Y2092D01*
X6281Y2094D01*
X6284Y2096D01*
X6287Y2098D01*
X6289Y2099D01*
X6290Y2101D01*
X6291Y2101D01*
X6294Y2106D01*
X6296Y2111D01*
X6297Y2116D01*
X6298Y2121D01*
X6299Y2126D01*
X6299Y2128D01*
X6299Y2130D01*
Y2131D01*
Y2133D01*
Y2133D01*
Y2133D01*
X6299Y2141D01*
X6298Y2147D01*
X6296Y2152D01*
X6295Y2157D01*
X6293Y2160D01*
X6291Y2163D01*
X6290Y2164D01*
X6290Y2164D01*
X6286Y2168D01*
X6283Y2171D01*
X6279Y2173D01*
X6275Y2174D01*
X6272Y2174D01*
X6269Y2175D01*
X6268Y2175D01*
D02*
G37*
G36*
X4535Y2279D02*
X4535D01*
X4534Y2279D01*
X4533Y2279D01*
X4532Y2279D01*
X4531Y2278D01*
X4530Y2278D01*
X4529Y2277D01*
X4528Y2277D01*
X4528Y2276D01*
X4528Y2276D01*
X4528D01*
X4527Y2275D01*
X4527Y2275D01*
X4526Y2273D01*
X4526Y2271D01*
X4526Y2270D01*
X4525Y2268D01*
X4525Y2268D01*
Y2267D01*
X4525Y2267D01*
Y2266D01*
Y2266D01*
Y2266D01*
Y2265D01*
X4525Y2264D01*
X4525Y2263D01*
X4526Y2262D01*
X4526Y2261D01*
X4526Y2260D01*
X4526Y2259D01*
X4527Y2258D01*
X4527Y2258D01*
X4527Y2257D01*
X4527Y2257D01*
X4527Y2257D01*
X4528Y2256D01*
X4528Y2256D01*
X4528Y2256D01*
Y2256D01*
X4528Y2255D01*
X4529Y2255D01*
X4530Y2254D01*
X4531Y2253D01*
X4532Y2253D01*
X4533Y2253D01*
X4534Y2253D01*
X4534Y2253D01*
X4534D01*
X4535Y2253D01*
X4536Y2253D01*
X4537Y2253D01*
X4538Y2254D01*
X4539Y2254D01*
X4540Y2255D01*
X4541Y2256D01*
X4541Y2256D01*
X4541Y2256D01*
Y2256D01*
X4542Y2257D01*
X4542Y2258D01*
X4543Y2259D01*
X4543Y2261D01*
X4544Y2263D01*
X4544Y2263D01*
X4544Y2264D01*
X4544Y2265D01*
Y2265D01*
X4544Y2266D01*
Y2266D01*
Y2267D01*
Y2267D01*
Y2268D01*
X4544Y2269D01*
X4544Y2270D01*
X4544Y2271D01*
X4543Y2272D01*
X4543Y2272D01*
X4543Y2273D01*
X4543Y2274D01*
X4542Y2274D01*
X4542Y2275D01*
X4542Y2275D01*
X4542Y2276D01*
X4542Y2276D01*
X4541Y2276D01*
X4541Y2276D01*
Y2276D01*
X4541Y2277D01*
X4540Y2277D01*
X4539Y2278D01*
X4538Y2279D01*
X4537Y2279D01*
X4536Y2279D01*
X4535Y2279D01*
X4535Y2279D01*
D02*
G37*
G36*
X5649Y2123D02*
X5594D01*
X5594Y2118D01*
X5595Y2113D01*
X5596Y2109D01*
X5598Y2106D01*
X5599Y2103D01*
X5600Y2101D01*
X5601Y2100D01*
X5602Y2099D01*
X5605Y2096D01*
X5608Y2094D01*
X5611Y2093D01*
X5614Y2092D01*
X5617Y2091D01*
X5619Y2091D01*
X5621D01*
X5625Y2091D01*
X5629Y2092D01*
X5632Y2093D01*
X5635Y2095D01*
X5637Y2096D01*
X5639Y2098D01*
X5640Y2099D01*
X5640Y2099D01*
X5643Y2103D01*
X5645Y2106D01*
X5647Y2111D01*
X5648Y2114D01*
X5648Y2118D01*
X5649Y2121D01*
X5649Y2122D01*
Y2123D01*
Y2123D01*
Y2123D01*
D02*
G37*
G36*
X4583Y2263D02*
X4563D01*
X4563Y2261D01*
X4564Y2260D01*
X4564Y2258D01*
X4565Y2257D01*
X4565Y2257D01*
X4566Y2256D01*
X4566Y2256D01*
X4566Y2255D01*
X4567Y2255D01*
X4568Y2254D01*
X4570Y2253D01*
X4571Y2253D01*
X4572Y2253D01*
X4572Y2253D01*
X4573Y2253D01*
X4573D01*
X4574Y2253D01*
X4575Y2253D01*
X4576Y2253D01*
X4577Y2254D01*
X4578Y2254D01*
X4579Y2255D01*
X4580Y2256D01*
X4580Y2256D01*
X4580Y2256D01*
Y2256D01*
X4581Y2257D01*
X4581Y2258D01*
X4582Y2259D01*
X4582Y2260D01*
X4582Y2261D01*
X4583Y2262D01*
Y2262D01*
X4583Y2263D01*
Y2263D01*
Y2263D01*
D02*
G37*
G36*
X5223Y2175D02*
X5222D01*
X5218Y2174D01*
X5214Y2173D01*
X5210Y2172D01*
X5207Y2170D01*
X5204Y2168D01*
X5203Y2166D01*
X5201Y2165D01*
X5201Y2165D01*
X5198Y2160D01*
X5196Y2155D01*
X5195Y2150D01*
X5194Y2145D01*
X5193Y2140D01*
X5193Y2138D01*
Y2136D01*
X5193Y2135D01*
Y2133D01*
Y2133D01*
Y2133D01*
X5193Y2125D01*
X5194Y2119D01*
X5196Y2113D01*
X5197Y2109D01*
X5199Y2106D01*
X5200Y2103D01*
X5201Y2102D01*
X5201Y2101D01*
X5204Y2098D01*
X5208Y2095D01*
X5212Y2093D01*
X5215Y2092D01*
X5218Y2091D01*
X5221Y2091D01*
X5223Y2091D01*
X5223D01*
X5228Y2091D01*
X5232Y2092D01*
X5236Y2094D01*
X5239Y2096D01*
X5242Y2098D01*
X5244Y2099D01*
X5245Y2101D01*
X5246Y2101D01*
X5249Y2106D01*
X5251Y2111D01*
X5252Y2116D01*
X5253Y2121D01*
X5254Y2126D01*
X5254Y2128D01*
X5254Y2130D01*
Y2131D01*
Y2133D01*
Y2133D01*
Y2133D01*
X5254Y2141D01*
X5253Y2147D01*
X5251Y2152D01*
X5250Y2157D01*
X5248Y2160D01*
X5246Y2163D01*
X5245Y2164D01*
X5245Y2164D01*
X5241Y2168D01*
X5238Y2171D01*
X5234Y2173D01*
X5230Y2174D01*
X5227Y2174D01*
X5224Y2175D01*
X5223Y2175D01*
D02*
G37*
G36*
X4687Y2263D02*
X4668D01*
X4668Y2261D01*
X4668Y2260D01*
X4669Y2258D01*
X4669Y2257D01*
X4670Y2257D01*
X4670Y2256D01*
X4670Y2256D01*
X4671Y2255D01*
X4672Y2255D01*
X4673Y2254D01*
X4674Y2253D01*
X4675Y2253D01*
X4676Y2253D01*
X4677Y2253D01*
X4677Y2253D01*
X4677D01*
X4678Y2253D01*
X4679Y2253D01*
X4681Y2253D01*
X4682Y2254D01*
X4683Y2254D01*
X4684Y2255D01*
X4684Y2256D01*
X4685Y2256D01*
X4685Y2256D01*
Y2256D01*
X4685Y2257D01*
X4686Y2258D01*
X4686Y2259D01*
X4687Y2260D01*
X4687Y2261D01*
X4687Y2262D01*
Y2262D01*
X4687Y2263D01*
Y2263D01*
Y2263D01*
D02*
G37*
%LPD*%
D43*
X4065Y4908D02*
Y7270D01*
X8395D01*
Y4908D02*
Y7270D01*
X4065Y4908D02*
X8395D01*
X4349Y4956D02*
X4449D01*
Y5556D01*
X4349D02*
X4449D01*
X4349Y4956D02*
Y5556D01*
Y5656D02*
X4449D01*
Y6456D01*
X4349D02*
X4449D01*
X4349Y5656D02*
Y6456D01*
X6249Y4956D02*
X6349D01*
Y5756D01*
X6249D02*
X6349D01*
X6249Y4956D02*
Y5756D01*
Y5816D02*
X6349D01*
Y6816D01*
X6249D02*
X6349D01*
X6249Y5816D02*
Y6816D01*
X3671Y4508D02*
Y7658D01*
X8789D01*
X8789Y4508D02*
Y4547D01*
Y5177D02*
Y7657D01*
X8071Y4508D02*
X8789D01*
X7677D02*
X7943D01*
X3671D02*
X7539D01*
X3612Y7037D02*
Y8179D01*
X3100Y7037D02*
Y8179D01*
Y7037D02*
X3612D01*
X3100Y8179D02*
X3612D01*
X6762Y2234D02*
X7411D01*
X6762Y2296D02*
X6762Y2297D01*
Y2234D02*
Y3142D01*
X7411Y2234D02*
Y3142D01*
X6762D02*
X7411D01*
X6762Y3494D02*
X7411D01*
X6762Y3556D02*
X6762Y3556D01*
Y3494D02*
Y4402D01*
X7411Y3494D02*
Y4402D01*
X6762D02*
X7411D01*
X4902Y7992D02*
Y8228D01*
X4774Y8110D02*
X5030D01*
X3607Y8214D02*
Y8274D01*
X3577D01*
X3567Y8264D01*
Y8244D01*
X3577Y8234D01*
X3607D01*
X3587D02*
X3567Y8214D01*
X3507Y8274D02*
X3547D01*
Y8214D01*
X3507D01*
X3547Y8244D02*
X3527D01*
X3487Y8274D02*
Y8214D01*
X3447D01*
X3427D02*
X3407D01*
X3417D01*
Y8274D01*
X3427Y8264D01*
X8681Y7696D02*
Y7746D01*
X8691Y7756D01*
X8711D01*
X8721Y7746D01*
Y7696D01*
X8741Y7746D02*
X8751Y7756D01*
X8771D01*
X8781Y7746D01*
Y7706D01*
X8771Y7696D01*
X8751D01*
X8741Y7706D01*
Y7716D01*
X8751Y7726D01*
X8781D01*
X2712Y6594D02*
X2702Y6584D01*
X2682D01*
X2672Y6594D01*
Y6604D01*
X2682Y6614D01*
X2702D01*
X2712Y6624D01*
Y6634D01*
X2702Y6644D01*
X2682D01*
X2672Y6634D01*
X2732Y6584D02*
Y6644D01*
X2752Y6624D01*
X2772Y6644D01*
Y6584D01*
X2792Y6644D02*
X2812D01*
X2802D01*
Y6584D01*
X2792Y6594D01*
X5188Y8070D02*
X5178Y8060D01*
X5158D01*
X5148Y8070D01*
Y8080D01*
X5158Y8090D01*
X5178D01*
X5188Y8100D01*
Y8110D01*
X5178Y8120D01*
X5158D01*
X5148Y8110D01*
X5208Y8060D02*
Y8120D01*
X5228Y8100D01*
X5248Y8120D01*
Y8060D01*
X5308Y8120D02*
X5268D01*
X5308Y8080D01*
Y8070D01*
X5298Y8060D01*
X5278D01*
X5268Y8070D01*
X3662Y2819D02*
X3642D01*
Y2759D01*
X3662D01*
X3812Y2819D02*
X3832D01*
Y2759D01*
X3812D01*
X3922Y2819D02*
Y2759D01*
X3952D01*
X3962Y2769D01*
Y2789D01*
X3952Y2799D01*
X3922D01*
X3982Y2759D02*
Y2819D01*
X4022D01*
X4042D02*
Y2779D01*
X4062Y2759D01*
X4082Y2779D01*
Y2819D01*
Y2789D01*
X4042D01*
X4102Y2759D02*
X4142D01*
X4122D01*
Y2819D01*
X4202Y2759D02*
X4162D01*
Y2819D01*
X4202D01*
X4162Y2789D02*
X4182D01*
X4222Y2759D02*
Y2819D01*
X4252D01*
X4262Y2809D01*
Y2769D01*
X4252Y2759D01*
X4222D01*
X4381Y2819D02*
X4342D01*
X4381Y2779D01*
Y2769D01*
X4371Y2759D01*
X4352D01*
X4342Y2769D01*
X4411Y2819D02*
X4431D01*
X4441Y2809D01*
Y2789D01*
X4431Y2779D01*
X4411D01*
X4401Y2789D01*
Y2809D01*
X4411Y2819D01*
X4461Y2779D02*
X4501D01*
X4461Y2819D01*
X4501D01*
X4581D02*
Y2759D01*
X4611D01*
X4621Y2769D01*
Y2789D01*
X4611Y2799D01*
X4581D01*
X4681Y2769D02*
X4671Y2759D01*
X4651D01*
X4641Y2769D01*
Y2809D01*
X4651Y2819D01*
X4671D01*
X4681Y2809D01*
X4701Y2759D02*
Y2819D01*
X4731D01*
X4741Y2809D01*
Y2799D01*
X4731Y2789D01*
X4701D01*
X4731D01*
X4741Y2779D01*
Y2769D01*
X4731Y2759D01*
X4701D01*
X4821Y2819D02*
Y2759D01*
X4851D01*
X4861Y2769D01*
Y2789D01*
X4851Y2799D01*
X4821D01*
X4841D02*
X4861Y2819D01*
X4881D02*
Y2779D01*
X4901Y2759D01*
X4921Y2779D01*
Y2819D01*
Y2789D01*
X4881D01*
X4941Y2759D02*
X4981D01*
X4961D01*
Y2819D01*
X5041Y2759D02*
X5001D01*
Y2819D01*
X5041D01*
X5001Y2789D02*
X5021D01*
X5061Y2759D02*
Y2819D01*
X5091D01*
X5101Y2809D01*
Y2769D01*
X5091Y2759D01*
X5061D01*
X5181Y2819D02*
X5201D01*
X5191D01*
Y2759D01*
X5181Y2769D01*
X5231D02*
X5241Y2759D01*
X5261D01*
X5271Y2769D01*
Y2809D01*
X5261Y2819D01*
X5241D01*
X5231Y2809D01*
Y2769D01*
X5291Y2819D02*
Y2809D01*
X5301D01*
Y2819D01*
X5291D01*
X5341Y2759D02*
X5381D01*
Y2769D01*
X5341Y2809D01*
Y2819D01*
X5401D02*
Y2779D01*
X5421Y2759D01*
X5441Y2779D01*
Y2819D01*
Y2789D01*
X5401D01*
X3662Y2721D02*
X3642D01*
Y2661D01*
X3662D01*
X3812Y2721D02*
X3832D01*
Y2661D01*
X3812D01*
X3922Y2721D02*
Y2661D01*
X3952D01*
X3962Y2671D01*
Y2691D01*
X3952Y2701D01*
X3922D01*
X3982Y2661D02*
Y2721D01*
X4022D01*
X4042D02*
Y2681D01*
X4062Y2661D01*
X4082Y2681D01*
Y2721D01*
Y2691D01*
X4042D01*
X4102Y2661D02*
X4142D01*
X4122D01*
Y2721D01*
X4202Y2661D02*
X4162D01*
Y2721D01*
X4202D01*
X4162Y2691D02*
X4182D01*
X4222Y2661D02*
Y2721D01*
X4252D01*
X4262Y2711D01*
Y2671D01*
X4252Y2661D01*
X4222D01*
X4342Y2721D02*
X4361D01*
X4352D01*
Y2661D01*
X4342Y2671D01*
X4401Y2721D02*
X4421D01*
X4431Y2711D01*
Y2691D01*
X4421Y2681D01*
X4401D01*
X4391Y2691D01*
Y2711D01*
X4401Y2721D01*
X4451Y2681D02*
X4491D01*
X4451Y2721D01*
X4491D01*
X4571D02*
Y2661D01*
X4601D01*
X4611Y2671D01*
Y2691D01*
X4601Y2701D01*
X4571D01*
X4671Y2671D02*
X4661Y2661D01*
X4641D01*
X4631Y2671D01*
Y2711D01*
X4641Y2721D01*
X4661D01*
X4671Y2711D01*
X4691Y2661D02*
Y2721D01*
X4721D01*
X4731Y2711D01*
Y2701D01*
X4721Y2691D01*
X4691D01*
X4721D01*
X4731Y2681D01*
Y2671D01*
X4721Y2661D01*
X4691D01*
X4811Y2721D02*
Y2661D01*
X4841D01*
X4851Y2671D01*
Y2691D01*
X4841Y2701D01*
X4811D01*
X4831D02*
X4851Y2721D01*
X4871D02*
Y2681D01*
X4891Y2661D01*
X4911Y2681D01*
Y2721D01*
Y2691D01*
X4871D01*
X4931Y2661D02*
X4971D01*
X4951D01*
Y2721D01*
X5031Y2661D02*
X4991D01*
Y2721D01*
X5031D01*
X4991Y2691D02*
X5011D01*
X5051Y2661D02*
Y2721D01*
X5081D01*
X5091Y2711D01*
Y2671D01*
X5081Y2661D01*
X5051D01*
X5211D02*
X5191Y2671D01*
X5171Y2691D01*
Y2711D01*
X5181Y2721D01*
X5201D01*
X5211Y2711D01*
Y2701D01*
X5201Y2691D01*
X5171D01*
X5231Y2721D02*
Y2711D01*
X5241D01*
Y2721D01*
X5231D01*
X5321Y2661D02*
X5281D01*
Y2691D01*
X5301Y2681D01*
X5311D01*
X5321Y2691D01*
Y2711D01*
X5311Y2721D01*
X5291D01*
X5281Y2711D01*
X5341Y2721D02*
Y2681D01*
X5361Y2661D01*
X5381Y2681D01*
Y2721D01*
Y2691D01*
X5341D01*
X3642Y4134D02*
Y4074D01*
X3662Y4094D01*
X3682Y4074D01*
Y4134D01*
X3702Y4074D02*
X3722D01*
X3712D01*
Y4134D01*
X3702D01*
X3722D01*
X3752D02*
Y4074D01*
X3792Y4134D01*
Y4074D01*
X3872D02*
Y4134D01*
X3902D01*
X3912Y4124D01*
Y4084D01*
X3902Y4074D01*
X3872D01*
X3932D02*
X3952D01*
X3942D01*
Y4134D01*
X3932D01*
X3952D01*
X4022Y4084D02*
X4012Y4074D01*
X3992D01*
X3982Y4084D01*
Y4094D01*
X3992Y4104D01*
X4012D01*
X4022Y4114D01*
Y4124D01*
X4012Y4134D01*
X3992D01*
X3982Y4124D01*
X4082Y4084D02*
X4072Y4074D01*
X4052D01*
X4042Y4084D01*
Y4124D01*
X4052Y4134D01*
X4072D01*
X4082Y4124D01*
X4102Y4074D02*
Y4134D01*
Y4104D01*
X4142D01*
Y4074D01*
Y4134D01*
X4162D02*
Y4094D01*
X4182Y4074D01*
X4202Y4094D01*
Y4134D01*
Y4104D01*
X4162D01*
X4222Y4134D02*
Y4074D01*
X4252D01*
X4262Y4084D01*
Y4104D01*
X4252Y4114D01*
X4222D01*
X4242D02*
X4262Y4134D01*
X4322Y4084D02*
X4312Y4074D01*
X4292D01*
X4282Y4084D01*
Y4124D01*
X4292Y4134D01*
X4312D01*
X4322Y4124D01*
Y4104D01*
X4302D01*
X4381Y4074D02*
X4342D01*
Y4134D01*
X4381D01*
X4342Y4104D02*
X4361D01*
X4461Y4074D02*
X4501D01*
X4481D01*
Y4134D01*
X4521Y4074D02*
X4541D01*
X4531D01*
Y4134D01*
X4521D01*
X4541D01*
X4571D02*
Y4074D01*
X4591Y4094D01*
X4611Y4074D01*
Y4134D01*
X4671Y4074D02*
X4631D01*
Y4134D01*
X4671D01*
X4631Y4104D02*
X4651D01*
X4781Y4074D02*
X4761D01*
X4751Y4084D01*
Y4124D01*
X4761Y4134D01*
X4781D01*
X4791Y4124D01*
Y4084D01*
X4781Y4074D01*
X4811Y4134D02*
Y4074D01*
X4851Y4134D01*
Y4074D01*
X4931D02*
Y4134D01*
X4971D01*
X5021Y4074D02*
X5001D01*
X4991Y4084D01*
Y4124D01*
X5001Y4134D01*
X5021D01*
X5031Y4124D01*
Y4084D01*
X5021Y4074D01*
X5051Y4134D02*
Y4094D01*
X5071Y4074D01*
X5091Y4094D01*
Y4134D01*
Y4104D01*
X5051D01*
X5111Y4074D02*
Y4134D01*
X5141D01*
X5151Y4124D01*
Y4084D01*
X5141Y4074D01*
X5111D01*
X5271Y4084D02*
X5261Y4074D01*
X5241D01*
X5231Y4084D01*
Y4124D01*
X5241Y4134D01*
X5261D01*
X5271Y4124D01*
X5291Y4134D02*
Y4094D01*
X5311Y4074D01*
X5331Y4094D01*
Y4134D01*
Y4104D01*
X5291D01*
X5351Y4134D02*
Y4074D01*
X5381D01*
X5391Y4084D01*
Y4104D01*
X5381Y4114D01*
X5351D01*
X5471Y4124D02*
X5481Y4134D01*
X5501D01*
X5511Y4124D01*
Y4084D01*
X5501Y4074D01*
X5481D01*
X5471Y4084D01*
Y4094D01*
X5481Y4104D01*
X5511D01*
X5531Y4134D02*
Y4124D01*
X5541D01*
Y4134D01*
X5531D01*
X5581Y4124D02*
X5591Y4134D01*
X5611D01*
X5621Y4124D01*
Y4084D01*
X5611Y4074D01*
X5591D01*
X5581Y4084D01*
Y4094D01*
X5591Y4104D01*
X5621D01*
X5641Y4134D02*
X5671D01*
X5681Y4124D01*
X5671Y4114D01*
X5651D01*
X5641Y4104D01*
X5651Y4094D01*
X5681D01*
X4508Y4974D02*
X4499Y4966D01*
X4483D01*
X4474Y4974D01*
Y5008D01*
X4483Y5016D01*
X4499D01*
X4508Y5008D01*
X4524Y5016D02*
Y4966D01*
X4558Y5016D01*
Y4966D01*
X4608D02*
X4574D01*
Y4991D01*
X4591Y4983D01*
X4599D01*
X4608Y4991D01*
Y5008D01*
X4599Y5016D01*
X4583D01*
X4574Y5008D01*
X4362Y6499D02*
X4353Y6491D01*
X4337D01*
X4328Y6499D01*
Y6532D01*
X4337Y6541D01*
X4353D01*
X4362Y6532D01*
X4378Y6541D02*
Y6491D01*
X4412Y6541D01*
Y6491D01*
X4462D02*
X4445Y6499D01*
X4428Y6516D01*
Y6532D01*
X4437Y6541D01*
X4453D01*
X4462Y6532D01*
Y6524D01*
X4453Y6516D01*
X4428D01*
X6116Y4978D02*
X6108Y4970D01*
X6091D01*
X6083Y4978D01*
Y5011D01*
X6091Y5020D01*
X6108D01*
X6116Y5011D01*
X6133Y5020D02*
Y4970D01*
X6166Y5020D01*
Y4970D01*
X6208Y5020D02*
Y4970D01*
X6183Y4995D01*
X6216D01*
X6116Y6769D02*
X6108Y6761D01*
X6091D01*
X6083Y6769D01*
Y6803D01*
X6091Y6811D01*
X6108D01*
X6116Y6803D01*
X6133Y6811D02*
Y6761D01*
X6166Y6811D01*
Y6761D01*
X6183D02*
X6216D01*
Y6769D01*
X6183Y6803D01*
Y6811D01*
X3647Y4044D02*
Y3984D01*
X3667Y4004D01*
X3687Y3984D01*
Y4044D01*
X3707D02*
Y4004D01*
X3727Y3984D01*
X3747Y4004D01*
Y4044D01*
Y4014D01*
X3707D01*
X3767Y3984D02*
X3807Y4044D01*
Y3984D02*
X3767Y4044D01*
X3927Y3994D02*
X3917Y3984D01*
X3897D01*
X3887Y3994D01*
Y4034D01*
X3897Y4044D01*
X3917D01*
X3927Y4034D01*
X3977Y3984D02*
X3957D01*
X3947Y3994D01*
Y4034D01*
X3957Y4044D01*
X3977D01*
X3987Y4034D01*
Y3994D01*
X3977Y3984D01*
X4007Y4044D02*
Y3984D01*
X4047Y4044D01*
Y3984D01*
X4067D02*
X4107D01*
X4087D01*
Y4044D01*
X4126Y3984D02*
X4146D01*
X4136D01*
Y4044D01*
X4126D01*
X4146D01*
X4176D02*
Y3984D01*
X4216Y4044D01*
Y3984D01*
X4276D02*
X4236D01*
Y4044D01*
X4276D01*
X4236Y4014D02*
X4256D01*
X4326Y3984D02*
X4306D01*
X4296Y3994D01*
Y4034D01*
X4306Y4044D01*
X4326D01*
X4336Y4034D01*
Y3994D01*
X4326Y3984D01*
X4356D02*
Y4034D01*
X4366Y4044D01*
X4386D01*
X4396Y4034D01*
Y3984D01*
X4456Y3994D02*
X4446Y3984D01*
X4426D01*
X4416Y3994D01*
Y4004D01*
X4426Y4014D01*
X4446D01*
X4456Y4024D01*
Y4034D01*
X4446Y4044D01*
X4426D01*
X4416Y4034D01*
X4576Y3994D02*
X4566Y3984D01*
X4546D01*
X4536Y3994D01*
Y4034D01*
X4546Y4044D01*
X4566D01*
X4576Y4034D01*
X4596Y3984D02*
Y4034D01*
X4606Y4044D01*
X4626D01*
X4636Y4034D01*
Y3984D01*
X4656Y4044D02*
Y3984D01*
X4686D01*
X4696Y3994D01*
Y4014D01*
X4686Y4024D01*
X4656D01*
X4676D02*
X4696Y4044D01*
X4716D02*
Y3984D01*
X4746D01*
X4756Y3994D01*
Y4014D01*
X4746Y4024D01*
X4716D01*
X4736D02*
X4756Y4044D01*
X4816Y3984D02*
X4776D01*
Y4044D01*
X4816D01*
X4776Y4014D02*
X4796D01*
X4836Y4044D02*
Y3984D01*
X4876Y4044D01*
Y3984D01*
X4896D02*
X4936D01*
X4916D01*
Y4044D01*
X5016D02*
Y3984D01*
X5046D01*
X5056Y3994D01*
Y4014D01*
X5046Y4024D01*
X5016D01*
X5116Y3984D02*
X5076D01*
Y4044D01*
X5116D01*
X5076Y4014D02*
X5096D01*
X5136Y4044D02*
Y3984D01*
X5166D01*
X5176Y3994D01*
Y4014D01*
X5166Y4024D01*
X5136D01*
X5156D02*
X5176Y4044D01*
X5296Y3994D02*
X5286Y3984D01*
X5266D01*
X5256Y3994D01*
Y4034D01*
X5266Y4044D01*
X5286D01*
X5296Y4034D01*
X5316Y3984D02*
Y4044D01*
Y4014D01*
X5356D01*
Y3984D01*
Y4044D01*
X5376D02*
Y4004D01*
X5396Y3984D01*
X5416Y4004D01*
Y4044D01*
Y4014D01*
X5376D01*
X5436Y4044D02*
Y3984D01*
X5476Y4044D01*
Y3984D01*
X5496Y4044D02*
Y3984D01*
X5536Y4044D01*
Y3984D01*
X5596D02*
X5556D01*
Y4044D01*
X5596D01*
X5556Y4014D02*
X5576D01*
X5616Y3984D02*
Y4044D01*
X5656D01*
X5736D02*
X5756D01*
X5746D01*
Y3984D01*
X5736Y3994D01*
X5786D02*
X5796Y3984D01*
X5816D01*
X5826Y3994D01*
Y4034D01*
X5816Y4044D01*
X5796D01*
X5786Y4034D01*
Y3994D01*
X5846Y4044D02*
Y4004D01*
X5866Y3984D01*
X5886Y4004D01*
Y4044D01*
Y4014D01*
X5846D01*
X5906Y4004D02*
Y4044D01*
Y4024D01*
X5916Y4014D01*
X5926Y4004D01*
X5936D01*
X5966Y4044D02*
Y4004D01*
X5976D01*
X5986Y4014D01*
Y4044D01*
Y4014D01*
X5996Y4004D01*
X6006Y4014D01*
Y4044D01*
X6026D02*
X6056D01*
X6066Y4034D01*
X6056Y4024D01*
X6036D01*
X6026Y4014D01*
X6036Y4004D01*
X6066D01*
X3647Y3944D02*
Y3884D01*
X3667Y3904D01*
X3687Y3884D01*
Y3944D01*
X3707D02*
Y3904D01*
X3727Y3884D01*
X3747Y3904D01*
Y3944D01*
Y3914D01*
X3707D01*
X3767Y3884D02*
X3807Y3944D01*
Y3884D02*
X3767Y3944D01*
X3887Y3884D02*
X3907D01*
X3897D01*
Y3944D01*
X3887D01*
X3907D01*
X3937D02*
Y3884D01*
X3977Y3944D01*
Y3884D01*
X3997Y3944D02*
Y3884D01*
X4027D01*
X4037Y3894D01*
Y3914D01*
X4027Y3924D01*
X3997D01*
X4057Y3884D02*
Y3934D01*
X4067Y3944D01*
X4087D01*
X4097Y3934D01*
Y3884D01*
X4117D02*
X4156D01*
X4136D01*
Y3944D01*
X4236D02*
Y3884D01*
X4266D01*
X4276Y3894D01*
Y3914D01*
X4266Y3924D01*
X4236D01*
X4296Y3884D02*
Y3944D01*
X4316Y3924D01*
X4336Y3944D01*
Y3884D01*
X4356Y3944D02*
Y3884D01*
X4386D01*
X4396Y3894D01*
Y3914D01*
X4386Y3924D01*
X4356D01*
X4376D02*
X4396Y3944D01*
X4516Y3894D02*
X4506Y3884D01*
X4486D01*
X4476Y3894D01*
Y3904D01*
X4486Y3914D01*
X4506D01*
X4516Y3924D01*
Y3934D01*
X4506Y3944D01*
X4486D01*
X4476Y3934D01*
X4536Y3884D02*
Y3934D01*
X4546Y3944D01*
X4566D01*
X4576Y3934D01*
Y3884D01*
X4596Y3944D02*
Y3884D01*
X4626D01*
X4636Y3894D01*
Y3914D01*
X4626Y3924D01*
X4596D01*
X4656Y3944D02*
Y3884D01*
X4686D01*
X4696Y3894D01*
Y3914D01*
X4686Y3924D01*
X4656D01*
X4716Y3884D02*
Y3944D01*
X4756D01*
X4776Y3884D02*
Y3894D01*
X4796Y3914D01*
X4816Y3894D01*
Y3884D01*
X4796Y3914D02*
Y3944D01*
X4896Y3914D02*
X4936D01*
X4916Y3894D02*
Y3934D01*
X4956Y3944D02*
X4996Y3904D01*
X5016Y3914D02*
X5056D01*
X5116Y3944D02*
X5076D01*
X5116Y3904D01*
Y3894D01*
X5106Y3884D01*
X5086D01*
X5076Y3894D01*
X5136D02*
X5146Y3884D01*
X5166D01*
X5176Y3894D01*
Y3934D01*
X5166Y3944D01*
X5146D01*
X5136Y3934D01*
Y3894D01*
X5196Y3884D02*
Y3924D01*
X5216Y3944D01*
X5236Y3924D01*
Y3884D01*
X3647Y3844D02*
Y3784D01*
X3667Y3804D01*
X3687Y3784D01*
Y3844D01*
X3707D02*
Y3804D01*
X3727Y3784D01*
X3747Y3804D01*
Y3844D01*
Y3814D01*
X3707D01*
X3767Y3784D02*
X3807Y3844D01*
Y3784D02*
X3767Y3844D01*
X3887Y3784D02*
X3907D01*
X3897D01*
Y3844D01*
X3887D01*
X3907D01*
X3937D02*
Y3784D01*
X3977Y3844D01*
Y3784D01*
X3997Y3844D02*
Y3784D01*
X4027D01*
X4037Y3794D01*
Y3814D01*
X4027Y3824D01*
X3997D01*
X4057Y3784D02*
Y3834D01*
X4067Y3844D01*
X4087D01*
X4097Y3834D01*
Y3784D01*
X4117D02*
X4156D01*
X4136D01*
Y3844D01*
X4236D02*
Y3804D01*
X4256Y3784D01*
X4276Y3804D01*
Y3844D01*
Y3814D01*
X4236D01*
X4296Y3844D02*
Y3784D01*
X4326D01*
X4336Y3794D01*
Y3814D01*
X4326Y3824D01*
X4296D01*
X4316D02*
X4336Y3844D01*
X4356Y3784D02*
Y3844D01*
X4386D01*
X4396Y3834D01*
Y3824D01*
X4386Y3814D01*
X4356D01*
X4386D01*
X4396Y3804D01*
Y3794D01*
X4386Y3784D01*
X4356D01*
X4516Y3794D02*
X4506Y3784D01*
X4486D01*
X4476Y3794D01*
Y3804D01*
X4486Y3814D01*
X4506D01*
X4516Y3824D01*
Y3834D01*
X4506Y3844D01*
X4486D01*
X4476Y3834D01*
X4536Y3784D02*
X4556D01*
X4546D01*
Y3844D01*
X4536D01*
X4556D01*
X4626Y3794D02*
X4616Y3784D01*
X4596D01*
X4586Y3794D01*
Y3834D01*
X4596Y3844D01*
X4616D01*
X4626Y3834D01*
Y3814D01*
X4606D01*
X4646Y3844D02*
Y3784D01*
X4686Y3844D01*
Y3784D01*
X4706Y3844D02*
Y3804D01*
X4726Y3784D01*
X4746Y3804D01*
Y3844D01*
Y3814D01*
X4706D01*
X4766Y3784D02*
Y3844D01*
X4806D01*
X4886Y3814D02*
X4926D01*
X4906Y3794D02*
Y3834D01*
X4946Y3844D02*
X4986Y3804D01*
X5006Y3814D02*
X5046D01*
X5066Y3844D02*
X5086D01*
X5076D01*
Y3784D01*
X5066Y3794D01*
X5156Y3784D02*
X5116D01*
Y3814D01*
X5136Y3804D01*
X5146D01*
X5156Y3814D01*
Y3834D01*
X5146Y3844D01*
X5126D01*
X5116Y3834D01*
X5176Y3784D02*
Y3824D01*
X5196Y3844D01*
X5216Y3824D01*
Y3784D01*
X4715Y7953D02*
Y7873D01*
X4755D01*
X4768Y7886D01*
Y7913D01*
X4755Y7926D01*
X4715D01*
X4741D02*
X4768Y7953D01*
X4848Y7873D02*
X4795D01*
Y7953D01*
X4848D01*
X4795Y7913D02*
X4821D01*
X4928Y7886D02*
X4915Y7873D01*
X4888D01*
X4875Y7886D01*
Y7899D01*
X4888Y7913D01*
X4915D01*
X4928Y7926D01*
Y7939D01*
X4915Y7953D01*
X4888D01*
X4875Y7939D01*
X5008Y7873D02*
X4954D01*
Y7953D01*
X5008D01*
X4954Y7913D02*
X4981D01*
X5034Y7873D02*
X5088D01*
X5061D01*
Y7953D01*
X3642Y2562D02*
X3662D01*
X3652D01*
Y2622D01*
X3642D01*
X3662D01*
X3692D02*
Y2562D01*
X3712Y2582D01*
X3732Y2562D01*
Y2622D01*
X3752D02*
Y2562D01*
X3782D01*
X3792Y2572D01*
Y2592D01*
X3782Y2602D01*
X3752D01*
X3772D02*
X3792Y2622D01*
X3812Y2592D02*
X3852D01*
X3872Y2572D02*
X3882Y2562D01*
X3902D01*
X3912Y2572D01*
Y2612D01*
X3902Y2622D01*
X3882D01*
X3872Y2612D01*
Y2572D01*
X3932D02*
X3942Y2562D01*
X3962D01*
X3972Y2572D01*
Y2612D01*
X3962Y2622D01*
X3942D01*
X3932Y2612D01*
Y2572D01*
X4032Y2562D02*
X3992D01*
Y2592D01*
X4012Y2582D01*
X4022D01*
X4032Y2592D01*
Y2612D01*
X4022Y2622D01*
X4002D01*
X3992Y2612D01*
X4052Y2592D02*
X4092D01*
X4112Y2622D02*
Y2562D01*
X4142D01*
X4152Y2572D01*
Y2592D01*
X4142Y2602D01*
X4112D01*
X4212Y2572D02*
X4202Y2562D01*
X4182D01*
X4172Y2572D01*
Y2612D01*
X4182Y2622D01*
X4202D01*
X4212Y2612D01*
X4232Y2562D02*
Y2622D01*
X4262D01*
X4272Y2612D01*
Y2602D01*
X4262Y2592D01*
X4232D01*
X4262D01*
X4272Y2582D01*
Y2572D01*
X4262Y2562D01*
X4232D01*
X4352Y2622D02*
Y2562D01*
X4381D01*
X4391Y2572D01*
Y2592D01*
X4381Y2602D01*
X4352D01*
X4371D02*
X4391Y2622D01*
X4451Y2562D02*
X4411D01*
Y2622D01*
X4451D01*
X4411Y2592D02*
X4431D01*
X4471Y2562D02*
Y2602D01*
X4491Y2622D01*
X4511Y2602D01*
Y2562D01*
X4591Y2622D02*
X4611D01*
X4601D01*
Y2562D01*
X4591Y2572D01*
X3672Y4162D02*
X3652D01*
X3642Y4172D01*
Y4212D01*
X3652Y4222D01*
X3672D01*
X3682Y4212D01*
Y4172D01*
X3672Y4162D01*
X3702D02*
Y4212D01*
X3712Y4222D01*
X3732D01*
X3742Y4212D01*
Y4162D01*
X3762D02*
X3802D01*
X3782D01*
Y4222D01*
X3822D02*
Y4162D01*
X3852D01*
X3862Y4172D01*
Y4192D01*
X3852Y4202D01*
X3822D01*
X3882Y4162D02*
Y4212D01*
X3892Y4222D01*
X3912D01*
X3922Y4212D01*
Y4162D01*
X3942D02*
X3982D01*
X3962D01*
Y4222D01*
X4062Y4162D02*
Y4222D01*
X4102D01*
X4152Y4162D02*
X4132D01*
X4122Y4172D01*
Y4212D01*
X4132Y4222D01*
X4152D01*
X4162Y4212D01*
Y4172D01*
X4152Y4162D01*
X4182Y4222D02*
Y4182D01*
X4202Y4162D01*
X4222Y4182D01*
Y4222D01*
Y4192D01*
X4182D01*
X4242Y4162D02*
Y4222D01*
X4272D01*
X4282Y4212D01*
Y4172D01*
X4272Y4162D01*
X4242D01*
X4361D02*
X4381D01*
X4371D01*
Y4222D01*
X4361D01*
X4381D01*
X4471Y4202D02*
X4511D01*
X4471Y4182D02*
X4511D01*
X4611Y4222D02*
X4591Y4202D01*
Y4182D01*
X4611Y4162D01*
X4641Y4222D02*
Y4162D01*
X4681Y4222D01*
Y4162D01*
X4731D02*
X4711D01*
X4701Y4172D01*
Y4212D01*
X4711Y4222D01*
X4731D01*
X4741Y4212D01*
Y4172D01*
X4731Y4162D01*
X4761Y4222D02*
Y4162D01*
X4781Y4182D01*
X4801Y4162D01*
Y4222D01*
X4821Y4162D02*
X4841D01*
X4831D01*
Y4222D01*
X4821D01*
X4841D01*
X4871D02*
Y4162D01*
X4911Y4222D01*
Y4162D01*
X4931Y4222D02*
Y4182D01*
X4951Y4162D01*
X4971Y4182D01*
Y4222D01*
Y4192D01*
X4931D01*
X4991Y4162D02*
Y4222D01*
X5031D01*
X5111Y4162D02*
Y4222D01*
X5141D01*
X5151Y4212D01*
Y4172D01*
X5141Y4162D01*
X5111D01*
X5211Y4172D02*
X5201Y4162D01*
X5181D01*
X5171Y4172D01*
Y4212D01*
X5181Y4222D01*
X5201D01*
X5211Y4212D01*
X5291Y4162D02*
Y4222D01*
X5331D01*
X5381Y4162D02*
X5361D01*
X5351Y4172D01*
Y4212D01*
X5361Y4222D01*
X5381D01*
X5391Y4212D01*
Y4172D01*
X5381Y4162D01*
X5411Y4222D02*
Y4182D01*
X5431Y4162D01*
X5451Y4182D01*
Y4222D01*
Y4192D01*
X5411D01*
X5471Y4162D02*
Y4222D01*
X5501D01*
X5511Y4212D01*
Y4172D01*
X5501Y4162D01*
X5471D01*
X5591Y4192D02*
X5631D01*
X5611Y4172D02*
Y4212D01*
X5711Y4162D02*
Y4202D01*
X5731Y4222D01*
X5751Y4202D01*
Y4162D01*
X5771Y4242D02*
Y4182D01*
X5801D01*
X5811Y4192D01*
Y4212D01*
X5801Y4222D01*
X5771D01*
X5831D02*
Y4162D01*
Y4202D02*
X5861Y4182D01*
X5831Y4202D02*
X5861Y4222D01*
X5891D02*
X5931Y4182D01*
X5951Y4162D02*
X5991Y4222D01*
Y4162D02*
X5951Y4222D01*
X6011D02*
X6031D01*
X6021D01*
Y4162D01*
X6011D01*
X6101Y4182D02*
X6071D01*
X6061Y4192D01*
Y4212D01*
X6071Y4222D01*
X6101D01*
X6121D02*
X6141Y4202D01*
Y4182D01*
X6121Y4162D01*
X6171Y4222D02*
Y4182D01*
X6191Y4162D01*
X6211Y4182D01*
Y4222D01*
Y4192D01*
X6171D01*
X6231Y4182D02*
Y4222D01*
Y4202D01*
X6241Y4192D01*
X6251Y4182D01*
X6261D01*
X6291Y4222D02*
Y4182D01*
X6301D01*
X6311Y4192D01*
Y4222D01*
Y4192D01*
X6321Y4182D01*
X6331Y4192D01*
Y4222D01*
X6351D02*
X6381D01*
X6391Y4212D01*
X6381Y4202D01*
X6361D01*
X6351Y4192D01*
X6361Y4182D01*
X6391D01*
X1772Y8268D02*
X8858D01*
Y1969D02*
Y8268D01*
X1772Y1969D02*
Y8268D01*
Y1969D02*
X8858D01*
D44*
X2147Y7569D02*
Y7702D01*
X2214Y7635D02*
X2081D01*
X2147Y6819D02*
Y6952D01*
Y5169D02*
Y5302D01*
Y5919D02*
Y6052D01*
X2214Y5985D02*
X2081D01*
X8535Y4974D02*
Y5107D01*
X8602Y5040D02*
X8468D01*
X8535Y4224D02*
Y4357D01*
Y3281D02*
Y3414D01*
X8602Y3347D02*
X8468D01*
X8535Y2531D02*
Y2664D01*
D47*
X2855Y6287D02*
G03*
X2855Y6287I-12J0D01*
G01*
X9813Y2769D02*
Y2669D01*
X9863D01*
X9880Y2686D01*
Y2703D01*
X9863Y2719D01*
X9813D01*
X9863D01*
X9880Y2736D01*
Y2753D01*
X9863Y2769D01*
X9813D01*
X9963D02*
X9930D01*
X9913Y2753D01*
Y2686D01*
X9930Y2669D01*
X9963D01*
X9980Y2686D01*
Y2753D01*
X9963Y2769D01*
X10013D02*
X10080D01*
X10046D01*
Y2669D01*
X10113Y2769D02*
X10180D01*
X10146D01*
Y2669D01*
X10263Y2769D02*
X10230D01*
X10213Y2753D01*
Y2686D01*
X10230Y2669D01*
X10263D01*
X10280Y2686D01*
Y2753D01*
X10263Y2769D01*
X10313Y2669D02*
Y2769D01*
X10346Y2736D01*
X10380Y2769D01*
Y2669D01*
X10580Y2753D02*
X10563Y2769D01*
X10530D01*
X10513Y2753D01*
Y2736D01*
X10530Y2719D01*
X10563D01*
X10580Y2703D01*
Y2686D01*
X10563Y2669D01*
X10530D01*
X10513Y2686D01*
X10613Y2769D02*
X10646D01*
X10630D01*
Y2669D01*
X10613D01*
X10646D01*
X10696Y2769D02*
Y2669D01*
X10763D01*
X10796Y2769D02*
Y2669D01*
Y2703D01*
X10863Y2769D01*
X10813Y2719D01*
X10863Y2669D01*
X4832Y6953D02*
Y7053D01*
X4882D01*
X4899Y7037D01*
Y6970D01*
X4882Y6953D01*
X4832D01*
X4932D02*
X4966D01*
X4949D01*
Y7053D01*
X4932D01*
X4966D01*
X5082Y6970D02*
X5066Y6953D01*
X5032D01*
X5016Y6970D01*
Y6987D01*
X5032Y7003D01*
X5066D01*
X5082Y7020D01*
Y7037D01*
X5066Y7053D01*
X5032D01*
X5016Y7037D01*
X5116Y7053D02*
Y6953D01*
X5166D01*
X5182Y6970D01*
Y7003D01*
X5166Y7020D01*
X5116D01*
X5215Y6953D02*
Y7053D01*
X5282D01*
X5315D02*
Y6987D01*
X5349Y6953D01*
X5382Y6987D01*
Y7053D01*
Y7003D01*
X5315D01*
X5415Y6953D02*
Y6970D01*
X5449Y7003D01*
X5482Y6970D01*
Y6953D01*
X5449Y7003D02*
Y7053D01*
X5615D02*
Y6953D01*
X5665D01*
X5682Y6970D01*
Y7003D01*
X5665Y7020D01*
X5615D01*
X5649D02*
X5682Y7053D01*
X5782Y6953D02*
X5715D01*
Y7053D01*
X5782D01*
X5715Y7003D02*
X5749D01*
X5815Y7053D02*
Y6987D01*
X5849Y6953D01*
X5882Y6987D01*
Y7053D01*
Y7003D01*
X5815D01*
X5915Y6953D02*
Y7053D01*
X5965D01*
X5982Y7037D01*
Y6970D01*
X5965Y6953D01*
X5915D01*
X6082Y6970D02*
X6065Y6953D01*
X6032D01*
X6015Y6970D01*
Y6987D01*
X6032Y7003D01*
X6065D01*
X6082Y7020D01*
Y7037D01*
X6065Y7053D01*
X6032D01*
X6015Y7037D01*
X6215Y6953D02*
X6282D01*
X6248D01*
Y7053D01*
X6315Y6953D02*
Y7053D01*
Y7003D01*
X6382D01*
Y6953D01*
Y7053D01*
X6415Y6953D02*
X6448D01*
X6432D01*
Y7053D01*
X6415D01*
X6448D01*
X6565Y6970D02*
X6548Y6953D01*
X6515D01*
X6498Y6970D01*
Y6987D01*
X6515Y7003D01*
X6548D01*
X6565Y7020D01*
Y7037D01*
X6548Y7053D01*
X6515D01*
X6498Y7037D01*
X6748Y6953D02*
X6715D01*
X6698Y6970D01*
Y7037D01*
X6715Y7053D01*
X6748D01*
X6765Y7037D01*
Y6970D01*
X6748Y6953D01*
X6798Y7053D02*
Y6953D01*
X6848D01*
X6865Y6970D01*
Y7003D01*
X6848Y7020D01*
X6798D01*
X6832D02*
X6865Y7053D01*
X6898Y6953D02*
X6932D01*
X6915D01*
Y7053D01*
X6898D01*
X6932D01*
X7048Y6953D02*
X6982D01*
Y7053D01*
X7048D01*
X6982Y7003D02*
X7015D01*
X7082Y7053D02*
Y6953D01*
X7148Y7053D01*
Y6953D01*
X7182D02*
X7248D01*
X7215D01*
Y7053D01*
X7281D02*
Y6987D01*
X7315Y6953D01*
X7348Y6987D01*
Y7053D01*
Y7003D01*
X7281D01*
X7381Y6953D02*
X7448D01*
X7415D01*
Y7053D01*
X7481Y6953D02*
X7515D01*
X7498D01*
Y7053D01*
X7481D01*
X7515D01*
X7615Y6953D02*
X7581D01*
X7565Y6970D01*
Y7037D01*
X7581Y7053D01*
X7615D01*
X7631Y7037D01*
Y6970D01*
X7615Y6953D01*
X7665Y7053D02*
Y6953D01*
X7731Y7053D01*
Y6953D01*
X5473Y7211D02*
Y7111D01*
X5423Y7161D01*
X5489D01*
X5523Y7128D02*
X5539Y7111D01*
X5573D01*
X5589Y7128D01*
Y7144D01*
X5573Y7161D01*
X5589Y7178D01*
Y7194D01*
X5573Y7211D01*
X5539D01*
X5523Y7194D01*
Y7178D01*
X5539Y7161D01*
X5523Y7144D01*
Y7128D01*
X5539Y7161D02*
X5573D01*
X5623Y7128D02*
X5639Y7111D01*
X5673D01*
X5689Y7128D01*
Y7194D01*
X5673Y7211D01*
X5639D01*
X5623Y7194D01*
Y7128D01*
X5723Y7111D02*
X5789Y7211D01*
Y7111D02*
X5723Y7211D01*
X5889D02*
X5823D01*
X5889Y7144D01*
Y7128D01*
X5873Y7111D01*
X5839D01*
X5823Y7128D01*
X5923Y7111D02*
X5989D01*
Y7128D01*
X5923Y7194D01*
Y7211D01*
X6089D02*
X6023D01*
X6089Y7144D01*
Y7128D01*
X6073Y7111D01*
X6039D01*
X6023Y7128D01*
X6223Y7211D02*
Y7111D01*
X6273D01*
X6289Y7128D01*
Y7161D01*
X6273Y7178D01*
X6223D01*
X6256D02*
X6289Y7211D01*
X6389Y7111D02*
X6323D01*
Y7211D01*
X6389D01*
X6323Y7161D02*
X6356D01*
X6489Y7128D02*
X6472Y7111D01*
X6439D01*
X6423Y7128D01*
Y7144D01*
X6439Y7161D01*
X6472D01*
X6489Y7178D01*
Y7194D01*
X6472Y7211D01*
X6439D01*
X6423Y7194D01*
X6572Y7111D02*
X6539D01*
X6522Y7128D01*
Y7194D01*
X6539Y7211D01*
X6572D01*
X6589Y7194D01*
Y7128D01*
X6572Y7111D01*
X6622D02*
Y7211D01*
X6689D01*
X6722Y7111D02*
Y7194D01*
X6739Y7211D01*
X6772D01*
X6789Y7194D01*
Y7111D01*
X6822D02*
X6889D01*
X6856D01*
Y7211D01*
X6922Y7111D02*
X6956D01*
X6939D01*
Y7211D01*
X6922D01*
X6956D01*
X7056Y7111D02*
X7022D01*
X7006Y7128D01*
Y7194D01*
X7022Y7211D01*
X7056D01*
X7072Y7194D01*
Y7128D01*
X7056Y7111D01*
X7106Y7211D02*
Y7111D01*
X7172Y7211D01*
Y7111D01*
X3647Y3644D02*
Y3744D01*
X3713D01*
X3747Y3644D02*
X3780D01*
X3763D01*
Y3744D01*
X3747D01*
X3780D01*
X3830D02*
Y3644D01*
X3863Y3677D01*
X3897Y3644D01*
Y3744D01*
X3930Y3644D02*
X3963D01*
X3947D01*
Y3744D01*
X3930D01*
X3963D01*
X4013Y3644D02*
X4080D01*
X4047D01*
Y3744D01*
X4180Y3660D02*
X4163Y3644D01*
X4130D01*
X4113Y3660D01*
Y3677D01*
X4130Y3694D01*
X4163D01*
X4180Y3710D01*
Y3727D01*
X4163Y3744D01*
X4130D01*
X4113Y3727D01*
X4213Y3677D02*
X4230D01*
Y3694D01*
X4213D01*
Y3677D01*
Y3727D02*
X4230D01*
Y3744D01*
X4213D01*
Y3727D01*
X3091Y6386D02*
X3058D01*
X3041Y6403D01*
Y6470D01*
X3058Y6486D01*
X3091D01*
X3108Y6470D01*
Y6403D01*
X3091Y6386D01*
X3141Y6486D02*
Y6386D01*
X3208Y6486D01*
Y6386D01*
X2205D02*
X2172D01*
X2156Y6403D01*
Y6470D01*
X2172Y6486D01*
X2205D01*
X2222Y6470D01*
Y6403D01*
X2205Y6386D01*
X2322D02*
X2255D01*
Y6436D01*
X2289D01*
X2255D01*
Y6486D01*
X2422Y6386D02*
X2355D01*
Y6436D01*
X2389D01*
X2355D01*
Y6486D01*
X1900Y6569D02*
Y6635D01*
X1934Y6602D02*
X1867D01*
X1850Y6735D02*
Y6668D01*
X1917Y6735D01*
X1934D01*
X1950Y6718D01*
Y6685D01*
X1934Y6668D01*
Y6768D02*
X1950Y6785D01*
Y6818D01*
X1934Y6835D01*
X1867D01*
X1850Y6818D01*
Y6785D01*
X1867Y6768D01*
X1934D01*
X1950Y6868D02*
X1884D01*
X1850Y6902D01*
X1884Y6935D01*
X1950D01*
X1850Y7068D02*
X1950D01*
Y7118D01*
X1934Y7135D01*
X1900D01*
X1884Y7118D01*
Y7068D01*
X1950Y7168D02*
X1850D01*
X1884Y7202D01*
X1850Y7235D01*
X1950D01*
X1850Y7268D02*
X1950D01*
Y7318D01*
X1934Y7335D01*
X1900D01*
X1884Y7318D01*
Y7268D01*
Y7302D02*
X1850Y7335D01*
X1950Y7468D02*
Y7502D01*
Y7485D01*
X1850D01*
Y7468D01*
Y7502D01*
Y7552D02*
X1950D01*
X1850Y7618D01*
X1950D01*
X1850Y7651D02*
X1950D01*
Y7701D01*
X1934Y7718D01*
X1900D01*
X1884Y7701D01*
Y7651D01*
X1950Y7751D02*
X1867D01*
X1850Y7768D01*
Y7801D01*
X1867Y7818D01*
X1950D01*
Y7851D02*
Y7918D01*
Y7885D01*
X1850D01*
X1900Y4919D02*
Y4985D01*
X1850Y5085D02*
Y5018D01*
X1917Y5085D01*
X1934D01*
X1950Y5068D01*
Y5035D01*
X1934Y5018D01*
Y5118D02*
X1950Y5135D01*
Y5168D01*
X1934Y5185D01*
X1867D01*
X1850Y5168D01*
Y5135D01*
X1867Y5118D01*
X1934D01*
X1950Y5218D02*
X1884D01*
X1850Y5252D01*
X1884Y5285D01*
X1950D01*
X1850Y5418D02*
X1950D01*
Y5468D01*
X1934Y5485D01*
X1900D01*
X1884Y5468D01*
Y5418D01*
X1950Y5518D02*
X1850D01*
X1884Y5552D01*
X1850Y5585D01*
X1950D01*
X1850Y5618D02*
X1950D01*
Y5668D01*
X1934Y5685D01*
X1900D01*
X1884Y5668D01*
Y5618D01*
Y5652D02*
X1850Y5685D01*
X1950Y5818D02*
Y5852D01*
Y5835D01*
X1850D01*
Y5818D01*
Y5852D01*
Y5902D02*
X1950D01*
X1850Y5968D01*
X1950D01*
X1850Y6001D02*
X1950D01*
Y6051D01*
X1934Y6068D01*
X1900D01*
X1884Y6051D01*
Y6001D01*
X1950Y6101D02*
X1867D01*
X1850Y6118D01*
Y6151D01*
X1867Y6168D01*
X1950D01*
Y6201D02*
Y6268D01*
Y6235D01*
X1850D01*
X2131Y3985D02*
X2147Y3968D01*
Y3935D01*
X2131Y3919D01*
X2064D01*
X2047Y3935D01*
Y3968D01*
X2064Y3985D01*
X2147Y4018D02*
X2047D01*
X2097D01*
Y4085D01*
X2147D01*
X2047D01*
Y4118D02*
Y4152D01*
Y4135D01*
X2147D01*
X2131Y4118D01*
X2147Y4302D02*
Y4335D01*
Y4318D01*
X2047D01*
Y4302D01*
Y4335D01*
Y4385D02*
X2147D01*
X2047Y4452D01*
X2147D01*
X2047Y4485D02*
X2147D01*
Y4535D01*
X2131Y4552D01*
X2097D01*
X2081Y4535D01*
Y4485D01*
X2147Y4585D02*
X2064D01*
X2047Y4602D01*
Y4635D01*
X2064Y4652D01*
X2147D01*
Y4685D02*
Y4752D01*
Y4718D01*
X2047D01*
X2131Y2385D02*
X2147Y2368D01*
Y2335D01*
X2131Y2319D01*
X2064D01*
X2047Y2335D01*
Y2368D01*
X2064Y2385D01*
X2147Y2418D02*
X2047D01*
X2097D01*
Y2485D01*
X2147D01*
X2047D01*
Y2585D02*
Y2518D01*
X2114Y2585D01*
X2131D01*
X2147Y2568D01*
Y2535D01*
X2131Y2518D01*
X2147Y2718D02*
Y2752D01*
Y2735D01*
X2047D01*
Y2718D01*
Y2752D01*
Y2802D02*
X2147D01*
X2047Y2868D01*
X2147D01*
X2047Y2902D02*
X2147D01*
Y2952D01*
X2131Y2968D01*
X2097D01*
X2081Y2952D01*
Y2902D01*
X2147Y3002D02*
X2064D01*
X2047Y3018D01*
Y3052D01*
X2064Y3068D01*
X2147D01*
Y3102D02*
Y3168D01*
Y3135D01*
X2047D01*
X8819Y4276D02*
X8835Y4260D01*
Y4228D01*
X8819Y4213D01*
X8756D01*
X8740Y4228D01*
Y4260D01*
X8756Y4276D01*
X8835Y4308D02*
X8740D01*
X8788D01*
Y4371D01*
X8835D01*
X8740D01*
Y4403D02*
Y4434D01*
Y4418D01*
X8835D01*
X8819Y4403D01*
X8835Y4624D02*
Y4592D01*
X8819Y4577D01*
X8756D01*
X8740Y4592D01*
Y4624D01*
X8756Y4640D01*
X8819D01*
X8835Y4624D01*
Y4672D02*
X8756D01*
X8740Y4687D01*
Y4719D01*
X8756Y4735D01*
X8835D01*
Y4767D02*
Y4830D01*
Y4798D01*
X8740D01*
Y4862D02*
X8835D01*
Y4909D01*
X8819Y4925D01*
X8788D01*
X8772Y4909D01*
Y4862D01*
X8835Y4957D02*
X8756D01*
X8740Y4972D01*
Y5004D01*
X8756Y5020D01*
X8835D01*
Y5051D02*
Y5115D01*
Y5083D01*
X8740D01*
X8784Y2547D02*
X8801Y2530D01*
Y2497D01*
X8784Y2480D01*
X8717D01*
X8701Y2497D01*
Y2530D01*
X8717Y2547D01*
X8801Y2580D02*
X8701D01*
X8751D01*
Y2647D01*
X8801D01*
X8701D01*
Y2747D02*
Y2680D01*
X8767Y2747D01*
X8784D01*
X8801Y2730D01*
Y2697D01*
X8784Y2680D01*
X8801Y2930D02*
Y2897D01*
X8784Y2880D01*
X8717D01*
X8701Y2897D01*
Y2930D01*
X8717Y2947D01*
X8784D01*
X8801Y2930D01*
Y2980D02*
X8717D01*
X8701Y2997D01*
Y3030D01*
X8717Y3047D01*
X8801D01*
Y3080D02*
Y3147D01*
Y3113D01*
X8701D01*
Y3180D02*
X8801D01*
Y3230D01*
X8784Y3247D01*
X8751D01*
X8734Y3230D01*
Y3180D01*
X8801Y3280D02*
X8717D01*
X8701Y3297D01*
Y3330D01*
X8717Y3347D01*
X8801D01*
Y3380D02*
Y3447D01*
Y3413D01*
X8701D01*
X3661Y2524D02*
Y2457D01*
X3695Y2424D01*
X3728Y2457D01*
Y2524D01*
Y2474D01*
X3661D01*
X3761Y2524D02*
Y2424D01*
X3811D01*
X3828Y2441D01*
Y2474D01*
X3811Y2491D01*
X3761D01*
X3795D02*
X3828Y2524D01*
X3861Y2424D02*
Y2524D01*
X3911D01*
X3928Y2507D01*
Y2491D01*
X3911Y2474D01*
X3861D01*
X3911D01*
X3928Y2457D01*
Y2441D01*
X3911Y2424D01*
X3861D01*
X3961D02*
X3995D01*
X3978D01*
Y2524D01*
X3961D01*
X3995D01*
X4045Y2424D02*
X4111D01*
X4078D01*
Y2524D01*
X4145D02*
Y2424D01*
X4195D01*
X4211Y2441D01*
Y2474D01*
X4195Y2491D01*
X4145D01*
X4178D02*
X4211Y2524D01*
X4245D02*
Y2457D01*
X4278Y2424D01*
X4311Y2457D01*
Y2524D01*
Y2474D01*
X4245D01*
X4345Y2524D02*
Y2424D01*
X4395D01*
X4411Y2441D01*
Y2474D01*
X4395Y2491D01*
X4345D01*
X4378D02*
X4411Y2524D01*
X4444Y2424D02*
Y2441D01*
X4478Y2474D01*
X4511Y2441D01*
Y2424D01*
X4478Y2474D02*
Y2524D01*
X4644D02*
Y2424D01*
X4694D01*
X4711Y2441D01*
Y2474D01*
X4694Y2491D01*
X4644D01*
X4794Y2424D02*
X4761D01*
X4744Y2441D01*
Y2507D01*
X4761Y2524D01*
X4794D01*
X4811Y2507D01*
Y2441D01*
X4794Y2424D01*
X4844D02*
Y2524D01*
X4878Y2491D01*
X4911Y2524D01*
Y2424D01*
X5011D02*
X4944D01*
Y2524D01*
X5011D01*
X4944Y2474D02*
X4978D01*
X5044Y2524D02*
Y2424D01*
X5094D01*
X5111Y2441D01*
Y2474D01*
X5094Y2491D01*
X5044D01*
X5078D02*
X5111Y2524D01*
X5244Y2424D02*
Y2524D01*
X5294D01*
X5311Y2507D01*
Y2491D01*
X5294Y2474D01*
X5244D01*
X5294D01*
X5311Y2457D01*
Y2441D01*
X5294Y2424D01*
X5244D01*
X5394D02*
X5361D01*
X5344Y2441D01*
Y2507D01*
X5361Y2524D01*
X5394D01*
X5411Y2507D01*
Y2441D01*
X5394Y2424D01*
X5494D02*
X5461D01*
X5444Y2441D01*
Y2507D01*
X5461Y2524D01*
X5494D01*
X5511Y2507D01*
Y2441D01*
X5494Y2424D01*
X5611Y2441D02*
X5594Y2424D01*
X5561D01*
X5544Y2441D01*
Y2457D01*
X5561Y2474D01*
X5594D01*
X5611Y2491D01*
Y2507D01*
X5594Y2524D01*
X5561D01*
X5544Y2507D01*
X5644Y2424D02*
X5711D01*
X5677D01*
Y2524D01*
X5811Y2424D02*
X5744D01*
Y2524D01*
X5811D01*
X5744Y2474D02*
X5777D01*
X5844Y2524D02*
Y2424D01*
X5894D01*
X5911Y2441D01*
Y2474D01*
X5894Y2491D01*
X5844D01*
X5877D02*
X5911Y2524D01*
D70*
X4736Y7992D02*
G03*
X4736Y7992I-4J0D01*
G01*
X2964Y6500D02*
Y6551D01*
X2487D02*
X2964D01*
X2487Y6500D02*
Y6551D01*
Y6323D02*
Y6374D01*
Y6323D02*
X2964D01*
Y6374D01*
D72*
X4774Y7992D02*
X5030D01*
X4774Y8228D02*
X5030D01*
M02*
