G04*
G04 #@! TF.GenerationSoftware,Altium Limited,CircuitStudio,1.5.1 (13)*
G04*
G04 Layer_Physical_Order=2*
G04 Layer_Color=16765976*
%FSLAX23Y23*%
%MOIN*%
G70*
G01*
G75*
%ADD43C,0.010*%
%ADD46C,0.020*%
%ADD47C,0.157*%
%ADD50C,0.060*%
%ADD52C,0.063*%
%ADD58C,0.106*%
%ADD61C,0.060*%
%ADD64C,0.040*%
%ADD65C,0.030*%
G36*
X8819Y2008D02*
X2643D01*
X2643Y2013D01*
X2648Y2014D01*
X2656Y2019D01*
X2661Y2028D01*
X2663Y2037D01*
X2661Y2047D01*
X2656Y2055D01*
X2648Y2061D01*
X2638Y2063D01*
X2628Y2061D01*
X2620Y2055D01*
X2614Y2047D01*
X2612Y2037D01*
X2614Y2028D01*
X2620Y2019D01*
X2628Y2014D01*
X2633Y2013D01*
X2632Y2008D01*
X1811D01*
Y8228D01*
X8819D01*
Y2008D01*
D02*
G37*
%LPC*%
G36*
X3090Y3912D02*
X3076D01*
Y3899D01*
X3084Y3904D01*
X3090Y3912D01*
D02*
G37*
G36*
X3056Y3946D02*
X3048Y3940D01*
X3043Y3932D01*
X3056D01*
Y3946D01*
D02*
G37*
G36*
X7561Y3960D02*
X7478D01*
Y3877D01*
X7561D01*
Y3960D01*
D02*
G37*
G36*
X3056Y3912D02*
X3043D01*
X3048Y3904D01*
X3056Y3899D01*
Y3912D01*
D02*
G37*
G36*
X2859Y4047D02*
X2849Y4045D01*
X2839Y4041D01*
X2831Y4035D01*
X2824Y4026D01*
X2820Y4017D01*
X2819Y4006D01*
X2820Y3996D01*
X2824Y3986D01*
X2831Y3978D01*
X2839Y3971D01*
X2849Y3967D01*
X2859Y3966D01*
X2869Y3967D01*
X2879Y3971D01*
X2888Y3978D01*
X2894Y3986D01*
X2898Y3996D01*
X2899Y4006D01*
X2898Y4017D01*
X2894Y4026D01*
X2888Y4035D01*
X2879Y4041D01*
X2869Y4045D01*
X2859Y4047D01*
D02*
G37*
G36*
X5643Y4048D02*
X5633Y4046D01*
X5625Y4041D01*
X5619Y4032D01*
X5617Y4023D01*
X5619Y4013D01*
X5625Y4005D01*
X5633Y3999D01*
X5643Y3997D01*
X5653Y3999D01*
X5661Y4005D01*
X5666Y4013D01*
X5668Y4023D01*
X5666Y4032D01*
X5661Y4041D01*
X5653Y4046D01*
X5643Y4048D01*
D02*
G37*
G36*
X3076Y3946D02*
Y3932D01*
X3090D01*
X3084Y3940D01*
X3076Y3946D01*
D02*
G37*
G36*
X2559Y4047D02*
X2549Y4045D01*
X2539Y4041D01*
X2531Y4035D01*
X2524Y4026D01*
X2520Y4017D01*
X2519Y4006D01*
X2520Y3996D01*
X2524Y3986D01*
X2531Y3978D01*
X2539Y3971D01*
X2549Y3967D01*
X2559Y3966D01*
X2569Y3967D01*
X2579Y3971D01*
X2588Y3978D01*
X2594Y3986D01*
X2598Y3996D01*
X2599Y4006D01*
X2598Y4017D01*
X2594Y4026D01*
X2588Y4035D01*
X2579Y4041D01*
X2569Y4045D01*
X2559Y4047D01*
D02*
G37*
G36*
X7530Y3859D02*
Y3829D01*
X7560D01*
X7560Y3830D01*
X7556Y3840D01*
X7549Y3848D01*
X7541Y3855D01*
X7531Y3859D01*
X7530Y3859D01*
D02*
G37*
G36*
X2864Y3722D02*
Y3691D01*
X2895D01*
X2895Y3692D01*
X2891Y3702D01*
X2884Y3711D01*
X2875Y3717D01*
X2865Y3722D01*
X2864Y3722D01*
D02*
G37*
G36*
X4606Y3781D02*
X4596Y3779D01*
X4586Y3775D01*
X4578Y3769D01*
X4571Y3760D01*
X4567Y3751D01*
X4566Y3740D01*
X4567Y3730D01*
X4571Y3720D01*
X4578Y3712D01*
X4586Y3705D01*
X4596Y3701D01*
X4606Y3700D01*
X4617Y3701D01*
X4626Y3705D01*
X4635Y3712D01*
X4641Y3720D01*
X4645Y3730D01*
X4647Y3740D01*
X4645Y3751D01*
X4641Y3760D01*
X4635Y3769D01*
X4626Y3775D01*
X4617Y3779D01*
X4606Y3781D01*
D02*
G37*
G36*
X7323Y3770D02*
X7310Y3769D01*
X7298Y3764D01*
X7288Y3756D01*
X7280Y3745D01*
X7275Y3733D01*
X7273Y3720D01*
X7275Y3708D01*
X7280Y3696D01*
X7288Y3685D01*
X7298Y3677D01*
X7310Y3672D01*
X7323Y3671D01*
X7336Y3672D01*
X7348Y3677D01*
X7358Y3685D01*
X7366Y3696D01*
X7371Y3708D01*
X7373Y3720D01*
X7371Y3733D01*
X7366Y3745D01*
X7358Y3756D01*
X7348Y3764D01*
X7336Y3769D01*
X7323Y3770D01*
D02*
G37*
G36*
X2844Y3722D02*
X2843Y3722D01*
X2833Y3717D01*
X2825Y3711D01*
X2818Y3702D01*
X2814Y3692D01*
X2814Y3691D01*
X2844D01*
Y3722D01*
D02*
G37*
G36*
X7560Y3809D02*
X7530D01*
Y3778D01*
X7531Y3778D01*
X7541Y3783D01*
X7549Y3789D01*
X7556Y3798D01*
X7560Y3808D01*
X7560Y3809D01*
D02*
G37*
G36*
X7510Y3859D02*
X7509Y3859D01*
X7499Y3855D01*
X7490Y3848D01*
X7483Y3840D01*
X7479Y3830D01*
X7479Y3829D01*
X7510D01*
Y3859D01*
D02*
G37*
G36*
X2896Y3823D02*
X2813D01*
Y3740D01*
X2896D01*
Y3823D01*
D02*
G37*
G36*
X7510Y3809D02*
X7479D01*
X7479Y3808D01*
X7483Y3798D01*
X7490Y3789D01*
X7499Y3783D01*
X7509Y3778D01*
X7510Y3778D01*
Y3809D01*
D02*
G37*
G36*
X3592Y4125D02*
X3584Y4119D01*
X3579Y4111D01*
X3592D01*
Y4125D01*
D02*
G37*
G36*
X3612D02*
Y4111D01*
X3626D01*
X3620Y4119D01*
X3612Y4125D01*
D02*
G37*
G36*
X2011Y4163D02*
X1959D01*
Y4111D01*
X1961Y4111D01*
X1973Y4115D01*
X1984Y4120D01*
X1994Y4128D01*
X2002Y4138D01*
X2007Y4149D01*
X2011Y4161D01*
X2011Y4163D01*
D02*
G37*
G36*
X1939D02*
X1886D01*
X1887Y4161D01*
X1890Y4149D01*
X1896Y4138D01*
X1904Y4128D01*
X1914Y4120D01*
X1925Y4115D01*
X1936Y4111D01*
X1939Y4111D01*
Y4163D01*
D02*
G37*
G36*
X3207Y4194D02*
X3197Y4193D01*
X3189Y4187D01*
X3184Y4179D01*
X3182Y4169D01*
X3184Y4159D01*
X3189Y4151D01*
X3197Y4145D01*
X3207Y4143D01*
X3217Y4145D01*
X3225Y4151D01*
X3231Y4159D01*
X3233Y4169D01*
X3231Y4179D01*
X3225Y4187D01*
X3217Y4193D01*
X3207Y4194D01*
D02*
G37*
G36*
X3405Y4199D02*
X3396Y4197D01*
X3387Y4191D01*
X3382Y4183D01*
X3380Y4173D01*
X3382Y4163D01*
X3387Y4155D01*
X3396Y4150D01*
X3405Y4148D01*
X3415Y4150D01*
X3423Y4155D01*
X3429Y4163D01*
X3431Y4173D01*
X3429Y4183D01*
X3423Y4191D01*
X3415Y4197D01*
X3405Y4199D01*
D02*
G37*
G36*
X3783Y4138D02*
X3770D01*
X3775Y4130D01*
X3783Y4124D01*
Y4138D01*
D02*
G37*
G36*
X3817D02*
X3803D01*
Y4124D01*
X3811Y4130D01*
X3817Y4138D01*
D02*
G37*
G36*
X3626Y4091D02*
X3612D01*
Y4078D01*
X3620Y4083D01*
X3626Y4091D01*
D02*
G37*
G36*
X7606Y4145D02*
X7592Y4143D01*
X7579Y4138D01*
X7568Y4129D01*
X7560Y4118D01*
X7554Y4105D01*
X7553Y4091D01*
X7554Y4077D01*
X7560Y4064D01*
X7568Y4053D01*
X7579Y4045D01*
X7592Y4039D01*
X7606Y4038D01*
X7620Y4039D01*
X7633Y4045D01*
X7644Y4053D01*
X7653Y4064D01*
X7658Y4077D01*
X7660Y4091D01*
X7658Y4105D01*
X7653Y4118D01*
X7644Y4129D01*
X7633Y4138D01*
X7620Y4143D01*
X7606Y4145D01*
D02*
G37*
G36*
X8006D02*
X7992Y4143D01*
X7979Y4138D01*
X7968Y4129D01*
X7960Y4118D01*
X7954Y4105D01*
X7953Y4091D01*
X7954Y4077D01*
X7960Y4064D01*
X7968Y4053D01*
X7979Y4045D01*
X7992Y4039D01*
X8006Y4038D01*
X8020Y4039D01*
X8033Y4045D01*
X8044Y4053D01*
X8053Y4064D01*
X8058Y4077D01*
X8060Y4091D01*
X8058Y4105D01*
X8053Y4118D01*
X8044Y4129D01*
X8033Y4138D01*
X8020Y4143D01*
X8006Y4145D01*
D02*
G37*
G36*
X4934Y4048D02*
X4924Y4046D01*
X4916Y4041D01*
X4911Y4032D01*
X4909Y4023D01*
X4911Y4013D01*
X4916Y4005D01*
X4924Y3999D01*
X4934Y3997D01*
X4944Y3999D01*
X4952Y4005D01*
X4958Y4013D01*
X4960Y4023D01*
X4958Y4032D01*
X4952Y4041D01*
X4944Y4046D01*
X4934Y4048D01*
D02*
G37*
G36*
X5288D02*
X5279Y4046D01*
X5270Y4041D01*
X5265Y4032D01*
X5263Y4023D01*
X5265Y4013D01*
X5270Y4005D01*
X5279Y3999D01*
X5288Y3997D01*
X5298Y3999D01*
X5306Y4005D01*
X5312Y4013D01*
X5314Y4023D01*
X5312Y4032D01*
X5306Y4041D01*
X5298Y4046D01*
X5288Y4048D01*
D02*
G37*
G36*
X2859Y4147D02*
X2849Y4145D01*
X2839Y4141D01*
X2831Y4135D01*
X2824Y4126D01*
X2820Y4117D01*
X2819Y4106D01*
X2820Y4096D01*
X2824Y4086D01*
X2831Y4078D01*
X2839Y4071D01*
X2849Y4067D01*
X2859Y4066D01*
X2869Y4067D01*
X2879Y4071D01*
X2888Y4078D01*
X2894Y4086D01*
X2898Y4096D01*
X2899Y4106D01*
X2898Y4117D01*
X2894Y4126D01*
X2888Y4135D01*
X2879Y4141D01*
X2869Y4145D01*
X2859Y4147D01*
D02*
G37*
G36*
X3592Y4091D02*
X3579D01*
X3584Y4083D01*
X3592Y4078D01*
Y4091D01*
D02*
G37*
G36*
X3661Y4101D02*
X3651Y4099D01*
X3643Y4093D01*
X3638Y4085D01*
X3636Y4075D01*
X3638Y4065D01*
X3643Y4057D01*
X3651Y4052D01*
X3661Y4050D01*
X3671Y4052D01*
X3679Y4057D01*
X3685Y4065D01*
X3687Y4075D01*
X3685Y4085D01*
X3679Y4093D01*
X3671Y4099D01*
X3661Y4101D01*
D02*
G37*
G36*
X2559Y4147D02*
X2549Y4145D01*
X2539Y4141D01*
X2531Y4135D01*
X2524Y4126D01*
X2520Y4117D01*
X2519Y4106D01*
X2520Y4096D01*
X2524Y4086D01*
X2531Y4078D01*
X2539Y4071D01*
X2549Y4067D01*
X2559Y4066D01*
X2569Y4067D01*
X2579Y4071D01*
X2588Y4078D01*
X2594Y4086D01*
X2598Y4096D01*
X2599Y4106D01*
X2598Y4117D01*
X2594Y4126D01*
X2588Y4135D01*
X2579Y4141D01*
X2569Y4145D01*
X2559Y4147D01*
D02*
G37*
G36*
X7756Y3436D02*
X7739Y3434D01*
X7722Y3429D01*
X7706Y3421D01*
X7693Y3410D01*
X7682Y3396D01*
X7674Y3381D01*
X7668Y3364D01*
X7667Y3346D01*
X7668Y3329D01*
X7674Y3312D01*
X7682Y3297D01*
X7693Y3283D01*
X7706Y3272D01*
X7722Y3264D01*
X7739Y3259D01*
X7756Y3257D01*
X7773Y3259D01*
X7790Y3264D01*
X7805Y3272D01*
X7819Y3283D01*
X7830Y3297D01*
X7838Y3312D01*
X7843Y3329D01*
X7845Y3346D01*
X7843Y3364D01*
X7838Y3381D01*
X7830Y3396D01*
X7819Y3410D01*
X7805Y3421D01*
X7790Y3429D01*
X7773Y3434D01*
X7756Y3436D01*
D02*
G37*
G36*
X3730Y3386D02*
X3717D01*
X3722Y3378D01*
X3730Y3372D01*
Y3386D01*
D02*
G37*
G36*
X2854Y3282D02*
X2854Y3281D01*
X2844Y3277D01*
X2836Y3271D01*
X2829Y3263D01*
X2825Y3253D01*
X2825Y3253D01*
X2854D01*
Y3282D01*
D02*
G37*
G36*
X2874D02*
Y3253D01*
X2903D01*
X2903Y3253D01*
X2899Y3263D01*
X2893Y3271D01*
X2884Y3277D01*
X2875Y3281D01*
X2874Y3282D01*
D02*
G37*
G36*
X5280Y3461D02*
X5270Y3460D01*
X5260Y3456D01*
X5251Y3449D01*
X5245Y3441D01*
X5241Y3431D01*
X5240Y3421D01*
X5241Y3410D01*
X5245Y3401D01*
X5251Y3392D01*
X5260Y3386D01*
X5270Y3382D01*
X5280Y3380D01*
X5290Y3382D01*
X5300Y3386D01*
X5309Y3392D01*
X5315Y3401D01*
X5319Y3410D01*
X5320Y3421D01*
X5319Y3431D01*
X5315Y3441D01*
X5309Y3449D01*
X5300Y3456D01*
X5290Y3460D01*
X5280Y3461D01*
D02*
G37*
G36*
X5634D02*
X5624Y3460D01*
X5614Y3456D01*
X5606Y3449D01*
X5599Y3441D01*
X5595Y3431D01*
X5594Y3421D01*
X5595Y3410D01*
X5599Y3401D01*
X5606Y3392D01*
X5614Y3386D01*
X5624Y3382D01*
X5634Y3380D01*
X5645Y3382D01*
X5655Y3386D01*
X5663Y3392D01*
X5669Y3401D01*
X5673Y3410D01*
X5675Y3421D01*
X5673Y3431D01*
X5669Y3441D01*
X5663Y3449D01*
X5655Y3456D01*
X5645Y3460D01*
X5634Y3461D01*
D02*
G37*
G36*
X3764Y3386D02*
X3750D01*
Y3372D01*
X3758Y3378D01*
X3764Y3386D01*
D02*
G37*
G36*
X4921Y3461D02*
X4911Y3460D01*
X4901Y3456D01*
X4893Y3449D01*
X4886Y3441D01*
X4882Y3431D01*
X4881Y3421D01*
X4882Y3410D01*
X4886Y3401D01*
X4893Y3392D01*
X4901Y3386D01*
X4911Y3382D01*
X4921Y3380D01*
X4932Y3382D01*
X4941Y3386D01*
X4950Y3392D01*
X4956Y3401D01*
X4960Y3410D01*
X4962Y3421D01*
X4960Y3431D01*
X4956Y3441D01*
X4950Y3449D01*
X4941Y3456D01*
X4932Y3460D01*
X4921Y3461D01*
D02*
G37*
G36*
X4606Y3308D02*
X4596Y3307D01*
X4586Y3303D01*
X4578Y3296D01*
X4571Y3288D01*
X4567Y3278D01*
X4566Y3268D01*
X4567Y3257D01*
X4571Y3248D01*
X4578Y3239D01*
X4586Y3233D01*
X4596Y3229D01*
X4606Y3227D01*
X4617Y3229D01*
X4626Y3233D01*
X4635Y3239D01*
X4641Y3248D01*
X4645Y3257D01*
X4647Y3268D01*
X4645Y3278D01*
X4641Y3288D01*
X4635Y3296D01*
X4626Y3303D01*
X4617Y3307D01*
X4606Y3308D01*
D02*
G37*
G36*
X2308Y3129D02*
X2300Y3124D01*
X2295Y3116D01*
X2308D01*
Y3129D01*
D02*
G37*
G36*
X2328D02*
Y3116D01*
X2342D01*
X2336Y3124D01*
X2328Y3129D01*
D02*
G37*
G36*
X7606Y3200D02*
X7592Y3198D01*
X7579Y3193D01*
X7568Y3184D01*
X7560Y3173D01*
X7554Y3160D01*
X7553Y3146D01*
X7554Y3133D01*
X7560Y3120D01*
X7568Y3108D01*
X7579Y3100D01*
X7592Y3095D01*
X7606Y3093D01*
X7620Y3095D01*
X7633Y3100D01*
X7644Y3108D01*
X7653Y3120D01*
X7658Y3133D01*
X7660Y3146D01*
X7658Y3160D01*
X7653Y3173D01*
X7644Y3184D01*
X7633Y3193D01*
X7620Y3198D01*
X7606Y3200D01*
D02*
G37*
G36*
X8006D02*
X7992Y3198D01*
X7979Y3193D01*
X7968Y3184D01*
X7960Y3173D01*
X7954Y3160D01*
X7953Y3146D01*
X7954Y3133D01*
X7960Y3120D01*
X7968Y3108D01*
X7979Y3100D01*
X7992Y3095D01*
X8006Y3093D01*
X8020Y3095D01*
X8033Y3100D01*
X8044Y3108D01*
X8053Y3120D01*
X8058Y3133D01*
X8060Y3146D01*
X8058Y3160D01*
X8053Y3173D01*
X8044Y3184D01*
X8033Y3193D01*
X8020Y3198D01*
X8006Y3200D01*
D02*
G37*
G36*
X2854Y3233D02*
X2825D01*
X2825Y3232D01*
X2829Y3222D01*
X2836Y3214D01*
X2844Y3208D01*
X2854Y3204D01*
X2854Y3203D01*
Y3233D01*
D02*
G37*
G36*
X2903D02*
X2874D01*
Y3203D01*
X2875Y3204D01*
X2884Y3208D01*
X2893Y3214D01*
X2899Y3222D01*
X2903Y3232D01*
X2903Y3233D01*
D02*
G37*
G36*
X6566Y3279D02*
X6555Y3277D01*
X6546Y3273D01*
X6537Y3267D01*
X6531Y3258D01*
X6527Y3249D01*
X6525Y3238D01*
X6527Y3228D01*
X6531Y3218D01*
X6537Y3210D01*
X6546Y3203D01*
X6555Y3199D01*
X6566Y3198D01*
X6576Y3199D01*
X6586Y3203D01*
X6594Y3210D01*
X6601Y3218D01*
X6605Y3228D01*
X6606Y3238D01*
X6605Y3249D01*
X6601Y3258D01*
X6594Y3267D01*
X6586Y3273D01*
X6576Y3277D01*
X6566Y3279D01*
D02*
G37*
G36*
X6358Y3279D02*
X6348Y3277D01*
X6338Y3273D01*
X6330Y3267D01*
X6323Y3258D01*
X6319Y3249D01*
X6318Y3238D01*
X6319Y3228D01*
X6323Y3218D01*
X6330Y3210D01*
X6338Y3203D01*
X6348Y3199D01*
X6358Y3198D01*
X6369Y3199D01*
X6378Y3203D01*
X6387Y3210D01*
X6393Y3218D01*
X6397Y3228D01*
X6399Y3238D01*
X6397Y3249D01*
X6393Y3258D01*
X6387Y3267D01*
X6378Y3273D01*
X6369Y3277D01*
X6358Y3279D01*
D02*
G37*
G36*
X5630Y3633D02*
X5619Y3631D01*
X5610Y3627D01*
X5601Y3621D01*
X5595Y3613D01*
X5591Y3603D01*
X5590Y3593D01*
X5591Y3582D01*
X5595Y3572D01*
X5601Y3564D01*
X5610Y3558D01*
X5619Y3554D01*
X5630Y3552D01*
X5640Y3554D01*
X5650Y3558D01*
X5658Y3564D01*
X5665Y3572D01*
X5669Y3582D01*
X5670Y3593D01*
X5669Y3603D01*
X5665Y3613D01*
X5658Y3621D01*
X5650Y3627D01*
X5640Y3631D01*
X5630Y3633D01*
D02*
G37*
G36*
X5984Y3633D02*
X5974Y3631D01*
X5964Y3627D01*
X5956Y3621D01*
X5949Y3613D01*
X5945Y3603D01*
X5944Y3593D01*
X5945Y3582D01*
X5949Y3572D01*
X5956Y3564D01*
X5964Y3558D01*
X5974Y3554D01*
X5984Y3552D01*
X5995Y3554D01*
X6004Y3558D01*
X6013Y3564D01*
X6019Y3572D01*
X6023Y3582D01*
X6025Y3593D01*
X6023Y3603D01*
X6019Y3613D01*
X6013Y3621D01*
X6004Y3627D01*
X5995Y3631D01*
X5984Y3633D01*
D02*
G37*
G36*
X4921Y3633D02*
X4911Y3631D01*
X4901Y3627D01*
X4893Y3621D01*
X4886Y3613D01*
X4882Y3603D01*
X4881Y3593D01*
X4882Y3582D01*
X4886Y3572D01*
X4893Y3564D01*
X4901Y3558D01*
X4911Y3554D01*
X4921Y3552D01*
X4932Y3554D01*
X4941Y3558D01*
X4950Y3564D01*
X4956Y3572D01*
X4960Y3582D01*
X4962Y3593D01*
X4960Y3603D01*
X4956Y3613D01*
X4950Y3621D01*
X4941Y3627D01*
X4932Y3631D01*
X4921Y3633D01*
D02*
G37*
G36*
X5276Y3633D02*
X5265Y3631D01*
X5255Y3627D01*
X5247Y3621D01*
X5241Y3613D01*
X5237Y3603D01*
X5235Y3593D01*
X5237Y3582D01*
X5241Y3572D01*
X5247Y3564D01*
X5255Y3558D01*
X5265Y3554D01*
X5276Y3552D01*
X5286Y3554D01*
X5296Y3558D01*
X5304Y3564D01*
X5311Y3572D01*
X5315Y3582D01*
X5316Y3593D01*
X5315Y3603D01*
X5311Y3613D01*
X5304Y3621D01*
X5296Y3627D01*
X5286Y3631D01*
X5276Y3633D01*
D02*
G37*
G36*
X2844Y3671D02*
X2814D01*
X2814Y3670D01*
X2818Y3660D01*
X2825Y3652D01*
X2833Y3645D01*
X2843Y3641D01*
X2844Y3641D01*
Y3671D01*
D02*
G37*
G36*
X6850Y3770D02*
X6838Y3769D01*
X6825Y3764D01*
X6815Y3756D01*
X6807Y3745D01*
X6802Y3733D01*
X6801Y3720D01*
X6802Y3708D01*
X6807Y3696D01*
X6815Y3685D01*
X6825Y3677D01*
X6838Y3672D01*
X6850Y3671D01*
X6863Y3672D01*
X6875Y3677D01*
X6886Y3685D01*
X6894Y3696D01*
X6898Y3708D01*
X6900Y3720D01*
X6898Y3733D01*
X6894Y3745D01*
X6886Y3756D01*
X6875Y3764D01*
X6863Y3769D01*
X6850Y3770D01*
D02*
G37*
G36*
X2638Y3618D02*
X2628Y3616D01*
X2620Y3611D01*
X2614Y3602D01*
X2612Y3593D01*
X2614Y3583D01*
X2620Y3574D01*
X2628Y3569D01*
X2638Y3567D01*
X2648Y3569D01*
X2656Y3574D01*
X2661Y3583D01*
X2663Y3593D01*
X2661Y3602D01*
X2656Y3611D01*
X2648Y3616D01*
X2638Y3618D01*
D02*
G37*
G36*
X2895Y3671D02*
X2864D01*
Y3641D01*
X2865Y3641D01*
X2875Y3645D01*
X2884Y3652D01*
X2891Y3660D01*
X2895Y3670D01*
X2895Y3671D01*
D02*
G37*
G36*
X8006Y3600D02*
X7992Y3598D01*
X7979Y3593D01*
X7968Y3584D01*
X7960Y3573D01*
X7954Y3560D01*
X7953Y3546D01*
X7954Y3533D01*
X7960Y3520D01*
X7968Y3508D01*
X7979Y3500D01*
X7992Y3495D01*
X8006Y3493D01*
X8020Y3495D01*
X8033Y3500D01*
X8044Y3508D01*
X8053Y3520D01*
X8058Y3533D01*
X8060Y3546D01*
X8058Y3560D01*
X8053Y3573D01*
X8044Y3584D01*
X8033Y3593D01*
X8020Y3598D01*
X8006Y3600D01*
D02*
G37*
G36*
X6874Y3411D02*
X6860D01*
Y3397D01*
X6868Y3403D01*
X6874Y3411D01*
D02*
G37*
G36*
X3730Y3419D02*
X3722Y3414D01*
X3717Y3406D01*
X3730D01*
Y3419D01*
D02*
G37*
G36*
X5989Y3466D02*
X5978Y3464D01*
X5968Y3460D01*
X5960Y3454D01*
X5954Y3445D01*
X5950Y3436D01*
X5948Y3425D01*
X5950Y3415D01*
X5954Y3405D01*
X5960Y3397D01*
X5968Y3390D01*
X5978Y3386D01*
X5989Y3385D01*
X5999Y3386D01*
X6009Y3390D01*
X6017Y3397D01*
X6024Y3405D01*
X6028Y3415D01*
X6029Y3425D01*
X6028Y3436D01*
X6024Y3445D01*
X6017Y3454D01*
X6009Y3460D01*
X5999Y3464D01*
X5989Y3466D01*
D02*
G37*
G36*
X6840Y3411D02*
X6827D01*
X6832Y3403D01*
X6840Y3397D01*
Y3411D01*
D02*
G37*
G36*
X6860Y3444D02*
Y3431D01*
X6874D01*
X6868Y3439D01*
X6860Y3444D01*
D02*
G37*
G36*
X7606Y3600D02*
X7592Y3598D01*
X7579Y3593D01*
X7568Y3584D01*
X7560Y3573D01*
X7554Y3560D01*
X7553Y3546D01*
X7554Y3533D01*
X7560Y3520D01*
X7568Y3508D01*
X7579Y3500D01*
X7592Y3495D01*
X7606Y3493D01*
X7620Y3495D01*
X7633Y3500D01*
X7644Y3508D01*
X7653Y3520D01*
X7658Y3533D01*
X7660Y3546D01*
X7658Y3560D01*
X7653Y3573D01*
X7644Y3584D01*
X7633Y3593D01*
X7620Y3598D01*
X7606Y3600D01*
D02*
G37*
G36*
X3750Y3419D02*
Y3406D01*
X3764D01*
X3758Y3414D01*
X3750Y3419D01*
D02*
G37*
G36*
X6840Y3444D02*
X6832Y3439D01*
X6827Y3431D01*
X6840D01*
Y3444D01*
D02*
G37*
G36*
X3809Y4307D02*
X3795D01*
X3801Y4299D01*
X3809Y4293D01*
Y4307D01*
D02*
G37*
G36*
X3842D02*
X3829D01*
Y4293D01*
X3837Y4299D01*
X3842Y4307D01*
D02*
G37*
G36*
X4055Y4337D02*
X4045Y4335D01*
X4037Y4329D01*
X4032Y4321D01*
X4030Y4311D01*
X4032Y4301D01*
X4037Y4293D01*
X4045Y4287D01*
X4055Y4286D01*
X4065Y4287D01*
X4073Y4293D01*
X4079Y4301D01*
X4081Y4311D01*
X4079Y4321D01*
X4073Y4329D01*
X4065Y4335D01*
X4055Y4337D01*
D02*
G37*
G36*
X3661Y4342D02*
X3651Y4340D01*
X3643Y4335D01*
X3638Y4326D01*
X3636Y4317D01*
X3638Y4307D01*
X3643Y4299D01*
X3651Y4293D01*
X3661Y4291D01*
X3671Y4293D01*
X3679Y4299D01*
X3685Y4307D01*
X3687Y4317D01*
X3685Y4326D01*
X3679Y4335D01*
X3671Y4340D01*
X3661Y4342D01*
D02*
G37*
G36*
X6075Y4346D02*
X6065Y4344D01*
X6057Y4339D01*
X6051Y4331D01*
X6049Y4321D01*
X6051Y4311D01*
X6057Y4303D01*
X6065Y4297D01*
X6075Y4295D01*
X6085Y4297D01*
X6093Y4303D01*
X6098Y4311D01*
X6100Y4321D01*
X6098Y4331D01*
X6093Y4339D01*
X6085Y4344D01*
X6075Y4346D01*
D02*
G37*
G36*
X5720Y4348D02*
X5711Y4346D01*
X5702Y4340D01*
X5697Y4332D01*
X5695Y4322D01*
X5697Y4312D01*
X5702Y4304D01*
X5711Y4299D01*
X5720Y4297D01*
X5730Y4299D01*
X5738Y4304D01*
X5744Y4312D01*
X5746Y4322D01*
X5744Y4332D01*
X5738Y4340D01*
X5730Y4346D01*
X5720Y4348D01*
D02*
G37*
G36*
X5039Y4346D02*
X5030Y4344D01*
X5021Y4339D01*
X5016Y4331D01*
X5014Y4321D01*
X5016Y4311D01*
X5021Y4303D01*
X5030Y4297D01*
X5039Y4295D01*
X5049Y4297D01*
X5057Y4303D01*
X5063Y4311D01*
X5065Y4321D01*
X5063Y4331D01*
X5057Y4339D01*
X5049Y4344D01*
X5039Y4346D01*
D02*
G37*
G36*
X5366D02*
X5356Y4344D01*
X5348Y4339D01*
X5343Y4331D01*
X5341Y4321D01*
X5343Y4311D01*
X5348Y4303D01*
X5356Y4297D01*
X5366Y4295D01*
X5376Y4297D01*
X5384Y4303D01*
X5390Y4311D01*
X5392Y4321D01*
X5390Y4331D01*
X5384Y4339D01*
X5376Y4344D01*
X5366Y4346D01*
D02*
G37*
G36*
X2294Y4361D02*
X2218D01*
Y4285D01*
X2294D01*
Y4361D01*
D02*
G37*
G36*
X3242Y4331D02*
X3232Y4329D01*
X3224Y4323D01*
X3219Y4315D01*
X3217Y4305D01*
X3219Y4295D01*
X3224Y4287D01*
X3232Y4282D01*
X3242Y4280D01*
X3252Y4282D01*
X3260Y4287D01*
X3266Y4295D01*
X3268Y4305D01*
X3266Y4315D01*
X3260Y4323D01*
X3252Y4329D01*
X3242Y4331D01*
D02*
G37*
G36*
X3524D02*
X3514Y4329D01*
X3506Y4323D01*
X3500Y4315D01*
X3498Y4305D01*
X3500Y4295D01*
X3506Y4287D01*
X3514Y4282D01*
X3524Y4280D01*
X3533Y4282D01*
X3542Y4287D01*
X3547Y4295D01*
X3549Y4305D01*
X3547Y4315D01*
X3542Y4323D01*
X3533Y4329D01*
X3524Y4331D01*
D02*
G37*
G36*
X4282Y4275D02*
Y4262D01*
X4295D01*
X4290Y4270D01*
X4282Y4275D01*
D02*
G37*
G36*
X3937Y4317D02*
X3927Y4315D01*
X3919Y4309D01*
X3913Y4301D01*
X3912Y4291D01*
X3913Y4282D01*
X3919Y4273D01*
X3927Y4268D01*
X3937Y4266D01*
X3947Y4268D01*
X3955Y4273D01*
X3961Y4282D01*
X3962Y4291D01*
X3961Y4301D01*
X3955Y4309D01*
X3947Y4315D01*
X3937Y4317D01*
D02*
G37*
G36*
X6693Y4296D02*
X6679D01*
X6685Y4288D01*
X6693Y4283D01*
Y4296D01*
D02*
G37*
G36*
X6726D02*
X6713D01*
Y4283D01*
X6721Y4288D01*
X6726Y4296D01*
D02*
G37*
G36*
X6299D02*
X6286D01*
X6291Y4288D01*
X6299Y4283D01*
Y4296D01*
D02*
G37*
G36*
X6332D02*
X6319D01*
Y4283D01*
X6327Y4288D01*
X6332Y4296D01*
D02*
G37*
G36*
X2884Y4354D02*
X2876Y4349D01*
X2870Y4341D01*
X2884D01*
Y4354D01*
D02*
G37*
G36*
X2904D02*
Y4341D01*
X2917D01*
X2912Y4349D01*
X2904Y4354D01*
D02*
G37*
G36*
X3809Y4340D02*
X3801Y4335D01*
X3795Y4327D01*
X3809D01*
Y4340D01*
D02*
G37*
G36*
X3829D02*
Y4327D01*
X3842D01*
X3837Y4335D01*
X3829Y4340D01*
D02*
G37*
G36*
X2011Y4462D02*
X1959D01*
Y4410D01*
X1961Y4410D01*
X1973Y4414D01*
X1984Y4420D01*
X1994Y4428D01*
X2002Y4437D01*
X2007Y4448D01*
X2011Y4460D01*
X2011Y4462D01*
D02*
G37*
G36*
X3130Y4474D02*
X3120Y4472D01*
X3112Y4467D01*
X3106Y4459D01*
X3104Y4449D01*
X3106Y4439D01*
X3112Y4431D01*
X3120Y4425D01*
X3130Y4423D01*
X3140Y4425D01*
X3148Y4431D01*
X3153Y4439D01*
X3155Y4449D01*
X3153Y4459D01*
X3148Y4467D01*
X3140Y4472D01*
X3130Y4474D01*
D02*
G37*
G36*
X3445Y4455D02*
X3435Y4453D01*
X3427Y4447D01*
X3421Y4439D01*
X3419Y4429D01*
X3421Y4419D01*
X3427Y4411D01*
X3435Y4406D01*
X3445Y4404D01*
X3455Y4406D01*
X3463Y4411D01*
X3468Y4419D01*
X3470Y4429D01*
X3468Y4439D01*
X3463Y4447D01*
X3455Y4453D01*
X3445Y4455D01*
D02*
G37*
G36*
X1939Y4462D02*
X1886D01*
X1887Y4460D01*
X1890Y4448D01*
X1896Y4437D01*
X1904Y4428D01*
X1914Y4420D01*
X1925Y4414D01*
X1936Y4410D01*
X1939Y4410D01*
Y4462D01*
D02*
G37*
G36*
X5640Y4376D02*
X5630Y4374D01*
X5622Y4368D01*
X5616Y4360D01*
X5614Y4350D01*
X5616Y4341D01*
X5622Y4332D01*
X5630Y4327D01*
X5640Y4325D01*
X5650Y4327D01*
X5658Y4332D01*
X5663Y4341D01*
X5665Y4350D01*
X5663Y4360D01*
X5658Y4368D01*
X5650Y4374D01*
X5640Y4376D01*
D02*
G37*
G36*
X6299Y4329D02*
X6291Y4324D01*
X6286Y4316D01*
X6299D01*
Y4329D01*
D02*
G37*
G36*
X6319D02*
Y4316D01*
X6332D01*
X6327Y4324D01*
X6319Y4329D01*
D02*
G37*
G36*
X7746Y4380D02*
X7739Y4379D01*
X7722Y4374D01*
X7706Y4365D01*
X7693Y4354D01*
X7682Y4341D01*
X7674Y4325D01*
X7668Y4309D01*
X7668Y4301D01*
X7746D01*
Y4380D01*
D02*
G37*
G36*
X7766D02*
Y4301D01*
X7844D01*
X7843Y4309D01*
X7838Y4325D01*
X7830Y4341D01*
X7819Y4354D01*
X7805Y4365D01*
X7790Y4374D01*
X7773Y4379D01*
X7766Y4380D01*
D02*
G37*
G36*
X4941Y4376D02*
X4931Y4374D01*
X4923Y4368D01*
X4917Y4360D01*
X4915Y4350D01*
X4917Y4341D01*
X4923Y4332D01*
X4931Y4327D01*
X4941Y4325D01*
X4951Y4327D01*
X4959Y4332D01*
X4964Y4341D01*
X4966Y4350D01*
X4964Y4360D01*
X4959Y4368D01*
X4951Y4374D01*
X4941Y4376D01*
D02*
G37*
G36*
X5285D02*
X5276Y4374D01*
X5267Y4368D01*
X5262Y4360D01*
X5260Y4350D01*
X5262Y4341D01*
X5267Y4332D01*
X5276Y4327D01*
X5285Y4325D01*
X5295Y4327D01*
X5303Y4332D01*
X5309Y4341D01*
X5311Y4350D01*
X5309Y4360D01*
X5303Y4368D01*
X5295Y4374D01*
X5285Y4376D01*
D02*
G37*
G36*
X6693Y4329D02*
X6685Y4324D01*
X6679Y4316D01*
X6693D01*
Y4329D01*
D02*
G37*
G36*
X6713D02*
Y4316D01*
X6726D01*
X6721Y4324D01*
X6713Y4329D01*
D02*
G37*
G36*
X6381Y4197D02*
Y4183D01*
X6394D01*
X6389Y4191D01*
X6381Y4197D01*
D02*
G37*
G36*
X3374Y4250D02*
X3364Y4248D01*
X3356Y4242D01*
X3350Y4234D01*
X3348Y4224D01*
X3350Y4215D01*
X3356Y4206D01*
X3364Y4201D01*
X3374Y4199D01*
X3384Y4201D01*
X3392Y4206D01*
X3397Y4215D01*
X3399Y4224D01*
X3397Y4234D01*
X3392Y4242D01*
X3384Y4248D01*
X3374Y4250D01*
D02*
G37*
G36*
X1959Y4236D02*
Y4183D01*
X2011D01*
X2011Y4186D01*
X2007Y4198D01*
X2002Y4208D01*
X1994Y4218D01*
X1984Y4226D01*
X1973Y4232D01*
X1961Y4235D01*
X1959Y4236D01*
D02*
G37*
G36*
X6361Y4197D02*
X6353Y4191D01*
X6347Y4183D01*
X6361D01*
Y4197D01*
D02*
G37*
G36*
X7746Y4281D02*
X7668D01*
X7668Y4274D01*
X7674Y4257D01*
X7682Y4242D01*
X7693Y4228D01*
X7706Y4217D01*
X7722Y4209D01*
X7739Y4204D01*
X7746Y4203D01*
Y4281D01*
D02*
G37*
G36*
X7844D02*
X7766D01*
Y4203D01*
X7773Y4204D01*
X7790Y4209D01*
X7805Y4217D01*
X7819Y4228D01*
X7830Y4242D01*
X7838Y4257D01*
X7843Y4274D01*
X7844Y4281D01*
D02*
G37*
G36*
X3041Y4215D02*
X3028D01*
X3033Y4206D01*
X3041Y4201D01*
Y4215D01*
D02*
G37*
G36*
X3075D02*
X3061D01*
Y4201D01*
X3069Y4206D01*
X3075Y4215D01*
D02*
G37*
G36*
X1939Y4236D02*
X1936Y4235D01*
X1925Y4232D01*
X1914Y4226D01*
X1904Y4218D01*
X1896Y4208D01*
X1890Y4198D01*
X1887Y4186D01*
X1886Y4183D01*
X1939D01*
Y4236D01*
D02*
G37*
G36*
X6850Y4251D02*
X6838Y4249D01*
X6825Y4244D01*
X6815Y4236D01*
X6807Y4226D01*
X6802Y4214D01*
X6801Y4201D01*
X6802Y4188D01*
X6807Y4176D01*
X6815Y4166D01*
X6825Y4158D01*
X6838Y4153D01*
X6850Y4151D01*
X6863Y4153D01*
X6875Y4158D01*
X6886Y4166D01*
X6894Y4176D01*
X6898Y4188D01*
X6900Y4201D01*
X6898Y4214D01*
X6894Y4226D01*
X6886Y4236D01*
X6875Y4244D01*
X6863Y4249D01*
X6850Y4251D01*
D02*
G37*
G36*
X7323D02*
X7310Y4249D01*
X7298Y4244D01*
X7288Y4236D01*
X7280Y4226D01*
X7275Y4214D01*
X7273Y4201D01*
X7275Y4188D01*
X7280Y4176D01*
X7288Y4166D01*
X7298Y4158D01*
X7310Y4153D01*
X7323Y4151D01*
X7336Y4153D01*
X7348Y4158D01*
X7358Y4166D01*
X7366Y4176D01*
X7371Y4188D01*
X7373Y4201D01*
X7371Y4214D01*
X7366Y4226D01*
X7358Y4236D01*
X7348Y4244D01*
X7336Y4249D01*
X7323Y4251D01*
D02*
G37*
G36*
X6361Y4163D02*
X6347D01*
X6353Y4155D01*
X6361Y4150D01*
Y4163D01*
D02*
G37*
G36*
X6394D02*
X6381D01*
Y4150D01*
X6389Y4155D01*
X6394Y4163D01*
D02*
G37*
G36*
X3248Y4189D02*
X3234D01*
X3240Y4181D01*
X3248Y4175D01*
Y4189D01*
D02*
G37*
G36*
X3281D02*
X3268D01*
Y4175D01*
X3276Y4181D01*
X3281Y4189D01*
D02*
G37*
G36*
X3783Y4171D02*
X3775Y4166D01*
X3770Y4158D01*
X3783D01*
Y4171D01*
D02*
G37*
G36*
X3803D02*
Y4158D01*
X3817D01*
X3811Y4166D01*
X3803Y4171D01*
D02*
G37*
G36*
X6575Y4287D02*
X6565Y4285D01*
X6557Y4280D01*
X6551Y4272D01*
X6550Y4265D01*
X6545Y4262D01*
Y4238D01*
Y4215D01*
X6553Y4220D01*
X6559Y4228D01*
X6560Y4235D01*
X6565Y4238D01*
X6566Y4238D01*
X6575Y4236D01*
X6585Y4238D01*
X6593Y4244D01*
X6598Y4252D01*
X6600Y4262D01*
X6598Y4272D01*
X6593Y4280D01*
X6585Y4285D01*
X6575Y4287D01*
D02*
G37*
G36*
X6358Y4291D02*
X6349Y4289D01*
X6340Y4284D01*
X6335Y4276D01*
X6333Y4266D01*
X6335Y4256D01*
X6340Y4248D01*
X6349Y4242D01*
X6358Y4240D01*
X6368Y4242D01*
X6376Y4248D01*
X6382Y4256D01*
X6384Y4266D01*
X6382Y4276D01*
X6376Y4284D01*
X6368Y4289D01*
X6358Y4291D01*
D02*
G37*
G36*
X3041Y4248D02*
X3033Y4243D01*
X3028Y4235D01*
X3041D01*
Y4248D01*
D02*
G37*
G36*
X3061D02*
Y4235D01*
X3075D01*
X3069Y4243D01*
X3061Y4248D01*
D02*
G37*
G36*
X2917Y4321D02*
X2870D01*
X2876Y4313D01*
X2881Y4309D01*
Y4303D01*
X2876Y4300D01*
X2870Y4291D01*
X2868Y4281D01*
X2870Y4272D01*
X2876Y4263D01*
X2884Y4258D01*
X2894Y4256D01*
X2903Y4258D01*
X2912Y4263D01*
X2917Y4272D01*
X2919Y4281D01*
X2917Y4291D01*
X2912Y4300D01*
X2906Y4303D01*
Y4309D01*
X2912Y4313D01*
X2917Y4321D01*
D02*
G37*
G36*
X4262Y4275D02*
X4254Y4270D01*
X4248Y4262D01*
X4262D01*
Y4275D01*
D02*
G37*
G36*
X6525Y4262D02*
X6517Y4256D01*
X6512Y4248D01*
X6525D01*
Y4262D01*
D02*
G37*
G36*
X7136Y4351D02*
X7037D01*
Y4252D01*
X7136D01*
Y4351D01*
D02*
G37*
G36*
X4295Y4242D02*
X4282D01*
Y4229D01*
X4290Y4234D01*
X4295Y4242D01*
D02*
G37*
G36*
X6525Y4228D02*
X6512D01*
X6517Y4220D01*
X6525Y4215D01*
Y4228D01*
D02*
G37*
G36*
X4934Y4271D02*
X4924Y4269D01*
X4916Y4263D01*
X4911Y4255D01*
X4909Y4245D01*
X4911Y4235D01*
X4916Y4227D01*
X4924Y4222D01*
X4934Y4220D01*
X4944Y4222D01*
X4952Y4227D01*
X4958Y4235D01*
X4960Y4245D01*
X4958Y4255D01*
X4952Y4263D01*
X4944Y4269D01*
X4934Y4271D01*
D02*
G37*
G36*
X3248Y4222D02*
X3240Y4217D01*
X3234Y4209D01*
X3248D01*
Y4222D01*
D02*
G37*
G36*
X3268D02*
Y4209D01*
X3281D01*
X3276Y4217D01*
X3268Y4222D01*
D02*
G37*
G36*
X5643Y4271D02*
X5633Y4269D01*
X5625Y4263D01*
X5619Y4255D01*
X5617Y4245D01*
X5619Y4235D01*
X5625Y4227D01*
X5633Y4222D01*
X5643Y4220D01*
X5653Y4222D01*
X5661Y4227D01*
X5666Y4235D01*
X5668Y4245D01*
X5666Y4255D01*
X5661Y4263D01*
X5653Y4269D01*
X5643Y4271D01*
D02*
G37*
G36*
X4262Y4242D02*
X4248D01*
X4254Y4234D01*
X4262Y4229D01*
Y4242D01*
D02*
G37*
G36*
X5288Y4271D02*
X5279Y4269D01*
X5270Y4263D01*
X5265Y4255D01*
X5263Y4245D01*
X5265Y4235D01*
X5270Y4227D01*
X5279Y4222D01*
X5288Y4220D01*
X5298Y4222D01*
X5306Y4227D01*
X5312Y4235D01*
X5314Y4245D01*
X5312Y4255D01*
X5306Y4263D01*
X5298Y4269D01*
X5288Y4271D01*
D02*
G37*
G36*
X4449Y4271D02*
X4439Y4269D01*
X4431Y4263D01*
X4425Y4255D01*
X4423Y4245D01*
X4425Y4235D01*
X4431Y4227D01*
X4439Y4222D01*
X4449Y4220D01*
X4459Y4222D01*
X4467Y4227D01*
X4472Y4235D01*
X4474Y4245D01*
X4472Y4255D01*
X4467Y4263D01*
X4459Y4269D01*
X4449Y4271D01*
D02*
G37*
G36*
X2342Y3096D02*
X2328D01*
Y3082D01*
X2336Y3088D01*
X2342Y3096D01*
D02*
G37*
G36*
X3813Y2563D02*
X3799D01*
Y2549D01*
X3807Y2555D01*
X3813Y2563D01*
D02*
G37*
G36*
X3194Y2614D02*
X3184Y2612D01*
X3176Y2607D01*
X3170Y2598D01*
X3168Y2589D01*
X3170Y2579D01*
X3176Y2571D01*
X3184Y2565D01*
X3194Y2563D01*
X3203Y2565D01*
X3212Y2571D01*
X3217Y2579D01*
X3219Y2589D01*
X3217Y2598D01*
X3212Y2607D01*
X3203Y2612D01*
X3194Y2614D01*
D02*
G37*
G36*
X3622Y2555D02*
Y2541D01*
X3636D01*
X3630Y2550D01*
X3622Y2555D01*
D02*
G37*
G36*
X3779Y2563D02*
X3766D01*
X3771Y2555D01*
X3779Y2549D01*
Y2563D01*
D02*
G37*
G36*
X3799Y2596D02*
Y2583D01*
X3813D01*
X3807Y2591D01*
X3799Y2596D01*
D02*
G37*
G36*
X6360Y2598D02*
X6347D01*
X6352Y2590D01*
X6360Y2585D01*
Y2598D01*
D02*
G37*
G36*
X3374Y2675D02*
X3364Y2673D01*
X3356Y2668D01*
X3350Y2659D01*
X3349Y2650D01*
X3350Y2640D01*
X3356Y2632D01*
X3364Y2626D01*
X3364Y2624D01*
X3365Y2621D01*
X3358Y2616D01*
X3352Y2608D01*
X3350Y2598D01*
X3352Y2589D01*
X3358Y2580D01*
X3366Y2575D01*
X3376Y2573D01*
X3386Y2575D01*
X3394Y2580D01*
X3400Y2589D01*
X3401Y2598D01*
X3400Y2608D01*
X3394Y2616D01*
X3386Y2622D01*
X3386Y2624D01*
X3385Y2627D01*
X3392Y2632D01*
X3398Y2640D01*
X3400Y2650D01*
X3398Y2659D01*
X3392Y2668D01*
X3384Y2673D01*
X3374Y2675D01*
D02*
G37*
G36*
X3779Y2596D02*
X3771Y2591D01*
X3766Y2583D01*
X3779D01*
Y2596D01*
D02*
G37*
G36*
X3602Y2555D02*
X3594Y2550D01*
X3589Y2541D01*
X3602D01*
Y2555D01*
D02*
G37*
G36*
X3636Y2521D02*
X3622D01*
Y2508D01*
X3630Y2513D01*
X3636Y2521D01*
D02*
G37*
G36*
X7746Y2588D02*
X7668D01*
X7668Y2581D01*
X7674Y2564D01*
X7682Y2549D01*
X7693Y2535D01*
X7706Y2524D01*
X7722Y2516D01*
X7739Y2511D01*
X7746Y2510D01*
Y2588D01*
D02*
G37*
G36*
X2863Y2572D02*
X2853Y2570D01*
X2843Y2566D01*
X2835Y2560D01*
X2829Y2552D01*
X2824Y2542D01*
X2823Y2531D01*
X2824Y2521D01*
X2829Y2511D01*
X2835Y2503D01*
X2843Y2497D01*
X2853Y2493D01*
X2863Y2491D01*
X2874Y2493D01*
X2884Y2497D01*
X2892Y2503D01*
X2898Y2511D01*
X2902Y2521D01*
X2904Y2531D01*
X2902Y2542D01*
X2898Y2552D01*
X2892Y2560D01*
X2884Y2566D01*
X2874Y2570D01*
X2863Y2572D01*
D02*
G37*
G36*
X3602Y2521D02*
X3589D01*
X3594Y2513D01*
X3602Y2508D01*
Y2521D01*
D02*
G37*
G36*
X1939Y2588D02*
X1886D01*
X1887Y2586D01*
X1890Y2574D01*
X1896Y2563D01*
X1904Y2554D01*
X1914Y2546D01*
X1925Y2540D01*
X1936Y2536D01*
X1939Y2536D01*
Y2588D01*
D02*
G37*
G36*
X2011D02*
X1959D01*
Y2536D01*
X1961Y2536D01*
X1973Y2540D01*
X1984Y2546D01*
X1994Y2554D01*
X2002Y2563D01*
X2007Y2574D01*
X2011Y2586D01*
X2011Y2588D01*
D02*
G37*
G36*
X7844D02*
X7766D01*
Y2510D01*
X7773Y2511D01*
X7790Y2516D01*
X7805Y2524D01*
X7819Y2535D01*
X7830Y2549D01*
X7838Y2564D01*
X7843Y2581D01*
X7844Y2588D01*
D02*
G37*
G36*
X3445Y2575D02*
X3435Y2573D01*
X3427Y2567D01*
X3421Y2559D01*
X3419Y2549D01*
X3421Y2539D01*
X3427Y2531D01*
X3435Y2526D01*
X3445Y2524D01*
X3455Y2526D01*
X3463Y2531D01*
X3468Y2539D01*
X3470Y2549D01*
X3468Y2559D01*
X3463Y2567D01*
X3455Y2573D01*
X3445Y2575D01*
D02*
G37*
G36*
X3248Y2647D02*
X3240Y2642D01*
X3234Y2634D01*
X3248D01*
Y2647D01*
D02*
G37*
G36*
X3268D02*
Y2634D01*
X3281D01*
X3276Y2642D01*
X3268Y2647D01*
D02*
G37*
G36*
X6360Y2632D02*
X6352Y2626D01*
X6347Y2618D01*
X6360D01*
Y2632D01*
D02*
G37*
G36*
X6380D02*
Y2618D01*
X6394D01*
X6388Y2626D01*
X6380Y2632D01*
D02*
G37*
G36*
X5282Y2696D02*
X5273Y2694D01*
X5264Y2688D01*
X5259Y2680D01*
X5257Y2670D01*
X5259Y2661D01*
X5264Y2652D01*
X5273Y2647D01*
X5282Y2645D01*
X5292Y2647D01*
X5301Y2652D01*
X5306Y2661D01*
X5308Y2670D01*
X5306Y2680D01*
X5301Y2688D01*
X5292Y2694D01*
X5282Y2696D01*
D02*
G37*
G36*
X5637Y2696D02*
X5627Y2694D01*
X5619Y2688D01*
X5613Y2680D01*
X5611Y2670D01*
X5613Y2661D01*
X5619Y2652D01*
X5627Y2647D01*
X5637Y2645D01*
X5646Y2647D01*
X5655Y2652D01*
X5660Y2661D01*
X5662Y2670D01*
X5660Y2680D01*
X5655Y2688D01*
X5646Y2694D01*
X5637Y2696D01*
D02*
G37*
G36*
X6530Y2647D02*
X6516D01*
X6522Y2639D01*
X6530Y2634D01*
Y2647D01*
D02*
G37*
G36*
X4938Y2696D02*
X4928Y2694D01*
X4920Y2688D01*
X4914Y2680D01*
X4913Y2670D01*
X4914Y2661D01*
X4920Y2652D01*
X4928Y2647D01*
X4938Y2645D01*
X4948Y2647D01*
X4956Y2652D01*
X4962Y2661D01*
X4963Y2670D01*
X4962Y2680D01*
X4956Y2688D01*
X4948Y2694D01*
X4938Y2696D01*
D02*
G37*
G36*
X3055Y2628D02*
X3041D01*
Y2614D01*
X3050Y2620D01*
X3055Y2628D01*
D02*
G37*
G36*
X3281Y2614D02*
X3268D01*
Y2601D01*
X3276Y2606D01*
X3281Y2614D01*
D02*
G37*
G36*
X1939Y2661D02*
X1936Y2661D01*
X1925Y2657D01*
X1914Y2651D01*
X1904Y2643D01*
X1896Y2634D01*
X1890Y2623D01*
X1887Y2611D01*
X1886Y2608D01*
X1939D01*
Y2661D01*
D02*
G37*
G36*
X6394Y2598D02*
X6380D01*
Y2585D01*
X6388Y2590D01*
X6394Y2598D01*
D02*
G37*
G36*
X3248Y2614D02*
X3234D01*
X3240Y2606D01*
X3248Y2601D01*
Y2614D01*
D02*
G37*
G36*
X1959Y2661D02*
Y2608D01*
X2011D01*
X2011Y2611D01*
X2007Y2623D01*
X2002Y2634D01*
X1994Y2643D01*
X1984Y2651D01*
X1973Y2657D01*
X1961Y2661D01*
X1959Y2661D01*
D02*
G37*
G36*
X3021Y2628D02*
X3008D01*
X3013Y2620D01*
X3021Y2614D01*
Y2628D01*
D02*
G37*
G36*
X7746Y2687D02*
X7739Y2686D01*
X7722Y2681D01*
X7706Y2673D01*
X7693Y2661D01*
X7682Y2648D01*
X7674Y2633D01*
X7668Y2616D01*
X7668Y2608D01*
X7746D01*
Y2687D01*
D02*
G37*
G36*
X7766D02*
Y2608D01*
X7844D01*
X7843Y2616D01*
X7838Y2633D01*
X7830Y2648D01*
X7819Y2661D01*
X7805Y2673D01*
X7790Y2681D01*
X7773Y2686D01*
X7766Y2687D01*
D02*
G37*
G36*
X8651Y2254D02*
X8644Y2253D01*
X8627Y2248D01*
X8612Y2239D01*
X8598Y2228D01*
X8587Y2215D01*
X8579Y2199D01*
X8574Y2183D01*
X8573Y2175D01*
X8651D01*
Y2254D01*
D02*
G37*
G36*
X8671D02*
Y2175D01*
X8750D01*
X8749Y2183D01*
X8744Y2199D01*
X8736Y2215D01*
X8724Y2228D01*
X8711Y2239D01*
X8696Y2248D01*
X8679Y2253D01*
X8671Y2254D01*
D02*
G37*
G36*
X1959D02*
X1951Y2253D01*
X1934Y2248D01*
X1919Y2239D01*
X1905Y2228D01*
X1894Y2215D01*
X1886Y2199D01*
X1881Y2183D01*
X1880Y2175D01*
X1959D01*
Y2254D01*
D02*
G37*
G36*
X1979D02*
Y2175D01*
X2057D01*
X2056Y2183D01*
X2051Y2199D01*
X2043Y2215D01*
X2032Y2228D01*
X2018Y2239D01*
X2003Y2248D01*
X1986Y2253D01*
X1979Y2254D01*
D02*
G37*
G36*
X4921Y2402D02*
X4911Y2400D01*
X4901Y2396D01*
X4893Y2390D01*
X4886Y2381D01*
X4882Y2372D01*
X4881Y2361D01*
X4882Y2351D01*
X4886Y2341D01*
X4893Y2333D01*
X4901Y2326D01*
X4911Y2322D01*
X4921Y2321D01*
X4932Y2322D01*
X4941Y2326D01*
X4950Y2333D01*
X4956Y2341D01*
X4960Y2351D01*
X4962Y2361D01*
X4960Y2372D01*
X4956Y2381D01*
X4950Y2390D01*
X4941Y2396D01*
X4932Y2400D01*
X4921Y2402D01*
D02*
G37*
G36*
X5277D02*
X5266Y2400D01*
X5256Y2396D01*
X5248Y2390D01*
X5242Y2381D01*
X5238Y2372D01*
X5236Y2361D01*
X5238Y2351D01*
X5242Y2341D01*
X5248Y2333D01*
X5256Y2326D01*
X5266Y2322D01*
X5277Y2321D01*
X5287Y2322D01*
X5297Y2326D01*
X5305Y2333D01*
X5312Y2341D01*
X5316Y2351D01*
X5317Y2361D01*
X5316Y2372D01*
X5312Y2381D01*
X5305Y2390D01*
X5297Y2396D01*
X5287Y2400D01*
X5277Y2402D01*
D02*
G37*
G36*
X4606Y2383D02*
X4596Y2381D01*
X4586Y2377D01*
X4578Y2371D01*
X4571Y2363D01*
X4567Y2353D01*
X4566Y2343D01*
X4567Y2332D01*
X4571Y2322D01*
X4578Y2314D01*
X4586Y2308D01*
X4596Y2304D01*
X4606Y2302D01*
X4617Y2304D01*
X4626Y2308D01*
X4635Y2314D01*
X4641Y2322D01*
X4645Y2332D01*
X4647Y2343D01*
X4645Y2353D01*
X4641Y2363D01*
X4635Y2371D01*
X4626Y2377D01*
X4617Y2381D01*
X4606Y2383D01*
D02*
G37*
G36*
X6161Y2398D02*
X6151Y2397D01*
X6141Y2393D01*
X6133Y2386D01*
X6126Y2378D01*
X6122Y2368D01*
X6121Y2358D01*
X6122Y2347D01*
X6126Y2338D01*
X6133Y2329D01*
X6141Y2323D01*
X6151Y2319D01*
X6161Y2317D01*
X6172Y2319D01*
X6182Y2323D01*
X6190Y2329D01*
X6196Y2338D01*
X6200Y2347D01*
X6202Y2358D01*
X6200Y2368D01*
X6196Y2378D01*
X6190Y2386D01*
X6182Y2393D01*
X6172Y2397D01*
X6161Y2398D01*
D02*
G37*
G36*
X2896Y2248D02*
X2813D01*
Y2165D01*
X2896D01*
Y2248D01*
D02*
G37*
G36*
X1959Y2155D02*
X1880D01*
X1881Y2148D01*
X1886Y2131D01*
X1894Y2116D01*
X1905Y2102D01*
X1919Y2091D01*
X1934Y2083D01*
X1951Y2078D01*
X1959Y2077D01*
Y2155D01*
D02*
G37*
G36*
X2057D02*
X1979D01*
Y2077D01*
X1986Y2078D01*
X2003Y2083D01*
X2018Y2091D01*
X2032Y2102D01*
X2043Y2116D01*
X2051Y2131D01*
X2056Y2148D01*
X2057Y2155D01*
D02*
G37*
G36*
X2844Y2096D02*
X2814D01*
X2814Y2095D01*
X2818Y2085D01*
X2825Y2077D01*
X2833Y2070D01*
X2843Y2066D01*
X2844Y2066D01*
Y2096D01*
D02*
G37*
G36*
X2895D02*
X2864D01*
Y2066D01*
X2865Y2066D01*
X2875Y2070D01*
X2884Y2077D01*
X2891Y2085D01*
X2895Y2095D01*
X2895Y2096D01*
D02*
G37*
G36*
X2844Y2147D02*
X2843Y2147D01*
X2833Y2143D01*
X2825Y2136D01*
X2818Y2127D01*
X2814Y2117D01*
X2814Y2116D01*
X2844D01*
Y2147D01*
D02*
G37*
G36*
X2864D02*
Y2116D01*
X2895D01*
X2895Y2117D01*
X2891Y2127D01*
X2884Y2136D01*
X2875Y2143D01*
X2865Y2147D01*
X2864Y2147D01*
D02*
G37*
G36*
X8651Y2155D02*
X8573D01*
X8574Y2148D01*
X8579Y2131D01*
X8587Y2116D01*
X8598Y2102D01*
X8612Y2091D01*
X8627Y2083D01*
X8644Y2078D01*
X8651Y2077D01*
Y2155D01*
D02*
G37*
G36*
X8750D02*
X8671D01*
Y2077D01*
X8679Y2078D01*
X8696Y2083D01*
X8711Y2091D01*
X8724Y2102D01*
X8736Y2116D01*
X8744Y2131D01*
X8749Y2148D01*
X8750Y2155D01*
D02*
G37*
G36*
X5640Y2466D02*
X5630Y2464D01*
X5622Y2459D01*
X5616Y2451D01*
X5614Y2441D01*
X5616Y2431D01*
X5622Y2423D01*
X5630Y2417D01*
X5640Y2415D01*
X5650Y2417D01*
X5658Y2423D01*
X5663Y2431D01*
X5665Y2441D01*
X5663Y2451D01*
X5658Y2459D01*
X5650Y2464D01*
X5640Y2466D01*
D02*
G37*
G36*
X4938Y2469D02*
X4928Y2467D01*
X4920Y2462D01*
X4914Y2454D01*
X4913Y2444D01*
X4914Y2434D01*
X4920Y2426D01*
X4928Y2420D01*
X4938Y2418D01*
X4948Y2420D01*
X4956Y2426D01*
X4962Y2434D01*
X4963Y2444D01*
X4962Y2454D01*
X4956Y2462D01*
X4948Y2467D01*
X4938Y2469D01*
D02*
G37*
G36*
X6850Y2510D02*
X6838Y2509D01*
X6825Y2504D01*
X6815Y2496D01*
X6807Y2486D01*
X6802Y2474D01*
X6801Y2461D01*
X6802Y2448D01*
X6807Y2436D01*
X6815Y2425D01*
X6825Y2418D01*
X6838Y2413D01*
X6850Y2411D01*
X6863Y2413D01*
X6875Y2418D01*
X6886Y2425D01*
X6894Y2436D01*
X6898Y2448D01*
X6900Y2461D01*
X6898Y2474D01*
X6894Y2486D01*
X6886Y2496D01*
X6875Y2504D01*
X6863Y2509D01*
X6850Y2510D01*
D02*
G37*
G36*
X7323D02*
X7310Y2509D01*
X7298Y2504D01*
X7288Y2496D01*
X7280Y2486D01*
X7275Y2474D01*
X7273Y2461D01*
X7275Y2448D01*
X7280Y2436D01*
X7288Y2425D01*
X7298Y2418D01*
X7310Y2413D01*
X7323Y2411D01*
X7336Y2413D01*
X7348Y2418D01*
X7358Y2425D01*
X7366Y2436D01*
X7371Y2448D01*
X7373Y2461D01*
X7371Y2474D01*
X7366Y2486D01*
X7358Y2496D01*
X7348Y2504D01*
X7336Y2509D01*
X7323Y2510D01*
D02*
G37*
G36*
X3666Y2525D02*
X3656Y2524D01*
X3647Y2518D01*
X3642Y2510D01*
X3640Y2500D01*
X3642Y2490D01*
X3647Y2482D01*
X3656Y2476D01*
X3666Y2475D01*
X3675Y2476D01*
X3684Y2482D01*
X3689Y2490D01*
X3691Y2500D01*
X3689Y2510D01*
X3684Y2518D01*
X3675Y2524D01*
X3666Y2525D01*
D02*
G37*
G36*
X2563Y2572D02*
X2553Y2570D01*
X2543Y2566D01*
X2535Y2560D01*
X2529Y2552D01*
X2524Y2542D01*
X2523Y2531D01*
X2524Y2521D01*
X2529Y2511D01*
X2535Y2503D01*
X2543Y2497D01*
X2553Y2493D01*
X2563Y2491D01*
X2574Y2493D01*
X2584Y2497D01*
X2592Y2503D01*
X2598Y2511D01*
X2602Y2521D01*
X2604Y2531D01*
X2602Y2542D01*
X2598Y2552D01*
X2592Y2560D01*
X2584Y2566D01*
X2574Y2570D01*
X2563Y2572D01*
D02*
G37*
G36*
X5282Y2469D02*
X5273Y2467D01*
X5264Y2462D01*
X5259Y2454D01*
X5257Y2444D01*
X5259Y2434D01*
X5264Y2426D01*
X5273Y2420D01*
X5282Y2418D01*
X5292Y2420D01*
X5301Y2426D01*
X5306Y2434D01*
X5308Y2444D01*
X5306Y2454D01*
X5301Y2462D01*
X5292Y2467D01*
X5282Y2469D01*
D02*
G37*
G36*
X3543Y2506D02*
X3534Y2504D01*
X3525Y2498D01*
X3520Y2490D01*
X3518Y2480D01*
X3520Y2471D01*
X3525Y2462D01*
X3534Y2457D01*
X3543Y2455D01*
X3553Y2457D01*
X3561Y2462D01*
X3567Y2471D01*
X3569Y2480D01*
X3567Y2490D01*
X3561Y2498D01*
X3553Y2504D01*
X3543Y2506D01*
D02*
G37*
G36*
X2863Y2472D02*
X2853Y2470D01*
X2843Y2466D01*
X2835Y2460D01*
X2829Y2452D01*
X2824Y2442D01*
X2823Y2431D01*
X2824Y2421D01*
X2829Y2411D01*
X2835Y2403D01*
X2843Y2397D01*
X2853Y2393D01*
X2863Y2391D01*
X2874Y2393D01*
X2884Y2397D01*
X2892Y2403D01*
X2898Y2411D01*
X2902Y2421D01*
X2904Y2431D01*
X2902Y2442D01*
X2898Y2452D01*
X2892Y2460D01*
X2884Y2466D01*
X2874Y2470D01*
X2863Y2472D01*
D02*
G37*
G36*
X3090Y2337D02*
X3076D01*
Y2324D01*
X3084Y2329D01*
X3090Y2337D01*
D02*
G37*
G36*
X7606Y2452D02*
X7592Y2450D01*
X7579Y2445D01*
X7568Y2436D01*
X7560Y2425D01*
X7554Y2412D01*
X7553Y2398D01*
X7554Y2385D01*
X7560Y2372D01*
X7568Y2360D01*
X7579Y2352D01*
X7592Y2346D01*
X7606Y2345D01*
X7620Y2346D01*
X7633Y2352D01*
X7644Y2360D01*
X7653Y2372D01*
X7658Y2385D01*
X7660Y2398D01*
X7658Y2412D01*
X7653Y2425D01*
X7644Y2436D01*
X7633Y2445D01*
X7620Y2450D01*
X7606Y2452D01*
D02*
G37*
G36*
X5630Y2403D02*
X5619Y2401D01*
X5610Y2397D01*
X5601Y2391D01*
X5595Y2382D01*
X5591Y2373D01*
X5590Y2362D01*
X5591Y2352D01*
X5595Y2342D01*
X5601Y2334D01*
X5610Y2327D01*
X5619Y2323D01*
X5630Y2322D01*
X5640Y2323D01*
X5650Y2327D01*
X5658Y2334D01*
X5665Y2342D01*
X5669Y2352D01*
X5670Y2362D01*
X5669Y2373D01*
X5665Y2382D01*
X5658Y2391D01*
X5650Y2397D01*
X5640Y2401D01*
X5630Y2403D01*
D02*
G37*
G36*
X3056Y2337D02*
X3043D01*
X3048Y2329D01*
X3056Y2324D01*
Y2337D01*
D02*
G37*
G36*
X3076Y2370D02*
Y2357D01*
X3090D01*
X3084Y2365D01*
X3076Y2370D01*
D02*
G37*
G36*
X2563Y2472D02*
X2553Y2470D01*
X2543Y2466D01*
X2535Y2460D01*
X2529Y2452D01*
X2524Y2442D01*
X2523Y2431D01*
X2524Y2421D01*
X2529Y2411D01*
X2535Y2403D01*
X2543Y2397D01*
X2553Y2393D01*
X2563Y2391D01*
X2574Y2393D01*
X2584Y2397D01*
X2592Y2403D01*
X2598Y2411D01*
X2602Y2421D01*
X2604Y2431D01*
X2602Y2442D01*
X2598Y2452D01*
X2592Y2460D01*
X2584Y2466D01*
X2574Y2470D01*
X2563Y2472D01*
D02*
G37*
G36*
X8006Y2452D02*
X7992Y2450D01*
X7979Y2445D01*
X7968Y2436D01*
X7960Y2425D01*
X7954Y2412D01*
X7953Y2398D01*
X7954Y2385D01*
X7960Y2372D01*
X7968Y2360D01*
X7979Y2352D01*
X7992Y2346D01*
X8006Y2345D01*
X8020Y2346D01*
X8033Y2352D01*
X8044Y2360D01*
X8053Y2372D01*
X8058Y2385D01*
X8060Y2398D01*
X8058Y2412D01*
X8053Y2425D01*
X8044Y2436D01*
X8033Y2445D01*
X8020Y2450D01*
X8006Y2452D01*
D02*
G37*
G36*
X3056Y2370D02*
X3048Y2365D01*
X3043Y2357D01*
X3056D01*
Y2370D01*
D02*
G37*
G36*
X3317Y2864D02*
X3303D01*
X3309Y2856D01*
X3317Y2851D01*
Y2864D01*
D02*
G37*
G36*
X3350D02*
X3337D01*
Y2851D01*
X3345Y2856D01*
X3350Y2864D01*
D02*
G37*
G36*
X1939Y2888D02*
X1886D01*
X1887Y2885D01*
X1890Y2873D01*
X1896Y2862D01*
X1904Y2853D01*
X1914Y2845D01*
X1925Y2839D01*
X1936Y2835D01*
X1939Y2835D01*
Y2888D01*
D02*
G37*
G36*
X2011D02*
X1959D01*
Y2835D01*
X1961Y2835D01*
X1973Y2839D01*
X1984Y2845D01*
X1994Y2853D01*
X2002Y2862D01*
X2007Y2873D01*
X2011Y2885D01*
X2011Y2888D01*
D02*
G37*
G36*
X6850Y2991D02*
X6838Y2989D01*
X6825Y2984D01*
X6815Y2976D01*
X6807Y2966D01*
X6802Y2954D01*
X6801Y2941D01*
X6802Y2928D01*
X6807Y2916D01*
X6815Y2906D01*
X6825Y2898D01*
X6838Y2893D01*
X6850Y2891D01*
X6863Y2893D01*
X6875Y2898D01*
X6886Y2906D01*
X6894Y2916D01*
X6898Y2928D01*
X6900Y2941D01*
X6898Y2954D01*
X6894Y2966D01*
X6886Y2976D01*
X6875Y2984D01*
X6863Y2989D01*
X6850Y2991D01*
D02*
G37*
G36*
X7323D02*
X7310Y2989D01*
X7298Y2984D01*
X7288Y2976D01*
X7280Y2966D01*
X7275Y2954D01*
X7273Y2941D01*
X7275Y2928D01*
X7280Y2916D01*
X7288Y2906D01*
X7298Y2898D01*
X7310Y2893D01*
X7323Y2891D01*
X7336Y2893D01*
X7348Y2898D01*
X7358Y2906D01*
X7366Y2916D01*
X7371Y2928D01*
X7373Y2941D01*
X7371Y2954D01*
X7366Y2966D01*
X7358Y2976D01*
X7348Y2984D01*
X7336Y2989D01*
X7323Y2991D01*
D02*
G37*
G36*
X3317Y2897D02*
X3309Y2892D01*
X3303Y2884D01*
X3317D01*
Y2897D01*
D02*
G37*
G36*
X3337D02*
Y2884D01*
X3350D01*
X3345Y2892D01*
X3337Y2897D01*
D02*
G37*
G36*
X3036Y2850D02*
X3026Y2848D01*
X3018Y2843D01*
X3013Y2835D01*
X3011Y2825D01*
X3013Y2815D01*
X3018Y2807D01*
X3026Y2801D01*
X3036Y2799D01*
X3046Y2801D01*
X3054Y2807D01*
X3060Y2815D01*
X3062Y2825D01*
X3060Y2835D01*
X3054Y2843D01*
X3046Y2848D01*
X3036Y2850D01*
D02*
G37*
G36*
X6309Y2766D02*
X6301Y2760D01*
X6296Y2752D01*
X6309D01*
Y2766D01*
D02*
G37*
G36*
X6329D02*
Y2752D01*
X6342D01*
X6337Y2760D01*
X6329Y2766D01*
D02*
G37*
G36*
X6703Y2764D02*
X6695Y2758D01*
X6689Y2750D01*
X6703D01*
Y2764D01*
D02*
G37*
G36*
X6723D02*
Y2750D01*
X6736D01*
X6731Y2758D01*
X6723Y2764D01*
D02*
G37*
G36*
X2894Y2779D02*
X2886Y2774D01*
X2880Y2766D01*
X2894D01*
Y2779D01*
D02*
G37*
G36*
X2914D02*
Y2766D01*
X2927D01*
X2922Y2774D01*
X2914Y2779D01*
D02*
G37*
G36*
X7401Y2772D02*
X7393Y2767D01*
X7388Y2759D01*
X7401D01*
Y2772D01*
D02*
G37*
G36*
X7421D02*
Y2759D01*
X7435D01*
X7429Y2767D01*
X7421Y2772D01*
D02*
G37*
G36*
X7610Y3013D02*
X7609Y3013D01*
X7599Y3009D01*
X7590Y3002D01*
X7583Y2993D01*
X7579Y2983D01*
X7579Y2982D01*
X7610D01*
Y3013D01*
D02*
G37*
G36*
X7630D02*
Y2982D01*
X7660D01*
X7660Y2983D01*
X7656Y2993D01*
X7649Y3002D01*
X7641Y3009D01*
X7631Y3013D01*
X7630Y3013D01*
D02*
G37*
G36*
X5650Y3008D02*
X5640Y3006D01*
X5632Y3000D01*
X5626Y2992D01*
X5624Y2982D01*
X5626Y2973D01*
X5632Y2964D01*
X5640Y2959D01*
X5650Y2957D01*
X5659Y2959D01*
X5668Y2964D01*
X5673Y2973D01*
X5675Y2982D01*
X5673Y2992D01*
X5668Y3000D01*
X5659Y3006D01*
X5650Y3008D01*
D02*
G37*
G36*
X4941Y3008D02*
X4931Y3006D01*
X4923Y3000D01*
X4917Y2992D01*
X4915Y2982D01*
X4917Y2973D01*
X4923Y2964D01*
X4931Y2959D01*
X4941Y2957D01*
X4951Y2959D01*
X4959Y2964D01*
X4964Y2973D01*
X4966Y2982D01*
X4964Y2992D01*
X4959Y3000D01*
X4951Y3006D01*
X4941Y3008D01*
D02*
G37*
G36*
X7136Y3091D02*
X7037D01*
Y2992D01*
X7136D01*
Y3091D01*
D02*
G37*
G36*
X2308Y3096D02*
X2295D01*
X2300Y3088D01*
X2308Y3082D01*
Y3096D01*
D02*
G37*
G36*
X2863Y3072D02*
X2853Y3070D01*
X2843Y3066D01*
X2835Y3060D01*
X2829Y3052D01*
X2824Y3042D01*
X2823Y3031D01*
X2824Y3021D01*
X2829Y3011D01*
X2835Y3003D01*
X2843Y2997D01*
X2853Y2993D01*
X2863Y2991D01*
X2874Y2993D01*
X2884Y2997D01*
X2892Y3003D01*
X2898Y3011D01*
X2902Y3021D01*
X2904Y3031D01*
X2902Y3042D01*
X2898Y3052D01*
X2892Y3060D01*
X2884Y3066D01*
X2874Y3070D01*
X2863Y3072D01*
D02*
G37*
G36*
X2603Y3071D02*
X2523D01*
Y2991D01*
X2603D01*
Y3071D01*
D02*
G37*
G36*
X5285Y3008D02*
X5276Y3006D01*
X5267Y3000D01*
X5262Y2992D01*
X5260Y2982D01*
X5262Y2973D01*
X5267Y2964D01*
X5276Y2959D01*
X5285Y2957D01*
X5295Y2959D01*
X5303Y2964D01*
X5309Y2973D01*
X5311Y2982D01*
X5309Y2992D01*
X5303Y3000D01*
X5295Y3006D01*
X5285Y3008D01*
D02*
G37*
G36*
X1939Y2960D02*
X1936Y2960D01*
X1925Y2956D01*
X1914Y2950D01*
X1904Y2943D01*
X1896Y2933D01*
X1890Y2922D01*
X1887Y2910D01*
X1886Y2908D01*
X1939D01*
Y2960D01*
D02*
G37*
G36*
X1959D02*
Y2908D01*
X2011D01*
X2011Y2910D01*
X2007Y2922D01*
X2002Y2933D01*
X1994Y2943D01*
X1984Y2950D01*
X1973Y2956D01*
X1961Y2960D01*
X1959Y2960D01*
D02*
G37*
G36*
X2563Y2972D02*
X2553Y2970D01*
X2543Y2966D01*
X2535Y2960D01*
X2529Y2952D01*
X2524Y2942D01*
X2523Y2931D01*
X2524Y2921D01*
X2529Y2911D01*
X2535Y2903D01*
X2543Y2897D01*
X2553Y2893D01*
X2563Y2891D01*
X2574Y2893D01*
X2584Y2897D01*
X2592Y2903D01*
X2598Y2911D01*
X2602Y2921D01*
X2604Y2931D01*
X2602Y2942D01*
X2598Y2952D01*
X2592Y2960D01*
X2584Y2966D01*
X2574Y2970D01*
X2563Y2972D01*
D02*
G37*
G36*
X2863D02*
X2853Y2970D01*
X2843Y2966D01*
X2835Y2960D01*
X2829Y2952D01*
X2824Y2942D01*
X2823Y2931D01*
X2824Y2921D01*
X2829Y2911D01*
X2835Y2903D01*
X2843Y2897D01*
X2853Y2893D01*
X2863Y2891D01*
X2874Y2893D01*
X2884Y2897D01*
X2892Y2903D01*
X2898Y2911D01*
X2902Y2921D01*
X2904Y2931D01*
X2902Y2942D01*
X2898Y2952D01*
X2892Y2960D01*
X2884Y2966D01*
X2874Y2970D01*
X2863Y2972D01*
D02*
G37*
G36*
X7610Y2962D02*
X7579D01*
X7579Y2962D01*
X7583Y2952D01*
X7590Y2943D01*
X7599Y2936D01*
X7609Y2932D01*
X7610Y2932D01*
Y2962D01*
D02*
G37*
G36*
X7660D02*
X7630D01*
Y2932D01*
X7631Y2932D01*
X7641Y2936D01*
X7649Y2943D01*
X7656Y2952D01*
X7660Y2962D01*
X7660Y2962D01*
D02*
G37*
G36*
X3193Y2966D02*
X3183Y2964D01*
X3175Y2958D01*
X3170Y2950D01*
X3168Y2940D01*
X3170Y2931D01*
X3175Y2922D01*
X3183Y2917D01*
X3193Y2915D01*
X3203Y2917D01*
X3211Y2922D01*
X3217Y2931D01*
X3219Y2940D01*
X3217Y2950D01*
X3211Y2958D01*
X3203Y2964D01*
X3193Y2966D01*
D02*
G37*
G36*
X7561Y3014D02*
X7478D01*
Y2931D01*
X7561D01*
Y3014D01*
D02*
G37*
G36*
X3666Y2766D02*
X3656Y2764D01*
X3647Y2758D01*
X3642Y2750D01*
X3640Y2740D01*
X3642Y2730D01*
X3647Y2722D01*
X3656Y2717D01*
X3666Y2715D01*
X3675Y2717D01*
X3684Y2722D01*
X3689Y2730D01*
X3691Y2740D01*
X3689Y2750D01*
X3684Y2758D01*
X3675Y2764D01*
X3666Y2766D01*
D02*
G37*
G36*
X4138Y2766D02*
X4128Y2764D01*
X4120Y2758D01*
X4115Y2750D01*
X4113Y2740D01*
X4115Y2730D01*
X4120Y2722D01*
X4128Y2717D01*
X4138Y2715D01*
X4148Y2717D01*
X4156Y2722D01*
X4162Y2730D01*
X4164Y2740D01*
X4162Y2750D01*
X4156Y2758D01*
X4148Y2764D01*
X4138Y2766D01*
D02*
G37*
G36*
X2294Y2786D02*
X2218D01*
Y2710D01*
X2294D01*
Y2786D01*
D02*
G37*
G36*
X3937Y2762D02*
X3927Y2760D01*
X3919Y2754D01*
X3913Y2746D01*
X3912Y2736D01*
X3913Y2726D01*
X3919Y2718D01*
X3927Y2713D01*
X3937Y2711D01*
X3947Y2713D01*
X3955Y2718D01*
X3961Y2726D01*
X3962Y2736D01*
X3961Y2746D01*
X3955Y2754D01*
X3947Y2760D01*
X3937Y2762D01*
D02*
G37*
G36*
X6703Y2730D02*
X6689D01*
X6695Y2722D01*
X6703Y2717D01*
Y2730D01*
D02*
G37*
G36*
X6736D02*
X6723D01*
Y2717D01*
X6731Y2722D01*
X6736Y2730D01*
D02*
G37*
G36*
X3809Y2730D02*
X3795D01*
X3801Y2722D01*
X3809Y2717D01*
Y2730D01*
D02*
G37*
G36*
X3842D02*
X3829D01*
Y2717D01*
X3837Y2722D01*
X3842Y2730D01*
D02*
G37*
G36*
X4414Y2752D02*
X4404Y2750D01*
X4396Y2744D01*
X4390Y2736D01*
X4388Y2726D01*
X4390Y2717D01*
X4396Y2708D01*
X4404Y2703D01*
X4414Y2701D01*
X4424Y2703D01*
X4432Y2708D01*
X4437Y2717D01*
X4439Y2726D01*
X4437Y2736D01*
X4432Y2744D01*
X4424Y2750D01*
X4414Y2752D01*
D02*
G37*
G36*
X4251Y2667D02*
X4238D01*
X4243Y2659D01*
X4251Y2654D01*
Y2667D01*
D02*
G37*
G36*
X4285D02*
X4271D01*
Y2654D01*
X4279Y2659D01*
X4285Y2667D01*
D02*
G37*
G36*
X3021Y2661D02*
X3013Y2656D01*
X3008Y2648D01*
X3021D01*
Y2661D01*
D02*
G37*
G36*
X3041D02*
Y2648D01*
X3055D01*
X3050Y2656D01*
X3041Y2661D01*
D02*
G37*
G36*
X4251Y2701D02*
X4243Y2695D01*
X4238Y2687D01*
X4251D01*
Y2701D01*
D02*
G37*
G36*
X4271D02*
Y2687D01*
X4285D01*
X4279Y2695D01*
X4271Y2701D01*
D02*
G37*
G36*
X6348Y2712D02*
X6339Y2711D01*
X6330Y2705D01*
X6325Y2697D01*
X6323Y2687D01*
X6325Y2677D01*
X6330Y2669D01*
X6339Y2663D01*
X6348Y2662D01*
X6358Y2663D01*
X6366Y2669D01*
X6372Y2677D01*
X6374Y2687D01*
X6372Y2697D01*
X6366Y2705D01*
X6358Y2711D01*
X6348Y2712D01*
D02*
G37*
G36*
X6575D02*
X6565Y2711D01*
X6557Y2705D01*
X6551Y2697D01*
X6549Y2687D01*
X6549Y2686D01*
X6545Y2682D01*
X6540Y2683D01*
X6530Y2681D01*
X6522Y2676D01*
X6516Y2667D01*
X6540D01*
Y2657D01*
X6550D01*
Y2634D01*
X6558Y2639D01*
X6563Y2648D01*
X6565Y2657D01*
X6565Y2658D01*
X6569Y2663D01*
X6575Y2662D01*
X6585Y2663D01*
X6593Y2669D01*
X6598Y2677D01*
X6600Y2687D01*
X6598Y2697D01*
X6593Y2705D01*
X6585Y2711D01*
X6575Y2712D01*
D02*
G37*
G36*
X8006Y2852D02*
X7992Y2850D01*
X7979Y2845D01*
X7968Y2836D01*
X7960Y2825D01*
X7954Y2812D01*
X7953Y2798D01*
X7954Y2785D01*
X7960Y2772D01*
X7968Y2760D01*
X7979Y2752D01*
X7992Y2746D01*
X8006Y2745D01*
X8020Y2746D01*
X8033Y2752D01*
X8044Y2760D01*
X8053Y2772D01*
X8058Y2785D01*
X8060Y2798D01*
X8058Y2812D01*
X8053Y2825D01*
X8044Y2836D01*
X8033Y2845D01*
X8020Y2850D01*
X8006Y2852D01*
D02*
G37*
G36*
X5285Y2801D02*
X5276Y2799D01*
X5267Y2794D01*
X5262Y2785D01*
X5260Y2776D01*
X5262Y2766D01*
X5267Y2758D01*
X5276Y2752D01*
X5285Y2750D01*
X5295Y2752D01*
X5303Y2758D01*
X5309Y2766D01*
X5311Y2776D01*
X5309Y2785D01*
X5303Y2794D01*
X5295Y2799D01*
X5285Y2801D01*
D02*
G37*
G36*
X2927Y2746D02*
X2914D01*
Y2733D01*
X2922Y2738D01*
X2927Y2746D01*
D02*
G37*
G36*
X7606Y2852D02*
X7592Y2850D01*
X7579Y2845D01*
X7568Y2836D01*
X7560Y2825D01*
X7554Y2812D01*
X7553Y2798D01*
X7554Y2785D01*
X7560Y2772D01*
X7568Y2760D01*
X7579Y2752D01*
X7592Y2746D01*
X7606Y2745D01*
X7620Y2746D01*
X7633Y2752D01*
X7644Y2760D01*
X7653Y2772D01*
X7658Y2785D01*
X7660Y2798D01*
X7658Y2812D01*
X7653Y2825D01*
X7644Y2836D01*
X7633Y2845D01*
X7620Y2850D01*
X7606Y2852D01*
D02*
G37*
G36*
X3809Y2764D02*
X3801Y2758D01*
X3795Y2750D01*
X3809D01*
Y2764D01*
D02*
G37*
G36*
X3829D02*
Y2750D01*
X3842D01*
X3837Y2758D01*
X3829Y2764D01*
D02*
G37*
G36*
X5650Y2801D02*
X5640Y2799D01*
X5632Y2794D01*
X5626Y2785D01*
X5624Y2776D01*
X5626Y2766D01*
X5632Y2758D01*
X5640Y2752D01*
X5650Y2750D01*
X5659Y2752D01*
X5668Y2758D01*
X5673Y2766D01*
X5675Y2776D01*
X5673Y2785D01*
X5668Y2794D01*
X5659Y2799D01*
X5650Y2801D01*
D02*
G37*
G36*
X4941Y2801D02*
X4931Y2799D01*
X4923Y2794D01*
X4917Y2785D01*
X4915Y2776D01*
X4917Y2766D01*
X4923Y2758D01*
X4931Y2752D01*
X4941Y2750D01*
X4951Y2752D01*
X4959Y2758D01*
X4964Y2766D01*
X4966Y2776D01*
X4964Y2785D01*
X4959Y2794D01*
X4951Y2799D01*
X4941Y2801D01*
D02*
G37*
G36*
X2894Y2746D02*
X2880D01*
X2886Y2738D01*
X2894Y2733D01*
Y2746D01*
D02*
G37*
G36*
X5371Y2772D02*
X5361Y2770D01*
X5353Y2764D01*
X5347Y2756D01*
X5345Y2746D01*
X5347Y2736D01*
X5353Y2728D01*
X5361Y2723D01*
X5371Y2721D01*
X5380Y2723D01*
X5389Y2728D01*
X5394Y2736D01*
X5396Y2746D01*
X5394Y2756D01*
X5389Y2764D01*
X5380Y2770D01*
X5371Y2772D01*
D02*
G37*
G36*
X5725D02*
X5715Y2770D01*
X5707Y2764D01*
X5701Y2756D01*
X5699Y2746D01*
X5701Y2736D01*
X5707Y2728D01*
X5715Y2723D01*
X5725Y2721D01*
X5735Y2723D01*
X5743Y2728D01*
X5748Y2736D01*
X5750Y2746D01*
X5748Y2756D01*
X5743Y2764D01*
X5735Y2770D01*
X5725Y2772D01*
D02*
G37*
G36*
X6309Y2732D02*
X6296D01*
X6301Y2724D01*
X6309Y2719D01*
Y2732D01*
D02*
G37*
G36*
X6342D02*
X6329D01*
Y2719D01*
X6337Y2724D01*
X6342Y2732D01*
D02*
G37*
G36*
X7401Y2739D02*
X7388D01*
X7393Y2731D01*
X7401Y2726D01*
Y2739D01*
D02*
G37*
G36*
X7435D02*
X7421D01*
Y2726D01*
X7429Y2731D01*
X7435Y2739D01*
D02*
G37*
G36*
X6079Y2772D02*
X6069Y2770D01*
X6061Y2764D01*
X6056Y2756D01*
X6054Y2746D01*
X6056Y2736D01*
X6061Y2728D01*
X6069Y2723D01*
X6079Y2721D01*
X6089Y2723D01*
X6097Y2728D01*
X6103Y2736D01*
X6105Y2746D01*
X6103Y2756D01*
X6097Y2764D01*
X6089Y2770D01*
X6079Y2772D01*
D02*
G37*
G36*
X5044Y2773D02*
X5034Y2771D01*
X5026Y2765D01*
X5020Y2757D01*
X5018Y2747D01*
X5020Y2738D01*
X5026Y2729D01*
X5034Y2724D01*
X5044Y2722D01*
X5054Y2724D01*
X5062Y2729D01*
X5067Y2738D01*
X5069Y2747D01*
X5067Y2757D01*
X5062Y2765D01*
X5054Y2771D01*
X5044Y2773D01*
D02*
G37*
G36*
X3317Y4439D02*
X3303D01*
X3309Y4431D01*
X3317Y4425D01*
Y4439D01*
D02*
G37*
G36*
X5239Y7048D02*
X5228Y7047D01*
X5218Y7043D01*
X5210Y7036D01*
X5204Y7028D01*
X5200Y7018D01*
X5198Y7008D01*
X5200Y6997D01*
X5204Y6988D01*
X5210Y6979D01*
X5218Y6973D01*
X5228Y6969D01*
X5239Y6968D01*
X5249Y6969D01*
X5259Y6973D01*
X5267Y6979D01*
X5274Y6988D01*
X5278Y6997D01*
X5279Y7008D01*
X5278Y7018D01*
X5274Y7028D01*
X5267Y7036D01*
X5259Y7043D01*
X5249Y7047D01*
X5239Y7048D01*
D02*
G37*
G36*
X5787Y7054D02*
X5777Y7053D01*
X5767Y7049D01*
X5759Y7042D01*
X5752Y7034D01*
X5748Y7024D01*
X5747Y7014D01*
X5748Y7003D01*
X5752Y6994D01*
X5759Y6985D01*
X5767Y6979D01*
X5777Y6975D01*
X5787Y6973D01*
X5798Y6975D01*
X5808Y6979D01*
X5816Y6985D01*
X5822Y6994D01*
X5826Y7003D01*
X5828Y7014D01*
X5826Y7024D01*
X5822Y7034D01*
X5816Y7042D01*
X5808Y7049D01*
X5798Y7053D01*
X5787Y7054D01*
D02*
G37*
G36*
X7583Y6969D02*
X7569D01*
Y6956D01*
X7577Y6961D01*
X7583Y6969D01*
D02*
G37*
G36*
X7283Y7014D02*
X7274Y7012D01*
X7265Y7006D01*
X7260Y6998D01*
X7258Y6988D01*
X7260Y6978D01*
X7265Y6970D01*
X7274Y6965D01*
X7283Y6963D01*
X7293Y6965D01*
X7301Y6970D01*
X7307Y6978D01*
X7309Y6988D01*
X7307Y6998D01*
X7301Y7006D01*
X7293Y7012D01*
X7283Y7014D01*
D02*
G37*
G36*
X4585Y6992D02*
X4572D01*
X4577Y6984D01*
X4585Y6979D01*
Y6992D01*
D02*
G37*
G36*
X4619D02*
X4605D01*
Y6979D01*
X4613Y6984D01*
X4619Y6992D01*
D02*
G37*
G36*
X6339Y7054D02*
X6328Y7053D01*
X6318Y7049D01*
X6310Y7042D01*
X6304Y7034D01*
X6300Y7024D01*
X6298Y7014D01*
X6300Y7003D01*
X6304Y6994D01*
X6310Y6985D01*
X6318Y6979D01*
X6328Y6975D01*
X6339Y6973D01*
X6349Y6975D01*
X6359Y6979D01*
X6367Y6985D01*
X6374Y6994D01*
X6378Y7003D01*
X6379Y7014D01*
X6378Y7024D01*
X6374Y7034D01*
X6367Y7042D01*
X6359Y7049D01*
X6349Y7053D01*
X6339Y7054D01*
D02*
G37*
G36*
X6437D02*
X6427Y7053D01*
X6417Y7049D01*
X6408Y7042D01*
X6402Y7034D01*
X6398Y7024D01*
X6397Y7014D01*
X6398Y7003D01*
X6402Y6994D01*
X6408Y6985D01*
X6417Y6979D01*
X6427Y6975D01*
X6437Y6973D01*
X6447Y6975D01*
X6457Y6979D01*
X6466Y6985D01*
X6472Y6994D01*
X6476Y7003D01*
X6477Y7014D01*
X6476Y7024D01*
X6472Y7034D01*
X6466Y7042D01*
X6457Y7049D01*
X6447Y7053D01*
X6437Y7054D01*
D02*
G37*
G36*
X7549Y6969D02*
X7536D01*
X7541Y6961D01*
X7549Y6956D01*
Y6969D01*
D02*
G37*
G36*
X4094Y6896D02*
X4085Y6894D01*
X4076Y6888D01*
X4071Y6880D01*
X4069Y6870D01*
X4071Y6860D01*
X4076Y6852D01*
X4085Y6847D01*
X4094Y6845D01*
X4104Y6847D01*
X4113Y6852D01*
X4118Y6860D01*
X4120Y6870D01*
X4118Y6880D01*
X4113Y6888D01*
X4104Y6894D01*
X4094Y6896D01*
D02*
G37*
G36*
X3545Y6972D02*
X3462D01*
Y6889D01*
X3545D01*
Y6972D01*
D02*
G37*
G36*
X3494Y6871D02*
X3493Y6871D01*
X3483Y6867D01*
X3474Y6860D01*
X3468Y6852D01*
X3464Y6842D01*
X3463Y6841D01*
X3494D01*
Y6871D01*
D02*
G37*
G36*
X3514Y6871D02*
Y6841D01*
X3544D01*
X3544Y6842D01*
X3540Y6852D01*
X3534Y6860D01*
X3525Y6867D01*
X3515Y6871D01*
X3514Y6871D01*
D02*
G37*
G36*
X7172Y6971D02*
X7162Y6969D01*
X7154Y6964D01*
X7148Y6955D01*
X7147Y6946D01*
X7148Y6936D01*
X7154Y6928D01*
X7162Y6922D01*
X7172Y6920D01*
X7182Y6922D01*
X7190Y6928D01*
X7196Y6936D01*
X7198Y6946D01*
X7196Y6955D01*
X7190Y6964D01*
X7182Y6969D01*
X7172Y6971D01*
D02*
G37*
G36*
X7480Y7004D02*
X7470Y7002D01*
X7462Y6997D01*
X7456Y6988D01*
X7455Y6979D01*
X7456Y6969D01*
X7462Y6961D01*
X7470Y6955D01*
X7480Y6953D01*
X7490Y6955D01*
X7498Y6961D01*
X7504Y6969D01*
X7505Y6979D01*
X7504Y6988D01*
X7498Y6997D01*
X7490Y7002D01*
X7480Y7004D01*
D02*
G37*
G36*
X2864Y6978D02*
X2857Y6977D01*
X2840Y6972D01*
X2824Y6964D01*
X2811Y6953D01*
X2800Y6939D01*
X2792Y6924D01*
X2787Y6907D01*
X2786Y6900D01*
X2864D01*
Y6978D01*
D02*
G37*
G36*
X2884Y6978D02*
Y6900D01*
X2962D01*
X2961Y6907D01*
X2956Y6924D01*
X2948Y6939D01*
X2937Y6953D01*
X2924Y6964D01*
X2908Y6972D01*
X2891Y6977D01*
X2884Y6978D01*
D02*
G37*
G36*
X3559Y7175D02*
X3449D01*
Y7065D01*
X3559D01*
Y7175D01*
D02*
G37*
G36*
X7083Y7083D02*
X7069D01*
X7075Y7075D01*
X7083Y7069D01*
Y7083D01*
D02*
G37*
G36*
X7923Y7076D02*
Y7057D01*
X7942D01*
X7940Y7062D01*
X7935Y7069D01*
X7929Y7073D01*
X7923Y7076D01*
D02*
G37*
G36*
X3209Y7176D02*
X3194Y7174D01*
X3181Y7168D01*
X3169Y7160D01*
X3160Y7148D01*
X3155Y7135D01*
X3153Y7120D01*
X3155Y7106D01*
X3160Y7092D01*
X3169Y7081D01*
X3181Y7072D01*
X3194Y7066D01*
X3209Y7064D01*
X3223Y7066D01*
X3236Y7072D01*
X3248Y7081D01*
X3257Y7092D01*
X3262Y7106D01*
X3264Y7120D01*
X3262Y7135D01*
X3257Y7148D01*
X3248Y7160D01*
X3236Y7168D01*
X3223Y7174D01*
X3209Y7176D01*
D02*
G37*
G36*
X7103Y7116D02*
Y7103D01*
X7116D01*
X7111Y7111D01*
X7103Y7116D01*
D02*
G37*
G36*
X4449Y7211D02*
X4439Y7209D01*
X4431Y7203D01*
X4425Y7195D01*
X4424Y7185D01*
X4425Y7175D01*
X4431Y7167D01*
X4436Y7163D01*
Y7157D01*
X4431Y7154D01*
X4425Y7146D01*
X4424Y7136D01*
X4425Y7126D01*
X4431Y7118D01*
X4439Y7112D01*
X4449Y7110D01*
X4459Y7112D01*
X4467Y7118D01*
X4473Y7126D01*
X4475Y7136D01*
X4473Y7146D01*
X4467Y7154D01*
X4462Y7157D01*
Y7163D01*
X4467Y7167D01*
X4473Y7175D01*
X4475Y7185D01*
X4473Y7195D01*
X4467Y7203D01*
X4459Y7209D01*
X4449Y7211D01*
D02*
G37*
G36*
X7116Y7083D02*
X7103D01*
Y7069D01*
X7111Y7075D01*
X7116Y7083D01*
D02*
G37*
G36*
X7083Y7116D02*
X7075Y7111D01*
X7069Y7103D01*
X7083D01*
Y7116D01*
D02*
G37*
G36*
X7903Y7076D02*
X7898Y7073D01*
X7892Y7069D01*
X7887Y7062D01*
X7885Y7057D01*
X7903D01*
Y7076D01*
D02*
G37*
G36*
X4585Y7026D02*
X4577Y7020D01*
X4572Y7012D01*
X4585D01*
Y7026D01*
D02*
G37*
G36*
X4605D02*
Y7012D01*
X4619D01*
X4613Y7020D01*
X4605Y7026D01*
D02*
G37*
G36*
X7549Y7002D02*
X7541Y6997D01*
X7536Y6989D01*
X7549D01*
Y7002D01*
D02*
G37*
G36*
X7569D02*
Y6989D01*
X7583D01*
X7577Y6997D01*
X7569Y7002D01*
D02*
G37*
G36*
X2624Y7144D02*
X2610Y7142D01*
X2597Y7136D01*
X2586Y7128D01*
X2577Y7117D01*
X2572Y7104D01*
X2570Y7090D01*
X2572Y7076D01*
X2577Y7063D01*
X2586Y7052D01*
X2597Y7043D01*
X2610Y7038D01*
X2624Y7036D01*
X2638Y7038D01*
X2651Y7043D01*
X2662Y7052D01*
X2670Y7063D01*
X2676Y7076D01*
X2677Y7090D01*
X2676Y7104D01*
X2670Y7117D01*
X2662Y7128D01*
X2651Y7136D01*
X2638Y7142D01*
X2624Y7144D01*
D02*
G37*
G36*
X3024D02*
X3010Y7142D01*
X2997Y7136D01*
X2986Y7128D01*
X2977Y7117D01*
X2972Y7104D01*
X2970Y7090D01*
X2972Y7076D01*
X2977Y7063D01*
X2986Y7052D01*
X2997Y7043D01*
X3010Y7038D01*
X3024Y7036D01*
X3038Y7038D01*
X3051Y7043D01*
X3062Y7052D01*
X3070Y7063D01*
X3076Y7076D01*
X3077Y7090D01*
X3076Y7104D01*
X3070Y7117D01*
X3062Y7128D01*
X3051Y7136D01*
X3038Y7142D01*
X3024Y7144D01*
D02*
G37*
G36*
X7903Y7037D02*
X7885D01*
X7887Y7032D01*
X7892Y7026D01*
X7898Y7021D01*
X7903Y7019D01*
Y7037D01*
D02*
G37*
G36*
X7942D02*
X7923D01*
Y7019D01*
X7929Y7021D01*
X7935Y7026D01*
X7940Y7032D01*
X7942Y7037D01*
D02*
G37*
G36*
X2597Y6427D02*
X2568D01*
X2568Y6427D01*
X2572Y6417D01*
X2579Y6409D01*
X2587Y6402D01*
X2597Y6398D01*
X2597Y6398D01*
Y6427D01*
D02*
G37*
G36*
X2646D02*
X2617D01*
Y6398D01*
X2618Y6398D01*
X2627Y6402D01*
X2636Y6409D01*
X2642Y6417D01*
X2646Y6427D01*
X2646Y6427D01*
D02*
G37*
G36*
X2725Y6477D02*
X2715Y6476D01*
X2705Y6472D01*
X2697Y6465D01*
X2691Y6457D01*
X2687Y6447D01*
X2685Y6437D01*
X2687Y6427D01*
X2691Y6417D01*
X2697Y6409D01*
X2705Y6402D01*
X2715Y6398D01*
X2725Y6397D01*
X2736Y6398D01*
X2745Y6402D01*
X2754Y6409D01*
X2760Y6417D01*
X2764Y6427D01*
X2766Y6437D01*
X2764Y6447D01*
X2760Y6457D01*
X2754Y6465D01*
X2745Y6472D01*
X2736Y6476D01*
X2725Y6477D01*
D02*
G37*
G36*
X2883Y6477D02*
X2804D01*
Y6397D01*
X2883D01*
Y6477D01*
D02*
G37*
G36*
X6338Y6456D02*
X6309D01*
Y6427D01*
X6310Y6427D01*
X6319Y6431D01*
X6328Y6438D01*
X6334Y6446D01*
X6338Y6456D01*
X6338Y6456D01*
D02*
G37*
G36*
X2597Y6476D02*
X2597Y6476D01*
X2587Y6472D01*
X2579Y6465D01*
X2572Y6457D01*
X2568Y6447D01*
X2568Y6447D01*
X2597D01*
Y6476D01*
D02*
G37*
G36*
X3642Y6472D02*
X3632Y6470D01*
X3624Y6465D01*
X3618Y6457D01*
X3616Y6447D01*
X3618Y6437D01*
X3624Y6429D01*
X3632Y6423D01*
X3642Y6421D01*
X3651Y6423D01*
X3660Y6429D01*
X3665Y6437D01*
X3667Y6447D01*
X3665Y6457D01*
X3660Y6465D01*
X3651Y6470D01*
X3642Y6472D01*
D02*
G37*
G36*
X6289Y6456D02*
X6260D01*
X6260Y6456D01*
X6264Y6446D01*
X6271Y6438D01*
X6279Y6431D01*
X6289Y6427D01*
X6289Y6427D01*
Y6456D01*
D02*
G37*
G36*
X2954Y6494D02*
X2939Y6492D01*
X2925Y6487D01*
X2913Y6478D01*
X2904Y6466D01*
X2898Y6452D01*
X2896Y6437D01*
X2898Y6422D01*
X2904Y6408D01*
X2913Y6396D01*
X2925Y6387D01*
X2939Y6382D01*
X2954Y6380D01*
X2969Y6382D01*
X2982Y6387D01*
X2994Y6396D01*
X3003Y6408D01*
X3009Y6422D01*
X3011Y6437D01*
X3009Y6452D01*
X3003Y6466D01*
X2994Y6478D01*
X2982Y6487D01*
X2969Y6492D01*
X2954Y6494D01*
D02*
G37*
G36*
X6511Y6273D02*
Y6260D01*
X6524D01*
X6519Y6268D01*
X6511Y6273D01*
D02*
G37*
G36*
X4399Y6346D02*
X4389Y6345D01*
X4379Y6341D01*
X4371Y6335D01*
X4364Y6326D01*
X4360Y6317D01*
X4359Y6306D01*
X4360Y6296D01*
X4364Y6286D01*
X4371Y6278D01*
X4379Y6271D01*
X4389Y6267D01*
X4399Y6266D01*
X4410Y6267D01*
X4419Y6271D01*
X4428Y6278D01*
X4434Y6286D01*
X4438Y6296D01*
X4440Y6306D01*
X4438Y6317D01*
X4434Y6326D01*
X4428Y6335D01*
X4419Y6341D01*
X4410Y6345D01*
X4399Y6346D01*
D02*
G37*
G36*
X6181Y6296D02*
X6173Y6295D01*
X6166Y6292D01*
X6160Y6288D01*
X6155Y6281D01*
X6152Y6274D01*
X6151Y6266D01*
X6152Y6258D01*
X6155Y6251D01*
X6160Y6245D01*
X6166Y6240D01*
X6173Y6237D01*
X6181Y6236D01*
X6189Y6237D01*
X6196Y6240D01*
X6202Y6245D01*
X6207Y6251D01*
X6210Y6258D01*
X6211Y6266D01*
X6210Y6274D01*
X6207Y6281D01*
X6202Y6288D01*
X6196Y6292D01*
X6189Y6295D01*
X6181Y6296D01*
D02*
G37*
G36*
X6491Y6273D02*
X6483Y6268D01*
X6477Y6260D01*
X6491D01*
Y6273D01*
D02*
G37*
G36*
X4439Y6446D02*
X4359D01*
Y6366D01*
X4439D01*
Y6446D01*
D02*
G37*
G36*
X2497Y6494D02*
X2482Y6492D01*
X2468Y6487D01*
X2456Y6478D01*
X2447Y6466D01*
X2442Y6452D01*
X2440Y6437D01*
X2442Y6422D01*
X2447Y6408D01*
X2456Y6396D01*
X2468Y6387D01*
X2482Y6382D01*
X2497Y6380D01*
X2512Y6382D01*
X2526Y6387D01*
X2538Y6396D01*
X2547Y6408D01*
X2552Y6422D01*
X2554Y6437D01*
X2552Y6452D01*
X2547Y6466D01*
X2538Y6478D01*
X2526Y6487D01*
X2512Y6492D01*
X2497Y6494D01*
D02*
G37*
G36*
X6299Y6406D02*
X6289Y6405D01*
X6279Y6401D01*
X6271Y6395D01*
X6264Y6386D01*
X6260Y6377D01*
X6259Y6366D01*
X6260Y6356D01*
X6264Y6346D01*
X6271Y6338D01*
X6279Y6331D01*
X6289Y6327D01*
X6299Y6326D01*
X6310Y6327D01*
X6319Y6331D01*
X6328Y6338D01*
X6334Y6346D01*
X6338Y6356D01*
X6340Y6366D01*
X6338Y6377D01*
X6334Y6386D01*
X6328Y6395D01*
X6319Y6401D01*
X6310Y6405D01*
X6299Y6406D01*
D02*
G37*
G36*
X6181Y6396D02*
X6173Y6395D01*
X6166Y6392D01*
X6160Y6388D01*
X6155Y6381D01*
X6152Y6374D01*
X6151Y6366D01*
X6152Y6358D01*
X6155Y6351D01*
X6160Y6345D01*
X6166Y6340D01*
X6173Y6337D01*
X6181Y6336D01*
X6189Y6337D01*
X6196Y6340D01*
X6202Y6345D01*
X6207Y6351D01*
X6210Y6358D01*
X6211Y6366D01*
X6210Y6374D01*
X6207Y6381D01*
X6202Y6388D01*
X6196Y6392D01*
X6189Y6395D01*
X6181Y6396D01*
D02*
G37*
G36*
X3544Y6821D02*
X3514D01*
Y6790D01*
X3515Y6790D01*
X3525Y6794D01*
X3534Y6801D01*
X3540Y6810D01*
X3544Y6820D01*
X3544Y6821D01*
D02*
G37*
G36*
X3494D02*
X3463D01*
X3464Y6820D01*
X3468Y6810D01*
X3474Y6801D01*
X3483Y6794D01*
X3493Y6790D01*
X3494Y6790D01*
Y6821D01*
D02*
G37*
G36*
X7185Y6801D02*
X7171D01*
X7177Y6793D01*
X7185Y6788D01*
Y6801D01*
D02*
G37*
G36*
X7218D02*
X7205D01*
Y6788D01*
X7213Y6793D01*
X7218Y6801D01*
D02*
G37*
G36*
X7185Y6834D02*
X7177Y6829D01*
X7171Y6821D01*
X7185D01*
Y6834D01*
D02*
G37*
G36*
X7205D02*
Y6821D01*
X7218D01*
X7213Y6829D01*
X7205Y6834D01*
D02*
G37*
G36*
X2962Y6880D02*
X2884D01*
Y6802D01*
X2891Y6802D01*
X2908Y6807D01*
X2924Y6816D01*
X2937Y6827D01*
X2948Y6840D01*
X2956Y6856D01*
X2961Y6872D01*
X2962Y6880D01*
D02*
G37*
G36*
X2864D02*
X2786D01*
X2787Y6872D01*
X2792Y6856D01*
X2800Y6840D01*
X2811Y6827D01*
X2824Y6816D01*
X2840Y6807D01*
X2857Y6802D01*
X2864Y6802D01*
Y6880D01*
D02*
G37*
G36*
X4075Y6837D02*
X4065Y6835D01*
X4057Y6829D01*
X4051Y6821D01*
X4049Y6811D01*
X4051Y6801D01*
X4057Y6793D01*
X4065Y6787D01*
X4075Y6786D01*
X4085Y6787D01*
X4093Y6793D01*
X4098Y6801D01*
X4100Y6811D01*
X4098Y6821D01*
X4093Y6829D01*
X4085Y6835D01*
X4075Y6837D01*
D02*
G37*
G36*
X6309Y6505D02*
Y6476D01*
X6338D01*
X6338Y6477D01*
X6334Y6486D01*
X6328Y6495D01*
X6319Y6501D01*
X6310Y6505D01*
X6309Y6505D01*
D02*
G37*
G36*
X6299Y6606D02*
X6289Y6605D01*
X6279Y6601D01*
X6271Y6595D01*
X6264Y6586D01*
X6260Y6577D01*
X6259Y6566D01*
X6260Y6556D01*
X6264Y6546D01*
X6271Y6538D01*
X6279Y6531D01*
X6289Y6527D01*
X6299Y6526D01*
X6310Y6527D01*
X6319Y6531D01*
X6328Y6538D01*
X6334Y6546D01*
X6338Y6556D01*
X6340Y6566D01*
X6338Y6577D01*
X6334Y6586D01*
X6328Y6595D01*
X6319Y6601D01*
X6310Y6605D01*
X6299Y6606D01*
D02*
G37*
G36*
X2617Y6476D02*
Y6447D01*
X2646D01*
X2646Y6447D01*
X2642Y6457D01*
X2636Y6465D01*
X2627Y6472D01*
X2618Y6476D01*
X2617Y6476D01*
D02*
G37*
G36*
X6289Y6505D02*
X6289Y6505D01*
X6279Y6501D01*
X6271Y6495D01*
X6264Y6486D01*
X6260Y6477D01*
X6260Y6476D01*
X6289D01*
Y6505D01*
D02*
G37*
G36*
X3024Y6744D02*
X3010Y6742D01*
X2997Y6736D01*
X2986Y6728D01*
X2977Y6717D01*
X2972Y6704D01*
X2970Y6690D01*
X2972Y6676D01*
X2977Y6663D01*
X2986Y6652D01*
X2997Y6643D01*
X3010Y6638D01*
X3024Y6636D01*
X3038Y6638D01*
X3051Y6643D01*
X3062Y6652D01*
X3070Y6663D01*
X3076Y6676D01*
X3077Y6690D01*
X3076Y6704D01*
X3070Y6717D01*
X3062Y6728D01*
X3051Y6736D01*
X3038Y6742D01*
X3024Y6744D01*
D02*
G37*
G36*
X6299Y6806D02*
X6289Y6805D01*
X6279Y6801D01*
X6271Y6795D01*
X6264Y6786D01*
X6260Y6777D01*
X6259Y6766D01*
X6260Y6756D01*
X6264Y6746D01*
X6271Y6738D01*
X6279Y6731D01*
X6289Y6727D01*
X6299Y6726D01*
X6310Y6727D01*
X6319Y6731D01*
X6328Y6738D01*
X6334Y6746D01*
X6338Y6756D01*
X6340Y6766D01*
X6338Y6777D01*
X6334Y6786D01*
X6328Y6795D01*
X6319Y6801D01*
X6310Y6805D01*
X6299Y6806D01*
D02*
G37*
G36*
Y6706D02*
X6289Y6705D01*
X6279Y6701D01*
X6271Y6695D01*
X6264Y6686D01*
X6260Y6677D01*
X6259Y6666D01*
X6260Y6656D01*
X6264Y6646D01*
X6271Y6638D01*
X6279Y6631D01*
X6289Y6627D01*
X6299Y6626D01*
X6310Y6627D01*
X6319Y6631D01*
X6328Y6638D01*
X6334Y6646D01*
X6338Y6656D01*
X6340Y6666D01*
X6338Y6677D01*
X6334Y6686D01*
X6328Y6695D01*
X6319Y6701D01*
X6310Y6705D01*
X6299Y6706D01*
D02*
G37*
G36*
X2624Y6744D02*
X2610Y6742D01*
X2597Y6736D01*
X2586Y6728D01*
X2577Y6717D01*
X2572Y6704D01*
X2570Y6690D01*
X2572Y6676D01*
X2577Y6663D01*
X2586Y6652D01*
X2597Y6643D01*
X2610Y6638D01*
X2624Y6636D01*
X2638Y6638D01*
X2651Y6643D01*
X2662Y6652D01*
X2670Y6663D01*
X2676Y6676D01*
X2677Y6690D01*
X2676Y6704D01*
X2670Y6717D01*
X2662Y6728D01*
X2651Y6736D01*
X2638Y6742D01*
X2624Y6744D01*
D02*
G37*
G36*
X6752Y7136D02*
X6738D01*
X6744Y7128D01*
X6752Y7122D01*
Y7136D01*
D02*
G37*
G36*
X4291Y7926D02*
X4282Y7924D01*
X4273Y7918D01*
X4268Y7910D01*
X4266Y7900D01*
X4268Y7891D01*
X4273Y7882D01*
X4282Y7877D01*
X4291Y7875D01*
X4301Y7877D01*
X4309Y7882D01*
X4315Y7891D01*
X4317Y7900D01*
X4315Y7910D01*
X4309Y7918D01*
X4301Y7924D01*
X4291Y7926D01*
D02*
G37*
G36*
X3976D02*
X3967Y7924D01*
X3958Y7918D01*
X3955Y7913D01*
X3949D01*
X3945Y7918D01*
X3937Y7924D01*
X3927Y7926D01*
X3917Y7924D01*
X3909Y7918D01*
X3904Y7910D01*
X3902Y7900D01*
X3904Y7891D01*
X3909Y7882D01*
X3917Y7877D01*
X3927Y7875D01*
X3937Y7877D01*
X3945Y7882D01*
X3949Y7888D01*
X3955D01*
X3958Y7882D01*
X3967Y7877D01*
X3976Y7875D01*
X3986Y7877D01*
X3994Y7882D01*
X4000Y7891D01*
X4002Y7900D01*
X4000Y7910D01*
X3994Y7918D01*
X3986Y7924D01*
X3976Y7926D01*
D02*
G37*
G36*
X3504Y7963D02*
X3489Y7961D01*
X3476Y7956D01*
X3464Y7947D01*
X3456Y7935D01*
X3450Y7922D01*
X3448Y7907D01*
X3450Y7893D01*
X3456Y7880D01*
X3464Y7868D01*
X3476Y7859D01*
X3489Y7854D01*
X3504Y7852D01*
X3518Y7854D01*
X3532Y7859D01*
X3543Y7868D01*
X3552Y7880D01*
X3558Y7893D01*
X3560Y7907D01*
X3558Y7922D01*
X3552Y7935D01*
X3543Y7947D01*
X3532Y7956D01*
X3518Y7961D01*
X3504Y7963D01*
D02*
G37*
G36*
X4232Y7926D02*
X4223Y7924D01*
X4214Y7918D01*
X4209Y7910D01*
X4207Y7900D01*
X4209Y7891D01*
X4214Y7882D01*
X4223Y7877D01*
X4232Y7875D01*
X4242Y7877D01*
X4250Y7882D01*
X4256Y7891D01*
X4258Y7900D01*
X4256Y7910D01*
X4250Y7918D01*
X4242Y7924D01*
X4232Y7926D01*
D02*
G37*
G36*
X6687Y7996D02*
X6679Y7991D01*
X6674Y7983D01*
X6687D01*
Y7996D01*
D02*
G37*
G36*
X6707D02*
Y7983D01*
X6721D01*
X6715Y7991D01*
X6707Y7996D01*
D02*
G37*
G36*
X6687Y7963D02*
X6674D01*
X6679Y7955D01*
X6687Y7949D01*
Y7963D01*
D02*
G37*
G36*
X6721D02*
X6707D01*
Y7949D01*
X6715Y7955D01*
X6721Y7963D01*
D02*
G37*
G36*
X3120Y7998D02*
X3110Y7996D01*
X3102Y7990D01*
X3097Y7982D01*
X3095Y7972D01*
X3097Y7963D01*
X3102Y7954D01*
X3110Y7949D01*
X3120Y7947D01*
X3130Y7949D01*
X3133Y7951D01*
X3139Y7949D01*
X3140Y7943D01*
X3145Y7935D01*
X3154Y7929D01*
X3154Y7929D01*
X3156Y7925D01*
X3155Y7922D01*
X3153Y7907D01*
X3155Y7893D01*
X3160Y7880D01*
X3169Y7868D01*
X3181Y7859D01*
X3194Y7854D01*
X3209Y7852D01*
X3223Y7854D01*
X3236Y7859D01*
X3248Y7868D01*
X3257Y7880D01*
X3262Y7893D01*
X3264Y7907D01*
X3262Y7922D01*
X3257Y7935D01*
X3248Y7947D01*
X3236Y7956D01*
X3223Y7961D01*
X3209Y7963D01*
X3194Y7961D01*
X3191Y7960D01*
X3187Y7962D01*
X3187Y7963D01*
X3181Y7971D01*
X3173Y7976D01*
X3163Y7978D01*
X3154Y7976D01*
X3150Y7974D01*
X3145Y7976D01*
X3144Y7982D01*
X3138Y7990D01*
X3130Y7996D01*
X3120Y7998D01*
D02*
G37*
G36*
X6447Y7761D02*
Y7732D01*
X6476D01*
X6476Y7733D01*
X6472Y7743D01*
X6466Y7751D01*
X6457Y7757D01*
X6447Y7761D01*
X6447Y7761D01*
D02*
G37*
G36*
X2624Y7892D02*
X2610Y7890D01*
X2597Y7884D01*
X2586Y7876D01*
X2577Y7865D01*
X2572Y7852D01*
X2570Y7838D01*
X2572Y7824D01*
X2577Y7811D01*
X2586Y7800D01*
X2597Y7791D01*
X2610Y7786D01*
X2624Y7784D01*
X2638Y7786D01*
X2651Y7791D01*
X2662Y7800D01*
X2670Y7811D01*
X2676Y7824D01*
X2677Y7838D01*
X2676Y7852D01*
X2670Y7865D01*
X2662Y7876D01*
X2651Y7884D01*
X2638Y7890D01*
X2624Y7892D01*
D02*
G37*
G36*
X6945Y7730D02*
Y7717D01*
X6958D01*
X6953Y7725D01*
X6945Y7730D01*
D02*
G37*
G36*
X6427Y7761D02*
X6427Y7761D01*
X6417Y7757D01*
X6408Y7751D01*
X6402Y7743D01*
X6398Y7733D01*
X6398Y7732D01*
X6427D01*
Y7761D01*
D02*
G37*
G36*
X4484Y7860D02*
X4475Y7858D01*
X4466Y7853D01*
X4461Y7844D01*
X4459Y7835D01*
X4461Y7825D01*
X4466Y7817D01*
X4475Y7811D01*
X4484Y7809D01*
X4494Y7811D01*
X4503Y7817D01*
X4508Y7825D01*
X4510Y7835D01*
X4508Y7844D01*
X4503Y7853D01*
X4494Y7858D01*
X4484Y7860D01*
D02*
G37*
G36*
X4870Y7914D02*
X4860Y7913D01*
X4850Y7909D01*
X4842Y7903D01*
X4835Y7894D01*
X4831Y7884D01*
X4830Y7874D01*
X4831Y7864D01*
X4835Y7854D01*
X4842Y7845D01*
X4850Y7839D01*
X4860Y7835D01*
X4870Y7834D01*
X4881Y7835D01*
X4890Y7839D01*
X4899Y7845D01*
X4905Y7854D01*
X4909Y7864D01*
X4910Y7874D01*
X4909Y7884D01*
X4905Y7894D01*
X4899Y7903D01*
X4890Y7909D01*
X4881Y7913D01*
X4870Y7914D01*
D02*
G37*
G36*
X3024Y7892D02*
X3010Y7890D01*
X2997Y7884D01*
X2986Y7876D01*
X2977Y7865D01*
X2972Y7852D01*
X2970Y7838D01*
X2972Y7824D01*
X2977Y7811D01*
X2986Y7800D01*
X2997Y7791D01*
X3010Y7786D01*
X3024Y7784D01*
X3038Y7786D01*
X3051Y7791D01*
X3062Y7800D01*
X3070Y7811D01*
X3076Y7824D01*
X3077Y7838D01*
X3076Y7852D01*
X3070Y7865D01*
X3062Y7876D01*
X3051Y7884D01*
X3038Y7890D01*
X3024Y7892D01*
D02*
G37*
G36*
X4173Y7860D02*
X4163Y7858D01*
X4155Y7853D01*
X4150Y7844D01*
X4148Y7835D01*
X4150Y7825D01*
X4155Y7817D01*
X4163Y7811D01*
X4173Y7809D01*
X4183Y7811D01*
X4191Y7817D01*
X4197Y7825D01*
X4199Y7835D01*
X4197Y7844D01*
X4191Y7853D01*
X4183Y7858D01*
X4173Y7860D01*
D02*
G37*
G36*
X8651Y8163D02*
X8644Y8162D01*
X8627Y8157D01*
X8612Y8149D01*
X8598Y8138D01*
X8587Y8124D01*
X8579Y8109D01*
X8574Y8092D01*
X8573Y8085D01*
X8651D01*
Y8163D01*
D02*
G37*
G36*
X8671D02*
Y8085D01*
X8750D01*
X8749Y8092D01*
X8744Y8109D01*
X8736Y8124D01*
X8724Y8138D01*
X8711Y8149D01*
X8696Y8157D01*
X8679Y8162D01*
X8671Y8163D01*
D02*
G37*
G36*
X1959Y8159D02*
X1951Y8158D01*
X1934Y8153D01*
X1919Y8145D01*
X1905Y8134D01*
X1894Y8120D01*
X1886Y8105D01*
X1881Y8088D01*
X1880Y8081D01*
X1959D01*
Y8159D01*
D02*
G37*
G36*
X1979D02*
Y8081D01*
X2057D01*
X2056Y8088D01*
X2051Y8105D01*
X2043Y8120D01*
X2032Y8134D01*
X2018Y8145D01*
X2003Y8153D01*
X1986Y8158D01*
X1979Y8159D01*
D02*
G37*
G36*
X5029Y8163D02*
X5021Y8158D01*
X5016Y8150D01*
X5029D01*
Y8163D01*
D02*
G37*
G36*
X5049D02*
Y8150D01*
X5063D01*
X5057Y8158D01*
X5049Y8163D01*
D02*
G37*
G36*
X5029Y8130D02*
X5016D01*
X5021Y8122D01*
X5029Y8116D01*
Y8130D01*
D02*
G37*
G36*
X5063D02*
X5049D01*
Y8116D01*
X5057Y8122D01*
X5063Y8130D01*
D02*
G37*
G36*
X6437Y8145D02*
X6427Y8143D01*
X6417Y8139D01*
X6408Y8133D01*
X6402Y8124D01*
X6398Y8115D01*
X6397Y8104D01*
X6398Y8094D01*
X6402Y8084D01*
X6408Y8076D01*
X6417Y8069D01*
X6427Y8065D01*
X6437Y8064D01*
X6447Y8065D01*
X6457Y8069D01*
X6466Y8076D01*
X6472Y8084D01*
X6476Y8094D01*
X6477Y8104D01*
X6476Y8115D01*
X6472Y8124D01*
X6466Y8133D01*
X6457Y8139D01*
X6447Y8143D01*
X6437Y8145D01*
D02*
G37*
G36*
X8651Y8065D02*
X8573D01*
X8574Y8057D01*
X8579Y8041D01*
X8587Y8025D01*
X8598Y8012D01*
X8612Y8001D01*
X8627Y7992D01*
X8644Y7987D01*
X8651Y7987D01*
Y8065D01*
D02*
G37*
G36*
X8750D02*
X8671D01*
Y7987D01*
X8679Y7987D01*
X8696Y7992D01*
X8711Y8001D01*
X8724Y8012D01*
X8736Y8025D01*
X8744Y8041D01*
X8749Y8057D01*
X8750Y8065D01*
D02*
G37*
G36*
X1959Y8061D02*
X1880D01*
X1881Y8053D01*
X1886Y8037D01*
X1894Y8021D01*
X1905Y8008D01*
X1919Y7997D01*
X1934Y7988D01*
X1951Y7983D01*
X1959Y7983D01*
Y8061D01*
D02*
G37*
G36*
X2057D02*
X1979D01*
Y7983D01*
X1986Y7983D01*
X2003Y7988D01*
X2018Y7997D01*
X2032Y8008D01*
X2043Y8021D01*
X2051Y8037D01*
X2056Y8053D01*
X2057Y8061D01*
D02*
G37*
G36*
X5236Y8145D02*
X5226Y8143D01*
X5216Y8139D01*
X5208Y8133D01*
X5201Y8124D01*
X5197Y8115D01*
X5196Y8104D01*
X5197Y8094D01*
X5201Y8084D01*
X5208Y8076D01*
X5216Y8069D01*
X5226Y8065D01*
X5236Y8064D01*
X5247Y8065D01*
X5256Y8069D01*
X5265Y8076D01*
X5271Y8084D01*
X5275Y8094D01*
X5277Y8104D01*
X5275Y8115D01*
X5271Y8124D01*
X5265Y8133D01*
X5256Y8139D01*
X5247Y8143D01*
X5236Y8145D01*
D02*
G37*
G36*
X5787Y8145D02*
X5777Y8143D01*
X5767Y8139D01*
X5759Y8133D01*
X5752Y8124D01*
X5748Y8115D01*
X5747Y8104D01*
X5748Y8094D01*
X5752Y8084D01*
X5759Y8076D01*
X5767Y8069D01*
X5777Y8065D01*
X5787Y8064D01*
X5798Y8065D01*
X5808Y8069D01*
X5816Y8076D01*
X5822Y8084D01*
X5826Y8094D01*
X5828Y8104D01*
X5826Y8115D01*
X5822Y8124D01*
X5816Y8133D01*
X5808Y8139D01*
X5798Y8143D01*
X5787Y8145D01*
D02*
G37*
G36*
X3209Y8160D02*
X3194Y8158D01*
X3181Y8153D01*
X3169Y8144D01*
X3160Y8132D01*
X3155Y8119D01*
X3153Y8104D01*
X3155Y8090D01*
X3160Y8076D01*
X3169Y8065D01*
X3181Y8056D01*
X3194Y8050D01*
X3209Y8049D01*
X3223Y8050D01*
X3236Y8056D01*
X3248Y8065D01*
X3257Y8076D01*
X3262Y8090D01*
X3264Y8104D01*
X3262Y8119D01*
X3257Y8132D01*
X3248Y8144D01*
X3236Y8153D01*
X3223Y8158D01*
X3209Y8160D01*
D02*
G37*
G36*
X3504D02*
X3489Y8158D01*
X3476Y8153D01*
X3464Y8144D01*
X3456Y8132D01*
X3450Y8119D01*
X3448Y8104D01*
X3450Y8090D01*
X3456Y8076D01*
X3464Y8065D01*
X3476Y8056D01*
X3489Y8050D01*
X3504Y8049D01*
X3518Y8050D01*
X3532Y8056D01*
X3543Y8065D01*
X3552Y8076D01*
X3558Y8090D01*
X3560Y8104D01*
X3558Y8119D01*
X3552Y8132D01*
X3543Y8144D01*
X3532Y8153D01*
X3518Y8158D01*
X3504Y8160D01*
D02*
G37*
G36*
X6978Y7401D02*
X6965D01*
X6970Y7393D01*
X6978Y7388D01*
Y7401D01*
D02*
G37*
G36*
X7012D02*
X6998D01*
Y7388D01*
X7006Y7393D01*
X7012Y7401D01*
D02*
G37*
G36*
X2624Y7492D02*
X2610Y7490D01*
X2597Y7484D01*
X2586Y7476D01*
X2577Y7465D01*
X2572Y7452D01*
X2570Y7438D01*
X2572Y7424D01*
X2577Y7411D01*
X2586Y7400D01*
X2597Y7391D01*
X2610Y7386D01*
X2624Y7384D01*
X2638Y7386D01*
X2651Y7391D01*
X2662Y7400D01*
X2670Y7411D01*
X2676Y7424D01*
X2677Y7438D01*
X2676Y7452D01*
X2670Y7465D01*
X2662Y7476D01*
X2651Y7484D01*
X2638Y7490D01*
X2624Y7492D01*
D02*
G37*
G36*
X3024D02*
X3010Y7490D01*
X2997Y7484D01*
X2986Y7476D01*
X2977Y7465D01*
X2972Y7452D01*
X2970Y7438D01*
X2972Y7424D01*
X2977Y7411D01*
X2986Y7400D01*
X2997Y7391D01*
X3010Y7386D01*
X3024Y7384D01*
X3038Y7386D01*
X3051Y7391D01*
X3062Y7400D01*
X3070Y7411D01*
X3076Y7424D01*
X3077Y7438D01*
X3076Y7452D01*
X3070Y7465D01*
X3062Y7476D01*
X3051Y7484D01*
X3038Y7490D01*
X3024Y7492D01*
D02*
G37*
G36*
X6427Y7435D02*
X6427Y7435D01*
X6417Y7431D01*
X6408Y7424D01*
X6402Y7416D01*
X6398Y7406D01*
X6398Y7406D01*
X6427D01*
Y7435D01*
D02*
G37*
G36*
X6447D02*
Y7406D01*
X6476D01*
X6476Y7406D01*
X6472Y7416D01*
X6466Y7424D01*
X6457Y7431D01*
X6447Y7435D01*
X6447Y7435D01*
D02*
G37*
G36*
X3828Y7598D02*
X3809Y7596D01*
X3791Y7591D01*
X3774Y7582D01*
X3759Y7570D01*
X3747Y7555D01*
X3738Y7538D01*
X3732Y7519D01*
X3730Y7500D01*
X3732Y7481D01*
X3738Y7463D01*
X3747Y7446D01*
X3759Y7431D01*
X3774Y7419D01*
X3791Y7410D01*
X3809Y7404D01*
X3828Y7402D01*
X3847Y7404D01*
X3866Y7410D01*
X3883Y7419D01*
X3898Y7431D01*
X3910Y7446D01*
X3919Y7463D01*
X3924Y7481D01*
X3926Y7500D01*
X3924Y7519D01*
X3919Y7538D01*
X3910Y7555D01*
X3898Y7570D01*
X3883Y7582D01*
X3866Y7591D01*
X3847Y7596D01*
X3828Y7598D01*
D02*
G37*
G36*
X8631D02*
X8612Y7596D01*
X8594Y7591D01*
X8577Y7582D01*
X8562Y7570D01*
X8550Y7555D01*
X8541Y7538D01*
X8535Y7519D01*
X8534Y7500D01*
X8535Y7481D01*
X8541Y7463D01*
X8550Y7446D01*
X8562Y7431D01*
X8577Y7419D01*
X8594Y7410D01*
X8612Y7404D01*
X8631Y7402D01*
X8651Y7404D01*
X8669Y7410D01*
X8686Y7419D01*
X8701Y7431D01*
X8713Y7446D01*
X8722Y7463D01*
X8728Y7481D01*
X8729Y7500D01*
X8728Y7519D01*
X8722Y7538D01*
X8713Y7555D01*
X8701Y7570D01*
X8686Y7582D01*
X8669Y7591D01*
X8651Y7596D01*
X8631Y7598D01*
D02*
G37*
G36*
X6476Y7386D02*
X6447D01*
Y7357D01*
X6447Y7357D01*
X6457Y7361D01*
X6466Y7367D01*
X6472Y7375D01*
X6476Y7385D01*
X6476Y7386D01*
D02*
G37*
G36*
X6772Y7169D02*
Y7156D01*
X6785D01*
X6780Y7164D01*
X6772Y7169D01*
D02*
G37*
G36*
X4823Y7247D02*
X4812Y7245D01*
X4802Y7241D01*
X4793Y7234D01*
X4787Y7226D01*
X4782Y7216D01*
X4781Y7205D01*
X4782Y7194D01*
X4787Y7184D01*
X4793Y7175D01*
X4802Y7168D01*
X4812Y7164D01*
X4823Y7163D01*
X4834Y7164D01*
X4844Y7168D01*
X4852Y7175D01*
X4859Y7184D01*
X4863Y7194D01*
X4865Y7205D01*
X4863Y7216D01*
X4859Y7226D01*
X4852Y7234D01*
X4844Y7241D01*
X4834Y7245D01*
X4823Y7247D01*
D02*
G37*
G36*
X6785Y7136D02*
X6772D01*
Y7122D01*
X6780Y7128D01*
X6785Y7136D01*
D02*
G37*
G36*
X6752Y7169D02*
X6744Y7164D01*
X6738Y7156D01*
X6752D01*
Y7169D01*
D02*
G37*
G36*
X4869Y7403D02*
X4858Y7401D01*
X4848Y7397D01*
X4840Y7391D01*
X4834Y7382D01*
X4830Y7373D01*
X4828Y7362D01*
X4830Y7352D01*
X4834Y7342D01*
X4840Y7334D01*
X4848Y7327D01*
X4858Y7323D01*
X4869Y7322D01*
X4879Y7323D01*
X4889Y7327D01*
X4897Y7334D01*
X4903Y7342D01*
X4907Y7352D01*
X4909Y7362D01*
X4907Y7373D01*
X4903Y7382D01*
X4897Y7391D01*
X4889Y7397D01*
X4879Y7401D01*
X4869Y7403D01*
D02*
G37*
G36*
X6427Y7386D02*
X6398D01*
X6398Y7385D01*
X6402Y7375D01*
X6408Y7367D01*
X6417Y7361D01*
X6427Y7357D01*
X6427Y7357D01*
Y7386D01*
D02*
G37*
G36*
X4764Y7246D02*
X4681D01*
Y7163D01*
X4764D01*
Y7246D01*
D02*
G37*
G36*
X4301Y7250D02*
X4291Y7248D01*
X4283Y7242D01*
X4280Y7237D01*
X4274D01*
X4270Y7242D01*
X4262Y7248D01*
X4252Y7250D01*
X4242Y7248D01*
X4234Y7242D01*
X4228Y7234D01*
X4226Y7224D01*
X4228Y7215D01*
X4234Y7206D01*
X4242Y7201D01*
X4252Y7199D01*
X4262Y7201D01*
X4270Y7206D01*
X4274Y7212D01*
X4280D01*
X4283Y7206D01*
X4291Y7201D01*
X4301Y7199D01*
X4311Y7201D01*
X4319Y7206D01*
X4325Y7215D01*
X4327Y7224D01*
X4325Y7234D01*
X4319Y7242D01*
X4311Y7248D01*
X4301Y7250D01*
D02*
G37*
G36*
X6476Y7712D02*
X6447D01*
Y7683D01*
X6447Y7683D01*
X6457Y7688D01*
X6466Y7694D01*
X6472Y7702D01*
X6476Y7712D01*
X6476Y7712D01*
D02*
G37*
G36*
X4824Y7778D02*
X4814Y7777D01*
X4803Y7772D01*
X4795Y7766D01*
X4788Y7757D01*
X4784Y7747D01*
X4783Y7736D01*
X4784Y7725D01*
X4788Y7715D01*
X4795Y7707D01*
X4803Y7700D01*
X4814Y7696D01*
X4824Y7694D01*
X4835Y7696D01*
X4845Y7700D01*
X4854Y7707D01*
X4861Y7715D01*
X4865Y7725D01*
X4866Y7736D01*
X4865Y7747D01*
X4861Y7757D01*
X4854Y7766D01*
X4845Y7772D01*
X4835Y7777D01*
X4824Y7778D01*
D02*
G37*
G36*
X6958Y7697D02*
X6945D01*
Y7683D01*
X6953Y7689D01*
X6958Y7697D01*
D02*
G37*
G36*
X6427Y7712D02*
X6398D01*
X6398Y7712D01*
X6402Y7702D01*
X6408Y7694D01*
X6417Y7688D01*
X6427Y7683D01*
X6427Y7683D01*
Y7712D01*
D02*
G37*
G36*
X4379Y7725D02*
Y7711D01*
X4392D01*
X4387Y7719D01*
X4379Y7725D01*
D02*
G37*
G36*
X6925Y7730D02*
X6917Y7725D01*
X6912Y7717D01*
X6925D01*
Y7730D01*
D02*
G37*
G36*
X4766Y7778D02*
X4683D01*
Y7695D01*
X4766D01*
Y7778D01*
D02*
G37*
G36*
X4359Y7725D02*
X4351Y7719D01*
X4345Y7711D01*
X4359D01*
Y7725D01*
D02*
G37*
G36*
X6925Y7697D02*
X6912D01*
X6917Y7689D01*
X6925Y7683D01*
Y7697D01*
D02*
G37*
G36*
X2874Y7727D02*
X2857Y7725D01*
X2840Y7720D01*
X2824Y7712D01*
X2811Y7701D01*
X2800Y7687D01*
X2792Y7672D01*
X2787Y7655D01*
X2785Y7638D01*
X2787Y7620D01*
X2792Y7604D01*
X2800Y7588D01*
X2811Y7575D01*
X2824Y7564D01*
X2840Y7555D01*
X2857Y7550D01*
X2874Y7549D01*
X2891Y7550D01*
X2908Y7555D01*
X2924Y7564D01*
X2937Y7575D01*
X2948Y7588D01*
X2956Y7604D01*
X2961Y7620D01*
X2963Y7638D01*
X2961Y7655D01*
X2956Y7672D01*
X2948Y7687D01*
X2937Y7701D01*
X2924Y7712D01*
X2908Y7720D01*
X2891Y7725D01*
X2874Y7727D01*
D02*
G37*
G36*
X4173Y7683D02*
X4163Y7681D01*
X4155Y7676D01*
X4150Y7667D01*
X4148Y7657D01*
X4150Y7648D01*
X4155Y7639D01*
X4163Y7634D01*
X4173Y7632D01*
X4183Y7634D01*
X4191Y7639D01*
X4197Y7648D01*
X4199Y7657D01*
X4197Y7667D01*
X4191Y7676D01*
X4183Y7681D01*
X4173Y7683D01*
D02*
G37*
G36*
X6978Y7435D02*
X6970Y7429D01*
X6965Y7421D01*
X6978D01*
Y7435D01*
D02*
G37*
G36*
X6998D02*
Y7421D01*
X7012D01*
X7006Y7429D01*
X6998Y7435D01*
D02*
G37*
G36*
X4359Y7691D02*
X4345D01*
X4351Y7683D01*
X4359Y7678D01*
Y7691D01*
D02*
G37*
G36*
X4392D02*
X4379D01*
Y7678D01*
X4387Y7683D01*
X4392Y7691D01*
D02*
G37*
G36*
X3209Y7766D02*
X3194Y7764D01*
X3181Y7759D01*
X3169Y7750D01*
X3160Y7739D01*
X3155Y7725D01*
X3153Y7711D01*
X3155Y7696D01*
X3160Y7683D01*
X3169Y7671D01*
X3181Y7662D01*
X3194Y7657D01*
X3209Y7655D01*
X3223Y7657D01*
X3236Y7662D01*
X3248Y7671D01*
X3257Y7683D01*
X3262Y7696D01*
X3264Y7711D01*
X3262Y7725D01*
X3257Y7739D01*
X3248Y7750D01*
X3236Y7759D01*
X3223Y7764D01*
X3209Y7766D01*
D02*
G37*
G36*
X3504D02*
X3489Y7764D01*
X3476Y7759D01*
X3464Y7750D01*
X3456Y7739D01*
X3450Y7725D01*
X3448Y7711D01*
X3450Y7696D01*
X3456Y7683D01*
X3464Y7671D01*
X3476Y7662D01*
X3489Y7657D01*
X3504Y7655D01*
X3518Y7657D01*
X3532Y7662D01*
X3543Y7671D01*
X3552Y7683D01*
X3558Y7696D01*
X3560Y7711D01*
X3558Y7725D01*
X3552Y7739D01*
X3543Y7750D01*
X3532Y7759D01*
X3518Y7764D01*
X3504Y7766D01*
D02*
G37*
G36*
X3268Y5183D02*
X3258Y5181D01*
X3250Y5176D01*
X3244Y5167D01*
X3242Y5157D01*
X3244Y5148D01*
X3250Y5139D01*
X3258Y5134D01*
X3268Y5132D01*
X3277Y5134D01*
X3286Y5139D01*
X3291Y5148D01*
X3293Y5157D01*
X3291Y5167D01*
X3286Y5176D01*
X3277Y5181D01*
X3268Y5183D01*
D02*
G37*
G36*
X4035Y5232D02*
X4026Y5230D01*
X4017Y5224D01*
X4012Y5216D01*
X4010Y5206D01*
X4012Y5196D01*
X4017Y5188D01*
X4022Y5185D01*
Y5179D01*
X4017Y5176D01*
X4012Y5167D01*
X4010Y5157D01*
X4012Y5148D01*
X4017Y5139D01*
X4026Y5134D01*
X4035Y5132D01*
X4045Y5134D01*
X4053Y5139D01*
X4059Y5148D01*
X4061Y5157D01*
X4059Y5167D01*
X4053Y5176D01*
X4049Y5179D01*
Y5185D01*
X4053Y5188D01*
X4059Y5196D01*
X4061Y5206D01*
X4059Y5216D01*
X4053Y5224D01*
X4045Y5230D01*
X4035Y5232D01*
D02*
G37*
G36*
X4399Y5146D02*
X4389Y5145D01*
X4379Y5141D01*
X4371Y5135D01*
X4364Y5126D01*
X4360Y5117D01*
X4359Y5106D01*
X4360Y5096D01*
X4364Y5086D01*
X4371Y5078D01*
X4379Y5071D01*
X4389Y5067D01*
X4399Y5066D01*
X4410Y5067D01*
X4419Y5071D01*
X4428Y5078D01*
X4434Y5086D01*
X4438Y5096D01*
X4440Y5106D01*
X4438Y5117D01*
X4434Y5126D01*
X4428Y5135D01*
X4419Y5141D01*
X4410Y5145D01*
X4399Y5146D01*
D02*
G37*
G36*
X6299D02*
X6289Y5145D01*
X6279Y5141D01*
X6271Y5135D01*
X6264Y5126D01*
X6260Y5117D01*
X6259Y5106D01*
X6260Y5096D01*
X6264Y5086D01*
X6271Y5078D01*
X6279Y5071D01*
X6289Y5067D01*
X6299Y5066D01*
X6310Y5067D01*
X6319Y5071D01*
X6328Y5078D01*
X6334Y5086D01*
X6338Y5096D01*
X6340Y5106D01*
X6338Y5117D01*
X6334Y5126D01*
X6328Y5135D01*
X6319Y5141D01*
X6310Y5145D01*
X6299Y5146D01*
D02*
G37*
G36*
X6497Y5196D02*
X6467D01*
Y5166D01*
X6468Y5166D01*
X6478Y5170D01*
X6486Y5177D01*
X6493Y5185D01*
X6497Y5195D01*
X6497Y5196D01*
D02*
G37*
G36*
X6299Y5246D02*
X6289Y5245D01*
X6279Y5241D01*
X6271Y5235D01*
X6264Y5226D01*
X6260Y5217D01*
X6259Y5206D01*
X6260Y5196D01*
X6264Y5186D01*
X6271Y5178D01*
X6279Y5171D01*
X6289Y5167D01*
X6299Y5166D01*
X6310Y5167D01*
X6319Y5171D01*
X6328Y5178D01*
X6334Y5186D01*
X6338Y5196D01*
X6340Y5206D01*
X6338Y5217D01*
X6334Y5226D01*
X6328Y5235D01*
X6319Y5241D01*
X6310Y5245D01*
X6299Y5246D01*
D02*
G37*
G36*
X2874Y5325D02*
X2857Y5324D01*
X2840Y5319D01*
X2824Y5310D01*
X2811Y5299D01*
X2800Y5286D01*
X2792Y5270D01*
X2787Y5254D01*
X2785Y5236D01*
X2787Y5219D01*
X2792Y5202D01*
X2800Y5187D01*
X2811Y5173D01*
X2824Y5162D01*
X2840Y5154D01*
X2857Y5149D01*
X2874Y5147D01*
X2891Y5149D01*
X2908Y5154D01*
X2924Y5162D01*
X2937Y5173D01*
X2948Y5187D01*
X2956Y5202D01*
X2961Y5219D01*
X2963Y5236D01*
X2961Y5254D01*
X2956Y5270D01*
X2948Y5286D01*
X2937Y5299D01*
X2924Y5310D01*
X2908Y5319D01*
X2891Y5324D01*
X2874Y5325D01*
D02*
G37*
G36*
X6447Y5196D02*
X6416D01*
X6416Y5195D01*
X6420Y5185D01*
X6427Y5177D01*
X6436Y5170D01*
X6446Y5166D01*
X6447Y5166D01*
Y5196D01*
D02*
G37*
G36*
X6457Y5148D02*
X6446Y5147D01*
X6436Y5142D01*
X6427Y5136D01*
X6420Y5127D01*
X6416Y5117D01*
X6415Y5106D01*
X6416Y5095D01*
X6420Y5085D01*
X6427Y5077D01*
X6436Y5070D01*
X6446Y5066D01*
X6457Y5064D01*
X6468Y5066D01*
X6478Y5070D01*
X6486Y5077D01*
X6493Y5085D01*
X6497Y5095D01*
X6499Y5106D01*
X6497Y5117D01*
X6493Y5127D01*
X6486Y5136D01*
X6478Y5142D01*
X6468Y5147D01*
X6457Y5148D01*
D02*
G37*
G36*
X5276Y5046D02*
X5265Y5045D01*
X5255Y5041D01*
X5247Y5035D01*
X5241Y5026D01*
X5237Y5017D01*
X5235Y5006D01*
X5237Y4996D01*
X5241Y4986D01*
X5247Y4978D01*
X5255Y4971D01*
X5265Y4967D01*
X5276Y4966D01*
X5286Y4967D01*
X5296Y4971D01*
X5304Y4978D01*
X5311Y4986D01*
X5315Y4996D01*
X5316Y5006D01*
X5315Y5017D01*
X5311Y5026D01*
X5304Y5035D01*
X5296Y5041D01*
X5286Y5045D01*
X5276Y5046D01*
D02*
G37*
G36*
X4399Y5046D02*
X4389Y5045D01*
X4379Y5041D01*
X4371Y5035D01*
X4364Y5026D01*
X4360Y5017D01*
X4359Y5006D01*
X4360Y4996D01*
X4364Y4986D01*
X4371Y4978D01*
X4379Y4971D01*
X4389Y4967D01*
X4399Y4966D01*
X4410Y4967D01*
X4419Y4971D01*
X4428Y4978D01*
X4434Y4986D01*
X4438Y4996D01*
X4440Y5006D01*
X4438Y5017D01*
X4434Y5026D01*
X4428Y5035D01*
X4419Y5041D01*
X4410Y5045D01*
X4399Y5046D01*
D02*
G37*
G36*
X4921Y5040D02*
X4911Y5039D01*
X4901Y5035D01*
X4893Y5029D01*
X4886Y5020D01*
X4882Y5010D01*
X4881Y5000D01*
X4882Y4990D01*
X4886Y4980D01*
X4893Y4971D01*
X4901Y4965D01*
X4911Y4961D01*
X4921Y4960D01*
X4932Y4961D01*
X4941Y4965D01*
X4950Y4971D01*
X4956Y4980D01*
X4960Y4990D01*
X4962Y5000D01*
X4960Y5010D01*
X4956Y5020D01*
X4950Y5029D01*
X4941Y5035D01*
X4932Y5039D01*
X4921Y5040D01*
D02*
G37*
G36*
X6498Y5048D02*
X6415D01*
Y4965D01*
X6498D01*
Y5048D01*
D02*
G37*
G36*
X3024Y5090D02*
X3010Y5088D01*
X2997Y5083D01*
X2986Y5074D01*
X2977Y5063D01*
X2972Y5050D01*
X2970Y5036D01*
X2972Y5022D01*
X2977Y5009D01*
X2986Y4998D01*
X2997Y4990D01*
X3010Y4984D01*
X3024Y4982D01*
X3038Y4984D01*
X3051Y4990D01*
X3062Y4998D01*
X3070Y5009D01*
X3076Y5022D01*
X3077Y5036D01*
X3076Y5050D01*
X3070Y5063D01*
X3062Y5074D01*
X3051Y5083D01*
X3038Y5088D01*
X3024Y5090D01*
D02*
G37*
G36*
X3543Y5099D02*
X3533Y5097D01*
X3525Y5091D01*
X3519Y5083D01*
X3517Y5073D01*
X3519Y5064D01*
X3525Y5055D01*
X3533Y5050D01*
X3543Y5048D01*
X3552Y5050D01*
X3561Y5055D01*
X3566Y5064D01*
X3568Y5073D01*
X3566Y5083D01*
X3561Y5091D01*
X3552Y5097D01*
X3543Y5099D01*
D02*
G37*
G36*
X6339Y5046D02*
X6259D01*
Y4966D01*
X6339D01*
Y5046D01*
D02*
G37*
G36*
X2624Y5090D02*
X2610Y5088D01*
X2597Y5083D01*
X2586Y5074D01*
X2577Y5063D01*
X2572Y5050D01*
X2570Y5036D01*
X2572Y5022D01*
X2577Y5009D01*
X2586Y4998D01*
X2597Y4990D01*
X2610Y4984D01*
X2624Y4982D01*
X2638Y4984D01*
X2651Y4990D01*
X2662Y4998D01*
X2670Y5009D01*
X2676Y5022D01*
X2677Y5036D01*
X2676Y5050D01*
X2670Y5063D01*
X2662Y5074D01*
X2651Y5083D01*
X2638Y5088D01*
X2624Y5090D01*
D02*
G37*
G36*
X6299Y5346D02*
X6289Y5345D01*
X6279Y5341D01*
X6271Y5335D01*
X6264Y5326D01*
X6260Y5317D01*
X6259Y5306D01*
X6260Y5296D01*
X6264Y5286D01*
X6271Y5278D01*
X6279Y5271D01*
X6289Y5267D01*
X6299Y5266D01*
X6310Y5267D01*
X6319Y5271D01*
X6328Y5278D01*
X6334Y5286D01*
X6338Y5296D01*
X6340Y5306D01*
X6338Y5317D01*
X6334Y5326D01*
X6328Y5335D01*
X6319Y5341D01*
X6310Y5345D01*
X6299Y5346D01*
D02*
G37*
G36*
X6181Y5336D02*
X6173Y5335D01*
X6166Y5332D01*
X6160Y5328D01*
X6155Y5321D01*
X6152Y5314D01*
X6151Y5306D01*
X6152Y5298D01*
X6155Y5291D01*
X6160Y5285D01*
X6166Y5280D01*
X6173Y5277D01*
X6181Y5276D01*
X6189Y5277D01*
X6196Y5280D01*
X6202Y5285D01*
X6207Y5291D01*
X6210Y5298D01*
X6211Y5306D01*
X6210Y5314D01*
X6207Y5321D01*
X6202Y5328D01*
X6196Y5332D01*
X6189Y5335D01*
X6181Y5336D01*
D02*
G37*
G36*
X3780Y5345D02*
X3769Y5344D01*
X3759Y5340D01*
X3750Y5333D01*
X3743Y5324D01*
X3739Y5314D01*
X3738Y5304D01*
X3739Y5293D01*
X3743Y5283D01*
X3750Y5274D01*
X3759Y5267D01*
X3769Y5263D01*
X3780Y5262D01*
X3790Y5263D01*
X3800Y5267D01*
X3809Y5274D01*
X3816Y5283D01*
X3820Y5293D01*
X3821Y5304D01*
X3820Y5314D01*
X3816Y5324D01*
X3809Y5333D01*
X3800Y5340D01*
X3790Y5344D01*
X3780Y5345D01*
D02*
G37*
G36*
X4399Y5346D02*
X4389Y5345D01*
X4379Y5341D01*
X4371Y5335D01*
X4364Y5326D01*
X4360Y5317D01*
X4359Y5306D01*
X4360Y5296D01*
X4364Y5286D01*
X4371Y5278D01*
X4379Y5271D01*
X4389Y5267D01*
X4399Y5266D01*
X4410Y5267D01*
X4419Y5271D01*
X4428Y5278D01*
X4434Y5286D01*
X4438Y5296D01*
X4440Y5306D01*
X4438Y5317D01*
X4434Y5326D01*
X4428Y5335D01*
X4419Y5341D01*
X4410Y5345D01*
X4399Y5346D01*
D02*
G37*
G36*
X4872Y5303D02*
Y5289D01*
X4886D01*
X4880Y5297D01*
X4872Y5303D01*
D02*
G37*
G36*
X3821Y5445D02*
X3738D01*
Y5362D01*
X3821D01*
Y5445D01*
D02*
G37*
G36*
X4075Y5332D02*
X4065Y5330D01*
X4057Y5324D01*
X4051Y5316D01*
X4049Y5306D01*
X4051Y5296D01*
X4057Y5288D01*
X4065Y5283D01*
X4075Y5281D01*
X4085Y5283D01*
X4093Y5288D01*
X4098Y5296D01*
X4100Y5306D01*
X4098Y5316D01*
X4093Y5324D01*
X4085Y5330D01*
X4075Y5332D01*
D02*
G37*
G36*
X4852Y5303D02*
X4844Y5297D01*
X4839Y5289D01*
X4852D01*
Y5303D01*
D02*
G37*
G36*
X4886Y5269D02*
X4872D01*
Y5256D01*
X4880Y5261D01*
X4886Y5269D01*
D02*
G37*
G36*
X7606Y5293D02*
X7592Y5291D01*
X7579Y5286D01*
X7568Y5277D01*
X7560Y5266D01*
X7554Y5253D01*
X7553Y5239D01*
X7554Y5225D01*
X7560Y5212D01*
X7568Y5201D01*
X7579Y5193D01*
X7592Y5187D01*
X7606Y5186D01*
X7620Y5187D01*
X7633Y5193D01*
X7644Y5201D01*
X7653Y5212D01*
X7658Y5225D01*
X7660Y5239D01*
X7658Y5253D01*
X7653Y5266D01*
X7644Y5277D01*
X7633Y5286D01*
X7620Y5291D01*
X7606Y5293D01*
D02*
G37*
G36*
X8006D02*
X7992Y5291D01*
X7979Y5286D01*
X7968Y5277D01*
X7960Y5266D01*
X7954Y5253D01*
X7953Y5239D01*
X7954Y5225D01*
X7960Y5212D01*
X7968Y5201D01*
X7979Y5193D01*
X7992Y5187D01*
X8006Y5186D01*
X8020Y5187D01*
X8033Y5193D01*
X8044Y5201D01*
X8053Y5212D01*
X8058Y5225D01*
X8060Y5239D01*
X8058Y5253D01*
X8053Y5266D01*
X8044Y5277D01*
X8033Y5286D01*
X8020Y5291D01*
X8006Y5293D01*
D02*
G37*
G36*
X4399Y5246D02*
X4389Y5245D01*
X4379Y5241D01*
X4371Y5235D01*
X4364Y5226D01*
X4360Y5217D01*
X4359Y5206D01*
X4360Y5196D01*
X4364Y5186D01*
X4371Y5178D01*
X4379Y5171D01*
X4389Y5167D01*
X4399Y5166D01*
X4410Y5167D01*
X4419Y5171D01*
X4428Y5178D01*
X4433Y5184D01*
X4438Y5185D01*
X4439Y5184D01*
X4442Y5180D01*
X4450Y5175D01*
Y5198D01*
Y5221D01*
X4443Y5217D01*
X4442Y5217D01*
X4439Y5218D01*
X4437Y5218D01*
X4434Y5226D01*
X4428Y5235D01*
X4419Y5241D01*
X4410Y5245D01*
X4399Y5246D01*
D02*
G37*
G36*
X4483Y5188D02*
X4470D01*
Y5175D01*
X4478Y5180D01*
X4483Y5188D01*
D02*
G37*
G36*
X6467Y5247D02*
Y5216D01*
X6497D01*
X6497Y5217D01*
X6493Y5227D01*
X6486Y5236D01*
X6478Y5242D01*
X6468Y5247D01*
X6467Y5247D01*
D02*
G37*
G36*
X4852Y5269D02*
X4839D01*
X4844Y5261D01*
X4852Y5256D01*
Y5269D01*
D02*
G37*
G36*
X4470Y5221D02*
Y5208D01*
X4483D01*
X4478Y5216D01*
X4470Y5221D01*
D02*
G37*
G36*
X6447Y5247D02*
X6446Y5247D01*
X6436Y5242D01*
X6427Y5236D01*
X6420Y5227D01*
X6416Y5217D01*
X6416Y5216D01*
X6447D01*
Y5247D01*
D02*
G37*
G36*
X5285Y4583D02*
X5276Y4581D01*
X5267Y4575D01*
X5262Y4567D01*
X5260Y4557D01*
X5262Y4547D01*
X5267Y4539D01*
X5276Y4534D01*
X5285Y4532D01*
X5295Y4534D01*
X5303Y4539D01*
X5309Y4547D01*
X5311Y4557D01*
X5309Y4567D01*
X5303Y4575D01*
X5295Y4581D01*
X5285Y4583D01*
D02*
G37*
G36*
X5640D02*
X5630Y4581D01*
X5622Y4575D01*
X5616Y4567D01*
X5614Y4557D01*
X5616Y4547D01*
X5622Y4539D01*
X5630Y4534D01*
X5640Y4532D01*
X5650Y4534D01*
X5658Y4539D01*
X5663Y4547D01*
X5665Y4557D01*
X5663Y4567D01*
X5658Y4575D01*
X5650Y4581D01*
X5640Y4583D01*
D02*
G37*
G36*
X1959Y4535D02*
Y4482D01*
X2011D01*
X2011Y4485D01*
X2007Y4497D01*
X2002Y4508D01*
X1994Y4517D01*
X1984Y4525D01*
X1973Y4531D01*
X1961Y4535D01*
X1959Y4535D01*
D02*
G37*
G36*
X4941Y4583D02*
X4931Y4581D01*
X4923Y4575D01*
X4917Y4567D01*
X4915Y4557D01*
X4917Y4547D01*
X4923Y4539D01*
X4931Y4534D01*
X4941Y4532D01*
X4951Y4534D01*
X4959Y4539D01*
X4964Y4547D01*
X4966Y4557D01*
X4964Y4567D01*
X4959Y4575D01*
X4951Y4581D01*
X4941Y4583D01*
D02*
G37*
G36*
X3828Y4764D02*
X3809Y4762D01*
X3791Y4756D01*
X3774Y4747D01*
X3759Y4735D01*
X3747Y4720D01*
X3738Y4703D01*
X3732Y4685D01*
X3730Y4666D01*
X3732Y4646D01*
X3738Y4628D01*
X3747Y4611D01*
X3759Y4596D01*
X3774Y4584D01*
X3791Y4575D01*
X3809Y4570D01*
X3828Y4568D01*
X3847Y4570D01*
X3866Y4575D01*
X3883Y4584D01*
X3898Y4596D01*
X3910Y4611D01*
X3919Y4628D01*
X3924Y4646D01*
X3926Y4666D01*
X3924Y4685D01*
X3919Y4703D01*
X3910Y4720D01*
X3898Y4735D01*
X3883Y4747D01*
X3866Y4756D01*
X3847Y4762D01*
X3828Y4764D01*
D02*
G37*
G36*
X8631D02*
X8612Y4762D01*
X8594Y4756D01*
X8577Y4747D01*
X8562Y4735D01*
X8550Y4720D01*
X8541Y4703D01*
X8535Y4685D01*
X8534Y4666D01*
X8535Y4646D01*
X8541Y4628D01*
X8550Y4611D01*
X8562Y4596D01*
X8577Y4584D01*
X8594Y4575D01*
X8612Y4570D01*
X8631Y4568D01*
X8651Y4570D01*
X8669Y4575D01*
X8686Y4584D01*
X8701Y4596D01*
X8713Y4611D01*
X8722Y4628D01*
X8728Y4646D01*
X8729Y4666D01*
X8728Y4685D01*
X8722Y4703D01*
X8713Y4720D01*
X8701Y4735D01*
X8686Y4747D01*
X8669Y4756D01*
X8651Y4762D01*
X8631Y4764D01*
D02*
G37*
G36*
X2859Y4647D02*
X2849Y4645D01*
X2839Y4641D01*
X2831Y4635D01*
X2824Y4626D01*
X2820Y4617D01*
X2819Y4606D01*
X2820Y4596D01*
X2824Y4586D01*
X2831Y4578D01*
X2839Y4571D01*
X2849Y4567D01*
X2859Y4566D01*
X2869Y4567D01*
X2879Y4571D01*
X2888Y4578D01*
X2894Y4586D01*
X2898Y4596D01*
X2899Y4606D01*
X2898Y4617D01*
X2894Y4626D01*
X2888Y4635D01*
X2879Y4641D01*
X2869Y4645D01*
X2859Y4647D01*
D02*
G37*
G36*
X2599Y4646D02*
X2519D01*
Y4566D01*
X2599D01*
Y4646D01*
D02*
G37*
G36*
X1939Y4535D02*
X1936Y4535D01*
X1925Y4531D01*
X1914Y4525D01*
X1904Y4517D01*
X1896Y4508D01*
X1890Y4497D01*
X1887Y4485D01*
X1886Y4482D01*
X1939D01*
Y4535D01*
D02*
G37*
G36*
X8006Y4545D02*
X7992Y4543D01*
X7979Y4538D01*
X7968Y4529D01*
X7960Y4518D01*
X7954Y4505D01*
X7953Y4491D01*
X7954Y4477D01*
X7960Y4464D01*
X7968Y4453D01*
X7979Y4445D01*
X7992Y4439D01*
X8006Y4438D01*
X8020Y4439D01*
X8033Y4445D01*
X8044Y4453D01*
X8053Y4464D01*
X8058Y4477D01*
X8060Y4491D01*
X8058Y4505D01*
X8053Y4518D01*
X8044Y4529D01*
X8033Y4538D01*
X8020Y4543D01*
X8006Y4545D01*
D02*
G37*
G36*
X4350Y4498D02*
X4341Y4496D01*
X4332Y4490D01*
X4327Y4482D01*
X4325Y4472D01*
X4327Y4463D01*
X4332Y4454D01*
X4341Y4449D01*
X4350Y4447D01*
X4360Y4449D01*
X4368Y4454D01*
X4374Y4463D01*
X4376Y4472D01*
X4374Y4482D01*
X4368Y4490D01*
X4360Y4496D01*
X4350Y4498D01*
D02*
G37*
G36*
X3350Y4439D02*
X3337D01*
Y4425D01*
X3345Y4431D01*
X3350Y4439D01*
D02*
G37*
G36*
X7606Y4545D02*
X7592Y4543D01*
X7579Y4538D01*
X7568Y4529D01*
X7560Y4518D01*
X7554Y4505D01*
X7553Y4491D01*
X7554Y4477D01*
X7560Y4464D01*
X7568Y4453D01*
X7579Y4445D01*
X7592Y4439D01*
X7606Y4438D01*
X7620Y4439D01*
X7633Y4445D01*
X7644Y4453D01*
X7653Y4464D01*
X7658Y4477D01*
X7660Y4491D01*
X7658Y4505D01*
X7653Y4518D01*
X7644Y4529D01*
X7633Y4538D01*
X7620Y4543D01*
X7606Y4545D01*
D02*
G37*
G36*
X2559Y4547D02*
X2549Y4545D01*
X2539Y4541D01*
X2531Y4535D01*
X2524Y4526D01*
X2520Y4517D01*
X2519Y4506D01*
X2520Y4496D01*
X2524Y4486D01*
X2531Y4478D01*
X2539Y4471D01*
X2549Y4467D01*
X2559Y4466D01*
X2569Y4467D01*
X2579Y4471D01*
X2588Y4478D01*
X2594Y4486D01*
X2598Y4496D01*
X2599Y4506D01*
X2598Y4517D01*
X2594Y4526D01*
X2588Y4535D01*
X2579Y4541D01*
X2569Y4545D01*
X2559Y4547D01*
D02*
G37*
G36*
X2859D02*
X2849Y4545D01*
X2839Y4541D01*
X2831Y4535D01*
X2824Y4526D01*
X2820Y4517D01*
X2819Y4506D01*
X2820Y4496D01*
X2824Y4486D01*
X2831Y4478D01*
X2839Y4471D01*
X2849Y4467D01*
X2859Y4466D01*
X2869Y4467D01*
X2879Y4471D01*
X2888Y4478D01*
X2894Y4486D01*
X2898Y4496D01*
X2899Y4506D01*
X2898Y4517D01*
X2894Y4526D01*
X2888Y4535D01*
X2879Y4541D01*
X2869Y4545D01*
X2859Y4547D01*
D02*
G37*
G36*
X3317Y4472D02*
X3309Y4467D01*
X3303Y4459D01*
X3317D01*
Y4472D01*
D02*
G37*
G36*
X3337D02*
Y4459D01*
X3350D01*
X3345Y4467D01*
X3337Y4472D01*
D02*
G37*
G36*
X2849Y4856D02*
X2849Y4856D01*
X2839Y4852D01*
X2831Y4846D01*
X2824Y4837D01*
X2820Y4828D01*
X2820Y4827D01*
X2849D01*
Y4856D01*
D02*
G37*
G36*
X2869D02*
Y4827D01*
X2898D01*
X2898Y4828D01*
X2894Y4837D01*
X2888Y4846D01*
X2879Y4852D01*
X2869Y4856D01*
X2869Y4856D01*
D02*
G37*
G36*
X8006Y4893D02*
X7992Y4891D01*
X7979Y4886D01*
X7968Y4877D01*
X7960Y4866D01*
X7954Y4853D01*
X7953Y4839D01*
X7954Y4825D01*
X7960Y4812D01*
X7968Y4801D01*
X7979Y4793D01*
X7992Y4787D01*
X8006Y4786D01*
X8020Y4787D01*
X8033Y4793D01*
X8044Y4801D01*
X8053Y4812D01*
X8058Y4825D01*
X8060Y4839D01*
X8058Y4853D01*
X8053Y4866D01*
X8044Y4877D01*
X8033Y4886D01*
X8020Y4891D01*
X8006Y4893D01*
D02*
G37*
G36*
X4606Y4880D02*
X4596Y4878D01*
X4586Y4874D01*
X4578Y4868D01*
X4571Y4860D01*
X4567Y4850D01*
X4566Y4839D01*
X4567Y4829D01*
X4571Y4819D01*
X4578Y4811D01*
X4586Y4804D01*
X4596Y4800D01*
X4606Y4799D01*
X4617Y4800D01*
X4626Y4804D01*
X4635Y4811D01*
X4641Y4819D01*
X4645Y4829D01*
X4647Y4839D01*
X4645Y4850D01*
X4641Y4860D01*
X4635Y4868D01*
X4626Y4874D01*
X4617Y4878D01*
X4606Y4880D01*
D02*
G37*
G36*
X5630Y5040D02*
X5619Y5039D01*
X5610Y5035D01*
X5601Y5029D01*
X5595Y5020D01*
X5591Y5010D01*
X5590Y5000D01*
X5591Y4990D01*
X5595Y4980D01*
X5601Y4971D01*
X5610Y4965D01*
X5619Y4961D01*
X5630Y4960D01*
X5640Y4961D01*
X5650Y4965D01*
X5658Y4971D01*
X5665Y4980D01*
X5669Y4990D01*
X5670Y5000D01*
X5669Y5010D01*
X5665Y5020D01*
X5658Y5029D01*
X5650Y5035D01*
X5640Y5039D01*
X5630Y5040D01*
D02*
G37*
G36*
X5984D02*
X5974Y5039D01*
X5964Y5035D01*
X5956Y5029D01*
X5949Y5020D01*
X5945Y5010D01*
X5944Y5000D01*
X5945Y4990D01*
X5949Y4980D01*
X5956Y4971D01*
X5964Y4965D01*
X5974Y4961D01*
X5984Y4960D01*
X5995Y4961D01*
X6004Y4965D01*
X6013Y4971D01*
X6019Y4980D01*
X6023Y4990D01*
X6025Y5000D01*
X6023Y5010D01*
X6019Y5020D01*
X6013Y5029D01*
X6004Y5035D01*
X5995Y5039D01*
X5984Y5040D01*
D02*
G37*
G36*
X6535Y4966D02*
X6526Y4964D01*
X6517Y4959D01*
X6512Y4951D01*
X6510Y4941D01*
X6512Y4931D01*
X6517Y4923D01*
X6526Y4917D01*
X6535Y4915D01*
X6545Y4917D01*
X6553Y4923D01*
X6559Y4931D01*
X6561Y4941D01*
X6559Y4951D01*
X6553Y4959D01*
X6545Y4964D01*
X6535Y4966D01*
D02*
G37*
G36*
X7756Y5129D02*
X7739Y5127D01*
X7722Y5122D01*
X7706Y5114D01*
X7693Y5102D01*
X7682Y5089D01*
X7674Y5073D01*
X7668Y5057D01*
X7667Y5039D01*
X7668Y5022D01*
X7674Y5005D01*
X7682Y4990D01*
X7693Y4976D01*
X7706Y4965D01*
X7722Y4957D01*
X7739Y4952D01*
X7756Y4950D01*
X7773Y4952D01*
X7790Y4957D01*
X7805Y4965D01*
X7819Y4976D01*
X7830Y4990D01*
X7838Y5005D01*
X7843Y5022D01*
X7845Y5039D01*
X7843Y5057D01*
X7838Y5073D01*
X7830Y5089D01*
X7819Y5102D01*
X7805Y5114D01*
X7790Y5122D01*
X7773Y5127D01*
X7756Y5129D01*
D02*
G37*
G36*
X7606Y4893D02*
X7592Y4891D01*
X7579Y4886D01*
X7568Y4877D01*
X7560Y4866D01*
X7554Y4853D01*
X7553Y4839D01*
X7554Y4825D01*
X7560Y4812D01*
X7568Y4801D01*
X7579Y4793D01*
X7592Y4787D01*
X7606Y4786D01*
X7620Y4787D01*
X7633Y4793D01*
X7644Y4801D01*
X7653Y4812D01*
X7658Y4825D01*
X7660Y4839D01*
X7658Y4853D01*
X7653Y4866D01*
X7644Y4877D01*
X7633Y4886D01*
X7620Y4891D01*
X7606Y4893D01*
D02*
G37*
G36*
X2308Y4708D02*
X2300Y4703D01*
X2295Y4695D01*
X2308D01*
Y4708D01*
D02*
G37*
G36*
X2328D02*
Y4695D01*
X2342D01*
X2336Y4703D01*
X2328Y4708D01*
D02*
G37*
G36*
X2308Y4675D02*
X2295D01*
X2300Y4667D01*
X2308Y4662D01*
Y4675D01*
D02*
G37*
G36*
X2342D02*
X2328D01*
Y4662D01*
X2336Y4667D01*
X2342Y4675D01*
D02*
G37*
G36*
X2849Y4807D02*
X2820D01*
X2820Y4807D01*
X2824Y4797D01*
X2831Y4789D01*
X2839Y4782D01*
X2849Y4778D01*
X2849Y4778D01*
Y4807D01*
D02*
G37*
G36*
X2898D02*
X2869D01*
Y4778D01*
X2869Y4778D01*
X2879Y4782D01*
X2888Y4789D01*
X2894Y4797D01*
X2898Y4807D01*
X2898Y4807D01*
D02*
G37*
G36*
X6565Y4853D02*
X6555Y4852D01*
X6545Y4848D01*
X6536Y4842D01*
X6530Y4833D01*
X6526Y4823D01*
X6525Y4813D01*
X6526Y4803D01*
X6530Y4793D01*
X6536Y4784D01*
X6545Y4778D01*
X6555Y4774D01*
X6565Y4773D01*
X6575Y4774D01*
X6585Y4778D01*
X6593Y4784D01*
X6600Y4793D01*
X6604Y4803D01*
X6605Y4813D01*
X6604Y4823D01*
X6600Y4833D01*
X6593Y4842D01*
X6585Y4848D01*
X6575Y4852D01*
X6565Y4853D01*
D02*
G37*
G36*
X6352Y4853D02*
X6342Y4852D01*
X6332Y4848D01*
X6323Y4842D01*
X6317Y4833D01*
X6313Y4823D01*
X6312Y4813D01*
X6313Y4803D01*
X6317Y4793D01*
X6323Y4784D01*
X6332Y4778D01*
X6342Y4774D01*
X6352Y4773D01*
X6362Y4774D01*
X6372Y4778D01*
X6380Y4784D01*
X6387Y4793D01*
X6391Y4803D01*
X6392Y4813D01*
X6391Y4823D01*
X6387Y4833D01*
X6380Y4842D01*
X6372Y4848D01*
X6362Y4852D01*
X6352Y4853D01*
D02*
G37*
G36*
X4399Y5446D02*
X4389Y5445D01*
X4379Y5441D01*
X4371Y5435D01*
X4364Y5426D01*
X4360Y5417D01*
X4359Y5406D01*
X4360Y5396D01*
X4364Y5386D01*
X4371Y5378D01*
X4379Y5371D01*
X4389Y5367D01*
X4399Y5366D01*
X4410Y5367D01*
X4419Y5371D01*
X4428Y5378D01*
X4434Y5386D01*
X4438Y5396D01*
X4440Y5406D01*
X4438Y5417D01*
X4434Y5426D01*
X4428Y5435D01*
X4419Y5441D01*
X4410Y5445D01*
X4399Y5446D01*
D02*
G37*
G36*
X7327Y6124D02*
X7319Y6118D01*
X7313Y6110D01*
X7327D01*
Y6124D01*
D02*
G37*
G36*
X7347D02*
Y6110D01*
X7360D01*
X7355Y6118D01*
X7347Y6124D01*
D02*
G37*
G36*
X6878Y6112D02*
X6865D01*
X6870Y6104D01*
X6878Y6099D01*
Y6112D01*
D02*
G37*
G36*
X6912D02*
X6898D01*
Y6099D01*
X6906Y6104D01*
X6912Y6112D01*
D02*
G37*
G36*
X3024Y6238D02*
X3010Y6236D01*
X2997Y6231D01*
X2986Y6222D01*
X2977Y6211D01*
X2972Y6198D01*
X2970Y6184D01*
X2972Y6170D01*
X2977Y6157D01*
X2986Y6146D01*
X2997Y6138D01*
X3010Y6132D01*
X3024Y6130D01*
X3038Y6132D01*
X3051Y6138D01*
X3062Y6146D01*
X3070Y6157D01*
X3076Y6170D01*
X3077Y6184D01*
X3076Y6198D01*
X3070Y6211D01*
X3062Y6222D01*
X3051Y6231D01*
X3038Y6236D01*
X3024Y6238D01*
D02*
G37*
G36*
X6878Y6145D02*
X6870Y6140D01*
X6865Y6132D01*
X6878D01*
Y6145D01*
D02*
G37*
G36*
X6299Y6206D02*
X6289Y6205D01*
X6279Y6201D01*
X6271Y6195D01*
X6264Y6186D01*
X6260Y6177D01*
X6259Y6166D01*
X6260Y6156D01*
X6264Y6146D01*
X6271Y6138D01*
X6279Y6131D01*
X6289Y6127D01*
X6299Y6126D01*
X6310Y6127D01*
X6319Y6131D01*
X6328Y6138D01*
X6334Y6146D01*
X6338Y6156D01*
X6340Y6166D01*
X6338Y6177D01*
X6334Y6186D01*
X6328Y6195D01*
X6319Y6201D01*
X6310Y6205D01*
X6299Y6206D01*
D02*
G37*
G36*
X2624Y6238D02*
X2610Y6236D01*
X2597Y6231D01*
X2586Y6222D01*
X2577Y6211D01*
X2572Y6198D01*
X2570Y6184D01*
X2572Y6170D01*
X2577Y6157D01*
X2586Y6146D01*
X2597Y6138D01*
X2610Y6132D01*
X2624Y6130D01*
X2638Y6132D01*
X2651Y6138D01*
X2662Y6146D01*
X2670Y6157D01*
X2676Y6170D01*
X2677Y6184D01*
X2676Y6198D01*
X2670Y6211D01*
X2662Y6222D01*
X2651Y6231D01*
X2638Y6236D01*
X2624Y6238D01*
D02*
G37*
G36*
X7360Y6090D02*
X7347D01*
Y6077D01*
X7355Y6082D01*
X7360Y6090D01*
D02*
G37*
G36*
X2864Y6072D02*
X2857Y6072D01*
X2840Y6067D01*
X2824Y6058D01*
X2811Y6047D01*
X2800Y6034D01*
X2792Y6018D01*
X2787Y6002D01*
X2786Y5994D01*
X2864D01*
Y6072D01*
D02*
G37*
G36*
X2884D02*
Y5994D01*
X2962D01*
X2961Y6002D01*
X2956Y6018D01*
X2948Y6034D01*
X2937Y6047D01*
X2924Y6058D01*
X2908Y6067D01*
X2891Y6072D01*
X2884Y6072D01*
D02*
G37*
G36*
X3858Y5980D02*
X3849Y5978D01*
X3840Y5973D01*
X3835Y5964D01*
X3833Y5955D01*
X3835Y5945D01*
X3840Y5937D01*
X3849Y5931D01*
X3858Y5929D01*
X3868Y5931D01*
X3876Y5937D01*
X3882Y5945D01*
X3884Y5955D01*
X3882Y5964D01*
X3876Y5973D01*
X3868Y5978D01*
X3858Y5980D01*
D02*
G37*
G36*
X4399Y6046D02*
X4389Y6045D01*
X4379Y6041D01*
X4371Y6035D01*
X4364Y6026D01*
X4360Y6017D01*
X4359Y6006D01*
X4360Y5996D01*
X4364Y5986D01*
X4371Y5978D01*
X4379Y5971D01*
X4389Y5967D01*
X4399Y5966D01*
X4410Y5967D01*
X4419Y5971D01*
X4428Y5978D01*
X4434Y5986D01*
X4438Y5996D01*
X4440Y6006D01*
X4438Y6017D01*
X4434Y6026D01*
X4428Y6035D01*
X4419Y6041D01*
X4410Y6045D01*
X4399Y6046D01*
D02*
G37*
G36*
X6439Y6128D02*
X6429Y6126D01*
X6421Y6120D01*
X6415Y6112D01*
X6413Y6102D01*
X6415Y6092D01*
X6421Y6084D01*
X6429Y6079D01*
X6439Y6077D01*
X6448Y6079D01*
X6457Y6084D01*
X6462Y6092D01*
X6464Y6102D01*
X6462Y6112D01*
X6457Y6120D01*
X6448Y6126D01*
X6439Y6128D01*
D02*
G37*
G36*
X7327Y6090D02*
X7313D01*
X7319Y6082D01*
X7327Y6077D01*
Y6090D01*
D02*
G37*
G36*
X6299Y6106D02*
X6289Y6105D01*
X6279Y6101D01*
X6271Y6095D01*
X6264Y6086D01*
X6260Y6077D01*
X6259Y6066D01*
X6260Y6056D01*
X6264Y6046D01*
X6271Y6038D01*
X6279Y6031D01*
X6289Y6027D01*
X6299Y6026D01*
X6310Y6027D01*
X6319Y6031D01*
X6328Y6038D01*
X6334Y6046D01*
X6338Y6056D01*
X6340Y6066D01*
X6338Y6077D01*
X6334Y6086D01*
X6328Y6095D01*
X6319Y6101D01*
X6310Y6105D01*
X6299Y6106D01*
D02*
G37*
G36*
X4399Y6146D02*
X4389Y6145D01*
X4379Y6141D01*
X4371Y6135D01*
X4364Y6126D01*
X4360Y6117D01*
X4359Y6106D01*
X4360Y6096D01*
X4364Y6086D01*
X4371Y6078D01*
X4379Y6071D01*
X4389Y6067D01*
X4399Y6066D01*
X4410Y6067D01*
X4419Y6071D01*
X4428Y6078D01*
X4434Y6086D01*
X4438Y6096D01*
X4440Y6106D01*
X4438Y6117D01*
X4434Y6126D01*
X4428Y6135D01*
X4419Y6141D01*
X4410Y6145D01*
X4399Y6146D01*
D02*
G37*
G36*
X3906Y6195D02*
Y6181D01*
X3919D01*
X3914Y6189D01*
X3906Y6195D01*
D02*
G37*
G36*
X3553Y6224D02*
X3545Y6219D01*
X3540Y6211D01*
X3553D01*
Y6224D01*
D02*
G37*
G36*
X3976Y6232D02*
X3967Y6230D01*
X3958Y6224D01*
X3953Y6216D01*
X3951Y6206D01*
X3953Y6196D01*
X3958Y6188D01*
X3967Y6183D01*
X3976Y6181D01*
X3986Y6183D01*
X3994Y6188D01*
X4000Y6196D01*
X4002Y6206D01*
X4000Y6216D01*
X3994Y6224D01*
X3986Y6230D01*
X3976Y6232D01*
D02*
G37*
G36*
X3886Y6195D02*
X3878Y6189D01*
X3872Y6181D01*
X3886D01*
Y6195D01*
D02*
G37*
G36*
X6491Y6240D02*
X6477D01*
X6483Y6232D01*
X6491Y6227D01*
Y6240D01*
D02*
G37*
G36*
X6524D02*
X6511D01*
Y6227D01*
X6519Y6232D01*
X6524Y6240D01*
D02*
G37*
G36*
X3573Y6224D02*
Y6211D01*
X3586D01*
X3581Y6219D01*
X3573Y6224D01*
D02*
G37*
G36*
X6299Y6306D02*
X6289Y6305D01*
X6279Y6301D01*
X6271Y6295D01*
X6264Y6286D01*
X6260Y6277D01*
X6259Y6266D01*
X6260Y6256D01*
X6264Y6246D01*
X6271Y6238D01*
X6279Y6231D01*
X6289Y6227D01*
X6299Y6226D01*
X6310Y6227D01*
X6319Y6231D01*
X6328Y6238D01*
X6334Y6246D01*
X6338Y6256D01*
X6340Y6266D01*
X6338Y6277D01*
X6334Y6286D01*
X6328Y6295D01*
X6319Y6301D01*
X6310Y6305D01*
X6299Y6306D01*
D02*
G37*
G36*
X4597Y6262D02*
X4514D01*
Y6179D01*
X4597D01*
Y6262D01*
D02*
G37*
G36*
X3886Y6161D02*
X3872D01*
X3878Y6153D01*
X3886Y6148D01*
Y6161D01*
D02*
G37*
G36*
X3919D02*
X3906D01*
Y6148D01*
X3914Y6153D01*
X3919Y6161D01*
D02*
G37*
G36*
X6898Y6145D02*
Y6132D01*
X6912D01*
X6906Y6140D01*
X6898Y6145D01*
D02*
G37*
G36*
X7204Y6191D02*
X7195Y6189D01*
X7186Y6184D01*
X7181Y6176D01*
X7179Y6166D01*
X7181Y6156D01*
X7186Y6148D01*
X7195Y6142D01*
X7204Y6140D01*
X7214Y6142D01*
X7222Y6148D01*
X7228Y6156D01*
X7230Y6166D01*
X7228Y6176D01*
X7222Y6184D01*
X7214Y6189D01*
X7204Y6191D01*
D02*
G37*
G36*
X3586Y6191D02*
X3573D01*
Y6177D01*
X3581Y6183D01*
X3586Y6191D01*
D02*
G37*
G36*
X4656Y6262D02*
X4645Y6261D01*
X4635Y6257D01*
X4626Y6250D01*
X4619Y6241D01*
X4615Y6231D01*
X4614Y6220D01*
X4615Y6210D01*
X4619Y6200D01*
X4626Y6191D01*
X4635Y6184D01*
X4645Y6180D01*
X4656Y6179D01*
X4666Y6180D01*
X4676Y6184D01*
X4685Y6191D01*
X4692Y6200D01*
X4696Y6210D01*
X4697Y6220D01*
X4696Y6231D01*
X4692Y6241D01*
X4685Y6250D01*
X4676Y6257D01*
X4666Y6261D01*
X4656Y6262D01*
D02*
G37*
G36*
X4399Y6246D02*
X4389Y6245D01*
X4379Y6241D01*
X4371Y6235D01*
X4364Y6226D01*
X4360Y6217D01*
X4359Y6206D01*
X4360Y6196D01*
X4364Y6186D01*
X4371Y6178D01*
X4379Y6171D01*
X4389Y6167D01*
X4399Y6166D01*
X4410Y6167D01*
X4419Y6171D01*
X4428Y6178D01*
X4434Y6186D01*
X4438Y6196D01*
X4440Y6206D01*
X4438Y6217D01*
X4434Y6226D01*
X4428Y6235D01*
X4419Y6241D01*
X4410Y6245D01*
X4399Y6246D01*
D02*
G37*
G36*
X3553Y6191D02*
X3540D01*
X3545Y6183D01*
X3553Y6177D01*
Y6191D01*
D02*
G37*
G36*
X7601Y5730D02*
X7518D01*
Y5647D01*
X7601D01*
Y5730D01*
D02*
G37*
G36*
X4399Y5746D02*
X4389Y5745D01*
X4379Y5741D01*
X4371Y5735D01*
X4364Y5726D01*
X4360Y5717D01*
X4359Y5706D01*
X4360Y5696D01*
X4364Y5686D01*
X4371Y5678D01*
X4379Y5671D01*
X4389Y5667D01*
X4399Y5666D01*
X4410Y5667D01*
X4419Y5671D01*
X4428Y5678D01*
X4434Y5686D01*
X4438Y5696D01*
X4440Y5706D01*
X4438Y5717D01*
X4434Y5726D01*
X4428Y5735D01*
X4419Y5741D01*
X4410Y5745D01*
X4399Y5746D01*
D02*
G37*
G36*
X3819Y5575D02*
Y5561D01*
X3832D01*
X3827Y5569D01*
X3819Y5575D01*
D02*
G37*
G36*
X6299Y5646D02*
X6289Y5645D01*
X6279Y5641D01*
X6271Y5635D01*
X6264Y5626D01*
X6260Y5617D01*
X6259Y5606D01*
X6260Y5596D01*
X6264Y5586D01*
X6271Y5578D01*
X6279Y5571D01*
X6289Y5567D01*
X6299Y5566D01*
X6310Y5567D01*
X6319Y5571D01*
X6328Y5578D01*
X6334Y5586D01*
X6338Y5596D01*
X6340Y5606D01*
X6338Y5617D01*
X6334Y5626D01*
X6328Y5635D01*
X6319Y5641D01*
X6310Y5645D01*
X6299Y5646D01*
D02*
G37*
G36*
X3024Y5838D02*
X3010Y5836D01*
X2997Y5831D01*
X2986Y5822D01*
X2977Y5811D01*
X2972Y5798D01*
X2970Y5784D01*
X2972Y5770D01*
X2977Y5757D01*
X2986Y5746D01*
X2997Y5738D01*
X3010Y5732D01*
X3024Y5730D01*
X3038Y5732D01*
X3051Y5738D01*
X3062Y5746D01*
X3070Y5757D01*
X3076Y5770D01*
X3077Y5784D01*
X3076Y5798D01*
X3070Y5811D01*
X3062Y5822D01*
X3051Y5831D01*
X3038Y5836D01*
X3024Y5838D01*
D02*
G37*
G36*
X7559Y5831D02*
X7548Y5829D01*
X7538Y5825D01*
X7529Y5819D01*
X7523Y5810D01*
X7519Y5800D01*
X7517Y5789D01*
X7519Y5778D01*
X7523Y5768D01*
X7529Y5759D01*
X7538Y5753D01*
X7548Y5749D01*
X7559Y5747D01*
X7570Y5749D01*
X7580Y5753D01*
X7589Y5759D01*
X7595Y5768D01*
X7599Y5778D01*
X7601Y5789D01*
X7599Y5800D01*
X7595Y5810D01*
X7589Y5819D01*
X7580Y5825D01*
X7570Y5829D01*
X7559Y5831D01*
D02*
G37*
G36*
X6299Y5746D02*
X6289Y5745D01*
X6279Y5741D01*
X6271Y5735D01*
X6264Y5726D01*
X6260Y5717D01*
X6259Y5706D01*
X6260Y5696D01*
X6264Y5686D01*
X6271Y5678D01*
X6279Y5671D01*
X6289Y5667D01*
X6299Y5666D01*
X6310Y5667D01*
X6319Y5671D01*
X6328Y5678D01*
X6334Y5686D01*
X6338Y5696D01*
X6340Y5706D01*
X6338Y5717D01*
X6334Y5726D01*
X6328Y5735D01*
X6319Y5741D01*
X6310Y5745D01*
X6299Y5746D01*
D02*
G37*
G36*
X2624Y5838D02*
X2610Y5836D01*
X2597Y5831D01*
X2586Y5822D01*
X2577Y5811D01*
X2572Y5798D01*
X2570Y5784D01*
X2572Y5770D01*
X2577Y5757D01*
X2586Y5746D01*
X2597Y5738D01*
X2610Y5732D01*
X2624Y5730D01*
X2638Y5732D01*
X2651Y5738D01*
X2662Y5746D01*
X2670Y5757D01*
X2676Y5770D01*
X2677Y5784D01*
X2676Y5798D01*
X2670Y5811D01*
X2662Y5822D01*
X2651Y5831D01*
X2638Y5836D01*
X2624Y5838D01*
D02*
G37*
G36*
X3799Y5575D02*
X3791Y5569D01*
X3786Y5561D01*
X3799D01*
Y5575D01*
D02*
G37*
G36*
X2624Y5490D02*
X2610Y5488D01*
X2597Y5483D01*
X2586Y5474D01*
X2577Y5463D01*
X2572Y5450D01*
X2570Y5436D01*
X2572Y5422D01*
X2577Y5409D01*
X2586Y5398D01*
X2597Y5390D01*
X2610Y5384D01*
X2624Y5382D01*
X2638Y5384D01*
X2651Y5390D01*
X2662Y5398D01*
X2670Y5409D01*
X2676Y5422D01*
X2677Y5436D01*
X2676Y5450D01*
X2670Y5463D01*
X2662Y5474D01*
X2651Y5483D01*
X2638Y5488D01*
X2624Y5490D01*
D02*
G37*
G36*
X3024D02*
X3010Y5488D01*
X2997Y5483D01*
X2986Y5474D01*
X2977Y5463D01*
X2972Y5450D01*
X2970Y5436D01*
X2972Y5422D01*
X2977Y5409D01*
X2986Y5398D01*
X2997Y5390D01*
X3010Y5384D01*
X3024Y5382D01*
X3038Y5384D01*
X3051Y5390D01*
X3062Y5398D01*
X3070Y5409D01*
X3076Y5422D01*
X3077Y5436D01*
X3076Y5450D01*
X3070Y5463D01*
X3062Y5474D01*
X3051Y5483D01*
X3038Y5488D01*
X3024Y5490D01*
D02*
G37*
G36*
X6299Y5446D02*
X6289Y5445D01*
X6279Y5441D01*
X6271Y5435D01*
X6264Y5426D01*
X6260Y5417D01*
X6259Y5406D01*
X6260Y5396D01*
X6264Y5386D01*
X6271Y5378D01*
X6279Y5371D01*
X6289Y5367D01*
X6299Y5366D01*
X6310Y5367D01*
X6319Y5371D01*
X6328Y5378D01*
X6334Y5386D01*
X6338Y5396D01*
X6340Y5406D01*
X6338Y5417D01*
X6334Y5426D01*
X6328Y5435D01*
X6319Y5441D01*
X6310Y5445D01*
X6299Y5446D01*
D02*
G37*
G36*
X7402Y5429D02*
X7392Y5427D01*
X7384Y5422D01*
X7378Y5413D01*
X7376Y5404D01*
X7378Y5394D01*
X7384Y5386D01*
X7392Y5380D01*
X7402Y5378D01*
X7411Y5380D01*
X7420Y5386D01*
X7425Y5394D01*
X7427Y5404D01*
X7425Y5413D01*
X7420Y5422D01*
X7411Y5427D01*
X7402Y5429D01*
D02*
G37*
G36*
X3799Y5541D02*
X3786D01*
X3791Y5533D01*
X3799Y5528D01*
Y5541D01*
D02*
G37*
G36*
X3832D02*
X3819D01*
Y5528D01*
X3827Y5533D01*
X3832Y5541D01*
D02*
G37*
G36*
X6299Y5546D02*
X6289Y5545D01*
X6279Y5541D01*
X6271Y5535D01*
X6264Y5526D01*
X6260Y5517D01*
X6259Y5506D01*
X6260Y5496D01*
X6264Y5486D01*
X6271Y5478D01*
X6279Y5471D01*
X6289Y5467D01*
X6299Y5466D01*
X6310Y5467D01*
X6319Y5471D01*
X6328Y5478D01*
X6334Y5486D01*
X6338Y5496D01*
X6340Y5506D01*
X6338Y5517D01*
X6334Y5526D01*
X6328Y5535D01*
X6319Y5541D01*
X6310Y5545D01*
X6299Y5546D01*
D02*
G37*
G36*
X4439Y5546D02*
X4359D01*
Y5466D01*
X4439D01*
Y5546D01*
D02*
G37*
G36*
X4438Y5896D02*
X4409D01*
Y5867D01*
X4410Y5867D01*
X4419Y5871D01*
X4428Y5878D01*
X4434Y5886D01*
X4438Y5896D01*
X4438Y5896D01*
D02*
G37*
G36*
X2864Y5974D02*
X2786D01*
X2787Y5967D01*
X2792Y5950D01*
X2800Y5935D01*
X2811Y5921D01*
X2824Y5910D01*
X2840Y5902D01*
X2857Y5897D01*
X2864Y5896D01*
Y5974D01*
D02*
G37*
G36*
X8514Y5895D02*
Y5866D01*
X8543D01*
X8543Y5867D01*
X8539Y5876D01*
X8532Y5885D01*
X8524Y5891D01*
X8514Y5895D01*
X8514Y5895D01*
D02*
G37*
G36*
X4389Y5896D02*
X4360D01*
X4360Y5896D01*
X4364Y5886D01*
X4371Y5878D01*
X4379Y5871D01*
X4389Y5867D01*
X4389Y5867D01*
Y5896D01*
D02*
G37*
G36*
X4409Y5945D02*
Y5916D01*
X4438D01*
X4438Y5917D01*
X4434Y5926D01*
X4428Y5935D01*
X4419Y5941D01*
X4410Y5945D01*
X4409Y5945D01*
D02*
G37*
G36*
X6299Y6006D02*
X6289Y6005D01*
X6279Y6001D01*
X6271Y5995D01*
X6264Y5986D01*
X6260Y5977D01*
X6259Y5966D01*
X6260Y5956D01*
X6264Y5946D01*
X6271Y5938D01*
X6279Y5931D01*
X6289Y5927D01*
X6299Y5926D01*
X6310Y5927D01*
X6319Y5931D01*
X6328Y5938D01*
X6334Y5946D01*
X6338Y5956D01*
X6340Y5966D01*
X6338Y5977D01*
X6334Y5986D01*
X6328Y5995D01*
X6319Y6001D01*
X6310Y6005D01*
X6299Y6006D01*
D02*
G37*
G36*
X2962Y5974D02*
X2884D01*
Y5896D01*
X2891Y5897D01*
X2908Y5902D01*
X2924Y5910D01*
X2937Y5921D01*
X2948Y5935D01*
X2956Y5950D01*
X2961Y5967D01*
X2962Y5974D01*
D02*
G37*
G36*
X4389Y5945D02*
X4389Y5945D01*
X4379Y5941D01*
X4371Y5935D01*
X4364Y5926D01*
X4360Y5917D01*
X4360Y5916D01*
X4389D01*
Y5945D01*
D02*
G37*
G36*
X8494Y5895D02*
X8493Y5895D01*
X8484Y5891D01*
X8475Y5885D01*
X8469Y5876D01*
X8465Y5867D01*
X8465Y5866D01*
X8494D01*
Y5895D01*
D02*
G37*
G36*
X4389Y5845D02*
X4389Y5845D01*
X4379Y5841D01*
X4371Y5835D01*
X4364Y5826D01*
X4360Y5817D01*
X4360Y5816D01*
X4389D01*
Y5845D01*
D02*
G37*
G36*
X4409D02*
Y5816D01*
X4438D01*
X4438Y5817D01*
X4434Y5826D01*
X4428Y5835D01*
X4419Y5841D01*
X4410Y5845D01*
X4409Y5845D01*
D02*
G37*
G36*
X4389Y5796D02*
X4360D01*
X4360Y5796D01*
X4364Y5786D01*
X4371Y5778D01*
X4379Y5771D01*
X4389Y5767D01*
X4389Y5767D01*
Y5796D01*
D02*
G37*
G36*
X4438D02*
X4409D01*
Y5767D01*
X4410Y5767D01*
X4419Y5771D01*
X4428Y5778D01*
X4434Y5786D01*
X4438Y5796D01*
X4438Y5796D01*
D02*
G37*
G36*
X6339Y5906D02*
X6259D01*
Y5826D01*
X6339D01*
Y5906D01*
D02*
G37*
G36*
X7283Y5892D02*
X7274Y5890D01*
X7265Y5884D01*
X7260Y5876D01*
X7258Y5866D01*
X7260Y5856D01*
X7265Y5848D01*
X7274Y5843D01*
X7283Y5841D01*
X7293Y5843D01*
X7301Y5848D01*
X7307Y5856D01*
X7309Y5866D01*
X7307Y5876D01*
X7301Y5884D01*
X7293Y5890D01*
X7283Y5892D01*
D02*
G37*
G36*
X8494Y5846D02*
X8465D01*
X8465Y5846D01*
X8469Y5836D01*
X8475Y5828D01*
X8484Y5821D01*
X8493Y5817D01*
X8494Y5817D01*
Y5846D01*
D02*
G37*
G36*
X8543D02*
X8514D01*
Y5817D01*
X8514Y5817D01*
X8524Y5821D01*
X8532Y5828D01*
X8539Y5836D01*
X8543Y5846D01*
X8543Y5846D01*
D02*
G37*
%LPD*%
D43*
X1772Y8268D02*
X8858D01*
Y1969D02*
Y8268D01*
X1772Y1969D02*
Y8268D01*
Y1969D02*
X8858D01*
D46*
X9870Y2446D02*
X9853Y2462D01*
X9820D01*
X9803Y2446D01*
Y2429D01*
X9820Y2412D01*
X9853D01*
X9870Y2396D01*
Y2379D01*
X9853Y2362D01*
X9820D01*
X9803Y2379D01*
X9903Y2462D02*
X9936D01*
X9920D01*
Y2362D01*
X9903D01*
X9936D01*
X10053Y2446D02*
X10036Y2462D01*
X10003D01*
X9986Y2446D01*
Y2379D01*
X10003Y2362D01*
X10036D01*
X10053Y2379D01*
Y2412D01*
X10020D01*
X10086Y2362D02*
Y2462D01*
X10153Y2362D01*
Y2462D01*
X10186Y2362D02*
Y2429D01*
X10220Y2462D01*
X10253Y2429D01*
Y2362D01*
Y2412D01*
X10186D01*
X10286Y2462D02*
Y2362D01*
X10353D01*
X10486Y2462D02*
Y2362D01*
X10553D01*
X10586D02*
Y2429D01*
X10620Y2462D01*
X10653Y2429D01*
Y2362D01*
Y2412D01*
X10586D01*
X10686Y2462D02*
Y2446D01*
X10720Y2412D01*
X10753Y2446D01*
Y2462D01*
X10720Y2412D02*
Y2362D01*
X10853Y2462D02*
X10786D01*
Y2362D01*
X10853D01*
X10786Y2412D02*
X10819D01*
X10886Y2362D02*
Y2462D01*
X10936D01*
X10953Y2446D01*
Y2412D01*
X10936Y2396D01*
X10886D01*
X10919D02*
X10953Y2362D01*
X11086D02*
X11119D01*
X11103D01*
Y2462D01*
X11086Y2446D01*
D47*
X7756Y4291D02*
D03*
X1969Y8071D02*
D03*
X8661Y8075D02*
D03*
Y2165D02*
D03*
X1969D02*
D03*
X2874Y6890D02*
D03*
X2874Y5984D02*
D03*
X7756Y2598D02*
D03*
D50*
X4399Y5906D02*
D03*
Y5806D02*
D03*
X6299Y6466D02*
D03*
X6437Y7396D02*
D03*
X6437Y7722D02*
D03*
X8504Y5856D02*
D03*
X2859Y4817D02*
D03*
X2864Y3243D02*
D03*
D52*
X3504Y6831D02*
D03*
X6457Y5206D02*
D03*
X2854Y3681D02*
D03*
Y2106D02*
D03*
X7520Y3819D02*
D03*
X7620Y2972D02*
D03*
D58*
X1949Y2598D02*
D03*
Y2898D02*
D03*
Y4472D02*
D03*
Y4173D02*
D03*
D61*
X2607Y6437D02*
D03*
D64*
X7913Y7047D02*
D03*
D65*
X5039Y8140D02*
D03*
X7337Y6100D02*
D03*
X6501Y6250D02*
D03*
X6988Y7411D02*
D03*
X7093Y7093D02*
D03*
X7559Y6979D02*
D03*
X7195Y6811D02*
D03*
X6935Y7707D02*
D03*
X6697Y7973D02*
D03*
X4369Y7701D02*
D03*
X3896Y6171D02*
D03*
X4862Y5279D02*
D03*
X4460Y5198D02*
D03*
X2318Y4685D02*
D03*
X3066Y3922D02*
D03*
X3258Y4199D02*
D03*
X3602Y4101D02*
D03*
X3819Y4317D02*
D03*
X3740Y3396D02*
D03*
X3327Y2874D02*
D03*
X2904Y2756D02*
D03*
X3066Y2347D02*
D03*
X3258Y2624D02*
D03*
X3612Y2531D02*
D03*
X3789Y2573D02*
D03*
X3819Y2740D02*
D03*
X4261Y2677D02*
D03*
X2318Y3106D02*
D03*
X7411Y2749D02*
D03*
X6370Y2608D02*
D03*
X6713Y2740D02*
D03*
X6540Y2657D02*
D03*
X6319Y2742D02*
D03*
X6850Y3421D02*
D03*
X6309Y4306D02*
D03*
X6371Y4173D02*
D03*
X6703Y4306D02*
D03*
X6535Y4238D02*
D03*
X4595Y7002D02*
D03*
X3563Y6201D02*
D03*
X6762Y7146D02*
D03*
X3327Y4449D02*
D03*
X4272Y4252D02*
D03*
X3793Y4148D02*
D03*
X3031Y2638D02*
D03*
X3809Y5551D02*
D03*
X2894Y4331D02*
D03*
X3051Y4225D02*
D03*
X6888Y6122D02*
D03*
M02*
