G04*
G04 #@! TF.GenerationSoftware,Altium Limited,CircuitStudio,1.5.1 (13)*
G04*
G04 Layer_Physical_Order=2*
G04 Layer_Color=16765976*
%FSLAX23Y23*%
%MOIN*%
G70*
G01*
G75*
%ADD47C,0.020*%
%ADD48C,0.010*%
%ADD55C,0.063*%
%ADD58C,0.157*%
%ADD60C,0.060*%
%ADD63C,0.060*%
%ADD65C,0.106*%
%ADD70C,0.030*%
G36*
X8819Y2008D02*
X2643D01*
X2643Y2013D01*
X2648Y2014D01*
X2656Y2019D01*
X2661Y2028D01*
X2663Y2037D01*
X2661Y2047D01*
X2656Y2055D01*
X2648Y2061D01*
X2638Y2063D01*
X2628Y2061D01*
X2620Y2055D01*
X2614Y2047D01*
X2612Y2037D01*
X2614Y2028D01*
X2620Y2019D01*
X2628Y2014D01*
X2633Y2013D01*
X2632Y2008D01*
X2407D01*
X2405Y2018D01*
X2400Y2026D01*
X2392Y2031D01*
X2382Y2033D01*
X2372Y2031D01*
X2364Y2026D01*
X2358Y2018D01*
X2356Y2008D01*
X1811D01*
Y8228D01*
X8819D01*
Y2008D01*
D02*
G37*
%LPC*%
G36*
X2844Y3671D02*
X2814D01*
X2814Y3670D01*
X2818Y3660D01*
X2825Y3652D01*
X2833Y3645D01*
X2843Y3641D01*
X2844Y3641D01*
Y3671D01*
D02*
G37*
G36*
X6850Y3770D02*
X6838Y3769D01*
X6825Y3764D01*
X6815Y3756D01*
X6807Y3745D01*
X6802Y3733D01*
X6801Y3720D01*
X6802Y3708D01*
X6807Y3696D01*
X6815Y3685D01*
X6825Y3677D01*
X6838Y3672D01*
X6850Y3671D01*
X6863Y3672D01*
X6875Y3677D01*
X6879Y3680D01*
X6885Y3678D01*
X6886Y3671D01*
X6891Y3663D01*
X6899Y3658D01*
Y3681D01*
Y3709D01*
X6899Y3710D01*
X6900Y3720D01*
X6898Y3733D01*
X6894Y3745D01*
X6886Y3756D01*
X6875Y3764D01*
X6863Y3769D01*
X6850Y3770D01*
D02*
G37*
G36*
X2254Y3606D02*
Y3593D01*
X2267D01*
X2262Y3601D01*
X2254Y3606D01*
D02*
G37*
G36*
X2895Y3671D02*
X2864D01*
Y3641D01*
X2865Y3641D01*
X2875Y3645D01*
X2884Y3652D01*
X2891Y3660D01*
X2895Y3670D01*
X2895Y3671D01*
D02*
G37*
G36*
X6933Y3671D02*
X6919D01*
Y3658D01*
X6927Y3663D01*
X6933Y3671D01*
D02*
G37*
G36*
X4280Y3695D02*
X4266D01*
Y3682D01*
X4274Y3687D01*
X4280Y3695D01*
D02*
G37*
G36*
X6919Y3704D02*
Y3691D01*
X6933D01*
X6927Y3699D01*
X6919Y3704D01*
D02*
G37*
G36*
X7323Y3770D02*
X7310Y3769D01*
X7298Y3764D01*
X7288Y3756D01*
X7280Y3745D01*
X7275Y3733D01*
X7273Y3720D01*
X7275Y3708D01*
X7280Y3696D01*
X7288Y3685D01*
X7298Y3677D01*
X7310Y3672D01*
X7323Y3671D01*
X7336Y3672D01*
X7348Y3677D01*
X7358Y3685D01*
X7366Y3696D01*
X7371Y3708D01*
X7373Y3720D01*
X7371Y3733D01*
X7366Y3745D01*
X7358Y3756D01*
X7348Y3764D01*
X7336Y3769D01*
X7323Y3770D01*
D02*
G37*
G36*
X4246Y3695D02*
X4233D01*
X4238Y3687D01*
X4246Y3682D01*
Y3695D01*
D02*
G37*
G36*
X6476Y3569D02*
X6467Y3567D01*
X6458Y3561D01*
X6453Y3553D01*
X6451Y3543D01*
X6453Y3534D01*
X6458Y3525D01*
X6467Y3520D01*
X6476Y3518D01*
X6486Y3520D01*
X6494Y3525D01*
X6500Y3534D01*
X6502Y3543D01*
X6500Y3553D01*
X6494Y3561D01*
X6486Y3567D01*
X6476Y3569D01*
D02*
G37*
G36*
X4380Y3569D02*
X4370Y3567D01*
X4362Y3561D01*
X4356Y3553D01*
X4354Y3543D01*
X4356Y3534D01*
X4362Y3525D01*
X4370Y3520D01*
X4380Y3518D01*
X4390Y3520D01*
X4398Y3525D01*
X4403Y3534D01*
X4405Y3543D01*
X4403Y3553D01*
X4398Y3561D01*
X4390Y3567D01*
X4380Y3569D01*
D02*
G37*
G36*
X8006Y3600D02*
X7992Y3598D01*
X7979Y3593D01*
X7968Y3584D01*
X7960Y3573D01*
X7954Y3560D01*
X7953Y3546D01*
X7954Y3533D01*
X7960Y3520D01*
X7968Y3508D01*
X7979Y3500D01*
X7992Y3495D01*
X8006Y3493D01*
X8020Y3495D01*
X8033Y3500D01*
X8044Y3508D01*
X8053Y3520D01*
X8058Y3533D01*
X8060Y3546D01*
X8058Y3560D01*
X8053Y3573D01*
X8044Y3584D01*
X8033Y3593D01*
X8020Y3598D01*
X8006Y3600D01*
D02*
G37*
G36*
X3740Y3569D02*
X3730Y3567D01*
X3722Y3561D01*
X3717Y3553D01*
X3715Y3543D01*
X3717Y3534D01*
X3722Y3525D01*
X3730Y3520D01*
X3740Y3518D01*
X3750Y3520D01*
X3758Y3525D01*
X3764Y3534D01*
X3766Y3543D01*
X3764Y3553D01*
X3758Y3561D01*
X3750Y3567D01*
X3740Y3569D01*
D02*
G37*
G36*
X4675Y3608D02*
X4665Y3606D01*
X4657Y3601D01*
X4652Y3592D01*
X4650Y3583D01*
X4652Y3573D01*
X4657Y3565D01*
X4665Y3559D01*
X4675Y3557D01*
X4685Y3559D01*
X4693Y3565D01*
X4699Y3573D01*
X4701Y3583D01*
X4699Y3592D01*
X4693Y3601D01*
X4685Y3606D01*
X4675Y3608D01*
D02*
G37*
G36*
X2972Y3628D02*
X2963Y3626D01*
X2954Y3620D01*
X2949Y3612D01*
X2947Y3602D01*
X2949Y3593D01*
X2954Y3584D01*
X2963Y3579D01*
X2972Y3577D01*
X2982Y3579D01*
X2990Y3584D01*
X2996Y3593D01*
X2998Y3602D01*
X2996Y3612D01*
X2990Y3620D01*
X2982Y3626D01*
X2972Y3628D01*
D02*
G37*
G36*
X2234Y3606D02*
X2226Y3601D01*
X2221Y3593D01*
X2234D01*
Y3606D01*
D02*
G37*
G36*
Y3573D02*
X2221D01*
X2226Y3565D01*
X2234Y3559D01*
Y3573D01*
D02*
G37*
G36*
X2267D02*
X2254D01*
Y3559D01*
X2262Y3565D01*
X2267Y3573D01*
D02*
G37*
G36*
X3829Y3868D02*
X3815D01*
X3821Y3860D01*
X3829Y3854D01*
Y3868D01*
D02*
G37*
G36*
X3862D02*
X3849D01*
Y3854D01*
X3857Y3860D01*
X3862Y3868D01*
D02*
G37*
G36*
X7510Y3859D02*
X7509Y3859D01*
X7499Y3855D01*
X7490Y3848D01*
X7483Y3840D01*
X7479Y3830D01*
X7479Y3829D01*
X7510D01*
Y3859D01*
D02*
G37*
G36*
X7530Y3859D02*
Y3829D01*
X7560D01*
X7560Y3830D01*
X7556Y3840D01*
X7549Y3848D01*
X7541Y3855D01*
X7531Y3859D01*
X7530Y3859D01*
D02*
G37*
G36*
X3297Y3873D02*
X3289Y3867D01*
X3284Y3859D01*
X3297D01*
Y3873D01*
D02*
G37*
G36*
X7561Y3960D02*
X7478D01*
Y3877D01*
X7561D01*
Y3960D01*
D02*
G37*
G36*
X3829Y3901D02*
X3821Y3896D01*
X3815Y3888D01*
X3829D01*
Y3901D01*
D02*
G37*
G36*
X3317Y3873D02*
Y3859D01*
X3330D01*
X3325Y3867D01*
X3317Y3873D01*
D02*
G37*
G36*
X4180Y3923D02*
X4171Y3921D01*
X4162Y3916D01*
X4157Y3907D01*
X4155Y3898D01*
X4157Y3888D01*
X4162Y3880D01*
X4171Y3874D01*
X4180Y3872D01*
X4190Y3874D01*
X4198Y3880D01*
X4204Y3888D01*
X4206Y3898D01*
X4204Y3907D01*
X4198Y3916D01*
X4190Y3921D01*
X4180Y3923D01*
D02*
G37*
G36*
X4246Y3729D02*
X4238Y3723D01*
X4233Y3715D01*
X4246D01*
Y3729D01*
D02*
G37*
G36*
X4266D02*
Y3715D01*
X4280D01*
X4274Y3723D01*
X4266Y3729D01*
D02*
G37*
G36*
X2844Y3722D02*
X2843Y3722D01*
X2833Y3717D01*
X2825Y3711D01*
X2818Y3702D01*
X2814Y3692D01*
X2814Y3691D01*
X2844D01*
Y3722D01*
D02*
G37*
G36*
X2864D02*
Y3691D01*
X2895D01*
X2895Y3692D01*
X2891Y3702D01*
X2884Y3711D01*
X2875Y3717D01*
X2865Y3722D01*
X2864Y3722D01*
D02*
G37*
G36*
X2896Y3823D02*
X2813D01*
Y3740D01*
X2896D01*
Y3823D01*
D02*
G37*
G36*
X3297Y3839D02*
X3284D01*
X3289Y3831D01*
X3297Y3826D01*
Y3839D01*
D02*
G37*
G36*
X3330D02*
X3317D01*
Y3826D01*
X3325Y3831D01*
X3330Y3839D01*
D02*
G37*
G36*
X7510Y3809D02*
X7479D01*
X7479Y3808D01*
X7483Y3798D01*
X7490Y3789D01*
X7499Y3783D01*
X7509Y3778D01*
X7510Y3778D01*
Y3809D01*
D02*
G37*
G36*
X7560D02*
X7530D01*
Y3778D01*
X7531Y3778D01*
X7541Y3783D01*
X7549Y3789D01*
X7556Y3798D01*
X7560Y3808D01*
X7560Y3809D01*
D02*
G37*
G36*
X6658Y3145D02*
X6644D01*
X6650Y3137D01*
X6658Y3132D01*
Y3145D01*
D02*
G37*
G36*
X6691D02*
X6678D01*
Y3132D01*
X6686Y3137D01*
X6691Y3145D01*
D02*
G37*
G36*
X2308Y3129D02*
X2300Y3124D01*
X2295Y3116D01*
X2308D01*
Y3129D01*
D02*
G37*
G36*
X2328D02*
Y3116D01*
X2342D01*
X2336Y3124D01*
X2328Y3129D01*
D02*
G37*
G36*
X6658Y3179D02*
X6650Y3173D01*
X6644Y3165D01*
X6658D01*
Y3179D01*
D02*
G37*
G36*
X2903Y3233D02*
X2874D01*
Y3203D01*
X2875Y3204D01*
X2884Y3208D01*
X2893Y3214D01*
X2899Y3222D01*
X2903Y3232D01*
X2903Y3233D01*
D02*
G37*
G36*
X3710Y3238D02*
X3697D01*
X3702Y3230D01*
X3710Y3225D01*
Y3238D01*
D02*
G37*
G36*
X6678Y3179D02*
Y3165D01*
X6691D01*
X6686Y3173D01*
X6678Y3179D01*
D02*
G37*
G36*
X2854Y3233D02*
X2825D01*
X2825Y3232D01*
X2829Y3222D01*
X2836Y3214D01*
X2844Y3208D01*
X2854Y3204D01*
X2854Y3203D01*
Y3233D01*
D02*
G37*
G36*
X7136Y3091D02*
X7037D01*
Y2992D01*
X7136D01*
Y3091D01*
D02*
G37*
G36*
X6332Y3092D02*
X6322Y3090D01*
X6312Y3086D01*
X6304Y3080D01*
X6297Y3071D01*
X6293Y3062D01*
X6292Y3051D01*
X6293Y3041D01*
X6297Y3031D01*
X6304Y3023D01*
X6312Y3016D01*
X6322Y3012D01*
X6332Y3011D01*
X6343Y3012D01*
X6352Y3016D01*
X6361Y3023D01*
X6367Y3031D01*
X6371Y3041D01*
X6373Y3051D01*
X6371Y3062D01*
X6367Y3071D01*
X6361Y3080D01*
X6352Y3086D01*
X6343Y3090D01*
X6332Y3092D01*
D02*
G37*
G36*
X2863Y3072D02*
X2853Y3070D01*
X2843Y3066D01*
X2835Y3060D01*
X2829Y3052D01*
X2824Y3042D01*
X2823Y3031D01*
X2824Y3021D01*
X2829Y3011D01*
X2835Y3003D01*
X2843Y2997D01*
X2853Y2993D01*
X2863Y2991D01*
X2874Y2993D01*
X2884Y2997D01*
X2892Y3003D01*
X2898Y3011D01*
X2902Y3021D01*
X2904Y3031D01*
X2902Y3042D01*
X2898Y3052D01*
X2892Y3060D01*
X2884Y3066D01*
X2874Y3070D01*
X2863Y3072D01*
D02*
G37*
G36*
X2603Y3071D02*
X2523D01*
Y2991D01*
X2603D01*
Y3071D01*
D02*
G37*
G36*
X6542Y3092D02*
X6531Y3090D01*
X6522Y3086D01*
X6513Y3080D01*
X6507Y3071D01*
X6503Y3062D01*
X6501Y3051D01*
X6503Y3041D01*
X6507Y3031D01*
X6513Y3023D01*
X6522Y3016D01*
X6531Y3012D01*
X6542Y3011D01*
X6552Y3012D01*
X6562Y3016D01*
X6570Y3023D01*
X6577Y3031D01*
X6581Y3041D01*
X6582Y3051D01*
X6581Y3062D01*
X6577Y3071D01*
X6570Y3080D01*
X6562Y3086D01*
X6552Y3090D01*
X6542Y3092D01*
D02*
G37*
G36*
X7606Y3200D02*
X7592Y3198D01*
X7579Y3193D01*
X7568Y3184D01*
X7560Y3173D01*
X7554Y3160D01*
X7553Y3146D01*
X7554Y3133D01*
X7560Y3120D01*
X7568Y3108D01*
X7579Y3100D01*
X7592Y3095D01*
X7606Y3093D01*
X7620Y3095D01*
X7633Y3100D01*
X7644Y3108D01*
X7653Y3120D01*
X7658Y3133D01*
X7660Y3146D01*
X7658Y3160D01*
X7653Y3173D01*
X7644Y3184D01*
X7633Y3193D01*
X7620Y3198D01*
X7606Y3200D01*
D02*
G37*
G36*
X8006D02*
X7992Y3198D01*
X7979Y3193D01*
X7968Y3184D01*
X7960Y3173D01*
X7954Y3160D01*
X7953Y3146D01*
X7954Y3133D01*
X7960Y3120D01*
X7968Y3108D01*
X7979Y3100D01*
X7992Y3095D01*
X8006Y3093D01*
X8020Y3095D01*
X8033Y3100D01*
X8044Y3108D01*
X8053Y3120D01*
X8058Y3133D01*
X8060Y3146D01*
X8058Y3160D01*
X8053Y3173D01*
X8044Y3184D01*
X8033Y3193D01*
X8020Y3198D01*
X8006Y3200D01*
D02*
G37*
G36*
X2308Y3096D02*
X2295D01*
X2300Y3088D01*
X2308Y3082D01*
Y3096D01*
D02*
G37*
G36*
X2342D02*
X2328D01*
Y3082D01*
X2336Y3088D01*
X2342Y3096D01*
D02*
G37*
G36*
X6211Y3448D02*
Y3435D01*
X6224D01*
X6219Y3443D01*
X6211Y3448D01*
D02*
G37*
G36*
X3726Y3470D02*
X3712D01*
X3718Y3462D01*
X3726Y3456D01*
Y3470D01*
D02*
G37*
G36*
X6224Y3415D02*
X6211D01*
Y3402D01*
X6219Y3407D01*
X6224Y3415D01*
D02*
G37*
G36*
X6191Y3448D02*
X6183Y3443D01*
X6178Y3435D01*
X6191D01*
Y3448D01*
D02*
G37*
G36*
X3759Y3470D02*
X3746D01*
Y3456D01*
X3754Y3462D01*
X3759Y3470D01*
D02*
G37*
G36*
X3746Y3503D02*
Y3490D01*
X3759D01*
X3754Y3498D01*
X3746Y3503D01*
D02*
G37*
G36*
X7606Y3600D02*
X7592Y3598D01*
X7579Y3593D01*
X7568Y3584D01*
X7560Y3573D01*
X7554Y3560D01*
X7553Y3546D01*
X7554Y3533D01*
X7560Y3520D01*
X7568Y3508D01*
X7579Y3500D01*
X7592Y3495D01*
X7606Y3493D01*
X7620Y3495D01*
X7633Y3500D01*
X7644Y3508D01*
X7653Y3520D01*
X7658Y3533D01*
X7660Y3546D01*
X7658Y3560D01*
X7653Y3573D01*
X7644Y3584D01*
X7633Y3593D01*
X7620Y3598D01*
X7606Y3600D01*
D02*
G37*
G36*
X6437Y3510D02*
X6427Y3508D01*
X6419Y3502D01*
X6413Y3494D01*
X6412Y3484D01*
X6413Y3474D01*
X6419Y3466D01*
X6427Y3461D01*
X6437Y3459D01*
X6447Y3461D01*
X6455Y3466D01*
X6461Y3474D01*
X6462Y3484D01*
X6461Y3494D01*
X6455Y3502D01*
X6447Y3508D01*
X6437Y3510D01*
D02*
G37*
G36*
X3726Y3503D02*
X3718Y3498D01*
X3712Y3490D01*
X3726D01*
Y3503D01*
D02*
G37*
G36*
X2874Y3282D02*
Y3253D01*
X2903D01*
X2903Y3253D01*
X2899Y3263D01*
X2893Y3271D01*
X2884Y3277D01*
X2875Y3281D01*
X2874Y3282D01*
D02*
G37*
G36*
X7756Y3436D02*
X7739Y3434D01*
X7722Y3429D01*
X7706Y3421D01*
X7693Y3410D01*
X7682Y3396D01*
X7674Y3381D01*
X7668Y3364D01*
X7667Y3346D01*
X7668Y3329D01*
X7674Y3312D01*
X7682Y3297D01*
X7693Y3283D01*
X7706Y3272D01*
X7722Y3264D01*
X7739Y3259D01*
X7756Y3257D01*
X7773Y3259D01*
X7790Y3264D01*
X7805Y3272D01*
X7819Y3283D01*
X7830Y3297D01*
X7838Y3312D01*
X7843Y3329D01*
X7845Y3346D01*
X7843Y3364D01*
X7838Y3381D01*
X7830Y3396D01*
X7819Y3410D01*
X7805Y3421D01*
X7790Y3429D01*
X7773Y3434D01*
X7756Y3436D01*
D02*
G37*
G36*
X3744Y3238D02*
X3730D01*
Y3225D01*
X3738Y3230D01*
X3744Y3238D01*
D02*
G37*
G36*
X2854Y3282D02*
X2854Y3281D01*
X2844Y3277D01*
X2836Y3271D01*
X2829Y3263D01*
X2825Y3253D01*
X2825Y3253D01*
X2854D01*
Y3282D01*
D02*
G37*
G36*
X3710Y3271D02*
X3702Y3266D01*
X3697Y3258D01*
X3710D01*
Y3271D01*
D02*
G37*
G36*
X2933Y3431D02*
X2923Y3429D01*
X2915Y3424D01*
X2910Y3415D01*
X2908Y3406D01*
X2910Y3396D01*
X2915Y3387D01*
X2923Y3382D01*
X2933Y3380D01*
X2943Y3382D01*
X2951Y3387D01*
X2957Y3396D01*
X2959Y3406D01*
X2957Y3415D01*
X2951Y3424D01*
X2943Y3429D01*
X2933Y3431D01*
D02*
G37*
G36*
X6191Y3415D02*
X6178D01*
X6183Y3407D01*
X6191Y3402D01*
Y3415D01*
D02*
G37*
G36*
X3730Y3271D02*
Y3258D01*
X3744D01*
X3738Y3266D01*
X3730Y3271D01*
D02*
G37*
G36*
X4547Y3352D02*
X4537Y3350D01*
X4529Y3345D01*
X4524Y3337D01*
X4522Y3327D01*
X4524Y3317D01*
X4529Y3309D01*
X4537Y3303D01*
X4547Y3301D01*
X4557Y3303D01*
X4565Y3309D01*
X4571Y3317D01*
X4573Y3327D01*
X4571Y3337D01*
X4565Y3345D01*
X4557Y3350D01*
X4547Y3352D01*
D02*
G37*
G36*
X4833Y4279D02*
X4823Y4277D01*
X4815Y4272D01*
X4809Y4263D01*
X4807Y4254D01*
X4809Y4244D01*
X4815Y4236D01*
X4823Y4230D01*
X4833Y4228D01*
X4842Y4230D01*
X4851Y4236D01*
X4856Y4244D01*
X4858Y4254D01*
X4856Y4263D01*
X4851Y4272D01*
X4842Y4277D01*
X4833Y4279D01*
D02*
G37*
G36*
X5187D02*
X5177Y4277D01*
X5169Y4272D01*
X5163Y4263D01*
X5162Y4254D01*
X5163Y4244D01*
X5169Y4236D01*
X5177Y4230D01*
X5187Y4228D01*
X5197Y4230D01*
X5205Y4236D01*
X5211Y4244D01*
X5212Y4254D01*
X5211Y4263D01*
X5205Y4272D01*
X5197Y4277D01*
X5187Y4279D01*
D02*
G37*
G36*
X3248Y4222D02*
X3240Y4217D01*
X3234Y4209D01*
X3248D01*
Y4222D01*
D02*
G37*
G36*
X3268D02*
Y4209D01*
X3281D01*
X3276Y4217D01*
X3268Y4222D01*
D02*
G37*
G36*
X5541Y4279D02*
X5532Y4277D01*
X5523Y4272D01*
X5518Y4263D01*
X5516Y4254D01*
X5518Y4244D01*
X5523Y4236D01*
X5532Y4230D01*
X5541Y4228D01*
X5551Y4230D01*
X5559Y4236D01*
X5565Y4244D01*
X5567Y4254D01*
X5565Y4263D01*
X5559Y4272D01*
X5551Y4277D01*
X5541Y4279D01*
D02*
G37*
G36*
X3061Y4248D02*
Y4235D01*
X3075D01*
X3069Y4243D01*
X3061Y4248D01*
D02*
G37*
G36*
X4439Y4291D02*
X4429Y4289D01*
X4421Y4284D01*
X4415Y4276D01*
X4413Y4266D01*
X4415Y4256D01*
X4421Y4248D01*
X4429Y4242D01*
X4439Y4240D01*
X4449Y4242D01*
X4457Y4248D01*
X4463Y4256D01*
X4464Y4266D01*
X4463Y4276D01*
X4457Y4284D01*
X4449Y4289D01*
X4439Y4291D01*
D02*
G37*
G36*
X5896Y4279D02*
X5886Y4277D01*
X5878Y4272D01*
X5872Y4263D01*
X5870Y4254D01*
X5872Y4244D01*
X5878Y4236D01*
X5886Y4230D01*
X5896Y4228D01*
X5905Y4230D01*
X5914Y4236D01*
X5919Y4244D01*
X5921Y4254D01*
X5919Y4263D01*
X5914Y4272D01*
X5905Y4277D01*
X5896Y4279D01*
D02*
G37*
G36*
X3041Y4248D02*
X3033Y4243D01*
X3028Y4235D01*
X3041D01*
Y4248D01*
D02*
G37*
G36*
X1939Y4236D02*
X1936Y4235D01*
X1925Y4232D01*
X1914Y4226D01*
X1904Y4218D01*
X1896Y4208D01*
X1890Y4198D01*
X1887Y4186D01*
X1886Y4183D01*
X1939D01*
Y4236D01*
D02*
G37*
G36*
X1959D02*
Y4183D01*
X2011D01*
X2011Y4186D01*
X2007Y4198D01*
X2002Y4208D01*
X1994Y4218D01*
X1984Y4226D01*
X1973Y4232D01*
X1961Y4235D01*
X1959Y4236D01*
D02*
G37*
G36*
X3248Y4189D02*
X3234D01*
X3240Y4181D01*
X3248Y4175D01*
Y4189D01*
D02*
G37*
G36*
X3281D02*
X3268D01*
Y4175D01*
X3276Y4181D01*
X3281Y4189D01*
D02*
G37*
G36*
X3374Y4250D02*
X3364Y4248D01*
X3356Y4242D01*
X3350Y4234D01*
X3348Y4224D01*
X3350Y4215D01*
X3356Y4206D01*
X3364Y4201D01*
X3374Y4199D01*
X3384Y4201D01*
X3392Y4206D01*
X3397Y4215D01*
X3399Y4224D01*
X3397Y4234D01*
X3392Y4242D01*
X3384Y4248D01*
X3374Y4250D01*
D02*
G37*
G36*
X7746Y4281D02*
X7668D01*
X7668Y4274D01*
X7674Y4257D01*
X7682Y4242D01*
X7693Y4228D01*
X7706Y4217D01*
X7722Y4209D01*
X7739Y4204D01*
X7746Y4203D01*
Y4281D01*
D02*
G37*
G36*
X7844D02*
X7766D01*
Y4203D01*
X7773Y4204D01*
X7790Y4209D01*
X7805Y4217D01*
X7819Y4228D01*
X7830Y4242D01*
X7838Y4257D01*
X7843Y4274D01*
X7844Y4281D01*
D02*
G37*
G36*
X3041Y4215D02*
X3028D01*
X3033Y4206D01*
X3041Y4201D01*
Y4215D01*
D02*
G37*
G36*
X3075D02*
X3061D01*
Y4201D01*
X3069Y4206D01*
X3075Y4215D01*
D02*
G37*
G36*
X5010Y4348D02*
X5000Y4346D01*
X4992Y4340D01*
X4986Y4332D01*
X4984Y4322D01*
X4986Y4312D01*
X4992Y4304D01*
X5000Y4299D01*
X5010Y4297D01*
X5020Y4299D01*
X5028Y4304D01*
X5033Y4312D01*
X5035Y4322D01*
X5033Y4332D01*
X5028Y4340D01*
X5020Y4346D01*
X5010Y4348D01*
D02*
G37*
G36*
X5364D02*
X5354Y4346D01*
X5346Y4340D01*
X5341Y4332D01*
X5339Y4322D01*
X5341Y4312D01*
X5346Y4304D01*
X5354Y4299D01*
X5364Y4297D01*
X5374Y4299D01*
X5382Y4304D01*
X5388Y4312D01*
X5390Y4322D01*
X5388Y4332D01*
X5382Y4340D01*
X5374Y4346D01*
X5364Y4348D01*
D02*
G37*
G36*
X3809Y4307D02*
X3795D01*
X3801Y4299D01*
X3809Y4293D01*
Y4307D01*
D02*
G37*
G36*
X3842D02*
X3829D01*
Y4293D01*
X3837Y4299D01*
X3842Y4307D01*
D02*
G37*
G36*
X5720Y4348D02*
X5711Y4346D01*
X5702Y4340D01*
X5697Y4332D01*
X5695Y4322D01*
X5697Y4312D01*
X5702Y4304D01*
X5711Y4299D01*
X5720Y4297D01*
X5730Y4299D01*
X5738Y4304D01*
X5744Y4312D01*
X5746Y4322D01*
X5744Y4332D01*
X5738Y4340D01*
X5730Y4346D01*
X5720Y4348D01*
D02*
G37*
G36*
X4295Y4311D02*
X4282D01*
Y4297D01*
X4290Y4303D01*
X4295Y4311D01*
D02*
G37*
G36*
X7746Y4380D02*
X7739Y4379D01*
X7722Y4374D01*
X7706Y4365D01*
X7693Y4354D01*
X7682Y4341D01*
X7674Y4325D01*
X7668Y4309D01*
X7668Y4301D01*
X7746D01*
Y4380D01*
D02*
G37*
G36*
X6075Y4348D02*
X6065Y4346D01*
X6057Y4340D01*
X6051Y4332D01*
X6049Y4322D01*
X6051Y4312D01*
X6057Y4304D01*
X6065Y4299D01*
X6075Y4297D01*
X6085Y4299D01*
X6093Y4304D01*
X6098Y4312D01*
X6100Y4322D01*
X6098Y4332D01*
X6093Y4340D01*
X6085Y4346D01*
X6075Y4348D01*
D02*
G37*
G36*
X4262Y4311D02*
X4248D01*
X4254Y4303D01*
X4262Y4297D01*
Y4311D01*
D02*
G37*
G36*
X3937Y4317D02*
X3927Y4315D01*
X3919Y4309D01*
X3913Y4301D01*
X3912Y4291D01*
X3913Y4282D01*
X3919Y4273D01*
X3927Y4268D01*
X3937Y4266D01*
X3947Y4268D01*
X3955Y4273D01*
X3961Y4282D01*
X3962Y4291D01*
X3961Y4301D01*
X3955Y4309D01*
X3947Y4315D01*
X3937Y4317D01*
D02*
G37*
G36*
X3242Y4331D02*
X3232Y4329D01*
X3224Y4323D01*
X3219Y4315D01*
X3217Y4305D01*
X3219Y4295D01*
X3224Y4287D01*
X3232Y4282D01*
X3242Y4280D01*
X3252Y4282D01*
X3260Y4287D01*
X3266Y4295D01*
X3268Y4305D01*
X3266Y4315D01*
X3260Y4323D01*
X3252Y4329D01*
X3242Y4331D01*
D02*
G37*
G36*
X7136Y4351D02*
X7037D01*
Y4252D01*
X7136D01*
Y4351D01*
D02*
G37*
G36*
X2917Y4321D02*
X2870D01*
X2876Y4313D01*
X2881Y4309D01*
Y4303D01*
X2876Y4300D01*
X2870Y4291D01*
X2868Y4281D01*
X2870Y4272D01*
X2876Y4263D01*
X2884Y4258D01*
X2894Y4256D01*
X2903Y4258D01*
X2912Y4263D01*
X2917Y4272D01*
X2919Y4281D01*
X2917Y4291D01*
X2912Y4300D01*
X2906Y4303D01*
Y4309D01*
X2912Y4313D01*
X2917Y4321D01*
D02*
G37*
G36*
X3524Y4331D02*
X3514Y4329D01*
X3506Y4323D01*
X3500Y4315D01*
X3498Y4305D01*
X3500Y4295D01*
X3506Y4287D01*
X3514Y4282D01*
X3524Y4280D01*
X3533Y4282D01*
X3542Y4287D01*
X3547Y4295D01*
X3549Y4305D01*
X3547Y4315D01*
X3542Y4323D01*
X3533Y4329D01*
X3524Y4331D01*
D02*
G37*
G36*
X6542Y4371D02*
X6531Y4370D01*
X6522Y4366D01*
X6513Y4359D01*
X6507Y4351D01*
X6503Y4341D01*
X6501Y4331D01*
X6503Y4320D01*
X6507Y4311D01*
X6513Y4302D01*
X6522Y4296D01*
X6531Y4292D01*
X6542Y4290D01*
X6552Y4292D01*
X6562Y4296D01*
X6570Y4302D01*
X6577Y4311D01*
X6581Y4320D01*
X6582Y4331D01*
X6581Y4341D01*
X6577Y4351D01*
X6570Y4359D01*
X6562Y4366D01*
X6552Y4370D01*
X6542Y4371D01*
D02*
G37*
G36*
X3661Y4342D02*
X3651Y4340D01*
X3643Y4335D01*
X3638Y4326D01*
X3636Y4317D01*
X3638Y4307D01*
X3643Y4299D01*
X3651Y4293D01*
X3661Y4291D01*
X3671Y4293D01*
X3679Y4299D01*
X3685Y4307D01*
X3687Y4317D01*
X3685Y4326D01*
X3679Y4335D01*
X3671Y4340D01*
X3661Y4342D01*
D02*
G37*
G36*
X2294Y4361D02*
X2218D01*
Y4285D01*
X2294D01*
Y4361D01*
D02*
G37*
G36*
X6332Y4371D02*
X6322Y4370D01*
X6312Y4366D01*
X6304Y4359D01*
X6297Y4351D01*
X6293Y4341D01*
X6292Y4331D01*
X6293Y4320D01*
X6297Y4311D01*
X6304Y4302D01*
X6312Y4296D01*
X6322Y4292D01*
X6332Y4290D01*
X6343Y4292D01*
X6352Y4296D01*
X6361Y4302D01*
X6367Y4311D01*
X6371Y4320D01*
X6373Y4331D01*
X6371Y4341D01*
X6367Y4351D01*
X6361Y4359D01*
X6352Y4366D01*
X6343Y4370D01*
X6332Y4371D01*
D02*
G37*
G36*
X7606Y4145D02*
X7592Y4143D01*
X7579Y4138D01*
X7568Y4129D01*
X7560Y4118D01*
X7554Y4105D01*
X7553Y4091D01*
X7554Y4077D01*
X7560Y4064D01*
X7568Y4053D01*
X7579Y4045D01*
X7592Y4039D01*
X7606Y4038D01*
X7620Y4039D01*
X7633Y4045D01*
X7644Y4053D01*
X7653Y4064D01*
X7658Y4077D01*
X7660Y4091D01*
X7658Y4105D01*
X7653Y4118D01*
X7644Y4129D01*
X7633Y4138D01*
X7620Y4143D01*
X7606Y4145D01*
D02*
G37*
G36*
X8006D02*
X7992Y4143D01*
X7979Y4138D01*
X7968Y4129D01*
X7960Y4118D01*
X7954Y4105D01*
X7953Y4091D01*
X7954Y4077D01*
X7960Y4064D01*
X7968Y4053D01*
X7979Y4045D01*
X7992Y4039D01*
X8006Y4038D01*
X8020Y4039D01*
X8033Y4045D01*
X8044Y4053D01*
X8053Y4064D01*
X8058Y4077D01*
X8060Y4091D01*
X8058Y4105D01*
X8053Y4118D01*
X8044Y4129D01*
X8033Y4138D01*
X8020Y4143D01*
X8006Y4145D01*
D02*
G37*
G36*
X5539Y4056D02*
X5529Y4055D01*
X5519Y4051D01*
X5511Y4044D01*
X5504Y4036D01*
X5500Y4026D01*
X5499Y4016D01*
X5500Y4005D01*
X5504Y3996D01*
X5511Y3987D01*
X5519Y3981D01*
X5529Y3977D01*
X5539Y3975D01*
X5550Y3977D01*
X5560Y3981D01*
X5568Y3987D01*
X5574Y3996D01*
X5578Y4005D01*
X5580Y4016D01*
X5578Y4026D01*
X5574Y4036D01*
X5568Y4044D01*
X5560Y4051D01*
X5550Y4055D01*
X5539Y4056D01*
D02*
G37*
G36*
X5894D02*
X5883Y4055D01*
X5874Y4051D01*
X5865Y4044D01*
X5859Y4036D01*
X5855Y4026D01*
X5853Y4016D01*
X5855Y4005D01*
X5859Y3996D01*
X5865Y3987D01*
X5874Y3981D01*
X5883Y3977D01*
X5894Y3975D01*
X5904Y3977D01*
X5914Y3981D01*
X5922Y3987D01*
X5929Y3996D01*
X5933Y4005D01*
X5934Y4016D01*
X5933Y4026D01*
X5929Y4036D01*
X5922Y4044D01*
X5914Y4051D01*
X5904Y4055D01*
X5894Y4056D01*
D02*
G37*
G36*
X3661Y4101D02*
X3651Y4099D01*
X3643Y4093D01*
X3638Y4085D01*
X3636Y4075D01*
X3638Y4065D01*
X3643Y4057D01*
X3651Y4052D01*
X3661Y4050D01*
X3671Y4052D01*
X3679Y4057D01*
X3685Y4065D01*
X3687Y4075D01*
X3685Y4085D01*
X3679Y4093D01*
X3671Y4099D01*
X3661Y4101D01*
D02*
G37*
G36*
X7244Y4127D02*
X7234Y4125D01*
X7226Y4119D01*
X7221Y4111D01*
X7219Y4101D01*
X7221Y4092D01*
X7226Y4083D01*
X7234Y4078D01*
X7244Y4076D01*
X7254Y4078D01*
X7262Y4083D01*
X7268Y4092D01*
X7270Y4101D01*
X7268Y4111D01*
X7262Y4119D01*
X7254Y4125D01*
X7244Y4127D01*
D02*
G37*
G36*
X3592Y4091D02*
X3579D01*
X3584Y4083D01*
X3592Y4078D01*
Y4091D01*
D02*
G37*
G36*
X2559Y4147D02*
X2549Y4145D01*
X2539Y4141D01*
X2531Y4135D01*
X2524Y4126D01*
X2520Y4117D01*
X2519Y4106D01*
X2520Y4096D01*
X2524Y4086D01*
X2531Y4078D01*
X2539Y4071D01*
X2549Y4067D01*
X2559Y4066D01*
X2569Y4067D01*
X2579Y4071D01*
X2588Y4078D01*
X2594Y4086D01*
X2598Y4096D01*
X2599Y4106D01*
X2598Y4117D01*
X2594Y4126D01*
X2588Y4135D01*
X2579Y4141D01*
X2569Y4145D01*
X2559Y4147D01*
D02*
G37*
G36*
X2859D02*
X2849Y4145D01*
X2839Y4141D01*
X2831Y4135D01*
X2824Y4126D01*
X2820Y4117D01*
X2819Y4106D01*
X2820Y4096D01*
X2824Y4086D01*
X2831Y4078D01*
X2839Y4071D01*
X2849Y4067D01*
X2859Y4066D01*
X2869Y4067D01*
X2879Y4071D01*
X2888Y4078D01*
X2894Y4086D01*
X2898Y4096D01*
X2899Y4106D01*
X2898Y4117D01*
X2894Y4126D01*
X2888Y4135D01*
X2879Y4141D01*
X2869Y4145D01*
X2859Y4147D01*
D02*
G37*
G36*
X3090Y3912D02*
X3076D01*
Y3899D01*
X3084Y3904D01*
X3090Y3912D01*
D02*
G37*
G36*
X3056Y3946D02*
X3048Y3940D01*
X3043Y3932D01*
X3056D01*
Y3946D01*
D02*
G37*
G36*
X3849Y3901D02*
Y3888D01*
X3862D01*
X3857Y3896D01*
X3849Y3901D01*
D02*
G37*
G36*
X3056Y3912D02*
X3043D01*
X3048Y3904D01*
X3056Y3899D01*
Y3912D01*
D02*
G37*
G36*
X3076Y3946D02*
Y3932D01*
X3090D01*
X3084Y3940D01*
X3076Y3946D01*
D02*
G37*
G36*
X4831Y4056D02*
X4820Y4055D01*
X4811Y4051D01*
X4802Y4044D01*
X4796Y4036D01*
X4792Y4026D01*
X4790Y4016D01*
X4792Y4005D01*
X4796Y3996D01*
X4802Y3987D01*
X4811Y3981D01*
X4820Y3977D01*
X4831Y3975D01*
X4841Y3977D01*
X4851Y3981D01*
X4859Y3987D01*
X4866Y3996D01*
X4870Y4005D01*
X4871Y4016D01*
X4870Y4026D01*
X4866Y4036D01*
X4859Y4044D01*
X4851Y4051D01*
X4841Y4055D01*
X4831Y4056D01*
D02*
G37*
G36*
X5185D02*
X5175Y4055D01*
X5165Y4051D01*
X5157Y4044D01*
X5150Y4036D01*
X5146Y4026D01*
X5145Y4016D01*
X5146Y4005D01*
X5150Y3996D01*
X5157Y3987D01*
X5165Y3981D01*
X5175Y3977D01*
X5185Y3975D01*
X5195Y3977D01*
X5205Y3981D01*
X5214Y3987D01*
X5220Y3996D01*
X5224Y4005D01*
X5225Y4016D01*
X5224Y4026D01*
X5220Y4036D01*
X5214Y4044D01*
X5205Y4051D01*
X5195Y4055D01*
X5185Y4056D01*
D02*
G37*
G36*
X2559Y4047D02*
X2549Y4045D01*
X2539Y4041D01*
X2531Y4035D01*
X2524Y4026D01*
X2520Y4017D01*
X2519Y4006D01*
X2520Y3996D01*
X2524Y3986D01*
X2531Y3978D01*
X2539Y3971D01*
X2549Y3967D01*
X2559Y3966D01*
X2569Y3967D01*
X2579Y3971D01*
X2588Y3978D01*
X2594Y3986D01*
X2598Y3996D01*
X2599Y4006D01*
X2598Y4017D01*
X2594Y4026D01*
X2588Y4035D01*
X2579Y4041D01*
X2569Y4045D01*
X2559Y4047D01*
D02*
G37*
G36*
X2859D02*
X2849Y4045D01*
X2839Y4041D01*
X2831Y4035D01*
X2824Y4026D01*
X2820Y4017D01*
X2819Y4006D01*
X2820Y3996D01*
X2824Y3986D01*
X2831Y3978D01*
X2839Y3971D01*
X2849Y3967D01*
X2859Y3966D01*
X2869Y3967D01*
X2879Y3971D01*
X2888Y3978D01*
X2894Y3986D01*
X2898Y3996D01*
X2899Y4006D01*
X2898Y4017D01*
X2894Y4026D01*
X2888Y4035D01*
X2879Y4041D01*
X2869Y4045D01*
X2859Y4047D01*
D02*
G37*
G36*
X3266Y4145D02*
Y4132D01*
X3279D01*
X3274Y4140D01*
X3266Y4145D01*
D02*
G37*
G36*
X3207Y4194D02*
X3197Y4193D01*
X3189Y4187D01*
X3184Y4179D01*
X3182Y4169D01*
X3184Y4159D01*
X3189Y4151D01*
X3197Y4145D01*
X3207Y4143D01*
X3217Y4145D01*
X3225Y4151D01*
X3231Y4159D01*
X3233Y4169D01*
X3231Y4179D01*
X3225Y4187D01*
X3217Y4193D01*
X3207Y4194D01*
D02*
G37*
G36*
X3817Y4138D02*
X3803D01*
Y4124D01*
X3811Y4130D01*
X3817Y4138D01*
D02*
G37*
G36*
X3246Y4145D02*
X3238Y4140D01*
X3233Y4132D01*
X3246D01*
Y4145D01*
D02*
G37*
G36*
X3405Y4199D02*
X3396Y4197D01*
X3387Y4191D01*
X3382Y4183D01*
X3380Y4173D01*
X3382Y4163D01*
X3387Y4155D01*
X3396Y4150D01*
X3405Y4148D01*
X3415Y4150D01*
X3423Y4155D01*
X3429Y4163D01*
X3431Y4173D01*
X3429Y4183D01*
X3423Y4191D01*
X3415Y4197D01*
X3405Y4199D01*
D02*
G37*
G36*
X3783Y4171D02*
X3775Y4166D01*
X3770Y4158D01*
X3783D01*
Y4171D01*
D02*
G37*
G36*
X3803D02*
Y4158D01*
X3817D01*
X3811Y4166D01*
X3803Y4171D01*
D02*
G37*
G36*
X6850Y4251D02*
X6838Y4249D01*
X6825Y4244D01*
X6815Y4236D01*
X6807Y4226D01*
X6802Y4214D01*
X6801Y4201D01*
X6802Y4188D01*
X6807Y4176D01*
X6815Y4166D01*
X6825Y4158D01*
X6838Y4153D01*
X6850Y4151D01*
X6863Y4153D01*
X6875Y4158D01*
X6886Y4166D01*
X6894Y4176D01*
X6898Y4188D01*
X6900Y4201D01*
X6898Y4214D01*
X6894Y4226D01*
X6886Y4236D01*
X6875Y4244D01*
X6863Y4249D01*
X6850Y4251D01*
D02*
G37*
G36*
X7323D02*
X7310Y4249D01*
X7298Y4244D01*
X7288Y4236D01*
X7280Y4226D01*
X7275Y4214D01*
X7273Y4201D01*
X7275Y4188D01*
X7280Y4176D01*
X7288Y4166D01*
X7298Y4158D01*
X7310Y4153D01*
X7323Y4151D01*
X7336Y4153D01*
X7348Y4158D01*
X7358Y4166D01*
X7366Y4176D01*
X7371Y4188D01*
X7373Y4201D01*
X7371Y4214D01*
X7366Y4226D01*
X7358Y4236D01*
X7348Y4244D01*
X7336Y4249D01*
X7323Y4251D01*
D02*
G37*
G36*
X3246Y4112D02*
X3233D01*
X3238Y4104D01*
X3246Y4099D01*
Y4112D01*
D02*
G37*
G36*
X3279D02*
X3266D01*
Y4099D01*
X3274Y4104D01*
X3279Y4112D01*
D02*
G37*
G36*
X3626Y4091D02*
X3612D01*
Y4078D01*
X3620Y4083D01*
X3626Y4091D01*
D02*
G37*
G36*
X4055Y4140D02*
X4045Y4138D01*
X4037Y4132D01*
X4032Y4124D01*
X4030Y4114D01*
X4032Y4104D01*
X4037Y4096D01*
X4045Y4091D01*
X4055Y4089D01*
X4065Y4091D01*
X4073Y4096D01*
X4079Y4104D01*
X4081Y4114D01*
X4079Y4124D01*
X4073Y4132D01*
X4065Y4138D01*
X4055Y4140D01*
D02*
G37*
G36*
X2011Y4163D02*
X1959D01*
Y4111D01*
X1961Y4111D01*
X1973Y4115D01*
X1984Y4120D01*
X1994Y4128D01*
X2002Y4138D01*
X2007Y4149D01*
X2011Y4161D01*
X2011Y4163D01*
D02*
G37*
G36*
X3612Y4125D02*
Y4111D01*
X3626D01*
X3620Y4119D01*
X3612Y4125D01*
D02*
G37*
G36*
X3783Y4138D02*
X3770D01*
X3775Y4130D01*
X3783Y4124D01*
Y4138D01*
D02*
G37*
G36*
X1939Y4163D02*
X1886D01*
X1887Y4161D01*
X1890Y4149D01*
X1896Y4138D01*
X1904Y4128D01*
X1914Y4120D01*
X1925Y4115D01*
X1936Y4111D01*
X1939Y4111D01*
Y4163D01*
D02*
G37*
G36*
X3592Y4125D02*
X3584Y4119D01*
X3579Y4111D01*
X3592D01*
Y4125D01*
D02*
G37*
G36*
X7630Y3013D02*
Y2982D01*
X7660D01*
X7660Y2983D01*
X7656Y2993D01*
X7649Y3002D01*
X7641Y3009D01*
X7631Y3013D01*
X7630Y3013D01*
D02*
G37*
G36*
X7844Y2588D02*
X7766D01*
Y2510D01*
X7773Y2511D01*
X7790Y2516D01*
X7805Y2524D01*
X7819Y2535D01*
X7830Y2549D01*
X7838Y2564D01*
X7843Y2581D01*
X7844Y2588D01*
D02*
G37*
G36*
X3666Y2569D02*
X3656Y2567D01*
X3647Y2561D01*
X3642Y2553D01*
X3640Y2543D01*
X3642Y2534D01*
X3647Y2525D01*
X3656Y2520D01*
X3666Y2518D01*
X3675Y2520D01*
X3684Y2525D01*
X3689Y2534D01*
X3691Y2543D01*
X3689Y2553D01*
X3684Y2561D01*
X3675Y2567D01*
X3666Y2569D01*
D02*
G37*
G36*
X2863Y2572D02*
X2853Y2570D01*
X2843Y2566D01*
X2835Y2560D01*
X2829Y2552D01*
X2824Y2542D01*
X2823Y2531D01*
X2824Y2521D01*
X2829Y2511D01*
X2835Y2503D01*
X2843Y2497D01*
X2853Y2493D01*
X2863Y2491D01*
X2874Y2493D01*
X2884Y2497D01*
X2892Y2503D01*
X2898Y2511D01*
X2902Y2521D01*
X2904Y2531D01*
X2902Y2542D01*
X2898Y2552D01*
X2892Y2560D01*
X2884Y2566D01*
X2874Y2570D01*
X2863Y2572D01*
D02*
G37*
G36*
X7746Y2588D02*
X7668D01*
X7668Y2581D01*
X7674Y2564D01*
X7682Y2549D01*
X7693Y2535D01*
X7706Y2524D01*
X7722Y2516D01*
X7739Y2511D01*
X7746Y2510D01*
Y2588D01*
D02*
G37*
G36*
X3367Y2540D02*
X3354D01*
X3359Y2532D01*
X3367Y2527D01*
Y2540D01*
D02*
G37*
G36*
X3862Y2549D02*
X3849D01*
Y2536D01*
X3857Y2541D01*
X3862Y2549D01*
D02*
G37*
G36*
X1939Y2588D02*
X1886D01*
X1887Y2586D01*
X1890Y2574D01*
X1896Y2563D01*
X1904Y2554D01*
X1914Y2546D01*
X1925Y2540D01*
X1936Y2536D01*
X1939Y2536D01*
Y2588D01*
D02*
G37*
G36*
X3400Y2540D02*
X3387D01*
Y2527D01*
X3395Y2532D01*
X3400Y2540D01*
D02*
G37*
G36*
X3829Y2549D02*
X3815D01*
X3821Y2541D01*
X3829Y2536D01*
Y2549D01*
D02*
G37*
G36*
X3056Y2435D02*
X3043D01*
X3048Y2427D01*
X3056Y2422D01*
Y2435D01*
D02*
G37*
G36*
X3090D02*
X3076D01*
Y2422D01*
X3084Y2427D01*
X3090Y2435D01*
D02*
G37*
G36*
X6850Y2510D02*
X6838Y2509D01*
X6825Y2504D01*
X6815Y2496D01*
X6807Y2486D01*
X6802Y2474D01*
X6801Y2461D01*
X6802Y2448D01*
X6807Y2436D01*
X6815Y2425D01*
X6825Y2418D01*
X6838Y2413D01*
X6850Y2411D01*
X6863Y2413D01*
X6875Y2418D01*
X6886Y2425D01*
X6894Y2436D01*
X6898Y2448D01*
X6900Y2461D01*
X6898Y2474D01*
X6894Y2486D01*
X6886Y2496D01*
X6875Y2504D01*
X6863Y2509D01*
X6850Y2510D01*
D02*
G37*
G36*
X7323D02*
X7310Y2509D01*
X7298Y2504D01*
X7288Y2496D01*
X7280Y2486D01*
X7275Y2474D01*
X7273Y2461D01*
X7275Y2448D01*
X7280Y2436D01*
X7288Y2425D01*
X7298Y2418D01*
X7310Y2413D01*
X7323Y2411D01*
X7336Y2413D01*
X7348Y2418D01*
X7358Y2425D01*
X7366Y2436D01*
X7371Y2448D01*
X7373Y2461D01*
X7371Y2474D01*
X7366Y2486D01*
X7358Y2496D01*
X7348Y2504D01*
X7336Y2509D01*
X7323Y2510D01*
D02*
G37*
G36*
X4449Y2480D02*
X4439Y2478D01*
X4431Y2473D01*
X4425Y2464D01*
X4423Y2455D01*
X4425Y2445D01*
X4431Y2437D01*
X4439Y2431D01*
X4449Y2429D01*
X4459Y2431D01*
X4467Y2437D01*
X4472Y2445D01*
X4474Y2455D01*
X4472Y2464D01*
X4467Y2473D01*
X4459Y2478D01*
X4449Y2480D01*
D02*
G37*
G36*
X3076Y2469D02*
Y2455D01*
X3090D01*
X3084Y2463D01*
X3076Y2469D01*
D02*
G37*
G36*
X2563Y2572D02*
X2553Y2570D01*
X2543Y2566D01*
X2535Y2560D01*
X2529Y2552D01*
X2524Y2542D01*
X2523Y2531D01*
X2524Y2521D01*
X2529Y2511D01*
X2535Y2503D01*
X2543Y2497D01*
X2553Y2493D01*
X2563Y2491D01*
X2574Y2493D01*
X2584Y2497D01*
X2592Y2503D01*
X2598Y2511D01*
X2602Y2521D01*
X2604Y2531D01*
X2602Y2542D01*
X2598Y2552D01*
X2592Y2560D01*
X2584Y2566D01*
X2574Y2570D01*
X2563Y2572D01*
D02*
G37*
G36*
X4169Y2486D02*
X4159Y2484D01*
X4151Y2479D01*
X4145Y2470D01*
X4143Y2461D01*
X4145Y2451D01*
X4151Y2443D01*
X4159Y2437D01*
X4169Y2435D01*
X4179Y2437D01*
X4187Y2443D01*
X4192Y2451D01*
X4194Y2461D01*
X4192Y2470D01*
X4187Y2479D01*
X4179Y2484D01*
X4169Y2486D01*
D02*
G37*
G36*
X3056Y2469D02*
X3048Y2463D01*
X3043Y2455D01*
X3056D01*
Y2469D01*
D02*
G37*
G36*
X1939Y2661D02*
X1936Y2661D01*
X1925Y2657D01*
X1914Y2651D01*
X1904Y2643D01*
X1896Y2634D01*
X1890Y2623D01*
X1887Y2611D01*
X1886Y2608D01*
X1939D01*
Y2661D01*
D02*
G37*
G36*
X7746Y2687D02*
X7739Y2686D01*
X7722Y2681D01*
X7706Y2673D01*
X7693Y2661D01*
X7682Y2648D01*
X7674Y2633D01*
X7668Y2616D01*
X7668Y2608D01*
X7746D01*
Y2687D01*
D02*
G37*
G36*
X3602Y2620D02*
X3589D01*
X3594Y2612D01*
X3602Y2607D01*
Y2620D01*
D02*
G37*
G36*
X3636D02*
X3622D01*
Y2607D01*
X3630Y2612D01*
X3636Y2620D01*
D02*
G37*
G36*
X7766Y2687D02*
Y2608D01*
X7844D01*
X7843Y2616D01*
X7838Y2633D01*
X7830Y2648D01*
X7819Y2661D01*
X7805Y2673D01*
X7790Y2681D01*
X7773Y2686D01*
X7766Y2687D01*
D02*
G37*
G36*
X3238Y2641D02*
X3230Y2636D01*
X3225Y2628D01*
X3238D01*
Y2641D01*
D02*
G37*
G36*
X3258D02*
Y2628D01*
X3271D01*
X3266Y2636D01*
X3258Y2641D01*
D02*
G37*
G36*
X1959Y2661D02*
Y2608D01*
X2011D01*
X2011Y2611D01*
X2007Y2623D01*
X2002Y2634D01*
X1994Y2643D01*
X1984Y2651D01*
X1973Y2657D01*
X1961Y2661D01*
X1959Y2661D01*
D02*
G37*
G36*
X4537Y2663D02*
X4528Y2661D01*
X4519Y2656D01*
X4514Y2648D01*
X4512Y2638D01*
X4514Y2628D01*
X4519Y2620D01*
X4528Y2614D01*
X4537Y2612D01*
X4547Y2614D01*
X4555Y2620D01*
X4561Y2628D01*
X4563Y2638D01*
X4561Y2648D01*
X4555Y2656D01*
X4547Y2661D01*
X4537Y2663D01*
D02*
G37*
G36*
X4360Y2604D02*
X4350Y2602D01*
X4342Y2597D01*
X4337Y2588D01*
X4335Y2579D01*
X4337Y2569D01*
X4342Y2561D01*
X4350Y2555D01*
X4360Y2553D01*
X4370Y2555D01*
X4378Y2561D01*
X4384Y2569D01*
X4386Y2579D01*
X4384Y2588D01*
X4378Y2597D01*
X4370Y2602D01*
X4360Y2604D01*
D02*
G37*
G36*
X3367Y2574D02*
X3359Y2568D01*
X3354Y2560D01*
X3367D01*
Y2574D01*
D02*
G37*
G36*
X2011Y2588D02*
X1959D01*
Y2536D01*
X1961Y2536D01*
X1973Y2540D01*
X1984Y2546D01*
X1994Y2554D01*
X2002Y2563D01*
X2007Y2574D01*
X2011Y2586D01*
X2011Y2588D01*
D02*
G37*
G36*
X3543Y2604D02*
X3534Y2602D01*
X3525Y2597D01*
X3520Y2588D01*
X3518Y2579D01*
X3520Y2569D01*
X3525Y2561D01*
X3534Y2555D01*
X3543Y2553D01*
X3553Y2555D01*
X3561Y2561D01*
X3567Y2569D01*
X3569Y2579D01*
X3567Y2588D01*
X3561Y2597D01*
X3553Y2602D01*
X3543Y2604D01*
D02*
G37*
G36*
X3387Y2574D02*
Y2560D01*
X3400D01*
X3395Y2568D01*
X3387Y2574D01*
D02*
G37*
G36*
X3238Y2608D02*
X3225D01*
X3230Y2600D01*
X3238Y2595D01*
Y2608D01*
D02*
G37*
G36*
X3271D02*
X3258D01*
Y2595D01*
X3266Y2600D01*
X3271Y2608D01*
D02*
G37*
G36*
X3829Y2582D02*
X3821Y2577D01*
X3815Y2569D01*
X3829D01*
Y2582D01*
D02*
G37*
G36*
X3849D02*
Y2569D01*
X3862D01*
X3857Y2577D01*
X3849Y2582D01*
D02*
G37*
G36*
X3759Y2151D02*
X3746D01*
Y2138D01*
X3754Y2143D01*
X3759Y2151D01*
D02*
G37*
G36*
X3563Y2211D02*
X3554Y2209D01*
X3545Y2203D01*
X3540Y2195D01*
X3538Y2185D01*
X3540Y2175D01*
X3545Y2167D01*
X3554Y2161D01*
X3563Y2160D01*
X3573Y2161D01*
X3581Y2167D01*
X3587Y2175D01*
X3589Y2185D01*
X3587Y2195D01*
X3581Y2203D01*
X3573Y2209D01*
X3563Y2211D01*
D02*
G37*
G36*
X2864Y2147D02*
Y2116D01*
X2895D01*
X2895Y2117D01*
X2891Y2127D01*
X2884Y2136D01*
X2875Y2143D01*
X2865Y2147D01*
X2864Y2147D01*
D02*
G37*
G36*
X3726Y2151D02*
X3712D01*
X3718Y2143D01*
X3726Y2138D01*
Y2151D01*
D02*
G37*
G36*
X2896Y2248D02*
X2813D01*
Y2165D01*
X2896D01*
Y2248D01*
D02*
G37*
G36*
X1959Y2254D02*
X1951Y2253D01*
X1934Y2248D01*
X1919Y2239D01*
X1905Y2228D01*
X1894Y2215D01*
X1886Y2199D01*
X1881Y2183D01*
X1880Y2175D01*
X1959D01*
Y2254D01*
D02*
G37*
G36*
X1979D02*
Y2175D01*
X2057D01*
X2056Y2183D01*
X2051Y2199D01*
X2043Y2215D01*
X2032Y2228D01*
X2018Y2239D01*
X2003Y2248D01*
X1986Y2253D01*
X1979Y2254D01*
D02*
G37*
G36*
X3726Y2184D02*
X3718Y2179D01*
X3712Y2171D01*
X3726D01*
Y2184D01*
D02*
G37*
G36*
X3746D02*
Y2171D01*
X3759D01*
X3754Y2179D01*
X3746Y2184D01*
D02*
G37*
G36*
X2895Y2096D02*
X2864D01*
Y2066D01*
X2865Y2066D01*
X2875Y2070D01*
X2884Y2077D01*
X2891Y2085D01*
X2895Y2095D01*
X2895Y2096D01*
D02*
G37*
G36*
X1959Y2155D02*
X1880D01*
X1881Y2148D01*
X1886Y2131D01*
X1894Y2116D01*
X1905Y2102D01*
X1919Y2091D01*
X1934Y2083D01*
X1951Y2078D01*
X1959Y2077D01*
Y2155D01*
D02*
G37*
G36*
X4537Y2092D02*
X4528Y2090D01*
X4519Y2085D01*
X4514Y2077D01*
X4512Y2067D01*
X4514Y2057D01*
X4519Y2049D01*
X4528Y2043D01*
X4537Y2041D01*
X4547Y2043D01*
X4555Y2049D01*
X4561Y2057D01*
X4563Y2067D01*
X4561Y2077D01*
X4555Y2085D01*
X4547Y2090D01*
X4537Y2092D01*
D02*
G37*
G36*
X2844Y2096D02*
X2814D01*
X2814Y2095D01*
X2818Y2085D01*
X2825Y2077D01*
X2833Y2070D01*
X2843Y2066D01*
X2844Y2066D01*
Y2096D01*
D02*
G37*
G36*
X2057Y2155D02*
X1979D01*
Y2077D01*
X1986Y2078D01*
X2003Y2083D01*
X2018Y2091D01*
X2032Y2102D01*
X2043Y2116D01*
X2051Y2131D01*
X2056Y2148D01*
X2057Y2155D01*
D02*
G37*
G36*
X4360Y2142D02*
X4350Y2140D01*
X4342Y2134D01*
X4337Y2126D01*
X4335Y2116D01*
X4337Y2106D01*
X4342Y2098D01*
X4350Y2093D01*
X4360Y2091D01*
X4370Y2093D01*
X4378Y2098D01*
X4384Y2106D01*
X4386Y2116D01*
X4384Y2126D01*
X4378Y2134D01*
X4370Y2140D01*
X4360Y2142D01*
D02*
G37*
G36*
X2844Y2147D02*
X2843Y2147D01*
X2833Y2143D01*
X2825Y2136D01*
X2818Y2127D01*
X2814Y2117D01*
X2814Y2116D01*
X2844D01*
Y2147D01*
D02*
G37*
G36*
X8651Y2155D02*
X8573D01*
X8574Y2148D01*
X8579Y2131D01*
X8587Y2116D01*
X8598Y2102D01*
X8612Y2091D01*
X8627Y2083D01*
X8644Y2078D01*
X8651Y2077D01*
Y2155D01*
D02*
G37*
G36*
X8750D02*
X8671D01*
Y2077D01*
X8679Y2078D01*
X8696Y2083D01*
X8711Y2091D01*
X8724Y2102D01*
X8736Y2116D01*
X8744Y2131D01*
X8749Y2148D01*
X8750Y2155D01*
D02*
G37*
G36*
X2863Y2472D02*
X2853Y2470D01*
X2843Y2466D01*
X2835Y2460D01*
X2829Y2452D01*
X2824Y2442D01*
X2823Y2431D01*
X2824Y2421D01*
X2829Y2411D01*
X2835Y2403D01*
X2843Y2397D01*
X2853Y2393D01*
X2863Y2391D01*
X2874Y2393D01*
X2884Y2397D01*
X2892Y2403D01*
X2898Y2411D01*
X2902Y2421D01*
X2904Y2431D01*
X2902Y2442D01*
X2898Y2452D01*
X2892Y2460D01*
X2884Y2466D01*
X2874Y2470D01*
X2863Y2472D01*
D02*
G37*
G36*
X4246Y2410D02*
X4238Y2404D01*
X4233Y2396D01*
X4246D01*
Y2410D01*
D02*
G37*
G36*
X4280Y2376D02*
X4266D01*
Y2363D01*
X4274Y2368D01*
X4280Y2376D01*
D02*
G37*
G36*
X2563Y2472D02*
X2553Y2470D01*
X2543Y2466D01*
X2535Y2460D01*
X2529Y2452D01*
X2524Y2442D01*
X2523Y2431D01*
X2524Y2421D01*
X2529Y2411D01*
X2535Y2403D01*
X2543Y2397D01*
X2553Y2393D01*
X2563Y2391D01*
X2574Y2393D01*
X2584Y2397D01*
X2592Y2403D01*
X2598Y2411D01*
X2602Y2421D01*
X2604Y2431D01*
X2602Y2442D01*
X2598Y2452D01*
X2592Y2460D01*
X2584Y2466D01*
X2574Y2470D01*
X2563Y2472D01*
D02*
G37*
G36*
X4266Y2410D02*
Y2396D01*
X4280D01*
X4274Y2404D01*
X4266Y2410D01*
D02*
G37*
G36*
X5544Y2481D02*
X5533Y2480D01*
X5524Y2476D01*
X5515Y2469D01*
X5509Y2461D01*
X5505Y2451D01*
X5503Y2441D01*
X5505Y2431D01*
X5509Y2421D01*
X5515Y2412D01*
X5524Y2406D01*
X5533Y2402D01*
X5544Y2401D01*
X5554Y2402D01*
X5564Y2406D01*
X5572Y2412D01*
X5579Y2421D01*
X5583Y2431D01*
X5584Y2441D01*
X5583Y2451D01*
X5579Y2461D01*
X5572Y2469D01*
X5564Y2476D01*
X5554Y2480D01*
X5544Y2481D01*
D02*
G37*
G36*
X5898D02*
X5888Y2480D01*
X5878Y2476D01*
X5870Y2469D01*
X5863Y2461D01*
X5859Y2451D01*
X5858Y2441D01*
X5859Y2431D01*
X5863Y2421D01*
X5870Y2412D01*
X5878Y2406D01*
X5888Y2402D01*
X5898Y2401D01*
X5909Y2402D01*
X5918Y2406D01*
X5927Y2412D01*
X5933Y2421D01*
X5937Y2431D01*
X5938Y2441D01*
X5937Y2451D01*
X5933Y2461D01*
X5927Y2469D01*
X5918Y2476D01*
X5909Y2480D01*
X5898Y2481D01*
D02*
G37*
G36*
X4831D02*
X4820Y2480D01*
X4811Y2476D01*
X4802Y2469D01*
X4796Y2461D01*
X4792Y2451D01*
X4790Y2441D01*
X4792Y2431D01*
X4796Y2421D01*
X4802Y2412D01*
X4811Y2406D01*
X4820Y2402D01*
X4831Y2401D01*
X4841Y2402D01*
X4851Y2406D01*
X4859Y2412D01*
X4866Y2421D01*
X4870Y2431D01*
X4871Y2441D01*
X4870Y2451D01*
X4866Y2461D01*
X4859Y2469D01*
X4851Y2476D01*
X4841Y2480D01*
X4831Y2481D01*
D02*
G37*
G36*
X5189D02*
X5179Y2480D01*
X5169Y2476D01*
X5161Y2469D01*
X5155Y2461D01*
X5150Y2451D01*
X5149Y2441D01*
X5150Y2431D01*
X5155Y2421D01*
X5161Y2412D01*
X5169Y2406D01*
X5179Y2402D01*
X5189Y2401D01*
X5200Y2402D01*
X5210Y2406D01*
X5218Y2412D01*
X5224Y2421D01*
X5228Y2431D01*
X5230Y2441D01*
X5228Y2451D01*
X5224Y2461D01*
X5218Y2469D01*
X5210Y2476D01*
X5200Y2480D01*
X5189Y2481D01*
D02*
G37*
G36*
X2503Y2208D02*
X2489D01*
X2495Y2199D01*
X2503Y2194D01*
Y2208D01*
D02*
G37*
G36*
X2536D02*
X2523D01*
Y2194D01*
X2531Y2199D01*
X2536Y2208D01*
D02*
G37*
G36*
X8651Y2254D02*
X8644Y2253D01*
X8627Y2248D01*
X8612Y2239D01*
X8598Y2228D01*
X8587Y2215D01*
X8579Y2199D01*
X8574Y2183D01*
X8573Y2175D01*
X8651D01*
Y2254D01*
D02*
G37*
G36*
X8671D02*
Y2175D01*
X8750D01*
X8749Y2183D01*
X8744Y2199D01*
X8736Y2215D01*
X8724Y2228D01*
X8711Y2239D01*
X8696Y2248D01*
X8679Y2253D01*
X8671Y2254D01*
D02*
G37*
G36*
X2503Y2241D02*
X2495Y2236D01*
X2489Y2228D01*
X2503D01*
Y2241D01*
D02*
G37*
G36*
X8006Y2452D02*
X7992Y2450D01*
X7979Y2445D01*
X7968Y2436D01*
X7960Y2425D01*
X7954Y2412D01*
X7953Y2398D01*
X7954Y2385D01*
X7960Y2372D01*
X7968Y2360D01*
X7979Y2352D01*
X7992Y2346D01*
X8006Y2345D01*
X8020Y2346D01*
X8033Y2352D01*
X8044Y2360D01*
X8053Y2372D01*
X8058Y2385D01*
X8060Y2398D01*
X8058Y2412D01*
X8053Y2425D01*
X8044Y2436D01*
X8033Y2445D01*
X8020Y2450D01*
X8006Y2452D01*
D02*
G37*
G36*
X4246Y2376D02*
X4233D01*
X4238Y2368D01*
X4246Y2363D01*
Y2376D01*
D02*
G37*
G36*
X2523Y2241D02*
Y2228D01*
X2536D01*
X2531Y2236D01*
X2523Y2241D01*
D02*
G37*
G36*
X7606Y2452D02*
X7592Y2450D01*
X7579Y2445D01*
X7568Y2436D01*
X7560Y2425D01*
X7554Y2412D01*
X7553Y2398D01*
X7554Y2385D01*
X7560Y2372D01*
X7568Y2360D01*
X7579Y2352D01*
X7592Y2346D01*
X7606Y2345D01*
X7620Y2346D01*
X7633Y2352D01*
X7644Y2360D01*
X7653Y2372D01*
X7658Y2385D01*
X7660Y2398D01*
X7658Y2412D01*
X7653Y2425D01*
X7644Y2436D01*
X7633Y2445D01*
X7620Y2450D01*
X7606Y2452D01*
D02*
G37*
G36*
X3440Y2875D02*
X3426D01*
Y2861D01*
X3434Y2867D01*
X3440Y2875D01*
D02*
G37*
G36*
X2894Y2878D02*
X2886Y2872D01*
X2880Y2864D01*
X2894D01*
Y2878D01*
D02*
G37*
G36*
X4265Y2864D02*
X4252D01*
Y2851D01*
X4260Y2856D01*
X4265Y2864D01*
D02*
G37*
G36*
X3406Y2875D02*
X3393D01*
X3398Y2867D01*
X3406Y2861D01*
Y2875D01*
D02*
G37*
G36*
X2914Y2878D02*
Y2864D01*
X2927D01*
X2922Y2872D01*
X2914Y2878D01*
D02*
G37*
G36*
X3976Y2939D02*
X3967Y2937D01*
X3958Y2931D01*
X3953Y2923D01*
X3951Y2913D01*
X3953Y2904D01*
X3958Y2895D01*
X3967Y2890D01*
X3976Y2888D01*
X3986Y2890D01*
X3994Y2895D01*
X4000Y2904D01*
X4002Y2913D01*
X4000Y2923D01*
X3994Y2931D01*
X3986Y2937D01*
X3976Y2939D01*
D02*
G37*
G36*
X6850Y2991D02*
X6838Y2989D01*
X6825Y2984D01*
X6815Y2976D01*
X6807Y2966D01*
X6802Y2954D01*
X6801Y2941D01*
X6802Y2928D01*
X6807Y2916D01*
X6815Y2906D01*
X6825Y2898D01*
X6838Y2893D01*
X6850Y2891D01*
X6863Y2893D01*
X6875Y2898D01*
X6886Y2906D01*
X6894Y2916D01*
X6898Y2928D01*
X6900Y2941D01*
X6898Y2954D01*
X6894Y2966D01*
X6886Y2976D01*
X6875Y2984D01*
X6863Y2989D01*
X6850Y2991D01*
D02*
G37*
G36*
X4232Y2897D02*
X4224Y2892D01*
X4219Y2884D01*
X4232D01*
Y2897D01*
D02*
G37*
G36*
X4252D02*
Y2884D01*
X4265D01*
X4260Y2892D01*
X4252Y2897D01*
D02*
G37*
G36*
X2894Y2844D02*
X2880D01*
X2886Y2836D01*
X2894Y2831D01*
Y2844D01*
D02*
G37*
G36*
X2927D02*
X2914D01*
Y2831D01*
X2922Y2836D01*
X2927Y2844D01*
D02*
G37*
G36*
X3809Y2829D02*
X3795D01*
X3801Y2821D01*
X3809Y2815D01*
Y2829D01*
D02*
G37*
G36*
X3842D02*
X3829D01*
Y2815D01*
X3837Y2821D01*
X3842Y2829D01*
D02*
G37*
G36*
X1939Y2888D02*
X1886D01*
X1887Y2885D01*
X1890Y2873D01*
X1896Y2862D01*
X1904Y2853D01*
X1914Y2845D01*
X1925Y2839D01*
X1936Y2835D01*
X1939Y2835D01*
Y2888D01*
D02*
G37*
G36*
X3829Y2862D02*
Y2849D01*
X3842D01*
X3837Y2857D01*
X3829Y2862D01*
D02*
G37*
G36*
X4232Y2864D02*
X4219D01*
X4224Y2856D01*
X4232Y2851D01*
Y2864D01*
D02*
G37*
G36*
X2011Y2888D02*
X1959D01*
Y2835D01*
X1961Y2835D01*
X1973Y2839D01*
X1984Y2845D01*
X1994Y2853D01*
X2002Y2862D01*
X2007Y2873D01*
X2011Y2885D01*
X2011Y2888D01*
D02*
G37*
G36*
X3809Y2862D02*
X3801Y2857D01*
X3795Y2849D01*
X3809D01*
Y2862D01*
D02*
G37*
G36*
X7610Y2962D02*
X7579D01*
X7579Y2962D01*
X7583Y2952D01*
X7590Y2943D01*
X7599Y2936D01*
X7609Y2932D01*
X7610Y2932D01*
Y2962D01*
D02*
G37*
G36*
X7660D02*
X7630D01*
Y2932D01*
X7631Y2932D01*
X7641Y2936D01*
X7649Y2943D01*
X7656Y2952D01*
X7660Y2962D01*
X7660Y2962D01*
D02*
G37*
G36*
X3267Y2978D02*
X3258Y2976D01*
X3249Y2970D01*
X3244Y2962D01*
X3242Y2952D01*
X3244Y2943D01*
X3249Y2934D01*
X3258Y2929D01*
X3267Y2927D01*
X3277Y2929D01*
X3285Y2934D01*
X3291Y2943D01*
X3293Y2952D01*
X3291Y2962D01*
X3285Y2970D01*
X3277Y2976D01*
X3267Y2978D01*
D02*
G37*
G36*
X7561Y3014D02*
X7478D01*
Y2931D01*
X7561D01*
Y3014D01*
D02*
G37*
G36*
X5016Y3023D02*
X5006Y3021D01*
X4996Y3017D01*
X4988Y3011D01*
X4981Y3002D01*
X4977Y2993D01*
X4976Y2982D01*
X4977Y2972D01*
X4981Y2962D01*
X4988Y2954D01*
X4996Y2947D01*
X5006Y2943D01*
X5016Y2942D01*
X5027Y2943D01*
X5036Y2947D01*
X5045Y2954D01*
X5051Y2962D01*
X5055Y2972D01*
X5057Y2982D01*
X5055Y2993D01*
X5051Y3002D01*
X5045Y3011D01*
X5036Y3017D01*
X5027Y3021D01*
X5016Y3023D01*
D02*
G37*
G36*
X6079D02*
X6069Y3021D01*
X6059Y3017D01*
X6051Y3011D01*
X6044Y3002D01*
X6040Y2993D01*
X6039Y2982D01*
X6040Y2972D01*
X6044Y2962D01*
X6051Y2954D01*
X6059Y2947D01*
X6069Y2943D01*
X6079Y2942D01*
X6090Y2943D01*
X6099Y2947D01*
X6108Y2954D01*
X6114Y2962D01*
X6118Y2972D01*
X6120Y2982D01*
X6118Y2993D01*
X6114Y3002D01*
X6108Y3011D01*
X6099Y3017D01*
X6090Y3021D01*
X6079Y3023D01*
D02*
G37*
G36*
X7610Y3013D02*
X7609Y3013D01*
X7599Y3009D01*
X7590Y3002D01*
X7583Y2993D01*
X7579Y2983D01*
X7579Y2982D01*
X7610D01*
Y3013D01*
D02*
G37*
G36*
X5371Y3023D02*
X5360Y3021D01*
X5350Y3017D01*
X5342Y3011D01*
X5336Y3002D01*
X5332Y2993D01*
X5330Y2982D01*
X5332Y2972D01*
X5336Y2962D01*
X5342Y2954D01*
X5350Y2947D01*
X5360Y2943D01*
X5371Y2942D01*
X5381Y2943D01*
X5391Y2947D01*
X5399Y2954D01*
X5405Y2962D01*
X5410Y2972D01*
X5411Y2982D01*
X5410Y2993D01*
X5405Y3002D01*
X5399Y3011D01*
X5391Y3017D01*
X5381Y3021D01*
X5371Y3023D01*
D02*
G37*
G36*
X5725D02*
X5714Y3021D01*
X5705Y3017D01*
X5696Y3011D01*
X5690Y3002D01*
X5686Y2993D01*
X5685Y2982D01*
X5686Y2972D01*
X5690Y2962D01*
X5696Y2954D01*
X5705Y2947D01*
X5714Y2943D01*
X5725Y2942D01*
X5735Y2943D01*
X5745Y2947D01*
X5753Y2954D01*
X5760Y2962D01*
X5764Y2972D01*
X5765Y2982D01*
X5764Y2993D01*
X5760Y3002D01*
X5753Y3011D01*
X5745Y3017D01*
X5735Y3021D01*
X5725Y3023D01*
D02*
G37*
G36*
X2863Y2972D02*
X2853Y2970D01*
X2843Y2966D01*
X2835Y2960D01*
X2829Y2952D01*
X2824Y2942D01*
X2823Y2931D01*
X2824Y2921D01*
X2829Y2911D01*
X2835Y2903D01*
X2843Y2897D01*
X2853Y2893D01*
X2863Y2891D01*
X2874Y2893D01*
X2884Y2897D01*
X2892Y2903D01*
X2898Y2911D01*
X2902Y2921D01*
X2904Y2931D01*
X2902Y2942D01*
X2898Y2952D01*
X2892Y2960D01*
X2884Y2966D01*
X2874Y2970D01*
X2863Y2972D01*
D02*
G37*
G36*
X3406Y2908D02*
X3398Y2903D01*
X3393Y2895D01*
X3406D01*
Y2908D01*
D02*
G37*
G36*
X7323Y2991D02*
X7310Y2989D01*
X7298Y2984D01*
X7288Y2976D01*
X7280Y2966D01*
X7275Y2954D01*
X7273Y2941D01*
X7275Y2928D01*
X7280Y2916D01*
X7288Y2906D01*
X7298Y2898D01*
X7310Y2893D01*
X7323Y2891D01*
X7336Y2893D01*
X7348Y2898D01*
X7358Y2906D01*
X7366Y2916D01*
X7371Y2928D01*
X7373Y2941D01*
X7371Y2954D01*
X7366Y2966D01*
X7358Y2976D01*
X7348Y2984D01*
X7336Y2989D01*
X7323Y2991D01*
D02*
G37*
G36*
X2563Y2972D02*
X2553Y2970D01*
X2543Y2966D01*
X2535Y2960D01*
X2529Y2952D01*
X2524Y2942D01*
X2523Y2931D01*
X2524Y2921D01*
X2529Y2911D01*
X2535Y2903D01*
X2543Y2897D01*
X2553Y2893D01*
X2563Y2891D01*
X2574Y2893D01*
X2584Y2897D01*
X2592Y2903D01*
X2598Y2911D01*
X2602Y2921D01*
X2604Y2931D01*
X2602Y2942D01*
X2598Y2952D01*
X2592Y2960D01*
X2584Y2966D01*
X2574Y2970D01*
X2563Y2972D01*
D02*
G37*
G36*
X3426Y2908D02*
Y2895D01*
X3440D01*
X3434Y2903D01*
X3426Y2908D01*
D02*
G37*
G36*
X1959Y2960D02*
Y2908D01*
X2011D01*
X2011Y2910D01*
X2007Y2922D01*
X2002Y2933D01*
X1994Y2943D01*
X1984Y2950D01*
X1973Y2956D01*
X1961Y2960D01*
X1959Y2960D01*
D02*
G37*
G36*
X4104Y2968D02*
X4094Y2966D01*
X4086Y2961D01*
X4080Y2952D01*
X4079Y2943D01*
X4080Y2933D01*
X4086Y2925D01*
X4094Y2919D01*
X4104Y2917D01*
X4114Y2919D01*
X4122Y2925D01*
X4128Y2933D01*
X4130Y2943D01*
X4128Y2952D01*
X4122Y2961D01*
X4114Y2966D01*
X4104Y2968D01*
D02*
G37*
G36*
X3036Y2949D02*
X3026Y2947D01*
X3018Y2941D01*
X3013Y2933D01*
X3011Y2923D01*
X3013Y2913D01*
X3018Y2905D01*
X3026Y2900D01*
X3036Y2898D01*
X3046Y2900D01*
X3054Y2905D01*
X3060Y2913D01*
X3062Y2923D01*
X3060Y2933D01*
X3054Y2941D01*
X3046Y2947D01*
X3036Y2949D01*
D02*
G37*
G36*
X1939Y2960D02*
X1936Y2960D01*
X1925Y2956D01*
X1914Y2950D01*
X1904Y2943D01*
X1896Y2933D01*
X1890Y2922D01*
X1887Y2910D01*
X1886Y2908D01*
X1939D01*
Y2960D01*
D02*
G37*
G36*
X3779Y2695D02*
X3771Y2689D01*
X3766Y2681D01*
X3779D01*
Y2695D01*
D02*
G37*
G36*
X3799D02*
Y2681D01*
X3813D01*
X3807Y2689D01*
X3799Y2695D01*
D02*
G37*
G36*
X3194Y2712D02*
X3184Y2711D01*
X3176Y2705D01*
X3170Y2697D01*
X3168Y2687D01*
X3170Y2677D01*
X3176Y2669D01*
X3184Y2663D01*
X3194Y2662D01*
X3203Y2663D01*
X3212Y2669D01*
X3217Y2677D01*
X3219Y2687D01*
X3217Y2697D01*
X3212Y2705D01*
X3203Y2711D01*
X3194Y2712D01*
D02*
G37*
G36*
X3374Y2774D02*
X3364Y2772D01*
X3356Y2766D01*
X3350Y2758D01*
X3349Y2748D01*
X3350Y2738D01*
X3356Y2730D01*
X3364Y2725D01*
X3364Y2723D01*
X3365Y2719D01*
X3358Y2715D01*
X3352Y2707D01*
X3350Y2697D01*
X3352Y2687D01*
X3358Y2679D01*
X3366Y2673D01*
X3376Y2671D01*
X3386Y2673D01*
X3394Y2679D01*
X3400Y2687D01*
X3401Y2697D01*
X3400Y2707D01*
X3394Y2715D01*
X3386Y2720D01*
X3386Y2722D01*
X3385Y2726D01*
X3392Y2730D01*
X3398Y2738D01*
X3400Y2748D01*
X3398Y2758D01*
X3392Y2766D01*
X3384Y2772D01*
X3374Y2774D01*
D02*
G37*
G36*
X3616Y2748D02*
X3606Y2746D01*
X3598Y2740D01*
X3593Y2732D01*
X3591Y2722D01*
X3593Y2713D01*
X3598Y2704D01*
X3606Y2699D01*
X3616Y2697D01*
X3626Y2699D01*
X3634Y2704D01*
X3640Y2713D01*
X3642Y2722D01*
X3640Y2732D01*
X3634Y2740D01*
X3626Y2746D01*
X3616Y2748D01*
D02*
G37*
G36*
X2294Y2786D02*
X2218D01*
Y2710D01*
X2294D01*
Y2786D01*
D02*
G37*
G36*
X3021Y2726D02*
X3008D01*
X3013Y2718D01*
X3021Y2713D01*
Y2726D01*
D02*
G37*
G36*
X3248Y2712D02*
X3234D01*
X3240Y2704D01*
X3248Y2699D01*
Y2712D01*
D02*
G37*
G36*
X3281D02*
X3268D01*
Y2699D01*
X3276Y2704D01*
X3281Y2712D01*
D02*
G37*
G36*
X3622Y2653D02*
Y2640D01*
X3636D01*
X3630Y2648D01*
X3622Y2653D01*
D02*
G37*
G36*
X3779Y2661D02*
X3766D01*
X3771Y2653D01*
X3779Y2648D01*
Y2661D01*
D02*
G37*
G36*
X4053Y2691D02*
X4043Y2689D01*
X4035Y2683D01*
X4030Y2675D01*
X4028Y2665D01*
X4030Y2656D01*
X4035Y2647D01*
X4043Y2642D01*
X4053Y2640D01*
X4063Y2642D01*
X4071Y2647D01*
X4077Y2656D01*
X4079Y2665D01*
X4077Y2675D01*
X4071Y2683D01*
X4063Y2689D01*
X4053Y2691D01*
D02*
G37*
G36*
X3602Y2653D02*
X3594Y2648D01*
X3589Y2640D01*
X3602D01*
Y2653D01*
D02*
G37*
G36*
X3813Y2661D02*
X3799D01*
Y2648D01*
X3807Y2653D01*
X3813Y2661D01*
D02*
G37*
G36*
X5541Y2704D02*
X5532Y2702D01*
X5523Y2697D01*
X5518Y2688D01*
X5516Y2679D01*
X5518Y2669D01*
X5523Y2661D01*
X5532Y2655D01*
X5541Y2653D01*
X5551Y2655D01*
X5559Y2661D01*
X5565Y2669D01*
X5567Y2679D01*
X5565Y2688D01*
X5559Y2697D01*
X5551Y2702D01*
X5541Y2704D01*
D02*
G37*
G36*
X5896D02*
X5886Y2702D01*
X5878Y2697D01*
X5872Y2688D01*
X5870Y2679D01*
X5872Y2669D01*
X5878Y2661D01*
X5886Y2655D01*
X5896Y2653D01*
X5905Y2655D01*
X5914Y2661D01*
X5919Y2669D01*
X5921Y2679D01*
X5919Y2688D01*
X5914Y2697D01*
X5905Y2702D01*
X5896Y2704D01*
D02*
G37*
G36*
X4823D02*
X4813Y2702D01*
X4805Y2697D01*
X4799Y2688D01*
X4797Y2679D01*
X4799Y2669D01*
X4805Y2661D01*
X4813Y2655D01*
X4823Y2653D01*
X4833Y2655D01*
X4841Y2661D01*
X4846Y2669D01*
X4848Y2679D01*
X4846Y2688D01*
X4841Y2697D01*
X4833Y2702D01*
X4823Y2704D01*
D02*
G37*
G36*
X5177D02*
X5167Y2702D01*
X5159Y2697D01*
X5154Y2688D01*
X5152Y2679D01*
X5154Y2669D01*
X5159Y2661D01*
X5167Y2655D01*
X5177Y2653D01*
X5187Y2655D01*
X5195Y2661D01*
X5201Y2669D01*
X5203Y2679D01*
X5201Y2688D01*
X5195Y2697D01*
X5187Y2702D01*
X5177Y2704D01*
D02*
G37*
G36*
X3021Y2760D02*
X3013Y2754D01*
X3008Y2746D01*
X3021D01*
Y2760D01*
D02*
G37*
G36*
X3041D02*
Y2746D01*
X3055D01*
X3050Y2754D01*
X3041Y2760D01*
D02*
G37*
G36*
X7606Y2852D02*
X7592Y2850D01*
X7579Y2845D01*
X7568Y2836D01*
X7560Y2825D01*
X7554Y2812D01*
X7553Y2798D01*
X7554Y2785D01*
X7560Y2772D01*
X7568Y2760D01*
X7579Y2752D01*
X7592Y2746D01*
X7606Y2745D01*
X7620Y2746D01*
X7633Y2752D01*
X7644Y2760D01*
X7653Y2772D01*
X7658Y2785D01*
X7660Y2798D01*
X7658Y2812D01*
X7653Y2825D01*
X7644Y2836D01*
X7633Y2845D01*
X7620Y2850D01*
X7606Y2852D01*
D02*
G37*
G36*
X8006D02*
X7992Y2850D01*
X7979Y2845D01*
X7968Y2836D01*
X7960Y2825D01*
X7954Y2812D01*
X7953Y2798D01*
X7954Y2785D01*
X7960Y2772D01*
X7968Y2760D01*
X7979Y2752D01*
X7992Y2746D01*
X8006Y2745D01*
X8020Y2746D01*
X8033Y2752D01*
X8044Y2760D01*
X8053Y2772D01*
X8058Y2785D01*
X8060Y2798D01*
X8058Y2812D01*
X8053Y2825D01*
X8044Y2836D01*
X8033Y2845D01*
X8020Y2850D01*
X8006Y2852D01*
D02*
G37*
G36*
X3902Y2799D02*
X3893Y2797D01*
X3884Y2792D01*
X3879Y2783D01*
X3877Y2774D01*
X3879Y2764D01*
X3884Y2755D01*
X3893Y2750D01*
X3902Y2748D01*
X3912Y2750D01*
X3920Y2755D01*
X3926Y2764D01*
X3928Y2774D01*
X3926Y2783D01*
X3920Y2792D01*
X3912Y2797D01*
X3902Y2799D01*
D02*
G37*
G36*
X7231Y2877D02*
X7222Y2876D01*
X7214Y2872D01*
X7206Y2866D01*
X7201Y2859D01*
X7197Y2851D01*
X7196Y2842D01*
X7197Y2832D01*
X7201Y2824D01*
X7206Y2817D01*
X7214Y2811D01*
X7222Y2807D01*
X7231Y2806D01*
X7240Y2807D01*
X7249Y2811D01*
X7256Y2817D01*
X7262Y2824D01*
X7265Y2832D01*
X7267Y2842D01*
X7265Y2851D01*
X7262Y2859D01*
X7256Y2866D01*
X7249Y2872D01*
X7240Y2876D01*
X7231Y2877D01*
D02*
G37*
G36*
X3666Y2864D02*
X3656Y2862D01*
X3647Y2857D01*
X3642Y2848D01*
X3640Y2839D01*
X3642Y2829D01*
X3647Y2821D01*
X3656Y2815D01*
X3666Y2813D01*
X3675Y2815D01*
X3684Y2821D01*
X3689Y2829D01*
X3691Y2839D01*
X3689Y2848D01*
X3684Y2857D01*
X3675Y2862D01*
X3666Y2864D01*
D02*
G37*
G36*
X7401Y2772D02*
X7393Y2767D01*
X7388Y2759D01*
X7401D01*
Y2772D01*
D02*
G37*
G36*
X7421D02*
Y2759D01*
X7435D01*
X7429Y2767D01*
X7421Y2772D01*
D02*
G37*
G36*
X5364Y2773D02*
X5354Y2771D01*
X5346Y2765D01*
X5341Y2757D01*
X5339Y2747D01*
X5341Y2738D01*
X5346Y2729D01*
X5354Y2724D01*
X5364Y2722D01*
X5374Y2724D01*
X5382Y2729D01*
X5388Y2738D01*
X5390Y2747D01*
X5388Y2757D01*
X5382Y2765D01*
X5374Y2771D01*
X5364Y2773D01*
D02*
G37*
G36*
X5728D02*
X5719Y2771D01*
X5710Y2765D01*
X5705Y2757D01*
X5703Y2747D01*
X5705Y2738D01*
X5710Y2729D01*
X5719Y2724D01*
X5728Y2722D01*
X5738Y2724D01*
X5746Y2729D01*
X5752Y2738D01*
X5754Y2747D01*
X5752Y2757D01*
X5746Y2765D01*
X5738Y2771D01*
X5728Y2773D01*
D02*
G37*
G36*
X3055Y2726D02*
X3041D01*
Y2713D01*
X3050Y2718D01*
X3055Y2726D01*
D02*
G37*
G36*
X5010Y2773D02*
X5000Y2771D01*
X4992Y2765D01*
X4986Y2757D01*
X4984Y2747D01*
X4986Y2738D01*
X4992Y2729D01*
X5000Y2724D01*
X5010Y2722D01*
X5020Y2724D01*
X5028Y2729D01*
X5033Y2738D01*
X5035Y2747D01*
X5033Y2757D01*
X5028Y2765D01*
X5020Y2771D01*
X5010Y2773D01*
D02*
G37*
G36*
X6083D02*
X6073Y2771D01*
X6065Y2765D01*
X6059Y2757D01*
X6057Y2747D01*
X6059Y2738D01*
X6065Y2729D01*
X6073Y2724D01*
X6083Y2722D01*
X6092Y2724D01*
X6101Y2729D01*
X6106Y2738D01*
X6108Y2747D01*
X6106Y2757D01*
X6101Y2765D01*
X6092Y2771D01*
X6083Y2773D01*
D02*
G37*
G36*
X3248Y2746D02*
X3240Y2740D01*
X3234Y2732D01*
X3248D01*
Y2746D01*
D02*
G37*
G36*
X3268D02*
Y2732D01*
X3281D01*
X3276Y2740D01*
X3268Y2746D01*
D02*
G37*
G36*
X7401Y2739D02*
X7388D01*
X7393Y2731D01*
X7401Y2726D01*
Y2739D01*
D02*
G37*
G36*
X7435D02*
X7421D01*
Y2726D01*
X7429Y2731D01*
X7435Y2739D01*
D02*
G37*
G36*
X7766Y4380D02*
Y4301D01*
X7844D01*
X7843Y4309D01*
X7838Y4325D01*
X7830Y4341D01*
X7819Y4354D01*
X7805Y4365D01*
X7790Y4374D01*
X7773Y4379D01*
X7766Y4380D01*
D02*
G37*
G36*
X2864Y6978D02*
X2857Y6977D01*
X2840Y6972D01*
X2824Y6964D01*
X2811Y6953D01*
X2800Y6939D01*
X2792Y6924D01*
X2787Y6907D01*
X2786Y6900D01*
X2864D01*
Y6978D01*
D02*
G37*
G36*
X2884Y6978D02*
Y6900D01*
X2962D01*
X2961Y6907D01*
X2956Y6924D01*
X2948Y6939D01*
X2937Y6953D01*
X2924Y6964D01*
X2908Y6972D01*
X2891Y6977D01*
X2884Y6978D01*
D02*
G37*
G36*
X4094Y6896D02*
X4085Y6894D01*
X4076Y6888D01*
X4071Y6880D01*
X4069Y6870D01*
X4071Y6860D01*
X4076Y6852D01*
X4085Y6847D01*
X4094Y6845D01*
X4104Y6847D01*
X4113Y6852D01*
X4118Y6860D01*
X4120Y6870D01*
X4118Y6880D01*
X4113Y6888D01*
X4104Y6894D01*
X4094Y6896D01*
D02*
G37*
G36*
X3545Y6972D02*
X3462D01*
Y6889D01*
X3545D01*
Y6972D01*
D02*
G37*
G36*
X7205Y6975D02*
X7195Y6973D01*
X7187Y6967D01*
X7181Y6959D01*
X7180Y6949D01*
X7181Y6939D01*
X7187Y6931D01*
X7195Y6926D01*
X7205Y6924D01*
X7215Y6926D01*
X7223Y6931D01*
X7229Y6939D01*
X7231Y6949D01*
X7229Y6959D01*
X7223Y6967D01*
X7215Y6973D01*
X7205Y6975D01*
D02*
G37*
G36*
X6339Y7054D02*
X6328Y7053D01*
X6318Y7049D01*
X6310Y7042D01*
X6304Y7034D01*
X6300Y7024D01*
X6298Y7014D01*
X6300Y7003D01*
X6304Y6994D01*
X6310Y6985D01*
X6318Y6979D01*
X6328Y6975D01*
X6339Y6973D01*
X6349Y6975D01*
X6359Y6979D01*
X6367Y6985D01*
X6374Y6994D01*
X6378Y7003D01*
X6379Y7014D01*
X6378Y7024D01*
X6374Y7034D01*
X6367Y7042D01*
X6359Y7049D01*
X6349Y7053D01*
X6339Y7054D01*
D02*
G37*
G36*
X6437D02*
X6427Y7053D01*
X6417Y7049D01*
X6408Y7042D01*
X6402Y7034D01*
X6398Y7024D01*
X6397Y7014D01*
X6398Y7003D01*
X6402Y6994D01*
X6408Y6985D01*
X6417Y6979D01*
X6427Y6975D01*
X6437Y6973D01*
X6447Y6975D01*
X6457Y6979D01*
X6466Y6985D01*
X6472Y6994D01*
X6476Y7003D01*
X6477Y7014D01*
X6476Y7024D01*
X6472Y7034D01*
X6466Y7042D01*
X6457Y7049D01*
X6447Y7053D01*
X6437Y7054D01*
D02*
G37*
G36*
X5239Y7048D02*
X5228Y7047D01*
X5218Y7043D01*
X5210Y7036D01*
X5204Y7028D01*
X5200Y7018D01*
X5198Y7008D01*
X5200Y6997D01*
X5204Y6988D01*
X5210Y6979D01*
X5218Y6973D01*
X5228Y6969D01*
X5239Y6968D01*
X5249Y6969D01*
X5259Y6973D01*
X5267Y6979D01*
X5274Y6988D01*
X5278Y6997D01*
X5279Y7008D01*
X5278Y7018D01*
X5274Y7028D01*
X5267Y7036D01*
X5259Y7043D01*
X5249Y7047D01*
X5239Y7048D01*
D02*
G37*
G36*
X5787Y7054D02*
X5777Y7053D01*
X5767Y7049D01*
X5759Y7042D01*
X5752Y7034D01*
X5748Y7024D01*
X5747Y7014D01*
X5748Y7003D01*
X5752Y6994D01*
X5759Y6985D01*
X5767Y6979D01*
X5777Y6975D01*
X5787Y6973D01*
X5798Y6975D01*
X5808Y6979D01*
X5816Y6985D01*
X5822Y6994D01*
X5826Y7003D01*
X5828Y7014D01*
X5826Y7024D01*
X5822Y7034D01*
X5816Y7042D01*
X5808Y7049D01*
X5798Y7053D01*
X5787Y7054D01*
D02*
G37*
G36*
X3494Y6821D02*
X3463D01*
X3464Y6820D01*
X3468Y6810D01*
X3474Y6801D01*
X3483Y6794D01*
X3493Y6790D01*
X3494Y6790D01*
Y6821D01*
D02*
G37*
G36*
X2962Y6880D02*
X2884D01*
Y6802D01*
X2891Y6802D01*
X2908Y6807D01*
X2924Y6816D01*
X2937Y6827D01*
X2948Y6840D01*
X2956Y6856D01*
X2961Y6872D01*
X2962Y6880D01*
D02*
G37*
G36*
X7307Y6801D02*
X7293D01*
Y6788D01*
X7301Y6793D01*
X7307Y6801D01*
D02*
G37*
G36*
X3544Y6821D02*
X3514D01*
Y6790D01*
X3515Y6790D01*
X3525Y6794D01*
X3534Y6801D01*
X3540Y6810D01*
X3544Y6820D01*
X3544Y6821D01*
D02*
G37*
G36*
X2864Y6880D02*
X2786D01*
X2787Y6872D01*
X2792Y6856D01*
X2800Y6840D01*
X2811Y6827D01*
X2824Y6816D01*
X2840Y6807D01*
X2857Y6802D01*
X2864Y6802D01*
Y6880D01*
D02*
G37*
G36*
X3494Y6871D02*
X3493Y6871D01*
X3483Y6867D01*
X3474Y6860D01*
X3468Y6852D01*
X3464Y6842D01*
X3463Y6841D01*
X3494D01*
Y6871D01*
D02*
G37*
G36*
X3514Y6871D02*
Y6841D01*
X3544D01*
X3544Y6842D01*
X3540Y6852D01*
X3534Y6860D01*
X3525Y6867D01*
X3515Y6871D01*
X3514Y6871D01*
D02*
G37*
G36*
X7273Y6835D02*
X7265Y6829D01*
X7260Y6821D01*
X7273D01*
Y6835D01*
D02*
G37*
G36*
X7293D02*
Y6821D01*
X7307D01*
X7301Y6829D01*
X7293Y6835D01*
D02*
G37*
G36*
X4449Y7211D02*
X4439Y7209D01*
X4431Y7203D01*
X4425Y7195D01*
X4424Y7185D01*
X4425Y7175D01*
X4431Y7167D01*
X4436Y7163D01*
Y7157D01*
X4431Y7154D01*
X4425Y7146D01*
X4424Y7136D01*
X4425Y7126D01*
X4431Y7118D01*
X4439Y7112D01*
X4449Y7110D01*
X4459Y7112D01*
X4467Y7118D01*
X4473Y7126D01*
X4475Y7136D01*
X4473Y7146D01*
X4467Y7154D01*
X4462Y7157D01*
Y7163D01*
X4467Y7167D01*
X4473Y7175D01*
X4475Y7185D01*
X4473Y7195D01*
X4467Y7203D01*
X4459Y7209D01*
X4449Y7211D01*
D02*
G37*
G36*
X6752Y7136D02*
X6738D01*
X6744Y7128D01*
X6752Y7122D01*
Y7136D01*
D02*
G37*
G36*
X7549Y7116D02*
X7536D01*
X7541Y7108D01*
X7549Y7103D01*
Y7116D01*
D02*
G37*
G36*
X7582D02*
X7569D01*
Y7103D01*
X7577Y7108D01*
X7582Y7116D01*
D02*
G37*
G36*
X6785Y7136D02*
X6772D01*
Y7122D01*
X6780Y7128D01*
X6785Y7136D01*
D02*
G37*
G36*
X6752Y7169D02*
X6744Y7164D01*
X6738Y7156D01*
X6752D01*
Y7169D01*
D02*
G37*
G36*
X6772D02*
Y7156D01*
X6785D01*
X6780Y7164D01*
X6772Y7169D01*
D02*
G37*
G36*
X7549Y7149D02*
X7541Y7144D01*
X7536Y7136D01*
X7549D01*
Y7149D01*
D02*
G37*
G36*
X7569D02*
Y7136D01*
X7582D01*
X7577Y7144D01*
X7569Y7149D01*
D02*
G37*
G36*
X4585Y7026D02*
X4577Y7020D01*
X4572Y7012D01*
X4585D01*
Y7026D01*
D02*
G37*
G36*
X4605D02*
Y7012D01*
X4619D01*
X4613Y7020D01*
X4605Y7026D01*
D02*
G37*
G36*
X4585Y6992D02*
X4572D01*
X4577Y6984D01*
X4585Y6979D01*
Y6992D01*
D02*
G37*
G36*
X4619D02*
X4605D01*
Y6979D01*
X4613Y6984D01*
X4619Y6992D01*
D02*
G37*
G36*
X2624Y7144D02*
X2610Y7142D01*
X2597Y7136D01*
X2586Y7128D01*
X2577Y7117D01*
X2572Y7104D01*
X2570Y7090D01*
X2572Y7076D01*
X2577Y7063D01*
X2586Y7052D01*
X2597Y7043D01*
X2610Y7038D01*
X2624Y7036D01*
X2638Y7038D01*
X2651Y7043D01*
X2662Y7052D01*
X2670Y7063D01*
X2676Y7076D01*
X2677Y7090D01*
X2676Y7104D01*
X2670Y7117D01*
X2662Y7128D01*
X2651Y7136D01*
X2638Y7142D01*
X2624Y7144D01*
D02*
G37*
G36*
X3559Y7175D02*
X3449D01*
Y7065D01*
X3559D01*
Y7175D01*
D02*
G37*
G36*
X7480Y7151D02*
X7471Y7150D01*
X7462Y7144D01*
X7457Y7136D01*
X7455Y7126D01*
X7457Y7116D01*
X7462Y7108D01*
X7471Y7102D01*
X7480Y7100D01*
X7490Y7102D01*
X7498Y7108D01*
X7504Y7116D01*
X7506Y7126D01*
X7504Y7136D01*
X7498Y7144D01*
X7490Y7150D01*
X7480Y7151D01*
D02*
G37*
G36*
X3024Y7144D02*
X3010Y7142D01*
X2997Y7136D01*
X2986Y7128D01*
X2977Y7117D01*
X2972Y7104D01*
X2970Y7090D01*
X2972Y7076D01*
X2977Y7063D01*
X2986Y7052D01*
X2997Y7043D01*
X3010Y7038D01*
X3024Y7036D01*
X3038Y7038D01*
X3051Y7043D01*
X3062Y7052D01*
X3070Y7063D01*
X3076Y7076D01*
X3077Y7090D01*
X3076Y7104D01*
X3070Y7117D01*
X3062Y7128D01*
X3051Y7136D01*
X3038Y7142D01*
X3024Y7144D01*
D02*
G37*
G36*
X3209Y7176D02*
X3194Y7174D01*
X3181Y7168D01*
X3169Y7160D01*
X3160Y7148D01*
X3155Y7135D01*
X3153Y7120D01*
X3155Y7106D01*
X3160Y7092D01*
X3169Y7081D01*
X3181Y7072D01*
X3194Y7066D01*
X3209Y7064D01*
X3223Y7066D01*
X3236Y7072D01*
X3248Y7081D01*
X3257Y7092D01*
X3262Y7106D01*
X3264Y7120D01*
X3262Y7135D01*
X3257Y7148D01*
X3248Y7160D01*
X3236Y7168D01*
X3223Y7174D01*
X3209Y7176D01*
D02*
G37*
G36*
X6511Y6273D02*
Y6260D01*
X6524D01*
X6519Y6268D01*
X6511Y6273D01*
D02*
G37*
G36*
X4399Y6346D02*
X4389Y6345D01*
X4379Y6341D01*
X4371Y6335D01*
X4364Y6326D01*
X4360Y6317D01*
X4359Y6306D01*
X4360Y6296D01*
X4364Y6286D01*
X4371Y6278D01*
X4379Y6271D01*
X4389Y6267D01*
X4399Y6266D01*
X4410Y6267D01*
X4419Y6271D01*
X4428Y6278D01*
X4434Y6286D01*
X4438Y6296D01*
X4440Y6306D01*
X4438Y6317D01*
X4434Y6326D01*
X4428Y6335D01*
X4419Y6341D01*
X4410Y6345D01*
X4399Y6346D01*
D02*
G37*
G36*
X6181Y6296D02*
X6173Y6295D01*
X6166Y6292D01*
X6160Y6288D01*
X6155Y6281D01*
X6152Y6274D01*
X6151Y6266D01*
X6152Y6258D01*
X6155Y6251D01*
X6160Y6245D01*
X6166Y6240D01*
X6173Y6237D01*
X6181Y6236D01*
X6189Y6237D01*
X6196Y6240D01*
X6202Y6245D01*
X6207Y6251D01*
X6210Y6258D01*
X6211Y6266D01*
X6210Y6274D01*
X6207Y6281D01*
X6202Y6288D01*
X6196Y6292D01*
X6189Y6295D01*
X6181Y6296D01*
D02*
G37*
G36*
X6491Y6273D02*
X6483Y6268D01*
X6477Y6260D01*
X6491D01*
Y6273D01*
D02*
G37*
G36*
X6299Y6406D02*
X6289Y6405D01*
X6279Y6401D01*
X6271Y6395D01*
X6264Y6386D01*
X6260Y6377D01*
X6259Y6366D01*
X6260Y6356D01*
X6264Y6346D01*
X6271Y6338D01*
X6279Y6331D01*
X6289Y6327D01*
X6299Y6326D01*
X6310Y6327D01*
X6319Y6331D01*
X6328Y6338D01*
X6334Y6346D01*
X6338Y6356D01*
X6340Y6366D01*
X6338Y6377D01*
X6334Y6386D01*
X6328Y6395D01*
X6319Y6401D01*
X6310Y6405D01*
X6299Y6406D01*
D02*
G37*
G36*
X2497Y6494D02*
X2482Y6492D01*
X2468Y6487D01*
X2456Y6478D01*
X2447Y6466D01*
X2442Y6452D01*
X2440Y6437D01*
X2442Y6422D01*
X2447Y6408D01*
X2456Y6396D01*
X2468Y6387D01*
X2482Y6382D01*
X2497Y6380D01*
X2512Y6382D01*
X2526Y6387D01*
X2538Y6396D01*
X2547Y6408D01*
X2552Y6422D01*
X2554Y6437D01*
X2552Y6452D01*
X2547Y6466D01*
X2538Y6478D01*
X2526Y6487D01*
X2512Y6492D01*
X2497Y6494D01*
D02*
G37*
G36*
X2954D02*
X2939Y6492D01*
X2925Y6487D01*
X2913Y6478D01*
X2904Y6466D01*
X2898Y6452D01*
X2896Y6437D01*
X2898Y6422D01*
X2904Y6408D01*
X2913Y6396D01*
X2925Y6387D01*
X2939Y6382D01*
X2954Y6380D01*
X2969Y6382D01*
X2982Y6387D01*
X2994Y6396D01*
X3003Y6408D01*
X3009Y6422D01*
X3011Y6437D01*
X3009Y6452D01*
X3003Y6466D01*
X2994Y6478D01*
X2982Y6487D01*
X2969Y6492D01*
X2954Y6494D01*
D02*
G37*
G36*
X6181Y6396D02*
X6173Y6395D01*
X6166Y6392D01*
X6160Y6388D01*
X6155Y6381D01*
X6152Y6374D01*
X6151Y6366D01*
X6152Y6358D01*
X6155Y6351D01*
X6160Y6345D01*
X6166Y6340D01*
X6173Y6337D01*
X6181Y6336D01*
X6189Y6337D01*
X6196Y6340D01*
X6202Y6345D01*
X6207Y6351D01*
X6210Y6358D01*
X6211Y6366D01*
X6210Y6374D01*
X6207Y6381D01*
X6202Y6388D01*
X6196Y6392D01*
X6189Y6395D01*
X6181Y6396D01*
D02*
G37*
G36*
X4439Y6446D02*
X4359D01*
Y6366D01*
X4439D01*
Y6446D01*
D02*
G37*
G36*
X3886Y6214D02*
X3878Y6209D01*
X3872Y6201D01*
X3886D01*
Y6214D01*
D02*
G37*
G36*
X3906D02*
Y6201D01*
X3919D01*
X3914Y6209D01*
X3906Y6214D01*
D02*
G37*
G36*
X4597Y6262D02*
X4514D01*
Y6179D01*
X4597D01*
Y6262D01*
D02*
G37*
G36*
X3986Y6232D02*
X3976Y6230D01*
X3968Y6224D01*
X3963Y6216D01*
X3961Y6206D01*
X3963Y6196D01*
X3968Y6188D01*
X3976Y6183D01*
X3986Y6181D01*
X3996Y6183D01*
X4004Y6188D01*
X4010Y6196D01*
X4012Y6206D01*
X4010Y6216D01*
X4004Y6224D01*
X3996Y6230D01*
X3986Y6232D01*
D02*
G37*
G36*
X3553Y6224D02*
X3545Y6219D01*
X3540Y6211D01*
X3553D01*
Y6224D01*
D02*
G37*
G36*
X6491Y6240D02*
X6477D01*
X6483Y6232D01*
X6491Y6227D01*
Y6240D01*
D02*
G37*
G36*
X6524D02*
X6511D01*
Y6227D01*
X6519Y6232D01*
X6524Y6240D01*
D02*
G37*
G36*
X3573Y6224D02*
Y6211D01*
X3586D01*
X3581Y6219D01*
X3573Y6224D01*
D02*
G37*
G36*
X6299Y6306D02*
X6289Y6305D01*
X6279Y6301D01*
X6271Y6295D01*
X6264Y6286D01*
X6260Y6277D01*
X6259Y6266D01*
X6260Y6256D01*
X6264Y6246D01*
X6271Y6238D01*
X6279Y6231D01*
X6289Y6227D01*
X6299Y6226D01*
X6310Y6227D01*
X6319Y6231D01*
X6328Y6238D01*
X6334Y6246D01*
X6338Y6256D01*
X6340Y6266D01*
X6338Y6277D01*
X6334Y6286D01*
X6328Y6295D01*
X6319Y6301D01*
X6310Y6305D01*
X6299Y6306D01*
D02*
G37*
G36*
Y6606D02*
X6289Y6605D01*
X6279Y6601D01*
X6271Y6595D01*
X6264Y6586D01*
X6260Y6577D01*
X6259Y6566D01*
X6260Y6556D01*
X6264Y6546D01*
X6271Y6538D01*
X6279Y6531D01*
X6289Y6527D01*
X6299Y6526D01*
X6310Y6527D01*
X6319Y6531D01*
X6328Y6538D01*
X6334Y6546D01*
X6338Y6556D01*
X6340Y6566D01*
X6338Y6577D01*
X6334Y6586D01*
X6328Y6595D01*
X6319Y6601D01*
X6310Y6605D01*
X6299Y6606D01*
D02*
G37*
G36*
Y6706D02*
X6289Y6705D01*
X6279Y6701D01*
X6271Y6695D01*
X6264Y6686D01*
X6260Y6677D01*
X6259Y6666D01*
X6260Y6656D01*
X6264Y6646D01*
X6271Y6638D01*
X6279Y6631D01*
X6289Y6627D01*
X6299Y6626D01*
X6310Y6627D01*
X6319Y6631D01*
X6328Y6638D01*
X6334Y6646D01*
X6338Y6656D01*
X6340Y6666D01*
X6338Y6677D01*
X6334Y6686D01*
X6328Y6695D01*
X6319Y6701D01*
X6310Y6705D01*
X6299Y6706D01*
D02*
G37*
G36*
X6289Y6505D02*
X6289Y6505D01*
X6279Y6501D01*
X6271Y6495D01*
X6264Y6486D01*
X6260Y6477D01*
X6260Y6476D01*
X6289D01*
Y6505D01*
D02*
G37*
G36*
X6309D02*
Y6476D01*
X6338D01*
X6338Y6477D01*
X6334Y6486D01*
X6328Y6495D01*
X6319Y6501D01*
X6310Y6505D01*
X6309Y6505D01*
D02*
G37*
G36*
X2624Y6744D02*
X2610Y6742D01*
X2597Y6736D01*
X2586Y6728D01*
X2577Y6717D01*
X2572Y6704D01*
X2570Y6690D01*
X2572Y6676D01*
X2577Y6663D01*
X2586Y6652D01*
X2597Y6643D01*
X2610Y6638D01*
X2624Y6636D01*
X2638Y6638D01*
X2651Y6643D01*
X2662Y6652D01*
X2670Y6663D01*
X2676Y6676D01*
X2677Y6690D01*
X2676Y6704D01*
X2670Y6717D01*
X2662Y6728D01*
X2651Y6736D01*
X2638Y6742D01*
X2624Y6744D01*
D02*
G37*
G36*
X4075Y6837D02*
X4065Y6835D01*
X4057Y6829D01*
X4051Y6821D01*
X4049Y6811D01*
X4051Y6801D01*
X4057Y6793D01*
X4065Y6787D01*
X4075Y6786D01*
X4085Y6787D01*
X4093Y6793D01*
X4098Y6801D01*
X4100Y6811D01*
X4098Y6821D01*
X4093Y6829D01*
X4085Y6835D01*
X4075Y6837D01*
D02*
G37*
G36*
X7273Y6801D02*
X7260D01*
X7265Y6793D01*
X7273Y6788D01*
Y6801D01*
D02*
G37*
G36*
X3024Y6744D02*
X3010Y6742D01*
X2997Y6736D01*
X2986Y6728D01*
X2977Y6717D01*
X2972Y6704D01*
X2970Y6690D01*
X2972Y6676D01*
X2977Y6663D01*
X2986Y6652D01*
X2997Y6643D01*
X3010Y6638D01*
X3024Y6636D01*
X3038Y6638D01*
X3051Y6643D01*
X3062Y6652D01*
X3070Y6663D01*
X3076Y6676D01*
X3077Y6690D01*
X3076Y6704D01*
X3070Y6717D01*
X3062Y6728D01*
X3051Y6736D01*
X3038Y6742D01*
X3024Y6744D01*
D02*
G37*
G36*
X6299Y6806D02*
X6289Y6805D01*
X6279Y6801D01*
X6271Y6795D01*
X6264Y6786D01*
X6260Y6777D01*
X6259Y6766D01*
X6260Y6756D01*
X6264Y6746D01*
X6271Y6738D01*
X6279Y6731D01*
X6289Y6727D01*
X6299Y6726D01*
X6310Y6727D01*
X6319Y6731D01*
X6328Y6738D01*
X6334Y6746D01*
X6338Y6756D01*
X6340Y6766D01*
X6338Y6777D01*
X6334Y6786D01*
X6328Y6795D01*
X6319Y6801D01*
X6310Y6805D01*
X6299Y6806D01*
D02*
G37*
G36*
X2597Y6427D02*
X2568D01*
X2568Y6427D01*
X2572Y6417D01*
X2579Y6409D01*
X2587Y6402D01*
X2597Y6398D01*
X2597Y6398D01*
Y6427D01*
D02*
G37*
G36*
X2646D02*
X2617D01*
Y6398D01*
X2618Y6398D01*
X2627Y6402D01*
X2636Y6409D01*
X2642Y6417D01*
X2646Y6427D01*
X2646Y6427D01*
D02*
G37*
G36*
X2725Y6477D02*
X2715Y6476D01*
X2705Y6472D01*
X2697Y6465D01*
X2691Y6457D01*
X2687Y6447D01*
X2685Y6437D01*
X2687Y6427D01*
X2691Y6417D01*
X2697Y6409D01*
X2705Y6402D01*
X2715Y6398D01*
X2725Y6397D01*
X2736Y6398D01*
X2745Y6402D01*
X2754Y6409D01*
X2760Y6417D01*
X2764Y6427D01*
X2766Y6437D01*
X2764Y6447D01*
X2760Y6457D01*
X2754Y6465D01*
X2745Y6472D01*
X2736Y6476D01*
X2725Y6477D01*
D02*
G37*
G36*
X2883Y6477D02*
X2804D01*
Y6397D01*
X2883D01*
Y6477D01*
D02*
G37*
G36*
X3642Y6472D02*
X3632Y6470D01*
X3624Y6465D01*
X3618Y6457D01*
X3616Y6447D01*
X3618Y6437D01*
X3624Y6429D01*
X3632Y6423D01*
X3642Y6421D01*
X3651Y6423D01*
X3660Y6429D01*
X3665Y6437D01*
X3667Y6447D01*
X3665Y6457D01*
X3660Y6465D01*
X3651Y6470D01*
X3642Y6472D01*
D02*
G37*
G36*
X2597Y6476D02*
X2597Y6476D01*
X2587Y6472D01*
X2579Y6465D01*
X2572Y6457D01*
X2568Y6447D01*
X2568Y6447D01*
X2597D01*
Y6476D01*
D02*
G37*
G36*
X2617D02*
Y6447D01*
X2646D01*
X2646Y6447D01*
X2642Y6457D01*
X2636Y6465D01*
X2627Y6472D01*
X2618Y6476D01*
X2617Y6476D01*
D02*
G37*
G36*
X6289Y6456D02*
X6260D01*
X6260Y6456D01*
X6264Y6446D01*
X6271Y6438D01*
X6279Y6431D01*
X6289Y6427D01*
X6289Y6427D01*
Y6456D01*
D02*
G37*
G36*
X6338D02*
X6309D01*
Y6427D01*
X6310Y6427D01*
X6319Y6431D01*
X6328Y6438D01*
X6334Y6446D01*
X6338Y6456D01*
X6338Y6456D01*
D02*
G37*
G36*
X4823Y7247D02*
X4812Y7245D01*
X4802Y7241D01*
X4793Y7234D01*
X4787Y7226D01*
X4782Y7216D01*
X4781Y7205D01*
X4782Y7194D01*
X4787Y7184D01*
X4793Y7175D01*
X4802Y7168D01*
X4812Y7164D01*
X4823Y7163D01*
X4834Y7164D01*
X4844Y7168D01*
X4852Y7175D01*
X4859Y7184D01*
X4863Y7194D01*
X4865Y7205D01*
X4863Y7216D01*
X4859Y7226D01*
X4852Y7234D01*
X4844Y7241D01*
X4834Y7245D01*
X4823Y7247D01*
D02*
G37*
G36*
X3504Y7963D02*
X3489Y7961D01*
X3476Y7956D01*
X3464Y7947D01*
X3456Y7935D01*
X3450Y7922D01*
X3448Y7907D01*
X3450Y7893D01*
X3456Y7880D01*
X3464Y7868D01*
X3476Y7859D01*
X3489Y7854D01*
X3504Y7852D01*
X3518Y7854D01*
X3532Y7859D01*
X3543Y7868D01*
X3552Y7880D01*
X3558Y7893D01*
X3560Y7907D01*
X3558Y7922D01*
X3552Y7935D01*
X3543Y7947D01*
X3532Y7956D01*
X3518Y7961D01*
X3504Y7963D01*
D02*
G37*
G36*
X4232Y7926D02*
X4223Y7924D01*
X4214Y7918D01*
X4209Y7910D01*
X4207Y7900D01*
X4209Y7891D01*
X4214Y7882D01*
X4223Y7877D01*
X4232Y7875D01*
X4242Y7877D01*
X4250Y7882D01*
X4256Y7891D01*
X4258Y7900D01*
X4256Y7910D01*
X4250Y7918D01*
X4242Y7924D01*
X4232Y7926D01*
D02*
G37*
G36*
X4870Y7914D02*
X4860Y7913D01*
X4850Y7909D01*
X4842Y7903D01*
X4835Y7894D01*
X4831Y7884D01*
X4830Y7874D01*
X4831Y7864D01*
X4835Y7854D01*
X4842Y7845D01*
X4850Y7839D01*
X4860Y7835D01*
X4870Y7834D01*
X4881Y7835D01*
X4890Y7839D01*
X4899Y7845D01*
X4905Y7854D01*
X4909Y7864D01*
X4910Y7874D01*
X4909Y7884D01*
X4905Y7894D01*
X4899Y7903D01*
X4890Y7909D01*
X4881Y7913D01*
X4870Y7914D01*
D02*
G37*
G36*
X3120Y7998D02*
X3110Y7996D01*
X3102Y7990D01*
X3097Y7982D01*
X3095Y7972D01*
X3097Y7963D01*
X3102Y7954D01*
X3110Y7949D01*
X3120Y7947D01*
X3130Y7949D01*
X3133Y7951D01*
X3139Y7949D01*
X3140Y7943D01*
X3145Y7935D01*
X3154Y7929D01*
X3154Y7929D01*
X3156Y7925D01*
X3155Y7922D01*
X3153Y7907D01*
X3155Y7893D01*
X3160Y7880D01*
X3169Y7868D01*
X3181Y7859D01*
X3194Y7854D01*
X3209Y7852D01*
X3223Y7854D01*
X3236Y7859D01*
X3248Y7868D01*
X3257Y7880D01*
X3262Y7893D01*
X3264Y7907D01*
X3262Y7922D01*
X3257Y7935D01*
X3248Y7947D01*
X3236Y7956D01*
X3223Y7961D01*
X3209Y7963D01*
X3194Y7961D01*
X3191Y7960D01*
X3187Y7962D01*
X3187Y7963D01*
X3181Y7971D01*
X3173Y7976D01*
X3163Y7978D01*
X3154Y7976D01*
X3150Y7974D01*
X3145Y7976D01*
X3144Y7982D01*
X3138Y7990D01*
X3130Y7996D01*
X3120Y7998D01*
D02*
G37*
G36*
X4291Y7926D02*
X4282Y7924D01*
X4273Y7918D01*
X4268Y7910D01*
X4266Y7900D01*
X4268Y7891D01*
X4273Y7882D01*
X4282Y7877D01*
X4291Y7875D01*
X4301Y7877D01*
X4309Y7882D01*
X4315Y7891D01*
X4317Y7900D01*
X4315Y7910D01*
X4309Y7918D01*
X4301Y7924D01*
X4291Y7926D01*
D02*
G37*
G36*
X6721Y7963D02*
X6707D01*
Y7949D01*
X6715Y7955D01*
X6721Y7963D01*
D02*
G37*
G36*
X6687Y7996D02*
X6679Y7991D01*
X6674Y7983D01*
X6687D01*
Y7996D01*
D02*
G37*
G36*
X3976Y7926D02*
X3967Y7924D01*
X3958Y7918D01*
X3955Y7913D01*
X3949D01*
X3945Y7918D01*
X3937Y7924D01*
X3927Y7926D01*
X3917Y7924D01*
X3909Y7918D01*
X3904Y7910D01*
X3902Y7900D01*
X3904Y7891D01*
X3909Y7882D01*
X3917Y7877D01*
X3927Y7875D01*
X3937Y7877D01*
X3945Y7882D01*
X3949Y7888D01*
X3955D01*
X3958Y7882D01*
X3967Y7877D01*
X3976Y7875D01*
X3986Y7877D01*
X3994Y7882D01*
X4000Y7891D01*
X4002Y7900D01*
X4000Y7910D01*
X3994Y7918D01*
X3986Y7924D01*
X3976Y7926D01*
D02*
G37*
G36*
X6687Y7963D02*
X6674D01*
X6679Y7955D01*
X6687Y7949D01*
Y7963D01*
D02*
G37*
G36*
X6945Y7730D02*
Y7717D01*
X6958D01*
X6953Y7725D01*
X6945Y7730D01*
D02*
G37*
G36*
X6427Y7761D02*
X6427Y7761D01*
X6417Y7757D01*
X6408Y7751D01*
X6402Y7743D01*
X6398Y7733D01*
X6398Y7732D01*
X6427D01*
Y7761D01*
D02*
G37*
G36*
X4379Y7725D02*
Y7711D01*
X4392D01*
X4387Y7719D01*
X4379Y7725D01*
D02*
G37*
G36*
X6925Y7730D02*
X6917Y7725D01*
X6912Y7717D01*
X6925D01*
Y7730D01*
D02*
G37*
G36*
X6447Y7761D02*
Y7732D01*
X6476D01*
X6476Y7733D01*
X6472Y7743D01*
X6466Y7751D01*
X6457Y7757D01*
X6447Y7761D01*
X6447Y7761D01*
D02*
G37*
G36*
X4173Y7860D02*
X4163Y7858D01*
X4155Y7853D01*
X4150Y7844D01*
X4148Y7835D01*
X4150Y7825D01*
X4155Y7817D01*
X4163Y7811D01*
X4173Y7809D01*
X4183Y7811D01*
X4191Y7817D01*
X4197Y7825D01*
X4199Y7835D01*
X4197Y7844D01*
X4191Y7853D01*
X4183Y7858D01*
X4173Y7860D01*
D02*
G37*
G36*
X4484D02*
X4475Y7858D01*
X4466Y7853D01*
X4461Y7844D01*
X4459Y7835D01*
X4461Y7825D01*
X4466Y7817D01*
X4475Y7811D01*
X4484Y7809D01*
X4494Y7811D01*
X4503Y7817D01*
X4508Y7825D01*
X4510Y7835D01*
X4508Y7844D01*
X4503Y7853D01*
X4494Y7858D01*
X4484Y7860D01*
D02*
G37*
G36*
X2624Y7892D02*
X2610Y7890D01*
X2597Y7884D01*
X2586Y7876D01*
X2577Y7865D01*
X2572Y7852D01*
X2570Y7838D01*
X2572Y7824D01*
X2577Y7811D01*
X2586Y7800D01*
X2597Y7791D01*
X2610Y7786D01*
X2624Y7784D01*
X2638Y7786D01*
X2651Y7791D01*
X2662Y7800D01*
X2670Y7811D01*
X2676Y7824D01*
X2677Y7838D01*
X2676Y7852D01*
X2670Y7865D01*
X2662Y7876D01*
X2651Y7884D01*
X2638Y7890D01*
X2624Y7892D01*
D02*
G37*
G36*
X3024D02*
X3010Y7890D01*
X2997Y7884D01*
X2986Y7876D01*
X2977Y7865D01*
X2972Y7852D01*
X2970Y7838D01*
X2972Y7824D01*
X2977Y7811D01*
X2986Y7800D01*
X2997Y7791D01*
X3010Y7786D01*
X3024Y7784D01*
X3038Y7786D01*
X3051Y7791D01*
X3062Y7800D01*
X3070Y7811D01*
X3076Y7824D01*
X3077Y7838D01*
X3076Y7852D01*
X3070Y7865D01*
X3062Y7876D01*
X3051Y7884D01*
X3038Y7890D01*
X3024Y7892D01*
D02*
G37*
G36*
X1979Y8159D02*
Y8081D01*
X2057D01*
X2056Y8088D01*
X2051Y8105D01*
X2043Y8120D01*
X2032Y8134D01*
X2018Y8145D01*
X2003Y8153D01*
X1986Y8158D01*
X1979Y8159D01*
D02*
G37*
G36*
X8651Y8163D02*
X8644Y8162D01*
X8627Y8157D01*
X8612Y8149D01*
X8598Y8138D01*
X8587Y8124D01*
X8579Y8109D01*
X8574Y8092D01*
X8573Y8085D01*
X8651D01*
Y8163D01*
D02*
G37*
G36*
X6437Y8145D02*
X6427Y8143D01*
X6417Y8139D01*
X6408Y8133D01*
X6402Y8124D01*
X6398Y8115D01*
X6397Y8104D01*
X6398Y8094D01*
X6402Y8084D01*
X6408Y8076D01*
X6417Y8069D01*
X6427Y8065D01*
X6437Y8064D01*
X6447Y8065D01*
X6457Y8069D01*
X6466Y8076D01*
X6472Y8084D01*
X6476Y8094D01*
X6477Y8104D01*
X6476Y8115D01*
X6472Y8124D01*
X6466Y8133D01*
X6457Y8139D01*
X6447Y8143D01*
X6437Y8145D01*
D02*
G37*
G36*
X1959Y8159D02*
X1951Y8158D01*
X1934Y8153D01*
X1919Y8145D01*
X1905Y8134D01*
X1894Y8120D01*
X1886Y8105D01*
X1881Y8088D01*
X1880Y8081D01*
X1959D01*
Y8159D01*
D02*
G37*
G36*
X8671Y8163D02*
Y8085D01*
X8750D01*
X8749Y8092D01*
X8744Y8109D01*
X8736Y8124D01*
X8724Y8138D01*
X8711Y8149D01*
X8696Y8157D01*
X8679Y8162D01*
X8671Y8163D01*
D02*
G37*
G36*
X5029Y8163D02*
X5021Y8158D01*
X5016Y8150D01*
X5029D01*
Y8163D01*
D02*
G37*
G36*
X5049D02*
Y8150D01*
X5063D01*
X5057Y8158D01*
X5049Y8163D01*
D02*
G37*
G36*
X5029Y8130D02*
X5016D01*
X5021Y8122D01*
X5029Y8116D01*
Y8130D01*
D02*
G37*
G36*
X5063D02*
X5049D01*
Y8116D01*
X5057Y8122D01*
X5063Y8130D01*
D02*
G37*
G36*
X2057Y8061D02*
X1979D01*
Y7983D01*
X1986Y7983D01*
X2003Y7988D01*
X2018Y7997D01*
X2032Y8008D01*
X2043Y8021D01*
X2051Y8037D01*
X2056Y8053D01*
X2057Y8061D01*
D02*
G37*
G36*
X8651Y8065D02*
X8573D01*
X8574Y8057D01*
X8579Y8041D01*
X8587Y8025D01*
X8598Y8012D01*
X8612Y8001D01*
X8627Y7992D01*
X8644Y7987D01*
X8651Y7987D01*
Y8065D01*
D02*
G37*
G36*
X6707Y7996D02*
Y7983D01*
X6721D01*
X6715Y7991D01*
X6707Y7996D01*
D02*
G37*
G36*
X1959Y8061D02*
X1880D01*
X1881Y8053D01*
X1886Y8037D01*
X1894Y8021D01*
X1905Y8008D01*
X1919Y7997D01*
X1934Y7988D01*
X1951Y7983D01*
X1959Y7983D01*
Y8061D01*
D02*
G37*
G36*
X8750Y8065D02*
X8671D01*
Y7987D01*
X8679Y7987D01*
X8696Y7992D01*
X8711Y8001D01*
X8724Y8012D01*
X8736Y8025D01*
X8744Y8041D01*
X8749Y8057D01*
X8750Y8065D01*
D02*
G37*
G36*
X5236Y8145D02*
X5226Y8143D01*
X5216Y8139D01*
X5208Y8133D01*
X5201Y8124D01*
X5197Y8115D01*
X5196Y8104D01*
X5197Y8094D01*
X5201Y8084D01*
X5208Y8076D01*
X5216Y8069D01*
X5226Y8065D01*
X5236Y8064D01*
X5247Y8065D01*
X5256Y8069D01*
X5265Y8076D01*
X5271Y8084D01*
X5275Y8094D01*
X5277Y8104D01*
X5275Y8115D01*
X5271Y8124D01*
X5265Y8133D01*
X5256Y8139D01*
X5247Y8143D01*
X5236Y8145D01*
D02*
G37*
G36*
X5787Y8145D02*
X5777Y8143D01*
X5767Y8139D01*
X5759Y8133D01*
X5752Y8124D01*
X5748Y8115D01*
X5747Y8104D01*
X5748Y8094D01*
X5752Y8084D01*
X5759Y8076D01*
X5767Y8069D01*
X5777Y8065D01*
X5787Y8064D01*
X5798Y8065D01*
X5808Y8069D01*
X5816Y8076D01*
X5822Y8084D01*
X5826Y8094D01*
X5828Y8104D01*
X5826Y8115D01*
X5822Y8124D01*
X5816Y8133D01*
X5808Y8139D01*
X5798Y8143D01*
X5787Y8145D01*
D02*
G37*
G36*
X3209Y8160D02*
X3194Y8158D01*
X3181Y8153D01*
X3169Y8144D01*
X3160Y8132D01*
X3155Y8119D01*
X3153Y8104D01*
X3155Y8090D01*
X3160Y8076D01*
X3169Y8065D01*
X3181Y8056D01*
X3194Y8050D01*
X3209Y8049D01*
X3223Y8050D01*
X3236Y8056D01*
X3248Y8065D01*
X3257Y8076D01*
X3262Y8090D01*
X3264Y8104D01*
X3262Y8119D01*
X3257Y8132D01*
X3248Y8144D01*
X3236Y8153D01*
X3223Y8158D01*
X3209Y8160D01*
D02*
G37*
G36*
X3504D02*
X3489Y8158D01*
X3476Y8153D01*
X3464Y8144D01*
X3456Y8132D01*
X3450Y8119D01*
X3448Y8104D01*
X3450Y8090D01*
X3456Y8076D01*
X3464Y8065D01*
X3476Y8056D01*
X3489Y8050D01*
X3504Y8049D01*
X3518Y8050D01*
X3532Y8056D01*
X3543Y8065D01*
X3552Y8076D01*
X3558Y8090D01*
X3560Y8104D01*
X3558Y8119D01*
X3552Y8132D01*
X3543Y8144D01*
X3532Y8153D01*
X3518Y8158D01*
X3504Y8160D01*
D02*
G37*
G36*
X6427Y7386D02*
X6398D01*
X6398Y7385D01*
X6402Y7375D01*
X6408Y7367D01*
X6417Y7361D01*
X6427Y7357D01*
X6427Y7357D01*
Y7386D01*
D02*
G37*
G36*
X6476D02*
X6447D01*
Y7357D01*
X6447Y7357D01*
X6457Y7361D01*
X6466Y7367D01*
X6472Y7375D01*
X6476Y7385D01*
X6476Y7386D01*
D02*
G37*
G36*
X7465Y7366D02*
X7457Y7361D01*
X7452Y7353D01*
X7465D01*
Y7366D01*
D02*
G37*
G36*
X7485D02*
Y7353D01*
X7499D01*
X7493Y7361D01*
X7485Y7366D01*
D02*
G37*
G36*
X2624Y7492D02*
X2610Y7490D01*
X2597Y7484D01*
X2586Y7476D01*
X2577Y7465D01*
X2572Y7452D01*
X2570Y7438D01*
X2572Y7424D01*
X2577Y7411D01*
X2586Y7400D01*
X2597Y7391D01*
X2610Y7386D01*
X2624Y7384D01*
X2638Y7386D01*
X2651Y7391D01*
X2662Y7400D01*
X2670Y7411D01*
X2676Y7424D01*
X2677Y7438D01*
X2676Y7452D01*
X2670Y7465D01*
X2662Y7476D01*
X2651Y7484D01*
X2638Y7490D01*
X2624Y7492D01*
D02*
G37*
G36*
X7012Y7401D02*
X6998D01*
Y7388D01*
X7006Y7393D01*
X7012Y7401D01*
D02*
G37*
G36*
X3887Y7598D02*
X3868Y7596D01*
X3850Y7591D01*
X3833Y7582D01*
X3818Y7570D01*
X3806Y7555D01*
X3797Y7538D01*
X3791Y7519D01*
X3789Y7500D01*
X3791Y7481D01*
X3797Y7463D01*
X3806Y7446D01*
X3818Y7431D01*
X3833Y7419D01*
X3850Y7410D01*
X3868Y7404D01*
X3887Y7402D01*
X3907Y7404D01*
X3925Y7410D01*
X3942Y7419D01*
X3957Y7431D01*
X3969Y7446D01*
X3978Y7463D01*
X3983Y7481D01*
X3985Y7500D01*
X3983Y7519D01*
X3978Y7538D01*
X3969Y7555D01*
X3957Y7570D01*
X3942Y7582D01*
X3925Y7591D01*
X3907Y7596D01*
X3887Y7598D01*
D02*
G37*
G36*
X3024Y7492D02*
X3010Y7490D01*
X2997Y7484D01*
X2986Y7476D01*
X2977Y7465D01*
X2972Y7452D01*
X2970Y7438D01*
X2972Y7424D01*
X2977Y7411D01*
X2986Y7400D01*
X2997Y7391D01*
X3010Y7386D01*
X3024Y7384D01*
X3038Y7386D01*
X3051Y7391D01*
X3062Y7400D01*
X3070Y7411D01*
X3076Y7424D01*
X3077Y7438D01*
X3076Y7452D01*
X3070Y7465D01*
X3062Y7476D01*
X3051Y7484D01*
X3038Y7490D01*
X3024Y7492D01*
D02*
G37*
G36*
X6978Y7401D02*
X6965D01*
X6970Y7393D01*
X6978Y7388D01*
Y7401D01*
D02*
G37*
G36*
X4301Y7250D02*
X4291Y7248D01*
X4283Y7242D01*
X4280Y7237D01*
X4274D01*
X4270Y7242D01*
X4262Y7248D01*
X4252Y7250D01*
X4242Y7248D01*
X4234Y7242D01*
X4228Y7234D01*
X4226Y7224D01*
X4228Y7215D01*
X4234Y7206D01*
X4242Y7201D01*
X4252Y7199D01*
X4262Y7201D01*
X4270Y7206D01*
X4274Y7212D01*
X4280D01*
X4283Y7206D01*
X4291Y7201D01*
X4301Y7199D01*
X4311Y7201D01*
X4319Y7206D01*
X4325Y7215D01*
X4327Y7224D01*
X4325Y7234D01*
X4319Y7242D01*
X4311Y7248D01*
X4301Y7250D01*
D02*
G37*
G36*
X7579Y7289D02*
X7569Y7287D01*
X7561Y7282D01*
X7555Y7274D01*
X7553Y7264D01*
X7555Y7254D01*
X7561Y7246D01*
X7569Y7240D01*
X7579Y7238D01*
X7588Y7240D01*
X7597Y7246D01*
X7602Y7254D01*
X7604Y7264D01*
X7602Y7274D01*
X7597Y7282D01*
X7588Y7287D01*
X7579Y7289D01*
D02*
G37*
G36*
X4764Y7246D02*
X4681D01*
Y7163D01*
X4764D01*
Y7246D01*
D02*
G37*
G36*
X7343Y7230D02*
X7333Y7228D01*
X7324Y7223D01*
X7319Y7214D01*
X7317Y7205D01*
X7319Y7195D01*
X7324Y7187D01*
X7333Y7181D01*
X7343Y7179D01*
X7352Y7181D01*
X7361Y7187D01*
X7366Y7195D01*
X7368Y7205D01*
X7366Y7214D01*
X7361Y7223D01*
X7352Y7228D01*
X7343Y7230D01*
D02*
G37*
G36*
X7717Y7289D02*
X7707Y7287D01*
X7699Y7282D01*
X7693Y7274D01*
X7691Y7264D01*
X7693Y7254D01*
X7699Y7246D01*
X7707Y7240D01*
X7717Y7238D01*
X7726Y7240D01*
X7735Y7246D01*
X7740Y7254D01*
X7742Y7264D01*
X7740Y7274D01*
X7735Y7282D01*
X7726Y7287D01*
X7717Y7289D01*
D02*
G37*
G36*
X7499Y7333D02*
X7485D01*
Y7319D01*
X7493Y7324D01*
X7499Y7333D01*
D02*
G37*
G36*
X4869Y7403D02*
X4858Y7401D01*
X4848Y7397D01*
X4840Y7391D01*
X4834Y7382D01*
X4830Y7373D01*
X4828Y7362D01*
X4830Y7352D01*
X4834Y7342D01*
X4840Y7334D01*
X4848Y7327D01*
X4858Y7323D01*
X4869Y7322D01*
X4879Y7323D01*
X4889Y7327D01*
X4897Y7334D01*
X4903Y7342D01*
X4907Y7352D01*
X4909Y7362D01*
X4907Y7373D01*
X4903Y7382D01*
X4897Y7391D01*
X4889Y7397D01*
X4879Y7401D01*
X4869Y7403D01*
D02*
G37*
G36*
X7185Y7348D02*
X7175Y7346D01*
X7167Y7341D01*
X7161Y7333D01*
X7160Y7323D01*
X7161Y7313D01*
X7167Y7305D01*
X7175Y7299D01*
X7185Y7297D01*
X7195Y7299D01*
X7203Y7305D01*
X7209Y7313D01*
X7211Y7323D01*
X7209Y7333D01*
X7203Y7341D01*
X7195Y7346D01*
X7185Y7348D01*
D02*
G37*
G36*
X7465Y7333D02*
X7452D01*
X7457Y7324D01*
X7465Y7319D01*
Y7333D01*
D02*
G37*
G36*
X6925Y7697D02*
X6912D01*
X6917Y7689D01*
X6925Y7683D01*
Y7697D01*
D02*
G37*
G36*
X6958D02*
X6945D01*
Y7683D01*
X6953Y7689D01*
X6958Y7697D01*
D02*
G37*
G36*
X4359Y7691D02*
X4345D01*
X4351Y7683D01*
X4359Y7678D01*
Y7691D01*
D02*
G37*
G36*
X4392D02*
X4379D01*
Y7678D01*
X4387Y7683D01*
X4392Y7691D01*
D02*
G37*
G36*
X6427Y7712D02*
X6398D01*
X6398Y7712D01*
X6402Y7702D01*
X6408Y7694D01*
X6417Y7688D01*
X6427Y7683D01*
X6427Y7683D01*
Y7712D01*
D02*
G37*
G36*
X4766Y7778D02*
X4683D01*
Y7695D01*
X4766D01*
Y7778D01*
D02*
G37*
G36*
X4359Y7725D02*
X4351Y7719D01*
X4345Y7711D01*
X4359D01*
Y7725D01*
D02*
G37*
G36*
X6476Y7712D02*
X6447D01*
Y7683D01*
X6447Y7683D01*
X6457Y7688D01*
X6466Y7694D01*
X6472Y7702D01*
X6476Y7712D01*
X6476Y7712D01*
D02*
G37*
G36*
X4824Y7778D02*
X4814Y7777D01*
X4803Y7772D01*
X4795Y7766D01*
X4788Y7757D01*
X4784Y7747D01*
X4783Y7736D01*
X4784Y7725D01*
X4788Y7715D01*
X4795Y7707D01*
X4803Y7700D01*
X4814Y7696D01*
X4824Y7694D01*
X4835Y7696D01*
X4845Y7700D01*
X4854Y7707D01*
X4861Y7715D01*
X4865Y7725D01*
X4866Y7736D01*
X4865Y7747D01*
X4861Y7757D01*
X4854Y7766D01*
X4845Y7772D01*
X4835Y7777D01*
X4824Y7778D01*
D02*
G37*
G36*
X6447Y7435D02*
Y7406D01*
X6476D01*
X6476Y7406D01*
X6472Y7416D01*
X6466Y7424D01*
X6457Y7431D01*
X6447Y7435D01*
X6447Y7435D01*
D02*
G37*
G36*
X6978Y7435D02*
X6970Y7429D01*
X6965Y7421D01*
X6978D01*
Y7435D01*
D02*
G37*
G36*
X8691Y7598D02*
X8671Y7596D01*
X8653Y7591D01*
X8636Y7582D01*
X8621Y7570D01*
X8609Y7555D01*
X8600Y7538D01*
X8594Y7519D01*
X8593Y7500D01*
X8594Y7481D01*
X8600Y7463D01*
X8609Y7446D01*
X8621Y7431D01*
X8636Y7419D01*
X8653Y7410D01*
X8671Y7404D01*
X8691Y7402D01*
X8710Y7404D01*
X8728Y7410D01*
X8745Y7419D01*
X8760Y7431D01*
X8772Y7446D01*
X8781Y7463D01*
X8787Y7481D01*
X8789Y7500D01*
X8787Y7519D01*
X8781Y7538D01*
X8772Y7555D01*
X8760Y7570D01*
X8745Y7582D01*
X8728Y7591D01*
X8710Y7596D01*
X8691Y7598D01*
D02*
G37*
G36*
X6427Y7435D02*
X6427Y7435D01*
X6417Y7431D01*
X6408Y7424D01*
X6402Y7416D01*
X6398Y7406D01*
X6398Y7406D01*
X6427D01*
Y7435D01*
D02*
G37*
G36*
X6998Y7435D02*
Y7421D01*
X7012D01*
X7006Y7429D01*
X6998Y7435D01*
D02*
G37*
G36*
X3209Y7766D02*
X3194Y7764D01*
X3181Y7759D01*
X3169Y7750D01*
X3160Y7739D01*
X3155Y7725D01*
X3153Y7711D01*
X3155Y7696D01*
X3160Y7683D01*
X3169Y7671D01*
X3181Y7662D01*
X3194Y7657D01*
X3209Y7655D01*
X3223Y7657D01*
X3236Y7662D01*
X3248Y7671D01*
X3257Y7683D01*
X3262Y7696D01*
X3264Y7711D01*
X3262Y7725D01*
X3257Y7739D01*
X3248Y7750D01*
X3236Y7759D01*
X3223Y7764D01*
X3209Y7766D01*
D02*
G37*
G36*
X3504D02*
X3489Y7764D01*
X3476Y7759D01*
X3464Y7750D01*
X3456Y7739D01*
X3450Y7725D01*
X3448Y7711D01*
X3450Y7696D01*
X3456Y7683D01*
X3464Y7671D01*
X3476Y7662D01*
X3489Y7657D01*
X3504Y7655D01*
X3518Y7657D01*
X3532Y7662D01*
X3543Y7671D01*
X3552Y7683D01*
X3558Y7696D01*
X3560Y7711D01*
X3558Y7725D01*
X3552Y7739D01*
X3543Y7750D01*
X3532Y7759D01*
X3518Y7764D01*
X3504Y7766D01*
D02*
G37*
G36*
X2874Y7727D02*
X2857Y7725D01*
X2840Y7720D01*
X2824Y7712D01*
X2811Y7701D01*
X2800Y7687D01*
X2792Y7672D01*
X2787Y7655D01*
X2785Y7638D01*
X2787Y7620D01*
X2792Y7604D01*
X2800Y7588D01*
X2811Y7575D01*
X2824Y7564D01*
X2840Y7555D01*
X2857Y7550D01*
X2874Y7549D01*
X2891Y7550D01*
X2908Y7555D01*
X2924Y7564D01*
X2937Y7575D01*
X2948Y7588D01*
X2956Y7604D01*
X2961Y7620D01*
X2963Y7638D01*
X2961Y7655D01*
X2956Y7672D01*
X2948Y7687D01*
X2937Y7701D01*
X2924Y7712D01*
X2908Y7720D01*
X2891Y7725D01*
X2874Y7727D01*
D02*
G37*
G36*
X4173Y7683D02*
X4163Y7681D01*
X4155Y7676D01*
X4150Y7667D01*
X4148Y7657D01*
X4150Y7648D01*
X4155Y7639D01*
X4163Y7634D01*
X4173Y7632D01*
X4183Y7634D01*
X4191Y7639D01*
X4197Y7648D01*
X4199Y7657D01*
X4197Y7667D01*
X4191Y7676D01*
X4183Y7681D01*
X4173Y7683D01*
D02*
G37*
G36*
X8006Y4893D02*
X7992Y4891D01*
X7979Y4886D01*
X7968Y4877D01*
X7960Y4866D01*
X7954Y4853D01*
X7953Y4839D01*
X7954Y4825D01*
X7960Y4812D01*
X7968Y4801D01*
X7979Y4793D01*
X7992Y4787D01*
X8006Y4786D01*
X8020Y4787D01*
X8033Y4793D01*
X8044Y4801D01*
X8053Y4812D01*
X8058Y4825D01*
X8060Y4839D01*
X8058Y4853D01*
X8053Y4866D01*
X8044Y4877D01*
X8033Y4886D01*
X8020Y4891D01*
X8006Y4893D01*
D02*
G37*
G36*
X2849Y4856D02*
X2849Y4856D01*
X2839Y4852D01*
X2831Y4846D01*
X2824Y4837D01*
X2820Y4828D01*
X2820Y4827D01*
X2849D01*
Y4856D01*
D02*
G37*
G36*
X2898Y4807D02*
X2869D01*
Y4778D01*
X2869Y4778D01*
X2879Y4782D01*
X2888Y4789D01*
X2894Y4797D01*
X2898Y4807D01*
X2898Y4807D01*
D02*
G37*
G36*
X7606Y4893D02*
X7592Y4891D01*
X7579Y4886D01*
X7568Y4877D01*
X7560Y4866D01*
X7554Y4853D01*
X7553Y4839D01*
X7554Y4825D01*
X7560Y4812D01*
X7568Y4801D01*
X7579Y4793D01*
X7592Y4787D01*
X7606Y4786D01*
X7620Y4787D01*
X7633Y4793D01*
X7644Y4801D01*
X7653Y4812D01*
X7658Y4825D01*
X7660Y4839D01*
X7658Y4853D01*
X7653Y4866D01*
X7644Y4877D01*
X7633Y4886D01*
X7620Y4891D01*
X7606Y4893D01*
D02*
G37*
G36*
X2869Y4856D02*
Y4827D01*
X2898D01*
X2898Y4828D01*
X2894Y4837D01*
X2888Y4846D01*
X2879Y4852D01*
X2869Y4856D01*
X2869Y4856D01*
D02*
G37*
G36*
X4399Y5046D02*
X4389Y5045D01*
X4379Y5041D01*
X4371Y5035D01*
X4364Y5026D01*
X4360Y5017D01*
X4359Y5006D01*
X4360Y4996D01*
X4364Y4986D01*
X4371Y4978D01*
X4379Y4971D01*
X4389Y4967D01*
X4399Y4966D01*
X4410Y4967D01*
X4419Y4971D01*
X4428Y4978D01*
X4434Y4986D01*
X4438Y4996D01*
X4440Y5006D01*
X4438Y5017D01*
X4434Y5026D01*
X4428Y5035D01*
X4419Y5041D01*
X4410Y5045D01*
X4399Y5046D01*
D02*
G37*
G36*
X6339Y5046D02*
X6259D01*
Y4966D01*
X6339D01*
Y5046D01*
D02*
G37*
G36*
X7756Y5129D02*
X7739Y5127D01*
X7722Y5122D01*
X7706Y5114D01*
X7693Y5102D01*
X7682Y5089D01*
X7674Y5073D01*
X7668Y5057D01*
X7667Y5039D01*
X7668Y5022D01*
X7674Y5005D01*
X7682Y4990D01*
X7693Y4976D01*
X7706Y4965D01*
X7722Y4957D01*
X7739Y4952D01*
X7756Y4950D01*
X7773Y4952D01*
X7790Y4957D01*
X7805Y4965D01*
X7819Y4976D01*
X7830Y4990D01*
X7838Y5005D01*
X7843Y5022D01*
X7845Y5039D01*
X7843Y5057D01*
X7838Y5073D01*
X7830Y5089D01*
X7819Y5102D01*
X7805Y5114D01*
X7790Y5122D01*
X7773Y5127D01*
X7756Y5129D01*
D02*
G37*
G36*
X6498Y5048D02*
X6415D01*
Y4965D01*
X6498D01*
Y5048D01*
D02*
G37*
G36*
X6224Y4695D02*
X6211D01*
Y4681D01*
X6219Y4687D01*
X6224Y4695D01*
D02*
G37*
G36*
X2308Y4708D02*
X2300Y4703D01*
X2295Y4695D01*
X2308D01*
Y4708D01*
D02*
G37*
G36*
X2342Y4675D02*
X2328D01*
Y4662D01*
X2336Y4667D01*
X2342Y4675D01*
D02*
G37*
G36*
X6191Y4695D02*
X6177D01*
X6183Y4687D01*
X6191Y4681D01*
Y4695D01*
D02*
G37*
G36*
X2328Y4708D02*
Y4695D01*
X2342D01*
X2336Y4703D01*
X2328Y4708D01*
D02*
G37*
G36*
X6476Y4789D02*
X6467Y4787D01*
X6458Y4782D01*
X6453Y4774D01*
X6451Y4764D01*
X6453Y4754D01*
X6458Y4746D01*
X6467Y4740D01*
X6476Y4738D01*
X6486Y4740D01*
X6494Y4746D01*
X6500Y4754D01*
X6502Y4764D01*
X6500Y4774D01*
X6494Y4782D01*
X6486Y4787D01*
X6476Y4789D01*
D02*
G37*
G36*
X2849Y4807D02*
X2820D01*
X2820Y4807D01*
X2824Y4797D01*
X2831Y4789D01*
X2839Y4782D01*
X2849Y4778D01*
X2849Y4778D01*
Y4807D01*
D02*
G37*
G36*
X6191Y4728D02*
X6183Y4723D01*
X6177Y4715D01*
X6191D01*
Y4728D01*
D02*
G37*
G36*
X6211D02*
Y4715D01*
X6224D01*
X6219Y4723D01*
X6211Y4728D01*
D02*
G37*
G36*
X6497Y5196D02*
X6467D01*
Y5166D01*
X6468Y5166D01*
X6478Y5170D01*
X6486Y5177D01*
X6493Y5185D01*
X6497Y5195D01*
X6497Y5196D01*
D02*
G37*
G36*
X4399Y5246D02*
X4389Y5245D01*
X4379Y5241D01*
X4371Y5235D01*
X4364Y5226D01*
X4360Y5217D01*
X4359Y5206D01*
X4360Y5196D01*
X4364Y5186D01*
X4371Y5178D01*
X4379Y5171D01*
X4389Y5167D01*
X4399Y5166D01*
X4410Y5167D01*
X4419Y5171D01*
X4428Y5178D01*
X4434Y5186D01*
X4438Y5196D01*
X4440Y5206D01*
X4438Y5217D01*
X4434Y5226D01*
X4428Y5235D01*
X4419Y5241D01*
X4410Y5245D01*
X4399Y5246D01*
D02*
G37*
G36*
X2874Y5325D02*
X2857Y5324D01*
X2840Y5319D01*
X2824Y5310D01*
X2811Y5299D01*
X2800Y5286D01*
X2792Y5270D01*
X2787Y5254D01*
X2785Y5236D01*
X2787Y5219D01*
X2792Y5202D01*
X2800Y5187D01*
X2811Y5173D01*
X2824Y5162D01*
X2840Y5154D01*
X2857Y5149D01*
X2874Y5147D01*
X2891Y5149D01*
X2908Y5154D01*
X2924Y5162D01*
X2937Y5173D01*
X2948Y5187D01*
X2956Y5202D01*
X2961Y5219D01*
X2963Y5236D01*
X2961Y5254D01*
X2956Y5270D01*
X2948Y5286D01*
X2937Y5299D01*
X2924Y5310D01*
X2908Y5319D01*
X2891Y5324D01*
X2874Y5325D01*
D02*
G37*
G36*
X6447Y5196D02*
X6416D01*
X6416Y5195D01*
X6420Y5185D01*
X6427Y5177D01*
X6436Y5170D01*
X6446Y5166D01*
X6447Y5166D01*
Y5196D01*
D02*
G37*
G36*
X6299Y5246D02*
X6289Y5245D01*
X6279Y5241D01*
X6271Y5235D01*
X6264Y5226D01*
X6260Y5217D01*
X6259Y5206D01*
X6260Y5196D01*
X6264Y5186D01*
X6271Y5178D01*
X6279Y5171D01*
X6289Y5167D01*
X6299Y5166D01*
X6310Y5167D01*
X6319Y5171D01*
X6328Y5178D01*
X6334Y5186D01*
X6338Y5196D01*
X6340Y5206D01*
X6338Y5217D01*
X6334Y5226D01*
X6328Y5235D01*
X6319Y5241D01*
X6310Y5245D01*
X6299Y5246D01*
D02*
G37*
G36*
X6447Y5247D02*
X6446Y5247D01*
X6436Y5242D01*
X6427Y5236D01*
X6420Y5227D01*
X6416Y5217D01*
X6416Y5216D01*
X6447D01*
Y5247D01*
D02*
G37*
G36*
X6467D02*
Y5216D01*
X6497D01*
X6497Y5217D01*
X6493Y5227D01*
X6486Y5236D01*
X6478Y5242D01*
X6468Y5247D01*
X6467Y5247D01*
D02*
G37*
G36*
X7606Y5293D02*
X7592Y5291D01*
X7579Y5286D01*
X7568Y5277D01*
X7560Y5266D01*
X7554Y5253D01*
X7553Y5239D01*
X7554Y5225D01*
X7560Y5212D01*
X7568Y5201D01*
X7579Y5193D01*
X7592Y5187D01*
X7606Y5186D01*
X7620Y5187D01*
X7633Y5193D01*
X7644Y5201D01*
X7653Y5212D01*
X7658Y5225D01*
X7660Y5239D01*
X7658Y5253D01*
X7653Y5266D01*
X7644Y5277D01*
X7633Y5286D01*
X7620Y5291D01*
X7606Y5293D01*
D02*
G37*
G36*
X8006D02*
X7992Y5291D01*
X7979Y5286D01*
X7968Y5277D01*
X7960Y5266D01*
X7954Y5253D01*
X7953Y5239D01*
X7954Y5225D01*
X7960Y5212D01*
X7968Y5201D01*
X7979Y5193D01*
X7992Y5187D01*
X8006Y5186D01*
X8020Y5187D01*
X8033Y5193D01*
X8044Y5201D01*
X8053Y5212D01*
X8058Y5225D01*
X8060Y5239D01*
X8058Y5253D01*
X8053Y5266D01*
X8044Y5277D01*
X8033Y5286D01*
X8020Y5291D01*
X8006Y5293D01*
D02*
G37*
G36*
X3024Y5090D02*
X3010Y5088D01*
X2997Y5083D01*
X2986Y5074D01*
X2977Y5063D01*
X2972Y5050D01*
X2970Y5036D01*
X2972Y5022D01*
X2977Y5009D01*
X2986Y4998D01*
X2997Y4990D01*
X3010Y4984D01*
X3024Y4982D01*
X3038Y4984D01*
X3051Y4990D01*
X3062Y4998D01*
X3070Y5009D01*
X3076Y5022D01*
X3077Y5036D01*
X3076Y5050D01*
X3070Y5063D01*
X3062Y5074D01*
X3051Y5083D01*
X3038Y5088D01*
X3024Y5090D01*
D02*
G37*
G36*
X3543Y5099D02*
X3533Y5097D01*
X3525Y5091D01*
X3519Y5083D01*
X3517Y5073D01*
X3519Y5064D01*
X3525Y5055D01*
X3533Y5050D01*
X3543Y5048D01*
X3552Y5050D01*
X3561Y5055D01*
X3566Y5064D01*
X3568Y5073D01*
X3566Y5083D01*
X3561Y5091D01*
X3552Y5097D01*
X3543Y5099D01*
D02*
G37*
G36*
X4675Y5025D02*
X4665Y5024D01*
X4657Y5018D01*
X4652Y5010D01*
X4650Y5000D01*
X4652Y4990D01*
X4657Y4982D01*
X4665Y4976D01*
X4675Y4975D01*
X4685Y4976D01*
X4693Y4982D01*
X4699Y4990D01*
X4701Y5000D01*
X4699Y5010D01*
X4693Y5018D01*
X4685Y5024D01*
X4675Y5025D01*
D02*
G37*
G36*
X2624Y5090D02*
X2610Y5088D01*
X2597Y5083D01*
X2586Y5074D01*
X2577Y5063D01*
X2572Y5050D01*
X2570Y5036D01*
X2572Y5022D01*
X2577Y5009D01*
X2586Y4998D01*
X2597Y4990D01*
X2610Y4984D01*
X2624Y4982D01*
X2638Y4984D01*
X2651Y4990D01*
X2662Y4998D01*
X2670Y5009D01*
X2676Y5022D01*
X2677Y5036D01*
X2676Y5050D01*
X2670Y5063D01*
X2662Y5074D01*
X2651Y5083D01*
X2638Y5088D01*
X2624Y5090D01*
D02*
G37*
G36*
X6457Y5148D02*
X6446Y5147D01*
X6436Y5142D01*
X6427Y5136D01*
X6420Y5127D01*
X6416Y5117D01*
X6415Y5106D01*
X6416Y5095D01*
X6420Y5085D01*
X6427Y5077D01*
X6436Y5070D01*
X6446Y5066D01*
X6457Y5064D01*
X6468Y5066D01*
X6478Y5070D01*
X6486Y5077D01*
X6493Y5085D01*
X6497Y5095D01*
X6499Y5106D01*
X6497Y5117D01*
X6493Y5127D01*
X6486Y5136D01*
X6478Y5142D01*
X6468Y5147D01*
X6457Y5148D01*
D02*
G37*
G36*
X3268Y5183D02*
X3258Y5181D01*
X3250Y5176D01*
X3244Y5167D01*
X3242Y5157D01*
X3244Y5148D01*
X3250Y5139D01*
X3258Y5134D01*
X3268Y5132D01*
X3277Y5134D01*
X3286Y5139D01*
X3291Y5148D01*
X3293Y5157D01*
X3291Y5167D01*
X3286Y5176D01*
X3277Y5181D01*
X3268Y5183D01*
D02*
G37*
G36*
X4035Y5232D02*
X4026Y5230D01*
X4017Y5224D01*
X4012Y5216D01*
X4010Y5206D01*
X4012Y5196D01*
X4017Y5188D01*
X4022Y5185D01*
Y5179D01*
X4017Y5176D01*
X4012Y5167D01*
X4010Y5157D01*
X4012Y5148D01*
X4017Y5139D01*
X4026Y5134D01*
X4035Y5132D01*
X4045Y5134D01*
X4053Y5139D01*
X4059Y5148D01*
X4061Y5157D01*
X4059Y5167D01*
X4053Y5176D01*
X4049Y5179D01*
Y5185D01*
X4053Y5188D01*
X4059Y5196D01*
X4061Y5206D01*
X4059Y5216D01*
X4053Y5224D01*
X4045Y5230D01*
X4035Y5232D01*
D02*
G37*
G36*
X4399Y5146D02*
X4389Y5145D01*
X4379Y5141D01*
X4371Y5135D01*
X4364Y5126D01*
X4360Y5117D01*
X4359Y5106D01*
X4360Y5096D01*
X4364Y5086D01*
X4371Y5078D01*
X4379Y5071D01*
X4389Y5067D01*
X4399Y5066D01*
X4410Y5067D01*
X4419Y5071D01*
X4428Y5078D01*
X4434Y5086D01*
X4438Y5096D01*
X4440Y5106D01*
X4438Y5117D01*
X4434Y5126D01*
X4428Y5135D01*
X4419Y5141D01*
X4410Y5145D01*
X4399Y5146D01*
D02*
G37*
G36*
X6299D02*
X6289Y5145D01*
X6279Y5141D01*
X6271Y5135D01*
X6264Y5126D01*
X6260Y5117D01*
X6259Y5106D01*
X6260Y5096D01*
X6264Y5086D01*
X6271Y5078D01*
X6279Y5071D01*
X6289Y5067D01*
X6299Y5066D01*
X6310Y5067D01*
X6319Y5071D01*
X6328Y5078D01*
X6334Y5086D01*
X6338Y5096D01*
X6340Y5106D01*
X6338Y5117D01*
X6334Y5126D01*
X6328Y5135D01*
X6319Y5141D01*
X6310Y5145D01*
X6299Y5146D01*
D02*
G37*
G36*
X6691Y4425D02*
X6678D01*
Y4411D01*
X6686Y4417D01*
X6691Y4425D01*
D02*
G37*
G36*
X4439Y4470D02*
X4429Y4468D01*
X4421Y4463D01*
X4415Y4455D01*
X4413Y4445D01*
X4415Y4435D01*
X4421Y4427D01*
X4429Y4421D01*
X4439Y4419D01*
X4449Y4421D01*
X4457Y4427D01*
X4463Y4435D01*
X4464Y4445D01*
X4463Y4455D01*
X4457Y4463D01*
X4449Y4468D01*
X4439Y4470D01*
D02*
G37*
G36*
X2011Y4462D02*
X1959D01*
Y4410D01*
X1961Y4410D01*
X1973Y4414D01*
X1984Y4420D01*
X1994Y4428D01*
X2002Y4437D01*
X2007Y4448D01*
X2011Y4460D01*
X2011Y4462D01*
D02*
G37*
G36*
X6658Y4425D02*
X6644D01*
X6650Y4417D01*
X6658Y4411D01*
Y4425D01*
D02*
G37*
G36*
X3130Y4474D02*
X3120Y4472D01*
X3112Y4467D01*
X3106Y4459D01*
X3104Y4449D01*
X3106Y4439D01*
X3112Y4431D01*
X3120Y4425D01*
X3130Y4423D01*
X3140Y4425D01*
X3148Y4431D01*
X3153Y4439D01*
X3155Y4449D01*
X3153Y4459D01*
X3148Y4467D01*
X3140Y4472D01*
X3130Y4474D01*
D02*
G37*
G36*
X7606Y4545D02*
X7592Y4543D01*
X7579Y4538D01*
X7568Y4529D01*
X7560Y4518D01*
X7554Y4505D01*
X7553Y4491D01*
X7554Y4477D01*
X7560Y4464D01*
X7568Y4453D01*
X7579Y4445D01*
X7592Y4439D01*
X7606Y4438D01*
X7620Y4439D01*
X7633Y4445D01*
X7644Y4453D01*
X7653Y4464D01*
X7658Y4477D01*
X7660Y4491D01*
X7658Y4505D01*
X7653Y4518D01*
X7644Y4529D01*
X7633Y4538D01*
X7620Y4543D01*
X7606Y4545D01*
D02*
G37*
G36*
X8006D02*
X7992Y4543D01*
X7979Y4538D01*
X7968Y4529D01*
X7960Y4518D01*
X7954Y4505D01*
X7953Y4491D01*
X7954Y4477D01*
X7960Y4464D01*
X7968Y4453D01*
X7979Y4445D01*
X7992Y4439D01*
X8006Y4438D01*
X8020Y4439D01*
X8033Y4445D01*
X8044Y4453D01*
X8053Y4464D01*
X8058Y4477D01*
X8060Y4491D01*
X8058Y4505D01*
X8053Y4518D01*
X8044Y4529D01*
X8033Y4538D01*
X8020Y4543D01*
X8006Y4545D01*
D02*
G37*
G36*
X3317Y4439D02*
X3303D01*
X3309Y4431D01*
X3317Y4425D01*
Y4439D01*
D02*
G37*
G36*
X3350D02*
X3337D01*
Y4425D01*
X3345Y4431D01*
X3350Y4439D01*
D02*
G37*
G36*
X4262Y4344D02*
X4254Y4339D01*
X4248Y4331D01*
X4262D01*
Y4344D01*
D02*
G37*
G36*
X4282D02*
Y4331D01*
X4295D01*
X4290Y4339D01*
X4282Y4344D01*
D02*
G37*
G36*
X3809Y4340D02*
X3801Y4335D01*
X3795Y4327D01*
X3809D01*
Y4340D01*
D02*
G37*
G36*
X3829D02*
Y4327D01*
X3842D01*
X3837Y4335D01*
X3829Y4340D01*
D02*
G37*
G36*
X2884Y4354D02*
X2876Y4349D01*
X2870Y4341D01*
X2884D01*
Y4354D01*
D02*
G37*
G36*
X3445Y4455D02*
X3435Y4453D01*
X3427Y4447D01*
X3421Y4439D01*
X3419Y4429D01*
X3421Y4419D01*
X3427Y4411D01*
X3435Y4406D01*
X3445Y4404D01*
X3455Y4406D01*
X3463Y4411D01*
X3468Y4419D01*
X3470Y4429D01*
X3468Y4439D01*
X3463Y4447D01*
X3455Y4453D01*
X3445Y4455D01*
D02*
G37*
G36*
X1939Y4462D02*
X1886D01*
X1887Y4460D01*
X1890Y4448D01*
X1896Y4437D01*
X1904Y4428D01*
X1914Y4420D01*
X1925Y4414D01*
X1936Y4410D01*
X1939Y4410D01*
Y4462D01*
D02*
G37*
G36*
X2904Y4354D02*
Y4341D01*
X2917D01*
X2912Y4349D01*
X2904Y4354D01*
D02*
G37*
G36*
X4075Y4405D02*
X4065Y4403D01*
X4057Y4398D01*
X4051Y4390D01*
X4049Y4380D01*
X4051Y4370D01*
X4057Y4362D01*
X4065Y4356D01*
X4075Y4354D01*
X4085Y4356D01*
X4093Y4362D01*
X4098Y4370D01*
X4100Y4380D01*
X4098Y4390D01*
X4093Y4398D01*
X4085Y4403D01*
X4075Y4405D01*
D02*
G37*
G36*
X6075Y4597D02*
X6064Y4596D01*
X6055Y4592D01*
X6046Y4586D01*
X6040Y4577D01*
X6036Y4568D01*
X6034Y4557D01*
X6036Y4547D01*
X6040Y4537D01*
X6046Y4529D01*
X6055Y4522D01*
X6064Y4518D01*
X6075Y4517D01*
X6085Y4518D01*
X6095Y4522D01*
X6103Y4529D01*
X6110Y4537D01*
X6114Y4547D01*
X6115Y4557D01*
X6114Y4568D01*
X6110Y4577D01*
X6103Y4586D01*
X6095Y4592D01*
X6085Y4596D01*
X6075Y4597D01*
D02*
G37*
G36*
X2859Y4647D02*
X2849Y4645D01*
X2839Y4641D01*
X2831Y4635D01*
X2824Y4626D01*
X2820Y4617D01*
X2819Y4606D01*
X2820Y4596D01*
X2824Y4586D01*
X2831Y4578D01*
X2839Y4571D01*
X2849Y4567D01*
X2859Y4566D01*
X2869Y4567D01*
X2879Y4571D01*
X2888Y4578D01*
X2894Y4586D01*
X2898Y4596D01*
X2899Y4606D01*
X2898Y4617D01*
X2894Y4626D01*
X2888Y4635D01*
X2879Y4641D01*
X2869Y4645D01*
X2859Y4647D01*
D02*
G37*
G36*
X5366Y4597D02*
X5356Y4596D01*
X5346Y4592D01*
X5338Y4586D01*
X5331Y4577D01*
X5327Y4568D01*
X5326Y4557D01*
X5327Y4547D01*
X5331Y4537D01*
X5338Y4529D01*
X5346Y4522D01*
X5356Y4518D01*
X5366Y4517D01*
X5377Y4518D01*
X5386Y4522D01*
X5395Y4529D01*
X5401Y4537D01*
X5405Y4547D01*
X5406Y4557D01*
X5405Y4568D01*
X5401Y4577D01*
X5395Y4586D01*
X5386Y4592D01*
X5377Y4596D01*
X5366Y4597D01*
D02*
G37*
G36*
X5720D02*
X5710Y4596D01*
X5700Y4592D01*
X5692Y4586D01*
X5686Y4577D01*
X5682Y4568D01*
X5680Y4557D01*
X5682Y4547D01*
X5686Y4537D01*
X5692Y4529D01*
X5700Y4522D01*
X5710Y4518D01*
X5720Y4517D01*
X5731Y4518D01*
X5741Y4522D01*
X5749Y4529D01*
X5755Y4537D01*
X5759Y4547D01*
X5761Y4557D01*
X5759Y4568D01*
X5755Y4577D01*
X5749Y4586D01*
X5741Y4592D01*
X5731Y4596D01*
X5720Y4597D01*
D02*
G37*
G36*
X2599Y4646D02*
X2519D01*
Y4566D01*
X2599D01*
Y4646D01*
D02*
G37*
G36*
X6331Y4703D02*
X6321Y4701D01*
X6313Y4695D01*
X6307Y4687D01*
X6305Y4677D01*
X6307Y4667D01*
X6313Y4659D01*
X6321Y4654D01*
X6331Y4652D01*
X6340Y4654D01*
X6349Y4659D01*
X6354Y4667D01*
X6356Y4677D01*
X6354Y4687D01*
X6349Y4695D01*
X6340Y4701D01*
X6331Y4703D01*
D02*
G37*
G36*
X2308Y4675D02*
X2295D01*
X2300Y4667D01*
X2308Y4662D01*
Y4675D01*
D02*
G37*
G36*
X3887Y4764D02*
X3868Y4762D01*
X3850Y4756D01*
X3833Y4747D01*
X3818Y4735D01*
X3806Y4720D01*
X3797Y4703D01*
X3791Y4685D01*
X3789Y4666D01*
X3791Y4646D01*
X3797Y4628D01*
X3806Y4611D01*
X3818Y4596D01*
X3833Y4584D01*
X3850Y4575D01*
X3868Y4570D01*
X3887Y4568D01*
X3907Y4570D01*
X3925Y4575D01*
X3942Y4584D01*
X3957Y4596D01*
X3969Y4611D01*
X3978Y4628D01*
X3983Y4646D01*
X3985Y4666D01*
X3983Y4685D01*
X3978Y4703D01*
X3969Y4720D01*
X3957Y4735D01*
X3942Y4747D01*
X3925Y4756D01*
X3907Y4762D01*
X3887Y4764D01*
D02*
G37*
G36*
X8691D02*
X8671Y4762D01*
X8653Y4756D01*
X8636Y4747D01*
X8621Y4735D01*
X8609Y4720D01*
X8600Y4703D01*
X8594Y4685D01*
X8593Y4666D01*
X8594Y4646D01*
X8600Y4628D01*
X8609Y4611D01*
X8621Y4596D01*
X8636Y4584D01*
X8653Y4575D01*
X8671Y4570D01*
X8691Y4568D01*
X8710Y4570D01*
X8728Y4575D01*
X8745Y4584D01*
X8760Y4596D01*
X8772Y4611D01*
X8781Y4628D01*
X8787Y4646D01*
X8789Y4666D01*
X8787Y4685D01*
X8781Y4703D01*
X8772Y4720D01*
X8760Y4735D01*
X8745Y4747D01*
X8728Y4756D01*
X8710Y4762D01*
X8691Y4764D01*
D02*
G37*
G36*
X3317Y4472D02*
X3309Y4467D01*
X3303Y4459D01*
X3317D01*
Y4472D01*
D02*
G37*
G36*
X3337D02*
Y4459D01*
X3350D01*
X3345Y4467D01*
X3337Y4472D01*
D02*
G37*
G36*
X6658Y4458D02*
X6650Y4453D01*
X6644Y4445D01*
X6658D01*
Y4458D01*
D02*
G37*
G36*
X6678D02*
Y4445D01*
X6691D01*
X6686Y4453D01*
X6678Y4458D01*
D02*
G37*
G36*
X2559Y4547D02*
X2549Y4545D01*
X2539Y4541D01*
X2531Y4535D01*
X2524Y4526D01*
X2520Y4517D01*
X2519Y4506D01*
X2520Y4496D01*
X2524Y4486D01*
X2531Y4478D01*
X2539Y4471D01*
X2549Y4467D01*
X2559Y4466D01*
X2569Y4467D01*
X2579Y4471D01*
X2588Y4478D01*
X2594Y4486D01*
X2598Y4496D01*
X2599Y4506D01*
X2598Y4517D01*
X2594Y4526D01*
X2588Y4535D01*
X2579Y4541D01*
X2569Y4545D01*
X2559Y4547D01*
D02*
G37*
G36*
X1959Y4535D02*
Y4482D01*
X2011D01*
X2011Y4485D01*
X2007Y4497D01*
X2002Y4508D01*
X1994Y4517D01*
X1984Y4525D01*
X1973Y4531D01*
X1961Y4535D01*
X1959Y4535D01*
D02*
G37*
G36*
X5012Y4597D02*
X5001Y4596D01*
X4992Y4592D01*
X4983Y4586D01*
X4977Y4577D01*
X4973Y4568D01*
X4971Y4557D01*
X4973Y4547D01*
X4977Y4537D01*
X4983Y4529D01*
X4992Y4522D01*
X5001Y4518D01*
X5012Y4517D01*
X5022Y4518D01*
X5032Y4522D01*
X5040Y4529D01*
X5047Y4537D01*
X5051Y4547D01*
X5052Y4557D01*
X5051Y4568D01*
X5047Y4577D01*
X5040Y4586D01*
X5032Y4592D01*
X5022Y4596D01*
X5012Y4597D01*
D02*
G37*
G36*
X2859Y4547D02*
X2849Y4545D01*
X2839Y4541D01*
X2831Y4535D01*
X2824Y4526D01*
X2820Y4517D01*
X2819Y4506D01*
X2820Y4496D01*
X2824Y4486D01*
X2831Y4478D01*
X2839Y4471D01*
X2849Y4467D01*
X2859Y4466D01*
X2869Y4467D01*
X2879Y4471D01*
X2888Y4478D01*
X2894Y4486D01*
X2898Y4496D01*
X2899Y4506D01*
X2898Y4517D01*
X2894Y4526D01*
X2888Y4535D01*
X2879Y4541D01*
X2869Y4545D01*
X2859Y4547D01*
D02*
G37*
G36*
X1939Y4535D02*
X1936Y4535D01*
X1925Y4531D01*
X1914Y4525D01*
X1904Y4517D01*
X1896Y4508D01*
X1890Y4497D01*
X1887Y4485D01*
X1886Y4482D01*
X1939D01*
Y4535D01*
D02*
G37*
G36*
X3780Y5345D02*
X3769Y5344D01*
X3759Y5340D01*
X3750Y5333D01*
X3743Y5324D01*
X3739Y5314D01*
X3738Y5304D01*
X3739Y5293D01*
X3743Y5283D01*
X3750Y5274D01*
X3759Y5267D01*
X3769Y5263D01*
X3780Y5262D01*
X3790Y5263D01*
X3800Y5267D01*
X3809Y5274D01*
X3816Y5283D01*
X3820Y5293D01*
X3821Y5304D01*
X3820Y5314D01*
X3816Y5324D01*
X3809Y5333D01*
X3800Y5340D01*
X3790Y5344D01*
X3780Y5345D01*
D02*
G37*
G36*
X7327Y6090D02*
X7313D01*
X7319Y6082D01*
X7327Y6077D01*
Y6090D01*
D02*
G37*
G36*
X7360D02*
X7347D01*
Y6077D01*
X7355Y6082D01*
X7360Y6090D01*
D02*
G37*
G36*
X4399Y6146D02*
X4389Y6145D01*
X4379Y6141D01*
X4371Y6135D01*
X4364Y6126D01*
X4360Y6117D01*
X4359Y6106D01*
X4360Y6096D01*
X4364Y6086D01*
X4371Y6078D01*
X4379Y6071D01*
X4389Y6067D01*
X4399Y6066D01*
X4410Y6067D01*
X4419Y6071D01*
X4428Y6078D01*
X4434Y6086D01*
X4438Y6096D01*
X4440Y6106D01*
X4438Y6117D01*
X4434Y6126D01*
X4428Y6135D01*
X4419Y6141D01*
X4410Y6145D01*
X4399Y6146D01*
D02*
G37*
G36*
X6439Y6128D02*
X6429Y6126D01*
X6421Y6120D01*
X6415Y6112D01*
X6413Y6102D01*
X6415Y6092D01*
X6421Y6084D01*
X6429Y6079D01*
X6439Y6077D01*
X6448Y6079D01*
X6457Y6084D01*
X6462Y6092D01*
X6464Y6102D01*
X6462Y6112D01*
X6457Y6120D01*
X6448Y6126D01*
X6439Y6128D01*
D02*
G37*
G36*
X6878Y6112D02*
X6865D01*
X6870Y6104D01*
X6878Y6099D01*
Y6112D01*
D02*
G37*
G36*
X7347Y6124D02*
Y6110D01*
X7360D01*
X7355Y6118D01*
X7347Y6124D01*
D02*
G37*
G36*
X7776Y6203D02*
X7765Y6202D01*
X7755Y6198D01*
X7746Y6191D01*
X7739Y6182D01*
X7735Y6172D01*
X7734Y6161D01*
X7735Y6151D01*
X7739Y6140D01*
X7746Y6132D01*
X7755Y6125D01*
X7765Y6121D01*
X7776Y6120D01*
X7786Y6121D01*
X7797Y6125D01*
X7805Y6132D01*
X7812Y6140D01*
X7816Y6151D01*
X7817Y6161D01*
X7816Y6172D01*
X7812Y6182D01*
X7805Y6191D01*
X7797Y6198D01*
X7786Y6202D01*
X7776Y6203D01*
D02*
G37*
G36*
X6912Y6112D02*
X6898D01*
Y6099D01*
X6906Y6104D01*
X6912Y6112D01*
D02*
G37*
G36*
X7327Y6124D02*
X7319Y6118D01*
X7313Y6110D01*
X7327D01*
Y6124D01*
D02*
G37*
G36*
X4409Y5945D02*
Y5916D01*
X4438D01*
X4438Y5917D01*
X4434Y5926D01*
X4428Y5935D01*
X4419Y5941D01*
X4410Y5945D01*
X4409Y5945D01*
D02*
G37*
G36*
X6299Y6006D02*
X6289Y6005D01*
X6279Y6001D01*
X6271Y5995D01*
X6264Y5986D01*
X6260Y5977D01*
X6259Y5966D01*
X6260Y5956D01*
X6264Y5946D01*
X6271Y5938D01*
X6279Y5931D01*
X6289Y5927D01*
X6299Y5926D01*
X6310Y5927D01*
X6319Y5931D01*
X6328Y5938D01*
X6334Y5946D01*
X6338Y5956D01*
X6340Y5966D01*
X6338Y5977D01*
X6334Y5986D01*
X6328Y5995D01*
X6319Y6001D01*
X6310Y6005D01*
X6299Y6006D01*
D02*
G37*
G36*
X2962Y5974D02*
X2884D01*
Y5896D01*
X2891Y5897D01*
X2908Y5902D01*
X2924Y5910D01*
X2937Y5921D01*
X2948Y5935D01*
X2956Y5950D01*
X2961Y5967D01*
X2962Y5974D01*
D02*
G37*
G36*
X4389Y5945D02*
X4389Y5945D01*
X4379Y5941D01*
X4371Y5935D01*
X4364Y5926D01*
X4360Y5917D01*
X4360Y5916D01*
X4389D01*
Y5945D01*
D02*
G37*
G36*
X3858Y5980D02*
X3849Y5978D01*
X3840Y5973D01*
X3835Y5964D01*
X3833Y5955D01*
X3835Y5945D01*
X3840Y5937D01*
X3849Y5931D01*
X3858Y5929D01*
X3868Y5931D01*
X3876Y5937D01*
X3882Y5945D01*
X3884Y5955D01*
X3882Y5964D01*
X3876Y5973D01*
X3868Y5978D01*
X3858Y5980D01*
D02*
G37*
G36*
X2884Y6072D02*
Y5994D01*
X2962D01*
X2961Y6002D01*
X2956Y6018D01*
X2948Y6034D01*
X2937Y6047D01*
X2924Y6058D01*
X2908Y6067D01*
X2891Y6072D01*
X2884Y6072D01*
D02*
G37*
G36*
X6299Y6106D02*
X6289Y6105D01*
X6279Y6101D01*
X6271Y6095D01*
X6264Y6086D01*
X6260Y6077D01*
X6259Y6066D01*
X6260Y6056D01*
X6264Y6046D01*
X6271Y6038D01*
X6279Y6031D01*
X6289Y6027D01*
X6299Y6026D01*
X6310Y6027D01*
X6319Y6031D01*
X6328Y6038D01*
X6334Y6046D01*
X6338Y6056D01*
X6340Y6066D01*
X6338Y6077D01*
X6334Y6086D01*
X6328Y6095D01*
X6319Y6101D01*
X6310Y6105D01*
X6299Y6106D01*
D02*
G37*
G36*
X4399Y6046D02*
X4389Y6045D01*
X4379Y6041D01*
X4371Y6035D01*
X4364Y6026D01*
X4360Y6017D01*
X4359Y6006D01*
X4360Y5996D01*
X4364Y5986D01*
X4371Y5978D01*
X4379Y5971D01*
X4389Y5967D01*
X4399Y5966D01*
X4410Y5967D01*
X4419Y5971D01*
X4428Y5978D01*
X4434Y5986D01*
X4438Y5996D01*
X4440Y6006D01*
X4438Y6017D01*
X4434Y6026D01*
X4428Y6035D01*
X4419Y6041D01*
X4410Y6045D01*
X4399Y6046D01*
D02*
G37*
G36*
X2864Y6072D02*
X2857Y6072D01*
X2840Y6067D01*
X2824Y6058D01*
X2811Y6047D01*
X2800Y6034D01*
X2792Y6018D01*
X2787Y6002D01*
X2786Y5994D01*
X2864D01*
Y6072D01*
D02*
G37*
G36*
X7204Y6191D02*
X7195Y6189D01*
X7186Y6184D01*
X7181Y6176D01*
X7179Y6166D01*
X7181Y6156D01*
X7186Y6148D01*
X7195Y6142D01*
X7204Y6140D01*
X7214Y6142D01*
X7222Y6148D01*
X7228Y6156D01*
X7230Y6166D01*
X7228Y6176D01*
X7222Y6184D01*
X7214Y6189D01*
X7204Y6191D01*
D02*
G37*
G36*
X4399Y6246D02*
X4389Y6245D01*
X4379Y6241D01*
X4371Y6235D01*
X4364Y6226D01*
X4360Y6217D01*
X4359Y6206D01*
X4360Y6196D01*
X4364Y6186D01*
X4371Y6178D01*
X4379Y6171D01*
X4389Y6167D01*
X4399Y6166D01*
X4410Y6167D01*
X4419Y6171D01*
X4428Y6178D01*
X4434Y6186D01*
X4438Y6196D01*
X4440Y6206D01*
X4438Y6217D01*
X4434Y6226D01*
X4428Y6235D01*
X4419Y6241D01*
X4410Y6245D01*
X4399Y6246D01*
D02*
G37*
G36*
X6878Y6145D02*
X6870Y6140D01*
X6865Y6132D01*
X6878D01*
Y6145D01*
D02*
G37*
G36*
X6898D02*
Y6132D01*
X6912D01*
X6906Y6140D01*
X6898Y6145D01*
D02*
G37*
G36*
X3886Y6181D02*
X3872D01*
X3878Y6173D01*
X3886Y6168D01*
Y6181D01*
D02*
G37*
G36*
X3586Y6191D02*
X3573D01*
Y6177D01*
X3581Y6183D01*
X3586Y6191D01*
D02*
G37*
G36*
X4656Y6262D02*
X4645Y6261D01*
X4635Y6257D01*
X4626Y6250D01*
X4619Y6241D01*
X4615Y6231D01*
X4614Y6220D01*
X4615Y6210D01*
X4619Y6200D01*
X4626Y6191D01*
X4635Y6184D01*
X4645Y6180D01*
X4656Y6179D01*
X4666Y6180D01*
X4676Y6184D01*
X4685Y6191D01*
X4692Y6200D01*
X4696Y6210D01*
X4697Y6220D01*
X4696Y6231D01*
X4692Y6241D01*
X4685Y6250D01*
X4676Y6257D01*
X4666Y6261D01*
X4656Y6262D01*
D02*
G37*
G36*
X3919Y6181D02*
X3906D01*
Y6168D01*
X3914Y6173D01*
X3919Y6181D01*
D02*
G37*
G36*
X3553Y6191D02*
X3540D01*
X3545Y6183D01*
X3553Y6177D01*
Y6191D01*
D02*
G37*
G36*
X7917Y6203D02*
X7834D01*
Y6120D01*
X7917D01*
Y6203D01*
D02*
G37*
G36*
X8230D02*
X8147D01*
Y6120D01*
X8230D01*
Y6203D01*
D02*
G37*
G36*
X8089Y6203D02*
X8078Y6202D01*
X8068Y6198D01*
X8059Y6191D01*
X8053Y6182D01*
X8049Y6172D01*
X8047Y6161D01*
X8049Y6151D01*
X8053Y6140D01*
X8059Y6132D01*
X8068Y6125D01*
X8078Y6121D01*
X8089Y6120D01*
X8100Y6121D01*
X8110Y6125D01*
X8119Y6132D01*
X8125Y6140D01*
X8129Y6151D01*
X8131Y6161D01*
X8129Y6172D01*
X8125Y6182D01*
X8119Y6191D01*
X8110Y6198D01*
X8100Y6202D01*
X8089Y6203D01*
D02*
G37*
G36*
X8404D02*
X8393Y6202D01*
X8383Y6198D01*
X8374Y6191D01*
X8368Y6182D01*
X8364Y6172D01*
X8362Y6161D01*
X8364Y6151D01*
X8368Y6140D01*
X8374Y6132D01*
X8383Y6125D01*
X8393Y6121D01*
X8404Y6120D01*
X8415Y6121D01*
X8425Y6125D01*
X8434Y6132D01*
X8440Y6140D01*
X8444Y6151D01*
X8446Y6161D01*
X8444Y6172D01*
X8440Y6182D01*
X8434Y6191D01*
X8425Y6198D01*
X8415Y6202D01*
X8404Y6203D01*
D02*
G37*
G36*
X8545Y6203D02*
X8462D01*
Y6120D01*
X8545D01*
Y6203D01*
D02*
G37*
G36*
X2624Y6238D02*
X2610Y6236D01*
X2597Y6231D01*
X2586Y6222D01*
X2577Y6211D01*
X2572Y6198D01*
X2570Y6184D01*
X2572Y6170D01*
X2577Y6157D01*
X2586Y6146D01*
X2597Y6138D01*
X2610Y6132D01*
X2624Y6130D01*
X2638Y6132D01*
X2651Y6138D01*
X2662Y6146D01*
X2670Y6157D01*
X2676Y6170D01*
X2677Y6184D01*
X2676Y6198D01*
X2670Y6211D01*
X2662Y6222D01*
X2651Y6231D01*
X2638Y6236D01*
X2624Y6238D01*
D02*
G37*
G36*
X3024D02*
X3010Y6236D01*
X2997Y6231D01*
X2986Y6222D01*
X2977Y6211D01*
X2972Y6198D01*
X2970Y6184D01*
X2972Y6170D01*
X2977Y6157D01*
X2986Y6146D01*
X2997Y6138D01*
X3010Y6132D01*
X3024Y6130D01*
X3038Y6132D01*
X3051Y6138D01*
X3062Y6146D01*
X3070Y6157D01*
X3076Y6170D01*
X3077Y6184D01*
X3076Y6198D01*
X3070Y6211D01*
X3062Y6222D01*
X3051Y6231D01*
X3038Y6236D01*
X3024Y6238D01*
D02*
G37*
G36*
X8681Y6202D02*
X8671Y6200D01*
X8661Y6196D01*
X8653Y6190D01*
X8646Y6182D01*
X8642Y6172D01*
X8641Y6161D01*
X8642Y6151D01*
X8646Y6141D01*
X8653Y6133D01*
X8661Y6126D01*
X8671Y6122D01*
X8681Y6121D01*
X8692Y6122D01*
X8701Y6126D01*
X8710Y6133D01*
X8716Y6141D01*
X8720Y6151D01*
X8721Y6161D01*
X8720Y6172D01*
X8716Y6182D01*
X8710Y6190D01*
X8701Y6196D01*
X8692Y6200D01*
X8681Y6202D01*
D02*
G37*
G36*
X6299Y6206D02*
X6289Y6205D01*
X6279Y6201D01*
X6271Y6195D01*
X6264Y6186D01*
X6260Y6177D01*
X6259Y6166D01*
X6260Y6156D01*
X6264Y6146D01*
X6271Y6138D01*
X6279Y6131D01*
X6289Y6127D01*
X6299Y6126D01*
X6310Y6127D01*
X6319Y6131D01*
X6328Y6138D01*
X6334Y6146D01*
X6338Y6156D01*
X6340Y6166D01*
X6338Y6177D01*
X6334Y6186D01*
X6328Y6195D01*
X6319Y6201D01*
X6310Y6205D01*
X6299Y6206D01*
D02*
G37*
G36*
X4439Y5546D02*
X4359D01*
Y5466D01*
X4439D01*
Y5546D01*
D02*
G37*
G36*
X3799Y5541D02*
X3786D01*
X3791Y5533D01*
X3799Y5528D01*
Y5541D01*
D02*
G37*
G36*
X3024Y5490D02*
X3010Y5488D01*
X2997Y5483D01*
X2986Y5474D01*
X2977Y5463D01*
X2972Y5450D01*
X2970Y5436D01*
X2972Y5422D01*
X2977Y5409D01*
X2986Y5398D01*
X2997Y5390D01*
X3010Y5384D01*
X3024Y5382D01*
X3038Y5384D01*
X3051Y5390D01*
X3062Y5398D01*
X3070Y5409D01*
X3076Y5422D01*
X3077Y5436D01*
X3076Y5450D01*
X3070Y5463D01*
X3062Y5474D01*
X3051Y5483D01*
X3038Y5488D01*
X3024Y5490D01*
D02*
G37*
G36*
X6299Y5546D02*
X6289Y5545D01*
X6279Y5541D01*
X6271Y5535D01*
X6264Y5526D01*
X6260Y5517D01*
X6259Y5506D01*
X6260Y5496D01*
X6264Y5486D01*
X6271Y5478D01*
X6279Y5471D01*
X6289Y5467D01*
X6299Y5466D01*
X6310Y5467D01*
X6319Y5471D01*
X6328Y5478D01*
X6334Y5486D01*
X6338Y5496D01*
X6340Y5506D01*
X6338Y5517D01*
X6334Y5526D01*
X6328Y5535D01*
X6319Y5541D01*
X6310Y5545D01*
X6299Y5546D01*
D02*
G37*
G36*
X3832Y5541D02*
X3819D01*
Y5528D01*
X3827Y5533D01*
X3832Y5541D01*
D02*
G37*
G36*
X6299Y5646D02*
X6289Y5645D01*
X6279Y5641D01*
X6271Y5635D01*
X6264Y5626D01*
X6260Y5617D01*
X6259Y5606D01*
X6260Y5596D01*
X6264Y5586D01*
X6271Y5578D01*
X6279Y5571D01*
X6289Y5567D01*
X6299Y5566D01*
X6310Y5567D01*
X6319Y5571D01*
X6328Y5578D01*
X6334Y5586D01*
X6338Y5596D01*
X6340Y5606D01*
X6338Y5617D01*
X6334Y5626D01*
X6328Y5635D01*
X6319Y5641D01*
X6310Y5645D01*
X6299Y5646D01*
D02*
G37*
G36*
X7699Y5729D02*
X7616D01*
Y5646D01*
X7699D01*
Y5729D01*
D02*
G37*
G36*
X3799Y5575D02*
X3791Y5569D01*
X3786Y5561D01*
X3799D01*
Y5575D01*
D02*
G37*
G36*
X3819D02*
Y5561D01*
X3832D01*
X3827Y5569D01*
X3819Y5575D01*
D02*
G37*
G36*
X4075Y5332D02*
X4065Y5330D01*
X4057Y5324D01*
X4051Y5316D01*
X4049Y5306D01*
X4051Y5296D01*
X4057Y5288D01*
X4065Y5283D01*
X4075Y5281D01*
X4085Y5283D01*
X4093Y5288D01*
X4098Y5296D01*
X4100Y5306D01*
X4098Y5316D01*
X4093Y5324D01*
X4085Y5330D01*
X4075Y5332D01*
D02*
G37*
G36*
X6457Y5345D02*
X6449Y5344D01*
X6442Y5341D01*
X6435Y5336D01*
X6430Y5330D01*
X6427Y5323D01*
X6426Y5315D01*
X6427Y5307D01*
X6430Y5300D01*
X6435Y5294D01*
X6442Y5289D01*
X6449Y5286D01*
X6457Y5285D01*
X6465Y5286D01*
X6472Y5289D01*
X6478Y5294D01*
X6483Y5300D01*
X6486Y5307D01*
X6487Y5315D01*
X6486Y5323D01*
X6483Y5330D01*
X6478Y5336D01*
X6472Y5341D01*
X6465Y5344D01*
X6457Y5345D01*
D02*
G37*
G36*
X4399Y5346D02*
X4389Y5345D01*
X4379Y5341D01*
X4371Y5335D01*
X4364Y5326D01*
X4360Y5317D01*
X4359Y5306D01*
X4360Y5296D01*
X4364Y5286D01*
X4371Y5278D01*
X4379Y5271D01*
X4389Y5267D01*
X4399Y5266D01*
X4410Y5267D01*
X4419Y5271D01*
X4428Y5278D01*
X4434Y5286D01*
X4438Y5296D01*
X4440Y5306D01*
X4438Y5317D01*
X4434Y5326D01*
X4428Y5335D01*
X4419Y5341D01*
X4410Y5345D01*
X4399Y5346D01*
D02*
G37*
G36*
X6299D02*
X6289Y5345D01*
X6279Y5341D01*
X6271Y5335D01*
X6264Y5326D01*
X6260Y5317D01*
X6259Y5306D01*
X6260Y5296D01*
X6264Y5286D01*
X6271Y5278D01*
X6279Y5271D01*
X6289Y5267D01*
X6299Y5266D01*
X6310Y5267D01*
X6319Y5271D01*
X6328Y5278D01*
X6334Y5286D01*
X6338Y5296D01*
X6340Y5306D01*
X6338Y5317D01*
X6334Y5326D01*
X6328Y5335D01*
X6319Y5341D01*
X6310Y5345D01*
X6299Y5346D01*
D02*
G37*
G36*
X3821Y5445D02*
X3738D01*
Y5362D01*
X3821D01*
Y5445D01*
D02*
G37*
G36*
X7402Y5429D02*
X7392Y5427D01*
X7384Y5422D01*
X7378Y5413D01*
X7376Y5404D01*
X7378Y5394D01*
X7384Y5386D01*
X7392Y5380D01*
X7402Y5378D01*
X7411Y5380D01*
X7420Y5386D01*
X7425Y5394D01*
X7427Y5404D01*
X7425Y5413D01*
X7420Y5422D01*
X7411Y5427D01*
X7402Y5429D01*
D02*
G37*
G36*
X2624Y5490D02*
X2610Y5488D01*
X2597Y5483D01*
X2586Y5474D01*
X2577Y5463D01*
X2572Y5450D01*
X2570Y5436D01*
X2572Y5422D01*
X2577Y5409D01*
X2586Y5398D01*
X2597Y5390D01*
X2610Y5384D01*
X2624Y5382D01*
X2638Y5384D01*
X2651Y5390D01*
X2662Y5398D01*
X2670Y5409D01*
X2676Y5422D01*
X2677Y5436D01*
X2676Y5450D01*
X2670Y5463D01*
X2662Y5474D01*
X2651Y5483D01*
X2638Y5488D01*
X2624Y5490D01*
D02*
G37*
G36*
X4399Y5446D02*
X4389Y5445D01*
X4379Y5441D01*
X4371Y5435D01*
X4364Y5426D01*
X4360Y5417D01*
X4359Y5406D01*
X4360Y5396D01*
X4364Y5386D01*
X4371Y5378D01*
X4379Y5371D01*
X4389Y5367D01*
X4399Y5366D01*
X4410Y5367D01*
X4419Y5371D01*
X4428Y5378D01*
X4434Y5386D01*
X4438Y5396D01*
X4440Y5406D01*
X4438Y5417D01*
X4434Y5426D01*
X4428Y5435D01*
X4419Y5441D01*
X4410Y5445D01*
X4399Y5446D01*
D02*
G37*
G36*
X6299D02*
X6289Y5445D01*
X6279Y5441D01*
X6271Y5435D01*
X6264Y5426D01*
X6260Y5417D01*
X6259Y5406D01*
X6260Y5396D01*
X6264Y5386D01*
X6271Y5378D01*
X6279Y5371D01*
X6289Y5367D01*
X6299Y5366D01*
X6310Y5367D01*
X6319Y5371D01*
X6328Y5378D01*
X6334Y5386D01*
X6338Y5396D01*
X6340Y5406D01*
X6338Y5417D01*
X6334Y5426D01*
X6328Y5435D01*
X6319Y5441D01*
X6310Y5445D01*
X6299Y5446D01*
D02*
G37*
G36*
X4389Y5845D02*
X4389Y5845D01*
X4379Y5841D01*
X4371Y5835D01*
X4364Y5826D01*
X4360Y5817D01*
X4360Y5816D01*
X4389D01*
Y5845D01*
D02*
G37*
G36*
X4409D02*
Y5816D01*
X4438D01*
X4438Y5817D01*
X4434Y5826D01*
X4428Y5835D01*
X4419Y5841D01*
X4410Y5845D01*
X4409Y5845D01*
D02*
G37*
G36*
X8494Y5806D02*
X8493Y5806D01*
X8484Y5801D01*
X8475Y5795D01*
X8469Y5787D01*
X8465Y5777D01*
X8465Y5777D01*
X8494D01*
Y5806D01*
D02*
G37*
G36*
X8514D02*
Y5777D01*
X8543D01*
X8543Y5777D01*
X8539Y5787D01*
X8532Y5795D01*
X8524Y5801D01*
X8514Y5806D01*
X8514Y5806D01*
D02*
G37*
G36*
X6339Y5906D02*
X6259D01*
Y5826D01*
X6339D01*
Y5906D01*
D02*
G37*
G36*
X4438Y5896D02*
X4409D01*
Y5867D01*
X4410Y5867D01*
X4419Y5871D01*
X4428Y5878D01*
X4434Y5886D01*
X4438Y5896D01*
X4438Y5896D01*
D02*
G37*
G36*
X2864Y5974D02*
X2786D01*
X2787Y5967D01*
X2792Y5950D01*
X2800Y5935D01*
X2811Y5921D01*
X2824Y5910D01*
X2840Y5902D01*
X2857Y5897D01*
X2864Y5896D01*
Y5974D01*
D02*
G37*
G36*
X7283Y5892D02*
X7274Y5890D01*
X7265Y5884D01*
X7260Y5876D01*
X7258Y5866D01*
X7260Y5856D01*
X7265Y5848D01*
X7274Y5843D01*
X7283Y5841D01*
X7293Y5843D01*
X7301Y5848D01*
X7307Y5856D01*
X7309Y5866D01*
X7307Y5876D01*
X7301Y5884D01*
X7293Y5890D01*
X7283Y5892D01*
D02*
G37*
G36*
X4389Y5896D02*
X4360D01*
X4360Y5896D01*
X4364Y5886D01*
X4371Y5878D01*
X4379Y5871D01*
X4389Y5867D01*
X4389Y5867D01*
Y5896D01*
D02*
G37*
G36*
X8494Y5757D02*
X8465D01*
X8465Y5756D01*
X8469Y5746D01*
X8475Y5738D01*
X8484Y5732D01*
X8493Y5728D01*
X8494Y5728D01*
Y5757D01*
D02*
G37*
G36*
X8543D02*
X8514D01*
Y5728D01*
X8514Y5728D01*
X8524Y5732D01*
X8532Y5738D01*
X8539Y5746D01*
X8543Y5756D01*
X8543Y5757D01*
D02*
G37*
G36*
X4399Y5746D02*
X4389Y5745D01*
X4379Y5741D01*
X4371Y5735D01*
X4364Y5726D01*
X4360Y5717D01*
X4359Y5706D01*
X4360Y5696D01*
X4364Y5686D01*
X4371Y5678D01*
X4379Y5671D01*
X4389Y5667D01*
X4399Y5666D01*
X4410Y5667D01*
X4419Y5671D01*
X4428Y5678D01*
X4434Y5686D01*
X4438Y5696D01*
X4440Y5706D01*
X4438Y5717D01*
X4434Y5726D01*
X4428Y5735D01*
X4419Y5741D01*
X4410Y5745D01*
X4399Y5746D01*
D02*
G37*
G36*
X6299D02*
X6289Y5745D01*
X6279Y5741D01*
X6271Y5735D01*
X6264Y5726D01*
X6260Y5717D01*
X6259Y5706D01*
X6260Y5696D01*
X6264Y5686D01*
X6271Y5678D01*
X6279Y5671D01*
X6289Y5667D01*
X6299Y5666D01*
X6310Y5667D01*
X6319Y5671D01*
X6328Y5678D01*
X6334Y5686D01*
X6338Y5696D01*
X6340Y5706D01*
X6338Y5717D01*
X6334Y5726D01*
X6328Y5735D01*
X6319Y5741D01*
X6310Y5745D01*
X6299Y5746D01*
D02*
G37*
G36*
X2624Y5838D02*
X2610Y5836D01*
X2597Y5831D01*
X2586Y5822D01*
X2577Y5811D01*
X2572Y5798D01*
X2570Y5784D01*
X2572Y5770D01*
X2577Y5757D01*
X2586Y5746D01*
X2597Y5738D01*
X2610Y5732D01*
X2624Y5730D01*
X2638Y5732D01*
X2651Y5738D01*
X2662Y5746D01*
X2670Y5757D01*
X2676Y5770D01*
X2677Y5784D01*
X2676Y5798D01*
X2670Y5811D01*
X2662Y5822D01*
X2651Y5831D01*
X2638Y5836D01*
X2624Y5838D01*
D02*
G37*
G36*
X4389Y5796D02*
X4360D01*
X4360Y5796D01*
X4364Y5786D01*
X4371Y5778D01*
X4379Y5771D01*
X4389Y5767D01*
X4389Y5767D01*
Y5796D01*
D02*
G37*
G36*
X4438D02*
X4409D01*
Y5767D01*
X4410Y5767D01*
X4419Y5771D01*
X4428Y5778D01*
X4434Y5786D01*
X4438Y5796D01*
X4438Y5796D01*
D02*
G37*
G36*
X3024Y5838D02*
X3010Y5836D01*
X2997Y5831D01*
X2986Y5822D01*
X2977Y5811D01*
X2972Y5798D01*
X2970Y5784D01*
X2972Y5770D01*
X2977Y5757D01*
X2986Y5746D01*
X2997Y5738D01*
X3010Y5732D01*
X3024Y5730D01*
X3038Y5732D01*
X3051Y5738D01*
X3062Y5746D01*
X3070Y5757D01*
X3076Y5770D01*
X3077Y5784D01*
X3076Y5798D01*
X3070Y5811D01*
X3062Y5822D01*
X3051Y5831D01*
X3038Y5836D01*
X3024Y5838D01*
D02*
G37*
G36*
X7657Y5829D02*
X7647Y5828D01*
X7637Y5824D01*
X7628Y5817D01*
X7621Y5808D01*
X7617Y5798D01*
X7616Y5787D01*
X7617Y5777D01*
X7621Y5766D01*
X7628Y5758D01*
X7637Y5751D01*
X7647Y5747D01*
X7657Y5746D01*
X7668Y5747D01*
X7678Y5751D01*
X7687Y5758D01*
X7694Y5766D01*
X7698Y5777D01*
X7699Y5787D01*
X7698Y5798D01*
X7694Y5808D01*
X7687Y5817D01*
X7678Y5824D01*
X7668Y5828D01*
X7657Y5829D01*
D02*
G37*
%LPD*%
D47*
X9870Y2446D02*
X9853Y2462D01*
X9820D01*
X9803Y2446D01*
Y2429D01*
X9820Y2412D01*
X9853D01*
X9870Y2396D01*
Y2379D01*
X9853Y2362D01*
X9820D01*
X9803Y2379D01*
X9903Y2462D02*
X9936D01*
X9920D01*
Y2362D01*
X9903D01*
X9936D01*
X10053Y2446D02*
X10036Y2462D01*
X10003D01*
X9986Y2446D01*
Y2379D01*
X10003Y2362D01*
X10036D01*
X10053Y2379D01*
Y2412D01*
X10020D01*
X10086Y2362D02*
Y2462D01*
X10153Y2362D01*
Y2462D01*
X10186Y2362D02*
Y2429D01*
X10220Y2462D01*
X10253Y2429D01*
Y2362D01*
Y2412D01*
X10186D01*
X10286Y2462D02*
Y2362D01*
X10353D01*
X10486Y2462D02*
Y2362D01*
X10553D01*
X10586D02*
Y2429D01*
X10620Y2462D01*
X10653Y2429D01*
Y2362D01*
Y2412D01*
X10586D01*
X10686Y2462D02*
Y2446D01*
X10720Y2412D01*
X10753Y2446D01*
Y2462D01*
X10720Y2412D02*
Y2362D01*
X10853Y2462D02*
X10786D01*
Y2362D01*
X10853D01*
X10786Y2412D02*
X10819D01*
X10886Y2362D02*
Y2462D01*
X10936D01*
X10953Y2446D01*
Y2412D01*
X10936Y2396D01*
X10886D01*
X10919D02*
X10953Y2362D01*
X11086D02*
X11119D01*
X11103D01*
Y2462D01*
X11086Y2446D01*
D48*
X1772Y1969D02*
X8858D01*
X1772D02*
Y8268D01*
X8858Y1969D02*
Y8268D01*
X1772D02*
X8858D01*
D55*
X7620Y2972D02*
D03*
X7520Y3819D02*
D03*
X2854Y3681D02*
D03*
X3504Y6831D02*
D03*
X2854Y2106D02*
D03*
X6457Y5206D02*
D03*
D58*
X7756Y2598D02*
D03*
X2874Y5984D02*
D03*
X2874Y6890D02*
D03*
X1969Y2165D02*
D03*
X8661D02*
D03*
Y8075D02*
D03*
X1969Y8071D02*
D03*
X7756Y4291D02*
D03*
D60*
X4399Y5906D02*
D03*
Y5806D02*
D03*
X6299Y6466D02*
D03*
X2864Y3243D02*
D03*
X2859Y4817D02*
D03*
X6437Y7722D02*
D03*
X6437Y7396D02*
D03*
X8504Y5767D02*
D03*
D63*
X2607Y6437D02*
D03*
D65*
X1949Y4173D02*
D03*
Y4472D02*
D03*
Y2898D02*
D03*
Y2598D02*
D03*
D70*
X3896Y6191D02*
D03*
X4272Y4321D02*
D03*
X4242Y2874D02*
D03*
X3839Y2559D02*
D03*
X3416Y2885D02*
D03*
X3720Y3248D02*
D03*
X4256Y3705D02*
D03*
X3839Y3878D02*
D03*
X3307Y3849D02*
D03*
X3736Y3480D02*
D03*
Y2161D02*
D03*
X4256Y2386D02*
D03*
X3377Y2550D02*
D03*
X3248Y2618D02*
D03*
X3256Y4122D02*
D03*
X2513Y2218D02*
D03*
X2244Y3583D02*
D03*
X6909Y3681D02*
D03*
X7475Y7343D02*
D03*
X7283Y6811D02*
D03*
X6888Y6122D02*
D03*
X3051Y4225D02*
D03*
X2894Y4331D02*
D03*
X3809Y5551D02*
D03*
X3031Y2736D02*
D03*
X3793Y4148D02*
D03*
X3327Y4449D02*
D03*
X6762Y7146D02*
D03*
X3563Y6201D02*
D03*
X4595Y7002D02*
D03*
X7411Y2749D02*
D03*
X2318Y3106D02*
D03*
X3819Y2839D02*
D03*
X3789Y2671D02*
D03*
X3612Y2630D02*
D03*
X3258Y2722D02*
D03*
X3066Y2445D02*
D03*
X2904Y2854D02*
D03*
X3819Y4317D02*
D03*
X3602Y4101D02*
D03*
X3258Y4199D02*
D03*
X3066Y3922D02*
D03*
X2318Y4685D02*
D03*
X4369Y7701D02*
D03*
X6697Y7973D02*
D03*
X6935Y7707D02*
D03*
X7559Y7126D02*
D03*
X6988Y7411D02*
D03*
X6501Y6250D02*
D03*
X7337Y6100D02*
D03*
X5039Y8140D02*
D03*
X6668Y4435D02*
D03*
Y3155D02*
D03*
X6201Y3425D02*
D03*
X6201Y4705D02*
D03*
M02*
