G04*
G04 #@! TF.GenerationSoftware,Altium Limited,CircuitStudio,1.5.1 (13)*
G04*
G04 Layer_Physical_Order=1*
G04 Layer_Color=11767835*
%FSLAX23Y23*%
%MOIN*%
G70*
G01*
G75*
G04:AMPARAMS|DCode=10|XSize=75mil|YSize=133mil|CornerRadius=3mil|HoleSize=0mil|Usage=FLASHONLY|Rotation=90.000|XOffset=0mil|YOffset=0mil|HoleType=Round|Shape=RoundedRectangle|*
%AMROUNDEDRECTD10*
21,1,0.075,0.127,0,0,90.0*
21,1,0.070,0.133,0,0,90.0*
1,1,0.005,0.064,0.035*
1,1,0.005,0.064,-0.035*
1,1,0.005,-0.064,-0.035*
1,1,0.005,-0.064,0.035*
%
%ADD10ROUNDEDRECTD10*%
G04:AMPARAMS|DCode=11|XSize=75mil|YSize=133mil|CornerRadius=3mil|HoleSize=0mil|Usage=FLASHONLY|Rotation=180.000|XOffset=0mil|YOffset=0mil|HoleType=Round|Shape=RoundedRectangle|*
%AMROUNDEDRECTD11*
21,1,0.075,0.127,0,0,180.0*
21,1,0.070,0.133,0,0,180.0*
1,1,0.005,-0.035,0.064*
1,1,0.005,0.035,0.064*
1,1,0.005,0.035,-0.064*
1,1,0.005,-0.035,-0.064*
%
%ADD11ROUNDEDRECTD11*%
%ADD12R,0.060X0.050*%
%ADD13R,0.050X0.060*%
%ADD14R,0.047X0.016*%
G04:AMPARAMS|DCode=15|XSize=78mil|YSize=24mil|CornerRadius=3mil|HoleSize=0mil|Usage=FLASHONLY|Rotation=0.000|XOffset=0mil|YOffset=0mil|HoleType=Round|Shape=RoundedRectangle|*
%AMROUNDEDRECTD15*
21,1,0.078,0.018,0,0,0.0*
21,1,0.072,0.024,0,0,0.0*
1,1,0.006,0.036,-0.009*
1,1,0.006,-0.036,-0.009*
1,1,0.006,-0.036,0.009*
1,1,0.006,0.036,0.009*
%
%ADD15ROUNDEDRECTD15*%
%ADD16R,0.063X0.031*%
%ADD17R,0.050X0.047*%
%ADD18R,0.047X0.050*%
%ADD19R,0.035X0.037*%
%ADD20R,0.035X0.037*%
%ADD21R,0.031X0.063*%
%ADD22R,0.063X0.118*%
%ADD23R,0.236X0.236*%
G04:AMPARAMS|DCode=24|XSize=43mil|YSize=70mil|CornerRadius=3mil|HoleSize=0mil|Usage=FLASHONLY|Rotation=90.000|XOffset=0mil|YOffset=0mil|HoleType=Round|Shape=RoundedRectangle|*
%AMROUNDEDRECTD24*
21,1,0.043,0.064,0,0,90.0*
21,1,0.037,0.070,0,0,90.0*
1,1,0.006,0.032,0.018*
1,1,0.006,0.032,-0.018*
1,1,0.006,-0.032,-0.018*
1,1,0.006,-0.032,0.018*
%
%ADD24ROUNDEDRECTD24*%
G04:AMPARAMS|DCode=25|XSize=37mil|YSize=70mil|CornerRadius=3mil|HoleSize=0mil|Usage=FLASHONLY|Rotation=90.000|XOffset=0mil|YOffset=0mil|HoleType=Round|Shape=RoundedRectangle|*
%AMROUNDEDRECTD25*
21,1,0.037,0.065,0,0,90.0*
21,1,0.032,0.070,0,0,90.0*
1,1,0.005,0.032,0.016*
1,1,0.005,0.032,-0.016*
1,1,0.005,-0.032,-0.016*
1,1,0.005,-0.032,0.016*
%
%ADD25ROUNDEDRECTD25*%
%ADD26R,0.217X0.077*%
%ADD27R,0.035X0.031*%
%ADD28R,0.039X0.039*%
%ADD29R,0.024X0.050*%
G04:AMPARAMS|DCode=30|XSize=57mil|YSize=23mil|CornerRadius=3mil|HoleSize=0mil|Usage=FLASHONLY|Rotation=270.000|XOffset=0mil|YOffset=0mil|HoleType=Round|Shape=RoundedRectangle|*
%AMROUNDEDRECTD30*
21,1,0.057,0.017,0,0,270.0*
21,1,0.051,0.023,0,0,270.0*
1,1,0.006,-0.009,-0.026*
1,1,0.006,-0.009,0.026*
1,1,0.006,0.009,0.026*
1,1,0.006,0.009,-0.026*
%
%ADD30ROUNDEDRECTD30*%
%ADD31R,0.079X0.224*%
%ADD32R,0.047X0.024*%
%ADD33R,0.024X0.050*%
%ADD34R,0.024X0.028*%
%ADD35R,0.161X0.150*%
%ADD36R,0.030X0.023*%
%ADD37R,0.006X0.012*%
%ADD38R,0.136X0.073*%
%ADD39R,0.055X0.165*%
%ADD40R,0.050X0.107*%
%ADD41R,0.075X0.022*%
%ADD42R,0.047X0.032*%
G04:AMPARAMS|DCode=43|XSize=58mil|YSize=16mil|CornerRadius=2mil|HoleSize=0mil|Usage=FLASHONLY|Rotation=0.000|XOffset=0mil|YOffset=0mil|HoleType=Round|Shape=RoundedRectangle|*
%AMROUNDEDRECTD43*
21,1,0.058,0.012,0,0,0.0*
21,1,0.054,0.016,0,0,0.0*
1,1,0.004,0.027,-0.006*
1,1,0.004,-0.027,-0.006*
1,1,0.004,-0.027,0.006*
1,1,0.004,0.027,0.006*
%
%ADD43ROUNDEDRECTD43*%
%ADD44R,0.138X0.085*%
%ADD45R,0.043X0.085*%
%ADD46R,0.043X0.085*%
%ADD47C,0.020*%
%ADD48C,0.010*%
%ADD49C,0.040*%
%ADD50C,0.060*%
%ADD51C,0.030*%
%ADD52C,0.079*%
%ADD53R,0.079X0.079*%
%ADD54C,0.040*%
%ADD55C,0.063*%
%ADD56R,0.063X0.063*%
%ADD57C,0.087*%
%ADD58C,0.157*%
%ADD59R,0.063X0.063*%
%ADD60C,0.060*%
%ADD61R,0.060X0.060*%
%ADD62C,0.094*%
%ADD63C,0.060*%
%ADD64R,0.060X0.060*%
%ADD65C,0.106*%
%ADD66R,0.056X0.056*%
%ADD67C,0.175*%
%ADD68C,0.091*%
%ADD69R,0.091X0.091*%
%ADD70C,0.030*%
%ADD71C,0.050*%
G36*
X6240Y1988D02*
X4764D01*
Y2539D01*
X4778D01*
X4779Y2537D01*
X4782Y2533D01*
X4786Y2530D01*
X4791Y2529D01*
X4855D01*
X4860Y2530D01*
X4860Y2530D01*
X4878D01*
X4891Y2517D01*
Y2313D01*
X4793D01*
Y2057D01*
X5049D01*
Y2313D01*
X4952D01*
Y2530D01*
X4952Y2530D01*
X4951Y2534D01*
X4955Y2539D01*
X4982D01*
Y2533D01*
X4995D01*
Y2510D01*
X4970D01*
Y2372D01*
X5053D01*
Y2510D01*
X5025D01*
Y2533D01*
X5038D01*
Y2539D01*
X5133D01*
X5133Y2537D01*
X5136Y2533D01*
X5140Y2530D01*
X5145Y2529D01*
X5209D01*
X5209Y2529D01*
X5243D01*
X5250Y2522D01*
Y2313D01*
X5152D01*
Y2057D01*
X5408D01*
Y2313D01*
X5310D01*
Y2535D01*
X5310Y2536D01*
X5313Y2539D01*
X5346D01*
Y2533D01*
X5359D01*
Y2510D01*
X5329D01*
Y2372D01*
X5412D01*
Y2510D01*
X5389D01*
Y2533D01*
X5402D01*
Y2539D01*
X5497D01*
X5497Y2537D01*
X5500Y2533D01*
X5504Y2530D01*
X5509Y2529D01*
X5573D01*
X5574Y2529D01*
X5598D01*
X5604Y2522D01*
Y2313D01*
X5506D01*
Y2057D01*
X5762D01*
Y2313D01*
X5665D01*
Y2535D01*
X5665Y2536D01*
X5668Y2539D01*
X5701D01*
Y2533D01*
X5713D01*
Y2510D01*
X5683D01*
Y2372D01*
X5766D01*
Y2510D01*
X5744D01*
Y2533D01*
X5756D01*
Y2539D01*
X5851D01*
X5852Y2537D01*
X5854Y2533D01*
X5859Y2530D01*
X5864Y2529D01*
X5928D01*
X5928Y2529D01*
X5952D01*
X5958Y2522D01*
Y2313D01*
X5861D01*
Y2057D01*
X6117D01*
Y2313D01*
X6019D01*
Y2535D01*
X6019Y2536D01*
X6022Y2539D01*
X6055D01*
Y2533D01*
X6067D01*
Y2510D01*
X6038D01*
Y2372D01*
X6121D01*
Y2510D01*
X6098D01*
Y2533D01*
X6110D01*
Y2539D01*
X6240D01*
Y1988D01*
D02*
G37*
G36*
X4571Y4080D02*
X4307D01*
Y4208D01*
X4571D01*
Y4080D01*
D02*
G37*
G36*
Y4503D02*
X4307D01*
Y4631D01*
X4571D01*
Y4503D01*
D02*
G37*
G36*
X6142Y4469D02*
X6111D01*
X6107Y4469D01*
X6084D01*
X6083Y4470D01*
X6075Y4471D01*
X6026D01*
X6015Y4483D01*
Y4685D01*
X6112D01*
Y4941D01*
X5856D01*
Y4685D01*
X5954D01*
Y4470D01*
X5953Y4469D01*
X5911D01*
Y4488D01*
X5935D01*
Y4626D01*
X5852D01*
Y4488D01*
X5880D01*
Y4469D01*
X5757D01*
X5753Y4469D01*
X5729D01*
X5728Y4470D01*
X5720Y4471D01*
X5672D01*
X5660Y4483D01*
Y4685D01*
X5758D01*
Y4941D01*
X5502D01*
Y4685D01*
X5600D01*
Y4470D01*
X5598Y4469D01*
X5557D01*
Y4488D01*
X5581D01*
Y4626D01*
X5498D01*
Y4488D01*
X5526D01*
Y4469D01*
X5400D01*
X5396Y4469D01*
X5332D01*
X5331Y4469D01*
X5329Y4470D01*
X5321Y4471D01*
X5306D01*
X5306Y4471D01*
Y4685D01*
X5404D01*
Y4941D01*
X5147D01*
Y4685D01*
X5245D01*
Y4469D01*
X5202D01*
Y4488D01*
X5227D01*
Y4626D01*
X5144D01*
Y4488D01*
X5172D01*
Y4469D01*
X5046D01*
X5042Y4469D01*
X4978D01*
X4977Y4469D01*
X4975Y4470D01*
X4967Y4471D01*
X4952D01*
X4952Y4471D01*
Y4685D01*
X5049D01*
Y4941D01*
X4793D01*
Y4685D01*
X4891D01*
Y4469D01*
X4848D01*
Y4488D01*
X4872D01*
Y4626D01*
X4789D01*
Y4488D01*
X4817D01*
Y4469D01*
X4764D01*
Y5059D01*
X6142D01*
Y4469D01*
D02*
G37*
G36*
X4774Y7618D02*
X4557D01*
Y7953D01*
X4534D01*
X4530Y7955D01*
Y7967D01*
X4505D01*
Y7987D01*
X4530D01*
Y7998D01*
X4500D01*
Y8017D01*
X4319D01*
Y7998D01*
X4289D01*
Y7987D01*
X4314D01*
Y7967D01*
X4289D01*
Y7955D01*
X4285Y7953D01*
X4219D01*
X4215Y7955D01*
Y7967D01*
X4190D01*
Y7987D01*
X4215D01*
Y7998D01*
X4185D01*
Y8017D01*
X4004D01*
Y7998D01*
X3974D01*
Y7987D01*
X3999D01*
Y7967D01*
X3974D01*
Y7955D01*
X3970Y7953D01*
X3878D01*
Y8248D01*
X4774D01*
Y7618D01*
D02*
G37*
G36*
X4581Y2790D02*
X4317D01*
Y2918D01*
X4581D01*
Y2790D01*
D02*
G37*
G36*
X6142Y2894D02*
X6119D01*
X6115Y2894D01*
X6092D01*
X6091Y2895D01*
X6083Y2896D01*
X6025D01*
X6019Y2902D01*
Y3110D01*
X6117D01*
Y3366D01*
X5861D01*
Y3110D01*
X5958D01*
Y2894D01*
X5911D01*
Y2913D01*
X5940D01*
Y3051D01*
X5857D01*
Y2913D01*
X5880D01*
Y2894D01*
X5765D01*
X5761Y2894D01*
X5696D01*
X5696Y2894D01*
X5672D01*
X5665Y2902D01*
Y3110D01*
X5762D01*
Y3366D01*
X5506D01*
Y3110D01*
X5604D01*
Y2894D01*
X5559D01*
Y2913D01*
X5585D01*
Y3051D01*
X5502D01*
Y2913D01*
X5528D01*
Y2894D01*
X5400D01*
X5396Y2894D01*
X5332D01*
X5328Y2894D01*
X5325D01*
X5320Y2894D01*
X5310D01*
Y3110D01*
X5408D01*
Y3366D01*
X5152D01*
Y3110D01*
X5250D01*
Y2894D01*
X5202D01*
Y2913D01*
X5231D01*
Y3051D01*
X5148D01*
Y2913D01*
X5172D01*
Y2894D01*
X5046D01*
X5042Y2894D01*
X5020D01*
X5017Y2896D01*
X5009Y2897D01*
X4956D01*
Y3110D01*
X5054D01*
Y3366D01*
X4798D01*
Y3110D01*
X4895D01*
Y2894D01*
X4848D01*
Y2913D01*
X4877D01*
Y3051D01*
X4794D01*
Y2913D01*
X4817D01*
Y2894D01*
X4764D01*
Y3484D01*
X6142D01*
Y2894D01*
D02*
G37*
G36*
X4581Y2300D02*
X4577Y2297D01*
X4573Y2290D01*
X4571Y2282D01*
Y2269D01*
X4317D01*
Y2397D01*
X4581D01*
Y2300D01*
D02*
G37*
G36*
X6142Y3524D02*
X4764D01*
Y3945D01*
X4775Y3956D01*
X4778Y3961D01*
X4779Y3967D01*
Y4113D01*
X4781Y4114D01*
X4788D01*
X4789Y4112D01*
X4791Y4107D01*
X4796Y4105D01*
X4801Y4104D01*
X4865D01*
X4870Y4105D01*
X4870Y4105D01*
X4877Y4104D01*
X4889D01*
X4891Y4102D01*
Y3888D01*
X4793D01*
Y3632D01*
X5049D01*
Y3888D01*
X4952D01*
Y4114D01*
X4982D01*
Y4108D01*
X4995D01*
Y4085D01*
X4970D01*
Y3947D01*
X5053D01*
Y4085D01*
X5025D01*
Y4108D01*
X5038D01*
Y4114D01*
X5142D01*
X5143Y4112D01*
X5146Y4107D01*
X5150Y4105D01*
X5155Y4104D01*
X5219D01*
X5224Y4105D01*
X5224Y4105D01*
X5231Y4104D01*
X5243D01*
X5245Y4102D01*
Y3888D01*
X5147D01*
Y3632D01*
X5404D01*
Y3888D01*
X5306D01*
Y4114D01*
X5336D01*
Y4108D01*
X5349D01*
Y4085D01*
X5325D01*
Y3947D01*
X5408D01*
Y4085D01*
X5379D01*
Y4108D01*
X5392D01*
Y4114D01*
X5497D01*
X5497Y4112D01*
X5500Y4107D01*
X5504Y4105D01*
X5509Y4104D01*
X5573D01*
X5578Y4105D01*
X5580Y4106D01*
X5586Y4105D01*
X5600Y4092D01*
Y3888D01*
X5502D01*
Y3632D01*
X5758D01*
Y3888D01*
X5660D01*
Y4104D01*
X5660Y4109D01*
X5663Y4114D01*
X5691D01*
Y4108D01*
X5703D01*
Y4085D01*
X5679D01*
Y3947D01*
X5762D01*
Y4085D01*
X5734D01*
Y4108D01*
X5746D01*
Y4114D01*
X5851D01*
X5852Y4112D01*
X5854Y4107D01*
X5859Y4105D01*
X5864Y4104D01*
X5928D01*
X5928Y4104D01*
X5952D01*
X5954Y4102D01*
Y3888D01*
X5856D01*
Y3632D01*
X6112D01*
Y3888D01*
X6015D01*
Y4114D01*
X6045D01*
Y4108D01*
X6058D01*
Y4085D01*
X6033D01*
Y3947D01*
X6116D01*
Y4085D01*
X6088D01*
Y4108D01*
X6101D01*
Y4114D01*
X6142D01*
Y3524D01*
D02*
G37*
G36*
X4783Y7218D02*
X4782Y7216D01*
X4781Y7205D01*
X4782Y7194D01*
X4783Y7191D01*
Y7106D01*
X4596D01*
Y7303D01*
X4501D01*
Y7287D01*
X4436D01*
Y7303D01*
X4412D01*
Y7287D01*
X4347D01*
Y7303D01*
X4232D01*
Y7539D01*
X4783D01*
Y7218D01*
D02*
G37*
%LPC*%
G36*
X5006Y3051D02*
X4975D01*
Y2992D01*
X5006D01*
Y3051D01*
D02*
G37*
G36*
X5412D02*
X5381D01*
Y2992D01*
X5412D01*
Y3051D01*
D02*
G37*
G36*
X6069Y2972D02*
X6038D01*
Y2913D01*
X6069D01*
Y2972D01*
D02*
G37*
G36*
X5715Y3051D02*
X5683D01*
Y2992D01*
X5715D01*
Y3051D01*
D02*
G37*
G36*
X5766D02*
X5735D01*
Y2992D01*
X5766D01*
Y3051D01*
D02*
G37*
G36*
X5361D02*
X5329D01*
Y2992D01*
X5361D01*
Y3051D01*
D02*
G37*
G36*
X6121Y2972D02*
X6089D01*
Y2913D01*
X6121D01*
Y2972D01*
D02*
G37*
G36*
X5529Y4006D02*
X5498D01*
Y3947D01*
X5529D01*
Y4006D01*
D02*
G37*
G36*
X5227Y4006D02*
X5195D01*
Y3947D01*
X5227D01*
Y4006D01*
D02*
G37*
G36*
X5581Y4006D02*
X5549D01*
Y3947D01*
X5581D01*
Y4006D01*
D02*
G37*
G36*
X5935Y4006D02*
X5904D01*
Y3947D01*
X5935D01*
Y4006D01*
D02*
G37*
G36*
X5884D02*
X5852D01*
Y3947D01*
X5884D01*
Y4006D01*
D02*
G37*
G36*
X5175Y4006D02*
X5144D01*
Y3947D01*
X5175D01*
Y4006D01*
D02*
G37*
G36*
X6069Y3051D02*
X6038D01*
Y2992D01*
X6069D01*
Y3051D01*
D02*
G37*
G36*
X5058D02*
X5026D01*
Y2992D01*
X5058D01*
Y3051D01*
D02*
G37*
G36*
X6121D02*
X6089D01*
Y2992D01*
X6121D01*
Y3051D01*
D02*
G37*
G36*
X4872Y4006D02*
X4841D01*
Y3947D01*
X4872D01*
Y4006D01*
D02*
G37*
G36*
X4821D02*
X4789D01*
Y3947D01*
X4821D01*
Y4006D01*
D02*
G37*
G36*
X5940Y2431D02*
X5908D01*
Y2372D01*
X5940D01*
Y2431D01*
D02*
G37*
G36*
X5888D02*
X5857D01*
Y2372D01*
X5888D01*
Y2431D01*
D02*
G37*
G36*
X4821Y2510D02*
X4789D01*
Y2451D01*
X4821D01*
Y2510D01*
D02*
G37*
G36*
X4872D02*
X4841D01*
Y2451D01*
X4872D01*
Y2510D01*
D02*
G37*
G36*
X5888D02*
X5857D01*
Y2451D01*
X5888D01*
Y2510D01*
D02*
G37*
G36*
X5585Y2431D02*
X5554D01*
Y2372D01*
X5585D01*
Y2431D01*
D02*
G37*
G36*
X4872Y2431D02*
X4841D01*
Y2372D01*
X4872D01*
Y2431D01*
D02*
G37*
G36*
X4821D02*
X4789D01*
Y2372D01*
X4821D01*
Y2431D01*
D02*
G37*
G36*
X5179Y2431D02*
X5148D01*
Y2372D01*
X5179D01*
Y2431D01*
D02*
G37*
G36*
X5534Y2431D02*
X5502D01*
Y2372D01*
X5534D01*
Y2431D01*
D02*
G37*
G36*
X5231Y2431D02*
X5199D01*
Y2372D01*
X5231D01*
Y2431D01*
D02*
G37*
G36*
X5361Y2972D02*
X5329D01*
Y2913D01*
X5361D01*
Y2972D01*
D02*
G37*
G36*
X5058Y2972D02*
X5026D01*
Y2913D01*
X5058D01*
Y2972D01*
D02*
G37*
G36*
X5412Y2972D02*
X5381D01*
Y2913D01*
X5412D01*
Y2972D01*
D02*
G37*
G36*
X5766Y2972D02*
X5735D01*
Y2913D01*
X5766D01*
Y2972D01*
D02*
G37*
G36*
X5715D02*
X5683D01*
Y2913D01*
X5715D01*
Y2972D01*
D02*
G37*
G36*
X5006Y2972D02*
X4975D01*
Y2913D01*
X5006D01*
Y2972D01*
D02*
G37*
G36*
X5179Y2510D02*
X5148D01*
Y2451D01*
X5179D01*
Y2510D01*
D02*
G37*
G36*
X5940D02*
X5908D01*
Y2451D01*
X5940D01*
Y2510D01*
D02*
G37*
G36*
X5231D02*
X5199D01*
Y2451D01*
X5231D01*
Y2510D01*
D02*
G37*
G36*
X5585D02*
X5554D01*
Y2451D01*
X5585D01*
Y2510D01*
D02*
G37*
G36*
X5534D02*
X5502D01*
Y2451D01*
X5534D01*
Y2510D01*
D02*
G37*
G36*
X4821Y4085D02*
X4789D01*
Y4026D01*
X4821D01*
Y4085D01*
D02*
G37*
G36*
X4694Y7439D02*
X4669D01*
Y7372D01*
X4707D01*
Y7426D01*
X4706Y7431D01*
X4703Y7435D01*
X4699Y7438D01*
X4694Y7439D01*
D02*
G37*
G36*
X4649D02*
X4624D01*
X4619Y7438D01*
X4615Y7435D01*
X4612Y7431D01*
X4611Y7426D01*
Y7372D01*
X4649D01*
Y7439D01*
D02*
G37*
G36*
X4714Y7726D02*
X4683D01*
Y7695D01*
X4714D01*
Y7726D01*
D02*
G37*
G36*
Y7778D02*
X4683D01*
Y7746D01*
X4714D01*
Y7778D01*
D02*
G37*
G36*
X4766Y7726D02*
X4734D01*
Y7695D01*
X4766D01*
Y7726D01*
D02*
G37*
G36*
X4707Y7352D02*
X4669D01*
Y7286D01*
X4694D01*
X4699Y7287D01*
X4703Y7289D01*
X4706Y7294D01*
X4707Y7298D01*
Y7352D01*
D02*
G37*
G36*
X4764Y7195D02*
X4733D01*
Y7163D01*
X4764D01*
Y7195D01*
D02*
G37*
G36*
X4713D02*
X4681D01*
Y7163D01*
X4713D01*
Y7195D01*
D02*
G37*
G36*
Y7246D02*
X4681D01*
Y7215D01*
X4713D01*
Y7246D01*
D02*
G37*
G36*
X4649Y7352D02*
X4611D01*
Y7298D01*
X4612Y7294D01*
X4615Y7289D01*
X4619Y7287D01*
X4624Y7286D01*
X4649D01*
Y7352D01*
D02*
G37*
G36*
X4764Y7246D02*
X4733D01*
Y7215D01*
X4764D01*
Y7246D01*
D02*
G37*
G36*
X4324Y8140D02*
X4312D01*
Y8126D01*
X4324D01*
Y8140D01*
D02*
G37*
G36*
X4474D02*
X4462D01*
Y8112D01*
X4456D01*
Y8140D01*
X4444D01*
Y8116D01*
X4424D01*
Y8140D01*
X4412D01*
Y8112D01*
X4406D01*
Y8140D01*
X4394D01*
Y8116D01*
X4374D01*
Y8140D01*
X4362D01*
Y8112D01*
X4356D01*
Y8140D01*
X4344D01*
Y8116D01*
X4334D01*
Y8106D01*
X4312D01*
Y8094D01*
X4289D01*
Y8082D01*
X4314D01*
Y8062D01*
X4289D01*
Y8050D01*
X4319D01*
Y8037D01*
X4500D01*
Y8050D01*
X4530D01*
Y8062D01*
X4505D01*
Y8082D01*
X4530D01*
Y8094D01*
X4506D01*
Y8106D01*
X4484D01*
Y8116D01*
X4474D01*
Y8140D01*
D02*
G37*
G36*
X4506D02*
X4494D01*
Y8126D01*
X4506D01*
Y8140D01*
D02*
G37*
G36*
X4192D02*
X4180D01*
Y8126D01*
X4192D01*
Y8140D01*
D02*
G37*
G36*
X4010D02*
X3998D01*
Y8126D01*
X4010D01*
Y8140D01*
D02*
G37*
G36*
X4160D02*
X4148D01*
Y8112D01*
X4142D01*
Y8140D01*
X4130D01*
Y8116D01*
X4110D01*
Y8140D01*
X4098D01*
Y8112D01*
X4092D01*
Y8140D01*
X4080D01*
Y8116D01*
X4060D01*
Y8140D01*
X4048D01*
Y8112D01*
X4042D01*
Y8140D01*
X4030D01*
Y8116D01*
X4020D01*
Y8106D01*
X3998D01*
Y8094D01*
X3974D01*
Y8082D01*
X3999D01*
Y8062D01*
X3974D01*
Y8050D01*
X4004D01*
Y8037D01*
X4185D01*
Y8050D01*
X4215D01*
Y8062D01*
X4190D01*
Y8082D01*
X4215D01*
Y8094D01*
X4192D01*
Y8106D01*
X4170D01*
Y8116D01*
X4160D01*
Y8140D01*
D02*
G37*
G36*
X4649Y7864D02*
X4611D01*
Y7810D01*
X4612Y7805D01*
X4615Y7801D01*
X4619Y7798D01*
X4624Y7797D01*
X4649D01*
Y7864D01*
D02*
G37*
G36*
X4766Y7778D02*
X4734D01*
Y7746D01*
X4766D01*
Y7778D01*
D02*
G37*
G36*
X4707Y7864D02*
X4669D01*
Y7797D01*
X4694D01*
X4699Y7798D01*
X4703Y7801D01*
X4706Y7805D01*
X4707Y7810D01*
Y7864D01*
D02*
G37*
G36*
X4694Y7951D02*
X4669D01*
Y7884D01*
X4707D01*
Y7938D01*
X4706Y7943D01*
X4703Y7947D01*
X4699Y7950D01*
X4694Y7951D01*
D02*
G37*
G36*
X4649D02*
X4624D01*
X4619Y7950D01*
X4615Y7947D01*
X4612Y7943D01*
X4611Y7938D01*
Y7884D01*
X4649D01*
Y7951D01*
D02*
G37*
G36*
X5053Y4626D02*
X5022D01*
Y4567D01*
X5053D01*
Y4626D01*
D02*
G37*
G36*
X5002Y4547D02*
X4970D01*
Y4488D01*
X5002D01*
Y4547D01*
D02*
G37*
G36*
X5935Y4085D02*
X5904D01*
Y4026D01*
X5935D01*
Y4085D01*
D02*
G37*
G36*
X5053Y4547D02*
X5022D01*
Y4488D01*
X5053D01*
Y4547D01*
D02*
G37*
G36*
X5408Y4547D02*
X5376D01*
Y4488D01*
X5408D01*
Y4547D01*
D02*
G37*
G36*
X5356D02*
X5325D01*
Y4488D01*
X5356D01*
Y4547D01*
D02*
G37*
G36*
X5884Y4085D02*
X5852D01*
Y4026D01*
X5884D01*
Y4085D01*
D02*
G37*
G36*
X5175D02*
X5144D01*
Y4026D01*
X5175D01*
Y4085D01*
D02*
G37*
G36*
X4872D02*
X4841D01*
Y4026D01*
X4872D01*
Y4085D01*
D02*
G37*
G36*
X5227D02*
X5195D01*
Y4026D01*
X5227D01*
Y4085D01*
D02*
G37*
G36*
X5581D02*
X5549D01*
Y4026D01*
X5581D01*
Y4085D01*
D02*
G37*
G36*
X5529D02*
X5498D01*
Y4026D01*
X5529D01*
Y4085D01*
D02*
G37*
G36*
X5762Y4626D02*
X5730D01*
Y4567D01*
X5762D01*
Y4626D01*
D02*
G37*
G36*
X5710D02*
X5679D01*
Y4567D01*
X5710D01*
Y4626D01*
D02*
G37*
G36*
X5356D02*
X5325D01*
Y4567D01*
X5356D01*
Y4626D01*
D02*
G37*
G36*
X5002D02*
X4970D01*
Y4567D01*
X5002D01*
Y4626D01*
D02*
G37*
G36*
X5408D02*
X5376D01*
Y4567D01*
X5408D01*
Y4626D01*
D02*
G37*
G36*
X6116D02*
X6085D01*
Y4567D01*
X6116D01*
Y4626D01*
D02*
G37*
G36*
X5762Y4547D02*
X5730D01*
Y4488D01*
X5762D01*
Y4547D01*
D02*
G37*
G36*
X5710D02*
X5679D01*
Y4488D01*
X5710D01*
Y4547D01*
D02*
G37*
G36*
X6065Y4547D02*
X6033D01*
Y4488D01*
X6065D01*
Y4547D01*
D02*
G37*
G36*
Y4626D02*
X6033D01*
Y4567D01*
X6065D01*
Y4626D01*
D02*
G37*
G36*
X6116Y4547D02*
X6085D01*
Y4488D01*
X6116D01*
Y4547D01*
D02*
G37*
%LPD*%
D10*
X4675Y5075D02*
D03*
Y4866D02*
D03*
Y3185D02*
D03*
Y2976D02*
D03*
Y3507D02*
D03*
Y3717D02*
D03*
Y4022D02*
D03*
Y3813D02*
D03*
Y2238D02*
D03*
Y2447D02*
D03*
Y4561D02*
D03*
Y4770D02*
D03*
X3160Y3033D02*
D03*
Y3243D02*
D03*
X2992D02*
D03*
Y3033D02*
D03*
Y4608D02*
D03*
Y4817D02*
D03*
X3160D02*
D03*
Y4608D02*
D03*
D11*
X4681Y3327D02*
D03*
X4472D02*
D03*
X4672Y2067D02*
D03*
X4462D02*
D03*
X6542Y4331D02*
D03*
X6332D02*
D03*
Y3051D02*
D03*
X6542D02*
D03*
X4659Y7362D02*
D03*
X4869D02*
D03*
Y7874D02*
D03*
X4659D02*
D03*
D12*
X4237Y4016D02*
D03*
X4149D02*
D03*
X4247Y4203D02*
D03*
X4159D02*
D03*
X4256Y2461D02*
D03*
X4169D02*
D03*
X4237Y2579D02*
D03*
X4149D02*
D03*
X4237Y2726D02*
D03*
X4149D02*
D03*
X4040Y2461D02*
D03*
X3952D02*
D03*
X3377D02*
D03*
X3465D02*
D03*
X3381Y2087D02*
D03*
X3469D02*
D03*
X3736D02*
D03*
X3823D02*
D03*
X4040Y2264D02*
D03*
X3952D02*
D03*
X3469Y2185D02*
D03*
X3381D02*
D03*
X4040Y2362D02*
D03*
X3952D02*
D03*
X4040Y2165D02*
D03*
X3952D02*
D03*
X4256Y3780D02*
D03*
X4169D02*
D03*
X4040D02*
D03*
X3952D02*
D03*
X3154Y2520D02*
D03*
X3066D02*
D03*
X4040Y3681D02*
D03*
X3952D02*
D03*
X4040Y3484D02*
D03*
X3952D02*
D03*
X4040Y3583D02*
D03*
X3952D02*
D03*
X3736Y3406D02*
D03*
X3823D02*
D03*
X3377Y3780D02*
D03*
X3465D02*
D03*
X3381Y3406D02*
D03*
X3469D02*
D03*
Y3504D02*
D03*
X3381D02*
D03*
X2638Y2106D02*
D03*
X2725D02*
D03*
X7367Y2638D02*
D03*
X7279D02*
D03*
Y3898D02*
D03*
X7367D02*
D03*
X7583Y6929D02*
D03*
X7496D02*
D03*
X7367Y7146D02*
D03*
X7279D02*
D03*
X4595Y6929D02*
D03*
X4508D02*
D03*
X4563Y6102D02*
D03*
X4650D02*
D03*
X3154Y2618D02*
D03*
X3066D02*
D03*
Y4094D02*
D03*
X3154D02*
D03*
X2318Y4606D02*
D03*
X2406D02*
D03*
X6540Y6663D02*
D03*
X6452D02*
D03*
Y6762D02*
D03*
X6540D02*
D03*
X3351Y6752D02*
D03*
X3263D02*
D03*
X2721Y3681D02*
D03*
X2633D02*
D03*
X2067Y3583D02*
D03*
X2154D02*
D03*
X2382Y2126D02*
D03*
X2469D02*
D03*
X2161Y2303D02*
D03*
X2249D02*
D03*
X3066Y3996D02*
D03*
X3154D02*
D03*
X2406Y3031D02*
D03*
X2318D02*
D03*
D13*
X4675Y2859D02*
D03*
Y2771D02*
D03*
Y4227D02*
D03*
Y4139D02*
D03*
Y4356D02*
D03*
Y4443D02*
D03*
X6737Y6019D02*
D03*
Y6107D02*
D03*
X6614Y6019D02*
D03*
Y6107D02*
D03*
X6737Y6255D02*
D03*
Y6343D02*
D03*
X6614D02*
D03*
Y6255D02*
D03*
X7106Y7327D02*
D03*
Y7240D02*
D03*
X6988D02*
D03*
Y7327D02*
D03*
Y7091D02*
D03*
Y7003D02*
D03*
X6870D02*
D03*
Y7091D02*
D03*
X6935Y7791D02*
D03*
Y7878D02*
D03*
Y8115D02*
D03*
Y8027D02*
D03*
X6817D02*
D03*
Y8115D02*
D03*
X3640Y6122D02*
D03*
Y6210D02*
D03*
Y5989D02*
D03*
Y5901D02*
D03*
X3642Y5316D02*
D03*
Y5404D02*
D03*
X4675Y2555D02*
D03*
Y2642D02*
D03*
X4291Y7614D02*
D03*
Y7701D02*
D03*
X1969Y3902D02*
D03*
Y3814D02*
D03*
D14*
X4053Y4071D02*
D03*
Y4020D02*
D03*
X3978D02*
D03*
Y4045D02*
D03*
Y4071D02*
D03*
X4053Y2624D02*
D03*
Y2573D02*
D03*
X3978D02*
D03*
Y2598D02*
D03*
Y2624D02*
D03*
X7360Y7022D02*
D03*
Y7047D02*
D03*
Y7073D02*
D03*
X7285D02*
D03*
Y7022D02*
D03*
X4052Y2774D02*
D03*
Y2723D02*
D03*
X3978D02*
D03*
Y2748D02*
D03*
Y2774D02*
D03*
X3117Y2880D02*
D03*
Y2854D02*
D03*
Y2829D02*
D03*
X3191D02*
D03*
Y2880D02*
D03*
X3973Y4250D02*
D03*
Y4225D02*
D03*
Y4199D02*
D03*
X4048D02*
D03*
Y4250D02*
D03*
X3187Y4356D02*
D03*
Y4305D02*
D03*
X3112D02*
D03*
Y4331D02*
D03*
Y4356D02*
D03*
D15*
X3837Y2358D02*
D03*
Y2308D02*
D03*
Y2258D02*
D03*
Y2208D02*
D03*
X3643D02*
D03*
Y2258D02*
D03*
Y2308D02*
D03*
Y2358D02*
D03*
X3837Y3677D02*
D03*
Y3627D02*
D03*
Y3577D02*
D03*
Y3527D02*
D03*
X3643D02*
D03*
Y3577D02*
D03*
Y3627D02*
D03*
Y3677D02*
D03*
D16*
X3492Y2362D02*
D03*
X3358D02*
D03*
X3492Y2283D02*
D03*
X3358D02*
D03*
X3492Y3602D02*
D03*
X3358D02*
D03*
X3492Y3681D02*
D03*
X3358D02*
D03*
X7409Y7264D02*
D03*
X7276D02*
D03*
Y7343D02*
D03*
X7409D02*
D03*
X7213Y2933D02*
D03*
X7079D02*
D03*
X7213Y4193D02*
D03*
X7079D02*
D03*
X3433Y7037D02*
D03*
X3299D02*
D03*
D17*
X3602Y2067D02*
D03*
X3602Y2146D02*
D03*
X3839Y2500D02*
D03*
X3838Y2421D02*
D03*
X3839Y3819D02*
D03*
X3838Y3740D02*
D03*
X3602Y3386D02*
D03*
X3602Y3465D02*
D03*
X6668Y4572D02*
D03*
X6668Y4493D02*
D03*
X6501Y6181D02*
D03*
X6501Y6102D02*
D03*
X6762Y7087D02*
D03*
X6762Y7008D02*
D03*
X6698Y8111D02*
D03*
X6697Y8031D02*
D03*
X4390Y7008D02*
D03*
X4390Y6929D02*
D03*
X4075Y7618D02*
D03*
X4075Y7697D02*
D03*
X4252Y5926D02*
D03*
X4252Y6006D02*
D03*
X3504Y5985D02*
D03*
X3504Y5905D02*
D03*
X3898Y5886D02*
D03*
X3898Y5807D02*
D03*
X3642Y6388D02*
D03*
X3642Y6308D02*
D03*
X6201Y4646D02*
D03*
X6201Y4567D02*
D03*
X6201Y3287D02*
D03*
X6201Y3366D02*
D03*
X6668Y3213D02*
D03*
X6668Y3293D02*
D03*
X7283Y6870D02*
D03*
X7284Y6949D02*
D03*
D18*
X3267Y2885D02*
D03*
X3347Y2885D02*
D03*
X4217Y4321D02*
D03*
X4138Y4321D02*
D03*
X7204Y6100D02*
D03*
X7284Y6100D02*
D03*
X7480Y7047D02*
D03*
X7559Y7047D02*
D03*
X4104Y2874D02*
D03*
X4183Y2874D02*
D03*
X3902Y2774D02*
D03*
X3823Y2774D02*
D03*
X3745Y2775D02*
D03*
X3666Y2776D02*
D03*
X3745Y2671D02*
D03*
X3666Y2671D02*
D03*
X3194Y2748D02*
D03*
X3114Y2748D02*
D03*
X3036Y2854D02*
D03*
X2957Y2854D02*
D03*
X3819Y4250D02*
D03*
X3898Y4250D02*
D03*
X3661Y4252D02*
D03*
X3740Y4252D02*
D03*
X3268Y4449D02*
D03*
X3189Y4449D02*
D03*
X2952Y4331D02*
D03*
X3032Y4331D02*
D03*
X3110Y4225D02*
D03*
X3189Y4224D02*
D03*
X3661Y4148D02*
D03*
X3740Y4148D02*
D03*
D19*
X2677Y2283D02*
D03*
X2640Y2191D02*
D03*
X4833Y4436D02*
D03*
X4795Y4344D02*
D03*
X5010Y4137D02*
D03*
X5047Y4229D02*
D03*
X5187Y4436D02*
D03*
X5150Y4344D02*
D03*
X5364Y4137D02*
D03*
X5402Y4229D02*
D03*
X5541Y4436D02*
D03*
X5504Y4344D02*
D03*
X5719Y4137D02*
D03*
X5756Y4229D02*
D03*
X5896Y4436D02*
D03*
X5858Y4344D02*
D03*
X6073Y4137D02*
D03*
X6110Y4229D02*
D03*
X4833Y2861D02*
D03*
X4795Y2769D02*
D03*
X5010Y2562D02*
D03*
X5047Y2655D02*
D03*
X5728Y2562D02*
D03*
X5766Y2655D02*
D03*
X5541Y2861D02*
D03*
X5504Y2769D02*
D03*
X5896Y2861D02*
D03*
X5858Y2769D02*
D03*
X5374Y2562D02*
D03*
X5411Y2655D02*
D03*
X5187Y2861D02*
D03*
X5150Y2769D02*
D03*
X6083Y2562D02*
D03*
X6120Y2655D02*
D03*
X7323Y2842D02*
D03*
X7285Y2749D02*
D03*
X7323Y4101D02*
D03*
X7285Y4009D02*
D03*
X6851Y5973D02*
D03*
X6888Y6065D02*
D03*
X3307Y6936D02*
D03*
X3270Y6844D02*
D03*
X2677Y3858D02*
D03*
X2640Y3766D02*
D03*
X2106Y3767D02*
D03*
X2069Y3674D02*
D03*
X2421Y2310D02*
D03*
X2384Y2218D02*
D03*
D20*
X2715Y2191D02*
D03*
X4870Y4344D02*
D03*
X4972Y4229D02*
D03*
X5224Y4344D02*
D03*
X5327Y4229D02*
D03*
X5579Y4344D02*
D03*
X5681Y4229D02*
D03*
X5933Y4344D02*
D03*
X6035Y4229D02*
D03*
X4870Y2769D02*
D03*
X4972Y2655D02*
D03*
X5691D02*
D03*
X5579Y2769D02*
D03*
X5933D02*
D03*
X5337Y2655D02*
D03*
X5224Y2769D02*
D03*
X6045Y2655D02*
D03*
X7360Y2749D02*
D03*
Y4009D02*
D03*
X6926Y5973D02*
D03*
X3344Y6844D02*
D03*
X2715Y3766D02*
D03*
X2144Y3674D02*
D03*
X2459Y2218D02*
D03*
D21*
X7052Y7882D02*
D03*
Y7748D02*
D03*
X7053Y8004D02*
D03*
Y8138D02*
D03*
X3819Y6388D02*
D03*
Y6254D02*
D03*
X2451Y4238D02*
D03*
Y4104D02*
D03*
Y2663D02*
D03*
Y2530D02*
D03*
D22*
X6075Y4557D02*
D03*
X5894D02*
D03*
X5720D02*
D03*
X5539D02*
D03*
X5366D02*
D03*
X5185D02*
D03*
X5012D02*
D03*
X4831D02*
D03*
X5894Y4016D02*
D03*
X6075D02*
D03*
X5539D02*
D03*
X5720D02*
D03*
X5185D02*
D03*
X5366D02*
D03*
X5016Y2982D02*
D03*
X4835D02*
D03*
X5371D02*
D03*
X5189D02*
D03*
X5725D02*
D03*
X5544D02*
D03*
X6079D02*
D03*
X5898D02*
D03*
X4831Y4016D02*
D03*
X5012D02*
D03*
X5898Y2441D02*
D03*
X6079D02*
D03*
X5544D02*
D03*
X5725D02*
D03*
X5189D02*
D03*
X5371D02*
D03*
X4831D02*
D03*
X5012D02*
D03*
D23*
X5984Y4813D02*
D03*
X5630D02*
D03*
X5276D02*
D03*
X4921D02*
D03*
X5984Y3760D02*
D03*
X5630D02*
D03*
X5276D02*
D03*
X4926Y3238D02*
D03*
X5280D02*
D03*
X5634D02*
D03*
X5989D02*
D03*
X4921Y3760D02*
D03*
X5989Y2185D02*
D03*
X5634D02*
D03*
X5280D02*
D03*
X4921D02*
D03*
D24*
X5010Y4322D02*
D03*
X5187Y4135D02*
D03*
X5364Y4322D02*
D03*
X5720D02*
D03*
X5541Y4135D02*
D03*
X5896D02*
D03*
X6075Y4322D02*
D03*
X5541Y2560D02*
D03*
X5728Y2747D02*
D03*
X5010D02*
D03*
X4823Y2560D02*
D03*
X5364Y2747D02*
D03*
X5177Y2560D02*
D03*
X6083Y2747D02*
D03*
X4833Y4135D02*
D03*
X5896Y2560D02*
D03*
D25*
X5010Y4441D02*
D03*
X5187Y4254D02*
D03*
X5364Y4441D02*
D03*
X5720D02*
D03*
X5541Y4254D02*
D03*
X5896D02*
D03*
X6075Y4441D02*
D03*
X5541Y2679D02*
D03*
X5728Y2866D02*
D03*
X5010D02*
D03*
X4823Y2679D02*
D03*
X5364Y2866D02*
D03*
X5177Y2679D02*
D03*
X6083Y2866D02*
D03*
X4833Y4254D02*
D03*
X5896Y2679D02*
D03*
D26*
X8504Y5767D02*
D03*
Y5966D02*
D03*
X8189Y5767D02*
D03*
Y5966D02*
D03*
X7874Y5767D02*
D03*
Y5966D02*
D03*
D27*
X4291Y6917D02*
D03*
Y7008D02*
D03*
X4173Y7703D02*
D03*
Y7612D02*
D03*
D28*
X4469Y7362D02*
D03*
X4380D02*
D03*
D29*
X4499Y7230D02*
D03*
X4449D02*
D03*
X4399D02*
D03*
X4349D02*
D03*
D30*
X3896Y6018D02*
D03*
X3858D02*
D03*
X3821D02*
D03*
Y6108D02*
D03*
X3858D02*
D03*
X3896D02*
D03*
D31*
X6339Y7396D02*
D03*
Y7014D02*
D03*
X5787Y7014D02*
D03*
Y7396D02*
D03*
X5239D02*
D03*
Y7014D02*
D03*
X6339Y7722D02*
D03*
Y8104D02*
D03*
X5787Y8104D02*
D03*
Y7722D02*
D03*
X5236D02*
D03*
Y8104D02*
D03*
D32*
X7101Y6100D02*
D03*
Y6026D02*
D03*
X7002D02*
D03*
Y6063D02*
D03*
Y6100D02*
D03*
D33*
X4020Y7900D02*
D03*
X4070D02*
D03*
X4120D02*
D03*
X4170D02*
D03*
X4484D02*
D03*
X4434D02*
D03*
X4384D02*
D03*
X4334D02*
D03*
D34*
X4170Y8116D02*
D03*
X4120D02*
D03*
X4070D02*
D03*
X4020D02*
D03*
X4334D02*
D03*
X4384D02*
D03*
X4434D02*
D03*
X4484D02*
D03*
D35*
X4095Y8027D02*
D03*
X4409D02*
D03*
D36*
X4190Y8072D02*
D03*
X3999D02*
D03*
X3999Y7977D02*
D03*
X4190Y7977D02*
D03*
X4505D02*
D03*
X4314Y7977D02*
D03*
X4314Y8072D02*
D03*
X4505D02*
D03*
D37*
X4011Y8096D02*
D03*
X4178D02*
D03*
X4493D02*
D03*
X4326D02*
D03*
D38*
X6909Y3583D02*
D03*
X7323D02*
D03*
X3720Y3150D02*
D03*
X3622Y4498D02*
D03*
X8681Y6161D02*
D03*
X2461Y3760D02*
D03*
X8681Y5600D02*
D03*
X4252Y5413D02*
D03*
D39*
X3799Y5738D02*
D03*
X3642D02*
D03*
D40*
X3746Y5551D02*
D03*
X3642D02*
D03*
D41*
X6331Y4622D02*
D03*
Y4522D02*
D03*
Y4472D02*
D03*
Y4572D02*
D03*
X6543Y4622D02*
D03*
Y4572D02*
D03*
Y4472D02*
D03*
Y4522D02*
D03*
X6331Y3343D02*
D03*
Y3243D02*
D03*
Y3193D02*
D03*
Y3293D02*
D03*
X6543Y3343D02*
D03*
Y3293D02*
D03*
Y3193D02*
D03*
Y3243D02*
D03*
D42*
X2329Y2492D02*
D03*
Y2392D02*
D03*
X2081D02*
D03*
Y2492D02*
D03*
Y4007D02*
D03*
Y3907D02*
D03*
X2329D02*
D03*
Y4007D02*
D03*
D43*
X3543Y2774D02*
D03*
Y2748D02*
D03*
Y2722D02*
D03*
Y2697D02*
D03*
Y2671D02*
D03*
Y2646D02*
D03*
Y2620D02*
D03*
X3317D02*
D03*
Y2646D02*
D03*
Y2671D02*
D03*
Y2697D02*
D03*
Y2722D02*
D03*
Y2748D02*
D03*
Y2774D02*
D03*
X3538Y4250D02*
D03*
Y4224D02*
D03*
Y4199D02*
D03*
Y4173D02*
D03*
Y4148D02*
D03*
Y4122D02*
D03*
Y4096D02*
D03*
X3312D02*
D03*
Y4122D02*
D03*
Y4148D02*
D03*
Y4173D02*
D03*
Y4199D02*
D03*
Y4224D02*
D03*
Y4250D02*
D03*
D44*
X4439Y4689D02*
D03*
X4449Y2976D02*
D03*
Y2455D02*
D03*
X4439Y4266D02*
D03*
D45*
X4530Y4445D02*
D03*
X4348D02*
D03*
X4539Y2732D02*
D03*
X4358D02*
D03*
X4539Y2211D02*
D03*
X4358D02*
D03*
X4530Y4022D02*
D03*
X4348D02*
D03*
D46*
X4439Y4445D02*
D03*
X4449Y2732D02*
D03*
Y2211D02*
D03*
X4439Y4022D02*
D03*
D47*
X4675Y5000D02*
Y5075D01*
X3886Y6230D02*
X3917D01*
X3858Y6108D02*
Y6203D01*
X3886Y6230D01*
X3947Y5856D02*
Y6201D01*
X3917Y6230D02*
X3947Y6201D01*
X4380Y3258D02*
X4449Y3189D01*
Y2976D02*
Y3189D01*
X4439Y4689D02*
X4439Y4689D01*
X4380Y3258D02*
Y3543D01*
X4675Y3507D02*
Y3583D01*
X4601Y2830D02*
X4630Y2859D01*
X4601Y2751D02*
Y2830D01*
X4583Y2732D02*
X4601Y2751D01*
X4592Y2282D02*
X4675Y2366D01*
X4592Y2230D02*
Y2282D01*
X4573Y2211D02*
X4592Y2230D01*
X4472Y3327D02*
X4547D01*
X4672Y2067D02*
Y2234D01*
X4675Y2366D02*
Y2447D01*
X4539Y2211D02*
X4573D01*
X4675Y2447D02*
Y2555D01*
Y3185D02*
Y3320D01*
Y2859D02*
Y2976D01*
X4630Y2859D02*
X4675D01*
X4539Y2732D02*
X4583D01*
X4675Y4022D02*
Y4139D01*
Y3717D02*
Y3813D01*
Y4770D02*
Y4866D01*
Y4443D02*
Y4561D01*
X4530Y4445D02*
X4674D01*
X4530Y4022D02*
X4675D01*
X7213Y2933D02*
X7315D01*
X7213Y4193D02*
X7315D01*
X3896Y5889D02*
Y6018D01*
X3898Y5807D02*
X3947Y5856D01*
X3898Y5768D02*
Y5807D01*
X3746Y5551D02*
X3809D01*
X2864Y3243D02*
X2992D01*
X3160D01*
X2859Y4817D02*
X2992D01*
X3160D01*
X3642Y6388D02*
Y6447D01*
X2992Y3033D02*
X3160D01*
X2863Y3031D02*
X2991D01*
X2992Y4608D02*
X3160D01*
X2859Y4606D02*
X2991D01*
X3642Y5316D02*
X3700D01*
X3712Y5304D01*
X3780D01*
X3642Y5404D02*
X3780D01*
X3642D02*
Y5571D01*
X3868Y5738D02*
X3898Y5768D01*
X3799Y5738D02*
X3868D01*
X3642Y5571D02*
Y5738D01*
X9813Y3402D02*
X9880D01*
X9846D01*
Y3302D01*
X9963Y3402D02*
X9930D01*
X9913Y3385D01*
Y3319D01*
X9930Y3302D01*
X9963D01*
X9980Y3319D01*
Y3385D01*
X9963Y3402D01*
X10013Y3302D02*
Y3402D01*
X10063D01*
X10080Y3385D01*
Y3352D01*
X10063Y3335D01*
X10013D01*
D48*
X5242Y4296D02*
X5316Y4370D01*
X5197Y4296D02*
X5242D01*
X5316Y4370D02*
X5477D01*
X5591Y4291D02*
X5669Y4370D01*
X5556Y4291D02*
X5591D01*
X5669Y4370D02*
X5832D01*
X3573Y4350D02*
X3839D01*
X3622Y4400D02*
Y4498D01*
X3573Y4350D02*
X3622Y4400D01*
X3504Y4350D02*
X3573D01*
X3896Y6108D02*
Y6191D01*
X3986Y6206D02*
X4399D01*
X4084Y2677D02*
X4606D01*
X4462Y2067D02*
X4537D01*
X4053Y4071D02*
Y4112D01*
X4055Y4114D01*
X4075Y4380D02*
X4128D01*
X4138Y4370D01*
Y4321D02*
Y4370D01*
X4104Y2874D02*
Y2943D01*
X4005Y2695D02*
X4041D01*
X3978Y2723D02*
X4005Y2695D01*
X3978Y2723D02*
X3978D01*
X4053Y2624D02*
Y2665D01*
X4066Y2695D02*
X4084Y2677D01*
X4041Y2695D02*
X4066D01*
X4606Y2677D02*
X4623Y2694D01*
X4217Y4321D02*
X4272D01*
X4289Y4221D02*
X4319Y4251D01*
X4247Y4203D02*
X4302Y4258D01*
Y4333D01*
X4319Y4251D02*
Y4338D01*
X4341Y4360D01*
X4301Y4334D02*
Y4398D01*
Y4334D02*
X4302Y4333D01*
X4183Y2874D02*
X4242D01*
X4688Y4344D02*
X4795D01*
X4052Y2774D02*
Y2823D01*
X4104Y2874D01*
X4048Y4250D02*
Y4294D01*
X4075Y4321D01*
X4138D01*
X4289Y4170D02*
Y4221D01*
X4272Y4154D02*
X4289Y4170D01*
X4018Y4154D02*
X4272D01*
X3973Y4199D02*
X4018Y4154D01*
X4341Y4360D02*
X4587D01*
X4780Y4135D02*
X4833D01*
X4764Y4119D02*
X4780Y4135D01*
X4764Y3967D02*
Y4119D01*
X4744Y3947D02*
X4764Y3967D01*
X4018Y3947D02*
X4744D01*
X3898Y4183D02*
Y4250D01*
Y4183D02*
X3937Y4144D01*
X3996D01*
X4016Y4124D01*
Y4060D02*
Y4124D01*
X4007Y4051D02*
X4016Y4060D01*
X3984Y4051D02*
X4007D01*
X3978Y4045D02*
X3984Y4051D01*
X3902Y2702D02*
Y2774D01*
Y2702D02*
X3927Y2677D01*
X3986D01*
X4016Y2648D01*
Y2613D02*
Y2648D01*
X4007Y2604D02*
X4016Y2613D01*
X3984Y2604D02*
X4007D01*
X3978Y2598D02*
X3984Y2604D01*
X3867Y2659D02*
X3902Y2624D01*
X3978D01*
X3867Y2659D02*
Y2892D01*
X3888Y2913D01*
X3976D01*
X3666Y2776D02*
X3709Y2732D01*
Y2472D02*
Y2732D01*
X4360Y2116D02*
Y2209D01*
X4237Y2579D02*
X4360D01*
X3978Y2573D02*
X4031Y2520D01*
X4571D01*
X3839Y2500D02*
Y2559D01*
X4571Y2520D02*
X4638Y2587D01*
Y2590D01*
X4645Y2597D01*
X4787D01*
X4823Y2560D01*
X4053Y2573D02*
X4143D01*
X4623Y2694D02*
Y2793D01*
X4646Y2815D01*
X4823D01*
X4869Y2769D01*
X4870D01*
X4678Y2769D02*
X4795D01*
X4675Y2642D02*
X4689Y2628D01*
X4880D01*
X4237Y2726D02*
X4352D01*
X4052Y2723D02*
X4145D01*
X4237Y4016D02*
X4343D01*
X4301Y4398D02*
X4348Y4445D01*
X3978Y3986D02*
Y4020D01*
Y3986D02*
X4018Y3947D01*
X4587Y4360D02*
X4626Y4400D01*
X4814D01*
X4870Y4344D01*
X4675Y4227D02*
X4695Y4207D01*
X4886D01*
X4674Y4445D02*
X4675Y4443D01*
X4053Y4020D02*
X4145D01*
X4048Y4199D02*
X4155D01*
X3839Y4350D02*
X3951D01*
X3839D02*
X3858Y4331D01*
Y4104D02*
Y4331D01*
Y4104D02*
X3892Y4071D01*
X3978D01*
X5938Y4193D02*
X6016Y4272D01*
X5792Y4193D02*
X5938D01*
X6016Y4272D02*
X6068D01*
X6033Y2697D02*
X6078D01*
X5965Y2628D02*
X6033Y2697D01*
X5792Y2628D02*
X5965D01*
X5664Y2795D02*
X5832D01*
X5605Y2736D02*
X5664Y2795D01*
X5536Y2736D02*
X5605D01*
X3347Y2885D02*
X3416D01*
X3267Y2885D02*
Y2952D01*
X3191Y2880D02*
X3262D01*
X3838Y2421D02*
X3838Y2421D01*
X3760Y2421D02*
X3838D01*
X3709Y2472D02*
X3760Y2421D01*
X3837Y2358D02*
Y2420D01*
X3602Y2146D02*
X3643Y2186D01*
Y2208D01*
X3563Y2185D02*
X3602Y2146D01*
X3740Y3740D02*
X3838D01*
X3701Y3780D02*
X3740Y3740D01*
X3701Y3780D02*
Y4212D01*
X3661Y4252D02*
X3701Y4212D01*
X3837Y3677D02*
Y3739D01*
X3724Y3527D02*
X3740Y3543D01*
X3643Y3527D02*
X3724D01*
X3602Y3487D02*
X3643Y3527D01*
X3602Y3465D02*
Y3487D01*
X3720Y3150D02*
Y3248D01*
X4256Y3705D02*
Y3780D01*
X3839Y3819D02*
Y3878D01*
X3307Y3849D02*
X3377Y3780D01*
X3736Y3406D02*
Y3480D01*
X3716Y3386D02*
X3736Y3406D01*
X3602Y3386D02*
X3716D01*
X3736Y2087D02*
Y2161D01*
X4256Y2386D02*
Y2461D01*
X3377D02*
Y2550D01*
X3716Y2067D02*
X3736Y2087D01*
X3602Y2067D02*
X3716D01*
X4180Y3791D02*
Y3898D01*
X2817Y4048D02*
X2859Y4006D01*
X2817Y4048D02*
Y4352D01*
X2933Y3406D02*
X3381D01*
X2712Y3602D02*
X2972D01*
X2933Y2128D02*
X2974Y2087D01*
X2863Y2431D02*
X2933Y2362D01*
Y2128D02*
Y2362D01*
X2974Y2087D02*
X3381D01*
X3666Y2543D02*
Y2671D01*
X3492Y2362D02*
X3639D01*
X3465Y2461D02*
X3663D01*
X3701Y2423D01*
Y2323D02*
Y2423D01*
X3643Y2308D02*
X3686D01*
X3701Y2323D01*
X3568Y2258D02*
X3643D01*
X3492Y2283D02*
X3543D01*
X3568Y2258D01*
X3492Y2244D02*
Y2283D01*
X3469Y2221D02*
X3492Y2244D01*
X3469Y2185D02*
Y2221D01*
Y2087D02*
Y2185D01*
X3837Y2164D02*
Y2208D01*
X3823Y2150D02*
X3837Y2164D01*
X3823Y2087D02*
Y2150D01*
X3837Y2308D02*
X3899D01*
X3952Y2362D01*
Y2461D01*
X3314Y2253D02*
X3381Y2185D01*
X3314Y2253D02*
Y2318D01*
X3358Y2362D01*
Y2283D02*
X3413D01*
X3492Y2362D01*
X3952Y2264D02*
X4040Y2351D01*
X3837Y2258D02*
X3947D01*
X3952Y2165D02*
Y2264D01*
X4040Y2130D02*
Y2165D01*
X4040Y2461D02*
X4169D01*
X3996Y2220D02*
X4040Y2264D01*
X3996Y2111D02*
Y2220D01*
X3923Y2014D02*
X4040Y2130D01*
X3916Y2031D02*
X3996Y2111D01*
X3381Y2078D02*
Y2087D01*
Y2078D02*
X3446Y2014D01*
X3923D01*
X3453Y2031D02*
X3916D01*
X3427Y2057D02*
X3453Y2031D01*
X3427Y2057D02*
Y2139D01*
X3381Y2185D02*
X3427Y2139D01*
X3117Y2880D02*
Y2917D01*
X3060Y2973D02*
X3117Y2917D01*
X2836Y2973D02*
X3060D01*
X2815Y2953D02*
X2836Y2973D01*
X2815Y2480D02*
Y2953D01*
X3666Y2776D02*
Y2839D01*
X3381Y3504D02*
X3427Y3458D01*
Y3376D02*
Y3458D01*
Y3376D02*
X3453Y3350D01*
X3916D01*
X3446Y3333D02*
X3923D01*
X3381Y3397D02*
X3446Y3333D01*
X3381Y3397D02*
Y3406D01*
X3916Y3350D02*
X3996Y3430D01*
X3923Y3333D02*
X4040Y3449D01*
X3996Y3430D02*
Y3539D01*
X4040Y3583D01*
X4040Y3780D02*
X4169D01*
X4040Y3449D02*
Y3484D01*
X3952D02*
Y3583D01*
X3837Y3577D02*
X3947D01*
X3952Y3583D02*
X4040Y3670D01*
X3413Y3602D02*
X3492Y3681D01*
X3358Y3602D02*
X3413D01*
X3314Y3636D02*
X3358Y3681D01*
X3314Y3572D02*
Y3636D01*
Y3572D02*
X3381Y3504D01*
X3952Y3681D02*
Y3780D01*
X3899Y3627D02*
X3952Y3681D01*
X3837Y3627D02*
X3899D01*
X3823Y3406D02*
Y3469D01*
X3837Y3483D01*
Y3527D01*
X3469Y3406D02*
Y3504D01*
Y3540D01*
X3492Y3563D01*
Y3602D01*
X3543D02*
X3568Y3577D01*
X3492Y3602D02*
X3543D01*
X3568Y3577D02*
X3643D01*
X3686Y3627D02*
X3701Y3642D01*
X3643Y3627D02*
X3686D01*
X3701Y3642D02*
Y3742D01*
X3663Y3780D02*
X3701Y3742D01*
X3465Y3780D02*
X3663D01*
X3492Y3681D02*
X3639D01*
X2130Y3524D02*
X3051D01*
X3110Y3583D01*
X3445Y4035D02*
Y4189D01*
X3110Y3583D02*
Y3847D01*
X3161Y3898D01*
X3307D01*
X3445Y4035D01*
X3254Y2671D02*
X3317D01*
X3201Y2618D02*
X3254Y2671D01*
X3154Y2618D02*
X3201D01*
X3248D02*
Y2638D01*
X3256Y2646D01*
X3317D01*
X3256Y4122D02*
X3312D01*
X3220Y4139D02*
X3233Y4152D01*
X3308D01*
X3312Y4148D01*
X1973Y3907D02*
X2081D01*
X2059Y3814D02*
X2106Y3767D01*
X1969Y3814D02*
X2059D01*
X2255Y2310D02*
X2421D01*
X2382Y2008D02*
Y2126D01*
X2459Y2218D02*
X2513D01*
X2459Y2137D02*
Y2218D01*
X2384Y2128D02*
Y2218D01*
X3317Y2748D02*
X3374D01*
X2069Y3585D02*
X2130Y3524D01*
X2154Y3583D02*
X2244D01*
X2144Y3593D02*
X2154Y3583D01*
X2144Y3593D02*
Y3674D01*
X2069Y3585D02*
Y3674D01*
X3433Y4200D02*
X3445Y4189D01*
X3433Y4200D02*
Y4368D01*
X3475Y4410D01*
X3494Y4126D02*
Y4173D01*
Y4126D02*
X3498Y4122D01*
X3450Y4207D02*
X3465Y4193D01*
Y4126D02*
Y4193D01*
Y4126D02*
X3494Y4096D01*
X3467Y4227D02*
X3495Y4199D01*
X3467Y4227D02*
Y4314D01*
X3450Y4207D02*
Y4361D01*
X6909Y3583D02*
Y3681D01*
X7598Y3760D02*
X7700Y3861D01*
X7417Y3760D02*
X7598D01*
X7279Y3898D02*
X7417Y3760D01*
X7618Y3740D02*
X7717Y3839D01*
X7402Y3740D02*
X7618D01*
X7343Y3799D02*
X7402Y3740D01*
X7165Y2776D02*
X7192Y2749D01*
X7285D01*
X7165Y2776D02*
Y3780D01*
X7185Y3799D01*
X7343D01*
X7717Y3839D02*
Y4178D01*
X7620Y4250D02*
X7700Y4171D01*
Y3861D02*
Y4171D01*
X7231Y2842D02*
X7323D01*
X6850Y2941D02*
X6858Y2933D01*
X7079D01*
X7389Y2842D02*
X7520Y2972D01*
X7323Y2842D02*
X7389D01*
X6858Y4193D02*
X7079D01*
X7244Y4101D02*
X7323D01*
X7409Y7343D02*
X7475D01*
X3976Y2775D02*
Y2913D01*
X3543Y2722D02*
X3616D01*
X3191Y2829D02*
X3402D01*
X3117D02*
X3191D01*
X2815Y2480D02*
X2863Y2431D01*
X3971Y4253D02*
X3973Y4250D01*
X3971Y4253D02*
Y4331D01*
X3951Y4350D02*
X3971Y4331D01*
X3467Y4314D02*
X3504Y4350D01*
X3450Y4361D02*
X3492Y4403D01*
X3484Y4246D02*
X3506Y4224D01*
X3484Y4246D02*
Y4266D01*
X3524Y4305D01*
X3495Y4199D02*
X3538D01*
X3112Y4305D02*
X3187D01*
X3079Y4390D02*
X3112Y4356D01*
X2854Y4390D02*
X3079D01*
X2817Y4352D02*
X2854Y4390D01*
X7111Y7323D02*
X7185D01*
X7343Y7205D02*
X7367Y7181D01*
Y7146D02*
Y7181D01*
X7283Y6811D02*
Y6870D01*
X7284Y6949D02*
Y7020D01*
X6988Y7240D02*
X7106D01*
X7276Y7343D02*
X7315Y7382D01*
X7598D01*
X7640Y7340D01*
Y6838D02*
Y7340D01*
X7476Y6673D02*
X7640Y6838D01*
X7106Y6673D02*
X7476D01*
X7553Y7880D02*
X7657Y7776D01*
Y6831D02*
Y7776D01*
X7480Y6654D02*
X7657Y6831D01*
X7520Y8138D02*
X7677Y7980D01*
X7485Y6634D02*
X7677Y6826D01*
X7367Y7079D02*
Y7146D01*
X7285Y7073D02*
Y7139D01*
X7279Y7146D02*
X7285Y7139D01*
X7276Y7149D02*
X7279Y7146D01*
X7276Y7149D02*
Y7264D01*
Y7343D01*
X4035Y5206D02*
X4399D01*
X4094Y6870D02*
X6909D01*
X7106Y6673D01*
X7559Y7047D02*
X7583Y7023D01*
Y6929D02*
Y7023D01*
X7559Y7047D02*
Y7126D01*
X7480Y7047D02*
Y7126D01*
X7403Y7022D02*
X7496Y6929D01*
X7360Y7022D02*
X7403D01*
X6540Y6762D02*
X6959D01*
X7102Y6654D02*
X7480D01*
X6902Y6853D02*
X7102Y6654D01*
X7087Y6634D02*
X7485D01*
X6959Y6762D02*
X7087Y6634D01*
X7009Y7791D02*
X7052Y7748D01*
X6935Y7791D02*
X7009D01*
X6888Y6065D02*
Y6122D01*
X3051Y4225D02*
X3110D01*
X2894Y4331D02*
X2952D01*
X2894Y4281D02*
X2983D01*
X3032Y4331D01*
X3858Y5955D02*
Y6018D01*
X3066Y2618D02*
X3135Y2687D01*
X3194D01*
Y2748D01*
X3031Y2736D02*
X3066D01*
X3078Y2748D01*
X3066Y4094D02*
X3141Y4169D01*
X3207D01*
X3199Y4139D02*
X3220D01*
X3154Y4094D02*
X3199Y4139D01*
X3189Y4187D02*
X3207Y4169D01*
X3740Y4148D02*
X3793D01*
X3268Y4449D02*
X3327D01*
X3268Y4449D02*
X3268Y4449D01*
X3130D02*
X3189D01*
X3189Y4449D01*
X6762Y7087D02*
Y7146D01*
Y7087D02*
X6762Y7087D01*
X3631Y6201D02*
X3640Y6210D01*
X3563Y6201D02*
X3631D01*
X3661Y4252D02*
Y4317D01*
X3898Y4252D02*
X3937Y4291D01*
X3898Y4250D02*
Y4252D01*
X3661Y4075D02*
Y4148D01*
X3032Y4331D02*
X3112D01*
X7053Y8138D02*
X7520D01*
X4595Y7002D02*
X4596Y7003D01*
X4595Y6929D02*
Y7002D01*
X7441Y3898D02*
X7520Y3819D01*
X7367Y3898D02*
X7441D01*
X7360Y3904D02*
X7367Y3898D01*
X7360Y3904D02*
Y4009D01*
Y2749D02*
X7411D01*
X7360D02*
X7367Y2743D01*
Y2638D02*
Y2743D01*
X2318Y3031D02*
Y3106D01*
X2725Y2106D02*
X2854D01*
X2715Y2117D02*
X2725Y2106D01*
X2715Y2117D02*
Y2191D01*
X3819Y2778D02*
Y2839D01*
Y2778D02*
X3821Y2775D01*
X3745D02*
X3821D01*
X3745Y2671D02*
X3789D01*
X3596Y2646D02*
X3612Y2630D01*
X3543Y2646D02*
X3596D01*
X3494D02*
X3543D01*
X3494Y2646D02*
X3494Y2646D01*
X3494Y2646D02*
Y2697D01*
X3543D01*
X3258Y2722D02*
X3317D01*
X3066Y2445D02*
Y2520D01*
X3078Y2748D02*
X3114D01*
X2904Y2854D02*
X2957D01*
X2721Y3681D02*
X2854D01*
X2715Y3687D02*
X2721Y3681D01*
X2715Y3687D02*
Y3766D01*
X3742Y4250D02*
X3819D01*
Y4317D01*
X3582Y4122D02*
X3602Y4101D01*
X3538Y4122D02*
X3582D01*
X3498D02*
X3538D01*
X3494Y4173D02*
X3494Y4173D01*
X3538D01*
X3258Y4199D02*
X3312D01*
X3066Y3922D02*
Y3996D01*
X2318Y4606D02*
Y4685D01*
X4330Y5906D02*
X4399D01*
X4309Y5926D02*
X4330Y5906D01*
X4252Y5926D02*
X4309D01*
X3640Y6210D02*
Y6307D01*
X3351Y6837D02*
X3498D01*
X3351Y6752D02*
Y6837D01*
X4291Y7701D02*
X4369D01*
X6697Y8031D02*
X6813D01*
X6697Y7973D02*
Y8031D01*
X6935Y7707D02*
Y7791D01*
X6762Y7087D02*
X6866D01*
X6988Y7327D02*
Y7411D01*
X6987Y7329D02*
X6988Y7327D01*
X6501Y6250D02*
X6609D01*
X6501Y6181D02*
Y6250D01*
X6888Y6065D02*
X6891Y6063D01*
X7002D01*
X7284Y6100D02*
X7337D01*
X3543Y5073D02*
X3729Y5260D01*
X3189Y4224D02*
X3215Y4250D01*
X3312D01*
X3189Y4187D02*
Y4224D01*
X6540Y6663D02*
Y6762D01*
X4656Y6108D02*
Y6220D01*
X6439Y6102D02*
X6501D01*
X6505Y6107D01*
X6614D01*
X7204Y6100D02*
Y6166D01*
X3194Y2748D02*
X3219Y2774D01*
X3317D01*
X3036Y2854D02*
Y2923D01*
Y2854D02*
X3036Y2854D01*
X3117D01*
X2640Y3687D02*
Y3766D01*
X3642Y6388D02*
X3819D01*
X7285Y3904D02*
Y4009D01*
X4556Y6109D02*
Y6220D01*
Y6109D02*
X4559Y6106D01*
X7101Y6100D02*
X7204D01*
X7002D02*
X7026D01*
X7101Y6026D01*
X7002Y5989D02*
Y6026D01*
X6987Y5973D02*
X7002Y5989D01*
X6926Y5973D02*
X6987D01*
X6614Y6343D02*
X6737D01*
Y6107D02*
Y6255D01*
X6614Y6019D02*
X6737D01*
X6851Y5973D02*
Y5993D01*
X6737Y6107D02*
X6851Y5993D01*
X6878Y5925D02*
X6926Y5973D01*
X6752Y5925D02*
X6878D01*
X6737Y5940D02*
X6752Y5925D01*
X6737Y5940D02*
Y6019D01*
X7285Y2644D02*
Y2749D01*
X3898Y4250D02*
X3923Y4225D01*
X3973D01*
X3928Y2748D02*
X3978D01*
X3543Y2671D02*
X3665D01*
X3543Y2774D02*
X3663D01*
X3154Y2520D02*
Y2618D01*
X2863Y2431D02*
X2865D01*
X2777Y2283D02*
X2854Y2206D01*
X2677Y2283D02*
X2777D01*
X2677D02*
Y2480D01*
X2626Y2531D02*
X2677Y2480D01*
X2563Y2531D02*
X2626D01*
X2451Y2819D02*
X2563Y2931D01*
X2451Y2663D02*
Y2819D01*
X2991Y3031D02*
X2992Y3033D01*
X2406Y3031D02*
X2563D01*
X2453Y2531D02*
X2563D01*
X2777Y3858D02*
X2854Y3781D01*
X2677Y3858D02*
X2777D01*
X2677D02*
Y4055D01*
X3189Y4358D02*
Y4449D01*
X2406Y4606D02*
X2559D01*
X2991D02*
X2992Y4608D01*
X7520Y3919D02*
Y4055D01*
X7473Y4101D02*
X7520Y4055D01*
X7323Y4101D02*
X7473D01*
X5494Y4346D02*
X5497D01*
X3538Y4148D02*
X3661D01*
X3154Y3996D02*
Y4094D01*
X2559Y4106D02*
X2626D01*
X2677Y4055D01*
X2451Y4398D02*
X2559Y4506D01*
X2451Y4238D02*
Y4398D01*
X2453Y4106D02*
X2559D01*
X3640Y5740D02*
X3642Y5738D01*
X3640Y5740D02*
Y5901D01*
X3669Y6018D02*
X3821D01*
X3640Y5989D02*
X3669Y6018D01*
X3640Y5989D02*
Y6122D01*
X3819Y6110D02*
Y6254D01*
X7360Y7047D02*
X7480D01*
X6988Y7091D02*
Y7240D01*
X6870Y7003D02*
X6988D01*
X6866Y7008D02*
X6870Y7003D01*
X6762Y7008D02*
X6866D01*
X6756Y7014D02*
X6762Y7008D01*
X4321Y6929D02*
X4390D01*
X4310Y6917D02*
X4321Y6929D01*
X4291Y6917D02*
X4310D01*
X4390Y6929D02*
X4390Y6929D01*
X4508D01*
X4499Y6938D02*
X4508Y6929D01*
X4499Y6938D02*
Y7230D01*
X4291Y7008D02*
X4390D01*
X4291Y7087D02*
X4291Y7087D01*
X4291Y7008D02*
Y7087D01*
X4399Y7230D02*
Y7239D01*
X4432Y7272D01*
X4469D01*
X4499Y7242D01*
Y7230D02*
Y7242D01*
X3504Y7047D02*
Y7120D01*
X3494Y7037D02*
X3504Y7047D01*
X3433Y7037D02*
X3494D01*
X3209Y7047D02*
Y7120D01*
Y7047D02*
X3219Y7037D01*
X3299D01*
X3307Y6936D02*
X3499D01*
X3270Y6758D02*
Y6844D01*
X3307Y6936D02*
Y7030D01*
X4173Y7612D02*
X4290D01*
X4080D02*
X4173D01*
X4080Y7703D02*
X4173D01*
X4070Y7703D02*
Y7840D01*
X4170Y7838D02*
Y7900D01*
X4173Y7612D02*
Y7657D01*
X7053Y7880D02*
Y8004D01*
X7052Y7878D02*
X7053Y7880D01*
X6935Y7878D02*
X7052D01*
X6935D02*
Y8027D01*
X6702Y8115D02*
X6817D01*
X6698Y8111D02*
X6702Y8115D01*
X3508Y5989D02*
X3640D01*
X3504Y5905D02*
X3636D01*
X3538Y4250D02*
X3659D01*
X3973Y4199D02*
X3973Y4199D01*
X3506Y4224D02*
X3538D01*
X3187Y4305D02*
X3242D01*
X2638Y2106D02*
Y2189D01*
X2640Y2191D01*
X7053Y7880D02*
X7553D01*
X4120Y6853D02*
X6902D01*
X4075Y5306D02*
X4399D01*
Y6106D02*
X4559D01*
X4252Y6006D02*
X4399D01*
X6299Y5006D02*
X6457D01*
X6299Y5106D02*
X6457D01*
X6251Y5157D02*
X6299Y5206D01*
X4912Y5156D02*
X4913Y5157D01*
X6251D01*
X4035D02*
X4251Y5156D01*
X4912D01*
X3263Y5162D02*
Y6752D01*
Y5162D02*
X3268Y5157D01*
X7637Y4257D02*
X7717Y4178D01*
X7637Y4257D02*
Y4356D01*
X7382Y5384D02*
X7402Y5404D01*
X7382Y4611D02*
X7637Y4356D01*
X7382Y4611D02*
Y5384D01*
X3543Y2579D02*
Y2620D01*
Y2579D02*
X3543Y2579D01*
X2638Y2037D02*
Y2106D01*
X7620Y4250D02*
Y4349D01*
X7362Y4606D02*
Y5787D01*
Y4606D02*
X7620Y4349D01*
X7283Y5866D02*
X7362Y5787D01*
X6029Y6119D02*
Y6635D01*
X6181Y5966D02*
X6299D01*
X3605Y6698D02*
X5966D01*
X6029Y6635D01*
Y6119D02*
X6181Y5966D01*
X3494Y4096D02*
X3538D01*
X3455Y6548D02*
X3605Y6698D01*
X3455Y4486D02*
X3492Y4449D01*
X3455Y4486D02*
Y6548D01*
X3492Y4403D02*
Y4449D01*
X6046Y6176D02*
X6156Y6066D01*
X6046Y6176D02*
Y6642D01*
X6156Y6066D02*
X6299D01*
X3598Y6715D02*
X5973D01*
X6046Y6642D01*
X3435Y4481D02*
X3475Y4442D01*
Y4410D02*
Y4442D01*
X3435Y6552D02*
X3598Y6715D01*
X3435Y4481D02*
Y6552D01*
X6063Y6230D02*
Y6649D01*
X5980Y6732D02*
X6063Y6649D01*
Y6230D02*
X6127Y6166D01*
X3415Y6556D02*
X3591Y6732D01*
X5980D01*
X6127Y6166D02*
X6299D01*
X3415Y4459D02*
Y6556D01*
Y4459D02*
X3445Y4429D01*
X2633Y3681D02*
X2712Y3602D01*
X6181Y6266D02*
X6299D01*
X6181Y6366D02*
X6299D01*
X6302Y6663D02*
X6452D01*
X6135Y6749D02*
X6218Y6666D01*
X3584Y6749D02*
X6135D01*
X6218Y6666D02*
X6299D01*
X3405Y4173D02*
X3406Y4173D01*
X3404Y4175D02*
Y4237D01*
X3391Y4250D02*
X3404Y4237D01*
X3391Y6556D02*
X3584Y6749D01*
X3312Y4173D02*
X3405D01*
X3391Y4250D02*
Y6556D01*
X3317Y2697D02*
X3376D01*
X6304Y6762D02*
X6452D01*
X3577Y6766D02*
X6299D01*
X3374Y6563D02*
X3577Y6766D01*
X3374Y4224D02*
Y6563D01*
X3312Y4224D02*
X3374D01*
X4484Y7835D02*
Y7900D01*
X3482Y2748D02*
X3543D01*
X3402Y2829D02*
X3482Y2748D01*
X6443Y7008D02*
X6762D01*
X4078Y6811D02*
X4120Y6853D01*
X4075Y6811D02*
X4078D01*
X2256Y4323D02*
X2329Y4250D01*
Y4007D02*
Y4250D01*
Y3907D02*
X2459D01*
X2559Y4006D01*
X2256Y2565D02*
Y2748D01*
Y2565D02*
X2329Y2492D01*
Y2392D02*
X2524D01*
X2563Y2431D01*
X2081Y2392D02*
X2161Y2312D01*
X2717Y4449D02*
X3130D01*
X2608Y4557D02*
X2717Y4449D01*
X2185Y4557D02*
X2608D01*
X2077Y4449D02*
X2185Y4557D01*
X1955Y4007D02*
X2077D01*
X1870Y3922D02*
X1955Y4007D01*
X1870Y3130D02*
Y3922D01*
X2077Y4007D02*
Y4449D01*
X1870Y3130D02*
X2081Y2919D01*
Y2492D02*
Y2919D01*
X2461Y3760D02*
Y3906D01*
X6398Y6521D02*
X6540Y6663D01*
X6398Y5512D02*
Y6521D01*
X6348Y5463D02*
X6398Y5512D01*
X4744Y5463D02*
X6348D01*
X6535Y4941D02*
Y5374D01*
X4646Y5561D02*
X4744Y5463D01*
X4646Y5561D02*
Y6098D01*
X6348Y5463D02*
X6447D01*
X6535Y5374D01*
X6476Y4882D02*
X6535Y4941D01*
X6206Y4572D02*
X6331D01*
Y4622D02*
Y4677D01*
Y4472D02*
X6332Y4471D01*
X6331Y4332D02*
Y4472D01*
X6543Y4332D02*
Y4472D01*
Y4572D02*
X6668D01*
X6331Y4522D02*
X6392D01*
X6442Y4572D02*
X6543D01*
X6392Y4522D02*
X6442Y4572D01*
X6331Y3053D02*
X6332Y3051D01*
X6331Y3053D02*
Y3193D01*
X6542Y3051D02*
Y3191D01*
X6543Y3193D01*
X6331Y3243D02*
X6392D01*
X6442Y3293D02*
X6543D01*
X6392Y3243D02*
X6442Y3293D01*
X6543D02*
X6668D01*
X6206D02*
X6331D01*
X6201Y3287D02*
X6206Y3293D01*
X6331Y3343D02*
X6414D01*
X6437Y3366D01*
Y3484D01*
X6543Y4522D02*
X6638D01*
X6668Y4493D01*
Y4435D02*
Y4493D01*
Y4435D02*
X6673Y4429D01*
X6543Y3243D02*
X6638D01*
X6668Y3213D01*
Y3155D02*
Y3213D01*
Y3155D02*
X6673Y3150D01*
X6668Y3293D02*
X7112D01*
X7146Y3327D01*
X6201Y3366D02*
Y3425D01*
X7101Y4606D02*
Y6026D01*
X7067Y4572D02*
X7101Y4606D01*
X6668Y4572D02*
X7067D01*
X7146Y4494D01*
Y3327D02*
Y4494D01*
X6331Y4572D02*
X6403D01*
X6476Y4646D01*
X6201Y4646D02*
Y4705D01*
X6476Y4646D02*
Y4764D01*
Y4882D01*
X6331Y3293D02*
X6408D01*
X6476Y3361D01*
Y3543D01*
X6308Y5315D02*
X6457D01*
X6299Y5306D02*
X6308Y5315D01*
X4259Y5406D02*
X4399D01*
X4252Y5413D02*
X4259Y5406D01*
X7409Y7264D02*
X7579D01*
X7677Y7303D02*
Y7980D01*
Y6826D02*
Y7303D01*
X7717Y7264D01*
X6437Y8104D02*
X6691D01*
X6698Y8111D01*
X6817Y8115D02*
X6935D01*
X7205Y6949D02*
X7284D01*
X4833Y4436D02*
Y4555D01*
X5010Y4018D02*
Y4137D01*
X4795Y4344D02*
X4828Y4311D01*
X4892D01*
X4951Y4370D01*
X5123D01*
X5150Y4344D01*
X4870Y4344D02*
X4967Y4441D01*
X5010D01*
X5224Y4344D02*
X5321Y4441D01*
X5364D01*
X5579Y4344D02*
X5676Y4441D01*
X5933Y4344D02*
X6030Y4441D01*
X5150Y4344D02*
X5197Y4296D01*
X5477Y4370D02*
X5504Y4344D01*
X5556Y4291D01*
X5832Y4370D02*
X5858Y4344D01*
X5494D02*
Y4346D01*
X4877Y4134D02*
X4972Y4229D01*
X4834Y4134D02*
X4877D01*
X5231D02*
X5327Y4229D01*
X5188Y4134D02*
X5231D01*
X5587Y4135D02*
X5681Y4229D01*
X5541Y4135D02*
X5587D01*
X5941D02*
X6035Y4229D01*
X5896Y4135D02*
X5941D01*
X5047Y4229D02*
X5079Y4198D01*
X5241D01*
X5315Y4272D01*
X5359D01*
X5402Y4229D01*
X5438Y4193D01*
X5591D01*
X5669Y4272D01*
X5714D01*
X5756Y4229D01*
X5792Y4193D01*
X6068Y4272D02*
X6110Y4229D01*
X5364Y4018D02*
Y4137D01*
X5719Y4018D02*
Y4137D01*
X6073Y4018D02*
Y4137D01*
X5896Y4436D02*
Y4555D01*
X5541Y4436D02*
Y4555D01*
X5187Y4436D02*
Y4555D01*
X5010Y2443D02*
Y2562D01*
X5374Y2444D02*
Y2562D01*
X5728Y2444D02*
Y2562D01*
X6083Y2444D02*
Y2562D01*
X4878Y2560D02*
X4972Y2655D01*
X5243Y2560D02*
X5337Y2655D01*
X5177Y2560D02*
X5243D01*
X5597D02*
X5691Y2655D01*
X5541Y2560D02*
X5597D01*
X6045Y2640D02*
Y2655D01*
X5966Y2560D02*
X6045Y2640D01*
X4833Y2861D02*
Y2980D01*
X5187Y2861D02*
Y2980D01*
X5544Y2869D02*
Y2982D01*
X5896Y2871D02*
Y2980D01*
X4870Y2769D02*
X4967Y2866D01*
X5010D01*
X5321D02*
X5364D01*
X5224Y2769D02*
X5320Y2864D01*
X5321Y2866D01*
X4795Y2769D02*
X4826Y2738D01*
X4895D01*
X4952Y2795D01*
X5123D01*
X5150Y2769D01*
X5182Y2736D01*
X5254D01*
X5313Y2795D01*
X5933Y2769D02*
X6030Y2866D01*
X5579Y2769D02*
X5659Y2849D01*
X5313Y2795D02*
X5477D01*
X5504Y2769D01*
X5536Y2736D01*
X5832Y2795D02*
X5858Y2769D01*
X5047Y2655D02*
X5074Y2628D01*
X5236D01*
X5305Y2697D01*
X5369D01*
X5411Y2655D01*
X5438Y2628D01*
X5597D01*
X5666Y2697D01*
X5723D01*
X5766Y2655D01*
X5792Y2628D01*
X6078Y2697D02*
X6120Y2655D01*
X5005Y4272D02*
X5047Y4229D01*
X4951Y4272D02*
X5005D01*
X4886Y4207D02*
X4951Y4272D01*
X5005Y2697D02*
X5047Y2655D01*
X4949Y2697D02*
X5005D01*
X4880Y2628D02*
X4949Y2697D01*
X4646Y5335D02*
Y5561D01*
X4571Y5260D02*
X4646Y5335D01*
X3729Y5260D02*
X4571D01*
X1772Y1969D02*
X8858D01*
X1772D02*
Y8268D01*
X8858Y1969D02*
Y8268D01*
X1772D02*
X8858D01*
D49*
X4449Y2976D02*
X4449Y2976D01*
X4449Y2732D02*
Y2976D01*
Y2211D02*
X4449Y2211D01*
Y2455D01*
X4439Y4022D02*
X4439Y4022D01*
Y4266D01*
X4439Y4445D02*
Y4689D01*
X5491Y4254D02*
X5541D01*
X5422Y4322D02*
X5491Y4254D01*
X5602D02*
X5671Y4322D01*
X5541Y4254D02*
X5602D01*
X5310Y2747D02*
X5364D01*
X5242Y2679D02*
X5310Y2747D01*
X5177Y2679D02*
X5242D01*
X4954Y2747D02*
X5010D01*
X4885Y2679D02*
X4954Y2747D01*
X4823Y2679D02*
X4885D01*
X5671Y4322D02*
X5720D01*
X5320D02*
X5364D01*
X5252Y4254D02*
X5320Y4322D01*
X5187Y4254D02*
X5252D01*
X4952Y4322D02*
X5010D01*
X4883Y4254D02*
X4952Y4322D01*
X4833Y4254D02*
X4883D01*
X5276Y4459D02*
X5294Y4441D01*
X4921Y3760D02*
Y4114D01*
X4902Y4134D02*
X4921Y4114D01*
X5276Y3760D02*
Y4114D01*
X5256Y4134D02*
X5276Y4114D01*
X5276Y4459D02*
Y4813D01*
X5364Y4322D02*
X5422D01*
X5010D02*
X5068D01*
X5136Y4254D02*
X5187D01*
X5294Y4441D02*
X5321D01*
X4921Y4459D02*
X4939Y4441D01*
X4967D01*
X4921Y4459D02*
Y4813D01*
X5630Y4470D02*
Y4813D01*
Y4470D02*
X5659Y4441D01*
X5676D01*
X5720D01*
X5984Y4470D02*
Y4813D01*
Y4470D02*
X6014Y4441D01*
X6030D01*
X6075D01*
X5068Y4322D02*
X5136Y4254D01*
X4877Y4134D02*
X4902D01*
X5231D02*
X5256D01*
X5630Y3760D02*
Y4104D01*
X5599Y4135D02*
X5630Y4104D01*
X5984Y3760D02*
Y4114D01*
X5965Y4134D02*
X5984Y4114D01*
X5897Y4134D02*
X5965D01*
X5896Y4135D02*
X5897Y4134D01*
X5587Y4135D02*
X5599D01*
X4921Y2185D02*
Y2530D01*
X4890Y2560D02*
X4921Y2530D01*
X4823Y2560D02*
X4878D01*
X4890D01*
X5280Y2185D02*
Y2535D01*
X5256Y2559D02*
X5280Y2535D01*
X5179Y2559D02*
X5256D01*
X5177Y2560D02*
X5179Y2559D01*
X5634Y2185D02*
Y2535D01*
X5610Y2559D02*
X5634Y2535D01*
X5543Y2559D02*
X5610D01*
X5541Y2560D02*
X5543Y2559D01*
X5989Y2185D02*
Y2535D01*
X5965Y2559D02*
X5989Y2535D01*
X5897Y2559D02*
X5965D01*
X4926Y2882D02*
Y3238D01*
Y2882D02*
X4941Y2867D01*
X5009D01*
X5280Y2879D02*
Y3238D01*
Y2879D02*
X5295Y2864D01*
X5634Y2889D02*
Y3238D01*
Y2889D02*
X5659Y2864D01*
X5989Y2889D02*
Y3238D01*
Y2889D02*
X6012Y2866D01*
X5295Y2864D02*
X5320D01*
X5364Y2747D02*
X5422D01*
X5491Y2679D01*
X5541D01*
X5599D01*
X5668Y2747D01*
X5728D01*
X5010D02*
X5058D01*
X5126Y2679D01*
X5177D01*
X6012Y2866D02*
X6030D01*
X6083D01*
X5659Y2864D02*
X5727D01*
D50*
X6005Y4322D02*
X6075D01*
X5937Y4254D02*
X6005Y4322D01*
X5896Y4254D02*
X5937D01*
X7323Y3583D02*
Y3720D01*
X7402Y2283D02*
X7766D01*
X7323Y3720D02*
X7362Y3681D01*
X7638D01*
X7894Y3937D01*
Y4902D01*
X7756Y3346D02*
X7894Y3209D01*
X7756Y5039D02*
X7894Y4902D01*
X7323Y2362D02*
X7402Y2283D01*
X7323Y2362D02*
Y2461D01*
X7894Y2411D02*
Y3209D01*
X7766Y2283D02*
X7894Y2411D01*
X8189Y5767D02*
X8504D01*
X7874D02*
X8189D01*
X7873Y5965D02*
X7874Y5966D01*
X5787Y7014D02*
X6339D01*
X5239D02*
X5787D01*
X4869Y7250D02*
Y7362D01*
X4823Y7205D02*
X4869Y7250D01*
X4659Y7269D02*
X4723Y7205D01*
X4659Y7269D02*
Y7362D01*
X5122Y7014D02*
X5239D01*
X5020Y7116D02*
X5122Y7014D01*
X5020Y7116D02*
Y7313D01*
X4970Y7362D02*
X5020Y7313D01*
X4869Y7362D02*
X4970D01*
X4469D02*
X4659D01*
X4154Y7224D02*
X4344D01*
X2913D02*
X4154D01*
X4291Y7087D01*
X4409D01*
X4449Y7126D01*
Y7230D01*
X2736Y7402D02*
X2913Y7224D01*
X2736Y7402D02*
Y7913D01*
X2795Y7972D01*
X3144D01*
X3209Y7907D01*
X2362Y7913D02*
X2553Y8104D01*
X2362Y5354D02*
Y7913D01*
Y5354D02*
X2480Y5236D01*
X4070Y7840D02*
Y7900D01*
Y7840D02*
X4134Y7776D01*
X6339Y8104D02*
X6339Y8104D01*
X5787Y8104D02*
X6339D01*
X5236D02*
X5787D01*
X4070Y7900D02*
X4120D01*
X4020D02*
X4070D01*
X3511D02*
X4020D01*
X3366Y7967D02*
X3504Y8104D01*
X3366Y7638D02*
Y7967D01*
X3287Y7559D02*
X3366Y7638D01*
X2953Y7559D02*
X3287D01*
X2874Y7638D02*
X2953Y7559D01*
X6339Y7014D02*
X6437D01*
X6339Y8104D02*
X6437D01*
X5236Y7722D02*
X5787D01*
X6339D01*
X6339Y7722D01*
X6437D01*
X5239Y7396D02*
X5787D01*
X6339D01*
X6339Y7396D01*
X6437D01*
X2480Y5236D02*
X2874D01*
X4659Y7874D02*
Y7979D01*
X4606Y8031D02*
X4659Y7979D01*
X4099Y8027D02*
X4409D01*
X4409Y8031D02*
X4606D01*
X4659Y7874D02*
X4724Y7809D01*
Y7736D02*
Y7809D01*
X4824Y7830D02*
X4869Y7874D01*
X4824Y7736D02*
Y7830D01*
X4869Y7874D02*
X5157D01*
X5236Y7953D01*
Y8104D01*
X2553Y8104D02*
X3209D01*
X4134Y7776D02*
X4192D01*
X4232Y7816D01*
Y7900D01*
X4291D01*
X4334D01*
X4384D01*
X4434D01*
X4435D01*
X7077Y3051D02*
X7087Y3041D01*
X6542Y3051D02*
X7077D01*
X6542Y4331D02*
X6811D01*
X6840Y4301D01*
X7087D01*
X5720Y4322D02*
X5776D01*
X5845Y4254D01*
X5896D01*
X5728Y2747D02*
X5786D01*
X5855Y2679D01*
X5896D01*
X5953D01*
X6022Y2747D01*
X6083D01*
X6075Y4322D02*
X6321D01*
X6331Y4332D01*
X6083Y2747D02*
X6281D01*
X6332Y2799D01*
Y3051D01*
X8189Y5966D02*
Y6161D01*
X8504Y5966D02*
Y6161D01*
X8189D02*
X8404D01*
X7874Y5966D02*
Y6160D01*
X7876Y6161D01*
X8089D01*
X7756Y5039D02*
Y5589D01*
X7657Y5687D02*
X7756Y5589D01*
X7657Y5787D02*
Y6043D01*
X7776Y6161D01*
X8563Y6280D02*
X8681Y6161D01*
X7815Y6280D02*
X8563D01*
X7776Y6240D02*
X7815Y6280D01*
X7776Y6161D02*
Y6240D01*
X8563Y5600D02*
X8681D01*
X8504Y5659D02*
X8563Y5600D01*
X8504Y5659D02*
Y5767D01*
D51*
X5268Y2228D02*
X5277Y2237D01*
X7087Y4301D02*
X7087Y4301D01*
X4941Y2205D02*
X4961Y2185D01*
D52*
X7323Y2941D02*
D03*
Y2461D02*
D03*
X6850D02*
D03*
Y2941D02*
D03*
Y4201D02*
D03*
Y3720D02*
D03*
X7323D02*
D03*
Y4201D02*
D03*
D53*
X7087Y3041D02*
D03*
Y4301D02*
D03*
D54*
X6181Y6366D02*
D03*
Y6266D02*
D03*
X6457Y5315D02*
D03*
D55*
X7620Y2972D02*
D03*
X7520Y3819D02*
D03*
X4823Y7205D02*
D03*
X4656Y6220D02*
D03*
X3780Y5304D02*
D03*
X2854Y3681D02*
D03*
X4824Y7736D02*
D03*
X3504Y6831D02*
D03*
X2854Y2106D02*
D03*
X6457Y5206D02*
D03*
Y5106D02*
D03*
X8404Y6161D02*
D03*
X8089D02*
D03*
X7776D02*
D03*
X7657Y5787D02*
D03*
D56*
X7520Y2972D02*
D03*
X4723Y7205D02*
D03*
X4556Y6220D02*
D03*
X4724Y7736D02*
D03*
X8504Y6161D02*
D03*
X8189D02*
D03*
X7876D02*
D03*
D57*
X8006Y2398D02*
D03*
Y2798D02*
D03*
X7606Y2398D02*
D03*
Y2798D02*
D03*
X2624Y5436D02*
D03*
Y5036D02*
D03*
X3024Y5436D02*
D03*
Y5036D02*
D03*
X3024Y5784D02*
D03*
Y6184D02*
D03*
X2624Y5784D02*
D03*
Y6184D02*
D03*
X2624Y7090D02*
D03*
Y6690D02*
D03*
X3024Y7090D02*
D03*
Y6690D02*
D03*
Y7438D02*
D03*
Y7838D02*
D03*
X2624Y7438D02*
D03*
Y7838D02*
D03*
X7606Y3546D02*
D03*
Y3146D02*
D03*
X8006Y3546D02*
D03*
Y3146D02*
D03*
X7606Y5239D02*
D03*
Y4839D02*
D03*
X8006Y5239D02*
D03*
Y4839D02*
D03*
X8006Y4091D02*
D03*
Y4491D02*
D03*
X7606Y4091D02*
D03*
Y4491D02*
D03*
D58*
X7756Y2598D02*
D03*
X2874Y5236D02*
D03*
X2874Y5984D02*
D03*
X2874Y6890D02*
D03*
Y7638D02*
D03*
X7756Y3346D02*
D03*
X1969Y2165D02*
D03*
X8661D02*
D03*
Y8075D02*
D03*
X1969Y8071D02*
D03*
X7756Y5039D02*
D03*
X7756Y4291D02*
D03*
D59*
X7520Y3919D02*
D03*
X3780Y5404D02*
D03*
X2854Y3781D02*
D03*
X3504Y6931D02*
D03*
X2854Y2206D02*
D03*
X6457Y5006D02*
D03*
X7657Y5687D02*
D03*
D60*
X2863Y3031D02*
D03*
Y2931D02*
D03*
Y2531D02*
D03*
Y2431D02*
D03*
X2563D02*
D03*
Y2531D02*
D03*
Y2931D02*
D03*
X2559Y4506D02*
D03*
Y4106D02*
D03*
Y4006D02*
D03*
X2859D02*
D03*
Y4106D02*
D03*
Y4506D02*
D03*
Y4606D02*
D03*
X4399Y5406D02*
D03*
Y5306D02*
D03*
Y5206D02*
D03*
Y5106D02*
D03*
Y5006D02*
D03*
Y6306D02*
D03*
Y6206D02*
D03*
Y6106D02*
D03*
Y6006D02*
D03*
Y5906D02*
D03*
Y5806D02*
D03*
Y5706D02*
D03*
X6299Y5106D02*
D03*
Y5206D02*
D03*
Y5306D02*
D03*
Y5406D02*
D03*
Y5506D02*
D03*
Y5606D02*
D03*
Y5706D02*
D03*
Y5966D02*
D03*
Y6066D02*
D03*
Y6166D02*
D03*
Y6266D02*
D03*
Y6366D02*
D03*
Y6466D02*
D03*
Y6566D02*
D03*
Y6666D02*
D03*
Y6766D02*
D03*
X6075Y4557D02*
D03*
X5720D02*
D03*
X5366D02*
D03*
X5012D02*
D03*
X6079Y2982D02*
D03*
X5725D02*
D03*
X5371D02*
D03*
X5016D02*
D03*
X5898Y2441D02*
D03*
X5544D02*
D03*
X5189D02*
D03*
X4831D02*
D03*
X5894Y4016D02*
D03*
X5539D02*
D03*
X5185D02*
D03*
X6339Y7014D02*
D03*
X5787Y7014D02*
D03*
X5239Y7008D02*
D03*
X4869Y7362D02*
D03*
X5787Y8104D02*
D03*
X5236Y8104D02*
D03*
X4870Y7874D02*
D03*
X2864Y3243D02*
D03*
X2859Y4817D02*
D03*
X6437Y7014D02*
D03*
X6437Y8104D02*
D03*
Y7722D02*
D03*
X6437Y7396D02*
D03*
X6542Y4331D02*
D03*
Y3051D02*
D03*
X6332Y4331D02*
D03*
Y3051D02*
D03*
X8681Y6161D02*
D03*
X8504Y5767D02*
D03*
X4831Y4016D02*
D03*
D61*
X2563Y3031D02*
D03*
X2559Y4606D02*
D03*
X4399Y5506D02*
D03*
Y6406D02*
D03*
X6299Y5006D02*
D03*
Y5866D02*
D03*
D62*
X2497Y6437D02*
D03*
X2954D02*
D03*
D63*
X2607D02*
D03*
X2725D02*
D03*
D64*
X2843D02*
D03*
D65*
X1949Y4173D02*
D03*
Y4472D02*
D03*
Y2898D02*
D03*
Y2598D02*
D03*
D66*
X2256Y4323D02*
D03*
Y2748D02*
D03*
D67*
X3887Y4666D02*
D03*
X8691D02*
D03*
X3887Y7500D02*
D03*
X8691D02*
D03*
D68*
X3209Y7711D02*
D03*
X3504D02*
D03*
X3209Y7120D02*
D03*
Y7907D02*
D03*
X3504D02*
D03*
X3209Y8104D02*
D03*
X3504D02*
D03*
D69*
Y7120D02*
D03*
D70*
X4675Y5000D02*
D03*
X3896Y6191D02*
D03*
X3986Y6206D02*
D03*
X4537Y2638D02*
D03*
Y2067D02*
D03*
X4055Y4114D02*
D03*
X4380Y3543D02*
D03*
X4449Y2455D02*
D03*
X4075Y4380D02*
D03*
X4104Y2943D02*
D03*
X4675Y3583D02*
D03*
X4053Y2665D02*
D03*
X3902Y2774D02*
D03*
X4439Y4266D02*
D03*
Y4445D02*
D03*
X4547Y3327D02*
D03*
X4272Y4321D02*
D03*
X4242Y2874D02*
D03*
X4360Y2116D02*
D03*
Y2579D02*
D03*
X3839Y2559D02*
D03*
X4169Y2461D02*
D03*
X3416Y2885D02*
D03*
X3267Y2952D02*
D03*
X3563Y2185D02*
D03*
X3740Y3543D02*
D03*
X3720Y3248D02*
D03*
X4256Y3705D02*
D03*
X3839Y3878D02*
D03*
X3307Y3849D02*
D03*
X3736Y3480D02*
D03*
Y2161D02*
D03*
X4256Y2386D02*
D03*
X3377Y2550D02*
D03*
X4180Y3898D02*
D03*
X2933Y3406D02*
D03*
X3666Y2543D02*
D03*
X3666Y2839D02*
D03*
X3248Y2618D02*
D03*
X3256Y4122D02*
D03*
X2513Y2218D02*
D03*
X2382Y2008D02*
D03*
X3374Y2748D02*
D03*
X2244Y3583D02*
D03*
X6909Y3681D02*
D03*
X7244Y4101D02*
D03*
X7475Y7343D02*
D03*
X3976Y2913D02*
D03*
X3616Y2722D02*
D03*
X7185Y7323D02*
D03*
X7343Y7205D02*
D03*
X7283Y6811D02*
D03*
X4035Y5206D02*
D03*
X4094Y6870D02*
D03*
X6888Y6122D02*
D03*
X3051Y4225D02*
D03*
X2894Y4331D02*
D03*
X2894Y4281D02*
D03*
X3858Y5955D02*
D03*
X3809Y5551D02*
D03*
X3194Y2687D02*
D03*
X3031Y2736D02*
D03*
X3207Y4169D02*
D03*
X3793Y4148D02*
D03*
X3327Y4449D02*
D03*
X3130D02*
D03*
X6762Y7146D02*
D03*
X3563Y6201D02*
D03*
X3661Y4317D02*
D03*
X7480Y7126D02*
D03*
X3937Y4291D02*
D03*
X3661Y4075D02*
D03*
X4595Y7002D02*
D03*
X7411Y2749D02*
D03*
X2318Y3106D02*
D03*
X3819Y2839D02*
D03*
X3789Y2671D02*
D03*
X3612Y2630D02*
D03*
X3258Y2722D02*
D03*
X3066Y2445D02*
D03*
X2904Y2854D02*
D03*
X3819Y4317D02*
D03*
X3602Y4101D02*
D03*
X3258Y4199D02*
D03*
X3066Y3922D02*
D03*
X2318Y4685D02*
D03*
X4369Y7701D02*
D03*
X6697Y7973D02*
D03*
X6935Y7707D02*
D03*
X7559Y7126D02*
D03*
X6988Y7411D02*
D03*
X6501Y6250D02*
D03*
X7337Y6100D02*
D03*
X3543Y5073D02*
D03*
X6439Y6102D02*
D03*
X7204Y6166D02*
D03*
X3036Y2923D02*
D03*
X3642Y6447D02*
D03*
X4173Y7835D02*
D03*
Y7657D02*
D03*
X3524Y4305D02*
D03*
X3242D02*
D03*
X4075Y5306D02*
D03*
X4035Y5157D02*
D03*
X3268D02*
D03*
X7402Y5404D02*
D03*
X3543Y2579D02*
D03*
X2638Y2037D02*
D03*
X7283Y5866D02*
D03*
X3445Y4429D02*
D03*
X2972Y3602D02*
D03*
X3405Y4173D02*
D03*
X3376Y2697D02*
D03*
X3374Y4224D02*
D03*
X4484Y7835D02*
D03*
X4075Y6811D02*
D03*
X4449Y7185D02*
D03*
X3976Y7900D02*
D03*
X3927D02*
D03*
X4291D02*
D03*
X5039Y8140D02*
D03*
X4301Y7224D02*
D03*
X4252D02*
D03*
X4449Y7136D02*
D03*
X4232Y7900D02*
D03*
X6331Y4677D02*
D03*
X6437Y3484D02*
D03*
X6668Y4435D02*
D03*
Y3155D02*
D03*
X6201Y3425D02*
D03*
X6201Y4705D02*
D03*
X6476Y4764D02*
D03*
Y3543D02*
D03*
X7579Y7264D02*
D03*
X7717D02*
D03*
X7205Y6949D02*
D03*
X4833Y4254D02*
D03*
X5010Y4322D02*
D03*
X5187Y4254D02*
D03*
X5364Y4322D02*
D03*
X5541Y4254D02*
D03*
X5720Y4322D02*
D03*
X5896Y4254D02*
D03*
X6075Y4322D02*
D03*
X4823Y2679D02*
D03*
X5010Y2747D02*
D03*
X5177Y2679D02*
D03*
X5364Y2747D02*
D03*
X5541Y2679D02*
D03*
X5728Y2747D02*
D03*
X5896Y2679D02*
D03*
X6083Y2747D02*
D03*
D71*
X7231Y2842D02*
D03*
M02*
