G04*
G04 #@! TF.GenerationSoftware,Altium Limited,CircuitStudio,1.5.1 (13)*
G04*
G04 Layer_Color=8150272*
%FSLAX23Y23*%
%MOIN*%
G70*
G01*
G75*
%ADD47C,0.020*%
%ADD48C,0.010*%
%ADD116C,0.087*%
%ADD117R,0.087X0.087*%
%ADD118C,0.048*%
%ADD119C,0.071*%
%ADD120R,0.071X0.071*%
%ADD121C,0.095*%
%ADD122C,0.165*%
%ADD123R,0.071X0.071*%
%ADD124C,0.068*%
%ADD125R,0.068X0.068*%
%ADD126C,0.102*%
%ADD127C,0.068*%
%ADD128R,0.068X0.068*%
%ADD129C,0.114*%
%ADD130R,0.064X0.064*%
%ADD131C,0.183*%
%ADD132C,0.099*%
%ADD133R,0.099X0.099*%
%ADD134C,0.038*%
%ADD135C,0.058*%
%ADD136R,0.134X0.047*%
D47*
X9813Y2952D02*
Y2852D01*
X9863D01*
X9880Y2869D01*
Y2885D01*
X9863Y2902D01*
X9813D01*
X9863D01*
X9880Y2919D01*
Y2935D01*
X9863Y2952D01*
X9813D01*
X9963D02*
X9930D01*
X9913Y2935D01*
Y2869D01*
X9930Y2852D01*
X9963D01*
X9980Y2869D01*
Y2935D01*
X9963Y2952D01*
X10013D02*
X10080D01*
X10046D01*
Y2852D01*
X10113Y2952D02*
X10180D01*
X10146D01*
Y2852D01*
X10263Y2952D02*
X10230D01*
X10213Y2935D01*
Y2869D01*
X10230Y2852D01*
X10263D01*
X10280Y2869D01*
Y2935D01*
X10263Y2952D01*
X10313Y2852D02*
Y2952D01*
X10346Y2919D01*
X10380Y2952D01*
Y2852D01*
X10580Y2935D02*
X10563Y2952D01*
X10530D01*
X10513Y2935D01*
Y2919D01*
X10530Y2902D01*
X10563D01*
X10580Y2885D01*
Y2869D01*
X10563Y2852D01*
X10530D01*
X10513Y2869D01*
X10613Y2852D02*
Y2952D01*
X10646Y2919D01*
X10680Y2952D01*
Y2852D01*
D48*
X1772Y1969D02*
X8858D01*
X1772D02*
Y8268D01*
X8858Y1969D02*
Y8268D01*
X1772D02*
X8858D01*
D116*
X7323Y2941D02*
D03*
Y2461D02*
D03*
X6850D02*
D03*
Y2941D02*
D03*
Y4201D02*
D03*
Y3720D02*
D03*
X7323D02*
D03*
Y4201D02*
D03*
D117*
X7087Y3041D02*
D03*
Y4301D02*
D03*
D118*
X6181Y6366D02*
D03*
Y6266D02*
D03*
X6457Y5315D02*
D03*
D119*
X7620Y2972D02*
D03*
X7520Y3819D02*
D03*
X4823Y7205D02*
D03*
X4656Y6220D02*
D03*
X3780Y5304D02*
D03*
X2854Y3681D02*
D03*
X4824Y7736D02*
D03*
X3504Y6831D02*
D03*
X2854Y2106D02*
D03*
X6457Y5206D02*
D03*
Y5106D02*
D03*
X8404Y6161D02*
D03*
X8089D02*
D03*
X7776D02*
D03*
X7657Y5787D02*
D03*
D120*
X7520Y2972D02*
D03*
X4723Y7205D02*
D03*
X4556Y6220D02*
D03*
X4724Y7736D02*
D03*
X8504Y6161D02*
D03*
X8189D02*
D03*
X7876D02*
D03*
D121*
X8006Y2398D02*
D03*
Y2798D02*
D03*
X7606Y2398D02*
D03*
Y2798D02*
D03*
X2624Y5436D02*
D03*
Y5036D02*
D03*
X3024Y5436D02*
D03*
Y5036D02*
D03*
X3024Y5784D02*
D03*
Y6184D02*
D03*
X2624Y5784D02*
D03*
Y6184D02*
D03*
X2624Y7090D02*
D03*
Y6690D02*
D03*
X3024Y7090D02*
D03*
Y6690D02*
D03*
Y7438D02*
D03*
Y7838D02*
D03*
X2624Y7438D02*
D03*
Y7838D02*
D03*
X7606Y3546D02*
D03*
Y3146D02*
D03*
X8006Y3546D02*
D03*
Y3146D02*
D03*
X7606Y5239D02*
D03*
Y4839D02*
D03*
X8006Y5239D02*
D03*
Y4839D02*
D03*
X8006Y4091D02*
D03*
Y4491D02*
D03*
X7606Y4091D02*
D03*
Y4491D02*
D03*
D122*
X7756Y2598D02*
D03*
X2874Y5236D02*
D03*
X2874Y5984D02*
D03*
X2874Y6890D02*
D03*
Y7638D02*
D03*
X7756Y3346D02*
D03*
X1969Y2165D02*
D03*
X8661D02*
D03*
Y8075D02*
D03*
X1969Y8071D02*
D03*
X7756Y5039D02*
D03*
X7756Y4291D02*
D03*
D123*
X7520Y3919D02*
D03*
X3780Y5404D02*
D03*
X2854Y3781D02*
D03*
X3504Y6931D02*
D03*
X2854Y2206D02*
D03*
X6457Y5006D02*
D03*
X7657Y5687D02*
D03*
D124*
X2863Y3031D02*
D03*
Y2931D02*
D03*
Y2531D02*
D03*
Y2431D02*
D03*
X2563D02*
D03*
Y2531D02*
D03*
Y2931D02*
D03*
X2559Y4506D02*
D03*
Y4106D02*
D03*
Y4006D02*
D03*
X2859D02*
D03*
Y4106D02*
D03*
Y4506D02*
D03*
Y4606D02*
D03*
X4399Y5406D02*
D03*
Y5306D02*
D03*
Y5206D02*
D03*
Y5106D02*
D03*
Y5006D02*
D03*
Y6306D02*
D03*
Y6206D02*
D03*
Y6106D02*
D03*
Y6006D02*
D03*
Y5906D02*
D03*
Y5806D02*
D03*
Y5706D02*
D03*
X6299Y5106D02*
D03*
Y5206D02*
D03*
Y5306D02*
D03*
Y5406D02*
D03*
Y5506D02*
D03*
Y5606D02*
D03*
Y5706D02*
D03*
Y5966D02*
D03*
Y6066D02*
D03*
Y6166D02*
D03*
Y6266D02*
D03*
Y6366D02*
D03*
Y6466D02*
D03*
Y6566D02*
D03*
Y6666D02*
D03*
Y6766D02*
D03*
X6075Y4557D02*
D03*
X5720D02*
D03*
X5366D02*
D03*
X5012D02*
D03*
X6079Y2982D02*
D03*
X5725D02*
D03*
X5371D02*
D03*
X5016D02*
D03*
X5898Y2441D02*
D03*
X5544D02*
D03*
X5189D02*
D03*
X4831D02*
D03*
X5894Y4016D02*
D03*
X5539D02*
D03*
X5185D02*
D03*
X6339Y7014D02*
D03*
X5787Y7014D02*
D03*
X5239Y7008D02*
D03*
X4869Y7362D02*
D03*
X5787Y8104D02*
D03*
X5236Y8104D02*
D03*
X4870Y7874D02*
D03*
X2864Y3243D02*
D03*
X2859Y4817D02*
D03*
X6437Y7014D02*
D03*
X6437Y8104D02*
D03*
Y7722D02*
D03*
X6437Y7396D02*
D03*
X6542Y4331D02*
D03*
Y3051D02*
D03*
X6332Y4331D02*
D03*
Y3051D02*
D03*
X8681Y6161D02*
D03*
X8504Y5767D02*
D03*
X4831Y4016D02*
D03*
D125*
X2563Y3031D02*
D03*
X2559Y4606D02*
D03*
X4399Y5506D02*
D03*
Y6406D02*
D03*
X6299Y5006D02*
D03*
Y5866D02*
D03*
D126*
X2497Y6437D02*
D03*
X2954D02*
D03*
D127*
X2607D02*
D03*
X2725D02*
D03*
D128*
X2843D02*
D03*
D129*
X1949Y4173D02*
D03*
Y4472D02*
D03*
Y2898D02*
D03*
Y2598D02*
D03*
D130*
X2256Y4323D02*
D03*
Y2748D02*
D03*
D131*
X3887Y4666D02*
D03*
X8691D02*
D03*
X3887Y7500D02*
D03*
X8691D02*
D03*
D132*
X3209Y7711D02*
D03*
X3504D02*
D03*
X3209Y7120D02*
D03*
Y7907D02*
D03*
X3504D02*
D03*
X3209Y8104D02*
D03*
X3504D02*
D03*
D133*
Y7120D02*
D03*
D134*
X4675Y5000D02*
D03*
X3896Y6191D02*
D03*
X3986Y6206D02*
D03*
X4537Y2638D02*
D03*
Y2067D02*
D03*
X4055Y4114D02*
D03*
X4380Y3543D02*
D03*
X4449Y2455D02*
D03*
X4075Y4380D02*
D03*
X4104Y2943D02*
D03*
X4675Y3583D02*
D03*
X4053Y2665D02*
D03*
X3902Y2774D02*
D03*
X4439Y4266D02*
D03*
Y4445D02*
D03*
X4547Y3327D02*
D03*
X4272Y4321D02*
D03*
X4242Y2874D02*
D03*
X4360Y2116D02*
D03*
Y2579D02*
D03*
X3839Y2559D02*
D03*
X4169Y2461D02*
D03*
X3416Y2885D02*
D03*
X3267Y2952D02*
D03*
X3563Y2185D02*
D03*
X3740Y3543D02*
D03*
X3720Y3248D02*
D03*
X4256Y3705D02*
D03*
X3839Y3878D02*
D03*
X3307Y3849D02*
D03*
X3736Y3480D02*
D03*
Y2161D02*
D03*
X4256Y2386D02*
D03*
X3377Y2550D02*
D03*
X4180Y3898D02*
D03*
X2933Y3406D02*
D03*
X3666Y2543D02*
D03*
X3666Y2839D02*
D03*
X3248Y2618D02*
D03*
X3256Y4122D02*
D03*
X2513Y2218D02*
D03*
X2382Y2008D02*
D03*
X3374Y2748D02*
D03*
X2244Y3583D02*
D03*
X6909Y3681D02*
D03*
X7244Y4101D02*
D03*
X7475Y7343D02*
D03*
X3976Y2913D02*
D03*
X3616Y2722D02*
D03*
X7185Y7323D02*
D03*
X7343Y7205D02*
D03*
X7283Y6811D02*
D03*
X4035Y5206D02*
D03*
X4094Y6870D02*
D03*
X6888Y6122D02*
D03*
X3051Y4225D02*
D03*
X2894Y4331D02*
D03*
X2894Y4281D02*
D03*
X3858Y5955D02*
D03*
X3809Y5551D02*
D03*
X3194Y2687D02*
D03*
X3031Y2736D02*
D03*
X3207Y4169D02*
D03*
X3793Y4148D02*
D03*
X3327Y4449D02*
D03*
X3130D02*
D03*
X6762Y7146D02*
D03*
X3563Y6201D02*
D03*
X3661Y4317D02*
D03*
X7480Y7126D02*
D03*
X3937Y4291D02*
D03*
X3661Y4075D02*
D03*
X4595Y7002D02*
D03*
X7411Y2749D02*
D03*
X2318Y3106D02*
D03*
X3819Y2839D02*
D03*
X3789Y2671D02*
D03*
X3612Y2630D02*
D03*
X3258Y2722D02*
D03*
X3066Y2445D02*
D03*
X2904Y2854D02*
D03*
X3819Y4317D02*
D03*
X3602Y4101D02*
D03*
X3258Y4199D02*
D03*
X3066Y3922D02*
D03*
X2318Y4685D02*
D03*
X4369Y7701D02*
D03*
X6697Y7973D02*
D03*
X6935Y7707D02*
D03*
X7559Y7126D02*
D03*
X6988Y7411D02*
D03*
X6501Y6250D02*
D03*
X7337Y6100D02*
D03*
X3543Y5073D02*
D03*
X6439Y6102D02*
D03*
X7204Y6166D02*
D03*
X3036Y2923D02*
D03*
X3642Y6447D02*
D03*
X4173Y7835D02*
D03*
Y7657D02*
D03*
X3524Y4305D02*
D03*
X3242D02*
D03*
X4075Y5306D02*
D03*
X4035Y5157D02*
D03*
X3268D02*
D03*
X7402Y5404D02*
D03*
X3543Y2579D02*
D03*
X2638Y2037D02*
D03*
X7283Y5866D02*
D03*
X3445Y4429D02*
D03*
X2972Y3602D02*
D03*
X3405Y4173D02*
D03*
X3376Y2697D02*
D03*
X3374Y4224D02*
D03*
X4484Y7835D02*
D03*
X4075Y6811D02*
D03*
X4449Y7185D02*
D03*
X3976Y7900D02*
D03*
X3927D02*
D03*
X4291D02*
D03*
X5039Y8140D02*
D03*
X4301Y7224D02*
D03*
X4252D02*
D03*
X4449Y7136D02*
D03*
X4232Y7900D02*
D03*
X6331Y4677D02*
D03*
X6437Y3484D02*
D03*
X6668Y4435D02*
D03*
Y3155D02*
D03*
X6201Y3425D02*
D03*
X6201Y4705D02*
D03*
X6476Y4764D02*
D03*
Y3543D02*
D03*
X7579Y7264D02*
D03*
X7717D02*
D03*
X7205Y6949D02*
D03*
X4833Y4254D02*
D03*
X5010Y4322D02*
D03*
X5187Y4254D02*
D03*
X5364Y4322D02*
D03*
X5541Y4254D02*
D03*
X5720Y4322D02*
D03*
X5896Y4254D02*
D03*
X6075Y4322D02*
D03*
X4823Y2679D02*
D03*
X5010Y2747D02*
D03*
X5177Y2679D02*
D03*
X5364Y2747D02*
D03*
X5541Y2679D02*
D03*
X5728Y2747D02*
D03*
X5896Y2679D02*
D03*
X6083Y2747D02*
D03*
D135*
X7231Y2842D02*
D03*
D136*
X5035Y8031D02*
D03*
X4768D02*
D03*
Y8189D02*
D03*
X5035D02*
D03*
M02*
