G04*
G04 #@! TF.GenerationSoftware,Altium Limited,CircuitStudio,1.5.1 (13)*
G04*
G04 Layer_Color=16740166*
%FSLAX23Y23*%
%MOIN*%
G70*
G01*
G75*
%ADD43C,0.010*%
%ADD44C,0.020*%
D43*
X6398Y2500D02*
X7815D01*
Y3051D01*
X6398D02*
X7815D01*
X6398Y2500D02*
Y3051D01*
X4429Y2500D02*
Y3051D01*
Y2500D02*
X5846D01*
Y3051D01*
X4429D02*
X5846D01*
X1772Y8268D02*
X8858D01*
Y1969D02*
Y8268D01*
X1772Y1969D02*
Y8268D01*
Y1969D02*
X8858D01*
X8858Y1969D01*
X6398Y2500D02*
X7815D01*
Y3051D01*
X6398D02*
X7815D01*
X6398Y2500D02*
Y3051D01*
X4429Y2500D02*
Y3051D01*
Y2500D02*
X5846D01*
Y3051D01*
X4429D02*
X5846D01*
X1772Y8268D02*
X8858D01*
Y1969D02*
Y8268D01*
X1772Y1969D02*
Y8268D01*
Y1969D02*
X8858D01*
X8858Y1969D01*
D44*
X9803Y2147D02*
Y2047D01*
X9853D01*
X9870Y2064D01*
Y2081D01*
X9853Y2097D01*
X9803D01*
X9853D01*
X9870Y2114D01*
Y2131D01*
X9853Y2147D01*
X9803D01*
X9953D02*
X9920D01*
X9903Y2131D01*
Y2064D01*
X9920Y2047D01*
X9953D01*
X9970Y2064D01*
Y2131D01*
X9953Y2147D01*
X10003Y2047D02*
Y2114D01*
X10036Y2147D01*
X10070Y2114D01*
Y2047D01*
Y2097D01*
X10003D01*
X10103Y2047D02*
Y2147D01*
X10153D01*
X10170Y2131D01*
Y2097D01*
X10153Y2081D01*
X10103D01*
X10136D02*
X10170Y2047D01*
X10203Y2147D02*
Y2047D01*
X10253D01*
X10270Y2064D01*
Y2131D01*
X10253Y2147D01*
X10203D01*
X10453D02*
X10420D01*
X10403Y2131D01*
Y2064D01*
X10420Y2047D01*
X10453D01*
X10470Y2064D01*
Y2131D01*
X10453Y2147D01*
X10503D02*
Y2064D01*
X10520Y2047D01*
X10553D01*
X10570Y2064D01*
Y2147D01*
X10603D02*
X10670D01*
X10636D01*
Y2047D01*
X10703Y2147D02*
Y2047D01*
X10770D01*
X10803Y2147D02*
X10836D01*
X10819D01*
Y2047D01*
X10803D01*
X10836D01*
X10886D02*
Y2147D01*
X10953Y2047D01*
Y2147D01*
X11053D02*
X10986D01*
Y2047D01*
X11053D01*
X10986Y2097D02*
X11019D01*
X9803Y2147D02*
Y2047D01*
X9853D01*
X9870Y2064D01*
Y2081D01*
X9853Y2097D01*
X9803D01*
X9853D01*
X9870Y2114D01*
Y2131D01*
X9853Y2147D01*
X9803D01*
X9953D02*
X9920D01*
X9903Y2131D01*
Y2064D01*
X9920Y2047D01*
X9953D01*
X9970Y2064D01*
Y2131D01*
X9953Y2147D01*
X10003Y2047D02*
Y2114D01*
X10036Y2147D01*
X10070Y2114D01*
Y2047D01*
Y2097D01*
X10003D01*
X10103Y2047D02*
Y2147D01*
X10153D01*
X10170Y2131D01*
Y2097D01*
X10153Y2081D01*
X10103D01*
X10136D02*
X10170Y2047D01*
X10203Y2147D02*
Y2047D01*
X10253D01*
X10270Y2064D01*
Y2131D01*
X10253Y2147D01*
X10203D01*
X10453D02*
X10420D01*
X10403Y2131D01*
Y2064D01*
X10420Y2047D01*
X10453D01*
X10470Y2064D01*
Y2131D01*
X10453Y2147D01*
X10503D02*
Y2064D01*
X10520Y2047D01*
X10553D01*
X10570Y2064D01*
Y2147D01*
X10603D02*
X10670D01*
X10636D01*
Y2047D01*
X10703Y2147D02*
Y2047D01*
X10770D01*
X10803Y2147D02*
X10836D01*
X10819D01*
Y2047D01*
X10803D01*
X10836D01*
X10886D02*
Y2147D01*
X10953Y2047D01*
Y2147D01*
X11053D02*
X10986D01*
Y2047D01*
X11053D01*
X10986Y2097D02*
X11019D01*
M02*
