G04*
G04 #@! TF.GenerationSoftware,Altium Limited,CircuitStudio,1.5.1 (13)*
G04*
G04 Layer_Color=20142*
%FSLAX23Y23*%
%MOIN*%
G70*
G01*
G75*
%ADD43C,0.010*%
%ADD44C,0.020*%
%ADD79R,0.083X0.030*%
%ADD80R,0.068X0.058*%
%ADD81R,0.058X0.068*%
%ADD82R,0.058X0.115*%
%ADD83R,0.058X0.055*%
%ADD84R,0.039X0.071*%
%ADD85R,0.144X0.081*%
%ADD86R,0.055X0.058*%
G04:AMPARAMS|DCode=87|XSize=66mil|YSize=24mil|CornerRadius=6mil|HoleSize=0mil|Usage=FLASHONLY|Rotation=0.000|XOffset=0mil|YOffset=0mil|HoleType=Round|Shape=RoundedRectangle|*
%AMROUNDEDRECTD87*
21,1,0.066,0.012,0,0,0.0*
21,1,0.054,0.024,0,0,0.0*
1,1,0.012,0.027,-0.006*
1,1,0.012,-0.027,-0.006*
1,1,0.012,-0.027,0.006*
1,1,0.012,0.027,0.006*
%
%ADD87ROUNDEDRECTD87*%
%ADD88R,0.055X0.040*%
%ADD89R,0.043X0.045*%
%ADD90R,0.043X0.045*%
%ADD91R,0.063X0.173*%
%ADD92R,0.071X0.039*%
%ADD93R,0.032X0.058*%
%ADD94R,0.032X0.036*%
%ADD95R,0.169X0.158*%
%ADD96R,0.038X0.031*%
%ADD97R,0.014X0.020*%
%ADD98R,0.055X0.032*%
G04:AMPARAMS|DCode=99|XSize=83mil|YSize=141mil|CornerRadius=7mil|HoleSize=0mil|Usage=FLASHONLY|Rotation=0.000|XOffset=0mil|YOffset=0mil|HoleType=Round|Shape=RoundedRectangle|*
%AMROUNDEDRECTD99*
21,1,0.083,0.127,0,0,0.0*
21,1,0.070,0.141,0,0,0.0*
1,1,0.013,0.035,-0.064*
1,1,0.013,-0.035,-0.064*
1,1,0.013,-0.035,0.064*
1,1,0.013,0.035,0.064*
%
%ADD99ROUNDEDRECTD99*%
%ADD100R,0.087X0.232*%
G04:AMPARAMS|DCode=101|XSize=83mil|YSize=141mil|CornerRadius=7mil|HoleSize=0mil|Usage=FLASHONLY|Rotation=270.000|XOffset=0mil|YOffset=0mil|HoleType=Round|Shape=RoundedRectangle|*
%AMROUNDEDRECTD101*
21,1,0.083,0.127,0,0,270.0*
21,1,0.070,0.141,0,0,270.0*
1,1,0.013,-0.064,-0.035*
1,1,0.013,-0.064,0.035*
1,1,0.013,0.064,0.035*
1,1,0.013,0.064,-0.035*
%
%ADD101ROUNDEDRECTD101*%
%ADD102R,0.055X0.024*%
G04:AMPARAMS|DCode=103|XSize=65mil|YSize=31mil|CornerRadius=7mil|HoleSize=0mil|Usage=FLASHONLY|Rotation=270.000|XOffset=0mil|YOffset=0mil|HoleType=Round|Shape=RoundedRectangle|*
%AMROUNDEDRECTD103*
21,1,0.065,0.017,0,0,270.0*
21,1,0.051,0.031,0,0,270.0*
1,1,0.014,-0.009,-0.026*
1,1,0.014,-0.009,0.026*
1,1,0.014,0.009,0.026*
1,1,0.014,0.009,-0.026*
%
%ADD103ROUNDEDRECTD103*%
%ADD104R,0.043X0.039*%
%ADD105R,0.032X0.058*%
%ADD106R,0.045X0.043*%
%ADD107R,0.045X0.043*%
G04:AMPARAMS|DCode=108|XSize=86mil|YSize=32mil|CornerRadius=7mil|HoleSize=0mil|Usage=FLASHONLY|Rotation=0.000|XOffset=0mil|YOffset=0mil|HoleType=Round|Shape=RoundedRectangle|*
%AMROUNDEDRECTD108*
21,1,0.086,0.018,0,0,0.0*
21,1,0.072,0.032,0,0,0.0*
1,1,0.014,0.036,-0.009*
1,1,0.014,-0.036,-0.009*
1,1,0.014,-0.036,0.009*
1,1,0.014,0.036,0.009*
%
%ADD108ROUNDEDRECTD108*%
%ADD109R,0.225X0.085*%
%ADD110R,0.062X0.052*%
%ADD111R,0.078X0.078*%
%ADD112C,0.078*%
%ADD113C,0.099*%
%ADD114R,0.099X0.099*%
%ADD115C,0.071*%
%ADD116R,0.071X0.071*%
%ADD117C,0.183*%
%ADD118C,0.068*%
%ADD119R,0.068X0.068*%
%ADD120C,0.165*%
%ADD121C,0.095*%
%ADD122C,0.114*%
%ADD123R,0.064X0.064*%
%ADD124R,0.068X0.068*%
%ADD125C,0.068*%
%ADD126C,0.102*%
%ADD127R,0.071X0.071*%
%ADD128C,0.048*%
%ADD129C,0.087*%
%ADD130R,0.087X0.087*%
%ADD131R,0.063X0.087*%
%ADD132O,0.063X0.087*%
%ADD133C,0.038*%
G36*
X4415Y7441D02*
X4416D01*
Y7283D01*
X4343D01*
Y7421D01*
X4333D01*
Y7469D01*
X4365D01*
Y7441D01*
X4384D01*
Y7469D01*
X4415D01*
Y7441D01*
D02*
G37*
G36*
X4515Y7421D02*
X4505D01*
Y7283D01*
X4432D01*
Y7441D01*
X4433D01*
Y7469D01*
X4464D01*
Y7441D01*
X4483D01*
Y7469D01*
X4515D01*
Y7421D01*
D02*
G37*
D43*
X6398Y2500D02*
X7815D01*
Y3051D01*
X6398D02*
X7815D01*
X6398Y2500D02*
Y3051D01*
X4429Y2500D02*
Y3051D01*
Y2500D02*
X5846D01*
Y3051D01*
X4429D02*
X5846D01*
X1772Y8268D02*
X8858D01*
Y1969D02*
Y8268D01*
X1772Y1969D02*
Y8268D01*
Y1969D02*
X8858D01*
X8858Y1969D01*
D44*
X9813Y3702D02*
X9880D01*
X9846D01*
Y3602D01*
X9963Y3702D02*
X9930D01*
X9913Y3685D01*
Y3619D01*
X9930Y3602D01*
X9963D01*
X9980Y3619D01*
Y3685D01*
X9963Y3702D01*
X10013Y3602D02*
Y3702D01*
X10063D01*
X10080Y3685D01*
Y3652D01*
X10063Y3635D01*
X10013D01*
X10280Y3685D02*
X10263Y3702D01*
X10230D01*
X10213Y3685D01*
Y3669D01*
X10230Y3652D01*
X10263D01*
X10280Y3635D01*
Y3619D01*
X10263Y3602D01*
X10230D01*
X10213Y3619D01*
X10313Y3602D02*
Y3702D01*
X10346Y3669D01*
X10380Y3702D01*
Y3602D01*
X9803Y2147D02*
Y2047D01*
X9853D01*
X9870Y2064D01*
Y2081D01*
X9853Y2097D01*
X9803D01*
X9853D01*
X9870Y2114D01*
Y2131D01*
X9853Y2147D01*
X9803D01*
X9953D02*
X9920D01*
X9903Y2131D01*
Y2064D01*
X9920Y2047D01*
X9953D01*
X9970Y2064D01*
Y2131D01*
X9953Y2147D01*
X10003Y2047D02*
Y2114D01*
X10036Y2147D01*
X10070Y2114D01*
Y2047D01*
Y2097D01*
X10003D01*
X10103Y2047D02*
Y2147D01*
X10153D01*
X10170Y2131D01*
Y2097D01*
X10153Y2081D01*
X10103D01*
X10136D02*
X10170Y2047D01*
X10203Y2147D02*
Y2047D01*
X10253D01*
X10270Y2064D01*
Y2131D01*
X10253Y2147D01*
X10203D01*
X10453D02*
X10420D01*
X10403Y2131D01*
Y2064D01*
X10420Y2047D01*
X10453D01*
X10470Y2064D01*
Y2131D01*
X10453Y2147D01*
X10503D02*
Y2064D01*
X10520Y2047D01*
X10553D01*
X10570Y2064D01*
Y2147D01*
X10603D02*
X10670D01*
X10636D01*
Y2047D01*
X10703Y2147D02*
Y2047D01*
X10770D01*
X10803Y2147D02*
X10836D01*
X10819D01*
Y2047D01*
X10803D01*
X10836D01*
X10886D02*
Y2147D01*
X10953Y2047D01*
Y2147D01*
X11053D02*
X10986D01*
Y2047D01*
X11053D01*
X10986Y2097D02*
X11019D01*
D79*
X4585Y4207D02*
D03*
Y4157D02*
D03*
Y4257D02*
D03*
Y4307D02*
D03*
X4372Y4257D02*
D03*
Y4157D02*
D03*
Y4207D02*
D03*
Y4307D02*
D03*
X6553Y4207D02*
D03*
Y4157D02*
D03*
Y4257D02*
D03*
Y4307D02*
D03*
X6341Y4257D02*
D03*
Y4157D02*
D03*
Y4207D02*
D03*
Y4307D02*
D03*
D80*
X4798Y4360D02*
D03*
X4710D02*
D03*
X6766Y4400D02*
D03*
X6679D02*
D03*
X2318Y3031D02*
D03*
X2406D02*
D03*
X3154Y3996D02*
D03*
X3066D02*
D03*
X2161Y2303D02*
D03*
X2249D02*
D03*
X2382Y2126D02*
D03*
X2469D02*
D03*
X2633Y3681D02*
D03*
X2721D02*
D03*
X3263Y6752D02*
D03*
X3351D02*
D03*
X6540Y6762D02*
D03*
X6452D02*
D03*
Y6663D02*
D03*
X6540D02*
D03*
X2406Y4606D02*
D03*
X2318D02*
D03*
X3154Y4094D02*
D03*
X3066D02*
D03*
Y2618D02*
D03*
X3154D02*
D03*
X4508Y6929D02*
D03*
X4595D02*
D03*
X7279Y7146D02*
D03*
X7367D02*
D03*
X7496Y6929D02*
D03*
X7583D02*
D03*
X2725Y2106D02*
D03*
X2638D02*
D03*
X3381Y3504D02*
D03*
X3469D02*
D03*
Y3406D02*
D03*
X3381D02*
D03*
X3465Y3780D02*
D03*
X3377D02*
D03*
X3823Y3406D02*
D03*
X3736D02*
D03*
X3952Y3583D02*
D03*
X4040D02*
D03*
X3952Y3484D02*
D03*
X4040D02*
D03*
X3952Y3681D02*
D03*
X4040D02*
D03*
X3066Y2520D02*
D03*
X3154D02*
D03*
X3952Y2362D02*
D03*
X4040D02*
D03*
X3381Y2185D02*
D03*
X3469D02*
D03*
X3823Y2087D02*
D03*
X3736D02*
D03*
X3469D02*
D03*
X3381D02*
D03*
X3465Y2461D02*
D03*
X3377D02*
D03*
X2067Y3583D02*
D03*
X2154D02*
D03*
X6993Y3110D02*
D03*
X6905D02*
D03*
X6776D02*
D03*
X6689D02*
D03*
X7102Y3209D02*
D03*
X7189D02*
D03*
X8381Y3878D02*
D03*
X8469D02*
D03*
X8381Y5531D02*
D03*
X8469D02*
D03*
X5024Y3110D02*
D03*
X4937D02*
D03*
X4808D02*
D03*
X4720D02*
D03*
X5153Y3209D02*
D03*
X5241D02*
D03*
X4169Y2461D02*
D03*
X4256D02*
D03*
X3952D02*
D03*
X4040D02*
D03*
X3952Y3780D02*
D03*
X4040D02*
D03*
X4169D02*
D03*
X4256D02*
D03*
X3952Y2264D02*
D03*
X4040D02*
D03*
X4650Y6102D02*
D03*
X4563D02*
D03*
X3952Y2165D02*
D03*
X4040D02*
D03*
D81*
X3640Y6210D02*
D03*
Y6122D02*
D03*
Y5901D02*
D03*
Y5989D02*
D03*
X6935Y7878D02*
D03*
Y7791D02*
D03*
X1969Y3902D02*
D03*
Y3814D02*
D03*
X4291Y7701D02*
D03*
Y7614D02*
D03*
X3652Y5221D02*
D03*
Y5133D02*
D03*
X6817Y8115D02*
D03*
Y8027D02*
D03*
X6935D02*
D03*
Y8115D02*
D03*
X6870Y7091D02*
D03*
Y7003D02*
D03*
X6988D02*
D03*
Y7091D02*
D03*
Y7327D02*
D03*
Y7240D02*
D03*
X7106D02*
D03*
Y7327D02*
D03*
X6614Y6255D02*
D03*
Y6343D02*
D03*
X6737D02*
D03*
Y6255D02*
D03*
X6614Y6107D02*
D03*
Y6019D02*
D03*
X6737Y6107D02*
D03*
Y6019D02*
D03*
X5157Y3913D02*
D03*
Y4000D02*
D03*
X7087D02*
D03*
Y3913D02*
D03*
X4626Y2189D02*
D03*
Y2102D02*
D03*
X6614Y2189D02*
D03*
Y2102D02*
D03*
D82*
X3753Y5374D02*
D03*
X3648D02*
D03*
Y5551D02*
D03*
X3753D02*
D03*
D83*
X3533Y5423D02*
D03*
X3534Y5502D02*
D03*
X7284Y6949D02*
D03*
X7283Y6870D02*
D03*
X4709Y4257D02*
D03*
X4709Y4178D02*
D03*
X4242Y4331D02*
D03*
X4242Y4252D02*
D03*
X6211Y4252D02*
D03*
X6211Y4331D02*
D03*
X7039Y3544D02*
D03*
X7039Y3465D02*
D03*
X4390Y6929D02*
D03*
X4390Y7008D02*
D03*
X6697Y8031D02*
D03*
X6698Y8111D02*
D03*
X6762Y7008D02*
D03*
X6762Y7087D02*
D03*
X6501Y6102D02*
D03*
X6501Y6181D02*
D03*
X6678Y4178D02*
D03*
X6678Y4257D02*
D03*
X7441Y3464D02*
D03*
X7441Y3544D02*
D03*
X3602Y3465D02*
D03*
X3602Y3386D02*
D03*
X3838Y3740D02*
D03*
X3839Y3819D02*
D03*
X3838Y2421D02*
D03*
X3839Y2500D02*
D03*
X3602Y2146D02*
D03*
X3602Y2067D02*
D03*
X5205Y3464D02*
D03*
X5205Y3544D02*
D03*
X5406D02*
D03*
X5405Y3464D02*
D03*
X4075Y7697D02*
D03*
X4075Y7618D02*
D03*
X4252Y6006D02*
D03*
X4252Y5926D02*
D03*
X3642Y6308D02*
D03*
X3642Y6388D02*
D03*
X3898Y5807D02*
D03*
X3898Y5886D02*
D03*
X3504Y5905D02*
D03*
X3504Y5985D02*
D03*
D84*
X7052Y7748D02*
D03*
Y7882D02*
D03*
X2451Y2530D02*
D03*
Y2663D02*
D03*
Y4104D02*
D03*
Y4238D02*
D03*
X7053Y8138D02*
D03*
Y8004D02*
D03*
X6791Y3949D02*
D03*
Y4083D02*
D03*
X4833Y3949D02*
D03*
Y4083D02*
D03*
X4350Y2283D02*
D03*
Y2150D02*
D03*
X6319Y2283D02*
D03*
Y2150D02*
D03*
D85*
X4547Y5512D02*
D03*
X2322Y3699D02*
D03*
X3622Y4498D02*
D03*
X7953Y6634D02*
D03*
X7274Y4380D02*
D03*
X3720Y3130D02*
D03*
D86*
X3740Y4148D02*
D03*
X3661Y4148D02*
D03*
X3189Y4224D02*
D03*
X3110Y4225D02*
D03*
X3032Y4331D02*
D03*
X2952Y4331D02*
D03*
X3189Y4449D02*
D03*
X3268Y4449D02*
D03*
X3740Y4252D02*
D03*
X3661Y4252D02*
D03*
X2957Y2854D02*
D03*
X3036Y2854D02*
D03*
X3114Y2748D02*
D03*
X3194Y2748D02*
D03*
X3666Y2671D02*
D03*
X3745Y2671D02*
D03*
X3666Y2776D02*
D03*
X3745Y2775D02*
D03*
X7559Y7047D02*
D03*
X7480Y7047D02*
D03*
X7284Y6100D02*
D03*
X7204Y6100D02*
D03*
X3347Y2885D02*
D03*
X3267Y2885D02*
D03*
X7992Y3898D02*
D03*
X8071Y3898D02*
D03*
X7992Y5551D02*
D03*
X8071Y5551D02*
D03*
D87*
X3312Y4250D02*
D03*
Y4224D02*
D03*
Y4199D02*
D03*
Y4173D02*
D03*
Y4148D02*
D03*
Y4122D02*
D03*
Y4096D02*
D03*
X3538D02*
D03*
Y4122D02*
D03*
Y4148D02*
D03*
Y4173D02*
D03*
Y4199D02*
D03*
Y4224D02*
D03*
Y4250D02*
D03*
X3317Y2774D02*
D03*
Y2748D02*
D03*
Y2722D02*
D03*
Y2697D02*
D03*
Y2671D02*
D03*
Y2646D02*
D03*
Y2620D02*
D03*
X3543D02*
D03*
Y2646D02*
D03*
Y2671D02*
D03*
Y2697D02*
D03*
Y2722D02*
D03*
Y2748D02*
D03*
Y2774D02*
D03*
D88*
X2329Y4007D02*
D03*
Y3907D02*
D03*
X2081D02*
D03*
Y4007D02*
D03*
Y2492D02*
D03*
Y2392D02*
D03*
X2329D02*
D03*
Y2492D02*
D03*
D89*
X2384Y2218D02*
D03*
X2421Y2310D02*
D03*
X2069Y3674D02*
D03*
X2106Y3767D02*
D03*
X2640Y3766D02*
D03*
X2677Y3858D02*
D03*
X3270Y6844D02*
D03*
X3307Y6936D02*
D03*
X6888Y6065D02*
D03*
X6851Y5973D02*
D03*
X2640Y2191D02*
D03*
X2677Y2283D02*
D03*
D90*
X2459Y2218D02*
D03*
X2144Y3674D02*
D03*
X2715Y3766D02*
D03*
X3344Y6844D02*
D03*
X6926Y5973D02*
D03*
X2715Y2191D02*
D03*
D91*
X3642Y5738D02*
D03*
X3799D02*
D03*
D92*
X3299Y7037D02*
D03*
X3433D02*
D03*
X7409Y7343D02*
D03*
X7276D02*
D03*
Y7264D02*
D03*
X7409D02*
D03*
X3358Y3681D02*
D03*
X3492D02*
D03*
X3358Y3602D02*
D03*
X3492D02*
D03*
X3358Y2283D02*
D03*
X3492D02*
D03*
X3358Y2362D02*
D03*
X3492D02*
D03*
X6843Y3209D02*
D03*
X6976D02*
D03*
X6587D02*
D03*
X6720D02*
D03*
X4874D02*
D03*
X5008D02*
D03*
X4618D02*
D03*
X4752D02*
D03*
D93*
X4334Y7900D02*
D03*
X4384D02*
D03*
X4434D02*
D03*
X4484D02*
D03*
X4170D02*
D03*
X4120D02*
D03*
X4070D02*
D03*
X4020D02*
D03*
D94*
X4484Y8116D02*
D03*
X4434D02*
D03*
X4384D02*
D03*
X4334D02*
D03*
X4020D02*
D03*
X4070D02*
D03*
X4120D02*
D03*
X4170D02*
D03*
D95*
X4409Y8027D02*
D03*
X4095D02*
D03*
D96*
X4505Y8072D02*
D03*
X4314D02*
D03*
X4314Y7977D02*
D03*
X4505Y7977D02*
D03*
X4190D02*
D03*
X3999Y7977D02*
D03*
X3999Y8072D02*
D03*
X4190D02*
D03*
D97*
X4326Y8096D02*
D03*
X4493D02*
D03*
X4178D02*
D03*
X4011D02*
D03*
D98*
X7002Y6100D02*
D03*
Y6063D02*
D03*
Y6026D02*
D03*
X7101D02*
D03*
Y6100D02*
D03*
D99*
X4659Y7874D02*
D03*
X4869D02*
D03*
Y7362D02*
D03*
X4659D02*
D03*
X4583Y4016D02*
D03*
X4374D02*
D03*
X6342D02*
D03*
X6552D02*
D03*
D100*
X5236Y8104D02*
D03*
Y7722D02*
D03*
X5787D02*
D03*
Y8104D02*
D03*
X6339Y8104D02*
D03*
Y7722D02*
D03*
X5239Y7014D02*
D03*
Y7396D02*
D03*
X5787D02*
D03*
Y7014D02*
D03*
X6339Y7014D02*
D03*
Y7396D02*
D03*
D101*
X3160Y4608D02*
D03*
Y4817D02*
D03*
X2992D02*
D03*
Y4608D02*
D03*
Y3033D02*
D03*
Y3243D02*
D03*
X3160D02*
D03*
Y3033D02*
D03*
D102*
X3112Y4356D02*
D03*
Y4331D02*
D03*
Y4305D02*
D03*
X3187D02*
D03*
Y4356D02*
D03*
X3191Y2880D02*
D03*
Y2829D02*
D03*
X3117D02*
D03*
Y2854D02*
D03*
Y2880D02*
D03*
X7285Y7022D02*
D03*
Y7073D02*
D03*
X7360D02*
D03*
Y7047D02*
D03*
Y7022D02*
D03*
X7837Y5537D02*
D03*
Y5512D02*
D03*
Y5486D02*
D03*
X7911D02*
D03*
Y5537D02*
D03*
X7837Y3884D02*
D03*
Y3858D02*
D03*
Y3833D02*
D03*
X7911D02*
D03*
Y3884D02*
D03*
D103*
X3896Y6108D02*
D03*
X3858D02*
D03*
X3821D02*
D03*
Y6018D02*
D03*
X3858D02*
D03*
X3896D02*
D03*
D104*
X4173Y7612D02*
D03*
Y7703D02*
D03*
X4291Y7008D02*
D03*
Y6917D02*
D03*
D105*
X4349Y7230D02*
D03*
X4399D02*
D03*
X4449D02*
D03*
X4499D02*
D03*
D106*
X6995Y3919D02*
D03*
X6903Y3957D02*
D03*
X5056Y3919D02*
D03*
X4964Y3957D02*
D03*
X4534Y2108D02*
D03*
X4442Y2146D02*
D03*
X6523Y2108D02*
D03*
X6430Y2146D02*
D03*
D107*
X6995Y3994D02*
D03*
X5056D02*
D03*
X4534Y2183D02*
D03*
X6523D02*
D03*
D108*
X3643Y3677D02*
D03*
Y3627D02*
D03*
Y3577D02*
D03*
Y3527D02*
D03*
X3837D02*
D03*
Y3577D02*
D03*
Y3627D02*
D03*
Y3677D02*
D03*
X3643Y2358D02*
D03*
Y2308D02*
D03*
Y2258D02*
D03*
Y2208D02*
D03*
X3837D02*
D03*
Y2258D02*
D03*
Y2308D02*
D03*
Y2358D02*
D03*
D109*
X6831Y3463D02*
D03*
Y3663D02*
D03*
X7244Y3463D02*
D03*
Y3663D02*
D03*
X5610Y3463D02*
D03*
Y3663D02*
D03*
X5000Y3463D02*
D03*
Y3663D02*
D03*
D110*
X3819Y6270D02*
D03*
Y6388D02*
D03*
D111*
X4250Y2282D02*
D03*
X6219D02*
D03*
D112*
X4250Y2182D02*
D03*
X6219D02*
D03*
D113*
X3504Y8104D02*
D03*
X3209D02*
D03*
X3504Y7907D02*
D03*
X3209D02*
D03*
Y7120D02*
D03*
X3504Y7711D02*
D03*
X3209D02*
D03*
D114*
X3504Y7120D02*
D03*
D115*
X6457Y5106D02*
D03*
Y5206D02*
D03*
X4824Y7736D02*
D03*
X3780Y5126D02*
D03*
X4656Y6220D02*
D03*
X4823Y7205D02*
D03*
D116*
X6457Y5006D02*
D03*
X3780Y5226D02*
D03*
D117*
X8691Y7500D02*
D03*
X3887D02*
D03*
X8691Y4666D02*
D03*
X3887D02*
D03*
D118*
X6299Y6766D02*
D03*
Y6666D02*
D03*
Y6566D02*
D03*
Y6466D02*
D03*
Y6366D02*
D03*
Y6266D02*
D03*
Y6166D02*
D03*
Y6066D02*
D03*
Y5966D02*
D03*
Y5706D02*
D03*
Y5606D02*
D03*
Y5506D02*
D03*
Y5406D02*
D03*
Y5306D02*
D03*
Y5206D02*
D03*
Y5106D02*
D03*
X4399Y5706D02*
D03*
Y5806D02*
D03*
Y5906D02*
D03*
Y6006D02*
D03*
Y6106D02*
D03*
Y6206D02*
D03*
Y6306D02*
D03*
Y5006D02*
D03*
Y5106D02*
D03*
Y5206D02*
D03*
Y5306D02*
D03*
Y5406D02*
D03*
X2859Y4606D02*
D03*
Y4506D02*
D03*
Y4106D02*
D03*
Y4006D02*
D03*
X2559D02*
D03*
Y4106D02*
D03*
Y4506D02*
D03*
X2563Y2931D02*
D03*
Y2531D02*
D03*
Y2431D02*
D03*
X2863D02*
D03*
Y2531D02*
D03*
Y2931D02*
D03*
Y3031D02*
D03*
X6553Y4017D02*
D03*
X6342Y4016D02*
D03*
X4583D02*
D03*
X4374D02*
D03*
X6437Y7396D02*
D03*
X6437Y7722D02*
D03*
Y8104D02*
D03*
X6437Y7014D02*
D03*
X2859Y4817D02*
D03*
X2864Y3243D02*
D03*
X4870Y7874D02*
D03*
X5236Y8104D02*
D03*
X5787Y8104D02*
D03*
X4869Y7362D02*
D03*
X5239Y7008D02*
D03*
X5787Y7014D02*
D03*
X6339Y7014D02*
D03*
X7274Y4380D02*
D03*
D119*
X6299Y5866D02*
D03*
Y5006D02*
D03*
X4399Y6406D02*
D03*
Y5506D02*
D03*
X2559Y4606D02*
D03*
X2563Y3031D02*
D03*
D120*
X8307Y3504D02*
D03*
X1969Y8071D02*
D03*
X8661Y8075D02*
D03*
Y2165D02*
D03*
X1969D02*
D03*
X2323Y7638D02*
D03*
Y6890D02*
D03*
Y5984D02*
D03*
Y5236D02*
D03*
X8307Y5157D02*
D03*
Y5906D02*
D03*
Y4252D02*
D03*
D121*
X8157Y3704D02*
D03*
Y3304D02*
D03*
X8557Y3704D02*
D03*
Y3304D02*
D03*
X2072Y7838D02*
D03*
Y7438D02*
D03*
X2472Y7838D02*
D03*
Y7438D02*
D03*
Y6690D02*
D03*
Y7090D02*
D03*
X2072Y6690D02*
D03*
Y7090D02*
D03*
Y6184D02*
D03*
Y5784D02*
D03*
X2472Y6184D02*
D03*
Y5784D02*
D03*
Y5036D02*
D03*
Y5436D02*
D03*
X2072Y5036D02*
D03*
Y5436D02*
D03*
X8157Y5357D02*
D03*
Y4957D02*
D03*
X8557Y5357D02*
D03*
Y4957D02*
D03*
Y5706D02*
D03*
Y6106D02*
D03*
X8157Y5706D02*
D03*
Y6106D02*
D03*
Y4452D02*
D03*
Y4052D02*
D03*
X8557Y4452D02*
D03*
Y4052D02*
D03*
D122*
X1949Y2657D02*
D03*
Y2957D02*
D03*
Y4472D02*
D03*
Y4173D02*
D03*
D123*
X2256Y2807D02*
D03*
Y4323D02*
D03*
D124*
X2843Y6437D02*
D03*
D125*
X2725D02*
D03*
X2607D02*
D03*
D126*
X2954D02*
D03*
X2497D02*
D03*
D127*
X4724Y7736D02*
D03*
X4556Y6220D02*
D03*
X4723Y7205D02*
D03*
D128*
X6181Y6266D02*
D03*
D129*
X6793Y4252D02*
D03*
X7274D02*
D03*
Y3780D02*
D03*
X6793D02*
D03*
X4825D02*
D03*
X5305D02*
D03*
Y4252D02*
D03*
X4825D02*
D03*
D130*
X6693Y4016D02*
D03*
X4724D02*
D03*
D131*
X6772Y3327D02*
D03*
X4803D02*
D03*
D132*
X6839D02*
D03*
X6906D02*
D03*
X6972D02*
D03*
X7039D02*
D03*
X7106D02*
D03*
X7173D02*
D03*
X7240D02*
D03*
X7307D02*
D03*
X7374D02*
D03*
X7441D02*
D03*
X5472D02*
D03*
X5406D02*
D03*
X5339D02*
D03*
X5272D02*
D03*
X5205D02*
D03*
X5138D02*
D03*
X5071D02*
D03*
X5004D02*
D03*
X4937D02*
D03*
X4870D02*
D03*
D133*
X3268Y5039D02*
D03*
X4035Y5148D02*
D03*
X3753Y5463D02*
D03*
X3543Y5000D02*
D03*
X4180Y3858D02*
D03*
X3602Y2722D02*
D03*
Y2815D02*
D03*
X3996Y6004D02*
D03*
X8406Y5591D02*
D03*
X7913Y3937D02*
D03*
X7161Y4000D02*
D03*
X6341Y4362D02*
D03*
X6693Y2185D02*
D03*
X4700Y2189D02*
D03*
X4242Y4400D02*
D03*
X4370Y4370D02*
D03*
X7717Y7264D02*
D03*
X7579D02*
D03*
X4232Y7900D02*
D03*
X4449Y7136D02*
D03*
X4252Y7224D02*
D03*
X4301D02*
D03*
X5039Y8140D02*
D03*
X4291Y7900D02*
D03*
X3927D02*
D03*
X3976D02*
D03*
X4449Y7185D02*
D03*
X4075Y6811D02*
D03*
X4484Y7835D02*
D03*
X3374Y4224D02*
D03*
X3376Y2697D02*
D03*
X3405Y4173D02*
D03*
X2972Y3602D02*
D03*
X3445Y4429D02*
D03*
X2638Y2037D02*
D03*
X3543Y2579D02*
D03*
X4075Y5306D02*
D03*
X3242Y4305D02*
D03*
X3524D02*
D03*
X4173Y7657D02*
D03*
Y7835D02*
D03*
X3642Y6447D02*
D03*
X7204Y6166D02*
D03*
X6439Y6102D02*
D03*
X7337Y6100D02*
D03*
X6501Y6250D02*
D03*
X6988Y7411D02*
D03*
X7559Y7126D02*
D03*
X6935Y7707D02*
D03*
X6697Y7973D02*
D03*
X4369Y7701D02*
D03*
X2318Y4685D02*
D03*
X3066Y3922D02*
D03*
X3258Y4199D02*
D03*
X3602Y4101D02*
D03*
X2904Y2854D02*
D03*
X3066Y2445D02*
D03*
X3258Y2722D02*
D03*
X3612Y2630D02*
D03*
X2318Y3106D02*
D03*
X4595Y7002D02*
D03*
X3563Y6201D02*
D03*
X6762Y7146D02*
D03*
X3327Y4449D02*
D03*
X3793Y4148D02*
D03*
X3207Y4169D02*
D03*
X3031Y2736D02*
D03*
X3194Y2687D02*
D03*
X3858Y5955D02*
D03*
X2894Y4331D02*
D03*
X3051Y4225D02*
D03*
X6888Y6122D02*
D03*
X4094Y6870D02*
D03*
X4035Y5206D02*
D03*
X7283Y6811D02*
D03*
X7343Y7205D02*
D03*
X7185Y7323D02*
D03*
X7475Y7343D02*
D03*
X2244Y3583D02*
D03*
X3374Y2748D02*
D03*
X2382Y2008D02*
D03*
X2513Y2218D02*
D03*
X3256Y4122D02*
D03*
X3248Y2618D02*
D03*
X3666Y2839D02*
D03*
X2933Y3406D02*
D03*
X3377Y2550D02*
D03*
X3736Y2161D02*
D03*
Y3480D02*
D03*
X3307Y3849D02*
D03*
X3839Y3878D02*
D03*
X4256Y3705D02*
D03*
X3602Y3465D02*
D03*
X3267Y2952D02*
D03*
X3416Y2885D02*
D03*
X4169Y2461D02*
D03*
X3839Y2559D02*
D03*
X3986Y6206D02*
D03*
X3896Y6191D02*
D03*
X2815Y3681D02*
D03*
X3445Y6752D02*
D03*
X2815Y2106D02*
D03*
X6693D02*
D03*
X4705Y2094D02*
D03*
X6142Y3917D02*
D03*
X7205Y3957D02*
D03*
X7101Y4404D02*
D03*
Y5821D02*
D03*
X3189Y4449D02*
D03*
X3661Y4252D02*
D03*
X7284Y6949D02*
D03*
X7480Y7047D02*
D03*
X5000Y3583D02*
D03*
X5610D02*
D03*
X6831D02*
D03*
X7244D02*
D03*
X7106Y3110D02*
D03*
X5157D02*
D03*
X3036Y2854D02*
D03*
X3665Y2671D02*
D03*
X3602Y2146D02*
D03*
X3661Y4145D02*
D03*
X3838Y3740D02*
D03*
X3031Y4272D02*
D03*
X4547Y3209D02*
D03*
X6516D02*
D03*
X7953Y6535D02*
D03*
X7913Y2283D02*
D03*
X8130Y3898D02*
D03*
X7778Y5482D02*
D03*
X7835Y3780D02*
D03*
X4710Y4114D02*
D03*
X5232Y4001D02*
D03*
X6677Y4123D02*
D03*
X4350Y2461D02*
D03*
X3622Y4498D02*
D03*
X4055Y4508D02*
D03*
X6969Y4488D02*
D03*
X6212Y4387D02*
D03*
X3745Y2598D02*
D03*
X3594Y3128D02*
D03*
X8130Y5551D02*
D03*
X8632Y5492D02*
D03*
Y3839D02*
D03*
X8652Y5571D02*
D03*
X8653Y3917D02*
D03*
M02*
