G04*
G04 #@! TF.GenerationSoftware,Altium Limited,CircuitStudio,1.5.1 (13)*
G04*
G04 Layer_Physical_Order=4*
G04 Layer_Color=13382400*
%FSLAX23Y23*%
%MOIN*%
G70*
G01*
G75*
%ADD43C,0.010*%
%ADD44C,0.060*%
%ADD45C,0.020*%
%ADD46C,0.040*%
%ADD48C,0.040*%
%ADD49C,0.063*%
%ADD50R,0.063X0.063*%
%ADD51C,0.087*%
%ADD52C,0.157*%
%ADD53R,0.063X0.063*%
%ADD54C,0.060*%
%ADD55R,0.060X0.060*%
%ADD56C,0.094*%
%ADD57C,0.060*%
%ADD58R,0.060X0.060*%
%ADD59C,0.106*%
%ADD60R,0.056X0.056*%
%ADD61R,0.079X0.079*%
%ADD62C,0.079*%
%ADD63C,0.091*%
%ADD64R,0.091X0.091*%
%ADD65C,0.175*%
%ADD66C,0.030*%
%ADD67R,0.126X0.039*%
D43*
X4941Y4350D02*
Y4557D01*
X6496Y2766D02*
X6575Y2687D01*
X6496Y2766D02*
Y4351D01*
X6348Y2687D02*
X6417Y2756D01*
Y4035D01*
X6319Y4134D02*
X6417Y4035D01*
X6319Y4134D02*
Y4272D01*
X6420Y4373D01*
X6575Y4262D02*
Y4272D01*
X6496Y4351D02*
X6575Y4272D01*
X6496Y4351D02*
Y4902D01*
X6535Y4941D01*
X6420Y4373D02*
Y4932D01*
X6396Y4956D02*
X6420Y4932D01*
X6396Y4956D02*
Y5041D01*
X6378Y5059D02*
X6396Y5041D01*
X6240Y5059D02*
X6378D01*
X6358Y4272D02*
X6437Y4350D01*
Y4939D01*
X6413Y4963D02*
X6437Y4939D01*
X6413Y4963D02*
Y5299D01*
X6358Y5354D02*
X6413Y5299D01*
X6097Y5354D02*
X6358D01*
X3194Y2589D02*
Y2899D01*
X3207Y4169D02*
X3223Y4153D01*
X3207Y4169D02*
Y4307D01*
X3193Y4321D02*
X3207Y4307D01*
X3001Y4419D02*
X3339D01*
X3350Y4429D01*
X3445D01*
X2559Y4006D02*
X2859D01*
X2638Y3593D02*
X2933D01*
X2972Y3632D01*
Y4390D01*
X3001Y4419D01*
X2563Y2431D02*
X2863D01*
X3445Y2622D02*
X4127Y3304D01*
X3415Y2537D02*
Y2617D01*
Y2537D02*
X3415Y2536D01*
Y2136D02*
Y2536D01*
X3445Y2549D02*
Y2622D01*
X3317Y2037D02*
X3415Y2136D01*
X3193Y4321D02*
X3232Y4360D01*
X3504D01*
X3543Y4399D01*
Y5073D01*
X3223Y2928D02*
Y4153D01*
X3194Y2899D02*
X3223Y2928D01*
X5650Y2776D02*
Y2982D01*
X5285Y2776D02*
Y2982D01*
X4941Y2776D02*
Y2982D01*
X5637Y2444D02*
Y2670D01*
Y2444D02*
X5640Y2441D01*
X5282Y2444D02*
Y2670D01*
X5285Y2667D01*
X4938Y2444D02*
Y2670D01*
X5640Y4350D02*
Y4557D01*
X5285Y4350D02*
Y4557D01*
X5643Y4023D02*
Y4245D01*
X5288Y4023D02*
Y4245D01*
X4934Y4023D02*
Y4245D01*
X7241Y6946D02*
X7283Y6988D01*
X7172Y6946D02*
X7241D01*
X4173Y7657D02*
Y7835D01*
X3242Y4305D02*
X3524D01*
X4399Y5506D02*
X5945D01*
X6097Y5354D01*
X4399Y5406D02*
X5893D01*
X6240Y5059D01*
X4075Y5306D02*
X4075Y5306D01*
X3268Y5157D02*
X4035D01*
X7399Y5406D02*
X7402Y5404D01*
X6299Y5406D02*
X7399D01*
X3543Y2697D02*
X4144Y3297D01*
X3543Y2480D02*
Y2697D01*
X2638Y2037D02*
X3317D01*
X7283Y5866D02*
X7283Y5866D01*
X6299Y5866D02*
X7283D01*
X3404Y2637D02*
Y2662D01*
X3404Y4142D02*
Y4172D01*
X3391Y2675D02*
Y4129D01*
X3404Y4142D01*
X3391Y2675D02*
X3404Y2662D01*
X3376Y2609D02*
X3404Y2637D01*
X3376Y2598D02*
Y2609D01*
X3374Y2650D02*
Y4224D01*
Y2650D02*
X3374Y2650D01*
X2725Y6437D02*
X2863Y6299D01*
X3799D01*
X3858Y6240D01*
Y5955D02*
Y6240D01*
X4173Y7835D02*
X4484D01*
X3429Y8104D02*
X3504D01*
X3356Y8031D02*
X3429Y8104D01*
X2608Y8031D02*
X3356D01*
X2539Y7963D02*
X2608Y8031D01*
X2539Y6614D02*
Y7963D01*
Y6614D02*
X2628Y6526D01*
X3563D01*
X3642Y6447D01*
X4478Y6988D02*
X4547Y7057D01*
X4055Y6870D02*
X4094D01*
X4035Y6850D02*
X4055Y6870D01*
X4035Y5206D02*
Y5323D01*
X4058Y5346D01*
Y6729D01*
X4035Y6752D02*
X4058Y6729D01*
X4075Y5306D02*
Y6811D01*
X4035Y6752D02*
Y6850D01*
X4065Y6988D02*
X4478D01*
X3976Y6900D02*
X4065Y6988D01*
X3976Y6206D02*
Y6900D01*
X4547Y7057D02*
Y7570D01*
X4595Y7618D01*
X4744D01*
X4774Y7648D01*
X4768Y8031D02*
X4774D01*
X5035D01*
X4774Y7648D02*
Y8031D01*
Y8033D01*
X5039Y8189D02*
X5039Y8189D01*
Y8140D02*
Y8189D01*
X4768Y8189D02*
X5035D01*
X5039D01*
X4127Y5524D02*
X4213Y5610D01*
X6299D01*
X4144Y3297D02*
Y5517D01*
X4220Y5593D01*
X6212D01*
X6299Y5506D01*
X4127Y3304D02*
Y5524D01*
X3415Y2617D02*
X4110Y3311D01*
Y5531D01*
X4208Y5630D01*
X6223D01*
X6299Y5706D01*
X1772Y1969D02*
X8858D01*
X1772D02*
Y8268D01*
X8858Y1969D02*
Y8268D01*
X1772D02*
X8858D01*
D44*
X6201Y4813D02*
X6352D01*
X6260Y3238D02*
X6358D01*
X6181Y3159D02*
X6260Y3238D01*
X6181Y2788D02*
Y3159D01*
X6139Y2746D02*
X6181Y2788D01*
X6083Y2746D02*
X6139D01*
X6171Y4783D02*
X6201Y4813D01*
X6171Y4352D02*
Y4783D01*
X6142Y4323D02*
X6171Y4352D01*
X6075Y4323D02*
X6142D01*
X6566Y3238D02*
X6894D01*
X7087Y3046D01*
X6565Y4813D02*
X7037D01*
X7087Y4764D01*
Y4301D02*
Y4764D01*
X7756Y5039D02*
X7894Y4902D01*
Y3996D02*
Y4902D01*
X7520Y3622D02*
X7894Y3996D01*
X6949Y3622D02*
X7520D01*
X6851Y3720D02*
X6949Y3622D01*
X7382Y4449D02*
Y4921D01*
Y4449D02*
Y4449D01*
X6851Y3720D02*
Y3917D01*
X7234Y4301D02*
X7382Y4449D01*
X7234Y3993D02*
Y4301D01*
X7158Y3917D02*
X7234Y3993D01*
X6851Y3917D02*
X7158D01*
X7382Y4921D02*
X7500Y5039D01*
X7756D01*
X6850Y2461D02*
X7087D01*
X7215Y2589D01*
Y3219D01*
X7343Y3346D01*
X7756D01*
X2480Y5236D02*
X2874D01*
X2362Y5354D02*
X2480Y5236D01*
X2362Y5354D02*
Y7913D01*
X2553Y8104D01*
X3209D01*
X3144Y7972D02*
X3209Y7907D01*
X2795Y7972D02*
X3144D01*
X2736Y7913D02*
X2795Y7972D01*
X2736Y7402D02*
Y7913D01*
Y7402D02*
X2913Y7224D01*
X4344D01*
X4154D02*
X4291Y7087D01*
X4409D01*
X4449Y7126D01*
Y7234D01*
X2874Y7638D02*
X2953Y7559D01*
X3287D01*
X3366Y7638D01*
Y7967D01*
X3504Y8104D01*
X3504Y7900D02*
X4121D01*
X4824Y7736D02*
Y7828D01*
X4870Y7874D01*
X5157D01*
X5236Y7953D01*
Y8110D01*
Y8104D02*
X5787D01*
X5787Y8104D01*
X6437D01*
X4823Y7205D02*
X4869Y7250D01*
Y7362D01*
X4970D01*
X5020Y7313D01*
Y7116D02*
Y7313D01*
Y7116D02*
X5122Y7014D01*
X6437D01*
X4124Y7900D02*
X4232D01*
X4291D01*
X4436D01*
D45*
X6850Y4199D02*
X7142D01*
X6852Y2943D02*
X7136D01*
X7165Y2972D01*
Y3297D01*
X7087Y3376D02*
X7165Y3297D01*
X6791Y3376D02*
X7087D01*
X6722Y3445D02*
X6791Y3376D01*
X6722Y3445D02*
Y4073D01*
X6850Y4201D01*
X7142Y4199D02*
X7187Y4244D01*
Y4321D01*
X7335Y4468D01*
Y4941D01*
X7421Y5027D01*
Y5364D01*
X7204Y6166D02*
X7411D01*
X7480Y6097D01*
Y5423D02*
Y6097D01*
X7421Y5364D02*
X7480Y5423D01*
X2559Y4506D02*
X2787Y4734D01*
X3081D01*
X3159Y4813D01*
Y5217D01*
X3246Y5304D01*
X3780D01*
X2510Y4457D02*
X2559Y4506D01*
X2510Y2985D02*
Y4457D01*
Y2985D02*
X2563Y2931D01*
X9813Y3252D02*
Y3152D01*
X9863D01*
X9880Y3169D01*
Y3185D01*
X9863Y3202D01*
X9813D01*
X9863D01*
X9880Y3219D01*
Y3235D01*
X9863Y3252D01*
X9813D01*
X9963D02*
X9930D01*
X9913Y3235D01*
Y3169D01*
X9930Y3152D01*
X9963D01*
X9980Y3169D01*
Y3235D01*
X9963Y3252D01*
X10013D02*
X10080D01*
X10046D01*
Y3152D01*
X10113Y3252D02*
X10180D01*
X10146D01*
Y3152D01*
X10263Y3252D02*
X10230D01*
X10213Y3235D01*
Y3169D01*
X10230Y3152D01*
X10263D01*
X10280Y3169D01*
Y3235D01*
X10263Y3252D01*
X10313Y3152D02*
Y3252D01*
X10346Y3219D01*
X10380Y3252D01*
Y3152D01*
D46*
X6015Y2746D02*
X6079D01*
X5999Y2731D02*
X6015Y2746D01*
X5844Y2731D02*
X5999D01*
X5827Y2747D02*
X5844Y2731D01*
X5685Y2747D02*
X5827D01*
X5668Y2731D02*
X5685Y2747D01*
X5478Y2731D02*
X5668D01*
X5461Y2747D02*
X5478Y2731D01*
X5321Y2747D02*
X5461D01*
X5304Y2731D02*
X5321Y2747D01*
X5135Y2731D02*
X5304D01*
X5118Y2747D02*
X5135Y2731D01*
X5044Y2747D02*
X5118D01*
X5114Y4322D02*
X5131Y4305D01*
X5041Y4322D02*
X5114D01*
X5039Y4321D02*
X5041Y4322D01*
X5321D02*
X5449D01*
X5304Y4305D02*
X5321Y4322D01*
X5131Y4305D02*
X5304D01*
X6012Y4322D02*
X6073D01*
X5995Y4306D02*
X6012Y4322D01*
X5839Y4306D02*
X5995D01*
X5823Y4322D02*
X5839Y4306D01*
X5675Y4322D02*
X5823D01*
X5658Y4305D02*
X5675Y4322D01*
X5465Y4305D02*
X5658D01*
X5449Y4322D02*
X5465Y4305D01*
D48*
X6181Y6366D02*
D03*
Y6266D02*
D03*
Y5306D02*
D03*
X7913Y7047D02*
D03*
D49*
X7620Y2972D02*
D03*
X7520Y3819D02*
D03*
X4823Y7205D02*
D03*
X4656Y6220D02*
D03*
X3780Y5304D02*
D03*
X2854Y3681D02*
D03*
X4824Y7736D02*
D03*
X6457Y5206D02*
D03*
Y5106D02*
D03*
X3504Y6831D02*
D03*
X7559Y5789D02*
D03*
X2854Y2106D02*
D03*
D50*
X7520Y2972D02*
D03*
X4723Y7205D02*
D03*
X4556Y6220D02*
D03*
X4724Y7736D02*
D03*
D51*
X8006Y2398D02*
D03*
Y2798D02*
D03*
X7606Y2398D02*
D03*
Y2798D02*
D03*
X2624Y5436D02*
D03*
Y5036D02*
D03*
X3024Y5436D02*
D03*
Y5036D02*
D03*
X3024Y5784D02*
D03*
Y6184D02*
D03*
X2624Y5784D02*
D03*
Y6184D02*
D03*
X2624Y7090D02*
D03*
Y6690D02*
D03*
X3024Y7090D02*
D03*
Y6690D02*
D03*
Y7438D02*
D03*
Y7838D02*
D03*
X2624Y7438D02*
D03*
Y7838D02*
D03*
X7606Y3546D02*
D03*
Y3146D02*
D03*
X8006Y3546D02*
D03*
Y3146D02*
D03*
X7606Y5239D02*
D03*
Y4839D02*
D03*
X8006Y5239D02*
D03*
Y4839D02*
D03*
X8006Y4091D02*
D03*
Y4491D02*
D03*
X7606Y4091D02*
D03*
Y4491D02*
D03*
D52*
X7756Y2598D02*
D03*
X2874Y5236D02*
D03*
X2874Y5984D02*
D03*
X2874Y6890D02*
D03*
Y7638D02*
D03*
X7756Y3346D02*
D03*
X1969Y2165D02*
D03*
X8661D02*
D03*
Y8075D02*
D03*
X1969Y8071D02*
D03*
X7756Y5039D02*
D03*
X7756Y4291D02*
D03*
D53*
X7520Y3919D02*
D03*
X3780Y5404D02*
D03*
X2854Y3781D02*
D03*
X6457Y5006D02*
D03*
X3504Y6931D02*
D03*
X7559Y5689D02*
D03*
X2854Y2206D02*
D03*
D54*
X2863Y3031D02*
D03*
Y2931D02*
D03*
Y2531D02*
D03*
Y2431D02*
D03*
X2563D02*
D03*
Y2531D02*
D03*
Y2931D02*
D03*
X2559Y4506D02*
D03*
Y4106D02*
D03*
Y4006D02*
D03*
X2859D02*
D03*
Y4106D02*
D03*
Y4506D02*
D03*
Y4606D02*
D03*
X6299Y6766D02*
D03*
Y6666D02*
D03*
Y6566D02*
D03*
Y6466D02*
D03*
Y6366D02*
D03*
Y6266D02*
D03*
Y6166D02*
D03*
Y6066D02*
D03*
Y5966D02*
D03*
Y5706D02*
D03*
Y5606D02*
D03*
Y5506D02*
D03*
Y5406D02*
D03*
Y5306D02*
D03*
Y5206D02*
D03*
Y5106D02*
D03*
X4399Y5706D02*
D03*
Y5806D02*
D03*
Y5906D02*
D03*
Y6006D02*
D03*
Y6106D02*
D03*
Y6206D02*
D03*
Y6306D02*
D03*
Y5006D02*
D03*
Y5106D02*
D03*
Y5206D02*
D03*
Y5306D02*
D03*
Y5406D02*
D03*
X6339Y7014D02*
D03*
X5787Y7014D02*
D03*
X5239Y7008D02*
D03*
X4869Y7362D02*
D03*
X5787Y8104D02*
D03*
X5236Y8104D02*
D03*
X4870Y7874D02*
D03*
X6358Y3238D02*
D03*
X6352Y4813D02*
D03*
X6566Y3238D02*
D03*
X6565Y4813D02*
D03*
X2864Y3243D02*
D03*
X2859Y4817D02*
D03*
X8504Y5856D02*
D03*
X4921Y3593D02*
D03*
X5276Y3593D02*
D03*
X5630Y3593D02*
D03*
X5984Y3593D02*
D03*
X4606Y3740D02*
D03*
X5989Y3425D02*
D03*
X5634Y3421D02*
D03*
X5280D02*
D03*
X4921D02*
D03*
X4606Y3268D02*
D03*
X4921Y5000D02*
D03*
X5276Y5006D02*
D03*
X5630Y5000D02*
D03*
X5984D02*
D03*
X4606Y4839D02*
D03*
X6437Y7014D02*
D03*
X6437Y8104D02*
D03*
Y7722D02*
D03*
X6437Y7396D02*
D03*
X6161Y2358D02*
D03*
X5630Y2362D02*
D03*
X5277Y2361D02*
D03*
X4921D02*
D03*
X4606Y2343D02*
D03*
D55*
X2563Y3031D02*
D03*
X2559Y4606D02*
D03*
X6299Y5866D02*
D03*
Y5006D02*
D03*
X4399Y6406D02*
D03*
Y5506D02*
D03*
D56*
X2497Y6437D02*
D03*
X2954D02*
D03*
D57*
X2607D02*
D03*
X2725D02*
D03*
D58*
X2843D02*
D03*
D59*
X1949Y4173D02*
D03*
Y4472D02*
D03*
Y2898D02*
D03*
Y2598D02*
D03*
D60*
X2256Y4323D02*
D03*
Y2748D02*
D03*
D61*
X7087Y4301D02*
D03*
Y3041D02*
D03*
D62*
X6850Y4201D02*
D03*
Y3720D02*
D03*
X7323D02*
D03*
Y4201D02*
D03*
X6850Y2941D02*
D03*
Y2461D02*
D03*
X7323D02*
D03*
Y2941D02*
D03*
D63*
X3209Y7711D02*
D03*
X3504D02*
D03*
X3209Y7120D02*
D03*
Y7907D02*
D03*
X3504D02*
D03*
X3209Y8104D02*
D03*
X3504D02*
D03*
D64*
Y7120D02*
D03*
D65*
X8631Y7500D02*
D03*
X3828D02*
D03*
X8631Y4666D02*
D03*
X3828D02*
D03*
D66*
X6079Y2746D02*
D03*
X5725D02*
D03*
X5371D02*
D03*
X5044Y2747D02*
D03*
X6075Y4321D02*
D03*
X5720Y4322D02*
D03*
X5366Y4321D02*
D03*
X5039D02*
D03*
X4941Y4350D02*
D03*
X6348Y2687D02*
D03*
X6535Y4941D02*
D03*
X3937Y2736D02*
D03*
X4055Y4311D02*
D03*
X6888Y6122D02*
D03*
X3051Y4225D02*
D03*
X2894Y4331D02*
D03*
X2894Y4281D02*
D03*
X3858Y5955D02*
D03*
X3809Y5551D02*
D03*
X4414Y2726D02*
D03*
X3194Y2589D02*
D03*
X3031Y2638D02*
D03*
X3207Y4169D02*
D03*
X3793Y4148D02*
D03*
X4272Y4252D02*
D03*
X3327Y4449D02*
D03*
X3130D02*
D03*
X6762Y7146D02*
D03*
X3563Y6201D02*
D03*
X4449Y4245D02*
D03*
X3661Y4317D02*
D03*
X7480Y6979D02*
D03*
X3937Y4291D02*
D03*
X3661Y4075D02*
D03*
X4350Y4472D02*
D03*
X4595Y7002D02*
D03*
X6535Y4238D02*
D03*
X6703Y4306D02*
D03*
X6371Y4173D02*
D03*
X6309Y4306D02*
D03*
X6575Y4262D02*
D03*
X6850Y3421D02*
D03*
X6319Y2742D02*
D03*
X6540Y2657D02*
D03*
X6575Y2687D02*
D03*
X6713Y2740D02*
D03*
X6370Y2608D02*
D03*
X7411Y2749D02*
D03*
X2318Y3106D02*
D03*
X4261Y2677D02*
D03*
X3819Y2740D02*
D03*
X3789Y2573D02*
D03*
X3612Y2531D02*
D03*
X3445Y2549D02*
D03*
X3258Y2624D02*
D03*
X3066Y2347D02*
D03*
X2904Y2756D02*
D03*
X3327Y2874D02*
D03*
X3740Y3396D02*
D03*
X3819Y4317D02*
D03*
X3602Y4101D02*
D03*
X3258Y4199D02*
D03*
X3066Y3922D02*
D03*
X2318Y4685D02*
D03*
X4460Y5198D02*
D03*
X4862Y5279D02*
D03*
X3896Y6171D02*
D03*
X4369Y7701D02*
D03*
X6697Y7973D02*
D03*
X6935Y7707D02*
D03*
X7195Y6811D02*
D03*
X7559Y6979D02*
D03*
X7093Y7093D02*
D03*
X6988Y7411D02*
D03*
X6501Y6250D02*
D03*
X7337Y6100D02*
D03*
X3543Y5073D02*
D03*
X6439Y6102D02*
D03*
X7204Y6166D02*
D03*
X3193Y2940D02*
D03*
X3036Y2825D02*
D03*
X3666Y2740D02*
D03*
X4138Y2740D02*
D03*
X3642Y6447D02*
D03*
X5650Y2776D02*
D03*
Y2982D02*
D03*
X5285Y2776D02*
D03*
Y2982D02*
D03*
X4941Y2776D02*
D03*
Y2982D02*
D03*
X5637Y2670D02*
D03*
X5640Y2441D02*
D03*
X5282Y2444D02*
D03*
Y2670D02*
D03*
X4938Y2444D02*
D03*
Y2670D02*
D03*
X5640Y4350D02*
D03*
Y4557D02*
D03*
X5285Y4350D02*
D03*
Y4557D02*
D03*
X4941D02*
D03*
X5643Y4023D02*
D03*
Y4245D02*
D03*
X5288Y4023D02*
D03*
Y4245D02*
D03*
X4934Y4023D02*
D03*
Y4245D02*
D03*
X7283Y6988D02*
D03*
X7172Y6946D02*
D03*
X4173Y7835D02*
D03*
Y7657D02*
D03*
X3524Y4305D02*
D03*
X3242D02*
D03*
X6358Y4266D02*
D03*
X4075Y5306D02*
D03*
X4035Y5206D02*
D03*
Y5157D02*
D03*
X3268D02*
D03*
X7402Y5404D02*
D03*
X3543Y2480D02*
D03*
X2638Y2037D02*
D03*
X7283Y5866D02*
D03*
X3445Y4429D02*
D03*
X2638Y3593D02*
D03*
X3405Y4173D02*
D03*
X3376Y2598D02*
D03*
X3374Y4224D02*
D03*
X3374Y2650D02*
D03*
X3976Y6206D02*
D03*
X4484Y7835D02*
D03*
X3666Y2500D02*
D03*
X4094Y6870D02*
D03*
X4075Y6811D02*
D03*
X4449Y7185D02*
D03*
X3163Y7953D02*
D03*
X3976Y7900D02*
D03*
X3927D02*
D03*
X4291D02*
D03*
X5039Y8140D02*
D03*
X4301Y7224D02*
D03*
X4252D02*
D03*
X3120Y7972D02*
D03*
X4449Y7136D02*
D03*
X4232Y7900D02*
D03*
X1949Y3612D02*
D03*
X2362Y2283D02*
D03*
X2352Y3563D02*
D03*
D67*
X5035Y8031D02*
D03*
X4768D02*
D03*
Y8189D02*
D03*
X5035D02*
D03*
M02*
