G04*
G04 #@! TF.GenerationSoftware,Altium Limited,CircuitStudio,1.5.1 (13)*
G04*
G04 Layer_Color=15065295*
%FSLAX23Y23*%
%MOIN*%
G70*
G01*
G75*
%ADD47C,0.020*%
%ADD48C,0.010*%
%ADD73C,0.008*%
%ADD74C,0.010*%
%ADD75C,0.004*%
%ADD76C,0.012*%
%ADD77C,0.005*%
%ADD78C,0.004*%
%ADD79C,0.008*%
D47*
X2498Y3031D02*
G03*
X2498Y3031I-10J0D01*
G01*
X2494Y4606D02*
G03*
X2494Y4606I-10J0D01*
G01*
X4026Y7825D02*
G03*
X4026Y7825I-10J0D01*
G01*
X4341D02*
G03*
X4341Y7825I-10J0D01*
G01*
X7913Y2649D02*
Y2559D01*
X7958D01*
X7973Y2574D01*
Y2589D01*
X7958Y2604D01*
X7913D01*
X7958D01*
X7973Y2619D01*
Y2634D01*
X7958Y2649D01*
X7913D01*
X8003D02*
Y2559D01*
X8063D01*
X8093Y2649D02*
Y2559D01*
Y2589D01*
X8153Y2649D01*
X8108Y2604D01*
X8153Y2559D01*
X2461Y5277D02*
Y5187D01*
X2506D01*
X2521Y5202D01*
Y5217D01*
X2506Y5232D01*
X2461D01*
X2506D01*
X2521Y5247D01*
Y5262D01*
X2506Y5277D01*
X2461D01*
X2551D02*
Y5187D01*
X2611D01*
X2641Y5277D02*
Y5187D01*
Y5217D01*
X2701Y5277D01*
X2656Y5232D01*
X2701Y5187D01*
X2461Y5935D02*
Y6025D01*
X2506D01*
X2521Y6010D01*
Y5980D01*
X2506Y5965D01*
X2461D01*
X2491D02*
X2521Y5935D01*
X2611Y6025D02*
X2551D01*
Y5935D01*
X2611D01*
X2551Y5980D02*
X2581D01*
X2641Y6025D02*
Y5935D01*
X2686D01*
X2701Y5950D01*
Y6010D01*
X2686Y6025D01*
X2641D01*
X2461Y6931D02*
Y6841D01*
X2506D01*
X2521Y6856D01*
Y6871D01*
X2506Y6886D01*
X2461D01*
X2506D01*
X2521Y6901D01*
Y6916D01*
X2506Y6931D01*
X2461D01*
X2551D02*
Y6841D01*
X2611D01*
X2641Y6931D02*
Y6841D01*
Y6871D01*
X2701Y6931D01*
X2656Y6886D01*
X2701Y6841D01*
X2461Y7589D02*
Y7679D01*
X2506D01*
X2521Y7664D01*
Y7634D01*
X2506Y7619D01*
X2461D01*
X2491D02*
X2521Y7589D01*
X2611Y7679D02*
X2551D01*
Y7589D01*
X2611D01*
X2551Y7634D02*
X2581D01*
X2641Y7679D02*
Y7589D01*
X2686D01*
X2701Y7604D01*
Y7664D01*
X2686Y7679D01*
X2641D01*
X7913Y3307D02*
Y3397D01*
X7958D01*
X7973Y3382D01*
Y3352D01*
X7958Y3337D01*
X7913D01*
X7943D02*
X7973Y3307D01*
X8063Y3397D02*
X8003D01*
Y3307D01*
X8063D01*
X8003Y3352D02*
X8033D01*
X8093Y3397D02*
Y3307D01*
X8138D01*
X8153Y3322D01*
Y3382D01*
X8138Y3397D01*
X8093D01*
X2283Y5601D02*
X2350D01*
X2383Y5551D02*
X2417D01*
X2400D01*
Y5651D01*
X2383Y5634D01*
X2533Y5651D02*
X2467D01*
Y5601D01*
X2500Y5618D01*
X2517D01*
X2533Y5601D01*
Y5568D01*
X2517Y5551D01*
X2483D01*
X2467Y5568D01*
X2567Y5651D02*
Y5585D01*
X2600Y5551D01*
X2633Y5585D01*
Y5651D01*
X2767Y5551D02*
Y5651D01*
X2800Y5618D01*
X2833Y5651D01*
Y5551D01*
X2867D02*
Y5618D01*
X2900Y5651D01*
X2933Y5618D01*
Y5551D01*
Y5601D01*
X2867D01*
X2967Y5651D02*
X3033Y5551D01*
Y5651D02*
X2967Y5551D01*
X2264Y7274D02*
X2330D01*
X2297Y7308D02*
Y7241D01*
X2364Y7224D02*
X2397D01*
X2380D01*
Y7324D01*
X2364Y7308D01*
X2514Y7324D02*
X2447D01*
Y7274D01*
X2480Y7291D01*
X2497D01*
X2514Y7274D01*
Y7241D01*
X2497Y7224D01*
X2464D01*
X2447Y7241D01*
X2547Y7324D02*
Y7258D01*
X2580Y7224D01*
X2614Y7258D01*
Y7324D01*
X2747Y7224D02*
Y7324D01*
X2780Y7291D01*
X2814Y7324D01*
Y7224D01*
X2847D02*
Y7291D01*
X2880Y7324D01*
X2914Y7291D01*
Y7224D01*
Y7274D01*
X2847D01*
X2947Y7324D02*
X3014Y7224D01*
Y7324D02*
X2947Y7224D01*
X7697Y6478D02*
X7763D01*
X7730D01*
Y6378D01*
X7863Y6478D02*
X7797D01*
Y6378D01*
X7863D01*
X7797Y6428D02*
X7830D01*
X7963Y6461D02*
X7947Y6478D01*
X7913D01*
X7897Y6461D01*
Y6445D01*
X7913Y6428D01*
X7947D01*
X7963Y6411D01*
Y6395D01*
X7947Y6378D01*
X7913D01*
X7897Y6395D01*
X7997Y6478D02*
X8063D01*
X8030D01*
Y6378D01*
X8197Y6478D02*
Y6378D01*
X8263D01*
X8347Y6478D02*
X8313D01*
X8297Y6461D01*
Y6395D01*
X8313Y6378D01*
X8347D01*
X8363Y6395D01*
Y6461D01*
X8347Y6478D01*
X8397Y6378D02*
Y6445D01*
X8430Y6478D01*
X8463Y6445D01*
Y6378D01*
Y6428D01*
X8397D01*
X8497Y6478D02*
Y6378D01*
X8547D01*
X8563Y6395D01*
Y6461D01*
X8547Y6478D01*
X8497D01*
X7913Y5000D02*
Y5090D01*
X7958D01*
X7973Y5075D01*
Y5045D01*
X7958Y5030D01*
X7913D01*
X7943D02*
X7973Y5000D01*
X8063Y5090D02*
X8003D01*
Y5000D01*
X8063D01*
X8003Y5045D02*
X8033D01*
X8093Y5090D02*
Y5000D01*
X8138D01*
X8153Y5015D01*
Y5075D01*
X8138Y5090D01*
X8093D01*
X7913Y4342D02*
Y4252D01*
X7958D01*
X7973Y4267D01*
Y4282D01*
X7958Y4297D01*
X7913D01*
X7958D01*
X7973Y4312D01*
Y4327D01*
X7958Y4342D01*
X7913D01*
X8003D02*
Y4252D01*
X8063D01*
X8093Y4342D02*
Y4252D01*
Y4282D01*
X8153Y4342D01*
X8108Y4297D01*
X8153Y4252D01*
X9813Y3852D02*
X9880D01*
X9846D01*
Y3752D01*
X9963Y3852D02*
X9930D01*
X9913Y3835D01*
Y3769D01*
X9930Y3752D01*
X9963D01*
X9980Y3769D01*
Y3835D01*
X9963Y3852D01*
X10013Y3752D02*
Y3852D01*
X10063D01*
X10080Y3835D01*
Y3802D01*
X10063Y3785D01*
X10013D01*
X10280Y3835D02*
X10263Y3852D01*
X10230D01*
X10213Y3835D01*
Y3819D01*
X10230Y3802D01*
X10263D01*
X10280Y3785D01*
Y3769D01*
X10263Y3752D01*
X10230D01*
X10213Y3769D01*
X10313Y3852D02*
X10346D01*
X10330D01*
Y3752D01*
X10313D01*
X10346D01*
X10396Y3852D02*
Y3752D01*
X10463D01*
X10496Y3852D02*
Y3752D01*
Y3785D01*
X10563Y3852D01*
X10513Y3802D01*
X10563Y3752D01*
D48*
X6216Y6366D02*
G03*
X6216Y6366I-35J0D01*
G01*
Y6266D02*
G03*
X6216Y6266I-35J0D01*
G01*
X6492Y5315D02*
G03*
X6492Y5315I-35J0D01*
G01*
X4244Y3972D02*
X4287D01*
X4244Y4059D02*
X4287D01*
Y3972D02*
Y4057D01*
X4098Y4059D02*
X4142D01*
X4098Y4058D02*
X4098D01*
Y3972D02*
X4142D01*
X4098Y3973D02*
X4098Y3973D01*
X4098Y3972D02*
Y4059D01*
X4254Y4159D02*
X4297D01*
X4254Y4246D02*
X4297D01*
Y4159D02*
Y4244D01*
X4108Y4246D02*
X4152D01*
X4108Y4245D02*
X4108D01*
Y4159D02*
X4152D01*
X4108Y4160D02*
X4108Y4160D01*
X4108Y4159D02*
Y4246D01*
X4632Y2909D02*
X4719D01*
X4633Y2909D02*
X4633Y2909D01*
X4632Y2866D02*
Y2909D01*
X4718D02*
Y2909D01*
X4719Y2866D02*
Y2909D01*
X4632Y2720D02*
X4717D01*
X4719D02*
Y2764D01*
X4632Y2720D02*
Y2764D01*
X4307Y2417D02*
Y2504D01*
X4307Y2503D02*
X4307Y2503D01*
X4264Y2504D02*
X4307D01*
Y2418D02*
X4307D01*
X4264Y2417D02*
X4307D01*
X4118Y2419D02*
Y2504D01*
Y2417D02*
X4161D01*
X4118Y2504D02*
X4161D01*
X4244Y2535D02*
X4287D01*
X4244Y2622D02*
X4287D01*
Y2535D02*
Y2620D01*
X4098Y2622D02*
X4142D01*
X4098Y2621D02*
X4098D01*
Y2535D02*
X4142D01*
X4098Y2536D02*
X4098Y2536D01*
X4098Y2535D02*
Y2622D01*
X4244Y2683D02*
X4287D01*
X4244Y2770D02*
X4287D01*
Y2683D02*
Y2768D01*
X4098Y2770D02*
X4142D01*
X4098Y2769D02*
X4098D01*
Y2683D02*
X4142D01*
X4098Y2684D02*
X4098Y2684D01*
X4098Y2683D02*
Y2770D01*
X4091Y2417D02*
Y2504D01*
X4091Y2503D02*
X4091Y2503D01*
X4047Y2504D02*
X4091D01*
Y2418D02*
X4091D01*
X4047Y2417D02*
X4091D01*
X3902Y2419D02*
Y2504D01*
Y2417D02*
X3945D01*
X3902Y2504D02*
X3945D01*
X4719Y4234D02*
Y4278D01*
X4632Y4234D02*
Y4278D01*
X4634D02*
X4719D01*
X4632Y4089D02*
Y4132D01*
X4633Y4089D02*
Y4089D01*
X4719D02*
Y4132D01*
X4718Y4089D02*
X4718Y4089D01*
X4632Y4089D02*
X4719D01*
X3326Y2417D02*
Y2504D01*
Y2418D02*
X3326Y2418D01*
Y2417D02*
X3370D01*
X3326Y2503D02*
X3326D01*
Y2504D02*
X3370D01*
X3515Y2417D02*
Y2502D01*
X3472Y2504D02*
X3515D01*
X3472Y2417D02*
X3515D01*
X3331Y2043D02*
Y2130D01*
Y2044D02*
X3331Y2044D01*
Y2043D02*
X3374D01*
X3331Y2129D02*
X3331D01*
Y2130D02*
X3374D01*
X3520Y2043D02*
Y2128D01*
X3476Y2130D02*
X3520D01*
X3476Y2043D02*
X3520D01*
X3685Y2043D02*
Y2130D01*
Y2044D02*
X3685Y2044D01*
Y2043D02*
X3728D01*
X3685Y2129D02*
X3685D01*
Y2130D02*
X3728D01*
X3874Y2043D02*
Y2128D01*
X3831Y2130D02*
X3874D01*
X3831Y2043D02*
X3874D01*
X4091Y2220D02*
Y2307D01*
X4091Y2306D02*
X4091Y2306D01*
X4047Y2307D02*
X4091D01*
Y2221D02*
X4091D01*
X4047Y2220D02*
X4091D01*
X3902Y2222D02*
Y2307D01*
Y2220D02*
X3945D01*
X3902Y2307D02*
X3945D01*
X3520Y2142D02*
Y2228D01*
X3520Y2227D02*
X3520Y2227D01*
X3476Y2228D02*
X3520D01*
Y2143D02*
X3520D01*
X3476Y2142D02*
X3520D01*
X3331Y2144D02*
Y2228D01*
Y2142D02*
X3374D01*
X3331Y2228D02*
X3374D01*
X4091Y2319D02*
Y2406D01*
X4091Y2405D02*
X4091Y2405D01*
X4047Y2406D02*
X4091D01*
Y2320D02*
X4091D01*
X4047Y2319D02*
X4091D01*
X3902Y2321D02*
Y2406D01*
Y2319D02*
X3945D01*
X3902Y2406D02*
X3945D01*
X4091Y2122D02*
Y2209D01*
X4091Y2208D02*
X4091Y2208D01*
X4047Y2209D02*
X4091D01*
Y2123D02*
X4091D01*
X4047Y2122D02*
X4091D01*
X3902Y2124D02*
Y2209D01*
Y2122D02*
X3945D01*
X3902Y2209D02*
X3945D01*
X3642Y2067D02*
Y2146D01*
X3563Y2067D02*
Y2146D01*
X3799Y2421D02*
Y2500D01*
X3878Y2421D02*
Y2500D01*
X3267Y2846D02*
X3347D01*
X3267Y2924D02*
X3347D01*
X4307Y3736D02*
Y3823D01*
X4307Y3822D02*
X4307Y3822D01*
X4264Y3823D02*
X4307D01*
Y3737D02*
X4307D01*
X4264Y3736D02*
X4307D01*
X4118Y3738D02*
Y3823D01*
Y3736D02*
X4161D01*
X4118Y3823D02*
X4161D01*
X4091Y3736D02*
Y3823D01*
X4091Y3822D02*
X4091Y3822D01*
X4047Y3823D02*
X4091D01*
Y3737D02*
X4091D01*
X4047Y3736D02*
X4091D01*
X3902Y3738D02*
Y3823D01*
Y3736D02*
X3945D01*
X3902Y3823D02*
X3945D01*
X3799Y3740D02*
Y3819D01*
X3878Y3740D02*
Y3819D01*
X3642Y3386D02*
Y3465D01*
X3563Y3386D02*
Y3465D01*
X3161Y2476D02*
X3205D01*
X3161Y2563D02*
X3205D01*
Y2476D02*
Y2561D01*
X3016Y2563D02*
X3059D01*
X3016Y2562D02*
X3016D01*
Y2476D02*
X3059D01*
X3016Y2477D02*
X3016Y2477D01*
X3016Y2476D02*
Y2563D01*
X4091Y3638D02*
Y3724D01*
X4091Y3723D02*
X4091Y3723D01*
X4047Y3724D02*
X4091D01*
Y3639D02*
X4091D01*
X4047Y3638D02*
X4091D01*
X3902Y3640D02*
Y3724D01*
Y3638D02*
X3945D01*
X3902Y3724D02*
X3945D01*
X4091Y3441D02*
Y3528D01*
X4091Y3527D02*
X4091Y3527D01*
X4047Y3528D02*
X4091D01*
Y3442D02*
X4091D01*
X4047Y3441D02*
X4091D01*
X3902Y3443D02*
Y3528D01*
Y3441D02*
X3945D01*
X3902Y3528D02*
X3945D01*
X4091Y3539D02*
Y3626D01*
X4091Y3625D02*
X4091Y3625D01*
X4047Y3626D02*
X4091D01*
Y3540D02*
X4091D01*
X4047Y3539D02*
X4091D01*
X3902Y3541D02*
Y3626D01*
Y3539D02*
X3945D01*
X3902Y3626D02*
X3945D01*
X3685Y3362D02*
Y3449D01*
Y3363D02*
X3685Y3363D01*
Y3362D02*
X3728D01*
X3685Y3448D02*
X3685D01*
Y3449D02*
X3728D01*
X3874Y3362D02*
Y3447D01*
X3831Y3449D02*
X3874D01*
X3831Y3362D02*
X3874D01*
X3326Y3736D02*
Y3823D01*
Y3737D02*
X3326Y3737D01*
Y3736D02*
X3370D01*
X3326Y3822D02*
X3326D01*
Y3823D02*
X3370D01*
X3515Y3736D02*
Y3821D01*
X3472Y3823D02*
X3515D01*
X3472Y3736D02*
X3515D01*
X3331Y3362D02*
Y3449D01*
Y3363D02*
X3331Y3363D01*
Y3362D02*
X3374D01*
X3331Y3448D02*
X3331D01*
Y3449D02*
X3374D01*
X3520Y3362D02*
Y3447D01*
X3476Y3449D02*
X3520D01*
X3476Y3362D02*
X3520D01*
Y3461D02*
Y3547D01*
X3520Y3546D02*
X3520Y3546D01*
X3476Y3547D02*
X3520D01*
Y3462D02*
X3520D01*
X3476Y3461D02*
X3520D01*
X3331Y3463D02*
Y3547D01*
Y3461D02*
X3374D01*
X3331Y3547D02*
X3374D01*
X2587Y2150D02*
X2630D01*
X2587Y2063D02*
X2630D01*
X2587Y2065D02*
Y2150D01*
X2733Y2063D02*
X2776D01*
Y2064D02*
X2776D01*
X2733Y2150D02*
X2776D01*
Y2149D02*
X2776Y2149D01*
Y2063D02*
Y2150D01*
X4138Y4360D02*
X4217D01*
X4138Y4281D02*
X4217D01*
X4632Y4305D02*
Y4348D01*
X4719Y4305D02*
Y4348D01*
X4632Y4305D02*
X4717D01*
X4719Y4451D02*
Y4494D01*
X4718D02*
Y4494D01*
X4632Y4451D02*
Y4494D01*
X4633D02*
X4633Y4494D01*
X4632D02*
X4719D01*
X6628Y4493D02*
Y4572D01*
X6707Y4493D02*
Y4572D01*
X7417Y2594D02*
Y2681D01*
X7417Y2680D02*
X7417Y2680D01*
X7374Y2681D02*
X7417D01*
Y2595D02*
X7417D01*
X7374Y2594D02*
X7417D01*
X7228Y2596D02*
Y2681D01*
Y2594D02*
X7272D01*
X7228Y2681D02*
X7272D01*
X7670Y2922D02*
Y3022D01*
X7470Y2922D02*
Y3022D01*
X7670D01*
X7470Y2922D02*
X7670D01*
X8307Y2323D02*
Y2874D01*
X7520Y2323D02*
Y2874D01*
Y2323D02*
X8858D01*
Y2874D01*
X7520D02*
X8858D01*
X7228Y3941D02*
X7272D01*
X7228Y3854D02*
X7272D01*
X7228Y3856D02*
Y3941D01*
X7374Y3854D02*
X7417D01*
Y3855D02*
X7417D01*
X7374Y3941D02*
X7417D01*
Y3940D02*
X7417Y3940D01*
Y3854D02*
Y3941D01*
X7470Y3769D02*
X7570D01*
X7470Y3969D02*
X7570D01*
Y3769D02*
Y3969D01*
X7470Y3769D02*
Y3969D01*
X8378Y5724D02*
Y6008D01*
X8630Y5724D02*
Y6008D01*
X8063Y5724D02*
Y6008D01*
X8315Y5724D02*
Y6008D01*
X7748Y5724D02*
Y6008D01*
X8000Y5724D02*
Y6008D01*
X6461Y6102D02*
Y6181D01*
X6540Y6102D02*
Y6181D01*
X6693Y5969D02*
X6780D01*
X6779D02*
X6779Y5969D01*
X6780D02*
Y6012D01*
X6694Y5969D02*
Y5969D01*
X6693D02*
Y6012D01*
X6695Y6157D02*
X6780D01*
X6693Y6114D02*
Y6157D01*
X6780Y6114D02*
Y6157D01*
X6571Y5969D02*
X6657D01*
X6656D02*
X6656Y5969D01*
X6657D02*
Y6012D01*
X6572Y5969D02*
Y5969D01*
X6571D02*
Y6012D01*
X6573Y6157D02*
X6657D01*
X6571Y6114D02*
Y6157D01*
X6657Y6114D02*
Y6157D01*
X6693Y6205D02*
Y6248D01*
X6780Y6205D02*
Y6248D01*
X6693Y6205D02*
X6778D01*
X6780Y6350D02*
Y6394D01*
X6779D02*
Y6394D01*
X6693Y6350D02*
Y6394D01*
X6694D02*
X6694Y6394D01*
X6693D02*
X6780D01*
X6657Y6350D02*
Y6394D01*
X6571Y6350D02*
Y6394D01*
X6573D02*
X6657D01*
X6571Y6205D02*
Y6248D01*
X6572Y6205D02*
Y6205D01*
X6657D02*
Y6248D01*
X6656Y6205D02*
X6656Y6205D01*
X6571Y6205D02*
X6657D01*
X7204Y6061D02*
X7284D01*
X7204Y6140D02*
X7284D01*
X7480Y7008D02*
X7559D01*
X7480Y7087D02*
X7559D01*
X7634Y6886D02*
Y6972D01*
X7634Y6971D02*
X7634Y6971D01*
X7591Y6972D02*
X7634D01*
Y6887D02*
X7634D01*
X7591Y6886D02*
X7634D01*
X7445Y6888D02*
Y6972D01*
Y6886D02*
X7488D01*
X7445Y6972D02*
X7488D01*
X7417Y7102D02*
Y7189D01*
X7417Y7188D02*
X7417Y7188D01*
X7374Y7189D02*
X7417D01*
Y7103D02*
X7417D01*
X7374Y7102D02*
X7417D01*
X7228Y7104D02*
Y7189D01*
Y7102D02*
X7272D01*
X7228Y7189D02*
X7272D01*
X7150Y7335D02*
Y7378D01*
X7063Y7335D02*
Y7378D01*
X7065D02*
X7150D01*
X7063Y7189D02*
Y7232D01*
X7064Y7189D02*
Y7189D01*
X7150D02*
Y7232D01*
X7149Y7189D02*
X7149Y7189D01*
X7063Y7189D02*
X7150D01*
X6945D02*
Y7232D01*
X7031Y7189D02*
Y7232D01*
X6945Y7189D02*
X7030D01*
X7031Y7335D02*
Y7378D01*
X7031D02*
Y7378D01*
X6945Y7335D02*
Y7378D01*
X6946D02*
X6946Y7378D01*
X6945D02*
X7031D01*
X6945Y7142D02*
X7031D01*
X6946Y7142D02*
X6946Y7142D01*
X6945Y7098D02*
Y7142D01*
X7031D02*
Y7142D01*
X7031Y7098D02*
Y7142D01*
X6945Y6953D02*
X7030D01*
X7031D02*
Y6996D01*
X6945Y6953D02*
Y6996D01*
X6827Y6953D02*
Y6996D01*
X6913Y6953D02*
Y6996D01*
X6827Y6953D02*
X6911D01*
X6913Y7098D02*
Y7142D01*
X6912D02*
Y7142D01*
X6827Y7098D02*
Y7142D01*
X6828D02*
X6828Y7142D01*
X6827D02*
X6913D01*
X6723Y7008D02*
Y7087D01*
X6801Y7008D02*
Y7087D01*
X6892Y7740D02*
X6978D01*
X6977D02*
X6977Y7740D01*
X6978D02*
Y7783D01*
X6893Y7740D02*
Y7740D01*
X6892D02*
Y7783D01*
X6894Y7929D02*
X6978D01*
X6892Y7886D02*
Y7929D01*
X6978Y7886D02*
Y7929D01*
Y8122D02*
Y8165D01*
X6892Y8122D02*
Y8165D01*
X6894D02*
X6978D01*
X6892Y7976D02*
Y8020D01*
X6893Y7976D02*
Y7976D01*
X6978D02*
Y8020D01*
X6977Y7976D02*
X6977Y7976D01*
X6892Y7976D02*
X6978D01*
X6774D02*
X6860D01*
X6859D02*
X6859Y7976D01*
X6860D02*
Y8020D01*
X6775Y7976D02*
Y7976D01*
X6774D02*
Y8020D01*
X6776Y8165D02*
X6860D01*
X6774Y8122D02*
Y8165D01*
X6860Y8122D02*
Y8165D01*
X6658Y8031D02*
Y8111D01*
X6737Y8031D02*
Y8111D01*
X4873Y7155D02*
Y7255D01*
X4673Y7155D02*
Y7255D01*
X4873D01*
X4673Y7155D02*
X4873D01*
X4350Y6929D02*
Y7008D01*
X4429Y6929D02*
Y7008D01*
X4646Y6886D02*
Y6972D01*
X4646Y6971D02*
X4646Y6971D01*
X4603Y6972D02*
X4646D01*
Y6887D02*
X4646D01*
X4603Y6886D02*
X4646D01*
X4457Y6888D02*
Y6972D01*
Y6886D02*
X4500D01*
X4457Y6972D02*
X4500D01*
X4114Y7618D02*
Y7697D01*
X4035Y7618D02*
Y7697D01*
X4506Y6170D02*
X4706D01*
X4506Y6270D02*
X4706D01*
X4506Y6170D02*
Y6270D01*
X4706Y6170D02*
Y6270D01*
X4512Y6059D02*
Y6146D01*
Y6060D02*
X4512Y6060D01*
Y6059D02*
X4555D01*
X4512Y6145D02*
X4512D01*
Y6146D02*
X4555D01*
X4701Y6059D02*
Y6144D01*
X4657Y6146D02*
X4701D01*
X4657Y6059D02*
X4701D01*
X4291Y5926D02*
Y6006D01*
X4213Y5926D02*
Y6006D01*
X3597Y6072D02*
Y6115D01*
X3683Y6072D02*
Y6115D01*
X3597Y6072D02*
X3681D01*
X3683Y6217D02*
Y6261D01*
X3682D02*
Y6261D01*
X3597Y6217D02*
Y6261D01*
X3598D02*
X3598Y6261D01*
X3597D02*
X3683D01*
X3465Y5905D02*
Y5985D01*
X3543Y5905D02*
Y5985D01*
X3597Y6039D02*
X3683D01*
X3598Y6039D02*
X3598Y6039D01*
X3597Y5996D02*
Y6039D01*
X3682D02*
Y6039D01*
X3683Y5996D02*
Y6039D01*
X3597Y5850D02*
X3681D01*
X3683D02*
Y5894D01*
X3597Y5850D02*
Y5894D01*
X3730Y5254D02*
Y5454D01*
X3830Y5254D02*
Y5454D01*
X3730D02*
X3830D01*
X3730Y5254D02*
X3830D01*
X3598Y5265D02*
Y5309D01*
X3685Y5265D02*
Y5309D01*
X3598Y5265D02*
X3683D01*
X3685Y5411D02*
Y5454D01*
X3684D02*
Y5454D01*
X3598Y5411D02*
Y5454D01*
X3599D02*
X3599Y5454D01*
X3598D02*
X3685D01*
X3859Y5807D02*
Y5886D01*
X3937Y5807D02*
Y5886D01*
X3602Y6308D02*
Y6388D01*
X3681Y6308D02*
Y6388D01*
X4632Y2504D02*
X4719D01*
X4718D02*
X4718Y2504D01*
X4719D02*
Y2547D01*
X4633Y2504D02*
Y2504D01*
X4632D02*
Y2547D01*
X4634Y2693D02*
X4719D01*
X4632Y2650D02*
Y2693D01*
X4719Y2650D02*
Y2693D01*
X4104Y2835D02*
X4183D01*
X4104Y2913D02*
X4183D01*
X3823Y2813D02*
X3902D01*
X3823Y2734D02*
X3902D01*
X3666Y2815D02*
X3745D01*
X3666Y2736D02*
X3745D01*
X3666Y2711D02*
X3745D01*
X3666Y2632D02*
X3745D01*
X3061Y2776D02*
X3071Y2766D01*
X3051Y2776D02*
X3061D01*
X3012D02*
X3051D01*
X3205Y2575D02*
Y2661D01*
X3205Y2660D02*
X3205Y2660D01*
X3161Y2661D02*
X3205D01*
Y2576D02*
X3205D01*
X3161Y2575D02*
X3205D01*
X3016Y2577D02*
Y2661D01*
Y2575D02*
X3059D01*
X3016Y2661D02*
X3059D01*
X3114Y2787D02*
X3194D01*
X3114Y2709D02*
X3194D01*
X2957Y2894D02*
X3036D01*
X2957Y2815D02*
X3036D01*
X2863Y2356D02*
Y2381D01*
X2563Y2356D02*
Y2381D01*
X2863Y3081D02*
Y3106D01*
X2563Y3081D02*
Y3106D01*
X2863Y2581D02*
Y2881D01*
X2563Y2581D02*
Y2881D01*
Y2356D02*
X2863D01*
X2563Y3106D02*
X2863D01*
X3819Y4211D02*
X3898D01*
X3819Y4289D02*
X3898D01*
X3661Y4213D02*
X3740D01*
X3661Y4291D02*
X3740D01*
X3189Y4488D02*
X3268D01*
X3189Y4409D02*
X3268D01*
X2952Y4291D02*
X3032D01*
X2952Y4370D02*
X3032D01*
X3110Y4185D02*
X3189D01*
X3110Y4264D02*
X3189D01*
X3016Y4138D02*
X3059D01*
X3016Y4051D02*
X3059D01*
X3016Y4053D02*
Y4138D01*
X3161Y4051D02*
X3205D01*
Y4052D02*
X3205D01*
X3161Y4138D02*
X3205D01*
Y4137D02*
X3205Y4137D01*
Y4051D02*
Y4138D01*
X2804Y3631D02*
X2904D01*
X2804Y3831D02*
X2904D01*
Y3631D02*
Y3831D01*
X2804Y3631D02*
Y3831D01*
X2559Y4681D02*
X2859D01*
X2559Y3931D02*
X2859D01*
X2559Y4156D02*
Y4456D01*
X2859Y4156D02*
Y4456D01*
X2559Y4656D02*
Y4681D01*
X2859Y4656D02*
Y4681D01*
X2559Y3931D02*
Y3956D01*
X2859Y3931D02*
Y3956D01*
X2268Y4563D02*
Y4650D01*
Y4564D02*
X2268Y4564D01*
Y4563D02*
X2311D01*
X2268Y4649D02*
X2268D01*
Y4650D02*
X2311D01*
X2457Y4563D02*
Y4648D01*
X2413Y4650D02*
X2457D01*
X2413Y4563D02*
X2457D01*
X2323Y4961D02*
Y5512D01*
X3110Y4961D02*
Y5512D01*
X1772D02*
X3110D01*
X1772Y4961D02*
Y5512D01*
Y4961D02*
X3110D01*
X1772Y5709D02*
X3110D01*
X1772D02*
Y6260D01*
X3110D01*
Y5709D02*
Y6260D01*
X2323Y5709D02*
Y6260D01*
X2323Y6614D02*
Y7165D01*
X3110Y6614D02*
Y7165D01*
X1772D02*
X3110D01*
X1772Y6614D02*
Y7165D01*
Y6614D02*
X3110D01*
X1772Y7362D02*
X3110D01*
X1772D02*
Y7913D01*
X3110D01*
Y7362D02*
Y7913D01*
X2323Y7362D02*
Y7913D01*
X6457Y7470D02*
X6604Y7323D01*
Y6939D02*
Y7323D01*
X6073Y6939D02*
Y7323D01*
X6220Y7470D01*
X6457D02*
X6604Y7323D01*
X6073Y6939D02*
X6279D01*
X6398D02*
X6604D01*
X6398Y7470D02*
X6457D01*
X6220D02*
X6279D01*
X5669Y7470D02*
X5728D01*
X5847D02*
X5906D01*
X5847Y6939D02*
X6053D01*
X5522D02*
X5728D01*
X5906Y7470D02*
X6053Y7323D01*
X5522D02*
X5669Y7470D01*
X5522Y6939D02*
Y7323D01*
X6053Y6939D02*
Y7323D01*
X5906Y7470D02*
X6053Y7323D01*
X5357Y7470D02*
X5504Y7323D01*
Y6939D02*
Y7323D01*
X4973Y6939D02*
Y7323D01*
X5121Y7470D01*
X5357D02*
X5504Y7323D01*
X4973Y6939D02*
X5179D01*
X5298D02*
X5504D01*
X5298Y7470D02*
X5357D01*
X5121D02*
X5179D01*
X6220Y8179D02*
X6279D01*
X6398D02*
X6457D01*
X6398Y7648D02*
X6604D01*
X6073D02*
X6279D01*
X6457Y8179D02*
X6604Y8031D01*
X6073D02*
X6220Y8179D01*
X6073Y7648D02*
Y8031D01*
X6604Y7648D02*
Y8031D01*
X6457Y8179D02*
X6604Y8031D01*
X5906Y8179D02*
X6053Y8031D01*
Y7648D02*
Y8031D01*
X5522Y7648D02*
Y8031D01*
X5669Y8179D01*
X5906D02*
X6053Y8031D01*
X5522Y7648D02*
X5728D01*
X5847D02*
X6053D01*
X5847Y8179D02*
X5906D01*
X5669D02*
X5728D01*
X5118D02*
X5177D01*
X5295D02*
X5354D01*
X5295Y7648D02*
X5502D01*
X4970D02*
X5177D01*
X5354Y8179D02*
X5502Y8031D01*
X4970D02*
X5118Y8179D01*
X4970Y7648D02*
Y8031D01*
X5502Y7648D02*
Y8031D01*
X5354Y8179D02*
X5502Y8031D01*
X4874Y7686D02*
Y7786D01*
X4674Y7686D02*
Y7786D01*
X4874D01*
X4674Y7686D02*
X4874D01*
X7520Y3622D02*
X8858D01*
Y3071D02*
Y3622D01*
X7520Y3071D02*
X8858D01*
X7520D02*
Y3622D01*
X8307Y3071D02*
Y3622D01*
X3454Y6781D02*
X3554D01*
X3454Y6981D02*
X3554D01*
Y6781D02*
Y6981D01*
X3454Y6781D02*
Y6981D01*
X6547Y6620D02*
X6591D01*
X6547Y6707D02*
X6591D01*
Y6620D02*
Y6705D01*
X6402Y6707D02*
X6445D01*
X6402Y6706D02*
X6402D01*
Y6620D02*
X6445D01*
X6402Y6621D02*
X6402Y6621D01*
X6402Y6620D02*
Y6707D01*
Y6719D02*
Y6805D01*
Y6719D02*
X6402Y6719D01*
Y6719D02*
X6445D01*
X6402Y6804D02*
X6402D01*
Y6805D02*
X6445D01*
X6591Y6719D02*
Y6803D01*
X6547Y6805D02*
X6591D01*
X6547Y6719D02*
X6591D01*
X6821Y3642D02*
X6998D01*
Y3524D02*
Y3642D01*
X6821Y3524D02*
X6998D01*
X6821D02*
Y3642D01*
X7234D02*
X7411D01*
Y3524D02*
Y3642D01*
X7234Y3524D02*
X7411D01*
X7234D02*
Y3642D01*
X3680Y5828D02*
X3760D01*
X3680Y5648D02*
X3760D01*
X3679Y5491D02*
X3709D01*
X3679Y5611D02*
X3709D01*
X7520Y4764D02*
X8543D01*
X8642D01*
X3632Y3209D02*
X3809D01*
Y3091D02*
Y3209D01*
X3632Y3091D02*
X3809D01*
X3632D02*
Y3209D01*
X3533Y4557D02*
X3711D01*
Y4439D02*
Y4557D01*
X3533Y4439D02*
X3711D01*
X3533D02*
Y4557D01*
X7520Y5512D02*
Y6339D01*
X8819D01*
X7520Y5512D02*
X8819D01*
X7520Y5315D02*
X8858D01*
Y4764D02*
Y5315D01*
X7520Y4764D02*
Y5315D01*
X8307Y4764D02*
Y5315D01*
X8307Y4016D02*
Y4567D01*
X7520Y4016D02*
Y4567D01*
Y4016D02*
X8858D01*
Y4567D01*
X7520D02*
X8858D01*
X8593Y6220D02*
X8770D01*
Y6102D02*
Y6220D01*
X8593Y6102D02*
X8770D01*
X8593D02*
Y6220D01*
X4248Y7563D02*
Y7606D01*
X4335Y7563D02*
Y7606D01*
X4248Y7563D02*
X4333D01*
X4335Y7709D02*
Y7752D01*
X4334D02*
Y7752D01*
X4248Y7709D02*
Y7752D01*
X4249D02*
X4249Y7752D01*
X4248D02*
X4335D01*
X3402Y6709D02*
Y6795D01*
X3402Y6794D02*
X3402Y6794D01*
X3358Y6795D02*
X3402D01*
Y6710D02*
X3402D01*
X3358Y6709D02*
X3402D01*
X3213Y6711D02*
Y6795D01*
Y6709D02*
X3256D01*
X3213Y6795D02*
X3256D01*
X2804Y2056D02*
Y2256D01*
X2904Y2056D02*
Y2256D01*
X2804D02*
X2904D01*
X2804Y2056D02*
X2904D01*
X2772Y3638D02*
Y3724D01*
X2772Y3723D02*
X2772Y3723D01*
X2728Y3724D02*
X2772D01*
Y3639D02*
X2772D01*
X2728Y3638D02*
X2772D01*
X2583Y3640D02*
Y3724D01*
Y3638D02*
X2626D01*
X2583Y3724D02*
X2626D01*
X2016Y3539D02*
Y3626D01*
Y3540D02*
X2016Y3540D01*
Y3539D02*
X2060D01*
X2016Y3625D02*
X2016D01*
Y3626D02*
X2060D01*
X2205Y3539D02*
Y3624D01*
X2162Y3626D02*
X2205D01*
X2162Y3539D02*
X2205D01*
X1925Y3953D02*
X2012D01*
X1926Y3953D02*
X1926Y3953D01*
X1925Y3909D02*
Y3953D01*
X2011D02*
Y3953D01*
X2012Y3909D02*
Y3953D01*
X1925Y3764D02*
X2010D01*
X2012D02*
Y3807D01*
X1925Y3764D02*
Y3807D01*
X2372Y3701D02*
Y3819D01*
Y3701D02*
X2549D01*
Y3819D01*
X2372D02*
X2549D01*
X2331Y2083D02*
Y2169D01*
Y2084D02*
X2331Y2084D01*
Y2083D02*
X2374D01*
X2331Y2168D02*
X2331D01*
Y2169D02*
X2374D01*
X2520Y2083D02*
Y2167D01*
X2477Y2169D02*
X2520D01*
X2477Y2083D02*
X2520D01*
X2110Y2260D02*
Y2346D01*
Y2261D02*
X2110Y2261D01*
Y2260D02*
X2154D01*
X2110Y2345D02*
X2110D01*
Y2346D02*
X2154D01*
X2299Y2260D02*
Y2344D01*
X2256Y2346D02*
X2299D01*
X2256Y2260D02*
X2299D01*
X6162Y4567D02*
Y4646D01*
X6240Y4567D02*
Y4646D01*
X6240Y3287D02*
Y3366D01*
X6161Y3287D02*
Y3366D01*
X6707Y3213D02*
Y3293D01*
X6628Y3213D02*
Y3293D01*
X7323Y6870D02*
Y6949D01*
X7244Y6870D02*
Y6949D01*
X8740Y4764D02*
X8858D01*
X6507Y4956D02*
Y5256D01*
X6407Y4956D02*
Y5256D01*
Y4956D02*
X6507D01*
X6407Y5256D02*
X6507D01*
X3016Y3953D02*
Y4039D01*
Y3954D02*
X3016Y3954D01*
Y3953D02*
X3059D01*
X3016Y4038D02*
X3016D01*
Y4039D02*
X3059D01*
X3205Y3953D02*
Y4037D01*
X3161Y4039D02*
X3205D01*
X3161Y3953D02*
X3205D01*
X3661Y4108D02*
X3740D01*
X3661Y4187D02*
X3740D01*
X8819Y5512D02*
Y6339D01*
X8354Y6211D02*
X8554D01*
X8354Y6111D02*
X8554D01*
Y6211D01*
X8354Y6111D02*
Y6211D01*
X8039D02*
X8239D01*
X8039Y6111D02*
X8239D01*
Y6211D01*
X8039Y6111D02*
Y6211D01*
X7726D02*
X7926D01*
X7726Y6111D02*
X7926D01*
Y6211D01*
X7726Y6111D02*
Y6211D01*
X8593Y5541D02*
X8770D01*
X8593D02*
Y5659D01*
X8770D01*
Y5541D02*
Y5659D01*
X7707Y5637D02*
Y5837D01*
X7607Y5637D02*
Y5837D01*
Y5637D02*
X7707D01*
X7607Y5837D02*
X7707D01*
X2413Y2988D02*
X2457D01*
X2413Y3075D02*
X2457D01*
Y2988D02*
Y3073D01*
X2268Y3075D02*
X2311D01*
X2268Y3074D02*
X2268D01*
Y2988D02*
X2311D01*
X2268Y2989D02*
X2268Y2989D01*
X2268Y2988D02*
Y3075D01*
X4163Y5354D02*
Y5472D01*
Y5354D02*
X4341D01*
Y5472D01*
X4163D02*
X4341D01*
X7106Y7855D02*
Y7795D01*
X7136D01*
X7146Y7805D01*
Y7845D01*
X7136Y7855D01*
X7106D01*
X7196Y7795D02*
Y7855D01*
X7166Y7825D01*
X7206D01*
X7565Y3717D02*
X7545D01*
X7555D01*
Y3667D01*
X7545Y3657D01*
X7535D01*
X7525Y3667D01*
X7585Y3657D02*
X7605D01*
X7595D01*
Y3717D01*
X7585Y3707D01*
X7635D02*
X7645Y3717D01*
X7665D01*
X7675Y3707D01*
Y3667D01*
X7665Y3657D01*
X7645D01*
X7635Y3667D01*
Y3707D01*
X7570Y2294D02*
X7550D01*
X7560D01*
Y2244D01*
X7550Y2234D01*
X7540D01*
X7530Y2244D01*
X7590Y2234D02*
X7610D01*
X7600D01*
Y2294D01*
X7590Y2284D01*
X7639Y2234D02*
X7659D01*
X7649D01*
Y2294D01*
X7639Y2284D01*
X1861Y3032D02*
X1841D01*
X1851D01*
Y2982D01*
X1841Y2972D01*
X1831D01*
X1821Y2982D01*
X1881D02*
X1891Y2972D01*
X1911D01*
X1921Y2982D01*
Y3022D01*
X1911Y3032D01*
X1891D01*
X1881Y3022D01*
Y3012D01*
X1891Y3002D01*
X1921D01*
X2923Y3307D02*
Y3357D01*
X2948D01*
X2957Y3349D01*
Y3332D01*
X2948Y3324D01*
X2923D01*
X2940D02*
X2957Y3307D01*
X3007Y3357D02*
X2973D01*
Y3332D01*
X2990Y3340D01*
X2998D01*
X3007Y3332D01*
Y3315D01*
X2998Y3307D01*
X2982D01*
X2973Y3315D01*
X3023Y3349D02*
X3032Y3357D01*
X3048D01*
X3057Y3349D01*
Y3340D01*
X3048Y3332D01*
X3057Y3324D01*
Y3315D01*
X3048Y3307D01*
X3032D01*
X3023Y3315D01*
Y3324D01*
X3032Y3332D01*
X3023Y3340D01*
Y3349D01*
X3032Y3332D02*
X3048D01*
X3091Y3307D02*
Y3357D01*
X3116D01*
X3124Y3349D01*
Y3332D01*
X3116Y3324D01*
X3091D01*
X3107D02*
X3124Y3307D01*
X3174Y3357D02*
X3141D01*
Y3332D01*
X3157Y3340D01*
X3166D01*
X3174Y3332D01*
Y3315D01*
X3166Y3307D01*
X3149D01*
X3141Y3315D01*
X3191D02*
X3199Y3307D01*
X3216D01*
X3224Y3315D01*
Y3349D01*
X3216Y3357D01*
X3199D01*
X3191Y3349D01*
Y3340D01*
X3199Y3332D01*
X3224D01*
X6358Y2894D02*
Y2954D01*
X6388D01*
X6398Y2944D01*
Y2924D01*
X6388Y2914D01*
X6358D01*
X6378D02*
X6398Y2894D01*
X6418Y2954D02*
X6458D01*
Y2944D01*
X6418Y2904D01*
Y2894D01*
X6478D02*
X6498D01*
X6488D01*
Y2954D01*
X6478Y2944D01*
X2598Y3130D02*
Y3190D01*
X2628D01*
X2638Y3180D01*
Y3160D01*
X2628Y3150D01*
X2598D01*
X2618D02*
X2638Y3130D01*
X2698Y3190D02*
X2658D01*
Y3130D01*
X2698D01*
X2658Y3160D02*
X2678D01*
X2718Y3190D02*
Y3130D01*
X2758D01*
X2808D02*
Y3190D01*
X2778Y3160D01*
X2818D01*
X3402Y2865D02*
Y2823D01*
X3410Y2815D01*
X3427D01*
X3435Y2823D01*
Y2865D01*
X3452Y2815D02*
X3468D01*
X3460D01*
Y2865D01*
X3452Y2857D01*
X3493Y2815D02*
X3510D01*
X3502D01*
Y2865D01*
X3493Y2857D01*
X3386Y4341D02*
Y4300D01*
X3394Y4291D01*
X3411D01*
X3419Y4300D01*
Y4341D01*
X3461Y4291D02*
Y4341D01*
X3436Y4316D01*
X3469D01*
X4183Y5326D02*
X4216D01*
X4200D01*
Y5276D01*
X4233D02*
Y5326D01*
X4258D01*
X4266Y5317D01*
Y5301D01*
X4258Y5292D01*
X4233D01*
X4316Y5326D02*
X4300Y5317D01*
X4283Y5301D01*
Y5284D01*
X4291Y5276D01*
X4308D01*
X4316Y5284D01*
Y5292D01*
X4308Y5301D01*
X4283D01*
X2559Y4715D02*
Y4775D01*
X2589D01*
X2599Y4765D01*
Y4745D01*
X2589Y4735D01*
X2559D01*
X2579D02*
X2599Y4715D01*
X2659Y4775D02*
X2619D01*
Y4715D01*
X2659D01*
X2619Y4745D02*
X2639D01*
X2679Y4775D02*
Y4715D01*
X2719D01*
X2779D02*
X2739D01*
X2779Y4755D01*
Y4765D01*
X2769Y4775D01*
X2749D01*
X2739Y4765D01*
X7037Y3878D02*
Y3938D01*
X7067D01*
X7077Y3928D01*
Y3908D01*
X7067Y3898D01*
X7037D01*
X7057D02*
X7077Y3878D01*
X7127D02*
Y3938D01*
X7097Y3908D01*
X7137D01*
X7197Y3938D02*
X7157D01*
Y3908D01*
X7177Y3918D01*
X7187D01*
X7197Y3908D01*
Y3888D01*
X7187Y3878D01*
X7167D01*
X7157Y3888D01*
X6358Y4173D02*
Y4233D01*
X6388D01*
X6398Y4223D01*
Y4203D01*
X6388Y4193D01*
X6358D01*
X6378D02*
X6398Y4173D01*
X6418Y4223D02*
X6428Y4233D01*
X6448D01*
X6458Y4223D01*
Y4213D01*
X6448Y4203D01*
X6438D01*
X6448D01*
X6458Y4193D01*
Y4183D01*
X6448Y4173D01*
X6428D01*
X6418Y4183D01*
X6478D02*
X6488Y4173D01*
X6508D01*
X6518Y4183D01*
Y4223D01*
X6508Y4233D01*
X6488D01*
X6478Y4223D01*
Y4213D01*
X6488Y4203D01*
X6518D01*
X3100Y4882D02*
Y4932D01*
X3125D01*
X3134Y4924D01*
Y4907D01*
X3125Y4899D01*
X3100D01*
X3117D02*
X3134Y4882D01*
X3184D02*
X3150D01*
X3184Y4915D01*
Y4924D01*
X3175Y4932D01*
X3159D01*
X3150Y4924D01*
X3200D02*
X3209Y4932D01*
X3225D01*
X3234Y4924D01*
Y4915D01*
X3225Y4907D01*
X3217D01*
X3225D01*
X3234Y4899D01*
Y4890D01*
X3225Y4882D01*
X3209D01*
X3200Y4890D01*
X2923Y4882D02*
Y4932D01*
X2948D01*
X2957Y4924D01*
Y4907D01*
X2948Y4899D01*
X2923D01*
X2940D02*
X2957Y4882D01*
X3007D02*
X2973D01*
X3007Y4915D01*
Y4924D01*
X2998Y4932D01*
X2982D01*
X2973Y4924D01*
X3057Y4882D02*
X3023D01*
X3057Y4915D01*
Y4924D01*
X3048Y4932D01*
X3032D01*
X3023Y4924D01*
X2283Y4478D02*
Y4538D01*
X2313D01*
X2323Y4528D01*
Y4508D01*
X2313Y4498D01*
X2283D01*
X2303D02*
X2323Y4478D01*
X2383D02*
X2343D01*
X2383Y4518D01*
Y4528D01*
X2373Y4538D01*
X2353D01*
X2343Y4528D01*
X2403Y4478D02*
X2423D01*
X2413D01*
Y4538D01*
X2403Y4528D01*
X4675Y6900D02*
Y6960D01*
X4705D01*
X4715Y6950D01*
Y6930D01*
X4705Y6920D01*
X4675D01*
X4695D02*
X4715Y6900D01*
X4735D02*
X4755D01*
X4745D01*
Y6960D01*
X4735Y6950D01*
X4785D02*
X4795Y6960D01*
X4815D01*
X4825Y6950D01*
Y6940D01*
X4815Y6930D01*
X4805D01*
X4815D01*
X4825Y6920D01*
Y6910D01*
X4815Y6900D01*
X4795D01*
X4785Y6910D01*
X3258Y6624D02*
Y6684D01*
X3288D01*
X3298Y6674D01*
Y6654D01*
X3288Y6644D01*
X3258D01*
X3278D02*
X3298Y6624D01*
X3318Y6684D02*
X3358D01*
Y6674D01*
X3318Y6634D01*
Y6624D01*
X4715Y7461D02*
Y7521D01*
X4745D01*
X4755Y7511D01*
Y7491D01*
X4745Y7481D01*
X4715D01*
X4735D02*
X4755Y7461D01*
X4815Y7521D02*
X4795Y7511D01*
X4775Y7491D01*
Y7471D01*
X4785Y7461D01*
X4805D01*
X4815Y7471D01*
Y7481D01*
X4805Y7491D01*
X4775D01*
X4724Y7972D02*
Y8032D01*
X4754D01*
X4764Y8022D01*
Y8002D01*
X4754Y7992D01*
X4724D01*
X4744D02*
X4764Y7972D01*
X4784D02*
X4804D01*
X4794D01*
Y8032D01*
X4784Y8022D01*
X4233Y7333D02*
Y7373D01*
X4223Y7383D01*
X4203D01*
X4193Y7373D01*
Y7333D01*
X4203Y7323D01*
X4223D01*
X4213Y7343D02*
X4233Y7323D01*
X4223D02*
X4233Y7333D01*
X4283Y7323D02*
Y7383D01*
X4253Y7353D01*
X4293D01*
X3183Y6898D02*
Y6931D01*
X3175Y6940D01*
X3158D01*
X3150Y6931D01*
Y6898D01*
X3158Y6890D01*
X3175D01*
X3166Y6906D02*
X3183Y6890D01*
X3175D02*
X3183Y6898D01*
X3200Y6931D02*
X3208Y6940D01*
X3225D01*
X3233Y6931D01*
Y6923D01*
X3225Y6915D01*
X3216D01*
X3225D01*
X3233Y6906D01*
Y6898D01*
X3225Y6890D01*
X3208D01*
X3200Y6898D01*
X4318Y8194D02*
Y8234D01*
X4308Y8244D01*
X4288D01*
X4278Y8234D01*
Y8194D01*
X4288Y8184D01*
X4308D01*
X4298Y8204D02*
X4318Y8184D01*
X4308D02*
X4318Y8194D01*
X4378Y8184D02*
X4338D01*
X4378Y8224D01*
Y8234D01*
X4368Y8244D01*
X4348D01*
X4338Y8234D01*
X4003Y8194D02*
Y8234D01*
X3993Y8244D01*
X3973D01*
X3963Y8234D01*
Y8194D01*
X3973Y8184D01*
X3993D01*
X3983Y8204D02*
X4003Y8184D01*
X3993D02*
X4003Y8194D01*
X4023Y8184D02*
X4043D01*
X4033D01*
Y8244D01*
X4023Y8234D01*
X7638Y3958D02*
X7618D01*
X7628D01*
Y3908D01*
X7618Y3898D01*
X7608D01*
X7598Y3908D01*
X7658Y3898D02*
Y3958D01*
X7688D01*
X7698Y3948D01*
Y3928D01*
X7688Y3918D01*
X7658D01*
X7758Y3958D02*
X7738Y3948D01*
X7718Y3928D01*
Y3908D01*
X7728Y3898D01*
X7748D01*
X7758Y3908D01*
Y3918D01*
X7748Y3928D01*
X7718D01*
X2973Y3830D02*
X2953D01*
X2963D01*
Y3780D01*
X2953Y3770D01*
X2943D01*
X2933Y3780D01*
X2993Y3770D02*
Y3830D01*
X3023D01*
X3033Y3820D01*
Y3800D01*
X3023Y3790D01*
X2993D01*
X3093Y3830D02*
X3053D01*
Y3800D01*
X3073Y3810D01*
X3083D01*
X3093Y3800D01*
Y3780D01*
X3083Y3770D01*
X3063D01*
X3053Y3780D01*
X4725Y7127D02*
X4705D01*
X4715D01*
Y7077D01*
X4705Y7067D01*
X4695D01*
X4685Y7077D01*
X4745Y7067D02*
Y7127D01*
X4775D01*
X4785Y7117D01*
Y7097D01*
X4775Y7087D01*
X4745D01*
X4805Y7117D02*
X4815Y7127D01*
X4835D01*
X4845Y7117D01*
Y7107D01*
X4835Y7097D01*
X4825D01*
X4835D01*
X4845Y7087D01*
Y7077D01*
X4835Y7067D01*
X4815D01*
X4805Y7077D01*
X3613Y6979D02*
X3593D01*
X3603D01*
Y6929D01*
X3593Y6919D01*
X3583D01*
X3573Y6929D01*
X3633Y6919D02*
Y6979D01*
X3663D01*
X3673Y6969D01*
Y6949D01*
X3663Y6939D01*
X3633D01*
X3733Y6919D02*
X3693D01*
X3733Y6959D01*
Y6969D01*
X3723Y6979D01*
X3703D01*
X3693Y6969D01*
X4745Y7658D02*
X4725D01*
X4735D01*
Y7608D01*
X4725Y7598D01*
X4715D01*
X4705Y7608D01*
X4765Y7598D02*
Y7658D01*
X4795D01*
X4805Y7648D01*
Y7628D01*
X4795Y7618D01*
X4765D01*
X4825Y7598D02*
X4845D01*
X4835D01*
Y7658D01*
X4825Y7648D01*
X7560Y4647D02*
X7540D01*
X7550D01*
Y4597D01*
X7540Y4587D01*
X7530D01*
X7520Y4597D01*
X7580Y4647D02*
X7620D01*
Y4637D01*
X7580Y4597D01*
Y4587D01*
X7560Y5395D02*
X7540D01*
X7550D01*
Y5345D01*
X7540Y5335D01*
X7530D01*
X7520Y5345D01*
X7620Y5395D02*
X7600Y5385D01*
X7580Y5365D01*
Y5345D01*
X7590Y5335D01*
X7610D01*
X7620Y5345D01*
Y5355D01*
X7610Y5365D01*
X7580D01*
X1841Y4597D02*
X1821D01*
X1831D01*
Y4547D01*
X1821Y4537D01*
X1811D01*
X1801Y4547D01*
X1901Y4597D02*
X1861D01*
Y4567D01*
X1881Y4577D01*
X1891D01*
X1901Y4567D01*
Y4547D01*
X1891Y4537D01*
X1871D01*
X1861Y4547D01*
X1861Y6349D02*
X1841D01*
X1851D01*
Y6299D01*
X1841Y6289D01*
X1831D01*
X1821Y6299D01*
X1911Y6289D02*
Y6349D01*
X1881Y6319D01*
X1921D01*
X1861Y5601D02*
X1841D01*
X1851D01*
Y5551D01*
X1841Y5541D01*
X1831D01*
X1821Y5551D01*
X1881Y5591D02*
X1891Y5601D01*
X1911D01*
X1921Y5591D01*
Y5581D01*
X1911Y5571D01*
X1901D01*
X1911D01*
X1921Y5561D01*
Y5551D01*
X1911Y5541D01*
X1891D01*
X1881Y5551D01*
X1871Y7255D02*
X1851D01*
X1861D01*
Y7205D01*
X1851Y7195D01*
X1841D01*
X1831Y7205D01*
X1931Y7195D02*
X1891D01*
X1931Y7235D01*
Y7245D01*
X1921Y7255D01*
X1901D01*
X1891Y7245D01*
X1871Y8003D02*
X1851D01*
X1861D01*
Y7953D01*
X1851Y7943D01*
X1841D01*
X1831Y7953D01*
X1891Y7943D02*
X1911D01*
X1901D01*
Y8003D01*
X1891Y7993D01*
X2332Y4114D02*
X2392D01*
Y4144D01*
X2382Y4154D01*
X2342D01*
X2332Y4144D01*
Y4114D01*
X2382Y4174D02*
X2392Y4184D01*
Y4204D01*
X2382Y4214D01*
X2342D01*
X2332Y4204D01*
Y4184D01*
X2342Y4174D01*
X2352D01*
X2362Y4184D01*
Y4214D01*
X4182Y6909D02*
X4242D01*
Y6939D01*
X4232Y6949D01*
X4192D01*
X4182Y6939D01*
Y6909D01*
Y7009D02*
Y6969D01*
X4212D01*
X4202Y6989D01*
Y6999D01*
X4212Y7009D01*
X4232D01*
X4242Y6999D01*
Y6979D01*
X4232Y6969D01*
X3327Y7146D02*
Y7096D01*
X3352D01*
X3360Y7105D01*
Y7138D01*
X3352Y7146D01*
X3327D01*
X3377Y7138D02*
X3385Y7146D01*
X3402D01*
X3410Y7138D01*
Y7130D01*
X3402Y7121D01*
X3393D01*
X3402D01*
X3410Y7113D01*
Y7105D01*
X3402Y7096D01*
X3385D01*
X3377Y7105D01*
X4143Y7490D02*
X4203D01*
Y7520D01*
X4193Y7530D01*
X4153D01*
X4143Y7520D01*
Y7490D01*
X4203Y7550D02*
Y7570D01*
Y7560D01*
X4143D01*
X4153Y7550D01*
X6093Y7520D02*
X6083Y7530D01*
X6063D01*
X6053Y7520D01*
Y7480D01*
X6063Y7470D01*
X6083D01*
X6093Y7480D01*
X6113Y7470D02*
X6133D01*
X6123D01*
Y7530D01*
X6113Y7520D01*
X6163Y7470D02*
X6183D01*
X6173D01*
Y7530D01*
X6163Y7520D01*
X5522D02*
X5512Y7530D01*
X5492D01*
X5482Y7520D01*
Y7480D01*
X5492Y7470D01*
X5512D01*
X5522Y7480D01*
X5542Y7470D02*
X5562D01*
X5552D01*
Y7530D01*
X5542Y7520D01*
X5592D02*
X5602Y7530D01*
X5622D01*
X5632Y7520D01*
Y7480D01*
X5622Y7470D01*
X5602D01*
X5592Y7480D01*
Y7520D01*
X5010D02*
X5000Y7530D01*
X4980D01*
X4970Y7520D01*
Y7480D01*
X4980Y7470D01*
X5000D01*
X5010Y7480D01*
X5030D02*
X5040Y7470D01*
X5060D01*
X5070Y7480D01*
Y7520D01*
X5060Y7530D01*
X5040D01*
X5030Y7520D01*
Y7510D01*
X5040Y7500D01*
X5070D01*
X3956Y7648D02*
X3946Y7638D01*
Y7618D01*
X3956Y7608D01*
X3996D01*
X4006Y7618D01*
Y7638D01*
X3996Y7648D01*
X4006Y7698D02*
X3946D01*
X3976Y7668D01*
Y7708D01*
X6113Y8229D02*
X6103Y8239D01*
X6083D01*
X6073Y8229D01*
Y8189D01*
X6083Y8179D01*
X6103D01*
X6113Y8189D01*
X6133Y8229D02*
X6143Y8239D01*
X6163D01*
X6173Y8229D01*
Y8219D01*
X6163Y8209D01*
X6153D01*
X6163D01*
X6173Y8199D01*
Y8189D01*
X6163Y8179D01*
X6143D01*
X6133Y8189D01*
X5562Y8229D02*
X5552Y8239D01*
X5532D01*
X5522Y8229D01*
Y8189D01*
X5532Y8179D01*
X5552D01*
X5562Y8189D01*
X5622Y8179D02*
X5582D01*
X5622Y8219D01*
Y8229D01*
X5612Y8239D01*
X5592D01*
X5582Y8229D01*
X5020D02*
X5010Y8239D01*
X4990D01*
X4980Y8229D01*
Y8189D01*
X4990Y8179D01*
X5010D01*
X5020Y8189D01*
X5040Y8179D02*
X5060D01*
X5050D01*
Y8239D01*
X5040Y8229D01*
X3985Y5818D02*
X3975Y5808D01*
Y5788D01*
X3985Y5778D01*
X4025D01*
X4035Y5788D01*
Y5808D01*
X4025Y5818D01*
X4035Y5838D02*
Y5858D01*
Y5848D01*
X3975D01*
X3985Y5838D01*
Y5888D02*
X3975Y5898D01*
Y5918D01*
X3985Y5928D01*
X3995D01*
X4005Y5918D01*
Y5908D01*
Y5918D01*
X4015Y5928D01*
X4025D01*
X4035Y5918D01*
Y5898D01*
X4025Y5888D01*
X3385Y5906D02*
X3375Y5896D01*
Y5876D01*
X3385Y5866D01*
X3425D01*
X3435Y5876D01*
Y5896D01*
X3425Y5906D01*
X3435Y5926D02*
Y5946D01*
Y5936D01*
X3375D01*
X3385Y5926D01*
X3435Y6006D02*
X3375D01*
X3405Y5976D01*
Y6016D01*
X3533Y5522D02*
X3523Y5512D01*
Y5492D01*
X3533Y5482D01*
X3573D01*
X3583Y5492D01*
Y5512D01*
X3573Y5522D01*
X3583Y5542D02*
Y5562D01*
Y5552D01*
X3523D01*
X3533Y5542D01*
X3523Y5632D02*
Y5592D01*
X3553D01*
X3543Y5612D01*
Y5622D01*
X3553Y5632D01*
X3573D01*
X3583Y5622D01*
Y5602D01*
X3573Y5592D01*
X3523Y6310D02*
X3513Y6300D01*
Y6280D01*
X3523Y6270D01*
X3563D01*
X3573Y6280D01*
Y6300D01*
X3563Y6310D01*
X3573Y6330D02*
Y6350D01*
Y6340D01*
X3513D01*
X3523Y6330D01*
X3513Y6420D02*
X3523Y6400D01*
X3543Y6380D01*
X3563D01*
X3573Y6390D01*
Y6410D01*
X3563Y6420D01*
X3553D01*
X3543Y6410D01*
Y6380D01*
X7215Y6024D02*
X7205Y6034D01*
X7185D01*
X7175Y6024D01*
Y5984D01*
X7185Y5974D01*
X7205D01*
X7215Y5984D01*
X7275Y5974D02*
X7235D01*
X7275Y6014D01*
Y6024D01*
X7265Y6034D01*
X7245D01*
X7235Y6024D01*
X7335Y6034D02*
X7295D01*
Y6004D01*
X7315Y6014D01*
X7325D01*
X7335Y6004D01*
Y5984D01*
X7325Y5974D01*
X7305D01*
X7295Y5984D01*
X4133Y5926D02*
X4123Y5916D01*
Y5896D01*
X4133Y5886D01*
X4173D01*
X4183Y5896D01*
Y5916D01*
X4173Y5926D01*
X4183Y5986D02*
Y5946D01*
X4143Y5986D01*
X4133D01*
X4123Y5976D01*
Y5956D01*
X4133Y5946D01*
X4173Y6006D02*
X4183Y6016D01*
Y6036D01*
X4173Y6046D01*
X4133D01*
X4123Y6036D01*
Y6016D01*
X4133Y6006D01*
X4143D01*
X4153Y6016D01*
Y6046D01*
X7825Y6074D02*
X7815Y6084D01*
X7795D01*
X7785Y6074D01*
Y6034D01*
X7795Y6024D01*
X7815D01*
X7825Y6034D01*
X7845Y6074D02*
X7855Y6084D01*
X7875D01*
X7885Y6074D01*
Y6064D01*
X7875Y6054D01*
X7865D01*
X7875D01*
X7885Y6044D01*
Y6034D01*
X7875Y6024D01*
X7855D01*
X7845Y6034D01*
X7905Y6074D02*
X7915Y6084D01*
X7935D01*
X7945Y6074D01*
Y6034D01*
X7935Y6024D01*
X7915D01*
X7905Y6034D01*
Y6074D01*
X8160D02*
X8150Y6084D01*
X8130D01*
X8120Y6074D01*
Y6034D01*
X8130Y6024D01*
X8150D01*
X8160Y6034D01*
X8180Y6074D02*
X8190Y6084D01*
X8210D01*
X8220Y6074D01*
Y6064D01*
X8210Y6054D01*
X8200D01*
X8210D01*
X8220Y6044D01*
Y6034D01*
X8210Y6024D01*
X8190D01*
X8180Y6034D01*
X8240Y6024D02*
X8260D01*
X8250D01*
Y6084D01*
X8240Y6074D01*
X8465D02*
X8455Y6084D01*
X8435D01*
X8425Y6074D01*
Y6034D01*
X8435Y6024D01*
X8455D01*
X8465Y6034D01*
X8485Y6074D02*
X8495Y6084D01*
X8515D01*
X8525Y6074D01*
Y6064D01*
X8515Y6054D01*
X8505D01*
X8515D01*
X8525Y6044D01*
Y6034D01*
X8515Y6024D01*
X8495D01*
X8485Y6034D01*
X8585Y6024D02*
X8545D01*
X8585Y6064D01*
Y6074D01*
X8575Y6084D01*
X8555D01*
X8545Y6074D01*
X3780Y6507D02*
Y6447D01*
X3810D01*
X3820Y6457D01*
Y6497D01*
X3810Y6507D01*
X3780D01*
X3879D02*
X3860Y6497D01*
X3840Y6477D01*
Y6457D01*
X3850Y6447D01*
X3869D01*
X3879Y6457D01*
Y6467D01*
X3869Y6477D01*
X3840D01*
X3857Y5316D02*
Y5296D01*
Y5306D01*
X3907D01*
X3917Y5296D01*
Y5286D01*
X3907Y5276D01*
X3917Y5336D02*
X3857D01*
Y5366D01*
X3867Y5376D01*
X3887D01*
X3897Y5366D01*
Y5336D01*
X3917Y5426D02*
X3857D01*
X3887Y5396D01*
Y5436D01*
X4558Y6359D02*
X4538D01*
X4548D01*
Y6309D01*
X4538Y6299D01*
X4528D01*
X4518Y6309D01*
X4578Y6299D02*
Y6359D01*
X4608D01*
X4618Y6349D01*
Y6329D01*
X4608Y6319D01*
X4578D01*
X4638Y6359D02*
X4678D01*
Y6349D01*
X4638Y6309D01*
Y6299D01*
X7539Y5703D02*
Y5686D01*
Y5694D01*
X7580D01*
X7589Y5686D01*
Y5678D01*
X7580Y5669D01*
X7589Y5719D02*
X7539D01*
Y5744D01*
X7547Y5753D01*
X7564D01*
X7572Y5744D01*
Y5719D01*
X7547Y5769D02*
X7539Y5778D01*
Y5794D01*
X7547Y5803D01*
X7555D01*
X7564Y5794D01*
X7572Y5803D01*
X7580D01*
X7589Y5794D01*
Y5778D01*
X7580Y5769D01*
X7572D01*
X7564Y5778D01*
X7555Y5769D01*
X7547D01*
X7564Y5778D02*
Y5794D01*
X2973Y2255D02*
X2953D01*
X2963D01*
Y2205D01*
X2953Y2195D01*
X2943D01*
X2933Y2205D01*
X2993Y2195D02*
Y2255D01*
X3023D01*
X3033Y2245D01*
Y2225D01*
X3023Y2215D01*
X2993D01*
X3053Y2205D02*
X3063Y2195D01*
X3083D01*
X3093Y2205D01*
Y2245D01*
X3083Y2255D01*
X3063D01*
X3053Y2245D01*
Y2235D01*
X3063Y2225D01*
X3093D01*
X3523Y5699D02*
X3583D01*
Y5739D01*
Y5759D02*
Y5779D01*
Y5769D01*
X3523D01*
X3533Y5759D01*
X6870Y7785D02*
X6810D01*
Y7815D01*
X6820Y7825D01*
X6840D01*
X6850Y7815D01*
Y7785D01*
Y7805D02*
X6870Y7825D01*
X6810Y7885D02*
Y7845D01*
X6840D01*
X6830Y7865D01*
Y7875D01*
X6840Y7885D01*
X6860D01*
X6870Y7875D01*
Y7855D01*
X6860Y7845D01*
X3573Y5285D02*
X3513D01*
Y5315D01*
X3523Y5325D01*
X3543D01*
X3553Y5315D01*
Y5285D01*
Y5305D02*
X3573Y5325D01*
Y5345D02*
Y5365D01*
Y5355D01*
X3513D01*
X3523Y5345D01*
Y5395D02*
X3513Y5405D01*
Y5425D01*
X3523Y5435D01*
X3563D01*
X3573Y5425D01*
Y5405D01*
X3563Y5395D01*
X3523D01*
X3770Y5866D02*
X3710D01*
Y5896D01*
X3720Y5906D01*
X3740D01*
X3750Y5896D01*
Y5866D01*
Y5886D02*
X3770Y5906D01*
Y5926D02*
Y5946D01*
Y5936D01*
X3710D01*
X3720Y5926D01*
X3770Y6006D02*
X3710D01*
X3740Y5976D01*
Y6016D01*
X3770Y6093D02*
X3710D01*
Y6123D01*
X3720Y6133D01*
X3740D01*
X3750Y6123D01*
Y6093D01*
Y6113D02*
X3770Y6133D01*
Y6153D02*
Y6172D01*
Y6162D01*
X3710D01*
X3720Y6153D01*
X3710Y6202D02*
Y6242D01*
X3720D01*
X3760Y6202D01*
X3770D01*
X6644Y5778D02*
X6584D01*
Y5808D01*
X6594Y5818D01*
X6614D01*
X6624Y5808D01*
Y5778D01*
Y5798D02*
X6644Y5818D01*
X6594Y5838D02*
X6584Y5848D01*
Y5868D01*
X6594Y5878D01*
X6604D01*
X6614Y5868D01*
Y5858D01*
Y5868D01*
X6624Y5878D01*
X6634D01*
X6644Y5868D01*
Y5848D01*
X6634Y5838D01*
X6644Y5938D02*
Y5898D01*
X6604Y5938D01*
X6594D01*
X6584Y5928D01*
Y5908D01*
X6594Y5898D01*
X6772Y6417D02*
X6712D01*
Y6447D01*
X6722Y6457D01*
X6742D01*
X6752Y6447D01*
Y6417D01*
Y6437D02*
X6772Y6457D01*
X6722Y6477D02*
X6712Y6487D01*
Y6507D01*
X6722Y6517D01*
X6732D01*
X6742Y6507D01*
Y6497D01*
Y6507D01*
X6752Y6517D01*
X6762D01*
X6772Y6507D01*
Y6487D01*
X6762Y6477D01*
X6722Y6537D02*
X6712Y6547D01*
Y6567D01*
X6722Y6577D01*
X6732D01*
X6742Y6567D01*
Y6557D01*
Y6567D01*
X6752Y6577D01*
X6762D01*
X6772Y6567D01*
Y6547D01*
X6762Y6537D01*
X6772Y5778D02*
X6712D01*
Y5808D01*
X6722Y5818D01*
X6742D01*
X6752Y5808D01*
Y5778D01*
Y5798D02*
X6772Y5818D01*
X6722Y5838D02*
X6712Y5848D01*
Y5868D01*
X6722Y5878D01*
X6732D01*
X6742Y5868D01*
Y5858D01*
Y5868D01*
X6752Y5878D01*
X6762D01*
X6772Y5868D01*
Y5848D01*
X6762Y5838D01*
X6772Y5928D02*
X6712D01*
X6742Y5898D01*
Y5938D01*
X6644Y6417D02*
X6584D01*
Y6447D01*
X6594Y6457D01*
X6614D01*
X6624Y6447D01*
Y6417D01*
Y6437D02*
X6644Y6457D01*
X6594Y6477D02*
X6584Y6487D01*
Y6507D01*
X6594Y6517D01*
X6604D01*
X6614Y6507D01*
Y6497D01*
Y6507D01*
X6624Y6517D01*
X6634D01*
X6644Y6507D01*
Y6487D01*
X6634Y6477D01*
X6584Y6577D02*
Y6537D01*
X6614D01*
X6604Y6557D01*
Y6567D01*
X6614Y6577D01*
X6634D01*
X6644Y6567D01*
Y6547D01*
X6634Y6537D01*
X4528Y5974D02*
Y6034D01*
X4558D01*
X4568Y6024D01*
Y6004D01*
X4558Y5994D01*
X4528D01*
X4548D02*
X4568Y5974D01*
X4628Y6034D02*
X4588D01*
Y6004D01*
X4608Y6014D01*
X4618D01*
X4628Y6004D01*
Y5984D01*
X4618Y5974D01*
X4598D01*
X4588Y5984D01*
X4648Y6024D02*
X4658Y6034D01*
X4678D01*
X4688Y6024D01*
Y5984D01*
X4678Y5974D01*
X4658D01*
X4648Y5984D01*
Y6024D01*
X6614Y6634D02*
Y6694D01*
X6644D01*
X6654Y6684D01*
Y6664D01*
X6644Y6654D01*
X6614D01*
X6634D02*
X6654Y6634D01*
X6714Y6694D02*
X6674D01*
Y6664D01*
X6694Y6674D01*
X6704D01*
X6714Y6664D01*
Y6644D01*
X6704Y6634D01*
X6684D01*
X6674Y6644D01*
X6734Y6634D02*
X6754D01*
X6744D01*
Y6694D01*
X6734Y6684D01*
X6614Y6732D02*
Y6792D01*
X6644D01*
X6654Y6782D01*
Y6762D01*
X6644Y6752D01*
X6614D01*
X6634D02*
X6654Y6732D01*
X6714Y6792D02*
X6674D01*
Y6762D01*
X6694Y6772D01*
X6704D01*
X6714Y6762D01*
Y6742D01*
X6704Y6732D01*
X6684D01*
X6674Y6742D01*
X6774Y6732D02*
X6734D01*
X6774Y6772D01*
Y6782D01*
X6764Y6792D01*
X6744D01*
X6734Y6782D01*
X3839Y3170D02*
X3879D01*
X3859D01*
Y3110D01*
X3899D02*
Y3170D01*
X3929D01*
X3939Y3160D01*
Y3140D01*
X3929Y3130D01*
X3899D01*
X3959Y3110D02*
X3979D01*
X3969D01*
Y3170D01*
X3959Y3160D01*
X6634Y3603D02*
X6674D01*
X6654D01*
Y3543D01*
X6694D02*
Y3603D01*
X6724D01*
X6734Y3593D01*
Y3573D01*
X6724Y3563D01*
X6694D01*
X6794Y3543D02*
X6754D01*
X6794Y3583D01*
Y3593D01*
X6784Y3603D01*
X6764D01*
X6754Y3593D01*
X7047Y3603D02*
X7087D01*
X7067D01*
Y3543D01*
X7107D02*
Y3603D01*
X7137D01*
X7147Y3593D01*
Y3573D01*
X7137Y3563D01*
X7107D01*
X7207Y3603D02*
X7167D01*
Y3573D01*
X7187Y3583D01*
X7197D01*
X7207Y3573D01*
Y3553D01*
X7197Y3543D01*
X7177D01*
X7167Y3553D01*
X6378Y5434D02*
X6418D01*
X6398D01*
Y5374D01*
X6438D02*
Y5434D01*
X6468D01*
X6478Y5424D01*
Y5404D01*
X6468Y5394D01*
X6438D01*
X6498Y5424D02*
X6508Y5434D01*
X6528D01*
X6538Y5424D01*
Y5414D01*
X6528Y5404D01*
X6538Y5394D01*
Y5384D01*
X6528Y5374D01*
X6508D01*
X6498Y5384D01*
Y5394D01*
X6508Y5404D01*
X6498Y5414D01*
Y5424D01*
X6508Y5404D02*
X6528D01*
X5955Y6300D02*
X5995D01*
X5975D01*
Y6240D01*
X6015D02*
Y6300D01*
X6045D01*
X6055Y6290D01*
Y6270D01*
X6045Y6260D01*
X6015D01*
X6075Y6250D02*
X6085Y6240D01*
X6105D01*
X6115Y6250D01*
Y6290D01*
X6105Y6300D01*
X6085D01*
X6075Y6290D01*
Y6280D01*
X6085Y6270D01*
X6115D01*
X5906Y6399D02*
X5945D01*
X5926D01*
Y6339D01*
X5965D02*
Y6399D01*
X5995D01*
X6005Y6389D01*
Y6369D01*
X5995Y6359D01*
X5965D01*
X6025Y6339D02*
X6045D01*
X6035D01*
Y6399D01*
X6025Y6389D01*
X6075D02*
X6085Y6399D01*
X6105D01*
X6115Y6389D01*
Y6349D01*
X6105Y6339D01*
X6085D01*
X6075Y6349D01*
Y6389D01*
X8602Y6290D02*
X8636D01*
X8619D01*
Y6240D01*
X8652D02*
Y6290D01*
X8677D01*
X8686Y6282D01*
Y6265D01*
X8677Y6257D01*
X8652D01*
X8702Y6240D02*
X8719D01*
X8711D01*
Y6290D01*
X8702Y6282D01*
X8744Y6240D02*
X8761D01*
X8752D01*
Y6290D01*
X8744Y6282D01*
X8415Y5631D02*
X8449D01*
X8432D01*
Y5581D01*
X8465D02*
Y5631D01*
X8490D01*
X8499Y5622D01*
Y5606D01*
X8490Y5597D01*
X8465D01*
X8515Y5631D02*
X8549D01*
Y5622D01*
X8515Y5589D01*
Y5581D01*
X3947Y6091D02*
Y6041D01*
X3957Y6031D01*
X3977D01*
X3987Y6041D01*
Y6091D01*
X4007Y6031D02*
X4027D01*
X4017D01*
Y6091D01*
X4007Y6081D01*
X6978Y6224D02*
Y6174D01*
X6988Y6164D01*
X7008D01*
X7018Y6174D01*
Y6224D01*
X7078D02*
X7058Y6214D01*
X7038Y6194D01*
Y6174D01*
X7048Y6164D01*
X7068D01*
X7078Y6174D01*
Y6184D01*
X7068Y6194D01*
X7038D01*
X6841Y5926D02*
Y5876D01*
X6851Y5866D01*
X6871D01*
X6881Y5876D01*
Y5926D01*
X6901D02*
X6941D01*
Y5916D01*
X6901Y5876D01*
Y5866D01*
X2032Y3445D02*
Y3505D01*
X2062D01*
X2072Y3495D01*
Y3475D01*
X2062Y3465D01*
X2032D01*
X2052D02*
X2072Y3445D01*
X2092Y3505D02*
X2132D01*
Y3495D01*
X2092Y3455D01*
Y3445D01*
X2152Y3455D02*
X2162Y3445D01*
X2182D01*
X2192Y3455D01*
Y3495D01*
X2182Y3505D01*
X2162D01*
X2152Y3495D01*
Y3485D01*
X2162Y3475D01*
X2192D01*
X6378Y4725D02*
Y4675D01*
X6388Y4665D01*
X6408D01*
X6418Y4675D01*
Y4725D01*
X6438Y4715D02*
X6448Y4725D01*
X6468D01*
X6478Y4715D01*
Y4705D01*
X6468Y4695D01*
X6478Y4685D01*
Y4675D01*
X6468Y4665D01*
X6448D01*
X6438Y4675D01*
Y4685D01*
X6448Y4695D01*
X6438Y4705D01*
Y4715D01*
X6448Y4695D02*
X6468D01*
X6358Y3446D02*
Y3396D01*
X6368Y3386D01*
X6388D01*
X6398Y3396D01*
Y3446D01*
X6418Y3386D02*
X6438D01*
X6428D01*
Y3446D01*
X6418Y3436D01*
X6468D02*
X6478Y3446D01*
X6498D01*
X6508Y3436D01*
Y3426D01*
X6498Y3416D01*
X6488D01*
X6498D01*
X6508Y3406D01*
Y3396D01*
X6498Y3386D01*
X6478D01*
X6468Y3396D01*
X8085Y6290D02*
X8068D01*
X8076D01*
Y6248D01*
X8068Y6240D01*
X8060D01*
X8051Y6248D01*
X8101Y6240D02*
Y6290D01*
X8126D01*
X8134Y6282D01*
Y6265D01*
X8126Y6257D01*
X8101D01*
X8151Y6240D02*
X8168D01*
X8159D01*
Y6290D01*
X8151Y6282D01*
X8193Y6240D02*
X8209D01*
X8201D01*
Y6290D01*
X8193Y6282D01*
X8399Y6290D02*
X8383D01*
X8391D01*
Y6248D01*
X8383Y6240D01*
X8374D01*
X8366Y6248D01*
X8416Y6240D02*
Y6290D01*
X8441D01*
X8449Y6282D01*
Y6265D01*
X8441Y6257D01*
X8416D01*
X8466Y6240D02*
X8483D01*
X8474D01*
Y6290D01*
X8466Y6282D01*
X8541Y6240D02*
X8508D01*
X8541Y6273D01*
Y6282D01*
X8533Y6290D01*
X8516D01*
X8508Y6282D01*
X7764Y6296D02*
X7748D01*
X7756D01*
Y6254D01*
X7748Y6246D01*
X7739D01*
X7731Y6254D01*
X7781Y6246D02*
Y6296D01*
X7806D01*
X7814Y6288D01*
Y6271D01*
X7806Y6263D01*
X7781D01*
X7831Y6246D02*
X7848D01*
X7839D01*
Y6296D01*
X7831Y6288D01*
X7873D02*
X7881Y6296D01*
X7898D01*
X7906Y6288D01*
Y6279D01*
X7898Y6271D01*
X7889D01*
X7898D01*
X7906Y6263D01*
Y6254D01*
X7898Y6246D01*
X7881D01*
X7873Y6254D01*
X3675Y3059D02*
X3662Y3072D01*
X3635D01*
X3622Y3059D01*
Y3005D01*
X3635Y2992D01*
X3662D01*
X3675Y3005D01*
Y3032D01*
X3649D01*
X3702Y2992D02*
Y3072D01*
X3755Y2992D01*
Y3072D01*
X3782D02*
Y2992D01*
X3822D01*
X3835Y3005D01*
Y3059D01*
X3822Y3072D01*
X3782D01*
X6845Y3492D02*
X6831Y3505D01*
X6805D01*
X6791Y3492D01*
Y3439D01*
X6805Y3425D01*
X6831D01*
X6845Y3439D01*
Y3465D01*
X6818D01*
X6871Y3425D02*
Y3505D01*
X6925Y3425D01*
Y3505D01*
X6951D02*
Y3425D01*
X6991D01*
X7005Y3439D01*
Y3492D01*
X6991Y3505D01*
X6951D01*
X2422Y3889D02*
X2412Y3899D01*
X2392D01*
X2382Y3889D01*
Y3879D01*
X2392Y3869D01*
X2412D01*
X2422Y3859D01*
Y3849D01*
X2412Y3839D01*
X2392D01*
X2382Y3849D01*
X2442Y3899D02*
X2462D01*
X2452D01*
Y3839D01*
X2442D01*
X2462D01*
X2532Y3889D02*
X2522Y3899D01*
X2502D01*
X2492Y3889D01*
Y3849D01*
X2502Y3839D01*
X2522D01*
X2532Y3849D01*
Y3869D01*
X2512D01*
X3553Y4577D02*
Y4610D01*
X3570Y4627D01*
X3586Y4610D01*
Y4577D01*
Y4602D01*
X3553D01*
X3603Y4627D02*
X3636D01*
X3620D01*
Y4577D01*
X3653D02*
Y4627D01*
X3686Y4577D01*
Y4627D01*
X7185Y3505D02*
Y3452D01*
X7212Y3425D01*
X7238Y3452D01*
Y3505D01*
X7305D02*
X7278D01*
X7265Y3492D01*
Y3439D01*
X7278Y3425D01*
X7305D01*
X7318Y3439D01*
Y3492D01*
X7305Y3505D01*
X7345D02*
Y3439D01*
X7358Y3425D01*
X7385D01*
X7398Y3439D01*
Y3505D01*
X7425D02*
X7478D01*
X7452D01*
Y3425D01*
X4163Y5542D02*
X4180D01*
X4172D01*
Y5492D01*
X4163D01*
X4180D01*
X4230Y5542D02*
X4213D01*
X4205Y5534D01*
Y5500D01*
X4213Y5492D01*
X4230D01*
X4238Y5500D01*
Y5534D01*
X4230Y5542D01*
X4255D02*
Y5500D01*
X4263Y5492D01*
X4280D01*
X4288Y5500D01*
Y5542D01*
X4305D02*
X4338D01*
X4322D01*
Y5492D01*
X8668Y5712D02*
X8662Y5719D01*
X8648D01*
X8642Y5712D01*
Y5686D01*
X8648Y5679D01*
X8662D01*
X8668Y5686D01*
Y5699D01*
X8655D01*
X8682Y5679D02*
Y5719D01*
X8708Y5679D01*
Y5719D01*
X8722D02*
Y5679D01*
X8742D01*
X8748Y5686D01*
Y5712D01*
X8742Y5719D01*
X8722D01*
X3583Y6861D02*
Y6821D01*
X3603Y6801D01*
X3623Y6821D01*
Y6861D01*
X3683Y6851D02*
X3673Y6861D01*
X3653D01*
X3643Y6851D01*
Y6841D01*
X3653Y6831D01*
X3673D01*
X3683Y6821D01*
Y6811D01*
X3673Y6801D01*
X3653D01*
X3643Y6811D01*
X3763Y6801D02*
Y6861D01*
X3793D01*
X3803Y6851D01*
Y6831D01*
X3793Y6821D01*
X3763D01*
X3823Y6861D02*
Y6801D01*
X3843Y6821D01*
X3863Y6801D01*
Y6861D01*
X3883Y6801D02*
Y6861D01*
X3913D01*
X3923Y6851D01*
Y6831D01*
X3913Y6821D01*
X3883D01*
X3903D02*
X3923Y6801D01*
X2973Y3702D02*
X2963Y3712D01*
X2943D01*
X2933Y3702D01*
Y3662D01*
X2943Y3652D01*
X2963D01*
X2973Y3662D01*
X2993Y3712D02*
Y3652D01*
Y3682D01*
X3033D01*
Y3712D01*
Y3652D01*
X3053D02*
X3073D01*
X3063D01*
Y3712D01*
X3053Y3702D01*
X3103Y3712D02*
X3143D01*
Y3702D01*
X3103Y3662D01*
Y3652D01*
X3143D01*
X2973Y2127D02*
X2963Y2137D01*
X2943D01*
X2933Y2127D01*
Y2087D01*
X2943Y2077D01*
X2963D01*
X2973Y2087D01*
X2993Y2137D02*
Y2077D01*
Y2107D01*
X3033D01*
Y2137D01*
Y2077D01*
X3093D02*
X3053D01*
X3093Y2117D01*
Y2127D01*
X3083Y2137D01*
X3063D01*
X3053Y2127D01*
X3113Y2137D02*
X3153D01*
Y2127D01*
X3113Y2087D01*
Y2077D01*
X3153D01*
X7737Y2954D02*
X7727Y2964D01*
X7707D01*
X7697Y2954D01*
Y2914D01*
X7707Y2904D01*
X7727D01*
X7737Y2914D01*
X7757Y2964D02*
Y2904D01*
Y2934D01*
X7797D01*
Y2964D01*
Y2904D01*
X7857D02*
X7817D01*
X7857Y2944D01*
Y2954D01*
X7847Y2964D01*
X7827D01*
X7817Y2954D01*
X7967Y2964D02*
X7947D01*
X7937Y2954D01*
Y2914D01*
X7947Y2904D01*
X7967D01*
X7977Y2914D01*
Y2954D01*
X7967Y2964D01*
X7997D02*
Y2914D01*
X8007Y2904D01*
X8027D01*
X8037Y2914D01*
Y2964D01*
X8057D02*
X8097D01*
X8077D01*
Y2904D01*
X7638Y3830D02*
X7628Y3840D01*
X7608D01*
X7598Y3830D01*
Y3790D01*
X7608Y3780D01*
X7628D01*
X7638Y3790D01*
X7658Y3840D02*
Y3780D01*
Y3810D01*
X7698D01*
Y3840D01*
Y3780D01*
X7718D02*
X7738D01*
X7728D01*
Y3840D01*
X7718Y3830D01*
X7858Y3840D02*
X7838D01*
X7828Y3830D01*
Y3790D01*
X7838Y3780D01*
X7858D01*
X7868Y3790D01*
Y3830D01*
X7858Y3840D01*
X7888D02*
Y3790D01*
X7898Y3780D01*
X7918D01*
X7928Y3790D01*
Y3840D01*
X7948D02*
X7988D01*
X7968D01*
Y3780D01*
X7549Y5611D02*
X7589D01*
X7569D01*
Y5551D01*
X7649Y5611D02*
X7609D01*
Y5551D01*
X7649D01*
X7609Y5581D02*
X7629D01*
X7709Y5601D02*
X7699Y5611D01*
X7679D01*
X7669Y5601D01*
Y5591D01*
X7679Y5581D01*
X7699D01*
X7709Y5571D01*
Y5561D01*
X7699Y5551D01*
X7679D01*
X7669Y5561D01*
X7729Y5611D02*
X7769D01*
X7749D01*
Y5551D01*
X6535Y4980D02*
Y5040D01*
X6565D01*
X6575Y5030D01*
Y5010D01*
X6565Y5000D01*
X6535D01*
X6555D02*
X6575Y4980D01*
X6595Y5040D02*
X6635Y4980D01*
Y5040D02*
X6595Y4980D01*
X6715Y5040D02*
X6735D01*
X6725D01*
Y4980D01*
X6715D01*
X6735D01*
X6765D02*
Y5040D01*
X6805Y4980D01*
Y5040D01*
X6535Y5139D02*
X6575D01*
X6555D01*
Y5079D01*
X6595Y5139D02*
X6635Y5079D01*
Y5139D02*
X6595Y5079D01*
X6745Y5139D02*
X6725D01*
X6715Y5129D01*
Y5089D01*
X6725Y5079D01*
X6745D01*
X6755Y5089D01*
Y5129D01*
X6745Y5139D01*
X6775D02*
Y5089D01*
X6785Y5079D01*
X6805D01*
X6815Y5089D01*
Y5139D01*
X6835D02*
X6875D01*
X6855D01*
Y5079D01*
X6535Y4942D02*
Y4882D01*
X6565D01*
X6575Y4892D01*
Y4932D01*
X6565Y4942D01*
X6535D01*
X6635D02*
X6595D01*
Y4882D01*
X6635D01*
X6595Y4912D02*
X6615D01*
X6655Y4942D02*
Y4882D01*
X6685D01*
X6695Y4892D01*
Y4902D01*
X6685Y4912D01*
X6655D01*
X6685D01*
X6695Y4922D01*
Y4932D01*
X6685Y4942D01*
X6655D01*
X6715D02*
Y4892D01*
X6725Y4882D01*
X6745D01*
X6755Y4892D01*
Y4942D01*
X6815Y4932D02*
X6805Y4942D01*
X6785D01*
X6775Y4932D01*
Y4892D01*
X6785Y4882D01*
X6805D01*
X6815Y4892D01*
Y4912D01*
X6795D01*
X6575Y5227D02*
X6565Y5237D01*
X6545D01*
X6535Y5227D01*
Y5187D01*
X6545Y5177D01*
X6565D01*
X6575Y5187D01*
Y5207D01*
X6555D01*
X6595Y5177D02*
Y5237D01*
X6635Y5177D01*
Y5237D01*
X6655D02*
Y5177D01*
X6685D01*
X6695Y5187D01*
Y5227D01*
X6685Y5237D01*
X6655D01*
X1772Y1969D02*
X8858D01*
X1772D02*
Y8268D01*
X8858Y1969D02*
Y8268D01*
X1772D02*
X8858D01*
D73*
X3585Y2358D02*
G03*
X3585Y2358I-4J0D01*
G01*
Y3677D02*
G03*
X3585Y3677I-4J0D01*
G01*
X4295Y6880D02*
G03*
X4295Y6880I-4J0D01*
G01*
X4353Y7166D02*
G03*
X4353Y7166I-4J0D01*
G01*
X4177Y7740D02*
G03*
X4177Y7740I-4J0D01*
G01*
X3909Y6157D02*
G03*
X3909Y6157I-4J0D01*
G01*
X6622Y4450D02*
G03*
X6622Y4450I-4J0D01*
G01*
Y3170D02*
G03*
X6622Y3170I-4J0D01*
G01*
X3263Y2790D02*
G03*
X3263Y2790I-4J0D01*
G01*
X3258Y4266D02*
G03*
X3258Y4266I-4J0D01*
G01*
X3955Y4093D02*
X4002D01*
X3955Y2646D02*
X4002D01*
X3445Y2329D02*
Y2396D01*
X3368Y2329D02*
X3482D01*
X3368Y2396D02*
X3482D01*
X3445Y2250D02*
Y2317D01*
X3368Y2250D02*
X3482D01*
X3368Y2317D02*
X3482D01*
X3445Y3569D02*
Y3636D01*
X3368Y3569D02*
X3482D01*
X3368Y3636D02*
X3482D01*
X3445Y3648D02*
Y3715D01*
X3368Y3648D02*
X3482D01*
X3368Y3715D02*
X3482D01*
X2711Y2283D02*
X2728D01*
X2626D02*
X2644D01*
X2728Y2225D02*
Y2283D01*
X2626Y2225D02*
Y2283D01*
X7018Y7835D02*
X7085D01*
Y7758D02*
Y7872D01*
X7018Y7758D02*
Y7872D01*
X7362Y7230D02*
Y7297D01*
X7285Y7230D02*
X7400D01*
X7285Y7297D02*
X7400D01*
X7323Y7309D02*
Y7376D01*
X7285D02*
X7400D01*
X7285Y7309D02*
X7400D01*
X4866Y4436D02*
X4884D01*
X4781D02*
X4799D01*
X4884Y4378D02*
Y4436D01*
X4781Y4378D02*
Y4436D01*
X4959Y4137D02*
X4976D01*
X5043D02*
X5061D01*
X4959D02*
Y4195D01*
X5061Y4137D02*
Y4195D01*
X5220Y4436D02*
X5238D01*
X5136D02*
X5154D01*
X5238Y4378D02*
Y4436D01*
X5136Y4378D02*
Y4436D01*
X5313Y4137D02*
X5331D01*
X5398D02*
X5415D01*
X5313D02*
Y4195D01*
X5415Y4137D02*
Y4195D01*
X5575Y4436D02*
X5593D01*
X5490D02*
X5508D01*
X5593Y4378D02*
Y4436D01*
X5490Y4378D02*
Y4436D01*
X5667Y4137D02*
X5685D01*
X5752D02*
X5770D01*
X5667D02*
Y4195D01*
X5770Y4137D02*
Y4195D01*
X5929Y4436D02*
X5947D01*
X5844D02*
X5862D01*
X5947Y4378D02*
Y4436D01*
X5844Y4378D02*
Y4436D01*
X6022Y4137D02*
X6039D01*
X6106D02*
X6124D01*
X6022D02*
Y4195D01*
X6124Y4137D02*
Y4195D01*
X4866Y2861D02*
X4884D01*
X4781D02*
X4799D01*
X4884Y2803D02*
Y2861D01*
X4781Y2803D02*
Y2861D01*
X4959Y2562D02*
X4976D01*
X5043D02*
X5061D01*
X4959D02*
Y2620D01*
X5061Y2562D02*
Y2620D01*
X5677Y2562D02*
X5695D01*
X5762D02*
X5780D01*
X5677D02*
Y2620D01*
X5780Y2562D02*
Y2620D01*
X5575Y2861D02*
X5593D01*
X5490D02*
X5508D01*
X5593Y2803D02*
Y2861D01*
X5490Y2803D02*
Y2861D01*
X5929D02*
X5947D01*
X5844D02*
X5862D01*
X5947Y2803D02*
Y2861D01*
X5844Y2803D02*
Y2861D01*
X5323Y2562D02*
X5341D01*
X5407D02*
X5425D01*
X5323D02*
Y2620D01*
X5425Y2562D02*
Y2620D01*
X5220Y2861D02*
X5238D01*
X5136D02*
X5154D01*
X5238Y2803D02*
Y2861D01*
X5136Y2803D02*
Y2861D01*
X6031Y2562D02*
X6049D01*
X6116D02*
X6134D01*
X6031D02*
Y2620D01*
X6134Y2562D02*
Y2620D01*
X7356Y2842D02*
X7374D01*
X7272D02*
X7289D01*
X7374Y2783D02*
Y2842D01*
X7272Y2783D02*
Y2842D01*
X7165Y2900D02*
Y2967D01*
X7089Y2900D02*
X7203D01*
X7089Y2967D02*
X7203D01*
X7165Y4159D02*
Y4226D01*
X7089Y4159D02*
X7203D01*
X7089Y4226D02*
X7203D01*
X7356Y4101D02*
X7374D01*
X7272D02*
X7289D01*
X7374Y4043D02*
Y4101D01*
X7272Y4043D02*
Y4101D01*
X6837Y6007D02*
Y6065D01*
X6939Y6007D02*
Y6065D01*
X6837D02*
X6855D01*
X6922D02*
X6939D01*
X7337Y7000D02*
X7384D01*
X7020Y8014D02*
Y8128D01*
X7087Y8014D02*
Y8128D01*
X7020Y8091D02*
X7087D01*
X3852Y6264D02*
Y6378D01*
X3785Y6264D02*
Y6378D01*
Y6301D02*
X3852D01*
X3954Y2795D02*
X4001D01*
X3093Y2902D02*
X3140D01*
X3950Y4272D02*
X3997D01*
X3089Y4378D02*
X3136D01*
X2417Y4191D02*
X2484D01*
Y4114D02*
Y4228D01*
X2417Y4114D02*
Y4228D01*
X6979Y6130D02*
X7026D01*
X7040Y6006D02*
Y6120D01*
Y6006D02*
X7063D01*
Y6120D01*
X7040D02*
X7063D01*
X2008Y4513D02*
X2217D01*
Y4362D02*
Y4513D01*
Y4133D02*
Y4283D01*
X2008Y4133D02*
X2217D01*
X1764D02*
X1898D01*
X1764D02*
Y4513D01*
X1898D01*
X1764Y2938D02*
X1898D01*
X1764Y2558D02*
Y2938D01*
Y2558D02*
X1898D01*
X2008D02*
X2217D01*
Y2709D01*
Y2787D02*
Y2938D01*
X2008D02*
X2217D01*
X3341Y6936D02*
X3358D01*
X3256D02*
X3274D01*
X3358Y6878D02*
Y6936D01*
X3256Y6878D02*
Y6936D01*
X3386Y7004D02*
Y7071D01*
X3309Y7004D02*
X3423D01*
X3309Y7071D02*
X3423D01*
X2711Y3858D02*
X2728D01*
X2626D02*
X2644D01*
X2728Y3800D02*
Y3858D01*
X2626Y3800D02*
Y3858D01*
X2140Y3767D02*
X2157D01*
X2055D02*
X2073D01*
X2157Y3709D02*
Y3767D01*
X2055Y3709D02*
Y3767D01*
X2417Y2616D02*
X2484D01*
Y2539D02*
Y2654D01*
X2417Y2539D02*
Y2654D01*
X2455Y2310D02*
X2472D01*
X2370D02*
X2388D01*
X2472Y2252D02*
Y2310D01*
X2370Y2252D02*
Y2310D01*
X4571Y4503D02*
Y4631D01*
X4307Y4503D02*
Y4631D01*
Y4503D02*
X4571D01*
X4307Y4631D02*
X4571D01*
X4581Y2790D02*
Y2918D01*
X4317Y2790D02*
Y2918D01*
Y2790D02*
X4581D01*
X4317Y2918D02*
X4581D01*
Y2269D02*
Y2397D01*
X4317Y2269D02*
Y2397D01*
Y2269D02*
X4581D01*
X4317Y2397D02*
X4581D01*
X4571Y4080D02*
Y4208D01*
X4307Y4080D02*
Y4208D01*
Y4080D02*
X4571D01*
X4307Y4208D02*
X4571D01*
D74*
X2607Y2187D02*
G03*
X2607Y2187I-5J0D01*
G01*
X4763Y4340D02*
G03*
X4763Y4340I-5J0D01*
G01*
X5090Y4233D02*
G03*
X5090Y4233I-5J0D01*
G01*
X5117Y4340D02*
G03*
X5117Y4340I-5J0D01*
G01*
X5444Y4233D02*
G03*
X5444Y4233I-5J0D01*
G01*
X5471Y4340D02*
G03*
X5471Y4340I-5J0D01*
G01*
X5798Y4233D02*
G03*
X5798Y4233I-5J0D01*
G01*
X5826Y4340D02*
G03*
X5826Y4340I-5J0D01*
G01*
X6153Y4233D02*
G03*
X6153Y4233I-5J0D01*
G01*
X4763Y2765D02*
G03*
X4763Y2765I-5J0D01*
G01*
X5090Y2658D02*
G03*
X5090Y2658I-5J0D01*
G01*
X5808D02*
G03*
X5808Y2658I-5J0D01*
G01*
X5471Y2765D02*
G03*
X5471Y2765I-5J0D01*
G01*
X5826D02*
G03*
X5826Y2765I-5J0D01*
G01*
X5454Y2658D02*
G03*
X5454Y2658I-5J0D01*
G01*
X5117Y2765D02*
G03*
X5117Y2765I-5J0D01*
G01*
X6163Y2658D02*
G03*
X6163Y2658I-5J0D01*
G01*
X7253Y2745D02*
G03*
X7253Y2745I-5J0D01*
G01*
Y4005D02*
G03*
X7253Y4005I-5J0D01*
G01*
X6818Y5969D02*
G03*
X6818Y5969I-5J0D01*
G01*
X3237Y6840D02*
G03*
X3237Y6840I-5J0D01*
G01*
X2607Y3762D02*
G03*
X2607Y3762I-5J0D01*
G01*
X2036Y3670D02*
G03*
X2036Y3670I-5J0D01*
G01*
X2351Y2214D02*
G03*
X2351Y2214I-5J0D01*
G01*
X4353Y4381D02*
G03*
X4353Y4381I-5J0D01*
G01*
X4363Y2668D02*
G03*
X4363Y2668I-5J0D01*
G01*
Y2147D02*
G03*
X4363Y2147I-5J0D01*
G01*
X4353Y3958D02*
G03*
X4353Y3958I-5J0D01*
G01*
D75*
X2307Y4323D02*
G03*
X2303Y4323I-2J0D01*
G01*
D02*
G03*
X2307Y4323I2J0D01*
G01*
X2303Y2748D02*
G03*
X2307Y2748I2J0D01*
G01*
D02*
G03*
X2303Y2748I-2J0D01*
G01*
D76*
X2041Y2492D02*
G03*
X2041Y2492I-6J0D01*
G01*
Y4007D02*
G03*
X2041Y4007I-6J0D01*
G01*
D77*
X4749Y4911D02*
Y5030D01*
X4602Y4911D02*
Y5030D01*
X4518Y3253D02*
X4636D01*
X4518Y3400D02*
X4636D01*
X4749Y3022D02*
Y3140D01*
X4602Y3022D02*
Y3140D01*
Y3553D02*
Y3671D01*
X4749Y3553D02*
Y3671D01*
Y3858D02*
Y3976D01*
X4602Y3858D02*
Y3976D01*
X4508Y1994D02*
X4626D01*
X4508Y2140D02*
X4626D01*
X4602Y2283D02*
Y2402D01*
X4749Y2283D02*
Y2402D01*
X4602Y4606D02*
Y4724D01*
X4749Y4606D02*
Y4724D01*
X3663Y2184D02*
X3817D01*
X3663Y2383D02*
X3817D01*
X3663Y3503D02*
X3817D01*
X3663Y3702D02*
X3817D01*
X4968Y4348D02*
Y4411D01*
X5052Y4348D02*
Y4411D01*
X5229Y4161D02*
Y4224D01*
X5145Y4161D02*
Y4224D01*
X5322Y4348D02*
Y4411D01*
X5406Y4348D02*
Y4411D01*
X5762Y4348D02*
Y4411D01*
X5679Y4348D02*
Y4411D01*
X5499Y4161D02*
Y4224D01*
X5583Y4161D02*
Y4224D01*
X5938Y4161D02*
Y4224D01*
X5854Y4161D02*
Y4224D01*
X6033Y4348D02*
Y4411D01*
X6117Y4348D02*
Y4411D01*
X5583Y2587D02*
Y2650D01*
X5499Y2587D02*
Y2650D01*
X5686Y2774D02*
Y2837D01*
X5770Y2774D02*
Y2837D01*
X5052Y2774D02*
Y2837D01*
X4968Y2774D02*
Y2837D01*
X4781Y2587D02*
Y2650D01*
X4865Y2587D02*
Y2650D01*
X5406Y2774D02*
Y2837D01*
X5322Y2774D02*
Y2837D01*
X5135Y2587D02*
Y2650D01*
X5219Y2587D02*
Y2650D01*
X6125Y2774D02*
Y2837D01*
X6041Y2774D02*
Y2837D01*
X6378Y4257D02*
X6496D01*
X6378Y4404D02*
X6496D01*
X6378Y3125D02*
X6496D01*
X6378Y2978D02*
X6496D01*
X4705Y7436D02*
X4823D01*
X4705Y7289D02*
X4823D01*
X4261Y6929D02*
Y6996D01*
X4322Y6929D02*
Y6996D01*
X4327Y7268D02*
Y7412D01*
X4521Y7268D02*
Y7412D01*
X4204Y7624D02*
Y7691D01*
X4143Y7624D02*
Y7691D01*
X3797Y6031D02*
Y6094D01*
X3920Y6031D02*
Y6094D01*
X3087Y3079D02*
Y3197D01*
X3234Y3079D02*
Y3197D01*
X3066Y3079D02*
Y3197D01*
X2919Y3079D02*
Y3197D01*
Y4654D02*
Y4772D01*
X3066Y4654D02*
Y4772D01*
X3234Y4654D02*
Y4772D01*
X3087Y4654D02*
Y4772D01*
X4705Y7801D02*
X4823D01*
X4705Y7947D02*
X4823D01*
X4875Y4161D02*
Y4224D01*
X4791Y4161D02*
Y4224D01*
X6343Y4646D02*
X6531D01*
X6343Y4449D02*
X6531D01*
X6343Y3366D02*
X6531D01*
X6343Y3169D02*
X6531D01*
X5854Y2587D02*
Y2650D01*
X5938Y2587D02*
Y2650D01*
X3341Y2596D02*
X3518D01*
X3341Y2797D02*
X3518D01*
X3337Y4073D02*
X3514D01*
X3337Y4274D02*
X3514D01*
X4616Y4149D02*
X4586D01*
Y4164D01*
X4591Y4169D01*
X4601D01*
X4606Y4164D01*
Y4149D01*
Y4159D02*
X4616Y4169D01*
Y4199D02*
Y4179D01*
X4596Y4199D01*
X4591D01*
X4586Y4194D01*
Y4184D01*
X4591Y4179D01*
X4586Y4229D02*
X4591Y4219D01*
X4601Y4209D01*
X4611D01*
X4616Y4214D01*
Y4224D01*
X4611Y4229D01*
X4606D01*
X4601Y4224D01*
Y4209D01*
X3839Y2638D02*
Y2605D01*
X3845Y2598D01*
X3859D01*
X3865Y2605D01*
Y2638D01*
X3879Y2598D02*
X3892D01*
X3885D01*
Y2638D01*
X3879Y2632D01*
X3912Y2638D02*
X3939D01*
Y2632D01*
X3912Y2605D01*
Y2598D01*
X3829Y4090D02*
Y4057D01*
X3835Y4050D01*
X3849D01*
X3855Y4057D01*
Y4090D01*
X3869Y4050D02*
X3882D01*
X3875D01*
Y4090D01*
X3869Y4083D01*
X3929Y4090D02*
X3915Y4083D01*
X3902Y4070D01*
Y4057D01*
X3909Y4050D01*
X3922D01*
X3929Y4057D01*
Y4063D01*
X3922Y4070D01*
X3902D01*
X4331Y2539D02*
X4301D01*
Y2554D01*
X4306Y2559D01*
X4316D01*
X4321Y2554D01*
Y2539D01*
Y2549D02*
X4331Y2559D01*
Y2584D02*
X4301D01*
X4316Y2569D01*
Y2589D01*
X4301Y2599D02*
Y2619D01*
X4306D01*
X4326Y2599D01*
X4331D01*
X4142Y2785D02*
Y2815D01*
X4157D01*
X4162Y2810D01*
Y2800D01*
X4157Y2795D01*
X4142D01*
X4152D02*
X4162Y2785D01*
X4187D02*
Y2815D01*
X4172Y2800D01*
X4192D01*
X4222Y2815D02*
X4212Y2810D01*
X4202Y2800D01*
Y2790D01*
X4207Y2785D01*
X4217D01*
X4222Y2790D01*
Y2795D01*
X4217Y2800D01*
X4202D01*
X4154Y3927D02*
Y3952D01*
X4166D01*
X4170Y3948D01*
Y3940D01*
X4166Y3935D01*
X4154D01*
X4162D02*
X4170Y3927D01*
X4191D02*
Y3952D01*
X4179Y3940D01*
X4195D01*
X4216Y3927D02*
Y3952D01*
X4204Y3940D01*
X4220D01*
X4154Y4114D02*
Y4139D01*
X4166D01*
X4170Y4135D01*
Y4127D01*
X4166Y4123D01*
X4154D01*
X4162D02*
X4170Y4114D01*
X4191D02*
Y4139D01*
X4179Y4127D01*
X4195D01*
X4204Y4135D02*
X4208Y4139D01*
X4216D01*
X4220Y4135D01*
Y4131D01*
X4216Y4127D01*
X4212D01*
X4216D01*
X4220Y4123D01*
Y4118D01*
X4216Y4114D01*
X4208D01*
X4204Y4118D01*
X3602Y2442D02*
Y2408D01*
X3609Y2402D01*
X3622D01*
X3629Y2408D01*
Y2442D01*
X3642Y2402D02*
X3656D01*
X3649D01*
Y2442D01*
X3642Y2435D01*
X3702Y2442D02*
X3676D01*
Y2422D01*
X3689Y2428D01*
X3696D01*
X3702Y2422D01*
Y2408D01*
X3696Y2402D01*
X3682D01*
X3676Y2408D01*
X3307Y2417D02*
X3277D01*
Y2432D01*
X3282Y2437D01*
X3292D01*
X3297Y2432D01*
Y2417D01*
Y2427D02*
X3307Y2437D01*
Y2462D02*
X3277D01*
X3292Y2447D01*
Y2467D01*
X3282Y2477D02*
X3277Y2482D01*
Y2492D01*
X3282Y2497D01*
X3287D01*
X3292Y2492D01*
X3297Y2497D01*
X3302D01*
X3307Y2492D01*
Y2482D01*
X3302Y2477D01*
X3297D01*
X3292Y2482D01*
X3287Y2477D01*
X3282D01*
X3292Y2482D02*
Y2492D01*
X4350Y2421D02*
X4320D01*
Y2436D01*
X4325Y2441D01*
X4335D01*
X4340Y2436D01*
Y2421D01*
Y2431D02*
X4350Y2441D01*
Y2466D02*
X4320D01*
X4335Y2451D01*
Y2471D01*
X4345Y2481D02*
X4350Y2486D01*
Y2496D01*
X4345Y2501D01*
X4325D01*
X4320Y2496D01*
Y2486D01*
X4325Y2481D01*
X4330D01*
X4335Y2486D01*
Y2501D01*
X3197Y2067D02*
Y2107D01*
X3217D01*
X3223Y2100D01*
Y2087D01*
X3217Y2080D01*
X3197D01*
X3210D02*
X3223Y2067D01*
X3263Y2107D02*
X3237D01*
Y2087D01*
X3250Y2094D01*
X3257D01*
X3263Y2087D01*
Y2074D01*
X3257Y2067D01*
X3243D01*
X3237Y2074D01*
X3277Y2100D02*
X3283Y2107D01*
X3297D01*
X3303Y2100D01*
Y2094D01*
X3297Y2087D01*
X3290D01*
X3297D01*
X3303Y2080D01*
Y2074D01*
X3297Y2067D01*
X3283D01*
X3277Y2074D01*
X3945Y2520D02*
Y2550D01*
X3960D01*
X3965Y2545D01*
Y2535D01*
X3960Y2530D01*
X3945D01*
X3955D02*
X3965Y2520D01*
X3975Y2550D02*
X3995D01*
Y2545D01*
X3975Y2525D01*
Y2520D01*
X4025Y2550D02*
X4005D01*
Y2535D01*
X4015Y2540D01*
X4020D01*
X4025Y2535D01*
Y2525D01*
X4020Y2520D01*
X4010D01*
X4005Y2525D01*
X3898Y2057D02*
Y2097D01*
X3918D01*
X3924Y2090D01*
Y2077D01*
X3918Y2070D01*
X3898D01*
X3911D02*
X3924Y2057D01*
X3938Y2097D02*
X3964D01*
Y2090D01*
X3938Y2064D01*
Y2057D01*
X4004Y2097D02*
X3991Y2090D01*
X3978Y2077D01*
Y2064D01*
X3984Y2057D01*
X3998D01*
X4004Y2064D01*
Y2070D01*
X3998Y2077D01*
X3978D01*
X4114Y2244D02*
Y2284D01*
X4134D01*
X4141Y2277D01*
Y2264D01*
X4134Y2257D01*
X4114D01*
X4128D02*
X4141Y2244D01*
X4154Y2284D02*
X4181D01*
Y2277D01*
X4154Y2251D01*
Y2244D01*
X4194Y2277D02*
X4201Y2284D01*
X4214D01*
X4221Y2277D01*
Y2271D01*
X4214Y2264D01*
X4221Y2257D01*
Y2251D01*
X4214Y2244D01*
X4201D01*
X4194Y2251D01*
Y2257D01*
X4201Y2264D01*
X4194Y2271D01*
Y2277D01*
X4201Y2264D02*
X4214D01*
X3197Y2165D02*
Y2205D01*
X3217D01*
X3223Y2199D01*
Y2185D01*
X3217Y2179D01*
X3197D01*
X3210D02*
X3223Y2165D01*
X3237Y2199D02*
X3243Y2205D01*
X3257D01*
X3263Y2199D01*
Y2192D01*
X3257Y2185D01*
X3263Y2179D01*
Y2172D01*
X3257Y2165D01*
X3243D01*
X3237Y2172D01*
Y2179D01*
X3243Y2185D01*
X3237Y2192D01*
Y2199D01*
X3243Y2185D02*
X3257D01*
X3277Y2165D02*
X3290D01*
X3283D01*
Y2205D01*
X3277Y2199D01*
X4114Y2343D02*
Y2383D01*
X4134D01*
X4141Y2376D01*
Y2363D01*
X4134Y2356D01*
X4114D01*
X4128D02*
X4141Y2343D01*
X4154Y2349D02*
X4161Y2343D01*
X4174D01*
X4181Y2349D01*
Y2376D01*
X4174Y2383D01*
X4161D01*
X4154Y2376D01*
Y2369D01*
X4161Y2363D01*
X4181D01*
X4214Y2343D02*
Y2383D01*
X4194Y2363D01*
X4221D01*
X4114Y2146D02*
Y2186D01*
X4134D01*
X4141Y2179D01*
Y2166D01*
X4134Y2159D01*
X4114D01*
X4128D02*
X4141Y2146D01*
X4154Y2152D02*
X4161Y2146D01*
X4174D01*
X4181Y2152D01*
Y2179D01*
X4174Y2186D01*
X4161D01*
X4154Y2179D01*
Y2172D01*
X4161Y2166D01*
X4181D01*
X4194Y2179D02*
X4201Y2186D01*
X4214D01*
X4221Y2179D01*
Y2172D01*
X4214Y2166D01*
X4207D01*
X4214D01*
X4221Y2159D01*
Y2152D01*
X4214Y2146D01*
X4201D01*
X4194Y2152D01*
X3209Y2383D02*
Y2343D01*
X3229D01*
X3235Y2349D01*
Y2376D01*
X3229Y2383D01*
X3209D01*
X3249Y2343D02*
X3262D01*
X3255D01*
Y2383D01*
X3249Y2376D01*
X3302Y2343D02*
Y2383D01*
X3282Y2363D01*
X3309D01*
X3209Y2304D02*
Y2264D01*
X3229D01*
X3235Y2270D01*
Y2297D01*
X3229Y2304D01*
X3209D01*
X3249Y2264D02*
X3262D01*
X3255D01*
Y2304D01*
X3249Y2297D01*
X3282D02*
X3289Y2304D01*
X3302D01*
X3309Y2297D01*
Y2290D01*
X3302Y2284D01*
X3295D01*
X3302D01*
X3309Y2277D01*
Y2270D01*
X3302Y2264D01*
X3289D01*
X3282Y2270D01*
X3583Y2013D02*
X3578Y2018D01*
X3568D01*
X3563Y2013D01*
Y1993D01*
X3568Y1988D01*
X3578D01*
X3583Y1993D01*
X3608Y1988D02*
Y2018D01*
X3593Y2003D01*
X3613D01*
X3623Y2013D02*
X3628Y2018D01*
X3638D01*
X3643Y2013D01*
Y1993D01*
X3638Y1988D01*
X3628D01*
X3623Y1993D01*
Y2013D01*
X3755Y2441D02*
X3750Y2436D01*
Y2426D01*
X3755Y2421D01*
X3775D01*
X3780Y2426D01*
Y2436D01*
X3775Y2441D01*
X3780Y2471D02*
Y2451D01*
X3760Y2471D01*
X3755D01*
X3750Y2466D01*
Y2456D01*
X3755Y2451D01*
X3750Y2501D02*
X3755Y2491D01*
X3765Y2481D01*
X3775D01*
X3780Y2486D01*
Y2496D01*
X3775Y2501D01*
X3770D01*
X3765Y2496D01*
Y2481D01*
X7315Y7442D02*
Y7402D01*
X7335D01*
X7342Y7408D01*
Y7435D01*
X7335Y7442D01*
X7315D01*
X7355Y7435D02*
X7362Y7442D01*
X7375D01*
X7382Y7435D01*
Y7428D01*
X7375Y7422D01*
X7382Y7415D01*
Y7408D01*
X7375Y7402D01*
X7362D01*
X7355Y7408D01*
Y7415D01*
X7362Y7422D01*
X7355Y7428D01*
Y7435D01*
X7362Y7422D02*
X7375D01*
X7480Y7284D02*
Y7244D01*
X7500D01*
X7507Y7251D01*
Y7277D01*
X7500Y7284D01*
X7480D01*
X7520D02*
X7547D01*
Y7277D01*
X7520Y7251D01*
Y7244D01*
X3307Y2977D02*
X3302Y2982D01*
X3292D01*
X3287Y2977D01*
Y2957D01*
X3292Y2952D01*
X3302D01*
X3307Y2957D01*
X3317Y2977D02*
X3322Y2982D01*
X3332D01*
X3337Y2977D01*
Y2972D01*
X3332Y2967D01*
X3327D01*
X3332D01*
X3337Y2962D01*
Y2957D01*
X3332Y2952D01*
X3322D01*
X3317Y2957D01*
X3347Y2977D02*
X3352Y2982D01*
X3362D01*
X3367Y2977D01*
Y2972D01*
X3362Y2967D01*
X3357D01*
X3362D01*
X3367Y2962D01*
Y2957D01*
X3362Y2952D01*
X3352D01*
X3347Y2957D01*
X3707Y2861D02*
X3700Y2855D01*
Y2841D01*
X3707Y2835D01*
X3733D01*
X3740Y2841D01*
Y2855D01*
X3733Y2861D01*
X3707Y2875D02*
X3700Y2881D01*
Y2895D01*
X3707Y2901D01*
X3713D01*
X3720Y2895D01*
Y2888D01*
Y2895D01*
X3727Y2901D01*
X3733D01*
X3740Y2895D01*
Y2881D01*
X3733Y2875D01*
X3740Y2935D02*
X3700D01*
X3720Y2915D01*
Y2941D01*
X4145Y2960D02*
X4139Y2953D01*
Y2940D01*
X4145Y2933D01*
X4172D01*
X4179Y2940D01*
Y2953D01*
X4172Y2960D01*
X4145Y2973D02*
X4139Y2980D01*
Y2993D01*
X4145Y3000D01*
X4152D01*
X4159Y2993D01*
Y2986D01*
Y2993D01*
X4165Y3000D01*
X4172D01*
X4179Y2993D01*
Y2980D01*
X4172Y2973D01*
X4139Y3040D02*
Y3013D01*
X4159D01*
X4152Y3026D01*
Y3033D01*
X4159Y3040D01*
X4172D01*
X4179Y3033D01*
Y3020D01*
X4172Y3013D01*
X2943Y2938D02*
X2938Y2943D01*
X2928D01*
X2923Y2938D01*
Y2918D01*
X2928Y2913D01*
X2938D01*
X2943Y2918D01*
X2953Y2938D02*
X2958Y2943D01*
X2968D01*
X2973Y2938D01*
Y2933D01*
X2968Y2928D01*
X2963D01*
X2968D01*
X2973Y2923D01*
Y2918D01*
X2968Y2913D01*
X2958D01*
X2953Y2918D01*
X3003Y2943D02*
X2993Y2938D01*
X2983Y2928D01*
Y2918D01*
X2988Y2913D01*
X2998D01*
X3003Y2918D01*
Y2923D01*
X2998Y2928D01*
X2983D01*
X3678Y2612D02*
X3672Y2619D01*
X3658D01*
X3652Y2612D01*
Y2585D01*
X3658Y2579D01*
X3672D01*
X3678Y2585D01*
X3692Y2612D02*
X3698Y2619D01*
X3712D01*
X3718Y2612D01*
Y2605D01*
X3712Y2599D01*
X3705D01*
X3712D01*
X3718Y2592D01*
Y2585D01*
X3712Y2579D01*
X3698D01*
X3692Y2585D01*
X3732Y2619D02*
X3758D01*
Y2612D01*
X3732Y2585D01*
Y2579D01*
X3864Y2861D02*
X3858Y2855D01*
Y2841D01*
X3864Y2835D01*
X3891D01*
X3898Y2841D01*
Y2855D01*
X3891Y2861D01*
X3864Y2875D02*
X3858Y2881D01*
Y2895D01*
X3864Y2901D01*
X3871D01*
X3878Y2895D01*
Y2888D01*
Y2895D01*
X3884Y2901D01*
X3891D01*
X3898Y2895D01*
Y2881D01*
X3891Y2875D01*
X3864Y2915D02*
X3858Y2921D01*
Y2935D01*
X3864Y2941D01*
X3871D01*
X3878Y2935D01*
X3884Y2941D01*
X3891D01*
X3898Y2935D01*
Y2921D01*
X3891Y2915D01*
X3884D01*
X3878Y2921D01*
X3871Y2915D01*
X3864D01*
X3878Y2921D02*
Y2935D01*
X2933Y2781D02*
X2928Y2786D01*
X2918D01*
X2913Y2781D01*
Y2761D01*
X2918Y2756D01*
X2928D01*
X2933Y2761D01*
X2943Y2781D02*
X2948Y2786D01*
X2958D01*
X2963Y2781D01*
Y2776D01*
X2958Y2771D01*
X2953D01*
X2958D01*
X2963Y2766D01*
Y2761D01*
X2958Y2756D01*
X2948D01*
X2943Y2761D01*
X2973D02*
X2978Y2756D01*
X2988D01*
X2993Y2761D01*
Y2781D01*
X2988Y2786D01*
X2978D01*
X2973Y2781D01*
Y2776D01*
X2978Y2771D01*
X2993D01*
X6181Y3234D02*
X6176Y3239D01*
X6166D01*
X6161Y3234D01*
Y3214D01*
X6166Y3209D01*
X6176D01*
X6181Y3214D01*
X6206Y3209D02*
Y3239D01*
X6191Y3224D01*
X6211D01*
X6221Y3209D02*
X6231D01*
X6226D01*
Y3239D01*
X6221Y3234D01*
X6727Y3229D02*
X6722Y3224D01*
Y3214D01*
X6727Y3209D01*
X6747D01*
X6752Y3214D01*
Y3224D01*
X6747Y3229D01*
X6752Y3254D02*
X6722D01*
X6737Y3239D01*
Y3259D01*
X6752Y3289D02*
Y3269D01*
X6732Y3289D01*
X6727D01*
X6722Y3284D01*
Y3274D01*
X6727Y3269D01*
X2362Y2549D02*
X2402D01*
Y2569D01*
X2395Y2576D01*
X2368D01*
X2362Y2569D01*
Y2549D01*
X2402Y2589D02*
Y2603D01*
Y2596D01*
X2362D01*
X2368Y2589D01*
X2362Y2649D02*
Y2623D01*
X2382D01*
X2375Y2636D01*
Y2643D01*
X2382Y2649D01*
X2395D01*
X2402Y2643D01*
Y2629D01*
X2395Y2623D01*
X7091Y2882D02*
Y2842D01*
X7111D01*
X7117Y2848D01*
Y2875D01*
X7111Y2882D01*
X7091D01*
X7131Y2842D02*
X7144D01*
X7137D01*
Y2882D01*
X7131Y2875D01*
X7191Y2882D02*
X7177Y2875D01*
X7164Y2862D01*
Y2848D01*
X7171Y2842D01*
X7184D01*
X7191Y2848D01*
Y2855D01*
X7184Y2862D01*
X7164D01*
X7724Y3022D02*
X7710D01*
X7717D01*
Y2989D01*
X7710Y2982D01*
X7704D01*
X7697Y2989D01*
X7737Y2982D02*
Y3022D01*
X7757D01*
X7763Y3016D01*
Y3002D01*
X7757Y2996D01*
X7737D01*
X7777Y2982D02*
X7790D01*
X7783D01*
Y3022D01*
X7777Y3016D01*
X7810D02*
X7817Y3022D01*
X7830D01*
X7837Y3016D01*
Y2989D01*
X7830Y2982D01*
X7817D01*
X7810Y2989D01*
Y3016D01*
X4811Y3408D02*
Y3428D01*
X4806Y3433D01*
X4796D01*
X4791Y3428D01*
Y3408D01*
X4796Y3403D01*
X4806D01*
X4801Y3413D02*
X4811Y3403D01*
X4806D02*
X4811Y3408D01*
X4841Y3403D02*
X4821D01*
X4841Y3423D01*
Y3428D01*
X4836Y3433D01*
X4826D01*
X4821Y3428D01*
X4871Y3433D02*
X4851D01*
Y3418D01*
X4861Y3423D01*
X4866D01*
X4871Y3418D01*
Y3408D01*
X4866Y3403D01*
X4856D01*
X4851Y3408D01*
X4760Y2832D02*
X4743D01*
X4739Y2827D01*
Y2819D01*
X4743Y2815D01*
X4760D01*
X4764Y2819D01*
Y2827D01*
X4755Y2823D02*
X4764Y2832D01*
Y2827D02*
X4760Y2832D01*
X4764Y2857D02*
Y2840D01*
X4747Y2857D01*
X4743D01*
X4739Y2852D01*
Y2844D01*
X4743Y2840D01*
X4739Y2882D02*
X4743Y2873D01*
X4751Y2865D01*
X4760D01*
X4764Y2869D01*
Y2877D01*
X4760Y2882D01*
X4755D01*
X4751Y2877D01*
Y2865D01*
X4426Y3038D02*
Y3065D01*
X4420Y3071D01*
X4406D01*
X4400Y3065D01*
Y3038D01*
X4406Y3031D01*
X4420D01*
X4413Y3045D02*
X4426Y3031D01*
X4420D02*
X4426Y3038D01*
X4466Y3031D02*
X4440D01*
X4466Y3058D01*
Y3065D01*
X4460Y3071D01*
X4446D01*
X4440Y3065D01*
X4480Y3071D02*
X4506D01*
Y3065D01*
X4480Y3038D01*
Y3031D01*
X2756Y2308D02*
Y2328D01*
X2751Y2333D01*
X2741D01*
X2736Y2328D01*
Y2308D01*
X2741Y2303D01*
X2751D01*
X2746Y2313D02*
X2756Y2303D01*
X2751D02*
X2756Y2308D01*
X2786Y2303D02*
X2766D01*
X2786Y2323D01*
Y2328D01*
X2781Y2333D01*
X2771D01*
X2766Y2328D01*
X2796D02*
X2801Y2333D01*
X2811D01*
X2816Y2328D01*
Y2323D01*
X2811Y2318D01*
X2816Y2313D01*
Y2308D01*
X2811Y2303D01*
X2801D01*
X2796Y2308D01*
Y2313D01*
X2801Y2318D01*
X2796Y2323D01*
Y2328D01*
X2801Y2318D02*
X2811D01*
X4426Y2517D02*
Y2543D01*
X4420Y2550D01*
X4406D01*
X4400Y2543D01*
Y2517D01*
X4406Y2510D01*
X4420D01*
X4413Y2523D02*
X4426Y2510D01*
X4420D02*
X4426Y2517D01*
X4466Y2510D02*
X4440D01*
X4466Y2537D01*
Y2543D01*
X4460Y2550D01*
X4446D01*
X4440Y2543D01*
X4480Y2517D02*
X4486Y2510D01*
X4500D01*
X4506Y2517D01*
Y2543D01*
X4500Y2550D01*
X4486D01*
X4480Y2543D01*
Y2537D01*
X4486Y2530D01*
X4506D01*
X4937Y2579D02*
X4920D01*
X4916Y2575D01*
Y2566D01*
X4920Y2562D01*
X4937D01*
X4941Y2566D01*
Y2575D01*
X4933Y2570D02*
X4941Y2579D01*
Y2575D02*
X4937Y2579D01*
X4920Y2587D02*
X4916Y2591D01*
Y2599D01*
X4920Y2604D01*
X4924D01*
X4928Y2599D01*
Y2595D01*
Y2599D01*
X4933Y2604D01*
X4937D01*
X4941Y2599D01*
Y2591D01*
X4937Y2587D01*
X4920Y2612D02*
X4916Y2616D01*
Y2624D01*
X4920Y2629D01*
X4937D01*
X4941Y2624D01*
Y2616D01*
X4937Y2612D01*
X4920D01*
X4803Y2003D02*
Y2023D01*
X4798Y2028D01*
X4788D01*
X4783Y2023D01*
Y2003D01*
X4788Y1998D01*
X4798D01*
X4793Y2008D02*
X4803Y1998D01*
X4798D02*
X4803Y2003D01*
X4813Y2023D02*
X4818Y2028D01*
X4828D01*
X4833Y2023D01*
Y2018D01*
X4828Y2013D01*
X4823D01*
X4828D01*
X4833Y2008D01*
Y2003D01*
X4828Y1998D01*
X4818D01*
X4813Y2003D01*
X4843Y1998D02*
X4853D01*
X4848D01*
Y2028D01*
X4843Y2023D01*
X5165Y3408D02*
Y3428D01*
X5160Y3433D01*
X5150D01*
X5145Y3428D01*
Y3408D01*
X5150Y3403D01*
X5160D01*
X5155Y3413D02*
X5165Y3403D01*
X5160D02*
X5165Y3408D01*
X5175Y3428D02*
X5180Y3433D01*
X5190D01*
X5195Y3428D01*
Y3423D01*
X5190Y3418D01*
X5185D01*
X5190D01*
X5195Y3413D01*
Y3408D01*
X5190Y3403D01*
X5180D01*
X5175Y3408D01*
X5225Y3403D02*
X5205D01*
X5225Y3423D01*
Y3428D01*
X5220Y3433D01*
X5210D01*
X5205Y3428D01*
X5520Y3408D02*
Y3428D01*
X5515Y3433D01*
X5505D01*
X5500Y3428D01*
Y3408D01*
X5505Y3403D01*
X5515D01*
X5510Y3413D02*
X5520Y3403D01*
X5515D02*
X5520Y3408D01*
X5530Y3428D02*
X5535Y3433D01*
X5545D01*
X5550Y3428D01*
Y3423D01*
X5545Y3418D01*
X5540D01*
X5545D01*
X5550Y3413D01*
Y3408D01*
X5545Y3403D01*
X5535D01*
X5530Y3408D01*
X5560Y3428D02*
X5565Y3433D01*
X5575D01*
X5580Y3428D01*
Y3423D01*
X5575Y3418D01*
X5570D01*
X5575D01*
X5580Y3413D01*
Y3408D01*
X5575Y3403D01*
X5565D01*
X5560Y3408D01*
X5874D02*
Y3428D01*
X5869Y3433D01*
X5859D01*
X5854Y3428D01*
Y3408D01*
X5859Y3403D01*
X5869D01*
X5864Y3413D02*
X5874Y3403D01*
X5869D02*
X5874Y3408D01*
X5884Y3428D02*
X5889Y3433D01*
X5899D01*
X5904Y3428D01*
Y3423D01*
X5899Y3418D01*
X5894D01*
X5899D01*
X5904Y3413D01*
Y3408D01*
X5899Y3403D01*
X5889D01*
X5884Y3408D01*
X5929Y3403D02*
Y3433D01*
X5914Y3418D01*
X5934D01*
X5119Y2824D02*
X5103D01*
X5099Y2820D01*
Y2811D01*
X5103Y2807D01*
X5119D01*
X5124Y2811D01*
Y2820D01*
X5115Y2815D02*
X5124Y2824D01*
Y2820D02*
X5119Y2824D01*
X5103Y2832D02*
X5099Y2836D01*
Y2845D01*
X5103Y2849D01*
X5107D01*
X5111Y2845D01*
Y2840D01*
Y2845D01*
X5115Y2849D01*
X5119D01*
X5124Y2845D01*
Y2836D01*
X5119Y2832D01*
X5099Y2874D02*
Y2857D01*
X5111D01*
X5107Y2865D01*
Y2870D01*
X5111Y2874D01*
X5119D01*
X5124Y2870D01*
Y2861D01*
X5119Y2857D01*
X5473Y2822D02*
X5457D01*
X5452Y2818D01*
Y2809D01*
X5457Y2805D01*
X5473D01*
X5477Y2809D01*
Y2818D01*
X5469Y2813D02*
X5477Y2822D01*
Y2818D02*
X5473Y2822D01*
X5457Y2830D02*
X5452Y2834D01*
Y2843D01*
X5457Y2847D01*
X5461D01*
X5465Y2843D01*
Y2838D01*
Y2843D01*
X5469Y2847D01*
X5473D01*
X5477Y2843D01*
Y2834D01*
X5473Y2830D01*
X5452Y2872D02*
X5457Y2863D01*
X5465Y2855D01*
X5473D01*
X5477Y2859D01*
Y2868D01*
X5473Y2872D01*
X5469D01*
X5465Y2868D01*
Y2855D01*
X5828Y2812D02*
X5811D01*
X5807Y2808D01*
Y2799D01*
X5811Y2795D01*
X5828D01*
X5832Y2799D01*
Y2808D01*
X5823Y2804D02*
X5832Y2812D01*
Y2808D02*
X5828Y2812D01*
X5811Y2820D02*
X5807Y2824D01*
Y2833D01*
X5811Y2837D01*
X5815D01*
X5819Y2833D01*
Y2829D01*
Y2833D01*
X5823Y2837D01*
X5828D01*
X5832Y2833D01*
Y2824D01*
X5828Y2820D01*
X5807Y2845D02*
Y2862D01*
X5811D01*
X5828Y2845D01*
X5832D01*
X7399Y2871D02*
Y2897D01*
X7392Y2904D01*
X7379D01*
X7372Y2897D01*
Y2871D01*
X7379Y2864D01*
X7392D01*
X7385Y2878D02*
X7399Y2864D01*
X7392D02*
X7399Y2871D01*
X7412Y2897D02*
X7419Y2904D01*
X7432D01*
X7439Y2897D01*
Y2891D01*
X7432Y2884D01*
X7425D01*
X7432D01*
X7439Y2878D01*
Y2871D01*
X7432Y2864D01*
X7419D01*
X7412Y2871D01*
X7452Y2897D02*
X7459Y2904D01*
X7472D01*
X7479Y2897D01*
Y2891D01*
X7472Y2884D01*
X7479Y2878D01*
Y2871D01*
X7472Y2864D01*
X7459D01*
X7452Y2871D01*
Y2878D01*
X7459Y2884D01*
X7452Y2891D01*
Y2897D01*
X7459Y2884D02*
X7472D01*
X5301Y2576D02*
X5284D01*
X5280Y2572D01*
Y2563D01*
X5284Y2559D01*
X5301D01*
X5305Y2563D01*
Y2572D01*
X5297Y2567D02*
X5305Y2576D01*
Y2572D02*
X5301Y2576D01*
X5284Y2584D02*
X5280Y2588D01*
Y2597D01*
X5284Y2601D01*
X5288D01*
X5293Y2597D01*
Y2592D01*
Y2597D01*
X5297Y2601D01*
X5301D01*
X5305Y2597D01*
Y2588D01*
X5301Y2584D01*
Y2609D02*
X5305Y2613D01*
Y2622D01*
X5301Y2626D01*
X5284D01*
X5280Y2622D01*
Y2613D01*
X5284Y2609D01*
X5288D01*
X5293Y2613D01*
Y2626D01*
X5655Y2579D02*
X5639D01*
X5634Y2575D01*
Y2566D01*
X5639Y2562D01*
X5655D01*
X5659Y2566D01*
Y2575D01*
X5651Y2570D02*
X5659Y2579D01*
Y2575D02*
X5655Y2579D01*
X5659Y2599D02*
X5634D01*
X5647Y2587D01*
Y2604D01*
X5639Y2612D02*
X5634Y2616D01*
Y2624D01*
X5639Y2629D01*
X5655D01*
X5659Y2624D01*
Y2616D01*
X5655Y2612D01*
X5639D01*
X6177Y2576D02*
X6160D01*
X6156Y2572D01*
Y2563D01*
X6160Y2559D01*
X6177D01*
X6181Y2563D01*
Y2572D01*
X6173Y2567D02*
X6181Y2576D01*
Y2572D02*
X6177Y2576D01*
X6181Y2597D02*
X6156D01*
X6169Y2584D01*
Y2601D01*
X6181Y2609D02*
Y2617D01*
Y2613D01*
X6156D01*
X6160Y2609D01*
X5158Y2003D02*
Y2023D01*
X5153Y2028D01*
X5143D01*
X5138Y2023D01*
Y2003D01*
X5143Y1998D01*
X5153D01*
X5148Y2008D02*
X5158Y1998D01*
X5153D02*
X5158Y2003D01*
X5183Y1998D02*
Y2028D01*
X5168Y2013D01*
X5188D01*
X5218Y1998D02*
X5198D01*
X5218Y2018D01*
Y2023D01*
X5213Y2028D01*
X5203D01*
X5198Y2023D01*
X5522Y2003D02*
Y2023D01*
X5517Y2028D01*
X5507D01*
X5502Y2023D01*
Y2003D01*
X5507Y1998D01*
X5517D01*
X5512Y2008D02*
X5522Y1998D01*
X5517D02*
X5522Y2003D01*
X5547Y1998D02*
Y2028D01*
X5532Y2013D01*
X5552D01*
X5562Y2023D02*
X5567Y2028D01*
X5577D01*
X5582Y2023D01*
Y2018D01*
X5577Y2013D01*
X5572D01*
X5577D01*
X5582Y2008D01*
Y2003D01*
X5577Y1998D01*
X5567D01*
X5562Y2003D01*
X5876D02*
Y2023D01*
X5871Y2028D01*
X5861D01*
X5856Y2023D01*
Y2003D01*
X5861Y1998D01*
X5871D01*
X5866Y2008D02*
X5876Y1998D01*
X5871D02*
X5876Y2003D01*
X5901Y1998D02*
Y2028D01*
X5886Y2013D01*
X5906D01*
X5931Y1998D02*
Y2028D01*
X5916Y2013D01*
X5936D01*
X4518Y3415D02*
Y3455D01*
X4538D01*
X4544Y3449D01*
Y3435D01*
X4538Y3429D01*
X4518D01*
X4531D02*
X4544Y3415D01*
X4584Y3455D02*
X4558D01*
Y3435D01*
X4571Y3442D01*
X4578D01*
X4584Y3435D01*
Y3422D01*
X4578Y3415D01*
X4564D01*
X4558Y3422D01*
X4618Y3415D02*
Y3455D01*
X4598Y3435D01*
X4624D01*
X4587Y3031D02*
X4547D01*
Y3051D01*
X4553Y3058D01*
X4567D01*
X4573Y3051D01*
Y3031D01*
Y3045D02*
X4587Y3058D01*
X4547Y3098D02*
Y3071D01*
X4567D01*
X4560Y3085D01*
Y3091D01*
X4567Y3098D01*
X4580D01*
X4587Y3091D01*
Y3078D01*
X4580Y3071D01*
X4547Y3138D02*
Y3111D01*
X4567D01*
X4560Y3125D01*
Y3131D01*
X4567Y3138D01*
X4580D01*
X4587Y3131D01*
Y3118D01*
X4580Y3111D01*
X4764Y2677D02*
X4739D01*
Y2690D01*
X4743Y2694D01*
X4751D01*
X4755Y2690D01*
Y2677D01*
Y2685D02*
X4764Y2694D01*
X4739Y2719D02*
Y2702D01*
X4751D01*
X4747Y2710D01*
Y2715D01*
X4751Y2719D01*
X4760D01*
X4764Y2715D01*
Y2706D01*
X4760Y2702D01*
X4739Y2744D02*
X4743Y2735D01*
X4751Y2727D01*
X4760D01*
X4764Y2731D01*
Y2740D01*
X4760Y2744D01*
X4755D01*
X4751Y2740D01*
Y2727D01*
X2313Y2933D02*
Y2973D01*
X2333D01*
X2340Y2966D01*
Y2953D01*
X2333Y2946D01*
X2313D01*
X2326D02*
X2340Y2933D01*
X2380Y2973D02*
X2353D01*
Y2953D01*
X2366Y2960D01*
X2373D01*
X2380Y2953D01*
Y2940D01*
X2373Y2933D01*
X2360D01*
X2353Y2940D01*
X2393Y2973D02*
X2420D01*
Y2966D01*
X2393Y2940D01*
Y2933D01*
X4952Y2774D02*
X4927D01*
Y2786D01*
X4931Y2790D01*
X4939D01*
X4944Y2786D01*
Y2774D01*
Y2782D02*
X4952Y2790D01*
X4927Y2815D02*
X4931Y2807D01*
X4939Y2799D01*
X4948D01*
X4952Y2803D01*
Y2811D01*
X4948Y2815D01*
X4944D01*
X4939Y2811D01*
Y2799D01*
X4931Y2824D02*
X4927Y2828D01*
Y2836D01*
X4931Y2840D01*
X4948D01*
X4952Y2836D01*
Y2828D01*
X4948Y2824D01*
X4931D01*
X4769Y2593D02*
X4744D01*
Y2605D01*
X4748Y2609D01*
X4757D01*
X4761Y2605D01*
Y2593D01*
Y2601D02*
X4769Y2609D01*
X4744Y2634D02*
X4748Y2626D01*
X4757Y2618D01*
X4765D01*
X4769Y2622D01*
Y2630D01*
X4765Y2634D01*
X4761D01*
X4757Y2630D01*
Y2618D01*
X4769Y2643D02*
Y2651D01*
Y2647D01*
X4744D01*
X4748Y2643D01*
X4616Y2559D02*
X4586D01*
Y2574D01*
X4591Y2579D01*
X4601D01*
X4606Y2574D01*
Y2559D01*
Y2569D02*
X4616Y2579D01*
X4586Y2609D02*
X4591Y2599D01*
X4601Y2589D01*
X4611D01*
X4616Y2594D01*
Y2604D01*
X4611Y2609D01*
X4606D01*
X4601Y2604D01*
Y2589D01*
X4616Y2639D02*
Y2619D01*
X4596Y2639D01*
X4591D01*
X4586Y2634D01*
Y2624D01*
X4591Y2619D01*
X2697Y2018D02*
Y2048D01*
X2712D01*
X2717Y2043D01*
Y2033D01*
X2712Y2028D01*
X2697D01*
X2707D02*
X2717Y2018D01*
X2747Y2048D02*
X2737Y2043D01*
X2727Y2033D01*
Y2023D01*
X2732Y2018D01*
X2742D01*
X2747Y2023D01*
Y2028D01*
X2742Y2033D01*
X2727D01*
X2757Y2043D02*
X2762Y2048D01*
X2772D01*
X2777Y2043D01*
Y2038D01*
X2772Y2033D01*
X2767D01*
X2772D01*
X2777Y2028D01*
Y2023D01*
X2772Y2018D01*
X2762D01*
X2757Y2023D01*
X4646Y2156D02*
Y2181D01*
X4658D01*
X4662Y2176D01*
Y2168D01*
X4658Y2164D01*
X4646D01*
X4654D02*
X4662Y2156D01*
X4687Y2181D02*
X4679Y2176D01*
X4671Y2168D01*
Y2160D01*
X4675Y2156D01*
X4683D01*
X4687Y2160D01*
Y2164D01*
X4683Y2168D01*
X4671D01*
X4708Y2156D02*
Y2181D01*
X4696Y2168D01*
X4712D01*
X4301Y2047D02*
Y2087D01*
X4321D01*
X4328Y2081D01*
Y2067D01*
X4321Y2061D01*
X4301D01*
X4315D02*
X4328Y2047D01*
X4368Y2087D02*
X4354Y2081D01*
X4341Y2067D01*
Y2054D01*
X4348Y2047D01*
X4361D01*
X4368Y2054D01*
Y2061D01*
X4361Y2067D01*
X4341D01*
X4408Y2087D02*
X4381D01*
Y2067D01*
X4394Y2074D01*
X4401D01*
X4408Y2067D01*
Y2054D01*
X4401Y2047D01*
X4388D01*
X4381Y2054D01*
X2992Y2579D02*
X2962D01*
Y2594D01*
X2967Y2599D01*
X2977D01*
X2982Y2594D01*
Y2579D01*
Y2589D02*
X2992Y2599D01*
X2962Y2629D02*
X2967Y2619D01*
X2977Y2609D01*
X2987D01*
X2992Y2614D01*
Y2624D01*
X2987Y2629D01*
X2982D01*
X2977Y2624D01*
Y2609D01*
X2962Y2659D02*
X2967Y2649D01*
X2977Y2639D01*
X2987D01*
X2992Y2644D01*
Y2654D01*
X2987Y2659D01*
X2982D01*
X2977Y2654D01*
Y2639D01*
X2992Y2476D02*
X2962D01*
Y2491D01*
X2967Y2496D01*
X2977D01*
X2982Y2491D01*
Y2476D01*
Y2486D02*
X2992Y2496D01*
X2962Y2526D02*
X2967Y2516D01*
X2977Y2506D01*
X2987D01*
X2992Y2511D01*
Y2521D01*
X2987Y2526D01*
X2982D01*
X2977Y2521D01*
Y2506D01*
X2962Y2536D02*
Y2556D01*
X2967D01*
X2987Y2536D01*
X2992D01*
X5305Y2774D02*
X5280D01*
Y2786D01*
X5284Y2790D01*
X5293D01*
X5297Y2786D01*
Y2774D01*
Y2782D02*
X5305Y2790D01*
X5280Y2815D02*
X5284Y2807D01*
X5293Y2799D01*
X5301D01*
X5305Y2803D01*
Y2811D01*
X5301Y2815D01*
X5297D01*
X5293Y2811D01*
Y2799D01*
X5284Y2824D02*
X5280Y2828D01*
Y2836D01*
X5284Y2840D01*
X5288D01*
X5293Y2836D01*
X5297Y2840D01*
X5301D01*
X5305Y2836D01*
Y2828D01*
X5301Y2824D01*
X5297D01*
X5293Y2828D01*
X5288Y2824D01*
X5284D01*
X5293Y2828D02*
Y2836D01*
X5669Y2776D02*
X5644D01*
Y2788D01*
X5648Y2792D01*
X5657D01*
X5661Y2788D01*
Y2776D01*
Y2784D02*
X5669Y2792D01*
X5644Y2817D02*
X5648Y2809D01*
X5657Y2801D01*
X5665D01*
X5669Y2805D01*
Y2813D01*
X5665Y2817D01*
X5661D01*
X5657Y2813D01*
Y2801D01*
X5665Y2826D02*
X5669Y2830D01*
Y2838D01*
X5665Y2842D01*
X5648D01*
X5644Y2838D01*
Y2830D01*
X5648Y2826D01*
X5653D01*
X5657Y2830D01*
Y2842D01*
X6175Y2766D02*
X6145D01*
Y2781D01*
X6150Y2786D01*
X6160D01*
X6165Y2781D01*
Y2766D01*
Y2776D02*
X6175Y2786D01*
X6145Y2796D02*
Y2816D01*
X6150D01*
X6170Y2796D01*
X6175D01*
X6150Y2826D02*
X6145Y2831D01*
Y2841D01*
X6150Y2846D01*
X6170D01*
X6175Y2841D01*
Y2831D01*
X6170Y2826D01*
X6150D01*
X5118Y2579D02*
X5093D01*
Y2591D01*
X5097Y2595D01*
X5106D01*
X5110Y2591D01*
Y2579D01*
Y2587D02*
X5118Y2595D01*
X5093Y2604D02*
Y2620D01*
X5097D01*
X5114Y2604D01*
X5118D01*
Y2645D02*
Y2629D01*
X5101Y2645D01*
X5097D01*
X5093Y2641D01*
Y2633D01*
X5097Y2629D01*
X5482Y2579D02*
X5457D01*
Y2591D01*
X5461Y2595D01*
X5470D01*
X5474Y2591D01*
Y2579D01*
Y2587D02*
X5482Y2595D01*
X5457Y2604D02*
Y2620D01*
X5461D01*
X5478Y2604D01*
X5482D01*
X5461Y2629D02*
X5457Y2633D01*
Y2641D01*
X5461Y2645D01*
X5466D01*
X5470Y2641D01*
Y2637D01*
Y2641D01*
X5474Y2645D01*
X5478D01*
X5482Y2641D01*
Y2633D01*
X5478Y2629D01*
X5837Y2579D02*
X5812D01*
Y2591D01*
X5816Y2595D01*
X5824D01*
X5828Y2591D01*
Y2579D01*
Y2587D02*
X5837Y2595D01*
X5812Y2604D02*
Y2620D01*
X5816D01*
X5832Y2604D01*
X5837D01*
Y2641D02*
X5812D01*
X5824Y2629D01*
Y2645D01*
X7274Y2530D02*
Y2570D01*
X7294D01*
X7300Y2563D01*
Y2550D01*
X7294Y2543D01*
X7274D01*
X7287D02*
X7300Y2530D01*
X7314Y2570D02*
X7340D01*
Y2563D01*
X7314Y2536D01*
Y2530D01*
X7354Y2570D02*
X7380D01*
Y2563D01*
X7354Y2536D01*
Y2530D01*
X3081Y2953D02*
Y2928D01*
X3086Y2923D01*
X3096D01*
X3101Y2928D01*
Y2953D01*
X3111Y2923D02*
X3121D01*
X3116D01*
Y2953D01*
X3111Y2948D01*
X3136D02*
X3141Y2953D01*
X3151D01*
X3156Y2948D01*
Y2928D01*
X3151Y2923D01*
X3141D01*
X3136Y2928D01*
Y2948D01*
X3957Y2855D02*
Y2822D01*
X3963Y2815D01*
X3977D01*
X3983Y2822D01*
Y2855D01*
X3997Y2815D02*
X4010D01*
X4003D01*
Y2855D01*
X3997Y2848D01*
X4057Y2815D02*
X4030D01*
X4057Y2842D01*
Y2848D01*
X4050Y2855D01*
X4037D01*
X4030Y2848D01*
X3986Y4331D02*
Y4298D01*
X3993Y4291D01*
X4006D01*
X4013Y4298D01*
Y4331D01*
X4053D02*
X4026D01*
Y4311D01*
X4040Y4318D01*
X4046D01*
X4053Y4311D01*
Y4298D01*
X4046Y4291D01*
X4033D01*
X4026Y4298D01*
X3228Y4371D02*
Y4346D01*
X3233Y4341D01*
X3243D01*
X3248Y4346D01*
Y4371D01*
X3258Y4366D02*
X3263Y4371D01*
X3273D01*
X3278Y4366D01*
Y4361D01*
X3273Y4356D01*
X3268D01*
X3273D01*
X3278Y4351D01*
Y4346D01*
X3273Y4341D01*
X3263D01*
X3258Y4346D01*
X2411Y3682D02*
X2438D01*
X2425D01*
Y3642D01*
X2451D02*
Y3682D01*
X2471D01*
X2478Y3675D01*
Y3662D01*
X2471Y3655D01*
X2451D01*
X2491Y3675D02*
X2498Y3682D01*
X2511D01*
X2518Y3675D01*
Y3668D01*
X2511Y3662D01*
X2505D01*
X2511D01*
X2518Y3655D01*
Y3648D01*
X2511Y3642D01*
X2498D01*
X2491Y3648D01*
X5837Y4163D02*
X5812D01*
Y4176D01*
X5816Y4180D01*
X5824D01*
X5828Y4176D01*
Y4163D01*
Y4172D02*
X5837Y4180D01*
Y4201D02*
X5812D01*
X5824Y4188D01*
Y4205D01*
X5837Y4230D02*
Y4213D01*
X5820Y4230D01*
X5816D01*
X5812Y4226D01*
Y4218D01*
X5816Y4213D01*
X5482Y4161D02*
X5457D01*
Y4174D01*
X5461Y4178D01*
X5470D01*
X5474Y4174D01*
Y4161D01*
Y4170D02*
X5482Y4178D01*
Y4199D02*
X5457D01*
X5470Y4186D01*
Y4203D01*
X5482Y4211D02*
Y4220D01*
Y4216D01*
X5457D01*
X5461Y4211D01*
X5128Y4163D02*
X5103D01*
Y4176D01*
X5107Y4180D01*
X5115D01*
X5120Y4176D01*
Y4163D01*
Y4172D02*
X5128Y4180D01*
Y4201D02*
X5103D01*
X5115Y4188D01*
Y4205D01*
X5107Y4213D02*
X5103Y4218D01*
Y4226D01*
X5107Y4230D01*
X5124D01*
X5128Y4226D01*
Y4218D01*
X5124Y4213D01*
X5107D01*
X6014Y4348D02*
X5989D01*
Y4361D01*
X5993Y4365D01*
X6001D01*
X6005Y4361D01*
Y4348D01*
Y4357D02*
X6014Y4365D01*
X5993Y4373D02*
X5989Y4378D01*
Y4386D01*
X5993Y4390D01*
X5997D01*
X6001Y4386D01*
Y4382D01*
Y4386D01*
X6005Y4390D01*
X6010D01*
X6014Y4386D01*
Y4378D01*
X6010Y4373D01*
X5993Y4398D02*
X5989Y4403D01*
Y4411D01*
X5993Y4415D01*
X5997D01*
X6001Y4411D01*
X6005Y4415D01*
X6010D01*
X6014Y4411D01*
Y4403D01*
X6010Y4398D01*
X6005D01*
X6001Y4403D01*
X5997Y4398D01*
X5993D01*
X6001Y4403D02*
Y4411D01*
X5659Y4351D02*
X5634D01*
Y4363D01*
X5639Y4368D01*
X5647D01*
X5651Y4363D01*
Y4351D01*
Y4359D02*
X5659Y4368D01*
X5639Y4376D02*
X5634Y4380D01*
Y4388D01*
X5639Y4393D01*
X5643D01*
X5647Y4388D01*
Y4384D01*
Y4388D01*
X5651Y4393D01*
X5655D01*
X5659Y4388D01*
Y4380D01*
X5655Y4376D01*
X5634Y4401D02*
Y4418D01*
X5639D01*
X5655Y4401D01*
X5659D01*
X5306Y4350D02*
X5282D01*
Y4363D01*
X5286Y4367D01*
X5294D01*
X5298Y4363D01*
Y4350D01*
Y4359D02*
X5306Y4367D01*
X5286Y4375D02*
X5282Y4380D01*
Y4388D01*
X5286Y4392D01*
X5290D01*
X5294Y4388D01*
Y4384D01*
Y4388D01*
X5298Y4392D01*
X5302D01*
X5306Y4388D01*
Y4380D01*
X5302Y4375D01*
X5282Y4417D02*
X5286Y4409D01*
X5294Y4400D01*
X5302D01*
X5306Y4405D01*
Y4413D01*
X5302Y4417D01*
X5298D01*
X5294Y4413D01*
Y4400D01*
X3228Y3976D02*
Y4016D01*
X3248D01*
X3255Y4010D01*
Y3996D01*
X3248Y3990D01*
X3228D01*
X3242D02*
X3255Y3976D01*
X3268Y4010D02*
X3275Y4016D01*
X3288D01*
X3295Y4010D01*
Y4003D01*
X3288Y3996D01*
X3282D01*
X3288D01*
X3295Y3990D01*
Y3983D01*
X3288Y3976D01*
X3275D01*
X3268Y3983D01*
X3308Y3976D02*
X3322D01*
X3315D01*
Y4016D01*
X3308Y4010D01*
X2992Y4045D02*
X2952D01*
Y4065D01*
X2959Y4072D01*
X2972D01*
X2979Y4065D01*
Y4045D01*
Y4059D02*
X2992Y4072D01*
X2959Y4085D02*
X2952Y4092D01*
Y4105D01*
X2959Y4112D01*
X2965D01*
X2972Y4105D01*
Y4099D01*
Y4105D01*
X2979Y4112D01*
X2985D01*
X2992Y4105D01*
Y4092D01*
X2985Y4085D01*
X2959Y4125D02*
X2952Y4132D01*
Y4145D01*
X2959Y4152D01*
X2985D01*
X2992Y4145D01*
Y4132D01*
X2985Y4125D01*
X2959D01*
X4587Y3563D02*
X4547D01*
Y3583D01*
X4553Y3590D01*
X4567D01*
X4573Y3583D01*
Y3563D01*
Y3576D02*
X4587Y3590D01*
Y3630D02*
Y3603D01*
X4560Y3630D01*
X4553D01*
X4547Y3623D01*
Y3610D01*
X4553Y3603D01*
X4580Y3643D02*
X4587Y3650D01*
Y3663D01*
X4580Y3670D01*
X4553D01*
X4547Y3663D01*
Y3650D01*
X4553Y3643D01*
X4560D01*
X4567Y3650D01*
Y3670D01*
X4587Y3858D02*
X4547D01*
Y3878D01*
X4553Y3885D01*
X4567D01*
X4573Y3878D01*
Y3858D01*
Y3872D02*
X4587Y3885D01*
Y3925D02*
Y3898D01*
X4560Y3925D01*
X4553D01*
X4547Y3918D01*
Y3905D01*
X4553Y3898D01*
Y3938D02*
X4547Y3945D01*
Y3958D01*
X4553Y3965D01*
X4560D01*
X4567Y3958D01*
X4573Y3965D01*
X4580D01*
X4587Y3958D01*
Y3945D01*
X4580Y3938D01*
X4573D01*
X4567Y3945D01*
X4560Y3938D01*
X4553D01*
X4567Y3945D02*
Y3958D01*
X2677Y3573D02*
Y3613D01*
X2697D01*
X2704Y3606D01*
Y3593D01*
X2697Y3586D01*
X2677D01*
X2690D02*
X2704Y3573D01*
X2744D02*
X2717D01*
X2744Y3599D01*
Y3606D01*
X2737Y3613D01*
X2724D01*
X2717Y3606D01*
X2757Y3613D02*
X2784D01*
Y3606D01*
X2757Y3579D01*
Y3573D01*
X4774Y4161D02*
X4749D01*
Y4174D01*
X4753Y4178D01*
X4761D01*
X4765Y4174D01*
Y4161D01*
Y4170D02*
X4774Y4178D01*
Y4203D02*
Y4186D01*
X4757Y4203D01*
X4753D01*
X4749Y4199D01*
Y4191D01*
X4753Y4186D01*
X4749Y4228D02*
Y4211D01*
X4761D01*
X4757Y4220D01*
Y4224D01*
X4761Y4228D01*
X4769D01*
X4774Y4224D01*
Y4216D01*
X4769Y4211D01*
X4951Y4350D02*
X4926D01*
Y4363D01*
X4930Y4367D01*
X4938D01*
X4942Y4363D01*
Y4350D01*
Y4359D02*
X4951Y4367D01*
Y4392D02*
Y4375D01*
X4934Y4392D01*
X4930D01*
X4926Y4388D01*
Y4380D01*
X4930Y4375D01*
X4951Y4413D02*
X4926D01*
X4938Y4400D01*
Y4417D01*
X4616Y4305D02*
X4586D01*
Y4320D01*
X4591Y4325D01*
X4601D01*
X4606Y4320D01*
Y4305D01*
Y4315D02*
X4616Y4325D01*
Y4355D02*
Y4335D01*
X4596Y4355D01*
X4591D01*
X4586Y4350D01*
Y4340D01*
X4591Y4335D01*
Y4365D02*
X4586Y4370D01*
Y4380D01*
X4591Y4385D01*
X4611D01*
X4616Y4380D01*
Y4370D01*
X4611Y4365D01*
X4591D01*
X4587Y4656D02*
X4547D01*
Y4676D01*
X4553Y4682D01*
X4567D01*
X4573Y4676D01*
Y4656D01*
Y4669D02*
X4587Y4682D01*
Y4695D02*
Y4709D01*
Y4702D01*
X4547D01*
X4553Y4695D01*
X4580Y4729D02*
X4587Y4735D01*
Y4749D01*
X4580Y4755D01*
X4553D01*
X4547Y4749D01*
Y4735D01*
X4553Y4729D01*
X4560D01*
X4567Y4735D01*
Y4755D01*
X4587Y4921D02*
X4547D01*
Y4941D01*
X4553Y4948D01*
X4567D01*
X4573Y4941D01*
Y4921D01*
Y4935D02*
X4587Y4948D01*
Y4961D02*
Y4975D01*
Y4968D01*
X4547D01*
X4553Y4961D01*
Y4995D02*
X4547Y5001D01*
Y5015D01*
X4553Y5021D01*
X4560D01*
X4567Y5015D01*
X4573Y5021D01*
X4580D01*
X4587Y5015D01*
Y5001D01*
X4580Y4995D01*
X4573D01*
X4567Y5001D01*
X4560Y4995D01*
X4553D01*
X4567Y5001D02*
Y5015D01*
X4350Y7569D02*
Y7609D01*
X4370D01*
X4377Y7602D01*
Y7589D01*
X4370Y7582D01*
X4350D01*
X4364D02*
X4377Y7569D01*
X4410D02*
Y7609D01*
X4390Y7589D01*
X4417D01*
X5866Y3578D02*
Y3598D01*
X5861Y3603D01*
X5851D01*
X5846Y3598D01*
Y3578D01*
X5851Y3573D01*
X5861D01*
X5856Y3583D02*
X5866Y3573D01*
X5861D02*
X5866Y3578D01*
X5896Y3573D02*
X5876D01*
X5896Y3593D01*
Y3598D01*
X5891Y3603D01*
X5881D01*
X5876Y3598D01*
X5921Y3573D02*
Y3603D01*
X5906Y3588D01*
X5926D01*
X5512Y3578D02*
Y3598D01*
X5507Y3603D01*
X5497D01*
X5492Y3598D01*
Y3578D01*
X5497Y3573D01*
X5507D01*
X5502Y3583D02*
X5512Y3573D01*
X5507D02*
X5512Y3578D01*
X5542Y3573D02*
X5522D01*
X5542Y3593D01*
Y3598D01*
X5537Y3603D01*
X5527D01*
X5522Y3598D01*
X5552D02*
X5557Y3603D01*
X5567D01*
X5572Y3598D01*
Y3593D01*
X5567Y3588D01*
X5562D01*
X5567D01*
X5572Y3583D01*
Y3578D01*
X5567Y3573D01*
X5557D01*
X5552Y3578D01*
X5158D02*
Y3598D01*
X5153Y3603D01*
X5143D01*
X5138Y3598D01*
Y3578D01*
X5143Y3573D01*
X5153D01*
X5148Y3583D02*
X5158Y3573D01*
X5153D02*
X5158Y3578D01*
X5188Y3573D02*
X5168D01*
X5188Y3593D01*
Y3598D01*
X5183Y3603D01*
X5173D01*
X5168Y3598D01*
X5218Y3573D02*
X5198D01*
X5218Y3593D01*
Y3598D01*
X5213Y3603D01*
X5203D01*
X5198Y3598D01*
X6157Y4151D02*
X6141D01*
X6136Y4146D01*
Y4138D01*
X6141Y4134D01*
X6157D01*
X6161Y4138D01*
Y4146D01*
X6153Y4142D02*
X6161Y4151D01*
Y4146D02*
X6157Y4151D01*
X6161Y4176D02*
Y4159D01*
X6145Y4176D01*
X6141D01*
X6136Y4171D01*
Y4163D01*
X6141Y4159D01*
X6161Y4184D02*
Y4192D01*
Y4188D01*
X6136D01*
X6141Y4184D01*
X5645Y4153D02*
X5629D01*
X5625Y4149D01*
Y4141D01*
X5629Y4137D01*
X5645D01*
X5650Y4141D01*
Y4149D01*
X5641Y4145D02*
X5650Y4153D01*
Y4149D02*
X5645Y4153D01*
X5650Y4178D02*
Y4162D01*
X5633Y4178D01*
X5629D01*
X5625Y4174D01*
Y4166D01*
X5629Y4162D01*
Y4187D02*
X5625Y4191D01*
Y4199D01*
X5629Y4203D01*
X5645D01*
X5650Y4199D01*
Y4191D01*
X5645Y4187D01*
X5629D01*
X5291Y4153D02*
X5274D01*
X5270Y4149D01*
Y4141D01*
X5274Y4137D01*
X5291D01*
X5295Y4141D01*
Y4149D01*
X5287Y4145D02*
X5295Y4153D01*
Y4149D02*
X5291Y4153D01*
X5295Y4162D02*
Y4170D01*
Y4166D01*
X5270D01*
X5274Y4162D01*
X5291Y4183D02*
X5295Y4187D01*
Y4195D01*
X5291Y4199D01*
X5274D01*
X5270Y4195D01*
Y4187D01*
X5274Y4183D01*
X5279D01*
X5283Y4187D01*
Y4199D01*
X7409Y4131D02*
Y4157D01*
X7402Y4164D01*
X7389D01*
X7382Y4157D01*
Y4131D01*
X7389Y4124D01*
X7402D01*
X7395Y4137D02*
X7409Y4124D01*
X7402D02*
X7409Y4131D01*
X7422Y4124D02*
X7435D01*
X7429D01*
Y4164D01*
X7422Y4157D01*
X7455D02*
X7462Y4164D01*
X7475D01*
X7482Y4157D01*
Y4151D01*
X7475Y4144D01*
X7482Y4137D01*
Y4131D01*
X7475Y4124D01*
X7462D01*
X7455Y4131D01*
Y4137D01*
X7462Y4144D01*
X7455Y4151D01*
Y4157D01*
X7462Y4144D02*
X7475D01*
X5823Y4399D02*
X5806D01*
X5802Y4394D01*
Y4386D01*
X5806Y4382D01*
X5823D01*
X5827Y4386D01*
Y4394D01*
X5818Y4390D02*
X5827Y4399D01*
Y4394D02*
X5823Y4399D01*
X5827Y4407D02*
Y4415D01*
Y4411D01*
X5802D01*
X5806Y4407D01*
X5802Y4428D02*
Y4444D01*
X5806D01*
X5823Y4428D01*
X5827D01*
X5468Y4399D02*
X5452D01*
X5447Y4394D01*
Y4386D01*
X5452Y4382D01*
X5468D01*
X5472Y4386D01*
Y4394D01*
X5464Y4390D02*
X5472Y4399D01*
Y4394D02*
X5468Y4399D01*
X5472Y4407D02*
Y4415D01*
Y4411D01*
X5447D01*
X5452Y4407D01*
X5447Y4444D02*
X5452Y4436D01*
X5460Y4428D01*
X5468D01*
X5472Y4432D01*
Y4440D01*
X5468Y4444D01*
X5464D01*
X5460Y4440D01*
Y4428D01*
X5114Y4399D02*
X5097D01*
X5093Y4394D01*
Y4386D01*
X5097Y4382D01*
X5114D01*
X5118Y4386D01*
Y4394D01*
X5110Y4390D02*
X5118Y4399D01*
Y4394D02*
X5114Y4399D01*
X5118Y4407D02*
Y4415D01*
Y4411D01*
X5093D01*
X5097Y4407D01*
X5093Y4444D02*
Y4428D01*
X5106D01*
X5101Y4436D01*
Y4440D01*
X5106Y4444D01*
X5114D01*
X5118Y4440D01*
Y4432D01*
X5114Y4428D01*
X5866Y4975D02*
Y4995D01*
X5861Y5000D01*
X5851D01*
X5846Y4995D01*
Y4975D01*
X5851Y4970D01*
X5861D01*
X5856Y4980D02*
X5866Y4970D01*
X5861D02*
X5866Y4975D01*
X5876Y4970D02*
X5886D01*
X5881D01*
Y5000D01*
X5876Y4995D01*
X5916Y4970D02*
Y5000D01*
X5901Y4985D01*
X5921D01*
X5512Y4975D02*
Y4995D01*
X5507Y5000D01*
X5497D01*
X5492Y4995D01*
Y4975D01*
X5497Y4970D01*
X5507D01*
X5502Y4980D02*
X5512Y4970D01*
X5507D02*
X5512Y4975D01*
X5522Y4970D02*
X5532D01*
X5527D01*
Y5000D01*
X5522Y4995D01*
X5547D02*
X5552Y5000D01*
X5562D01*
X5567Y4995D01*
Y4990D01*
X5562Y4985D01*
X5557D01*
X5562D01*
X5567Y4980D01*
Y4975D01*
X5562Y4970D01*
X5552D01*
X5547Y4975D01*
X5158D02*
Y4995D01*
X5153Y5000D01*
X5143D01*
X5138Y4995D01*
Y4975D01*
X5143Y4970D01*
X5153D01*
X5148Y4980D02*
X5158Y4970D01*
X5153D02*
X5158Y4975D01*
X5168Y4970D02*
X5178D01*
X5173D01*
Y5000D01*
X5168Y4995D01*
X5213Y4970D02*
X5193D01*
X5213Y4990D01*
Y4995D01*
X5208Y5000D01*
X5198D01*
X5193Y4995D01*
X4803Y3578D02*
Y3598D01*
X4798Y3603D01*
X4788D01*
X4783Y3598D01*
Y3578D01*
X4788Y3573D01*
X4798D01*
X4793Y3583D02*
X4803Y3573D01*
X4798D02*
X4803Y3578D01*
X4813Y3573D02*
X4823D01*
X4818D01*
Y3603D01*
X4813Y3598D01*
X4838Y3573D02*
X4848D01*
X4843D01*
Y3603D01*
X4838Y3598D01*
X4937Y4153D02*
X4920D01*
X4916Y4149D01*
Y4141D01*
X4920Y4137D01*
X4937D01*
X4941Y4141D01*
Y4149D01*
X4933Y4145D02*
X4941Y4153D01*
Y4149D02*
X4937Y4153D01*
X4941Y4162D02*
Y4170D01*
Y4166D01*
X4916D01*
X4920Y4162D01*
Y4183D02*
X4916Y4187D01*
Y4195D01*
X4920Y4199D01*
X4937D01*
X4941Y4195D01*
Y4187D01*
X4937Y4183D01*
X4920D01*
X4426Y3924D02*
Y3951D01*
X4420Y3957D01*
X4406D01*
X4400Y3951D01*
Y3924D01*
X4406Y3917D01*
X4420D01*
X4413Y3931D02*
X4426Y3917D01*
X4420D02*
X4426Y3924D01*
X4440D02*
X4446Y3917D01*
X4460D01*
X4466Y3924D01*
Y3951D01*
X4460Y3957D01*
X4446D01*
X4440Y3951D01*
Y3944D01*
X4446Y3937D01*
X4466D01*
X2763Y3875D02*
Y3901D01*
X2756Y3908D01*
X2743D01*
X2736Y3901D01*
Y3875D01*
X2743Y3868D01*
X2756D01*
X2750Y3881D02*
X2763Y3868D01*
X2756D02*
X2763Y3875D01*
X2776Y3901D02*
X2783Y3908D01*
X2796D01*
X2803Y3901D01*
Y3895D01*
X2796Y3888D01*
X2803Y3881D01*
Y3875D01*
X2796Y3868D01*
X2783D01*
X2776Y3875D01*
Y3881D01*
X2783Y3888D01*
X2776Y3895D01*
Y3901D01*
X2783Y3888D02*
X2796D01*
X4436Y4751D02*
Y4777D01*
X4429Y4784D01*
X4416D01*
X4409Y4777D01*
Y4751D01*
X4416Y4744D01*
X4429D01*
X4423Y4757D02*
X4436Y4744D01*
X4429D02*
X4436Y4751D01*
X4449Y4784D02*
X4476D01*
Y4777D01*
X4449Y4751D01*
Y4744D01*
X4762Y4395D02*
X4745D01*
X4741Y4390D01*
Y4382D01*
X4745Y4378D01*
X4762D01*
X4766Y4382D01*
Y4390D01*
X4757Y4386D02*
X4766Y4395D01*
Y4390D02*
X4762Y4395D01*
X4741Y4420D02*
X4745Y4411D01*
X4753Y4403D01*
X4762D01*
X4766Y4407D01*
Y4415D01*
X4762Y4420D01*
X4757D01*
X4753Y4415D01*
Y4403D01*
X4803Y4975D02*
Y4995D01*
X4798Y5000D01*
X4788D01*
X4783Y4995D01*
Y4975D01*
X4788Y4970D01*
X4798D01*
X4793Y4980D02*
X4803Y4970D01*
X4798D02*
X4803Y4975D01*
X4833Y5000D02*
X4813D01*
Y4985D01*
X4823Y4990D01*
X4828D01*
X4833Y4985D01*
Y4975D01*
X4828Y4970D01*
X4818D01*
X4813Y4975D01*
X7097Y4141D02*
Y4101D01*
X7117D01*
X7124Y4108D01*
Y4135D01*
X7117Y4141D01*
X7097D01*
X7137Y4101D02*
X7150D01*
X7144D01*
Y4141D01*
X7137Y4135D01*
X7170D02*
X7177Y4141D01*
X7190D01*
X7197Y4135D01*
Y4108D01*
X7190Y4101D01*
X7177D01*
X7170Y4108D01*
Y4135D01*
X6727Y4508D02*
X6722Y4503D01*
Y4493D01*
X6727Y4488D01*
X6747D01*
X6752Y4493D01*
Y4503D01*
X6747Y4508D01*
X6752Y4538D02*
Y4518D01*
X6732Y4538D01*
X6727D01*
X6722Y4533D01*
Y4523D01*
X6727Y4518D01*
Y4548D02*
X6722Y4553D01*
Y4563D01*
X6727Y4568D01*
X6732D01*
X6737Y4563D01*
X6742Y4568D01*
X6747D01*
X6752Y4563D01*
Y4553D01*
X6747Y4548D01*
X6742D01*
X6737Y4553D01*
X6732Y4548D01*
X6727D01*
X6737Y4553D02*
Y4563D01*
X6181Y4513D02*
X6176Y4518D01*
X6166D01*
X6161Y4513D01*
Y4493D01*
X6166Y4488D01*
X6176D01*
X6181Y4493D01*
X6211Y4488D02*
X6191D01*
X6211Y4508D01*
Y4513D01*
X6206Y4518D01*
X6196D01*
X6191Y4513D01*
X6221Y4518D02*
X6241D01*
Y4513D01*
X6221Y4493D01*
Y4488D01*
X2940Y4236D02*
X2933Y4243D01*
X2920D01*
X2913Y4236D01*
Y4209D01*
X2920Y4203D01*
X2933D01*
X2940Y4209D01*
X2980Y4203D02*
X2953D01*
X2980Y4229D01*
Y4236D01*
X2973Y4243D01*
X2960D01*
X2953Y4236D01*
X2993D02*
X3000Y4243D01*
X3013D01*
X3020Y4236D01*
Y4229D01*
X3013Y4223D01*
X3007D01*
X3013D01*
X3020Y4216D01*
Y4209D01*
X3013Y4203D01*
X3000D01*
X2993Y4209D01*
X3864Y4338D02*
X3858Y4331D01*
Y4318D01*
X3864Y4311D01*
X3891D01*
X3898Y4318D01*
Y4331D01*
X3891Y4338D01*
X3898Y4378D02*
Y4351D01*
X3871Y4378D01*
X3864D01*
X3858Y4371D01*
Y4358D01*
X3864Y4351D01*
X3898Y4418D02*
Y4391D01*
X3871Y4418D01*
X3864D01*
X3858Y4411D01*
Y4398D01*
X3864Y4391D01*
X3727Y4088D02*
X3721Y4095D01*
X3707D01*
X3701Y4088D01*
Y4062D01*
X3707Y4055D01*
X3721D01*
X3727Y4062D01*
X3767Y4055D02*
X3741D01*
X3767Y4082D01*
Y4088D01*
X3761Y4095D01*
X3747D01*
X3741Y4088D01*
X3781Y4055D02*
X3794D01*
X3787D01*
Y4095D01*
X3781Y4088D01*
X2970Y4423D02*
X2963Y4430D01*
X2950D01*
X2943Y4423D01*
Y4396D01*
X2950Y4390D01*
X2963D01*
X2970Y4396D01*
X3010Y4390D02*
X2983D01*
X3010Y4416D01*
Y4423D01*
X3003Y4430D01*
X2990D01*
X2983Y4423D01*
X3023D02*
X3030Y4430D01*
X3043D01*
X3050Y4423D01*
Y4396D01*
X3043Y4390D01*
X3030D01*
X3023Y4396D01*
Y4423D01*
X4165Y4413D02*
X4158Y4420D01*
X4145D01*
X4138Y4413D01*
Y4386D01*
X4145Y4380D01*
X4158D01*
X4165Y4386D01*
X4178Y4380D02*
X4192D01*
X4185D01*
Y4420D01*
X4178Y4413D01*
X4212Y4386D02*
X4218Y4380D01*
X4232D01*
X4238Y4386D01*
Y4413D01*
X4232Y4420D01*
X4218D01*
X4212Y4413D01*
Y4406D01*
X4218Y4400D01*
X4238D01*
X3707Y4338D02*
X3700Y4331D01*
Y4318D01*
X3707Y4311D01*
X3733D01*
X3740Y4318D01*
Y4331D01*
X3733Y4338D01*
X3740Y4351D02*
Y4364D01*
Y4358D01*
X3700D01*
X3707Y4351D01*
Y4384D02*
X3700Y4391D01*
Y4404D01*
X3707Y4411D01*
X3713D01*
X3720Y4404D01*
X3727Y4411D01*
X3733D01*
X3740Y4404D01*
Y4391D01*
X3733Y4384D01*
X3727D01*
X3720Y4391D01*
X3713Y4384D01*
X3707D01*
X3720Y4391D02*
Y4404D01*
X3206Y4541D02*
X3199Y4548D01*
X3186D01*
X3179Y4541D01*
Y4515D01*
X3186Y4508D01*
X3199D01*
X3206Y4515D01*
X3219Y4508D02*
X3232D01*
X3226D01*
Y4548D01*
X3219Y4541D01*
X3252Y4548D02*
X3279D01*
Y4541D01*
X3252Y4515D01*
Y4508D01*
X4376Y6808D02*
X4369Y6801D01*
Y6788D01*
X4376Y6781D01*
X4403D01*
X4409Y6788D01*
Y6801D01*
X4403Y6808D01*
X4409Y6821D02*
Y6835D01*
Y6828D01*
X4369D01*
X4376Y6821D01*
X4409Y6881D02*
Y6855D01*
X4383Y6881D01*
X4376D01*
X4369Y6875D01*
Y6861D01*
X4376Y6855D01*
X6690Y8183D02*
X6683Y8190D01*
X6670D01*
X6663Y8183D01*
Y8156D01*
X6670Y8150D01*
X6683D01*
X6690Y8156D01*
X6730Y8190D02*
X6703D01*
Y8170D01*
X6717Y8176D01*
X6723D01*
X6730Y8170D01*
Y8156D01*
X6723Y8150D01*
X6710D01*
X6703Y8156D01*
X7199Y6890D02*
X7194Y6885D01*
Y6875D01*
X7199Y6870D01*
X7219D01*
X7224Y6875D01*
Y6885D01*
X7219Y6890D01*
X7194Y6920D02*
X7199Y6910D01*
X7209Y6900D01*
X7219D01*
X7224Y6905D01*
Y6915D01*
X7219Y6920D01*
X7214D01*
X7209Y6915D01*
Y6900D01*
X6669Y7035D02*
X6663Y7028D01*
Y7015D01*
X6669Y7008D01*
X6696D01*
X6703Y7015D01*
Y7028D01*
X6696Y7035D01*
X6663Y7048D02*
Y7075D01*
X6669D01*
X6696Y7048D01*
X6703D01*
X7635Y7061D02*
X7628Y7068D01*
X7615D01*
X7608Y7061D01*
Y7034D01*
X7615Y7028D01*
X7628D01*
X7635Y7034D01*
X7648Y7061D02*
X7655Y7068D01*
X7668D01*
X7675Y7061D01*
Y7054D01*
X7668Y7048D01*
X7675Y7041D01*
Y7034D01*
X7668Y7028D01*
X7655D01*
X7648Y7034D01*
Y7041D01*
X7655Y7048D01*
X7648Y7054D01*
Y7061D01*
X7655Y7048D02*
X7668D01*
X6482Y5972D02*
X6476Y5965D01*
Y5952D01*
X6482Y5945D01*
X6509D01*
X6516Y5952D01*
Y5965D01*
X6509Y5972D01*
X6516Y6012D02*
Y5985D01*
X6489Y6012D01*
X6482D01*
X6476Y6005D01*
Y5992D01*
X6482Y5985D01*
X6516Y6045D02*
X6476D01*
X6496Y6025D01*
Y6052D01*
X7018Y8229D02*
Y8189D01*
X7038D01*
X7044Y8196D01*
Y8222D01*
X7038Y8229D01*
X7018D01*
X7084Y8189D02*
X7058D01*
X7084Y8216D01*
Y8222D01*
X7078Y8229D01*
X7064D01*
X7058Y8222D01*
X6781Y8189D02*
Y8229D01*
X6801D01*
X6808Y8222D01*
Y8209D01*
X6801Y8202D01*
X6781D01*
X6795D02*
X6808Y8189D01*
X6848D02*
X6821D01*
X6848Y8216D01*
Y8222D01*
X6841Y8229D01*
X6828D01*
X6821Y8222D01*
X6900Y8189D02*
Y8229D01*
X6920D01*
X6926Y8222D01*
Y8209D01*
X6920Y8202D01*
X6900D01*
X6913D02*
X6926Y8189D01*
X6940Y8222D02*
X6946Y8229D01*
X6960D01*
X6966Y8222D01*
Y8216D01*
X6960Y8209D01*
X6953D01*
X6960D01*
X6966Y8202D01*
Y8196D01*
X6960Y8189D01*
X6946D01*
X6940Y8196D01*
X6831Y6890D02*
Y6930D01*
X6851D01*
X6857Y6923D01*
Y6910D01*
X6851Y6903D01*
X6831D01*
X6844D02*
X6857Y6890D01*
X6871Y6923D02*
X6877Y6930D01*
X6891D01*
X6897Y6923D01*
Y6916D01*
X6891Y6910D01*
X6897Y6903D01*
Y6896D01*
X6891Y6890D01*
X6877D01*
X6871Y6896D01*
Y6903D01*
X6877Y6910D01*
X6871Y6916D01*
Y6923D01*
X6877Y6910D02*
X6891D01*
X7441Y7165D02*
Y7205D01*
X7461D01*
X7468Y7199D01*
Y7185D01*
X7461Y7179D01*
X7441D01*
X7454D02*
X7468Y7165D01*
X7481Y7172D02*
X7488Y7165D01*
X7501D01*
X7508Y7172D01*
Y7199D01*
X7501Y7205D01*
X7488D01*
X7481Y7199D01*
Y7192D01*
X7488Y7185D01*
X7508D01*
X6949Y6890D02*
Y6930D01*
X6969D01*
X6975Y6923D01*
Y6910D01*
X6969Y6903D01*
X6949D01*
X6962D02*
X6975Y6890D01*
X6989D02*
X7002D01*
X6995D01*
Y6930D01*
X6989Y6923D01*
X7022Y6890D02*
X7035D01*
X7029D01*
Y6930D01*
X7022Y6923D01*
X7126Y7402D02*
X7086D01*
Y7422D01*
X7093Y7428D01*
X7106D01*
X7113Y7422D01*
Y7402D01*
Y7415D02*
X7126Y7428D01*
Y7442D02*
Y7455D01*
Y7448D01*
X7086D01*
X7093Y7442D01*
X7126Y7502D02*
Y7475D01*
X7099Y7502D01*
X7093D01*
X7086Y7495D01*
Y7482D01*
X7093Y7475D01*
X6929Y7224D02*
X6889D01*
Y7244D01*
X6896Y7251D01*
X6909D01*
X6916Y7244D01*
Y7224D01*
Y7238D02*
X6929Y7251D01*
Y7264D02*
Y7278D01*
Y7271D01*
X6889D01*
X6896Y7264D01*
X6889Y7324D02*
Y7298D01*
X6909D01*
X6902Y7311D01*
Y7318D01*
X6909Y7324D01*
X6922D01*
X6929Y7318D01*
Y7304D01*
X6922Y7298D01*
X7657Y6909D02*
Y6949D01*
X7677D01*
X7684Y6943D01*
Y6929D01*
X7677Y6923D01*
X7657D01*
X7671D02*
X7684Y6909D01*
X7697D02*
X7711D01*
X7704D01*
Y6949D01*
X7697Y6943D01*
X7757Y6949D02*
X7744Y6943D01*
X7731Y6929D01*
Y6916D01*
X7737Y6909D01*
X7751D01*
X7757Y6916D01*
Y6923D01*
X7751Y6929D01*
X7731D01*
X3563Y4420D02*
X3590D01*
X3576D01*
Y4380D01*
X3603D02*
Y4420D01*
X3623D01*
X3630Y4413D01*
Y4400D01*
X3623Y4393D01*
X3603D01*
X3663Y4380D02*
Y4420D01*
X3643Y4400D01*
X3670D01*
X7165Y7068D02*
Y7034D01*
X7172Y7028D01*
X7185D01*
X7192Y7034D01*
Y7068D01*
X7232Y7028D02*
X7205D01*
X7232Y7054D01*
Y7061D01*
X7225Y7068D01*
X7212D01*
X7205Y7061D01*
X6444Y4942D02*
X6431D01*
X6437D01*
Y4908D01*
X6431Y4902D01*
X6424D01*
X6417Y4908D01*
X6457Y4935D02*
X6464Y4942D01*
X6477D01*
X6484Y4935D01*
Y4928D01*
X6477Y4922D01*
X6484Y4915D01*
Y4908D01*
X6477Y4902D01*
X6464D01*
X6457Y4908D01*
Y4915D01*
X6464Y4922D01*
X6457Y4928D01*
Y4935D01*
X6464Y4922D02*
X6477D01*
X2087Y3804D02*
Y3824D01*
X2082Y3829D01*
X2072D01*
X2067Y3824D01*
Y3804D01*
X2072Y3799D01*
X2082D01*
X2077Y3809D02*
X2087Y3799D01*
X2082D02*
X2087Y3804D01*
X2112Y3799D02*
Y3829D01*
X2097Y3814D01*
X2117D01*
X2147Y3829D02*
X2127D01*
Y3814D01*
X2137Y3819D01*
X2142D01*
X2147Y3814D01*
Y3804D01*
X2142Y3799D01*
X2132D01*
X2127Y3804D01*
X2408Y2348D02*
Y2368D01*
X2403Y2373D01*
X2393D01*
X2388Y2368D01*
Y2348D01*
X2393Y2343D01*
X2403D01*
X2398Y2353D02*
X2408Y2343D01*
X2403D02*
X2408Y2348D01*
X2433Y2343D02*
Y2373D01*
X2418Y2358D01*
X2438D01*
X2468Y2373D02*
X2458Y2368D01*
X2448Y2358D01*
Y2348D01*
X2453Y2343D01*
X2463D01*
X2468Y2348D01*
Y2353D01*
X2463Y2358D01*
X2448D01*
X1925Y3976D02*
Y4006D01*
X1940D01*
X1945Y4001D01*
Y3991D01*
X1940Y3986D01*
X1925D01*
X1935D02*
X1945Y3976D01*
X1955Y4001D02*
X1960Y4006D01*
X1970D01*
X1975Y4001D01*
Y3996D01*
X1970Y3991D01*
X1975Y3986D01*
Y3981D01*
X1970Y3976D01*
X1960D01*
X1955Y3981D01*
Y3986D01*
X1960Y3991D01*
X1955Y3996D01*
Y4001D01*
X1960Y3991D02*
X1970D01*
X1985Y4001D02*
X1990Y4006D01*
X2000D01*
X2005Y4001D01*
Y3981D01*
X2000Y3976D01*
X1990D01*
X1985Y3981D01*
Y4001D01*
X2382Y2037D02*
Y2067D01*
X2397D01*
X2402Y2062D01*
Y2052D01*
X2397Y2047D01*
X2382D01*
X2392D02*
X2402Y2037D01*
X2412Y2062D02*
X2417Y2067D01*
X2427D01*
X2432Y2062D01*
Y2057D01*
X2427Y2052D01*
X2432Y2047D01*
Y2042D01*
X2427Y2037D01*
X2417D01*
X2412Y2042D01*
Y2047D01*
X2417Y2052D01*
X2412Y2057D01*
Y2062D01*
X2417Y2052D02*
X2427D01*
X2462Y2037D02*
X2442D01*
X2462Y2057D01*
Y2062D01*
X2457Y2067D01*
X2447D01*
X2442Y2062D01*
X2096Y2261D02*
X2066D01*
Y2276D01*
X2071Y2281D01*
X2081D01*
X2086Y2276D01*
Y2261D01*
Y2271D02*
X2096Y2281D01*
X2071Y2291D02*
X2066Y2296D01*
Y2306D01*
X2071Y2311D01*
X2076D01*
X2081Y2306D01*
X2086Y2311D01*
X2091D01*
X2096Y2306D01*
Y2296D01*
X2091Y2291D01*
X2086D01*
X2081Y2296D01*
X2076Y2291D01*
X2071D01*
X2081Y2296D02*
Y2306D01*
X2071Y2321D02*
X2066Y2326D01*
Y2336D01*
X2071Y2341D01*
X2076D01*
X2081Y2336D01*
Y2331D01*
Y2336D01*
X2086Y2341D01*
X2091D01*
X2096Y2336D01*
Y2326D01*
X2091Y2321D01*
X2136Y4045D02*
Y4085D01*
X2156D01*
X2162Y4079D01*
Y4065D01*
X2156Y4059D01*
X2136D01*
X2149D02*
X2162Y4045D01*
X2202Y4085D02*
X2176D01*
Y4045D01*
X2202D01*
X2176Y4065D02*
X2189D01*
X2216Y4085D02*
Y4045D01*
X2242D01*
X2282Y4085D02*
X2269Y4079D01*
X2256Y4065D01*
Y4052D01*
X2262Y4045D01*
X2276D01*
X2282Y4052D01*
Y4059D01*
X2276Y4065D01*
X2256D01*
X1919Y2421D02*
Y2451D01*
X1934D01*
X1939Y2446D01*
Y2436D01*
X1934Y2431D01*
X1919D01*
X1929D02*
X1939Y2421D01*
X1969Y2451D02*
X1949D01*
Y2421D01*
X1969D01*
X1949Y2436D02*
X1959D01*
X1979Y2451D02*
Y2421D01*
X1999D01*
X2009Y2451D02*
X2029D01*
Y2446D01*
X2009Y2426D01*
Y2421D01*
X3755Y3760D02*
X3750Y3755D01*
Y3745D01*
X3755Y3740D01*
X3775D01*
X3780Y3745D01*
Y3755D01*
X3775Y3760D01*
X3780Y3785D02*
X3750D01*
X3765Y3770D01*
Y3790D01*
X3755Y3800D02*
X3750Y3805D01*
Y3815D01*
X3755Y3820D01*
X3760D01*
X3765Y3815D01*
Y3810D01*
Y3815D01*
X3770Y3820D01*
X3775D01*
X3780Y3815D01*
Y3805D01*
X3775Y3800D01*
X3583Y3332D02*
X3578Y3337D01*
X3568D01*
X3563Y3332D01*
Y3312D01*
X3568Y3307D01*
X3578D01*
X3583Y3312D01*
X3608Y3307D02*
Y3337D01*
X3593Y3322D01*
X3613D01*
X3638Y3307D02*
Y3337D01*
X3623Y3322D01*
X3643D01*
X3209Y3623D02*
Y3583D01*
X3229D01*
X3235Y3589D01*
Y3616D01*
X3229Y3623D01*
X3209D01*
X3249Y3583D02*
X3262D01*
X3255D01*
Y3623D01*
X3249Y3616D01*
X3282Y3583D02*
X3295D01*
X3289D01*
Y3623D01*
X3282Y3616D01*
X3209Y3701D02*
Y3661D01*
X3229D01*
X3235Y3668D01*
Y3695D01*
X3229Y3701D01*
X3209D01*
X3249Y3661D02*
X3262D01*
X3255D01*
Y3701D01*
X3249Y3695D01*
X3309Y3661D02*
X3282D01*
X3309Y3688D01*
Y3695D01*
X3302Y3701D01*
X3289D01*
X3282Y3695D01*
X4114Y3465D02*
Y3505D01*
X4134D01*
X4141Y3498D01*
Y3485D01*
X4134Y3478D01*
X4114D01*
X4128D02*
X4141Y3465D01*
X4154Y3498D02*
X4161Y3505D01*
X4174D01*
X4181Y3498D01*
Y3491D01*
X4174Y3485D01*
X4181Y3478D01*
Y3471D01*
X4174Y3465D01*
X4161D01*
X4154Y3471D01*
Y3478D01*
X4161Y3485D01*
X4154Y3491D01*
Y3498D01*
X4161Y3485D02*
X4174D01*
X4214Y3465D02*
Y3505D01*
X4194Y3485D01*
X4221D01*
X4114Y3661D02*
Y3701D01*
X4134D01*
X4141Y3695D01*
Y3681D01*
X4134Y3675D01*
X4114D01*
X4128D02*
X4141Y3661D01*
X4154Y3695D02*
X4161Y3701D01*
X4174D01*
X4181Y3695D01*
Y3688D01*
X4174Y3681D01*
X4181Y3675D01*
Y3668D01*
X4174Y3661D01*
X4161D01*
X4154Y3668D01*
Y3675D01*
X4161Y3681D01*
X4154Y3688D01*
Y3695D01*
X4161Y3681D02*
X4174D01*
X4221Y3701D02*
X4194D01*
Y3681D01*
X4207Y3688D01*
X4214D01*
X4221Y3681D01*
Y3668D01*
X4214Y3661D01*
X4201D01*
X4194Y3668D01*
X3197Y3484D02*
Y3524D01*
X3217D01*
X3223Y3518D01*
Y3504D01*
X3217Y3498D01*
X3197D01*
X3210D02*
X3223Y3484D01*
X3237Y3518D02*
X3243Y3524D01*
X3257D01*
X3263Y3518D01*
Y3511D01*
X3257Y3504D01*
X3263Y3498D01*
Y3491D01*
X3257Y3484D01*
X3243D01*
X3237Y3491D01*
Y3498D01*
X3243Y3504D01*
X3237Y3511D01*
Y3518D01*
X3243Y3504D02*
X3257D01*
X3303Y3524D02*
X3290Y3518D01*
X3277Y3504D01*
Y3491D01*
X3283Y3484D01*
X3297D01*
X3303Y3491D01*
Y3498D01*
X3297Y3504D01*
X3277D01*
X4114Y3563D02*
Y3603D01*
X4134D01*
X4141Y3596D01*
Y3583D01*
X4134Y3576D01*
X4114D01*
X4128D02*
X4141Y3563D01*
X4154Y3596D02*
X4161Y3603D01*
X4174D01*
X4181Y3596D01*
Y3590D01*
X4174Y3583D01*
X4181Y3576D01*
Y3570D01*
X4174Y3563D01*
X4161D01*
X4154Y3570D01*
Y3576D01*
X4161Y3583D01*
X4154Y3590D01*
Y3596D01*
X4161Y3583D02*
X4174D01*
X4194Y3603D02*
X4221D01*
Y3596D01*
X4194Y3570D01*
Y3563D01*
X3898Y3362D02*
Y3402D01*
X3918D01*
X3924Y3396D01*
Y3382D01*
X3918Y3376D01*
X3898D01*
X3911D02*
X3924Y3362D01*
X3938Y3396D02*
X3944Y3402D01*
X3958D01*
X3964Y3396D01*
Y3389D01*
X3958Y3382D01*
X3964Y3376D01*
Y3369D01*
X3958Y3362D01*
X3944D01*
X3938Y3369D01*
Y3376D01*
X3944Y3382D01*
X3938Y3389D01*
Y3396D01*
X3944Y3382D02*
X3958D01*
X3978Y3396D02*
X3984Y3402D01*
X3998D01*
X4004Y3396D01*
Y3389D01*
X3998Y3382D01*
X4004Y3376D01*
Y3369D01*
X3998Y3362D01*
X3984D01*
X3978Y3369D01*
Y3376D01*
X3984Y3382D01*
X3978Y3389D01*
Y3396D01*
X3984Y3382D02*
X3998D01*
X3945Y3839D02*
Y3869D01*
X3960D01*
X3965Y3864D01*
Y3854D01*
X3960Y3849D01*
X3945D01*
X3955D02*
X3965Y3839D01*
X3975Y3864D02*
X3980Y3869D01*
X3990D01*
X3995Y3864D01*
Y3859D01*
X3990Y3854D01*
X3995Y3849D01*
Y3844D01*
X3990Y3839D01*
X3980D01*
X3975Y3844D01*
Y3849D01*
X3980Y3854D01*
X3975Y3859D01*
Y3864D01*
X3980Y3854D02*
X3990D01*
X4005Y3844D02*
X4010Y3839D01*
X4020D01*
X4025Y3844D01*
Y3864D01*
X4020Y3869D01*
X4010D01*
X4005Y3864D01*
Y3859D01*
X4010Y3854D01*
X4025D01*
X3197Y3386D02*
Y3426D01*
X3217D01*
X3223Y3419D01*
Y3406D01*
X3217Y3399D01*
X3197D01*
X3210D02*
X3223Y3386D01*
X3237Y3392D02*
X3243Y3386D01*
X3257D01*
X3263Y3392D01*
Y3419D01*
X3257Y3426D01*
X3243D01*
X3237Y3419D01*
Y3412D01*
X3243Y3406D01*
X3263D01*
X3277Y3419D02*
X3283Y3426D01*
X3297D01*
X3303Y3419D01*
Y3392D01*
X3297Y3386D01*
X3283D01*
X3277Y3392D01*
Y3419D01*
X4331Y3740D02*
Y3770D01*
X4346D01*
X4351Y3765D01*
Y3755D01*
X4346Y3750D01*
X4331D01*
X4341D02*
X4351Y3740D01*
X4361Y3745D02*
X4366Y3740D01*
X4376D01*
X4381Y3745D01*
Y3765D01*
X4376Y3770D01*
X4366D01*
X4361Y3765D01*
Y3760D01*
X4366Y3755D01*
X4381D01*
X4391Y3740D02*
X4401D01*
X4396D01*
Y3770D01*
X4391Y3765D01*
X3204Y3760D02*
Y3800D01*
X3224D01*
X3231Y3793D01*
Y3780D01*
X3224Y3773D01*
X3204D01*
X3218D02*
X3231Y3760D01*
X3244Y3767D02*
X3251Y3760D01*
X3264D01*
X3271Y3767D01*
Y3793D01*
X3264Y3800D01*
X3251D01*
X3244Y3793D01*
Y3786D01*
X3251Y3780D01*
X3271D01*
X3311Y3760D02*
X3284D01*
X3311Y3786D01*
Y3793D01*
X3304Y3800D01*
X3291D01*
X3284Y3793D01*
X3602Y3760D02*
Y3727D01*
X3609Y3720D01*
X3622D01*
X3629Y3727D01*
Y3760D01*
X3642Y3720D02*
X3656D01*
X3649D01*
Y3760D01*
X3642Y3754D01*
X3696Y3720D02*
Y3760D01*
X3676Y3740D01*
X3702D01*
D78*
X5846Y4478D02*
Y4951D01*
Y4478D02*
X6122D01*
Y4951D01*
X5846D02*
X6122D01*
X5492Y4478D02*
Y4951D01*
Y4478D02*
X5768D01*
Y4951D01*
X5492D02*
X5768D01*
X5138Y4478D02*
Y4951D01*
Y4478D02*
X5413D01*
Y4951D01*
X5138D02*
X5413D01*
X4783Y4478D02*
Y4951D01*
Y4478D02*
X5059D01*
Y4951D01*
X4783D02*
X5059D01*
X6122Y3622D02*
Y4094D01*
X5846D02*
X6122D01*
X5846Y3622D02*
Y4094D01*
Y3622D02*
X6122D01*
X5768D02*
Y4094D01*
X5492D02*
X5768D01*
X5492Y3622D02*
Y4094D01*
Y3622D02*
X5768D01*
X5413D02*
Y4094D01*
X5138D02*
X5413D01*
X5138Y3622D02*
Y4094D01*
Y3622D02*
X5413D01*
X4788Y2904D02*
Y3376D01*
Y2904D02*
X5063D01*
Y3376D01*
X4788D02*
X5063D01*
X5142Y2904D02*
Y3376D01*
Y2904D02*
X5418D01*
Y3376D01*
X5142D02*
X5418D01*
X5497Y2904D02*
Y3376D01*
Y2904D02*
X5772D01*
Y3376D01*
X5497D02*
X5772D01*
X5851Y2904D02*
Y3376D01*
Y2904D02*
X6126D01*
Y3376D01*
X5851D02*
X6126D01*
X5059Y3622D02*
Y4094D01*
X4783D02*
X5059D01*
X4783Y3622D02*
Y4094D01*
Y3622D02*
X5059D01*
X6126Y2047D02*
Y2520D01*
X5851D02*
X6126D01*
X5851Y2047D02*
Y2520D01*
Y2047D02*
X6126D01*
X5772D02*
Y2520D01*
X5497D02*
X5772D01*
X5497Y2047D02*
Y2520D01*
Y2047D02*
X5772D01*
X5418D02*
Y2520D01*
X5142D02*
X5418D01*
X5142Y2047D02*
Y2520D01*
Y2047D02*
X5418D01*
X5059D02*
Y2520D01*
X4783D02*
X5059D01*
X4783Y2047D02*
Y2520D01*
Y2047D02*
X5059D01*
D79*
X3957Y8150D02*
X4232D01*
Y7854D02*
Y8150D01*
X3957Y7854D02*
X4232D01*
X3957D02*
Y8150D01*
X4272Y7854D02*
Y8150D01*
Y7854D02*
X4547D01*
Y8150D01*
X4272D02*
X4547D01*
X2120Y2515D02*
X2290D01*
X2120Y2369D02*
Y2515D01*
Y2369D02*
X2290D01*
Y2515D01*
Y3884D02*
Y4030D01*
X2120Y3884D02*
X2290D01*
X2120D02*
Y4030D01*
X2290D01*
M02*
