G04*
G04 #@! TF.GenerationSoftware,Altium Limited,CircuitStudio,1.5.1 (13)*
G04*
G04 Layer_Color=7318015*
%FSLAX23Y23*%
%MOIN*%
G70*
G01*
G75*
G04:AMPARAMS|DCode=10|XSize=75mil|YSize=133mil|CornerRadius=3mil|HoleSize=0mil|Usage=FLASHONLY|Rotation=90.000|XOffset=0mil|YOffset=0mil|HoleType=Round|Shape=RoundedRectangle|*
%AMROUNDEDRECTD10*
21,1,0.075,0.127,0,0,90.0*
21,1,0.070,0.133,0,0,90.0*
1,1,0.005,0.064,0.035*
1,1,0.005,0.064,-0.035*
1,1,0.005,-0.064,-0.035*
1,1,0.005,-0.064,0.035*
%
%ADD10ROUNDEDRECTD10*%
G04:AMPARAMS|DCode=11|XSize=75mil|YSize=133mil|CornerRadius=3mil|HoleSize=0mil|Usage=FLASHONLY|Rotation=180.000|XOffset=0mil|YOffset=0mil|HoleType=Round|Shape=RoundedRectangle|*
%AMROUNDEDRECTD11*
21,1,0.075,0.127,0,0,180.0*
21,1,0.070,0.133,0,0,180.0*
1,1,0.005,-0.035,0.064*
1,1,0.005,0.035,0.064*
1,1,0.005,0.035,-0.064*
1,1,0.005,-0.035,-0.064*
%
%ADD11ROUNDEDRECTD11*%
%ADD12R,0.060X0.050*%
%ADD13R,0.050X0.060*%
%ADD14R,0.047X0.016*%
G04:AMPARAMS|DCode=15|XSize=78mil|YSize=24mil|CornerRadius=3mil|HoleSize=0mil|Usage=FLASHONLY|Rotation=0.000|XOffset=0mil|YOffset=0mil|HoleType=Round|Shape=RoundedRectangle|*
%AMROUNDEDRECTD15*
21,1,0.078,0.018,0,0,0.0*
21,1,0.072,0.024,0,0,0.0*
1,1,0.006,0.036,-0.009*
1,1,0.006,-0.036,-0.009*
1,1,0.006,-0.036,0.009*
1,1,0.006,0.036,0.009*
%
%ADD15ROUNDEDRECTD15*%
%ADD16R,0.063X0.031*%
%ADD17R,0.050X0.047*%
%ADD18R,0.047X0.050*%
%ADD19R,0.035X0.037*%
%ADD20R,0.035X0.037*%
%ADD21R,0.031X0.063*%
%ADD22R,0.063X0.118*%
%ADD23R,0.236X0.236*%
G04:AMPARAMS|DCode=24|XSize=43mil|YSize=70mil|CornerRadius=3mil|HoleSize=0mil|Usage=FLASHONLY|Rotation=90.000|XOffset=0mil|YOffset=0mil|HoleType=Round|Shape=RoundedRectangle|*
%AMROUNDEDRECTD24*
21,1,0.043,0.064,0,0,90.0*
21,1,0.037,0.070,0,0,90.0*
1,1,0.006,0.032,0.018*
1,1,0.006,0.032,-0.018*
1,1,0.006,-0.032,-0.018*
1,1,0.006,-0.032,0.018*
%
%ADD24ROUNDEDRECTD24*%
G04:AMPARAMS|DCode=25|XSize=37mil|YSize=70mil|CornerRadius=3mil|HoleSize=0mil|Usage=FLASHONLY|Rotation=90.000|XOffset=0mil|YOffset=0mil|HoleType=Round|Shape=RoundedRectangle|*
%AMROUNDEDRECTD25*
21,1,0.037,0.065,0,0,90.0*
21,1,0.032,0.070,0,0,90.0*
1,1,0.005,0.032,0.016*
1,1,0.005,0.032,-0.016*
1,1,0.005,-0.032,-0.016*
1,1,0.005,-0.032,0.016*
%
%ADD25ROUNDEDRECTD25*%
%ADD26R,0.217X0.077*%
%ADD27R,0.035X0.031*%
%ADD29R,0.024X0.050*%
G04:AMPARAMS|DCode=30|XSize=57mil|YSize=23mil|CornerRadius=3mil|HoleSize=0mil|Usage=FLASHONLY|Rotation=270.000|XOffset=0mil|YOffset=0mil|HoleType=Round|Shape=RoundedRectangle|*
%AMROUNDEDRECTD30*
21,1,0.057,0.017,0,0,270.0*
21,1,0.051,0.023,0,0,270.0*
1,1,0.006,-0.009,-0.026*
1,1,0.006,-0.009,0.026*
1,1,0.006,0.009,0.026*
1,1,0.006,0.009,-0.026*
%
%ADD30ROUNDEDRECTD30*%
%ADD31R,0.079X0.224*%
%ADD32R,0.047X0.024*%
%ADD33R,0.024X0.050*%
%ADD34R,0.024X0.028*%
%ADD35R,0.161X0.150*%
%ADD36R,0.030X0.023*%
%ADD37R,0.006X0.012*%
%ADD38R,0.136X0.073*%
%ADD39R,0.055X0.165*%
%ADD40R,0.050X0.107*%
%ADD41R,0.075X0.022*%
%ADD42R,0.047X0.032*%
G04:AMPARAMS|DCode=43|XSize=58mil|YSize=16mil|CornerRadius=2mil|HoleSize=0mil|Usage=FLASHONLY|Rotation=0.000|XOffset=0mil|YOffset=0mil|HoleType=Round|Shape=RoundedRectangle|*
%AMROUNDEDRECTD43*
21,1,0.058,0.012,0,0,0.0*
21,1,0.054,0.016,0,0,0.0*
1,1,0.004,0.027,-0.006*
1,1,0.004,-0.027,-0.006*
1,1,0.004,-0.027,0.006*
1,1,0.004,0.027,0.006*
%
%ADD43ROUNDEDRECTD43*%
%ADD44R,0.138X0.085*%
%ADD45R,0.043X0.085*%
%ADD46R,0.043X0.085*%
%ADD47C,0.020*%
%ADD48C,0.010*%
G36*
X4396Y7368D02*
X4363D01*
Y7427D01*
X4396D01*
Y7368D01*
D02*
G37*
G36*
X4485D02*
X4452D01*
Y7427D01*
X4485D01*
Y7368D01*
D02*
G37*
G36*
X4396Y7298D02*
X4363D01*
Y7357D01*
X4396D01*
Y7298D01*
D02*
G37*
G36*
X4485D02*
X4452D01*
Y7357D01*
X4485D01*
Y7298D01*
D02*
G37*
G36*
X4461Y7437D02*
X4437D01*
Y7465D01*
X4461D01*
Y7437D01*
D02*
G37*
G36*
X4511D02*
X4487D01*
Y7465D01*
X4511D01*
Y7437D01*
D02*
G37*
G36*
X4361D02*
X4337D01*
Y7465D01*
X4361D01*
Y7437D01*
D02*
G37*
G36*
X4412D02*
X4387D01*
Y7465D01*
X4412D01*
Y7437D01*
D02*
G37*
D10*
X4675Y5075D02*
D03*
Y4866D02*
D03*
Y3185D02*
D03*
Y2976D02*
D03*
Y3507D02*
D03*
Y3717D02*
D03*
Y4022D02*
D03*
Y3813D02*
D03*
Y2238D02*
D03*
Y2447D02*
D03*
Y4561D02*
D03*
Y4770D02*
D03*
X3160Y3033D02*
D03*
Y3243D02*
D03*
X2992D02*
D03*
Y3033D02*
D03*
Y4608D02*
D03*
Y4817D02*
D03*
X3160D02*
D03*
Y4608D02*
D03*
D11*
X4681Y3327D02*
D03*
X4472D02*
D03*
X4672Y2067D02*
D03*
X4462D02*
D03*
X6542Y4331D02*
D03*
X6332D02*
D03*
Y3051D02*
D03*
X6542D02*
D03*
X4659Y7362D02*
D03*
X4869D02*
D03*
Y7874D02*
D03*
X4659D02*
D03*
D12*
X4237Y4016D02*
D03*
X4149D02*
D03*
X4247Y4203D02*
D03*
X4159D02*
D03*
X4256Y2461D02*
D03*
X4169D02*
D03*
X4237Y2579D02*
D03*
X4149D02*
D03*
X4237Y2726D02*
D03*
X4149D02*
D03*
X4040Y2461D02*
D03*
X3952D02*
D03*
X3377D02*
D03*
X3465D02*
D03*
X3381Y2087D02*
D03*
X3469D02*
D03*
X3736D02*
D03*
X3823D02*
D03*
X4040Y2264D02*
D03*
X3952D02*
D03*
X3469Y2185D02*
D03*
X3381D02*
D03*
X4040Y2362D02*
D03*
X3952D02*
D03*
X4040Y2165D02*
D03*
X3952D02*
D03*
X4256Y3780D02*
D03*
X4169D02*
D03*
X4040D02*
D03*
X3952D02*
D03*
X3154Y2520D02*
D03*
X3066D02*
D03*
X4040Y3681D02*
D03*
X3952D02*
D03*
X4040Y3484D02*
D03*
X3952D02*
D03*
X4040Y3583D02*
D03*
X3952D02*
D03*
X3736Y3406D02*
D03*
X3823D02*
D03*
X3377Y3780D02*
D03*
X3465D02*
D03*
X3381Y3406D02*
D03*
X3469D02*
D03*
Y3504D02*
D03*
X3381D02*
D03*
X2638Y2106D02*
D03*
X2725D02*
D03*
X7367Y2638D02*
D03*
X7279D02*
D03*
Y3898D02*
D03*
X7367D02*
D03*
X7583Y6929D02*
D03*
X7496D02*
D03*
X7367Y7146D02*
D03*
X7279D02*
D03*
X4595Y6929D02*
D03*
X4508D02*
D03*
X4563Y6102D02*
D03*
X4650D02*
D03*
X3154Y2618D02*
D03*
X3066D02*
D03*
Y4094D02*
D03*
X3154D02*
D03*
X2318Y4606D02*
D03*
X2406D02*
D03*
X6540Y6663D02*
D03*
X6452D02*
D03*
Y6762D02*
D03*
X6540D02*
D03*
X3351Y6752D02*
D03*
X3263D02*
D03*
X2721Y3681D02*
D03*
X2633D02*
D03*
X2067Y3583D02*
D03*
X2154D02*
D03*
X2382Y2126D02*
D03*
X2469D02*
D03*
X2161Y2303D02*
D03*
X2249D02*
D03*
X3066Y3996D02*
D03*
X3154D02*
D03*
X2406Y3031D02*
D03*
X2318D02*
D03*
D13*
X4675Y2859D02*
D03*
Y2771D02*
D03*
Y4227D02*
D03*
Y4139D02*
D03*
Y4356D02*
D03*
Y4443D02*
D03*
X6737Y6019D02*
D03*
Y6107D02*
D03*
X6614Y6019D02*
D03*
Y6107D02*
D03*
X6737Y6255D02*
D03*
Y6343D02*
D03*
X6614D02*
D03*
Y6255D02*
D03*
X7106Y7327D02*
D03*
Y7240D02*
D03*
X6988D02*
D03*
Y7327D02*
D03*
Y7091D02*
D03*
Y7003D02*
D03*
X6870D02*
D03*
Y7091D02*
D03*
X6935Y7791D02*
D03*
Y7878D02*
D03*
Y8115D02*
D03*
Y8027D02*
D03*
X6817D02*
D03*
Y8115D02*
D03*
X3640Y6122D02*
D03*
Y6210D02*
D03*
Y5989D02*
D03*
Y5901D02*
D03*
X3642Y5316D02*
D03*
Y5404D02*
D03*
X4675Y2555D02*
D03*
Y2642D02*
D03*
X4291Y7614D02*
D03*
Y7701D02*
D03*
X1969Y3902D02*
D03*
Y3814D02*
D03*
D14*
X4053Y4071D02*
D03*
Y4020D02*
D03*
X3978D02*
D03*
Y4045D02*
D03*
Y4071D02*
D03*
X4053Y2624D02*
D03*
Y2573D02*
D03*
X3978D02*
D03*
Y2598D02*
D03*
Y2624D02*
D03*
X7360Y7022D02*
D03*
Y7047D02*
D03*
Y7073D02*
D03*
X7285D02*
D03*
Y7022D02*
D03*
X4052Y2774D02*
D03*
Y2723D02*
D03*
X3978D02*
D03*
Y2748D02*
D03*
Y2774D02*
D03*
X3117Y2880D02*
D03*
Y2854D02*
D03*
Y2829D02*
D03*
X3191D02*
D03*
Y2880D02*
D03*
X3973Y4250D02*
D03*
Y4225D02*
D03*
Y4199D02*
D03*
X4048D02*
D03*
Y4250D02*
D03*
X3187Y4356D02*
D03*
Y4305D02*
D03*
X3112D02*
D03*
Y4331D02*
D03*
Y4356D02*
D03*
D15*
X3837Y2358D02*
D03*
Y2308D02*
D03*
Y2258D02*
D03*
Y2208D02*
D03*
X3643D02*
D03*
Y2258D02*
D03*
Y2308D02*
D03*
Y2358D02*
D03*
X3837Y3677D02*
D03*
Y3627D02*
D03*
Y3577D02*
D03*
Y3527D02*
D03*
X3643D02*
D03*
Y3577D02*
D03*
Y3627D02*
D03*
Y3677D02*
D03*
D16*
X3492Y2362D02*
D03*
X3358D02*
D03*
X3492Y2283D02*
D03*
X3358D02*
D03*
X3492Y3602D02*
D03*
X3358D02*
D03*
X3492Y3681D02*
D03*
X3358D02*
D03*
X7409Y7264D02*
D03*
X7276D02*
D03*
Y7343D02*
D03*
X7409D02*
D03*
X7213Y2933D02*
D03*
X7079D02*
D03*
X7213Y4193D02*
D03*
X7079D02*
D03*
X3433Y7037D02*
D03*
X3299D02*
D03*
D17*
X3602Y2067D02*
D03*
X3602Y2146D02*
D03*
X3839Y2500D02*
D03*
X3838Y2421D02*
D03*
X3839Y3819D02*
D03*
X3838Y3740D02*
D03*
X3602Y3386D02*
D03*
X3602Y3465D02*
D03*
X6668Y4572D02*
D03*
X6668Y4493D02*
D03*
X6501Y6181D02*
D03*
X6501Y6102D02*
D03*
X6762Y7087D02*
D03*
X6762Y7008D02*
D03*
X6698Y8111D02*
D03*
X6697Y8031D02*
D03*
X4390Y7008D02*
D03*
X4390Y6929D02*
D03*
X4075Y7618D02*
D03*
X4075Y7697D02*
D03*
X4252Y5926D02*
D03*
X4252Y6006D02*
D03*
X3504Y5985D02*
D03*
X3504Y5905D02*
D03*
X3898Y5886D02*
D03*
X3898Y5807D02*
D03*
X3642Y6388D02*
D03*
X3642Y6308D02*
D03*
X6201Y4646D02*
D03*
X6201Y4567D02*
D03*
X6201Y3287D02*
D03*
X6201Y3366D02*
D03*
X6668Y3213D02*
D03*
X6668Y3293D02*
D03*
X7283Y6870D02*
D03*
X7284Y6949D02*
D03*
D18*
X3267Y2885D02*
D03*
X3347Y2885D02*
D03*
X4217Y4321D02*
D03*
X4138Y4321D02*
D03*
X7204Y6100D02*
D03*
X7284Y6100D02*
D03*
X7480Y7047D02*
D03*
X7559Y7047D02*
D03*
X4104Y2874D02*
D03*
X4183Y2874D02*
D03*
X3902Y2774D02*
D03*
X3823Y2774D02*
D03*
X3745Y2775D02*
D03*
X3666Y2776D02*
D03*
X3745Y2671D02*
D03*
X3666Y2671D02*
D03*
X3194Y2748D02*
D03*
X3114Y2748D02*
D03*
X3036Y2854D02*
D03*
X2957Y2854D02*
D03*
X3819Y4250D02*
D03*
X3898Y4250D02*
D03*
X3661Y4252D02*
D03*
X3740Y4252D02*
D03*
X3268Y4449D02*
D03*
X3189Y4449D02*
D03*
X2952Y4331D02*
D03*
X3032Y4331D02*
D03*
X3110Y4225D02*
D03*
X3189Y4224D02*
D03*
X3661Y4148D02*
D03*
X3740Y4148D02*
D03*
D19*
X2677Y2283D02*
D03*
X2640Y2191D02*
D03*
X4833Y4436D02*
D03*
X4795Y4344D02*
D03*
X5010Y4137D02*
D03*
X5047Y4229D02*
D03*
X5187Y4436D02*
D03*
X5150Y4344D02*
D03*
X5364Y4137D02*
D03*
X5402Y4229D02*
D03*
X5541Y4436D02*
D03*
X5504Y4344D02*
D03*
X5719Y4137D02*
D03*
X5756Y4229D02*
D03*
X5896Y4436D02*
D03*
X5858Y4344D02*
D03*
X6073Y4137D02*
D03*
X6110Y4229D02*
D03*
X4833Y2861D02*
D03*
X4795Y2769D02*
D03*
X5010Y2562D02*
D03*
X5047Y2655D02*
D03*
X5728Y2562D02*
D03*
X5766Y2655D02*
D03*
X5541Y2861D02*
D03*
X5504Y2769D02*
D03*
X5896Y2861D02*
D03*
X5858Y2769D02*
D03*
X5374Y2562D02*
D03*
X5411Y2655D02*
D03*
X5187Y2861D02*
D03*
X5150Y2769D02*
D03*
X6083Y2562D02*
D03*
X6120Y2655D02*
D03*
X7323Y2842D02*
D03*
X7285Y2749D02*
D03*
X7323Y4101D02*
D03*
X7285Y4009D02*
D03*
X6851Y5973D02*
D03*
X6888Y6065D02*
D03*
X3307Y6936D02*
D03*
X3270Y6844D02*
D03*
X2677Y3858D02*
D03*
X2640Y3766D02*
D03*
X2106Y3767D02*
D03*
X2069Y3674D02*
D03*
X2421Y2310D02*
D03*
X2384Y2218D02*
D03*
D20*
X2715Y2191D02*
D03*
X4870Y4344D02*
D03*
X4972Y4229D02*
D03*
X5224Y4344D02*
D03*
X5327Y4229D02*
D03*
X5579Y4344D02*
D03*
X5681Y4229D02*
D03*
X5933Y4344D02*
D03*
X6035Y4229D02*
D03*
X4870Y2769D02*
D03*
X4972Y2655D02*
D03*
X5691D02*
D03*
X5579Y2769D02*
D03*
X5933D02*
D03*
X5337Y2655D02*
D03*
X5224Y2769D02*
D03*
X6045Y2655D02*
D03*
X7360Y2749D02*
D03*
Y4009D02*
D03*
X6926Y5973D02*
D03*
X3344Y6844D02*
D03*
X2715Y3766D02*
D03*
X2144Y3674D02*
D03*
X2459Y2218D02*
D03*
D21*
X7052Y7882D02*
D03*
Y7748D02*
D03*
X7053Y8004D02*
D03*
Y8138D02*
D03*
X3819Y6388D02*
D03*
Y6254D02*
D03*
X2451Y4238D02*
D03*
Y4104D02*
D03*
Y2663D02*
D03*
Y2530D02*
D03*
D22*
X6075Y4557D02*
D03*
X5894D02*
D03*
X5720D02*
D03*
X5539D02*
D03*
X5366D02*
D03*
X5185D02*
D03*
X5012D02*
D03*
X4831D02*
D03*
X5894Y4016D02*
D03*
X6075D02*
D03*
X5539D02*
D03*
X5720D02*
D03*
X5185D02*
D03*
X5366D02*
D03*
X5016Y2982D02*
D03*
X4835D02*
D03*
X5371D02*
D03*
X5189D02*
D03*
X5725D02*
D03*
X5544D02*
D03*
X6079D02*
D03*
X5898D02*
D03*
X4831Y4016D02*
D03*
X5012D02*
D03*
X5898Y2441D02*
D03*
X6079D02*
D03*
X5544D02*
D03*
X5725D02*
D03*
X5189D02*
D03*
X5371D02*
D03*
X4831D02*
D03*
X5012D02*
D03*
D23*
X5984Y4813D02*
D03*
X5630D02*
D03*
X5276D02*
D03*
X4921D02*
D03*
X5984Y3760D02*
D03*
X5630D02*
D03*
X5276D02*
D03*
X4926Y3238D02*
D03*
X5280D02*
D03*
X5634D02*
D03*
X5989D02*
D03*
X4921Y3760D02*
D03*
X5989Y2185D02*
D03*
X5634D02*
D03*
X5280D02*
D03*
X4921D02*
D03*
D24*
X5010Y4322D02*
D03*
X5187Y4135D02*
D03*
X5364Y4322D02*
D03*
X5720D02*
D03*
X5541Y4135D02*
D03*
X5896D02*
D03*
X6075Y4322D02*
D03*
X5541Y2560D02*
D03*
X5728Y2747D02*
D03*
X5010D02*
D03*
X4823Y2560D02*
D03*
X5364Y2747D02*
D03*
X5177Y2560D02*
D03*
X6083Y2747D02*
D03*
X4833Y4135D02*
D03*
X5896Y2560D02*
D03*
D25*
X5010Y4441D02*
D03*
X5187Y4254D02*
D03*
X5364Y4441D02*
D03*
X5720D02*
D03*
X5541Y4254D02*
D03*
X5896D02*
D03*
X6075Y4441D02*
D03*
X5541Y2679D02*
D03*
X5728Y2866D02*
D03*
X5010D02*
D03*
X4823Y2679D02*
D03*
X5364Y2866D02*
D03*
X5177Y2679D02*
D03*
X6083Y2866D02*
D03*
X4833Y4254D02*
D03*
X5896Y2679D02*
D03*
D26*
X8504Y5767D02*
D03*
Y5966D02*
D03*
X8189Y5767D02*
D03*
Y5966D02*
D03*
X7874Y5767D02*
D03*
Y5966D02*
D03*
D27*
X4291Y6917D02*
D03*
Y7008D02*
D03*
X4173Y7703D02*
D03*
Y7612D02*
D03*
D29*
X4499Y7230D02*
D03*
X4449D02*
D03*
X4399D02*
D03*
X4349D02*
D03*
D30*
X3896Y6018D02*
D03*
X3858D02*
D03*
X3821D02*
D03*
Y6108D02*
D03*
X3858D02*
D03*
X3896D02*
D03*
D31*
X6339Y7396D02*
D03*
Y7014D02*
D03*
X5787Y7014D02*
D03*
Y7396D02*
D03*
X5239D02*
D03*
Y7014D02*
D03*
X6339Y7722D02*
D03*
Y8104D02*
D03*
X5787Y8104D02*
D03*
Y7722D02*
D03*
X5236D02*
D03*
Y8104D02*
D03*
D32*
X7101Y6100D02*
D03*
Y6026D02*
D03*
X7002D02*
D03*
Y6063D02*
D03*
Y6100D02*
D03*
D33*
X4020Y7900D02*
D03*
X4070D02*
D03*
X4120D02*
D03*
X4170D02*
D03*
X4484D02*
D03*
X4434D02*
D03*
X4384D02*
D03*
X4334D02*
D03*
D34*
X4170Y8116D02*
D03*
X4120D02*
D03*
X4070D02*
D03*
X4020D02*
D03*
X4334D02*
D03*
X4384D02*
D03*
X4434D02*
D03*
X4484D02*
D03*
D35*
X4095Y8027D02*
D03*
X4409D02*
D03*
D36*
X4190Y8072D02*
D03*
X3999D02*
D03*
X3999Y7977D02*
D03*
X4190Y7977D02*
D03*
X4505D02*
D03*
X4314Y7977D02*
D03*
X4314Y8072D02*
D03*
X4505D02*
D03*
D37*
X4011Y8096D02*
D03*
X4178D02*
D03*
X4493D02*
D03*
X4326D02*
D03*
D38*
X6909Y3583D02*
D03*
X7323D02*
D03*
X3720Y3150D02*
D03*
X3622Y4498D02*
D03*
X8681Y6161D02*
D03*
X2461Y3760D02*
D03*
X8681Y5600D02*
D03*
X4252Y5413D02*
D03*
D39*
X3799Y5738D02*
D03*
X3642D02*
D03*
D40*
X3746Y5551D02*
D03*
X3642D02*
D03*
D41*
X6331Y4622D02*
D03*
Y4522D02*
D03*
Y4472D02*
D03*
Y4572D02*
D03*
X6543Y4622D02*
D03*
Y4572D02*
D03*
Y4472D02*
D03*
Y4522D02*
D03*
X6331Y3343D02*
D03*
Y3243D02*
D03*
Y3193D02*
D03*
Y3293D02*
D03*
X6543Y3343D02*
D03*
Y3293D02*
D03*
Y3193D02*
D03*
Y3243D02*
D03*
D42*
X2329Y2492D02*
D03*
Y2392D02*
D03*
X2081D02*
D03*
Y2492D02*
D03*
Y4007D02*
D03*
Y3907D02*
D03*
X2329D02*
D03*
Y4007D02*
D03*
D43*
X3543Y2774D02*
D03*
Y2748D02*
D03*
Y2722D02*
D03*
Y2697D02*
D03*
Y2671D02*
D03*
Y2646D02*
D03*
Y2620D02*
D03*
X3317D02*
D03*
Y2646D02*
D03*
Y2671D02*
D03*
Y2697D02*
D03*
Y2722D02*
D03*
Y2748D02*
D03*
Y2774D02*
D03*
X3538Y4250D02*
D03*
Y4224D02*
D03*
Y4199D02*
D03*
Y4173D02*
D03*
Y4148D02*
D03*
Y4122D02*
D03*
Y4096D02*
D03*
X3312D02*
D03*
Y4122D02*
D03*
Y4148D02*
D03*
Y4173D02*
D03*
Y4199D02*
D03*
Y4224D02*
D03*
Y4250D02*
D03*
D44*
X4439Y4689D02*
D03*
X4449Y2976D02*
D03*
Y2455D02*
D03*
X4439Y4266D02*
D03*
D45*
X4530Y4445D02*
D03*
X4348D02*
D03*
X4539Y2732D02*
D03*
X4358D02*
D03*
X4539Y2211D02*
D03*
X4358D02*
D03*
X4530Y4022D02*
D03*
X4348D02*
D03*
D46*
X4439Y4445D02*
D03*
X4449Y2732D02*
D03*
Y2211D02*
D03*
X4439Y4022D02*
D03*
D47*
X9813Y3552D02*
X9880D01*
X9846D01*
Y3452D01*
X9963Y3552D02*
X9930D01*
X9913Y3535D01*
Y3469D01*
X9930Y3452D01*
X9963D01*
X9980Y3469D01*
Y3535D01*
X9963Y3552D01*
X10013Y3452D02*
Y3552D01*
X10063D01*
X10080Y3535D01*
Y3502D01*
X10063Y3485D01*
X10013D01*
X10213Y3452D02*
Y3552D01*
X10263D01*
X10280Y3535D01*
Y3502D01*
X10263Y3485D01*
X10213D01*
X10313Y3452D02*
Y3552D01*
X10346Y3519D01*
X10380Y3552D01*
Y3452D01*
D48*
X1772Y1969D02*
X8858D01*
X1772D02*
Y8268D01*
X8858Y1969D02*
Y8268D01*
X1772D02*
X8858D01*
M02*
