G04*
G04 #@! TF.GenerationSoftware,Altium Limited,CircuitStudio,1.5.1 (13)*
G04*
G04 Layer_Color=7318015*
%FSLAX23Y23*%
%MOIN*%
G70*
G01*
G75*
%ADD10R,0.075X0.022*%
%ADD11R,0.060X0.050*%
%ADD12R,0.050X0.060*%
%ADD13R,0.050X0.107*%
%ADD14R,0.050X0.047*%
%ADD15R,0.031X0.063*%
%ADD16R,0.136X0.073*%
%ADD17R,0.047X0.050*%
G04:AMPARAMS|DCode=18|XSize=58mil|YSize=16mil|CornerRadius=2mil|HoleSize=0mil|Usage=FLASHONLY|Rotation=0.000|XOffset=0mil|YOffset=0mil|HoleType=Round|Shape=RoundedRectangle|*
%AMROUNDEDRECTD18*
21,1,0.058,0.012,0,0,0.0*
21,1,0.054,0.016,0,0,0.0*
1,1,0.004,0.027,-0.006*
1,1,0.004,-0.027,-0.006*
1,1,0.004,-0.027,0.006*
1,1,0.004,0.027,0.006*
%
%ADD18ROUNDEDRECTD18*%
%ADD19R,0.047X0.032*%
%ADD20R,0.035X0.037*%
%ADD21R,0.035X0.037*%
%ADD22R,0.055X0.165*%
%ADD23R,0.063X0.031*%
%ADD24R,0.024X0.050*%
%ADD25R,0.024X0.028*%
%ADD26R,0.161X0.150*%
%ADD27R,0.030X0.023*%
%ADD28R,0.006X0.012*%
%ADD29R,0.047X0.024*%
G04:AMPARAMS|DCode=30|XSize=75mil|YSize=133mil|CornerRadius=3mil|HoleSize=0mil|Usage=FLASHONLY|Rotation=0.000|XOffset=0mil|YOffset=0mil|HoleType=Round|Shape=RoundedRectangle|*
%AMROUNDEDRECTD30*
21,1,0.075,0.127,0,0,0.0*
21,1,0.070,0.133,0,0,0.0*
1,1,0.005,0.035,-0.064*
1,1,0.005,-0.035,-0.064*
1,1,0.005,-0.035,0.064*
1,1,0.005,0.035,0.064*
%
%ADD30ROUNDEDRECTD30*%
%ADD31R,0.079X0.224*%
G04:AMPARAMS|DCode=32|XSize=75mil|YSize=133mil|CornerRadius=3mil|HoleSize=0mil|Usage=FLASHONLY|Rotation=270.000|XOffset=0mil|YOffset=0mil|HoleType=Round|Shape=RoundedRectangle|*
%AMROUNDEDRECTD32*
21,1,0.075,0.127,0,0,270.0*
21,1,0.070,0.133,0,0,270.0*
1,1,0.005,-0.064,-0.035*
1,1,0.005,-0.064,0.035*
1,1,0.005,0.064,0.035*
1,1,0.005,0.064,-0.035*
%
%ADD32ROUNDEDRECTD32*%
%ADD33R,0.047X0.016*%
G04:AMPARAMS|DCode=34|XSize=57mil|YSize=23mil|CornerRadius=3mil|HoleSize=0mil|Usage=FLASHONLY|Rotation=270.000|XOffset=0mil|YOffset=0mil|HoleType=Round|Shape=RoundedRectangle|*
%AMROUNDEDRECTD34*
21,1,0.057,0.017,0,0,270.0*
21,1,0.051,0.023,0,0,270.0*
1,1,0.006,-0.009,-0.026*
1,1,0.006,-0.009,0.026*
1,1,0.006,0.009,0.026*
1,1,0.006,0.009,-0.026*
%
%ADD34ROUNDEDRECTD34*%
%ADD35R,0.035X0.031*%
%ADD36R,0.024X0.050*%
%ADD38R,0.037X0.035*%
%ADD39R,0.037X0.035*%
G04:AMPARAMS|DCode=40|XSize=78mil|YSize=24mil|CornerRadius=3mil|HoleSize=0mil|Usage=FLASHONLY|Rotation=0.000|XOffset=0mil|YOffset=0mil|HoleType=Round|Shape=RoundedRectangle|*
%AMROUNDEDRECTD40*
21,1,0.078,0.018,0,0,0.0*
21,1,0.072,0.024,0,0,0.0*
1,1,0.006,0.036,-0.009*
1,1,0.006,-0.036,-0.009*
1,1,0.006,-0.036,0.009*
1,1,0.006,0.036,0.009*
%
%ADD40ROUNDEDRECTD40*%
%ADD41R,0.217X0.077*%
%ADD42R,0.054X0.044*%
%ADD43C,0.010*%
%ADD44C,0.020*%
G36*
X4396Y7368D02*
X4363D01*
Y7427D01*
X4396D01*
Y7368D01*
D02*
G37*
G36*
X4485D02*
X4452D01*
Y7427D01*
X4485D01*
Y7368D01*
D02*
G37*
G36*
X4396Y7298D02*
X4363D01*
Y7357D01*
X4396D01*
Y7298D01*
D02*
G37*
G36*
X4485D02*
X4452D01*
Y7357D01*
X4485D01*
Y7298D01*
D02*
G37*
G36*
X4461Y7437D02*
X4437D01*
Y7465D01*
X4461D01*
Y7437D01*
D02*
G37*
G36*
X4511D02*
X4487D01*
Y7465D01*
X4511D01*
Y7437D01*
D02*
G37*
G36*
X4361D02*
X4337D01*
Y7465D01*
X4361D01*
Y7437D01*
D02*
G37*
G36*
X4412D02*
X4387D01*
Y7465D01*
X4412D01*
Y7437D01*
D02*
G37*
D10*
X4585Y4207D02*
D03*
Y4157D02*
D03*
Y4257D02*
D03*
Y4307D02*
D03*
X4372Y4257D02*
D03*
Y4157D02*
D03*
Y4207D02*
D03*
Y4307D02*
D03*
X6553Y4207D02*
D03*
Y4157D02*
D03*
Y4257D02*
D03*
Y4307D02*
D03*
X6341Y4257D02*
D03*
Y4157D02*
D03*
Y4207D02*
D03*
Y4307D02*
D03*
D11*
X4798Y4360D02*
D03*
X4710D02*
D03*
X6766Y4400D02*
D03*
X6679D02*
D03*
X2318Y3031D02*
D03*
X2406D02*
D03*
X3154Y3996D02*
D03*
X3066D02*
D03*
X2161Y2303D02*
D03*
X2249D02*
D03*
X2382Y2126D02*
D03*
X2469D02*
D03*
X2633Y3681D02*
D03*
X2721D02*
D03*
X3263Y6752D02*
D03*
X3351D02*
D03*
X6540Y6762D02*
D03*
X6452D02*
D03*
Y6663D02*
D03*
X6540D02*
D03*
X2406Y4606D02*
D03*
X2318D02*
D03*
X3154Y4094D02*
D03*
X3066D02*
D03*
Y2618D02*
D03*
X3154D02*
D03*
X4508Y6929D02*
D03*
X4595D02*
D03*
X7279Y7146D02*
D03*
X7367D02*
D03*
X7496Y6929D02*
D03*
X7583D02*
D03*
X2725Y2106D02*
D03*
X2638D02*
D03*
X3381Y3504D02*
D03*
X3469D02*
D03*
Y3406D02*
D03*
X3381D02*
D03*
X3465Y3780D02*
D03*
X3377D02*
D03*
X3823Y3406D02*
D03*
X3736D02*
D03*
X3952Y3583D02*
D03*
X4040D02*
D03*
X3952Y3484D02*
D03*
X4040D02*
D03*
X3952Y3681D02*
D03*
X4040D02*
D03*
X3066Y2520D02*
D03*
X3154D02*
D03*
X3952Y2362D02*
D03*
X4040D02*
D03*
X3381Y2185D02*
D03*
X3469D02*
D03*
X3823Y2087D02*
D03*
X3736D02*
D03*
X3469D02*
D03*
X3381D02*
D03*
X3465Y2461D02*
D03*
X3377D02*
D03*
X2067Y3583D02*
D03*
X2154D02*
D03*
X6993Y3110D02*
D03*
X6905D02*
D03*
X6776D02*
D03*
X6689D02*
D03*
X7102Y3209D02*
D03*
X7189D02*
D03*
X8381Y3878D02*
D03*
X8469D02*
D03*
X8381Y5531D02*
D03*
X8469D02*
D03*
X5024Y3110D02*
D03*
X4937D02*
D03*
X4808D02*
D03*
X4720D02*
D03*
X5153Y3209D02*
D03*
X5241D02*
D03*
X4169Y2461D02*
D03*
X4256D02*
D03*
X3952D02*
D03*
X4040D02*
D03*
X3952Y3780D02*
D03*
X4040D02*
D03*
X4169D02*
D03*
X4256D02*
D03*
X3952Y2264D02*
D03*
X4040D02*
D03*
X4650Y6102D02*
D03*
X4563D02*
D03*
X3952Y2165D02*
D03*
X4040D02*
D03*
D12*
X3640Y6210D02*
D03*
Y6122D02*
D03*
Y5901D02*
D03*
Y5989D02*
D03*
X6935Y7878D02*
D03*
Y7791D02*
D03*
X1969Y3902D02*
D03*
Y3814D02*
D03*
X4291Y7701D02*
D03*
Y7614D02*
D03*
X3652Y5221D02*
D03*
Y5133D02*
D03*
X6817Y8115D02*
D03*
Y8027D02*
D03*
X6935D02*
D03*
Y8115D02*
D03*
X6870Y7091D02*
D03*
Y7003D02*
D03*
X6988D02*
D03*
Y7091D02*
D03*
Y7327D02*
D03*
Y7240D02*
D03*
X7106D02*
D03*
Y7327D02*
D03*
X6614Y6255D02*
D03*
Y6343D02*
D03*
X6737D02*
D03*
Y6255D02*
D03*
X6614Y6107D02*
D03*
Y6019D02*
D03*
X6737Y6107D02*
D03*
Y6019D02*
D03*
X5157Y3913D02*
D03*
Y4000D02*
D03*
X7087D02*
D03*
Y3913D02*
D03*
X4626Y2189D02*
D03*
Y2102D02*
D03*
X6614Y2189D02*
D03*
Y2102D02*
D03*
D13*
X3753Y5374D02*
D03*
X3648D02*
D03*
Y5551D02*
D03*
X3753D02*
D03*
D14*
X3533Y5423D02*
D03*
X3534Y5502D02*
D03*
X7284Y6949D02*
D03*
X7283Y6870D02*
D03*
X4709Y4257D02*
D03*
X4709Y4178D02*
D03*
X4242Y4331D02*
D03*
X4242Y4252D02*
D03*
X6211Y4252D02*
D03*
X6211Y4331D02*
D03*
X7039Y3544D02*
D03*
X7039Y3465D02*
D03*
X4390Y6929D02*
D03*
X4390Y7008D02*
D03*
X6697Y8031D02*
D03*
X6698Y8111D02*
D03*
X6762Y7008D02*
D03*
X6762Y7087D02*
D03*
X6501Y6102D02*
D03*
X6501Y6181D02*
D03*
X6678Y4178D02*
D03*
X6678Y4257D02*
D03*
X7441Y3464D02*
D03*
X7441Y3544D02*
D03*
X3602Y3465D02*
D03*
X3602Y3386D02*
D03*
X3838Y3740D02*
D03*
X3839Y3819D02*
D03*
X3838Y2421D02*
D03*
X3839Y2500D02*
D03*
X3602Y2146D02*
D03*
X3602Y2067D02*
D03*
X5205Y3464D02*
D03*
X5205Y3544D02*
D03*
X5406D02*
D03*
X5405Y3464D02*
D03*
X4075Y7697D02*
D03*
X4075Y7618D02*
D03*
X4252Y6006D02*
D03*
X4252Y5926D02*
D03*
X3642Y6308D02*
D03*
X3642Y6388D02*
D03*
X3898Y5807D02*
D03*
X3898Y5886D02*
D03*
X3504Y5905D02*
D03*
X3504Y5985D02*
D03*
D15*
X7052Y7748D02*
D03*
Y7882D02*
D03*
X2451Y2530D02*
D03*
Y2663D02*
D03*
Y4104D02*
D03*
Y4238D02*
D03*
X7053Y8138D02*
D03*
Y8004D02*
D03*
X6791Y3949D02*
D03*
Y4083D02*
D03*
X4833Y3949D02*
D03*
Y4083D02*
D03*
X4350Y2283D02*
D03*
Y2150D02*
D03*
X6319Y2283D02*
D03*
Y2150D02*
D03*
D16*
X4547Y5512D02*
D03*
X2322Y3699D02*
D03*
X3622Y4498D02*
D03*
X7953Y6634D02*
D03*
X7274Y4380D02*
D03*
X3720Y3130D02*
D03*
D17*
X3740Y4148D02*
D03*
X3661Y4148D02*
D03*
X3189Y4224D02*
D03*
X3110Y4225D02*
D03*
X3032Y4331D02*
D03*
X2952Y4331D02*
D03*
X3189Y4449D02*
D03*
X3268Y4449D02*
D03*
X3740Y4252D02*
D03*
X3661Y4252D02*
D03*
X2957Y2854D02*
D03*
X3036Y2854D02*
D03*
X3114Y2748D02*
D03*
X3194Y2748D02*
D03*
X3666Y2671D02*
D03*
X3745Y2671D02*
D03*
X3666Y2776D02*
D03*
X3745Y2775D02*
D03*
X7559Y7047D02*
D03*
X7480Y7047D02*
D03*
X7284Y6100D02*
D03*
X7204Y6100D02*
D03*
X3347Y2885D02*
D03*
X3267Y2885D02*
D03*
X7992Y3898D02*
D03*
X8071Y3898D02*
D03*
X7992Y5551D02*
D03*
X8071Y5551D02*
D03*
D18*
X3312Y4250D02*
D03*
Y4224D02*
D03*
Y4199D02*
D03*
Y4173D02*
D03*
Y4148D02*
D03*
Y4122D02*
D03*
Y4096D02*
D03*
X3538D02*
D03*
Y4122D02*
D03*
Y4148D02*
D03*
Y4173D02*
D03*
Y4199D02*
D03*
Y4224D02*
D03*
Y4250D02*
D03*
X3317Y2774D02*
D03*
Y2748D02*
D03*
Y2722D02*
D03*
Y2697D02*
D03*
Y2671D02*
D03*
Y2646D02*
D03*
Y2620D02*
D03*
X3543D02*
D03*
Y2646D02*
D03*
Y2671D02*
D03*
Y2697D02*
D03*
Y2722D02*
D03*
Y2748D02*
D03*
Y2774D02*
D03*
D19*
X2329Y4007D02*
D03*
Y3907D02*
D03*
X2081D02*
D03*
Y4007D02*
D03*
Y2492D02*
D03*
Y2392D02*
D03*
X2329D02*
D03*
Y2492D02*
D03*
D20*
X2384Y2218D02*
D03*
X2421Y2310D02*
D03*
X2069Y3674D02*
D03*
X2106Y3767D02*
D03*
X2640Y3766D02*
D03*
X2677Y3858D02*
D03*
X3270Y6844D02*
D03*
X3307Y6936D02*
D03*
X6888Y6065D02*
D03*
X6851Y5973D02*
D03*
X2640Y2191D02*
D03*
X2677Y2283D02*
D03*
D21*
X2459Y2218D02*
D03*
X2144Y3674D02*
D03*
X2715Y3766D02*
D03*
X3344Y6844D02*
D03*
X6926Y5973D02*
D03*
X2715Y2191D02*
D03*
D22*
X3642Y5738D02*
D03*
X3799D02*
D03*
D23*
X3299Y7037D02*
D03*
X3433D02*
D03*
X7409Y7343D02*
D03*
X7276D02*
D03*
Y7264D02*
D03*
X7409D02*
D03*
X3358Y3681D02*
D03*
X3492D02*
D03*
X3358Y3602D02*
D03*
X3492D02*
D03*
X3358Y2283D02*
D03*
X3492D02*
D03*
X3358Y2362D02*
D03*
X3492D02*
D03*
X6843Y3209D02*
D03*
X6976D02*
D03*
X6587D02*
D03*
X6720D02*
D03*
X4874D02*
D03*
X5008D02*
D03*
X4618D02*
D03*
X4752D02*
D03*
D24*
X4334Y7900D02*
D03*
X4384D02*
D03*
X4434D02*
D03*
X4484D02*
D03*
X4170D02*
D03*
X4120D02*
D03*
X4070D02*
D03*
X4020D02*
D03*
D25*
X4484Y8116D02*
D03*
X4434D02*
D03*
X4384D02*
D03*
X4334D02*
D03*
X4020D02*
D03*
X4070D02*
D03*
X4120D02*
D03*
X4170D02*
D03*
D26*
X4409Y8027D02*
D03*
X4095D02*
D03*
D27*
X4505Y8072D02*
D03*
X4314D02*
D03*
X4314Y7977D02*
D03*
X4505Y7977D02*
D03*
X4190D02*
D03*
X3999Y7977D02*
D03*
X3999Y8072D02*
D03*
X4190D02*
D03*
D28*
X4326Y8096D02*
D03*
X4493D02*
D03*
X4178D02*
D03*
X4011D02*
D03*
D29*
X7002Y6100D02*
D03*
Y6063D02*
D03*
Y6026D02*
D03*
X7101D02*
D03*
Y6100D02*
D03*
D30*
X4659Y7874D02*
D03*
X4869D02*
D03*
Y7362D02*
D03*
X4659D02*
D03*
X4583Y4016D02*
D03*
X4374D02*
D03*
X6342D02*
D03*
X6552D02*
D03*
D31*
X5236Y8104D02*
D03*
Y7722D02*
D03*
X5787D02*
D03*
Y8104D02*
D03*
X6339Y8104D02*
D03*
Y7722D02*
D03*
X5239Y7014D02*
D03*
Y7396D02*
D03*
X5787D02*
D03*
Y7014D02*
D03*
X6339Y7014D02*
D03*
Y7396D02*
D03*
D32*
X3160Y4608D02*
D03*
Y4817D02*
D03*
X2992D02*
D03*
Y4608D02*
D03*
Y3033D02*
D03*
Y3243D02*
D03*
X3160D02*
D03*
Y3033D02*
D03*
D33*
X3112Y4356D02*
D03*
Y4331D02*
D03*
Y4305D02*
D03*
X3187D02*
D03*
Y4356D02*
D03*
X3191Y2880D02*
D03*
Y2829D02*
D03*
X3117D02*
D03*
Y2854D02*
D03*
Y2880D02*
D03*
X7285Y7022D02*
D03*
Y7073D02*
D03*
X7360D02*
D03*
Y7047D02*
D03*
Y7022D02*
D03*
X7837Y5537D02*
D03*
Y5512D02*
D03*
Y5486D02*
D03*
X7911D02*
D03*
Y5537D02*
D03*
X7837Y3884D02*
D03*
Y3858D02*
D03*
Y3833D02*
D03*
X7911D02*
D03*
Y3884D02*
D03*
D34*
X3896Y6108D02*
D03*
X3858D02*
D03*
X3821D02*
D03*
Y6018D02*
D03*
X3858D02*
D03*
X3896D02*
D03*
D35*
X4173Y7612D02*
D03*
Y7703D02*
D03*
X4291Y7008D02*
D03*
Y6917D02*
D03*
D36*
X4349Y7230D02*
D03*
X4399D02*
D03*
X4449D02*
D03*
X4499D02*
D03*
D38*
X6995Y3919D02*
D03*
X6903Y3957D02*
D03*
X5056Y3919D02*
D03*
X4964Y3957D02*
D03*
X4534Y2108D02*
D03*
X4442Y2146D02*
D03*
X6523Y2108D02*
D03*
X6430Y2146D02*
D03*
D39*
X6995Y3994D02*
D03*
X5056D02*
D03*
X4534Y2183D02*
D03*
X6523D02*
D03*
D40*
X3643Y3677D02*
D03*
Y3627D02*
D03*
Y3577D02*
D03*
Y3527D02*
D03*
X3837D02*
D03*
Y3577D02*
D03*
Y3627D02*
D03*
Y3677D02*
D03*
X3643Y2358D02*
D03*
Y2308D02*
D03*
Y2258D02*
D03*
Y2208D02*
D03*
X3837D02*
D03*
Y2258D02*
D03*
Y2308D02*
D03*
Y2358D02*
D03*
D41*
X6831Y3463D02*
D03*
Y3663D02*
D03*
X7244Y3463D02*
D03*
Y3663D02*
D03*
X5610Y3463D02*
D03*
Y3663D02*
D03*
X5000Y3463D02*
D03*
Y3663D02*
D03*
D42*
X3819Y6270D02*
D03*
Y6388D02*
D03*
D43*
X6398Y2500D02*
X7815D01*
Y3051D01*
X6398D02*
X7815D01*
X6398Y2500D02*
Y3051D01*
X4429Y2500D02*
Y3051D01*
Y2500D02*
X5846D01*
Y3051D01*
X4429D02*
X5846D01*
X1772Y8268D02*
X8858D01*
Y1969D02*
Y8268D01*
X1772Y1969D02*
Y8268D01*
Y1969D02*
X8858D01*
X8858Y1969D01*
D44*
X9813Y3552D02*
X9880D01*
X9846D01*
Y3452D01*
X9963Y3552D02*
X9930D01*
X9913Y3535D01*
Y3469D01*
X9930Y3452D01*
X9963D01*
X9980Y3469D01*
Y3535D01*
X9963Y3552D01*
X10013Y3452D02*
Y3552D01*
X10063D01*
X10080Y3535D01*
Y3502D01*
X10063Y3485D01*
X10013D01*
X10213Y3452D02*
Y3552D01*
X10263D01*
X10280Y3535D01*
Y3502D01*
X10263Y3485D01*
X10213D01*
X10313Y3452D02*
Y3552D01*
X10346Y3519D01*
X10380Y3552D01*
Y3452D01*
X9803Y2147D02*
Y2047D01*
X9853D01*
X9870Y2064D01*
Y2081D01*
X9853Y2097D01*
X9803D01*
X9853D01*
X9870Y2114D01*
Y2131D01*
X9853Y2147D01*
X9803D01*
X9953D02*
X9920D01*
X9903Y2131D01*
Y2064D01*
X9920Y2047D01*
X9953D01*
X9970Y2064D01*
Y2131D01*
X9953Y2147D01*
X10003Y2047D02*
Y2114D01*
X10036Y2147D01*
X10070Y2114D01*
Y2047D01*
Y2097D01*
X10003D01*
X10103Y2047D02*
Y2147D01*
X10153D01*
X10170Y2131D01*
Y2097D01*
X10153Y2081D01*
X10103D01*
X10136D02*
X10170Y2047D01*
X10203Y2147D02*
Y2047D01*
X10253D01*
X10270Y2064D01*
Y2131D01*
X10253Y2147D01*
X10203D01*
X10453D02*
X10420D01*
X10403Y2131D01*
Y2064D01*
X10420Y2047D01*
X10453D01*
X10470Y2064D01*
Y2131D01*
X10453Y2147D01*
X10503D02*
Y2064D01*
X10520Y2047D01*
X10553D01*
X10570Y2064D01*
Y2147D01*
X10603D02*
X10670D01*
X10636D01*
Y2047D01*
X10703Y2147D02*
Y2047D01*
X10770D01*
X10803Y2147D02*
X10836D01*
X10819D01*
Y2047D01*
X10803D01*
X10836D01*
X10886D02*
Y2147D01*
X10953Y2047D01*
Y2147D01*
X11053D02*
X10986D01*
Y2047D01*
X11053D01*
X10986Y2097D02*
X11019D01*
M02*
