G04*
G04 #@! TF.GenerationSoftware,Altium Limited,CircuitStudio,1.5.1 (13)*
G04*
G04 Layer_Color=16770453*
%FSLAX23Y23*%
%MOIN*%
G70*
G01*
G75*
%ADD14R,0.050X0.047*%
%ADD43C,0.010*%
%ADD44C,0.020*%
%ADD72R,0.126X0.039*%
D14*
X8720Y3918D02*
D03*
X8721Y3838D02*
D03*
X8720Y5571D02*
D03*
X8721Y5492D02*
D03*
D43*
X1772Y8268D02*
X8858D01*
Y1969D02*
Y8268D01*
X1772Y1969D02*
Y8268D01*
Y1969D02*
X8858D01*
D44*
X9813Y3102D02*
Y3002D01*
X9863D01*
X9880Y3019D01*
Y3035D01*
X9863Y3052D01*
X9813D01*
X9863D01*
X9880Y3069D01*
Y3085D01*
X9863Y3102D01*
X9813D01*
X9963D02*
X9930D01*
X9913Y3085D01*
Y3019D01*
X9930Y3002D01*
X9963D01*
X9980Y3019D01*
Y3085D01*
X9963Y3102D01*
X10013D02*
X10080D01*
X10046D01*
Y3002D01*
X10113Y3102D02*
X10180D01*
X10146D01*
Y3002D01*
X10263Y3102D02*
X10230D01*
X10213Y3085D01*
Y3019D01*
X10230Y3002D01*
X10263D01*
X10280Y3019D01*
Y3085D01*
X10263Y3102D01*
X10313Y3002D02*
Y3102D01*
X10346Y3069D01*
X10380Y3102D01*
Y3002D01*
X10513D02*
Y3102D01*
X10563D01*
X10580Y3085D01*
Y3052D01*
X10563Y3035D01*
X10513D01*
X10613Y3002D02*
Y3102D01*
X10646Y3069D01*
X10680Y3102D01*
Y3002D01*
D72*
X5035Y8189D02*
D03*
X4768D02*
D03*
Y8031D02*
D03*
X5035D02*
D03*
M02*
