G04*
G04 #@! TF.GenerationSoftware,Altium Limited,CircuitStudio,1.5.1 (13)*
G04*
G04 Layer_Physical_Order=1*
G04 Layer_Color=11767835*
%FSLAX23Y23*%
%MOIN*%
G70*
G01*
G75*
%ADD10R,0.063X0.118*%
%ADD11R,0.236X0.236*%
%ADD12R,0.047X0.050*%
%ADD13R,0.035X0.037*%
%ADD14R,0.035X0.037*%
%ADD15R,0.060X0.050*%
G04:AMPARAMS|DCode=16|XSize=43mil|YSize=70mil|CornerRadius=3mil|HoleSize=0mil|Usage=FLASHONLY|Rotation=90.000|XOffset=0mil|YOffset=0mil|HoleType=Round|Shape=RoundedRectangle|*
%AMROUNDEDRECTD16*
21,1,0.043,0.064,0,0,90.0*
21,1,0.037,0.070,0,0,90.0*
1,1,0.006,0.032,0.018*
1,1,0.006,0.032,-0.018*
1,1,0.006,-0.032,-0.018*
1,1,0.006,-0.032,0.018*
%
%ADD16ROUNDEDRECTD16*%
G04:AMPARAMS|DCode=17|XSize=37mil|YSize=70mil|CornerRadius=3mil|HoleSize=0mil|Usage=FLASHONLY|Rotation=90.000|XOffset=0mil|YOffset=0mil|HoleType=Round|Shape=RoundedRectangle|*
%AMROUNDEDRECTD17*
21,1,0.037,0.065,0,0,90.0*
21,1,0.032,0.070,0,0,90.0*
1,1,0.005,0.032,0.016*
1,1,0.005,0.032,-0.016*
1,1,0.005,-0.032,-0.016*
1,1,0.005,-0.032,0.016*
%
%ADD17ROUNDEDRECTD17*%
G04:AMPARAMS|DCode=18|XSize=75mil|YSize=133mil|CornerRadius=3mil|HoleSize=0mil|Usage=FLASHONLY|Rotation=90.000|XOffset=0mil|YOffset=0mil|HoleType=Round|Shape=RoundedRectangle|*
%AMROUNDEDRECTD18*
21,1,0.075,0.127,0,0,90.0*
21,1,0.070,0.133,0,0,90.0*
1,1,0.005,0.064,0.035*
1,1,0.005,0.064,-0.035*
1,1,0.005,-0.064,-0.035*
1,1,0.005,-0.064,0.035*
%
%ADD18ROUNDEDRECTD18*%
G04:AMPARAMS|DCode=19|XSize=75mil|YSize=133mil|CornerRadius=3mil|HoleSize=0mil|Usage=FLASHONLY|Rotation=0.000|XOffset=0mil|YOffset=0mil|HoleType=Round|Shape=RoundedRectangle|*
%AMROUNDEDRECTD19*
21,1,0.075,0.127,0,0,0.0*
21,1,0.070,0.133,0,0,0.0*
1,1,0.005,0.035,-0.064*
1,1,0.005,-0.035,-0.064*
1,1,0.005,-0.035,0.064*
1,1,0.005,0.035,0.064*
%
%ADD19ROUNDEDRECTD19*%
%ADD20R,0.050X0.047*%
%ADD21R,0.035X0.031*%
G04:AMPARAMS|DCode=22|XSize=47mil|YSize=16mil|CornerRadius=2mil|HoleSize=0mil|Usage=FLASHONLY|Rotation=180.000|XOffset=0mil|YOffset=0mil|HoleType=Round|Shape=RoundedRectangle|*
%AMROUNDEDRECTD22*
21,1,0.047,0.012,0,0,180.0*
21,1,0.043,0.016,0,0,180.0*
1,1,0.004,-0.021,0.006*
1,1,0.004,0.021,0.006*
1,1,0.004,0.021,-0.006*
1,1,0.004,-0.021,-0.006*
%
%ADD22ROUNDEDRECTD22*%
%ADD23R,0.050X0.060*%
%ADD24R,0.063X0.031*%
%ADD25R,0.136X0.073*%
%ADD26R,0.217X0.077*%
%ADD27R,0.047X0.016*%
%ADD28R,0.031X0.063*%
%ADD29R,0.039X0.039*%
%ADD30R,0.024X0.050*%
G04:AMPARAMS|DCode=31|XSize=57mil|YSize=23mil|CornerRadius=3mil|HoleSize=0mil|Usage=FLASHONLY|Rotation=270.000|XOffset=0mil|YOffset=0mil|HoleType=Round|Shape=RoundedRectangle|*
%AMROUNDEDRECTD31*
21,1,0.057,0.017,0,0,270.0*
21,1,0.051,0.023,0,0,270.0*
1,1,0.006,-0.009,-0.026*
1,1,0.006,-0.009,0.026*
1,1,0.006,0.009,0.026*
1,1,0.006,0.009,-0.026*
%
%ADD31ROUNDEDRECTD31*%
G04:AMPARAMS|DCode=32|XSize=58mil|YSize=16mil|CornerRadius=2mil|HoleSize=0mil|Usage=FLASHONLY|Rotation=0.000|XOffset=0mil|YOffset=0mil|HoleType=Round|Shape=RoundedRectangle|*
%AMROUNDEDRECTD32*
21,1,0.058,0.012,0,0,0.0*
21,1,0.054,0.016,0,0,0.0*
1,1,0.004,0.027,-0.006*
1,1,0.004,-0.027,-0.006*
1,1,0.004,-0.027,0.006*
1,1,0.004,0.027,0.006*
%
%ADD32ROUNDEDRECTD32*%
%ADD33R,0.079X0.224*%
%ADD34R,0.047X0.024*%
%ADD35R,0.024X0.050*%
%ADD36R,0.024X0.028*%
%ADD37R,0.161X0.150*%
%ADD38R,0.030X0.023*%
%ADD39R,0.006X0.012*%
%ADD40R,0.055X0.165*%
%ADD41R,0.050X0.107*%
%ADD42R,0.047X0.032*%
%ADD43C,0.030*%
%ADD44C,0.060*%
%ADD45C,0.010*%
%ADD46C,0.020*%
%ADD47C,0.040*%
%ADD48C,0.040*%
%ADD49C,0.063*%
%ADD50R,0.063X0.063*%
%ADD51C,0.087*%
%ADD52C,0.157*%
%ADD53R,0.063X0.063*%
%ADD54C,0.060*%
%ADD55R,0.060X0.060*%
%ADD56C,0.094*%
%ADD57C,0.060*%
%ADD58R,0.060X0.060*%
%ADD59C,0.106*%
%ADD60R,0.056X0.056*%
%ADD61R,0.079X0.079*%
%ADD62C,0.079*%
%ADD63C,0.091*%
%ADD64R,0.091X0.091*%
%ADD65C,0.175*%
%ADD66C,0.030*%
G36*
X4774Y7618D02*
X4557D01*
Y7953D01*
X4534D01*
X4530Y7955D01*
Y7967D01*
X4505D01*
Y7987D01*
X4530D01*
Y7998D01*
X4500D01*
Y8017D01*
X4319D01*
Y7998D01*
X4289D01*
Y7987D01*
X4314D01*
Y7967D01*
X4289D01*
Y7955D01*
X4285Y7953D01*
X4219D01*
X4215Y7955D01*
Y7967D01*
X4190D01*
Y7987D01*
X4215D01*
Y7998D01*
X4185D01*
Y8017D01*
X4004D01*
Y7998D01*
X3974D01*
Y7987D01*
X3999D01*
Y7967D01*
X3974D01*
Y7955D01*
X3970Y7953D01*
X3937D01*
Y8248D01*
X4774D01*
Y7618D01*
D02*
G37*
G36*
X6142Y4771D02*
X6141Y4764D01*
X6141Y4764D01*
Y4646D01*
X4764D01*
Y5059D01*
X6142D01*
Y4771D01*
D02*
G37*
G36*
Y3524D02*
X4705D01*
Y3937D01*
X5811D01*
X5813Y3931D01*
X5816Y3926D01*
X5836Y3907D01*
X5841Y3903D01*
X5846Y3902D01*
X5976D01*
X5982Y3903D01*
X5987Y3907D01*
X6018Y3937D01*
X6142D01*
Y3524D01*
D02*
G37*
G36*
X4774Y7106D02*
X4596D01*
Y7303D01*
X4501D01*
Y7287D01*
X4436D01*
Y7303D01*
X4412D01*
Y7287D01*
X4347D01*
Y7303D01*
X4272D01*
Y7520D01*
X4774D01*
Y7106D01*
D02*
G37*
G36*
X6142Y3167D02*
X6141Y3159D01*
X6141Y3159D01*
Y3071D01*
X4705D01*
Y3484D01*
X6142D01*
Y3167D01*
D02*
G37*
G36*
X6240Y1988D02*
X4705D01*
Y2362D01*
X5831D01*
X5832Y2356D01*
X5836Y2351D01*
X5855Y2332D01*
X5860Y2328D01*
X5866Y2327D01*
X5965D01*
X5970Y2328D01*
X5975Y2332D01*
X6006Y2362D01*
X6240D01*
Y1988D01*
D02*
G37*
%LPC*%
G36*
X6023Y3583D02*
X5994D01*
Y3553D01*
X5995Y3554D01*
X6004Y3558D01*
X6013Y3564D01*
X6019Y3572D01*
X6023Y3582D01*
X6023Y3583D01*
D02*
G37*
G36*
X5049Y3750D02*
X4921D01*
X4793D01*
Y3632D01*
X4896D01*
Y3623D01*
X4893Y3621D01*
X4886Y3613D01*
X4882Y3603D01*
X4882Y3603D01*
X4960D01*
X4960Y3603D01*
X4956Y3613D01*
X4950Y3621D01*
X4947Y3623D01*
Y3632D01*
X5049D01*
Y3750D01*
D02*
G37*
G36*
X5404Y3750D02*
X5276D01*
X5147D01*
Y3632D01*
X5250D01*
Y3623D01*
X5247Y3621D01*
X5241Y3613D01*
X5237Y3603D01*
X5237Y3603D01*
X5315D01*
X5315Y3603D01*
X5311Y3613D01*
X5304Y3621D01*
X5301Y3623D01*
Y3632D01*
X5404D01*
Y3750D01*
D02*
G37*
G36*
X5270Y3460D02*
X5270Y3460D01*
X5260Y3456D01*
X5251Y3449D01*
X5245Y3441D01*
X5241Y3431D01*
X5241Y3431D01*
X5270D01*
Y3460D01*
D02*
G37*
G36*
X4931D02*
Y3431D01*
X4960D01*
X4960Y3431D01*
X4956Y3441D01*
X4950Y3449D01*
X4941Y3456D01*
X4932Y3460D01*
X4931Y3460D01*
D02*
G37*
G36*
X4911D02*
X4911Y3460D01*
X4901Y3456D01*
X4893Y3449D01*
X4886Y3441D01*
X4882Y3431D01*
X4882Y3431D01*
X4911D01*
Y3460D01*
D02*
G37*
G36*
X5319Y3411D02*
X5241D01*
X5241Y3410D01*
X5245Y3401D01*
X5251Y3392D01*
X5255Y3390D01*
Y3366D01*
X5152D01*
Y3248D01*
X5280D01*
Y3238D01*
D01*
Y3248D01*
X5408D01*
Y3366D01*
X5305D01*
Y3390D01*
X5309Y3392D01*
X5315Y3401D01*
X5319Y3410D01*
X5319Y3411D01*
D02*
G37*
G36*
X6117Y3228D02*
X5999D01*
Y3110D01*
X6117D01*
Y3228D01*
D02*
G37*
G36*
X5979D02*
X5861D01*
Y3110D01*
X5979D01*
Y3228D01*
D02*
G37*
G36*
X5673Y3411D02*
X5595D01*
X5595Y3410D01*
X5599Y3401D01*
X5606Y3392D01*
X5609Y3390D01*
Y3366D01*
X5506D01*
Y3248D01*
X5634D01*
X5762D01*
Y3366D01*
X5660D01*
Y3390D01*
X5663Y3392D01*
X5669Y3401D01*
X5673Y3410D01*
X5673Y3411D01*
D02*
G37*
G36*
X6028Y3415D02*
X5950D01*
X5950Y3415D01*
X5954Y3405D01*
X5960Y3397D01*
X5963Y3394D01*
Y3366D01*
X5861D01*
Y3248D01*
X5989D01*
X6117D01*
Y3366D01*
X6014D01*
Y3394D01*
X6017Y3397D01*
X6024Y3405D01*
X6028Y3415D01*
X6028Y3415D01*
D02*
G37*
G36*
X4960Y3411D02*
X4882D01*
X4882Y3410D01*
X4886Y3401D01*
X4893Y3392D01*
X4900Y3387D01*
Y3366D01*
X4798D01*
Y3248D01*
X4926D01*
X5054D01*
Y3366D01*
X4951D01*
Y3394D01*
X4956Y3401D01*
X4960Y3410D01*
X4960Y3411D01*
D02*
G37*
G36*
X4911Y3583D02*
X4882D01*
X4882Y3582D01*
X4886Y3572D01*
X4893Y3564D01*
X4901Y3558D01*
X4911Y3554D01*
X4911Y3553D01*
Y3583D01*
D02*
G37*
G36*
X5620Y3583D02*
X5591D01*
X5591Y3582D01*
X5595Y3572D01*
X5601Y3564D01*
X5610Y3558D01*
X5619Y3554D01*
X5620Y3553D01*
Y3583D01*
D02*
G37*
G36*
X5669D02*
X5640D01*
Y3553D01*
X5640Y3554D01*
X5650Y3558D01*
X5658Y3564D01*
X5665Y3572D01*
X5669Y3582D01*
X5669Y3583D01*
D02*
G37*
G36*
X5315Y3583D02*
X5286D01*
Y3553D01*
X5286Y3554D01*
X5296Y3558D01*
X5304Y3564D01*
X5311Y3572D01*
X5315Y3582D01*
X5315Y3583D01*
D02*
G37*
G36*
X5266D02*
X5237D01*
X5237Y3582D01*
X5241Y3572D01*
X5247Y3564D01*
X5255Y3558D01*
X5265Y3554D01*
X5266Y3553D01*
Y3583D01*
D02*
G37*
G36*
X4960Y3583D02*
X4931D01*
Y3553D01*
X4932Y3554D01*
X4941Y3558D01*
X4950Y3564D01*
X4956Y3572D01*
X4960Y3582D01*
X4960Y3583D01*
D02*
G37*
G36*
X5644Y3460D02*
Y3431D01*
X5673D01*
X5673Y3431D01*
X5669Y3441D01*
X5663Y3449D01*
X5655Y3456D01*
X5645Y3460D01*
X5644Y3460D01*
D02*
G37*
G36*
X5624D02*
X5624Y3460D01*
X5614Y3456D01*
X5606Y3449D01*
X5599Y3441D01*
X5595Y3431D01*
X5595Y3431D01*
X5624D01*
Y3460D01*
D02*
G37*
G36*
X5290D02*
Y3431D01*
X5319D01*
X5319Y3431D01*
X5315Y3441D01*
X5309Y3449D01*
X5300Y3456D01*
X5290Y3460D01*
X5290Y3460D01*
D02*
G37*
G36*
X5999Y3464D02*
Y3435D01*
X6028D01*
X6028Y3436D01*
X6024Y3445D01*
X6017Y3454D01*
X6009Y3460D01*
X5999Y3464D01*
X5999Y3464D01*
D02*
G37*
G36*
X5979D02*
X5978Y3464D01*
X5968Y3460D01*
X5960Y3454D01*
X5954Y3445D01*
X5950Y3436D01*
X5950Y3435D01*
X5979D01*
Y3464D01*
D02*
G37*
G36*
X5974Y3583D02*
X5945D01*
X5945Y3582D01*
X5949Y3572D01*
X5956Y3564D01*
X5964Y3558D01*
X5974Y3554D01*
X5974Y3553D01*
Y3583D01*
D02*
G37*
G36*
X6220Y2175D02*
X6191D01*
Y2146D01*
X6192Y2146D01*
X6201Y2150D01*
X6210Y2157D01*
X6216Y2165D01*
X6220Y2175D01*
X6220Y2175D01*
D02*
G37*
G36*
X6117Y2313D02*
X5999D01*
Y2185D01*
Y2057D01*
X6117D01*
Y2160D01*
X6150D01*
X6153Y2157D01*
X6161Y2150D01*
X6171Y2146D01*
X6171Y2146D01*
Y2185D01*
Y2224D01*
X6171Y2224D01*
X6161Y2220D01*
X6153Y2214D01*
X6150Y2211D01*
X6117D01*
Y2313D01*
D02*
G37*
G36*
X5492Y2175D02*
X5463D01*
Y2146D01*
X5463Y2146D01*
X5473Y2150D01*
X5481Y2157D01*
X5488Y2165D01*
X5492Y2175D01*
X5492Y2175D01*
D02*
G37*
G36*
X5108Y2224D02*
Y2195D01*
X5137D01*
X5137Y2195D01*
X5133Y2205D01*
X5127Y2214D01*
X5119Y2220D01*
X5109Y2224D01*
X5108Y2224D01*
D02*
G37*
G36*
X5848Y2177D02*
X5819D01*
Y2148D01*
X5819Y2148D01*
X5829Y2152D01*
X5838Y2158D01*
X5844Y2167D01*
X5848Y2177D01*
X5848Y2177D01*
D02*
G37*
G36*
X5762Y2313D02*
X5644D01*
Y2185D01*
Y2057D01*
X5762D01*
Y2162D01*
X5778D01*
X5781Y2158D01*
X5789Y2152D01*
X5799Y2148D01*
X5799Y2148D01*
Y2187D01*
Y2226D01*
X5799Y2226D01*
X5789Y2222D01*
X5781Y2216D01*
X5778Y2212D01*
X5762D01*
Y2313D01*
D02*
G37*
G36*
X5408D02*
X5290D01*
Y2185D01*
Y2057D01*
X5408D01*
Y2160D01*
X5422D01*
X5424Y2157D01*
X5433Y2150D01*
X5442Y2146D01*
X5443Y2146D01*
Y2185D01*
Y2224D01*
X5442Y2224D01*
X5433Y2220D01*
X5424Y2214D01*
X5422Y2211D01*
X5408D01*
Y2313D01*
D02*
G37*
G36*
X5624Y2175D02*
X5506D01*
Y2057D01*
X5624D01*
Y2175D01*
D02*
G37*
G36*
X5270Y2175D02*
X5152D01*
Y2057D01*
X5270D01*
Y2175D01*
D02*
G37*
G36*
X4911Y2175D02*
X4793D01*
Y2057D01*
X4911D01*
Y2175D01*
D02*
G37*
G36*
X5137Y2175D02*
X5108D01*
Y2146D01*
X5109Y2146D01*
X5119Y2150D01*
X5127Y2157D01*
X5133Y2165D01*
X5137Y2175D01*
X5137Y2175D01*
D02*
G37*
G36*
X5049Y2313D02*
X4931D01*
Y2185D01*
Y2057D01*
X5049D01*
Y2160D01*
X5068D01*
X5070Y2157D01*
X5078Y2150D01*
X5088Y2146D01*
X5088Y2146D01*
Y2185D01*
Y2224D01*
X5088Y2224D01*
X5078Y2220D01*
X5070Y2214D01*
X5068Y2211D01*
X5049D01*
Y2313D01*
D02*
G37*
G36*
X5979Y2175D02*
X5861D01*
Y2057D01*
X5979D01*
Y2175D01*
D02*
G37*
G36*
X5270Y3228D02*
X5152D01*
Y3110D01*
X5270D01*
Y3228D01*
D02*
G37*
G36*
X5054Y3228D02*
X4936D01*
Y3110D01*
X5054D01*
Y3228D01*
D02*
G37*
G36*
X4916D02*
X4798D01*
Y3110D01*
X4916D01*
Y3228D01*
D02*
G37*
G36*
X5762Y3228D02*
X5644D01*
Y3110D01*
X5762D01*
Y3228D01*
D02*
G37*
G36*
X5624D02*
X5506D01*
Y3110D01*
X5624D01*
Y3228D01*
D02*
G37*
G36*
X5408Y3228D02*
X5290D01*
Y3110D01*
X5408D01*
Y3228D01*
D02*
G37*
G36*
X5819Y2226D02*
Y2197D01*
X5848D01*
X5848Y2197D01*
X5844Y2207D01*
X5838Y2216D01*
X5829Y2222D01*
X5819Y2226D01*
X5819Y2226D01*
D02*
G37*
G36*
X5624Y2313D02*
X5506D01*
Y2195D01*
X5624D01*
Y2313D01*
D02*
G37*
G36*
X6191Y2224D02*
Y2195D01*
X6220D01*
X6220Y2195D01*
X6216Y2205D01*
X6210Y2214D01*
X6201Y2220D01*
X6192Y2224D01*
X6191Y2224D01*
D02*
G37*
G36*
X5463D02*
Y2195D01*
X5492D01*
X5492Y2195D01*
X5488Y2205D01*
X5481Y2214D01*
X5473Y2220D01*
X5463Y2224D01*
X5463Y2224D01*
D02*
G37*
G36*
X5270Y2313D02*
X5152D01*
Y2195D01*
X5270D01*
Y2313D01*
D02*
G37*
G36*
X5979D02*
X5861D01*
Y2195D01*
X5979D01*
Y2313D01*
D02*
G37*
G36*
X4911D02*
X4793D01*
Y2195D01*
X4911D01*
Y2313D01*
D02*
G37*
G36*
X4707Y7352D02*
X4669D01*
Y7286D01*
X4694D01*
X4699Y7287D01*
X4703Y7289D01*
X4706Y7294D01*
X4707Y7298D01*
Y7352D01*
D02*
G37*
G36*
X4649D02*
X4611D01*
Y7298D01*
X4612Y7294D01*
X4615Y7289D01*
X4619Y7287D01*
X4624Y7286D01*
X4649D01*
Y7352D01*
D02*
G37*
G36*
X4764Y7246D02*
X4733D01*
Y7215D01*
X4764D01*
Y7246D01*
D02*
G37*
G36*
X4714Y7726D02*
X4683D01*
Y7695D01*
X4714D01*
Y7726D01*
D02*
G37*
G36*
X4694Y7439D02*
X4669D01*
Y7372D01*
X4707D01*
Y7426D01*
X4706Y7431D01*
X4703Y7435D01*
X4699Y7438D01*
X4694Y7439D01*
D02*
G37*
G36*
X4649D02*
X4624D01*
X4619Y7438D01*
X4615Y7435D01*
X4612Y7431D01*
X4611Y7426D01*
Y7372D01*
X4649D01*
Y7439D01*
D02*
G37*
G36*
X4713Y7246D02*
X4681D01*
Y7215D01*
X4713D01*
Y7246D01*
D02*
G37*
G36*
X5266Y5045D02*
X5265Y5045D01*
X5255Y5041D01*
X5247Y5035D01*
X5241Y5026D01*
X5237Y5017D01*
X5237Y5016D01*
X5266D01*
Y5045D01*
D02*
G37*
G36*
X4931Y5039D02*
Y5010D01*
X4960D01*
X4960Y5010D01*
X4956Y5020D01*
X4950Y5029D01*
X4941Y5035D01*
X4932Y5039D01*
X4931Y5039D01*
D02*
G37*
G36*
X4911D02*
X4911Y5039D01*
X4901Y5035D01*
X4893Y5029D01*
X4886Y5020D01*
X4882Y5010D01*
X4882Y5010D01*
X4911D01*
Y5039D01*
D02*
G37*
G36*
X4764Y7195D02*
X4733D01*
Y7163D01*
X4764D01*
Y7195D01*
D02*
G37*
G36*
X4713D02*
X4681D01*
Y7163D01*
X4713D01*
Y7195D01*
D02*
G37*
G36*
X5286Y5045D02*
Y5016D01*
X5315D01*
X5315Y5017D01*
X5311Y5026D01*
X5304Y5035D01*
X5296Y5041D01*
X5286Y5045D01*
X5286Y5045D01*
D02*
G37*
G36*
X4324Y8140D02*
X4312D01*
Y8126D01*
X4324D01*
Y8140D01*
D02*
G37*
G36*
X4474D02*
X4462D01*
Y8112D01*
X4456D01*
Y8140D01*
X4444D01*
Y8116D01*
X4424D01*
Y8140D01*
X4412D01*
Y8112D01*
X4406D01*
Y8140D01*
X4394D01*
Y8116D01*
X4374D01*
Y8140D01*
X4362D01*
Y8112D01*
X4356D01*
Y8140D01*
X4344D01*
Y8116D01*
X4334D01*
Y8106D01*
X4312D01*
Y8094D01*
X4289D01*
Y8082D01*
X4314D01*
Y8062D01*
X4289D01*
Y8050D01*
X4319D01*
Y8037D01*
X4500D01*
Y8050D01*
X4530D01*
Y8062D01*
X4505D01*
Y8082D01*
X4530D01*
Y8094D01*
X4506D01*
Y8106D01*
X4484D01*
Y8116D01*
X4474D01*
Y8140D01*
D02*
G37*
G36*
X4160D02*
X4148D01*
Y8112D01*
X4142D01*
Y8140D01*
X4130D01*
Y8116D01*
X4110D01*
Y8140D01*
X4098D01*
Y8112D01*
X4092D01*
Y8140D01*
X4080D01*
Y8116D01*
X4060D01*
Y8140D01*
X4048D01*
Y8112D01*
X4042D01*
Y8140D01*
X4030D01*
Y8116D01*
X4020D01*
Y8106D01*
X3998D01*
Y8094D01*
X3974D01*
Y8082D01*
X3999D01*
Y8062D01*
X3974D01*
Y8050D01*
X4004D01*
Y8037D01*
X4185D01*
Y8050D01*
X4215D01*
Y8062D01*
X4190D01*
Y8082D01*
X4215D01*
Y8094D01*
X4192D01*
Y8106D01*
X4170D01*
Y8116D01*
X4160D01*
Y8140D01*
D02*
G37*
G36*
X4192D02*
X4180D01*
Y8126D01*
X4192D01*
Y8140D01*
D02*
G37*
G36*
X4010D02*
X3998D01*
Y8126D01*
X4010D01*
Y8140D01*
D02*
G37*
G36*
X4506D02*
X4494D01*
Y8126D01*
X4506D01*
Y8140D01*
D02*
G37*
G36*
X4694Y7951D02*
X4669D01*
Y7884D01*
X4707D01*
Y7938D01*
X4706Y7943D01*
X4703Y7947D01*
X4699Y7950D01*
X4694Y7951D01*
D02*
G37*
G36*
X4766Y7778D02*
X4734D01*
Y7746D01*
X4766D01*
Y7778D01*
D02*
G37*
G36*
X4714D02*
X4683D01*
Y7746D01*
X4714D01*
Y7778D01*
D02*
G37*
G36*
X4766Y7726D02*
X4734D01*
Y7695D01*
X4766D01*
Y7726D01*
D02*
G37*
G36*
X4649Y7951D02*
X4624D01*
X4619Y7950D01*
X4615Y7947D01*
X4612Y7943D01*
X4611Y7938D01*
Y7884D01*
X4649D01*
Y7951D01*
D02*
G37*
G36*
X4707Y7864D02*
X4669D01*
Y7797D01*
X4694D01*
X4699Y7798D01*
X4703Y7801D01*
X4706Y7805D01*
X4707Y7810D01*
Y7864D01*
D02*
G37*
G36*
X4649D02*
X4611D01*
Y7810D01*
X4612Y7805D01*
X4615Y7801D01*
X4619Y7798D01*
X4624Y7797D01*
X4649D01*
Y7864D01*
D02*
G37*
G36*
X5758Y3888D02*
X5640D01*
Y3770D01*
X5758D01*
Y3888D01*
D02*
G37*
G36*
X5620D02*
X5502D01*
Y3770D01*
X5620D01*
Y3888D01*
D02*
G37*
G36*
X5404D02*
X5286D01*
Y3770D01*
X5404D01*
Y3888D01*
D02*
G37*
G36*
X5266Y4803D02*
X5147D01*
Y4685D01*
X5266D01*
Y4803D01*
D02*
G37*
G36*
X5049Y4803D02*
X4931D01*
Y4685D01*
X5049D01*
Y4803D01*
D02*
G37*
G36*
X4911D02*
X4793D01*
Y4685D01*
X4911D01*
Y4803D01*
D02*
G37*
G36*
X5266Y3888D02*
X5147D01*
Y3770D01*
X5266D01*
Y3888D01*
D02*
G37*
G36*
X5974D02*
X5856D01*
Y3770D01*
X5974D01*
Y3888D01*
D02*
G37*
G36*
X6112Y3750D02*
X5984D01*
X5856D01*
Y3632D01*
X5959D01*
Y3623D01*
X5956Y3621D01*
X5949Y3613D01*
X5945Y3603D01*
X5945Y3603D01*
X6023D01*
X6023Y3603D01*
X6019Y3613D01*
X6013Y3621D01*
X6010Y3623D01*
Y3632D01*
X6112D01*
Y3750D01*
D02*
G37*
G36*
X5758Y3750D02*
X5630D01*
X5502D01*
Y3632D01*
X5604D01*
Y3623D01*
X5601Y3621D01*
X5595Y3613D01*
X5591Y3603D01*
X5591Y3603D01*
X5669D01*
X5669Y3603D01*
X5665Y3613D01*
X5658Y3621D01*
X5655Y3623D01*
Y3632D01*
X5758D01*
Y3750D01*
D02*
G37*
G36*
X5049Y3888D02*
X4931D01*
Y3770D01*
X5049D01*
Y3888D01*
D02*
G37*
G36*
X4911D02*
X4793D01*
Y3770D01*
X4911D01*
Y3888D01*
D02*
G37*
G36*
X6112D02*
X5994D01*
Y3770D01*
X6112D01*
Y3888D01*
D02*
G37*
G36*
X5620Y5039D02*
X5619Y5039D01*
X5610Y5035D01*
X5601Y5029D01*
X5595Y5020D01*
X5591Y5010D01*
X5591Y5010D01*
X5620D01*
Y5039D01*
D02*
G37*
G36*
X5315Y4996D02*
X5237D01*
X5237Y4996D01*
X5241Y4986D01*
X5247Y4978D01*
X5250Y4975D01*
Y4941D01*
X5147D01*
Y4823D01*
X5276D01*
X5404D01*
Y4941D01*
X5301D01*
Y4975D01*
X5304Y4978D01*
X5311Y4986D01*
X5315Y4996D01*
X5315Y4996D01*
D02*
G37*
G36*
X6023Y4990D02*
X5945D01*
X5945Y4990D01*
X5949Y4980D01*
X5956Y4971D01*
X5959Y4969D01*
Y4941D01*
X5856D01*
Y4823D01*
X5984D01*
X6112D01*
Y4941D01*
X6010D01*
Y4969D01*
X6013Y4971D01*
X6019Y4980D01*
X6023Y4990D01*
X6023Y4990D01*
D02*
G37*
G36*
X5994Y5039D02*
Y5010D01*
X6023D01*
X6023Y5010D01*
X6019Y5020D01*
X6013Y5029D01*
X6004Y5035D01*
X5995Y5039D01*
X5994Y5039D01*
D02*
G37*
G36*
X5974D02*
X5974Y5039D01*
X5964Y5035D01*
X5956Y5029D01*
X5949Y5020D01*
X5945Y5010D01*
X5945Y5010D01*
X5974D01*
Y5039D01*
D02*
G37*
G36*
X5640D02*
Y5010D01*
X5669D01*
X5669Y5010D01*
X5665Y5020D01*
X5658Y5029D01*
X5650Y5035D01*
X5640Y5039D01*
X5640Y5039D01*
D02*
G37*
G36*
X4960Y4990D02*
X4882D01*
X4882Y4990D01*
X4886Y4980D01*
X4893Y4971D01*
X4896Y4969D01*
Y4941D01*
X4793D01*
Y4823D01*
X4921D01*
X5049D01*
Y4941D01*
X4947D01*
Y4969D01*
X4950Y4971D01*
X4956Y4980D01*
X4960Y4990D01*
X4960Y4990D01*
D02*
G37*
G36*
X5758Y4803D02*
X5640D01*
Y4685D01*
X5758D01*
Y4803D01*
D02*
G37*
G36*
X5620D02*
X5502D01*
Y4685D01*
X5620D01*
Y4803D01*
D02*
G37*
G36*
X5404Y4803D02*
X5286D01*
Y4685D01*
X5404D01*
Y4803D01*
D02*
G37*
G36*
X5669Y4990D02*
X5591D01*
X5591Y4990D01*
X5595Y4980D01*
X5601Y4971D01*
X5604Y4969D01*
Y4941D01*
X5502D01*
Y4823D01*
X5630D01*
Y4813D01*
D01*
Y4823D01*
X5758D01*
Y4941D01*
X5655D01*
Y4969D01*
X5658Y4971D01*
X5665Y4980D01*
X5669Y4990D01*
X5669Y4990D01*
D02*
G37*
G36*
X6112Y4803D02*
X5994D01*
Y4685D01*
X6112D01*
Y4803D01*
D02*
G37*
G36*
X5974D02*
X5856D01*
Y4685D01*
X5974D01*
Y4803D01*
D02*
G37*
%LPD*%
D10*
X6075Y4557D02*
D03*
X5894D02*
D03*
X5720D02*
D03*
X5539D02*
D03*
X5366D02*
D03*
X5185D02*
D03*
X5012D02*
D03*
X4831D02*
D03*
X5894Y4016D02*
D03*
X6075D02*
D03*
X5539D02*
D03*
X5720D02*
D03*
X5185D02*
D03*
X5366D02*
D03*
X5016Y2982D02*
D03*
X4835D02*
D03*
X5371D02*
D03*
X5189D02*
D03*
X5725D02*
D03*
X5544D02*
D03*
X6079D02*
D03*
X5898D02*
D03*
X4831Y4016D02*
D03*
X5012D02*
D03*
X5898Y2441D02*
D03*
X6079D02*
D03*
X5544D02*
D03*
X5725D02*
D03*
X5189D02*
D03*
X5371D02*
D03*
X4831D02*
D03*
X5012D02*
D03*
D11*
X5984Y4813D02*
D03*
X5630D02*
D03*
X5276D02*
D03*
X4921D02*
D03*
X5984Y3760D02*
D03*
X5630D02*
D03*
X5276D02*
D03*
X4926Y3238D02*
D03*
X5280D02*
D03*
X5634D02*
D03*
X5989D02*
D03*
X4921Y3760D02*
D03*
X5989Y2185D02*
D03*
X5634D02*
D03*
X5280D02*
D03*
X4921D02*
D03*
D12*
X4213Y4252D02*
D03*
X4134Y4252D02*
D03*
X6417Y4449D02*
D03*
X6496Y4449D02*
D03*
X6496Y4173D02*
D03*
X6417Y4173D02*
D03*
X6501Y2874D02*
D03*
X6421Y2874D02*
D03*
X6417Y2608D02*
D03*
X6496Y2608D02*
D03*
X7204Y6100D02*
D03*
X7284Y6100D02*
D03*
X7480Y7047D02*
D03*
X7559Y7047D02*
D03*
X7093Y7022D02*
D03*
X7172Y7022D02*
D03*
X4138Y2677D02*
D03*
X4217Y2677D02*
D03*
X3902Y2675D02*
D03*
X3823Y2675D02*
D03*
X3745Y2677D02*
D03*
X3666Y2677D02*
D03*
X3745Y2573D02*
D03*
X3666Y2573D02*
D03*
X3193Y2874D02*
D03*
X3272Y2874D02*
D03*
X3194Y2650D02*
D03*
X3114Y2650D02*
D03*
X3036Y2756D02*
D03*
X2957Y2756D02*
D03*
X3819Y4250D02*
D03*
X3898Y4250D02*
D03*
X3661Y4252D02*
D03*
X3740Y4252D02*
D03*
X3661Y4148D02*
D03*
X3740Y4148D02*
D03*
X3268Y4449D02*
D03*
X3189Y4449D02*
D03*
X2952Y4331D02*
D03*
X3032Y4331D02*
D03*
X3110Y4225D02*
D03*
X3189Y4224D02*
D03*
D13*
X4409Y4245D02*
D03*
X4372Y4153D02*
D03*
X4409Y4444D02*
D03*
X4372Y4351D02*
D03*
X4841Y4443D02*
D03*
X4803Y4350D02*
D03*
X4843Y4245D02*
D03*
X4805Y4153D02*
D03*
X5197Y4444D02*
D03*
X5159Y4351D02*
D03*
X5197Y4245D02*
D03*
X5159Y4153D02*
D03*
X5531Y4444D02*
D03*
X5494Y4351D02*
D03*
X5539Y4245D02*
D03*
X5502Y4153D02*
D03*
X5906Y4444D02*
D03*
X5868Y4351D02*
D03*
X5906Y4245D02*
D03*
X5868Y4153D02*
D03*
X4847Y2869D02*
D03*
X4810Y2777D02*
D03*
X4847Y2670D02*
D03*
X4810Y2578D02*
D03*
X4414Y2670D02*
D03*
X4376Y2578D02*
D03*
X4414Y2869D02*
D03*
X4376Y2777D02*
D03*
X5544Y2670D02*
D03*
X5506Y2578D02*
D03*
X5544Y2869D02*
D03*
X5506Y2777D02*
D03*
X5910Y2869D02*
D03*
X5873Y2777D02*
D03*
X5201Y2670D02*
D03*
X5164Y2578D02*
D03*
X5201Y2869D02*
D03*
X5164Y2777D02*
D03*
X5910Y2670D02*
D03*
X5873Y2578D02*
D03*
X7323Y2842D02*
D03*
X7285Y2749D02*
D03*
X7323Y4101D02*
D03*
X7285Y4009D02*
D03*
X6851Y5973D02*
D03*
X6888Y6065D02*
D03*
X3307Y6936D02*
D03*
X3270Y6844D02*
D03*
X2677Y3858D02*
D03*
X2640Y3766D02*
D03*
X2106Y3767D02*
D03*
X2069Y3674D02*
D03*
X2677Y2283D02*
D03*
X2640Y2191D02*
D03*
X2244Y2172D02*
D03*
X2207Y2080D02*
D03*
D14*
X4447Y4153D02*
D03*
X4447Y4351D02*
D03*
X4878Y4350D02*
D03*
X4880Y4153D02*
D03*
X5234Y4351D02*
D03*
Y4153D02*
D03*
X5569Y4351D02*
D03*
X5577Y4153D02*
D03*
X5943Y4351D02*
D03*
X5943Y4153D02*
D03*
X4884Y2777D02*
D03*
X4884Y2578D02*
D03*
X4451D02*
D03*
X4451Y2777D02*
D03*
X5581Y2578D02*
D03*
X5581Y2777D02*
D03*
X5947D02*
D03*
X5239Y2578D02*
D03*
Y2777D02*
D03*
X5947Y2578D02*
D03*
X7360Y2749D02*
D03*
Y4009D02*
D03*
X6926Y5973D02*
D03*
X3344Y6844D02*
D03*
X2715Y3766D02*
D03*
X2144Y3674D02*
D03*
X2715Y2191D02*
D03*
X2281Y2080D02*
D03*
D15*
X4654Y4154D02*
D03*
X4567D02*
D03*
X4654Y4350D02*
D03*
X4567D02*
D03*
X7367Y2638D02*
D03*
X7279D02*
D03*
Y3898D02*
D03*
X7367D02*
D03*
X7648Y5965D02*
D03*
X7560D02*
D03*
X7563Y7165D02*
D03*
X7476D02*
D03*
X7279Y6929D02*
D03*
X7367D02*
D03*
X7268Y7165D02*
D03*
X7181D02*
D03*
X4595Y6929D02*
D03*
X4508D02*
D03*
X4563Y6102D02*
D03*
X4650D02*
D03*
X4582Y2776D02*
D03*
X4670D02*
D03*
X4582Y2579D02*
D03*
X4670D02*
D03*
X3154Y2520D02*
D03*
X3066D02*
D03*
X3154Y2421D02*
D03*
X3066D02*
D03*
X2406Y3031D02*
D03*
X2318D02*
D03*
X3066Y4094D02*
D03*
X3154D02*
D03*
X3066Y3996D02*
D03*
X3154D02*
D03*
X2318Y4606D02*
D03*
X2406D02*
D03*
X6540Y6663D02*
D03*
X6452D02*
D03*
Y6762D02*
D03*
X6540D02*
D03*
X3351Y6752D02*
D03*
X3263D02*
D03*
X2721Y3681D02*
D03*
X2633D02*
D03*
X2638Y2106D02*
D03*
X2725D02*
D03*
X2161Y2303D02*
D03*
X2249D02*
D03*
D16*
X5039Y4322D02*
D03*
X5366Y4141D02*
D03*
Y4322D02*
D03*
X5720D02*
D03*
Y4141D02*
D03*
X6075D02*
D03*
Y4322D02*
D03*
X5725Y2566D02*
D03*
Y2747D02*
D03*
X5044D02*
D03*
Y2566D02*
D03*
X5371Y2747D02*
D03*
Y2566D02*
D03*
X6079Y2747D02*
D03*
Y2566D02*
D03*
X5039Y4141D02*
D03*
D17*
Y4441D02*
D03*
X5366Y4259D02*
D03*
Y4441D02*
D03*
X5720D02*
D03*
Y4259D02*
D03*
X6075D02*
D03*
Y4441D02*
D03*
X5725Y2685D02*
D03*
Y2866D02*
D03*
X5044D02*
D03*
Y2685D02*
D03*
X5371Y2866D02*
D03*
Y2685D02*
D03*
X6079Y2866D02*
D03*
Y2685D02*
D03*
X5039Y4259D02*
D03*
D18*
X4606Y3832D02*
D03*
Y4042D02*
D03*
Y4750D02*
D03*
Y4541D02*
D03*
X4449Y4042D02*
D03*
Y3832D02*
D03*
Y4541D02*
D03*
Y4750D02*
D03*
X4606Y2467D02*
D03*
Y2257D02*
D03*
X4449D02*
D03*
Y2467D02*
D03*
X4606Y2966D02*
D03*
Y3176D02*
D03*
X4449D02*
D03*
Y2966D02*
D03*
X3160Y3033D02*
D03*
Y3243D02*
D03*
X2992D02*
D03*
Y3033D02*
D03*
Y4608D02*
D03*
Y4817D02*
D03*
X3160D02*
D03*
Y4608D02*
D03*
D19*
X6561Y4813D02*
D03*
X6352D02*
D03*
X6356Y3238D02*
D03*
X6566D02*
D03*
X4659Y7362D02*
D03*
X4869D02*
D03*
Y7874D02*
D03*
X4659D02*
D03*
D20*
X6575Y4400D02*
D03*
X6575Y4320D02*
D03*
X6579Y2742D02*
D03*
X6579Y2821D02*
D03*
X6501Y6181D02*
D03*
X6501Y6102D02*
D03*
X6762Y7087D02*
D03*
X6762Y7008D02*
D03*
X6698Y8111D02*
D03*
X6697Y8031D02*
D03*
X4390Y7008D02*
D03*
X4390Y6929D02*
D03*
X4075Y7618D02*
D03*
X4075Y7697D02*
D03*
X4252Y5926D02*
D03*
X4252Y6006D02*
D03*
X3504Y5985D02*
D03*
X3504Y5905D02*
D03*
X3898Y5886D02*
D03*
X3898Y5807D02*
D03*
X3642Y6388D02*
D03*
X3642Y6308D02*
D03*
D21*
X6260Y4557D02*
D03*
Y4467D02*
D03*
X6260Y4306D02*
D03*
Y4397D02*
D03*
X6654Y4306D02*
D03*
Y4397D02*
D03*
X6654Y4557D02*
D03*
Y4467D02*
D03*
X6663Y2740D02*
D03*
Y2831D02*
D03*
Y2982D02*
D03*
Y2892D02*
D03*
X6260Y2982D02*
D03*
Y2892D02*
D03*
Y2740D02*
D03*
Y2831D02*
D03*
X6870Y7238D02*
D03*
Y7329D02*
D03*
X7053Y7789D02*
D03*
Y7880D02*
D03*
X4291Y6917D02*
D03*
Y7008D02*
D03*
X4173Y7703D02*
D03*
Y7612D02*
D03*
D22*
X6494Y4266D02*
D03*
Y4291D02*
D03*
Y4317D02*
D03*
X6419D02*
D03*
Y4291D02*
D03*
Y4266D02*
D03*
X6499Y2691D02*
D03*
Y2717D02*
D03*
Y2742D02*
D03*
X6423D02*
D03*
Y2717D02*
D03*
Y2691D02*
D03*
D23*
X6561Y4563D02*
D03*
Y4650D02*
D03*
X6352Y4650D02*
D03*
Y4563D02*
D03*
X6566Y3070D02*
D03*
Y2982D02*
D03*
X6356Y2988D02*
D03*
Y3075D02*
D03*
X6737Y6019D02*
D03*
Y6107D02*
D03*
X6614Y6019D02*
D03*
Y6107D02*
D03*
X6737Y6255D02*
D03*
Y6343D02*
D03*
X6614D02*
D03*
Y6255D02*
D03*
X6988Y7240D02*
D03*
Y7327D02*
D03*
Y7091D02*
D03*
Y7003D02*
D03*
X6870D02*
D03*
Y7091D02*
D03*
X6935Y7791D02*
D03*
Y7878D02*
D03*
Y8115D02*
D03*
Y8027D02*
D03*
X6817D02*
D03*
Y8115D02*
D03*
X4862Y5111D02*
D03*
Y5198D02*
D03*
X4754D02*
D03*
Y5111D02*
D03*
X4646Y5111D02*
D03*
Y5198D02*
D03*
X4528D02*
D03*
Y5111D02*
D03*
X3640Y6122D02*
D03*
Y6210D02*
D03*
Y5989D02*
D03*
Y5901D02*
D03*
X3642Y5316D02*
D03*
Y5404D02*
D03*
X4291Y7614D02*
D03*
Y7701D02*
D03*
X1949Y4000D02*
D03*
Y3913D02*
D03*
Y3784D02*
D03*
Y3696D02*
D03*
X2244Y3784D02*
D03*
Y3696D02*
D03*
X1831Y2377D02*
D03*
Y2465D02*
D03*
X1949D02*
D03*
Y2377D02*
D03*
D24*
X7079Y2943D02*
D03*
X7213D02*
D03*
X7079Y4199D02*
D03*
X7213D02*
D03*
X7256Y6811D02*
D03*
X7390D02*
D03*
X3433Y7037D02*
D03*
X3299D02*
D03*
X2148Y3563D02*
D03*
X2281D02*
D03*
D25*
X8504Y5571D02*
D03*
X4252Y5512D02*
D03*
X6850Y3524D02*
D03*
Y3917D02*
D03*
X3740Y3524D02*
D03*
X4048Y4055D02*
D03*
X8504Y6161D02*
D03*
X2461Y3760D02*
D03*
D26*
X8504Y5767D02*
D03*
Y5966D02*
D03*
X8189Y5767D02*
D03*
Y5966D02*
D03*
X7874Y5767D02*
D03*
Y5966D02*
D03*
D27*
X7360Y7022D02*
D03*
Y7047D02*
D03*
Y7073D02*
D03*
X7285D02*
D03*
Y7022D02*
D03*
X4052Y2675D02*
D03*
Y2624D02*
D03*
X3978D02*
D03*
Y2650D02*
D03*
Y2675D02*
D03*
X3117Y2781D02*
D03*
Y2756D02*
D03*
Y2730D02*
D03*
X3191D02*
D03*
Y2781D02*
D03*
X3973Y4250D02*
D03*
Y4225D02*
D03*
Y4199D02*
D03*
X4048D02*
D03*
Y4250D02*
D03*
X3187Y4356D02*
D03*
Y4305D02*
D03*
X3112D02*
D03*
Y4331D02*
D03*
Y4356D02*
D03*
D28*
X7053Y8004D02*
D03*
Y8138D02*
D03*
X3819Y6388D02*
D03*
Y6254D02*
D03*
X2451Y4238D02*
D03*
Y4104D02*
D03*
Y2663D02*
D03*
Y2530D02*
D03*
X2362Y2079D02*
D03*
Y2213D02*
D03*
D29*
X4469Y7362D02*
D03*
X4380D02*
D03*
D30*
X4499Y7230D02*
D03*
X4449D02*
D03*
X4399D02*
D03*
X4349D02*
D03*
D31*
X3896Y6018D02*
D03*
X3858D02*
D03*
X3821D02*
D03*
Y6108D02*
D03*
X3858D02*
D03*
X3896D02*
D03*
D32*
X3543Y2675D02*
D03*
Y2650D02*
D03*
Y2624D02*
D03*
Y2598D02*
D03*
Y2573D02*
D03*
Y2547D02*
D03*
Y2522D02*
D03*
X3317D02*
D03*
Y2547D02*
D03*
Y2573D02*
D03*
Y2598D02*
D03*
Y2624D02*
D03*
Y2650D02*
D03*
Y2675D02*
D03*
X3538Y4250D02*
D03*
Y4224D02*
D03*
Y4199D02*
D03*
Y4173D02*
D03*
Y4148D02*
D03*
Y4122D02*
D03*
Y4096D02*
D03*
X3312D02*
D03*
Y4122D02*
D03*
Y4148D02*
D03*
Y4173D02*
D03*
Y4199D02*
D03*
Y4224D02*
D03*
Y4250D02*
D03*
D33*
X6339Y7396D02*
D03*
Y7014D02*
D03*
X5787Y7014D02*
D03*
Y7396D02*
D03*
X5239D02*
D03*
Y7014D02*
D03*
X6339Y7722D02*
D03*
Y8104D02*
D03*
X5787Y8104D02*
D03*
Y7722D02*
D03*
X5236D02*
D03*
Y8104D02*
D03*
D34*
X7101Y6100D02*
D03*
Y6026D02*
D03*
X7002D02*
D03*
Y6063D02*
D03*
Y6100D02*
D03*
D35*
X4020Y7900D02*
D03*
X4070D02*
D03*
X4120D02*
D03*
X4170D02*
D03*
X4484D02*
D03*
X4434D02*
D03*
X4384D02*
D03*
X4334D02*
D03*
D36*
X4170Y8116D02*
D03*
X4120D02*
D03*
X4070D02*
D03*
X4020D02*
D03*
X4334D02*
D03*
X4384D02*
D03*
X4434D02*
D03*
X4484D02*
D03*
D37*
X4095Y8027D02*
D03*
X4409D02*
D03*
D38*
X4190Y8072D02*
D03*
X3999D02*
D03*
X3999Y7977D02*
D03*
X4190Y7977D02*
D03*
X4505D02*
D03*
X4314Y7977D02*
D03*
X4314Y8072D02*
D03*
X4505D02*
D03*
D39*
X4011Y8096D02*
D03*
X4178D02*
D03*
X4493D02*
D03*
X4326D02*
D03*
D40*
X3799Y5738D02*
D03*
X3642D02*
D03*
D41*
X3746Y5551D02*
D03*
X3642D02*
D03*
D42*
X2329Y4007D02*
D03*
Y3907D02*
D03*
X2081D02*
D03*
Y4007D02*
D03*
X2329Y2492D02*
D03*
Y2392D02*
D03*
X2081D02*
D03*
Y2492D02*
D03*
D43*
X5989Y2185D02*
X6181D01*
X5632Y2187D02*
X5809D01*
X5632D02*
X5634Y2185D01*
X5328Y2185D02*
X5453D01*
X5277Y2237D02*
X5328Y2185D01*
X5268Y2228D02*
X5277Y2237D01*
X4941Y2205D02*
X4961Y2185D01*
X5098D01*
X5370Y2737D02*
X5371Y2736D01*
X5370Y2737D02*
X5371Y2738D01*
X5369Y2736D02*
X5370Y2737D01*
X6356Y3075D02*
Y3238D01*
X6566Y3070D02*
Y3238D01*
X5723Y2736D02*
X5725Y2738D01*
X5371Y2736D02*
Y2738D01*
X6561Y4645D02*
Y4813D01*
X6352Y4650D02*
Y4813D01*
X7087Y4301D02*
X7087Y4301D01*
X5718Y4310D02*
X5720Y4312D01*
X6073Y4311D02*
X6075Y4312D01*
X5366Y4311D02*
Y4312D01*
X4921Y3593D02*
Y3760D01*
X5276Y3593D02*
Y3760D01*
X5630Y3593D02*
Y3760D01*
X5984Y3593D02*
Y3760D01*
X4606Y3740D02*
Y3832D01*
X5989Y3238D02*
Y3425D01*
X5634Y3238D02*
Y3421D01*
X5280Y3238D02*
Y3421D01*
X4926Y3238D02*
Y3416D01*
X4921Y3421D02*
X4926Y3416D01*
X4606Y3176D02*
Y3268D01*
X4921Y4813D02*
Y5000D01*
X5276Y4813D02*
Y5006D01*
X5630Y4813D02*
Y5000D01*
X5984Y4813D02*
Y5000D01*
X4606Y4750D02*
Y4839D01*
X5359Y2747D02*
X5370Y2737D01*
X5711Y2747D02*
X5723Y2736D01*
X5366Y4311D02*
X5378Y4322D01*
X6065D02*
X6075Y4312D01*
X6084D01*
X5280Y2185D02*
X5295Y2200D01*
X4921Y2185D02*
X4941Y2205D01*
X5268Y2228D02*
X5295Y2200D01*
X4606Y2257D02*
Y2343D01*
D44*
X6181Y4764D02*
X6230Y4813D01*
X6181Y4390D02*
Y4764D01*
X6114Y4323D02*
X6181Y4390D01*
X6085Y4323D02*
X6114D01*
X6230Y4813D02*
X6352D01*
X7756Y3346D02*
X7894Y3209D01*
Y2411D02*
Y3209D01*
X7766Y2283D02*
X7894Y2411D01*
X7028Y2283D02*
X7766D01*
X6850Y2461D02*
X7028Y2283D01*
X6079Y2747D02*
X6140D01*
X6181Y2788D01*
X8504Y5767D02*
Y5856D01*
X6850Y3720D02*
Y3917D01*
X6894Y3238D02*
X7091Y3041D01*
X6566Y3238D02*
X6894D01*
X6181Y3159D02*
X6260Y3238D01*
X6181Y2788D02*
Y3159D01*
X6260Y3238D02*
X6356D01*
X8504Y5571D02*
Y5767D01*
X8189D02*
X8504D01*
X7874D02*
X8189D01*
X8504Y5966D02*
Y6161D01*
X8189Y5966D02*
X8504D01*
X7874D02*
X8189D01*
X7873Y5965D02*
X7874Y5966D01*
X7648Y5965D02*
X7873D01*
X7559Y5789D02*
Y5964D01*
Y5689D02*
X7756Y5492D01*
Y5039D02*
Y5492D01*
X6850Y3917D02*
X6851Y3917D01*
X7087Y4301D02*
Y4764D01*
X7037Y4813D02*
X7087Y4764D01*
X6561Y4813D02*
X7037D01*
X5787Y7014D02*
X6339D01*
X5239D02*
X5787D01*
X4869Y7250D02*
Y7362D01*
X4823Y7205D02*
X4869Y7250D01*
X4659Y7269D02*
X4723Y7205D01*
X4659Y7269D02*
Y7362D01*
X5122Y7014D02*
X5239D01*
X5020Y7116D02*
X5122Y7014D01*
X5020Y7116D02*
Y7313D01*
X4970Y7362D02*
X5020Y7313D01*
X4869Y7362D02*
X4970D01*
X4469D02*
X4659D01*
X4154Y7224D02*
X4344D01*
X2913D02*
X4154D01*
X4291Y7087D01*
X4409D01*
X4449Y7126D01*
Y7230D01*
X2736Y7402D02*
X2913Y7224D01*
X2736Y7402D02*
Y7913D01*
X2795Y7972D01*
X3144D01*
X3209Y7907D01*
X2362Y7913D02*
X2553Y8104D01*
X2362Y5354D02*
Y7913D01*
Y5354D02*
X2480Y5236D01*
X4070Y7840D02*
Y7900D01*
Y7840D02*
X4134Y7776D01*
X6339Y8104D02*
X6339Y8104D01*
X5787Y8104D02*
X6339D01*
X5236D02*
X5787D01*
X4070Y7900D02*
X4120D01*
X4020D02*
X4070D01*
X3511D02*
X4020D01*
X3366Y7967D02*
X3504Y8104D01*
X3366Y7638D02*
Y7967D01*
X3287Y7559D02*
X3366Y7638D01*
X2953Y7559D02*
X3287D01*
X2874Y7638D02*
X2953Y7559D01*
X6339Y7014D02*
X6437D01*
X6339Y8104D02*
X6437D01*
X5236Y7722D02*
X5787D01*
X6339D01*
X6339Y7722D01*
X6437D01*
X5239Y7396D02*
X5787D01*
X6339D01*
X6339Y7396D01*
X6437D01*
X2480Y5236D02*
X2874D01*
X4659Y7874D02*
Y7979D01*
X4606Y8031D02*
X4659Y7979D01*
X4099Y8027D02*
X4409D01*
X4409Y8031D02*
X4606D01*
X4659Y7874D02*
X4724Y7809D01*
Y7736D02*
Y7809D01*
X4824Y7830D02*
X4869Y7874D01*
X4824Y7736D02*
Y7830D01*
X4869Y7874D02*
X5157D01*
X5236Y7953D01*
Y8104D01*
X2553Y8104D02*
X3209D01*
X4134Y7776D02*
X4192D01*
X4232Y7816D01*
Y7900D01*
X4291D01*
X4334D01*
X4384D01*
X4434D01*
X4435D01*
D45*
X4878Y4350D02*
X4941D01*
X4843Y4390D02*
X5121D01*
X4803Y4350D02*
X4843Y4390D01*
X5121D02*
X5159Y4351D01*
X6423Y2691D02*
X6427D01*
X6352D02*
X6423D01*
X6348Y2687D02*
X6352Y2691D01*
X6535Y4941D02*
Y5374D01*
X6398Y5512D02*
X6535Y5374D01*
X3937Y2736D02*
Y2825D01*
X3981Y2869D01*
X3902Y2702D02*
X3937Y2736D01*
X3902Y2675D02*
Y2702D01*
X4055Y4311D02*
X4075D01*
X4134Y4252D01*
X6888Y6065D02*
Y6122D01*
X3051Y4225D02*
X3110D01*
X2894Y4331D02*
X2952D01*
X2894Y4281D02*
X2983D01*
X3032Y4331D01*
X3858Y5955D02*
Y6018D01*
X4414Y2670D02*
Y2726D01*
X3154Y2520D02*
X3219D01*
X3272Y2573D01*
X3317D01*
X3066Y2520D02*
X3135Y2589D01*
X3194D01*
Y2650D01*
X3031Y2638D02*
X3066D01*
X3078Y2650D01*
X6588Y2815D02*
Y2821D01*
Y2815D02*
X6663Y2740D01*
X6579Y2821D02*
X6588D01*
X3066Y4094D02*
X3141Y4169D01*
X3207D01*
X3228Y4148D02*
X3312D01*
X3220Y4139D02*
X3228Y4148D01*
X3199Y4139D02*
X3220D01*
X3154Y4094D02*
X3199Y4139D01*
X3189Y4187D02*
X3207Y4169D01*
X3740Y4148D02*
X3793D01*
X3538Y4199D02*
X3973D01*
X4213Y4252D02*
X4272D01*
X4213Y4252D02*
X4213Y4252D01*
X3268Y4449D02*
X3327D01*
X3268Y4449D02*
X3268Y4449D01*
X3130D02*
X3189D01*
X3189Y4449D01*
X6762Y7087D02*
Y7146D01*
Y7087D02*
X6762Y7087D01*
X3631Y6201D02*
X3640Y6210D01*
X3563Y6201D02*
X3631D01*
X4372Y4153D02*
Y4351D01*
X4410Y4245D02*
X4449D01*
X3661Y4252D02*
Y4317D01*
X7480Y6979D02*
Y7047D01*
X3898Y4252D02*
X3937Y4291D01*
X3898Y4250D02*
Y4252D01*
X3661Y4075D02*
Y4148D01*
X2936Y4255D02*
X3062D01*
X3112Y4305D01*
X3032Y4331D02*
X3112D01*
X4350Y4472D02*
X4381D01*
X4409Y4444D01*
X7053Y8138D02*
X7520D01*
X7657Y8000D01*
Y6807D02*
Y8000D01*
X7524Y6673D02*
X7657Y6807D01*
X7047Y6673D02*
X7524D01*
X6959Y6762D02*
X7047Y6673D01*
X6540Y6762D02*
X6959D01*
X6575Y2687D02*
Y2738D01*
X4595Y7002D02*
X4596Y7003D01*
X4595Y6929D02*
Y7002D01*
X6535Y4238D02*
Y4286D01*
X6530Y4291D02*
X6535Y4286D01*
X6494Y4291D02*
X6530D01*
X6654Y4306D02*
X6703D01*
X6654D02*
Y4321D01*
X6575Y4400D02*
X6654Y4321D01*
X6371Y4173D02*
X6417D01*
X6260Y4306D02*
X6309D01*
X6417Y4319D02*
Y4449D01*
X6459Y4337D02*
X6496Y4374D01*
X6459Y4304D02*
Y4337D01*
X6447Y4291D02*
X6459Y4304D01*
X6419Y4291D02*
X6447D01*
X6496Y4374D02*
Y4449D01*
X6575Y4262D02*
X6575Y4262D01*
X6575Y4262D02*
Y4320D01*
X7441Y3898D02*
X7520Y3819D01*
X7367Y3898D02*
X7441D01*
X7360Y3904D02*
X7367Y3898D01*
X7360Y3904D02*
Y4009D01*
X6850Y3421D02*
Y3524D01*
X6262Y2742D02*
X6319D01*
X6260Y2740D02*
X6262Y2742D01*
X6540Y2657D02*
Y2712D01*
X6535Y2717D02*
X6540Y2712D01*
X6575Y2687D02*
X6579Y2691D01*
X6499Y2717D02*
X6535D01*
X6663Y2740D02*
X6713D01*
X6370Y2608D02*
X6417D01*
X7360Y2749D02*
X7411D01*
X7360D02*
X7367Y2743D01*
Y2638D02*
Y2743D01*
X2318Y3031D02*
Y3106D01*
X2725Y2106D02*
X2854D01*
X2715Y2117D02*
X2725Y2106D01*
X2715Y2117D02*
Y2191D01*
X4217Y2677D02*
X4261D01*
X3819Y2680D02*
Y2740D01*
Y2680D02*
X3821Y2677D01*
X3745D02*
X3821D01*
X3745Y2573D02*
X3789D01*
X3596Y2547D02*
X3612Y2531D01*
X3543Y2547D02*
X3596D01*
X3494D02*
X3543D01*
X3494Y2547D02*
X3494Y2547D01*
X3494Y2547D02*
Y2598D01*
X3543D01*
X3319Y2549D02*
X3445D01*
X3258Y2624D02*
X3317D01*
X3066Y2347D02*
Y2421D01*
X3078Y2650D02*
X3114D01*
X2904Y2756D02*
X2957D01*
X3272Y2874D02*
X3327D01*
X3740Y3396D02*
Y3524D01*
X2721Y3681D02*
X2854D01*
X2715Y3687D02*
X2721Y3681D01*
X2715Y3687D02*
Y3766D01*
X3742Y4250D02*
X3819D01*
Y4317D01*
X3582Y4122D02*
X3602Y4101D01*
X3538Y4122D02*
X3582D01*
X3496D02*
X3538D01*
X3494Y4120D02*
X3496Y4122D01*
X3494Y4120D02*
Y4173D01*
X3494Y4173D01*
X3538D01*
X3258Y4199D02*
X3312D01*
X3066Y3922D02*
Y3996D01*
X2913Y4232D02*
X2936Y4255D01*
X2318Y4606D02*
Y4685D01*
X4460Y5198D02*
X4528D01*
X4862Y5198D02*
Y5279D01*
X4584Y5260D02*
X4646Y5198D01*
X3729Y5260D02*
X4584D01*
X4330Y5906D02*
X4399D01*
X4309Y5926D02*
X4330Y5906D01*
X4252Y5926D02*
X4309D01*
X3896Y6108D02*
Y6161D01*
X3640Y6210D02*
Y6307D01*
X3351Y6837D02*
X3498D01*
X3351Y6752D02*
Y6837D01*
X4291Y7701D02*
X4369D01*
X6697Y8031D02*
X6813D01*
X6697Y7973D02*
Y8031D01*
X6935Y7791D02*
X7052D01*
X6935Y7707D02*
Y7791D01*
X7195Y6811D02*
X7256D01*
X7563Y7051D02*
Y7165D01*
X7559Y6979D02*
Y7047D01*
X7093Y7093D02*
X7096Y7096D01*
X7093Y7022D02*
Y7093D01*
X6762Y7087D02*
X6866D01*
X6988Y7327D02*
Y7411D01*
X6987Y7329D02*
X6988Y7327D01*
X6870Y7329D02*
X6987D01*
X6501Y6250D02*
X6609D01*
X6501Y6181D02*
Y6250D01*
X6888Y6065D02*
X6891Y6063D01*
X7002D01*
X7284Y6100D02*
X7337D01*
X3543Y5073D02*
X3729Y5260D01*
X3189Y4224D02*
X3215Y4250D01*
X3312D01*
X3189Y4187D02*
Y4224D01*
X6496Y4173D02*
X6535Y4134D01*
X7106D01*
X6494Y4317D02*
X6571D01*
X6575Y4320D01*
X4646Y5561D02*
Y6098D01*
Y5198D02*
Y5561D01*
X6540Y6663D02*
Y6762D01*
X6398Y6521D02*
X6540Y6663D01*
X6398Y5512D02*
Y6521D01*
X6348Y5463D02*
X6398Y5512D01*
X4744Y5463D02*
X6348D01*
X4646Y5561D02*
X4744Y5463D01*
X4656Y6108D02*
Y6220D01*
X4646Y5198D02*
X4754D01*
Y5111D02*
X4862D01*
X4754Y5101D02*
Y5111D01*
X4659Y5006D02*
X4754Y5101D01*
X6439Y6102D02*
X6501D01*
X6505Y6107D01*
X6614D01*
X7204Y6100D02*
Y6166D01*
X3981Y2869D02*
X4414D01*
X3193Y2874D02*
Y2940D01*
X3191Y2781D02*
Y2872D01*
X3317Y2650D02*
X3374D01*
X3194Y2650D02*
X3219Y2675D01*
X3317D01*
X3036Y2756D02*
Y2825D01*
Y2756D02*
X3036Y2756D01*
X3117D01*
X3666Y2677D02*
Y2740D01*
X4138Y2677D02*
Y2740D01*
X4138Y2740D01*
X4376Y2578D02*
Y2777D01*
X4099Y2578D02*
X4376D01*
X4052Y2624D02*
X4099Y2578D01*
X4451Y2469D02*
Y2578D01*
X2640Y3687D02*
Y3766D01*
X3642Y6388D02*
X3819D01*
X7285Y3904D02*
Y4009D01*
X4556Y6109D02*
Y6220D01*
Y6109D02*
X4559Y6106D01*
X7101Y6100D02*
X7204D01*
X7002D02*
X7026D01*
X7101Y6026D01*
X7002Y5989D02*
Y6026D01*
X6987Y5973D02*
X7002Y5989D01*
X6926Y5973D02*
X6987D01*
X6614Y6343D02*
X6737D01*
Y6107D02*
Y6255D01*
X6614Y6019D02*
X6737D01*
X6851Y5973D02*
Y5993D01*
X6737Y6107D02*
X6851Y5993D01*
X6878Y5925D02*
X6926Y5973D01*
X6752Y5925D02*
X6878D01*
X6737Y5940D02*
X6752Y5925D01*
X6737Y5940D02*
Y6019D01*
X7285Y2644D02*
Y2749D01*
X7421Y2972D02*
X7520D01*
X7390Y2941D02*
X7421Y2972D01*
X7323Y2941D02*
X7390D01*
X7323Y2842D02*
Y2941D01*
X6499Y2742D02*
X6579D01*
X6496Y2608D02*
Y2688D01*
X6501Y2799D02*
Y2874D01*
X6463Y2762D02*
X6501Y2799D01*
X6463Y2723D02*
Y2762D01*
X6457Y2717D02*
X6463Y2723D01*
X6423Y2717D02*
X6457D01*
X6423Y2717D02*
X6423Y2717D01*
X6421Y2744D02*
Y2874D01*
X6501Y2874D02*
X6566Y2939D01*
Y2982D01*
X6356Y2939D02*
X6421Y2874D01*
X6356Y2939D02*
Y2988D01*
X6663Y2831D02*
Y2892D01*
X6260Y2831D02*
Y2892D01*
X6566Y2982D02*
X6663D01*
X6260D02*
X6351D01*
X5943Y4351D02*
X5995D01*
X6075Y4431D01*
X5947Y2777D02*
X6000D01*
X6079Y2856D01*
X5582Y2776D02*
X5650D01*
Y2982D02*
X5650Y2982D01*
X5725D01*
X5240Y2776D02*
X5285D01*
Y2982D02*
X5285Y2982D01*
X5371D01*
X4885Y2776D02*
X4941D01*
Y2982D02*
X5016D01*
X5640Y2441D02*
X5725D01*
X5544Y2670D02*
X5637D01*
X5282Y2444D02*
X5368D01*
X5201Y2670D02*
X5282D01*
X4938Y2444D02*
X5009D01*
X4847Y2670D02*
X4938D01*
X4449Y3124D02*
Y3176D01*
X5862Y2536D02*
X5884D01*
X5898Y2441D02*
Y2526D01*
X6063Y2441D02*
X6079D01*
X5866Y2343D02*
X5965D01*
X5846Y2362D02*
X5866Y2343D01*
X5846Y2362D02*
Y2520D01*
X5862Y2536D01*
X5884D02*
X5910Y2562D01*
Y2670D01*
X5898Y2526D02*
X5947Y2575D01*
Y2578D01*
X5544Y2441D02*
Y2540D01*
X5581Y2578D01*
X5189Y2441D02*
Y2529D01*
X5239Y2578D01*
X4831Y2441D02*
Y2524D01*
X4884Y2578D01*
X5910Y2869D02*
Y2970D01*
X5544Y2869D02*
Y2982D01*
X5201Y2869D02*
Y2970D01*
X4847Y2869D02*
Y2970D01*
X4606Y2415D02*
Y2467D01*
X4449Y3124D02*
X4606Y2966D01*
X5832Y2618D02*
X5873Y2578D01*
X5547Y2618D02*
X5832D01*
X5506Y2578D02*
X5547Y2618D01*
X5506Y2578D02*
X5511D01*
X5466Y2618D02*
X5506Y2578D01*
X5204Y2618D02*
X5466D01*
X5164Y2578D02*
X5204Y2618D01*
X5124D02*
X5164Y2578D01*
X4850Y2618D02*
X5124D01*
X4810Y2578D02*
X4850Y2618D01*
X5834Y2815D02*
X5873Y2777D01*
X5545Y2815D02*
X5834D01*
X5506Y2777D02*
X5545Y2815D01*
X5468D02*
X5506Y2777D01*
X5202Y2815D02*
X5468D01*
X5164Y2777D02*
X5202Y2815D01*
X5125D02*
X5164Y2777D01*
X4848Y2815D02*
X5125D01*
X4810Y2777D02*
X4848Y2815D01*
X4670Y2579D02*
X4809D01*
X4670Y2776D02*
X4809D01*
X4451Y2578D02*
X4581D01*
X4451Y2777D02*
X4581D01*
X4451D02*
Y2964D01*
X4048Y4250D02*
X4131D01*
X3898Y4250D02*
X3923Y4225D01*
X3973D01*
X4052Y2675D02*
X4136D01*
X3928Y2650D02*
X3978D01*
Y2675D02*
X4001D01*
X4052Y2624D01*
X3543Y2573D02*
X3665D01*
X3543Y2675D02*
X3663D01*
X3140Y2781D02*
X3191Y2730D01*
X3117Y2781D02*
X3140D01*
X2913Y4061D02*
Y4232D01*
X2859Y4006D02*
X2913Y4061D01*
X3154Y2421D02*
Y2520D01*
X3063Y2677D02*
X3117Y2730D01*
X2953Y2677D02*
X3063D01*
X2913Y2638D02*
X2953Y2677D01*
X2913Y2480D02*
Y2638D01*
X2865Y2431D02*
X2913Y2480D01*
X2863Y2431D02*
X2865D01*
X2777Y2283D02*
X2854Y2206D01*
X2677Y2283D02*
X2777D01*
X2677D02*
Y2480D01*
X2626Y2531D02*
X2677Y2480D01*
X2563Y2531D02*
X2626D01*
X2451Y2819D02*
X2563Y2931D01*
X2451Y2663D02*
Y2819D01*
X2991Y3031D02*
X2992Y3033D01*
X2406Y3031D02*
X2563D01*
X2453Y2531D02*
X2563D01*
X2777Y3858D02*
X2854Y3781D01*
X2677Y3858D02*
X2777D01*
X2677D02*
Y4055D01*
X3189Y4358D02*
Y4449D01*
X2406Y4606D02*
X2559D01*
X2991D02*
X2992Y4608D01*
X7520Y3919D02*
Y4055D01*
X7473Y4101D02*
X7520Y4055D01*
X7323Y4101D02*
X7473D01*
X7323D02*
Y4201D01*
X6654Y4397D02*
Y4467D01*
X6496Y4173D02*
Y4264D01*
X6419Y4291D02*
X6419Y4291D01*
X6352Y4514D02*
X6417Y4449D01*
X6352Y4514D02*
Y4563D01*
X6496Y4449D02*
X6561Y4514D01*
Y4563D01*
X6260Y4557D02*
X6347D01*
X6567D02*
X6654D01*
X6260Y4397D02*
Y4467D01*
X5570Y4350D02*
X5640D01*
Y4557D02*
X5640Y4557D01*
X5720D01*
X5235Y4350D02*
X5285D01*
Y4557D02*
X5285Y4557D01*
X5366D01*
X4941Y4557D02*
X4941Y4557D01*
X5012D01*
X5827Y4058D02*
X5906Y4137D01*
X5827Y3937D02*
Y4058D01*
Y3937D02*
X5846Y3917D01*
X5976D01*
X6075Y4016D01*
X5894D02*
Y4101D01*
X5906Y4137D02*
Y4245D01*
X5894Y4101D02*
X5943Y4150D01*
Y4153D01*
X5714Y4023D02*
X5720Y4016D01*
X5643Y4023D02*
X5714D01*
X5539Y4245D02*
X5643D01*
X5359Y4023D02*
X5366Y4016D01*
X5288Y4023D02*
X5359D01*
X5197Y4245D02*
X5288D01*
X5005Y4023D02*
X5012Y4016D01*
X4934Y4023D02*
X5005D01*
X4843Y4245D02*
X4934D01*
X5185Y4103D02*
X5234Y4153D01*
X5185Y4016D02*
Y4103D01*
X4831Y4103D02*
X4880Y4153D01*
X4831Y4016D02*
Y4103D01*
X5539Y4115D02*
X5577Y4153D01*
X5539Y4016D02*
Y4115D01*
X5906Y4444D02*
Y4545D01*
X5531Y4444D02*
Y4549D01*
X5197Y4444D02*
Y4545D01*
X5497Y4346D02*
X5540Y4390D01*
X5494Y4346D02*
X5497D01*
X5452Y4389D02*
X5494Y4346D01*
X5197Y4389D02*
X5452D01*
X5159Y4351D02*
X5197Y4389D01*
X5828Y4193D02*
X5868Y4153D01*
X5542Y4193D02*
X5828D01*
X5502Y4153D02*
X5542Y4193D01*
X5465Y4190D02*
X5502Y4153D01*
X5197Y4190D02*
X5465D01*
X5159Y4153D02*
X5197Y4190D01*
X5119Y4193D02*
X5159Y4153D01*
X4843Y4193D02*
X5119D01*
X4805Y4156D02*
X4843Y4193D01*
X4805Y4153D02*
Y4156D01*
X5830Y4390D02*
X5868Y4351D01*
X5540Y4390D02*
X5830D01*
X5494Y4344D02*
Y4346D01*
X4841Y4443D02*
Y4547D01*
X4654Y4350D02*
X4803D01*
X4654Y4154D02*
X4804D01*
X4447Y4351D02*
X4566D01*
X4447Y4153D02*
X4566D01*
X4449Y3884D02*
X4606Y4042D01*
X4449Y3832D02*
Y3884D01*
X4447Y4044D02*
Y4153D01*
X4449Y4698D02*
Y4750D01*
Y4698D02*
X4606Y4541D01*
X4447Y4351D02*
Y4539D01*
X4048Y4199D02*
X4094Y4153D01*
X4372D01*
X3973Y4250D02*
X3997D01*
X4048Y4199D01*
X3538Y4148D02*
X3661D01*
X3154Y3996D02*
Y4094D01*
X3112Y4356D02*
X3136D01*
X3187Y4305D01*
X2559Y4106D02*
X2626D01*
X2677Y4055D01*
X2451Y4398D02*
X2559Y4506D01*
X2451Y4238D02*
Y4398D01*
X2453Y4106D02*
X2559D01*
X3640Y5740D02*
X3642Y5738D01*
X3640Y5740D02*
Y5901D01*
X3669Y6018D02*
X3821D01*
X3640Y5989D02*
X3669Y6018D01*
X3640Y5989D02*
Y6122D01*
X3819Y6110D02*
Y6254D01*
X7360Y7047D02*
X7480D01*
X7283Y6988D02*
Y7020D01*
X7172Y6946D02*
Y7022D01*
X7236Y6972D02*
X7279Y6929D01*
X7236Y6972D02*
Y7023D01*
X7285Y7073D01*
X7360Y6936D02*
X7367Y6929D01*
X7360Y6936D02*
Y7022D01*
X7411Y7165D02*
X7476D01*
X7360Y7114D02*
X7411Y7165D01*
X7360Y7073D02*
Y7114D01*
X7268Y7090D02*
X7285Y7073D01*
X7268Y7090D02*
Y7165D01*
X7063D02*
X7181D01*
X6988Y7091D02*
X7063Y7165D01*
X6872Y7240D02*
X6988D01*
Y7091D02*
Y7240D01*
X6870Y7003D02*
X6988D01*
X6866Y7008D02*
X6870Y7003D01*
X6762Y7008D02*
X6866D01*
X6756Y7014D02*
X6762Y7008D01*
X4321Y6929D02*
X4390D01*
X4310Y6917D02*
X4321Y6929D01*
X4291Y6917D02*
X4310D01*
X4390Y6929D02*
X4390Y6929D01*
X4508D01*
X4499Y6938D02*
X4508Y6929D01*
X4499Y6938D02*
Y7230D01*
X4291Y7008D02*
X4390D01*
X4291Y7087D02*
X4291Y7087D01*
X4291Y7008D02*
Y7087D01*
X4399Y7230D02*
Y7239D01*
X4432Y7272D01*
X4469D01*
X4499Y7242D01*
Y7230D02*
Y7242D01*
X3504Y7047D02*
Y7120D01*
X3494Y7037D02*
X3504Y7047D01*
X3433Y7037D02*
X3494D01*
X3209Y7047D02*
Y7120D01*
Y7047D02*
X3219Y7037D01*
X3299D01*
X3307Y6936D02*
X3499D01*
X3270Y6758D02*
Y6844D01*
X3307Y6936D02*
Y7030D01*
X4173Y7612D02*
X4290D01*
X4080D02*
X4173D01*
X4080Y7703D02*
X4173D01*
X4070Y7703D02*
Y7840D01*
X4170Y7838D02*
Y7900D01*
X4173Y7612D02*
Y7657D01*
X7053Y7880D02*
Y8004D01*
X7052Y7878D02*
X7053Y7880D01*
X6935Y7878D02*
X7052D01*
X6935D02*
Y8027D01*
X6817Y8115D02*
X6935D01*
X6702D02*
X6817D01*
X6698Y8111D02*
X6702Y8115D01*
X6691Y8104D02*
X6698Y8111D01*
X3508Y5989D02*
X3640D01*
X3504Y5905D02*
X3636D01*
X4528Y5111D02*
X4646D01*
X3538Y4250D02*
X3659D01*
X3973Y4199D02*
X3973Y4199D01*
X3506Y4224D02*
X3538D01*
X3484Y4246D02*
X3506Y4224D01*
X3484Y4246D02*
Y4266D01*
X3524Y4305D01*
X3187D02*
X3242D01*
X2638Y2106D02*
Y2189D01*
X2640Y2191D01*
X7101Y4828D02*
Y6026D01*
Y4828D02*
X7146Y4783D01*
Y4173D02*
Y4783D01*
X7106Y4134D02*
X7146Y4173D01*
Y2591D02*
Y4173D01*
X7094Y2539D02*
X7146Y2591D01*
X6565Y2539D02*
X7094D01*
X6496Y2608D02*
X6565Y2539D01*
X7213Y2943D02*
X7321D01*
X6852D02*
X7079D01*
X7213Y4199D02*
X7321D01*
X6852D02*
X7079D01*
X6358Y4266D02*
X6419D01*
X4258Y5506D02*
X4399D01*
X7053Y7880D02*
X7553D01*
X7638Y6811D02*
Y7795D01*
X7553Y7880D02*
X7638Y7795D01*
X7520Y6693D02*
X7638Y6811D01*
X7063Y6693D02*
X7520D01*
X6902Y6853D02*
X7063Y6693D01*
X4120Y6853D02*
X6902D01*
X4075Y5306D02*
X4399D01*
X7291Y6713D02*
X7390Y6811D01*
X7067Y6713D02*
X7291D01*
X4035Y5206D02*
X4399D01*
X4523Y5106D02*
X4528Y5111D01*
X4399Y5106D02*
X4523D01*
X4399Y5006D02*
X4659D01*
X4399Y6106D02*
X4559D01*
X4252Y6006D02*
X4399D01*
X6299Y5006D02*
X6457D01*
X6299Y5106D02*
X6457D01*
X6251Y5157D02*
X6299Y5206D01*
X4912Y5156D02*
X4913Y5157D01*
X6251D01*
X4035D02*
X4251Y5156D01*
X4912D01*
X3263Y5162D02*
Y6752D01*
Y5162D02*
X3268Y5157D01*
X6181Y5306D02*
X6299D01*
X7637Y4257D02*
X7717Y4178D01*
X7637Y4257D02*
Y4356D01*
X7717Y3487D02*
Y4178D01*
X7665Y3309D02*
X7717Y3258D01*
X7665Y3435D02*
X7717Y3487D01*
X7542Y2549D02*
X7717Y2724D01*
X7665Y3309D02*
Y3435D01*
X7717Y2724D02*
Y3258D01*
X7382Y5384D02*
X7402Y5404D01*
X7382Y4611D02*
X7637Y4356D01*
X7382Y4611D02*
Y5384D01*
X7279Y2638D02*
X7368Y2549D01*
X7542D01*
X3543Y2481D02*
Y2522D01*
Y2481D02*
X3543Y2480D01*
X2638Y2037D02*
Y2106D01*
X7620Y4250D02*
Y4349D01*
Y4250D02*
X7700Y4171D01*
X7362Y4606D02*
Y5787D01*
Y4606D02*
X7620Y4349D01*
X7700Y3861D02*
Y4171D01*
X7579Y3740D02*
X7700Y3861D01*
X7437Y3740D02*
X7579D01*
X7283Y5866D02*
X7362Y5787D01*
X7279Y3898D02*
X7437Y3740D01*
X6029Y6119D02*
Y6635D01*
X6181Y5966D02*
X6299D01*
X3605Y6698D02*
X5966D01*
X6029Y6635D01*
Y6119D02*
X6181Y5966D01*
X3494Y4096D02*
X3538D01*
X3455Y6548D02*
X3605Y6698D01*
X3455Y4486D02*
X3492Y4449D01*
X3455Y4486D02*
Y6548D01*
X3492Y4403D02*
Y4449D01*
X3455Y4366D02*
X3492Y4403D01*
X3455Y4136D02*
X3494Y4096D01*
X3455Y4136D02*
Y4366D01*
X6046Y6176D02*
X6156Y6066D01*
X6046Y6176D02*
Y6642D01*
X6156Y6066D02*
X6299D01*
X3598Y6715D02*
X5973D01*
X6046Y6642D01*
X3435Y4481D02*
X3475Y4442D01*
Y4410D02*
Y4442D01*
X3435Y4155D02*
Y4229D01*
X3435Y6552D02*
X3598Y6715D01*
X3408Y4343D02*
X3475Y4410D01*
X3435Y4481D02*
Y6552D01*
X3408Y4257D02*
Y4343D01*
Y4257D02*
X3435Y4229D01*
X3402Y4122D02*
X3435Y4155D01*
X3312Y4122D02*
X3402D01*
X6063Y6230D02*
Y6649D01*
X5980Y6732D02*
X6063Y6649D01*
Y6230D02*
X6127Y6166D01*
X3415Y6556D02*
X3591Y6732D01*
X5980D01*
X6127Y6166D02*
X6299D01*
X3415Y4459D02*
Y6556D01*
Y4459D02*
X3445Y4429D01*
X2633Y3681D02*
X2638Y3677D01*
Y3593D02*
Y3677D01*
X6181Y6266D02*
X6299D01*
X6181Y6366D02*
X6299D01*
X6302Y6663D02*
X6452D01*
X6135Y6749D02*
X6218Y6666D01*
X3584Y6749D02*
X6135D01*
X6218Y6666D02*
X6299D01*
X3405Y4173D02*
X3406Y4173D01*
X3404Y4175D02*
Y4237D01*
X3391Y4250D02*
X3404Y4237D01*
X3391Y6556D02*
X3584Y6749D01*
X3312Y4173D02*
X3405D01*
X3391Y4250D02*
Y6556D01*
X3317Y2598D02*
X3376D01*
X6304Y6762D02*
X6452D01*
X3577Y6766D02*
X6299D01*
X3374Y6563D02*
X3577Y6766D01*
X3374Y4224D02*
Y6563D01*
X3312Y4224D02*
X3374D01*
X7367Y6834D02*
Y6929D01*
Y6834D02*
X7390Y6811D01*
X3976Y6206D02*
X4399D01*
X4484Y7835D02*
Y7900D01*
X4048Y4055D02*
Y4199D01*
X3482Y2650D02*
X3543D01*
X3402Y2730D02*
X3482Y2650D01*
X3191Y2730D02*
X3402D01*
X6443Y7008D02*
X6762D01*
X6443Y8111D02*
X6698D01*
X3543Y2624D02*
X3978D01*
X3666Y2500D02*
Y2573D01*
X6909Y6870D02*
X7067Y6713D01*
X4094Y6870D02*
X6909D01*
X4078Y6811D02*
X4120Y6853D01*
X4075Y6811D02*
X4078D01*
X5965Y2343D02*
X6063Y2441D01*
X4449Y2257D02*
X4606Y2415D01*
X1949Y3784D02*
Y3913D01*
X2081Y3907D02*
X2121D01*
X2244Y3784D01*
X2106Y3767D02*
X2174D01*
X2244Y3696D01*
X2144Y3567D02*
Y3674D01*
X1949Y3784D02*
X1959D01*
X2069Y3674D01*
X1949Y3612D02*
Y3696D01*
X2256Y4323D02*
X2329Y4250D01*
Y4007D02*
Y4250D01*
Y3907D02*
X2459D01*
X2559Y4006D01*
X2256Y2565D02*
Y2748D01*
Y2565D02*
X2329Y2492D01*
Y2392D02*
X2524D01*
X2563Y2431D01*
X2081Y2392D02*
X2161Y2312D01*
X1831Y2377D02*
X1949D01*
X2207Y2120D01*
Y2080D02*
Y2120D01*
X2244Y2172D02*
Y2299D01*
X2281Y2080D02*
X2361D01*
X1831Y2465D02*
Y2480D01*
X1949Y2598D01*
X2362Y2213D02*
Y2283D01*
X2281Y3563D02*
X2352D01*
X2717Y4449D02*
X3130D01*
X2608Y4557D02*
X2717Y4449D01*
X2185Y4557D02*
X2608D01*
X2077Y4449D02*
X2185Y4557D01*
X1955Y4007D02*
X2077D01*
X1949Y4000D02*
X1955Y4007D01*
X1870Y3922D02*
X1949Y4000D01*
X1870Y3130D02*
Y3922D01*
X2077Y4007D02*
Y4449D01*
X1870Y3130D02*
X2081Y2919D01*
Y2492D02*
Y2919D01*
X1949Y2465D02*
X2054D01*
X2081Y2492D01*
X2461Y3760D02*
Y3906D01*
X1772Y1969D02*
X8858D01*
X1772D02*
Y8268D01*
X8858Y1969D02*
Y8268D01*
X1772D02*
X8858D01*
D46*
X3896Y5889D02*
Y6018D01*
X3947Y5856D02*
Y6170D01*
X3898Y5807D02*
X3947Y5856D01*
X3898Y5768D02*
Y5807D01*
X3858Y6108D02*
Y6201D01*
X3868Y6211D01*
X3906D01*
X3947Y6170D01*
X3746Y5551D02*
X3809D01*
X2864Y3243D02*
X2992D01*
X3160D01*
X2859Y4817D02*
X2992D01*
X3160D01*
X3642Y6388D02*
Y6447D01*
X2992Y3033D02*
X3160D01*
X2863Y3031D02*
X2991D01*
X2992Y4608D02*
X3160D01*
X2859Y4606D02*
X2991D01*
X3642Y5316D02*
X3700D01*
X3712Y5304D01*
X3780D01*
X3642Y5404D02*
X3780D01*
X3642D02*
Y5571D01*
X3868Y5738D02*
X3898Y5768D01*
X3799Y5738D02*
X3868D01*
X3642Y5571D02*
Y5738D01*
X9813Y3402D02*
X9880D01*
X9846D01*
Y3302D01*
X9963Y3402D02*
X9930D01*
X9913Y3385D01*
Y3319D01*
X9930Y3302D01*
X9963D01*
X9980Y3319D01*
Y3385D01*
X9963Y3402D01*
X10013Y3302D02*
Y3402D01*
X10063D01*
X10080Y3385D01*
Y3352D01*
X10063Y3335D01*
X10013D01*
D47*
X6079Y2866D02*
Y2982D01*
X5725Y2866D02*
Y2982D01*
X5371Y2866D02*
Y2982D01*
X5016Y2893D02*
X5044Y2866D01*
X5016Y2893D02*
Y2982D01*
X6075Y4441D02*
Y4557D01*
X5720Y4441D02*
Y4557D01*
X5366Y4441D02*
Y4557D01*
X5012Y4468D02*
X5039Y4441D01*
X5012Y4468D02*
Y4557D01*
X5371Y2685D02*
Y2736D01*
X5044Y2685D02*
Y2738D01*
X5725Y2685D02*
Y2738D01*
X5898Y2441D02*
X6024Y2566D01*
X6079D01*
X5544Y2441D02*
X5669Y2566D01*
X5725D01*
X5189Y2441D02*
X5315Y2566D01*
X5371D01*
X4831Y2441D02*
X4956Y2566D01*
X5044D01*
X6079Y2685D02*
Y2738D01*
X5185Y4016D02*
X5310Y4141D01*
X4831Y4016D02*
X4956Y4141D01*
X5894Y4016D02*
X6019Y4141D01*
X6075D01*
X5539Y4016D02*
X5665Y4141D01*
X5720D01*
X5310D02*
X5366D01*
X4956D02*
X5039D01*
X5720Y4259D02*
Y4312D01*
X5366Y4259D02*
Y4311D01*
X5039Y4259D02*
Y4312D01*
X6075Y4259D02*
Y4312D01*
X5044Y2747D02*
X5118D01*
X5135Y2731D01*
X5304D01*
X5321Y2747D01*
X5461D02*
X5478Y2731D01*
X5668D01*
X5685Y2747D01*
X5827D02*
X5844Y2731D01*
X5999D01*
X6016Y2747D01*
X6078D01*
X5321D02*
X5359D01*
X5371D01*
X5461D01*
X5685D02*
X5711D01*
X5725D01*
X5827D01*
X5039Y4322D02*
X5114D01*
X5131Y4305D01*
X5304D01*
X5321Y4322D01*
X5449D02*
X5465Y4305D01*
X5658D01*
X5675Y4322D01*
X5823D02*
X5839Y4306D01*
X5995D01*
X6012Y4322D01*
X6062D01*
X6063Y4321D01*
X5321Y4322D02*
X5366D01*
X5378D01*
X5449D01*
X5675D02*
X5720D01*
X5823D01*
D48*
X6181Y6366D02*
D03*
Y6266D02*
D03*
Y5306D02*
D03*
X7913Y7047D02*
D03*
D49*
X7620Y2972D02*
D03*
X7520Y3819D02*
D03*
X4823Y7205D02*
D03*
X4656Y6220D02*
D03*
X3780Y5304D02*
D03*
X2854Y3681D02*
D03*
X4824Y7736D02*
D03*
X6457Y5206D02*
D03*
Y5106D02*
D03*
X3504Y6831D02*
D03*
X7559Y5789D02*
D03*
X2854Y2106D02*
D03*
D50*
X7520Y2972D02*
D03*
X4723Y7205D02*
D03*
X4556Y6220D02*
D03*
X4724Y7736D02*
D03*
D51*
X8006Y2398D02*
D03*
Y2798D02*
D03*
X7606Y2398D02*
D03*
Y2798D02*
D03*
X2624Y5436D02*
D03*
Y5036D02*
D03*
X3024Y5436D02*
D03*
Y5036D02*
D03*
X3024Y5784D02*
D03*
Y6184D02*
D03*
X2624Y5784D02*
D03*
Y6184D02*
D03*
X2624Y7090D02*
D03*
Y6690D02*
D03*
X3024Y7090D02*
D03*
Y6690D02*
D03*
Y7438D02*
D03*
Y7838D02*
D03*
X2624Y7438D02*
D03*
Y7838D02*
D03*
X7606Y3546D02*
D03*
Y3146D02*
D03*
X8006Y3546D02*
D03*
Y3146D02*
D03*
X7606Y5239D02*
D03*
Y4839D02*
D03*
X8006Y5239D02*
D03*
Y4839D02*
D03*
X8006Y4091D02*
D03*
Y4491D02*
D03*
X7606Y4091D02*
D03*
Y4491D02*
D03*
D52*
X7756Y2598D02*
D03*
X2874Y5236D02*
D03*
X2874Y5984D02*
D03*
X2874Y6890D02*
D03*
Y7638D02*
D03*
X7756Y3346D02*
D03*
X1969Y2165D02*
D03*
X8661D02*
D03*
Y8075D02*
D03*
X1969Y8071D02*
D03*
X7756Y5039D02*
D03*
X7756Y4291D02*
D03*
D53*
X7520Y3919D02*
D03*
X3780Y5404D02*
D03*
X2854Y3781D02*
D03*
X6457Y5006D02*
D03*
X3504Y6931D02*
D03*
X7559Y5689D02*
D03*
X2854Y2206D02*
D03*
D54*
X2863Y3031D02*
D03*
Y2931D02*
D03*
Y2531D02*
D03*
Y2431D02*
D03*
X2563D02*
D03*
Y2531D02*
D03*
Y2931D02*
D03*
X2559Y4506D02*
D03*
Y4106D02*
D03*
Y4006D02*
D03*
X2859D02*
D03*
Y4106D02*
D03*
Y4506D02*
D03*
Y4606D02*
D03*
X6299Y6766D02*
D03*
Y6666D02*
D03*
Y6566D02*
D03*
Y6466D02*
D03*
Y6366D02*
D03*
Y6266D02*
D03*
Y6166D02*
D03*
Y6066D02*
D03*
Y5966D02*
D03*
Y5706D02*
D03*
Y5606D02*
D03*
Y5506D02*
D03*
Y5406D02*
D03*
Y5306D02*
D03*
Y5206D02*
D03*
Y5106D02*
D03*
X4399Y5706D02*
D03*
Y5806D02*
D03*
Y5906D02*
D03*
Y6006D02*
D03*
Y6106D02*
D03*
Y6206D02*
D03*
Y6306D02*
D03*
Y5006D02*
D03*
Y5106D02*
D03*
Y5206D02*
D03*
Y5306D02*
D03*
Y5406D02*
D03*
X6181Y2185D02*
D03*
X5809Y2187D02*
D03*
X5453Y2185D02*
D03*
X5098D02*
D03*
X6339Y7014D02*
D03*
X5787Y7014D02*
D03*
X5239Y7008D02*
D03*
X4869Y7362D02*
D03*
X5787Y8104D02*
D03*
X5236Y8104D02*
D03*
X4870Y7874D02*
D03*
X6358Y3238D02*
D03*
X6352Y4813D02*
D03*
X6566Y3238D02*
D03*
X6565Y4813D02*
D03*
X2864Y3243D02*
D03*
X2859Y4817D02*
D03*
X8504Y5856D02*
D03*
X4921Y3593D02*
D03*
X5276Y3593D02*
D03*
X5630Y3593D02*
D03*
X5984Y3593D02*
D03*
X4606Y3740D02*
D03*
X5989Y3425D02*
D03*
X5634Y3421D02*
D03*
X5280D02*
D03*
X4921D02*
D03*
X4606Y3268D02*
D03*
X4921Y5000D02*
D03*
X5276Y5006D02*
D03*
X5630Y5000D02*
D03*
X5984D02*
D03*
X4606Y4839D02*
D03*
X6437Y7014D02*
D03*
X6437Y8104D02*
D03*
Y7722D02*
D03*
X6437Y7396D02*
D03*
X4606Y2343D02*
D03*
D55*
X2563Y3031D02*
D03*
X2559Y4606D02*
D03*
X6299Y5866D02*
D03*
Y5006D02*
D03*
X4399Y6406D02*
D03*
Y5506D02*
D03*
D56*
X2497Y6437D02*
D03*
X2954D02*
D03*
D57*
X2607D02*
D03*
X2725D02*
D03*
D58*
X2843D02*
D03*
D59*
X1949Y4173D02*
D03*
Y4472D02*
D03*
Y2898D02*
D03*
Y2598D02*
D03*
D60*
X2256Y4323D02*
D03*
Y2748D02*
D03*
D61*
X7087Y4301D02*
D03*
Y3041D02*
D03*
D62*
X6850Y4201D02*
D03*
Y3720D02*
D03*
X7323D02*
D03*
Y4201D02*
D03*
X6850Y2941D02*
D03*
Y2461D02*
D03*
X7323D02*
D03*
Y2941D02*
D03*
D63*
X3209Y7711D02*
D03*
X3504D02*
D03*
X3209Y7120D02*
D03*
Y7907D02*
D03*
X3504D02*
D03*
X3209Y8104D02*
D03*
X3504D02*
D03*
D64*
Y7120D02*
D03*
D65*
X8631Y7500D02*
D03*
X3828D02*
D03*
X8631Y4666D02*
D03*
X3828D02*
D03*
D66*
X6079Y2746D02*
D03*
X5725D02*
D03*
X5371D02*
D03*
X5044Y2747D02*
D03*
X6075Y4321D02*
D03*
X5720Y4322D02*
D03*
X5366Y4321D02*
D03*
X5039D02*
D03*
X4941Y4350D02*
D03*
X6348Y2687D02*
D03*
X6535Y4941D02*
D03*
X3937Y2736D02*
D03*
X4055Y4311D02*
D03*
X6888Y6122D02*
D03*
X3051Y4225D02*
D03*
X2894Y4331D02*
D03*
X2894Y4281D02*
D03*
X3858Y5955D02*
D03*
X3809Y5551D02*
D03*
X4414Y2726D02*
D03*
X3194Y2589D02*
D03*
X3031Y2638D02*
D03*
X3207Y4169D02*
D03*
X3793Y4148D02*
D03*
X4272Y4252D02*
D03*
X3327Y4449D02*
D03*
X3130D02*
D03*
X6762Y7146D02*
D03*
X3563Y6201D02*
D03*
X4449Y4245D02*
D03*
X3661Y4317D02*
D03*
X7480Y6979D02*
D03*
X3937Y4291D02*
D03*
X3661Y4075D02*
D03*
X4350Y4472D02*
D03*
X4595Y7002D02*
D03*
X6535Y4238D02*
D03*
X6703Y4306D02*
D03*
X6371Y4173D02*
D03*
X6309Y4306D02*
D03*
X6575Y4262D02*
D03*
X6850Y3421D02*
D03*
X6319Y2742D02*
D03*
X6540Y2657D02*
D03*
X6575Y2687D02*
D03*
X6713Y2740D02*
D03*
X6370Y2608D02*
D03*
X7411Y2749D02*
D03*
X2318Y3106D02*
D03*
X4261Y2677D02*
D03*
X3819Y2740D02*
D03*
X3789Y2573D02*
D03*
X3612Y2531D02*
D03*
X3445Y2549D02*
D03*
X3258Y2624D02*
D03*
X3066Y2347D02*
D03*
X2904Y2756D02*
D03*
X3327Y2874D02*
D03*
X3740Y3396D02*
D03*
X3819Y4317D02*
D03*
X3602Y4101D02*
D03*
X3258Y4199D02*
D03*
X3066Y3922D02*
D03*
X2318Y4685D02*
D03*
X4460Y5198D02*
D03*
X4862Y5279D02*
D03*
X3896Y6171D02*
D03*
X4369Y7701D02*
D03*
X6697Y7973D02*
D03*
X6935Y7707D02*
D03*
X7195Y6811D02*
D03*
X7559Y6979D02*
D03*
X7093Y7093D02*
D03*
X6988Y7411D02*
D03*
X6501Y6250D02*
D03*
X7337Y6100D02*
D03*
X3543Y5073D02*
D03*
X6439Y6102D02*
D03*
X7204Y6166D02*
D03*
X3193Y2940D02*
D03*
X3036Y2825D02*
D03*
X3666Y2740D02*
D03*
X4138Y2740D02*
D03*
X3642Y6447D02*
D03*
X5650Y2776D02*
D03*
Y2982D02*
D03*
X5285Y2776D02*
D03*
Y2982D02*
D03*
X4941Y2776D02*
D03*
Y2982D02*
D03*
X5637Y2670D02*
D03*
X5640Y2441D02*
D03*
X5282Y2444D02*
D03*
Y2670D02*
D03*
X4938Y2444D02*
D03*
Y2670D02*
D03*
X5640Y4350D02*
D03*
Y4557D02*
D03*
X5285Y4350D02*
D03*
Y4557D02*
D03*
X4941D02*
D03*
X5643Y4023D02*
D03*
Y4245D02*
D03*
X5288Y4023D02*
D03*
Y4245D02*
D03*
X4934Y4023D02*
D03*
Y4245D02*
D03*
X7283Y6988D02*
D03*
X7172Y6946D02*
D03*
X4173Y7835D02*
D03*
Y7657D02*
D03*
X3524Y4305D02*
D03*
X3242D02*
D03*
X6358Y4266D02*
D03*
X4075Y5306D02*
D03*
X4035Y5206D02*
D03*
Y5157D02*
D03*
X3268D02*
D03*
X7402Y5404D02*
D03*
X3543Y2480D02*
D03*
X2638Y2037D02*
D03*
X7283Y5866D02*
D03*
X3445Y4429D02*
D03*
X2638Y3593D02*
D03*
X3405Y4173D02*
D03*
X3376Y2598D02*
D03*
X3374Y4224D02*
D03*
X3374Y2650D02*
D03*
X3976Y6206D02*
D03*
X4484Y7835D02*
D03*
X3666Y2500D02*
D03*
X4094Y6870D02*
D03*
X4075Y6811D02*
D03*
X4449Y7185D02*
D03*
X3163Y7953D02*
D03*
X3976Y7900D02*
D03*
X3927D02*
D03*
X4291D02*
D03*
X5039Y8140D02*
D03*
X4301Y7224D02*
D03*
X4252D02*
D03*
X3120Y7972D02*
D03*
X4449Y7136D02*
D03*
X4232Y7900D02*
D03*
X1949Y3612D02*
D03*
X2362Y2283D02*
D03*
X2352Y3563D02*
D03*
M02*
