G04*
G04 #@! TF.GenerationSoftware,Altium Limited,CircuitStudio,1.5.1 (13)*
G04*
G04 Layer_Color=128*
%FSLAX23Y23*%
%MOIN*%
G70*
G01*
G75*
%ADD48C,0.010*%
%ADD77C,0.005*%
D48*
X1772Y1969D02*
X8858D01*
X1772D02*
Y8268D01*
X8858Y1969D02*
Y8268D01*
X1772D02*
X8858D01*
D77*
X7297Y2941D02*
X7348D01*
X7323Y2915D02*
Y2967D01*
X7297Y2461D02*
X7348D01*
X7323Y2435D02*
Y2486D01*
X6825Y2461D02*
X6876D01*
X6850Y2435D02*
Y2486D01*
X6825Y2941D02*
X6876D01*
X6850Y2915D02*
Y2967D01*
X7061Y3041D02*
X7112D01*
X7087Y3016D02*
Y3067D01*
X7061Y4301D02*
X7112D01*
X7087Y4276D02*
Y4327D01*
X6825Y4201D02*
X6876D01*
X6850Y4175D02*
Y4226D01*
X6825Y3720D02*
X6876D01*
X6850Y3695D02*
Y3746D01*
X7297Y3720D02*
X7348D01*
X7323Y3695D02*
Y3746D01*
X7297Y4201D02*
X7348D01*
X7323Y4175D02*
Y4226D01*
X6171Y6366D02*
X6191D01*
X6181Y6356D02*
Y6376D01*
X6171Y6266D02*
X6191D01*
X6181Y6256D02*
Y6276D01*
X6447Y5315D02*
X6467D01*
X6457Y5305D02*
Y5325D01*
X7602Y2972D02*
X7637D01*
X7620Y2955D02*
Y2990D01*
X7502Y2972D02*
X7537D01*
X7520Y2955D02*
Y2990D01*
X7981Y2398D02*
X8032D01*
X8006Y2373D02*
Y2424D01*
X7981Y2798D02*
X8032D01*
X8006Y2773D02*
Y2824D01*
X7581Y2398D02*
X7632D01*
X7606Y2373D02*
Y2424D01*
X7581Y2798D02*
X7632D01*
X7606Y2773D02*
Y2824D01*
X7713Y2598D02*
X7799D01*
X7756Y2555D02*
Y2642D01*
X7502Y3819D02*
X7537D01*
X7520Y3801D02*
Y3837D01*
X7502Y3919D02*
X7537D01*
X7520Y3901D02*
Y3937D01*
X4805Y7205D02*
X4841D01*
X4823Y7187D02*
Y7222D01*
X4705Y7205D02*
X4741D01*
X4723Y7187D02*
Y7222D01*
X4538Y6220D02*
X4573D01*
X4556Y6203D02*
Y6238D01*
X4638Y6220D02*
X4673D01*
X4656Y6203D02*
Y6238D01*
X3762Y5404D02*
X3797D01*
X3780Y5386D02*
Y5421D01*
X3762Y5304D02*
X3797D01*
X3780Y5286D02*
Y5321D01*
X2848Y3031D02*
X2878D01*
X2863Y3016D02*
Y3046D01*
X2848Y2931D02*
X2878D01*
X2863Y2916D02*
Y2946D01*
X2848Y2531D02*
X2878D01*
X2863Y2516D02*
Y2546D01*
X2848Y2431D02*
X2878D01*
X2863Y2416D02*
Y2446D01*
X2548Y2431D02*
X2578D01*
X2563Y2416D02*
Y2446D01*
X2548Y2531D02*
X2578D01*
X2563Y2516D02*
Y2546D01*
X2548Y2931D02*
X2578D01*
X2563Y2916D02*
Y2946D01*
X2548Y3031D02*
X2578D01*
X2563Y3016D02*
Y3046D01*
X2837Y3681D02*
X2872D01*
X2854Y3663D02*
Y3699D01*
X2837Y3781D02*
X2872D01*
X2854Y3763D02*
Y3799D01*
X2544Y4606D02*
X2574D01*
X2559Y4591D02*
Y4621D01*
X2544Y4506D02*
X2574D01*
X2559Y4491D02*
Y4521D01*
X2544Y4106D02*
X2574D01*
X2559Y4091D02*
Y4121D01*
X2544Y4006D02*
X2574D01*
X2559Y3991D02*
Y4021D01*
X2844Y4006D02*
X2874D01*
X2859Y3991D02*
Y4021D01*
X2844Y4106D02*
X2874D01*
X2859Y4091D02*
Y4121D01*
X2844Y4506D02*
X2874D01*
X2859Y4491D02*
Y4521D01*
X2844Y4606D02*
X2874D01*
X2859Y4591D02*
Y4621D01*
X2598Y5436D02*
X2649D01*
X2624Y5411D02*
Y5462D01*
X2598Y5036D02*
X2649D01*
X2624Y5011D02*
Y5062D01*
X2998Y5436D02*
X3049D01*
X3024Y5411D02*
Y5462D01*
X2998Y5036D02*
X3049D01*
X3024Y5011D02*
Y5062D01*
X2831Y5236D02*
X2917D01*
X2874Y5193D02*
Y5280D01*
X2831Y5984D02*
X2917D01*
X2874Y5941D02*
Y6028D01*
X2998Y5784D02*
X3049D01*
X3024Y5759D02*
Y5810D01*
X2998Y6184D02*
X3049D01*
X3024Y6159D02*
Y6210D01*
X2598Y5784D02*
X2649D01*
X2624Y5759D02*
Y5810D01*
X2598Y6184D02*
X2649D01*
X2624Y6159D02*
Y6210D01*
X2598Y7090D02*
X2649D01*
X2624Y7064D02*
Y7115D01*
X2598Y6690D02*
X2649D01*
X2624Y6664D02*
Y6715D01*
X2998Y7090D02*
X3049D01*
X3024Y7064D02*
Y7115D01*
X2998Y6690D02*
X3049D01*
X3024Y6664D02*
Y6715D01*
X2831Y6890D02*
X2917D01*
X2874Y6846D02*
Y6933D01*
X2831Y7638D02*
X2917D01*
X2874Y7594D02*
Y7681D01*
X2998Y7438D02*
X3049D01*
X3024Y7412D02*
Y7463D01*
X2998Y7838D02*
X3049D01*
X3024Y7812D02*
Y7863D01*
X2598Y7438D02*
X2649D01*
X2624Y7412D02*
Y7463D01*
X2598Y7838D02*
X2649D01*
X2624Y7812D02*
Y7863D01*
X4807Y7736D02*
X4842D01*
X4824Y7719D02*
Y7754D01*
X4707Y7736D02*
X4742D01*
X4724Y7719D02*
Y7754D01*
X2466Y6437D02*
X2528D01*
X2497Y6406D02*
Y6468D01*
X2922Y6437D02*
X2985D01*
X2954Y6406D02*
Y6468D01*
X2587Y6437D02*
X2627D01*
X2607Y6417D02*
Y6457D01*
X2705Y6437D02*
X2745D01*
X2725Y6417D02*
Y6457D01*
X2824Y6437D02*
X2863D01*
X2843Y6417D02*
Y6457D01*
X7713Y3346D02*
X7799D01*
X7756Y3303D02*
Y3390D01*
X7581Y3546D02*
X7632D01*
X7606Y3521D02*
Y3572D01*
X7581Y3146D02*
X7632D01*
X7606Y3121D02*
Y3172D01*
X7981Y3546D02*
X8032D01*
X8006Y3521D02*
Y3572D01*
X7981Y3146D02*
X8032D01*
X8006Y3121D02*
Y3172D01*
X1904Y2165D02*
X2033D01*
X1969Y2100D02*
Y2230D01*
X8596Y2165D02*
X8726D01*
X8661Y2100D02*
Y2230D01*
X8596Y8075D02*
X8726D01*
X8661Y8010D02*
Y8140D01*
X1904Y8071D02*
X2033D01*
X1969Y8006D02*
Y8136D01*
X1913Y4173D02*
X1984D01*
X1949Y4138D02*
Y4209D01*
X1913Y4472D02*
X1984D01*
X1949Y4437D02*
Y4508D01*
X2238Y4323D02*
X2274D01*
X2256Y4305D02*
Y4341D01*
X2238Y2748D02*
X2274D01*
X2256Y2730D02*
Y2766D01*
X1913Y2898D02*
X1984D01*
X1949Y2862D02*
Y2933D01*
X1913Y2598D02*
X1984D01*
X1949Y2563D02*
Y2634D01*
X3486Y6831D02*
X3522D01*
X3504Y6813D02*
Y6848D01*
X3486Y6931D02*
X3522D01*
X3504Y6913D02*
Y6948D01*
X7713Y5039D02*
X7799D01*
X7756Y4996D02*
Y5083D01*
X7581Y5239D02*
X7632D01*
X7606Y5214D02*
Y5265D01*
X7581Y4839D02*
X7632D01*
X7606Y4814D02*
Y4865D01*
X7981Y5239D02*
X8032D01*
X8006Y5214D02*
Y5265D01*
X7981Y4839D02*
X8032D01*
X8006Y4814D02*
Y4865D01*
X7981Y4091D02*
X8032D01*
X8006Y4066D02*
Y4117D01*
X7981Y4491D02*
X8032D01*
X8006Y4466D02*
Y4517D01*
X7581Y4091D02*
X7632D01*
X7606Y4066D02*
Y4117D01*
X7581Y4491D02*
X7632D01*
X7606Y4466D02*
Y4517D01*
X7713Y4291D02*
X7799D01*
X7756Y4248D02*
Y4335D01*
X2837Y2206D02*
X2872D01*
X2854Y2189D02*
Y2224D01*
X2837Y2106D02*
X2872D01*
X2854Y2089D02*
Y2124D01*
X4382Y5506D02*
X4417D01*
X4399Y5489D02*
Y5524D01*
X4382Y5406D02*
X4417D01*
X4399Y5389D02*
Y5424D01*
X4382Y5306D02*
X4417D01*
X4399Y5289D02*
Y5324D01*
X4382Y5206D02*
X4417D01*
X4399Y5189D02*
Y5224D01*
X4382Y5106D02*
X4417D01*
X4399Y5089D02*
Y5124D01*
X4382Y5006D02*
X4417D01*
X4399Y4989D02*
Y5024D01*
X4382Y6406D02*
X4417D01*
X4399Y6389D02*
Y6424D01*
X4382Y6306D02*
X4417D01*
X4399Y6289D02*
Y6324D01*
X4382Y6206D02*
X4417D01*
X4399Y6189D02*
Y6224D01*
X4382Y6106D02*
X4417D01*
X4399Y6089D02*
Y6124D01*
X4382Y6006D02*
X4417D01*
X4399Y5989D02*
Y6024D01*
X4382Y5906D02*
X4417D01*
X4399Y5889D02*
Y5924D01*
X4382Y5806D02*
X4417D01*
X4399Y5789D02*
Y5824D01*
X4382Y5706D02*
X4417D01*
X4399Y5689D02*
Y5724D01*
X6282Y5006D02*
X6317D01*
X6299Y4989D02*
Y5024D01*
X6282Y5106D02*
X6317D01*
X6299Y5089D02*
Y5124D01*
X6282Y5206D02*
X6317D01*
X6299Y5189D02*
Y5224D01*
X6282Y5306D02*
X6317D01*
X6299Y5289D02*
Y5324D01*
X6282Y5406D02*
X6317D01*
X6299Y5389D02*
Y5424D01*
X6282Y5506D02*
X6317D01*
X6299Y5489D02*
Y5524D01*
X6282Y5606D02*
X6317D01*
X6299Y5589D02*
Y5624D01*
X6282Y5706D02*
X6317D01*
X6299Y5689D02*
Y5724D01*
X6282Y5866D02*
X6317D01*
X6299Y5849D02*
Y5884D01*
X6282Y5966D02*
X6317D01*
X6299Y5949D02*
Y5984D01*
X6282Y6066D02*
X6317D01*
X6299Y6049D02*
Y6084D01*
X6282Y6166D02*
X6317D01*
X6299Y6149D02*
Y6184D01*
X6282Y6266D02*
X6317D01*
X6299Y6249D02*
Y6284D01*
X6282Y6366D02*
X6317D01*
X6299Y6349D02*
Y6384D01*
X6282Y6466D02*
X6317D01*
X6299Y6449D02*
Y6484D01*
X6282Y6566D02*
X6317D01*
X6299Y6549D02*
Y6584D01*
X6282Y6666D02*
X6317D01*
X6299Y6649D02*
Y6684D01*
X6282Y6766D02*
X6317D01*
X6299Y6749D02*
Y6784D01*
X3825Y4666D02*
X3950D01*
X3887Y4603D02*
Y4728D01*
X8628Y4666D02*
X8753D01*
X8691Y4603D02*
Y4728D01*
X3825Y7500D02*
X3950D01*
X3887Y7438D02*
Y7563D01*
X8628Y7500D02*
X8753D01*
X8691Y7438D02*
Y7563D01*
X6439Y5206D02*
X6474D01*
X6457Y5188D02*
Y5224D01*
X6439Y5006D02*
X6474D01*
X6457Y4988D02*
Y5024D01*
X6439Y5106D02*
X6474D01*
X6457Y5088D02*
Y5124D01*
X8486Y6161D02*
X8522D01*
X8504Y6144D02*
Y6179D01*
X8386Y6161D02*
X8422D01*
X8404Y6144D02*
Y6179D01*
X8171Y6161D02*
X8207D01*
X8189Y6144D02*
Y6179D01*
X8071Y6161D02*
X8107D01*
X8089Y6144D02*
Y6179D01*
X7858Y6161D02*
X7893D01*
X7876Y6144D02*
Y6179D01*
X7758Y6161D02*
X7793D01*
X7776Y6144D02*
Y6179D01*
X7640Y5687D02*
X7675D01*
X7657Y5670D02*
Y5705D01*
X7640Y5787D02*
X7675D01*
X7657Y5770D02*
Y5805D01*
X3183Y7711D02*
X3234D01*
X3209Y7685D02*
Y7736D01*
X3478Y7711D02*
X3529D01*
X3504Y7685D02*
Y7736D01*
X3183Y7120D02*
X3234D01*
X3209Y7094D02*
Y7146D01*
X3478Y7120D02*
X3529D01*
X3504Y7094D02*
Y7146D01*
X3183Y7907D02*
X3234D01*
X3209Y7882D02*
Y7933D01*
X3478Y7907D02*
X3529D01*
X3504Y7882D02*
Y7933D01*
X3183Y8104D02*
X3234D01*
X3209Y8079D02*
Y8130D01*
X3478Y8104D02*
X3529D01*
X3504Y8079D02*
Y8130D01*
X4668Y5000D02*
X4683D01*
X4675Y4992D02*
Y5008D01*
X3888Y6191D02*
X3903D01*
X3896Y6183D02*
Y6198D01*
X3979Y6206D02*
X3994D01*
X3986Y6199D02*
Y6214D01*
X4530Y2638D02*
X4545D01*
X4537Y2630D02*
Y2645D01*
X4530Y2067D02*
X4545D01*
X4537Y2059D02*
Y2074D01*
X4048Y4114D02*
X4063D01*
X4055Y4107D02*
Y4122D01*
X4372Y3543D02*
X4387D01*
X4380Y3536D02*
Y3551D01*
X4441Y2455D02*
X4456D01*
X4449Y2447D02*
Y2462D01*
X4067Y4380D02*
X4082D01*
X4075Y4372D02*
Y4387D01*
X4097Y2943D02*
X4112D01*
X4104Y2935D02*
Y2950D01*
X4668Y3583D02*
X4683D01*
X4675Y3575D02*
Y3590D01*
X4046Y2665D02*
X4061D01*
X4053Y2658D02*
Y2673D01*
X3895Y2774D02*
X3910D01*
X3902Y2766D02*
Y2781D01*
X4431Y4266D02*
X4446D01*
X4439Y4258D02*
Y4273D01*
X4431Y4445D02*
X4446D01*
X4439Y4437D02*
Y4452D01*
X4540Y3327D02*
X4555D01*
X4547Y3319D02*
Y3334D01*
X4264Y4321D02*
X4279D01*
X4272Y4313D02*
Y4328D01*
X4235Y2874D02*
X4250D01*
X4242Y2866D02*
Y2881D01*
X4353Y2116D02*
X4368D01*
X4360Y2109D02*
Y2124D01*
X4353Y2579D02*
X4368D01*
X4360Y2571D02*
Y2586D01*
X3831Y2559D02*
X3846D01*
X3839Y2551D02*
Y2566D01*
X4161Y2461D02*
X4176D01*
X4169Y2453D02*
Y2468D01*
X6060Y4557D02*
X6090D01*
X6075Y4542D02*
Y4572D01*
X5705Y4557D02*
X5735D01*
X5720Y4542D02*
Y4572D01*
X5351Y4557D02*
X5381D01*
X5366Y4542D02*
Y4572D01*
X4997Y4557D02*
X5027D01*
X5012Y4542D02*
Y4572D01*
X6064Y2982D02*
X6094D01*
X6079Y2967D02*
Y2997D01*
X5710Y2982D02*
X5740D01*
X5725Y2967D02*
Y2997D01*
X5356Y2982D02*
X5386D01*
X5371Y2967D02*
Y2997D01*
X5001Y2982D02*
X5031D01*
X5016Y2967D02*
Y2997D01*
X5883Y2441D02*
X5913D01*
X5898Y2426D02*
Y2456D01*
X5529Y2441D02*
X5559D01*
X5544Y2426D02*
Y2456D01*
X5174Y2441D02*
X5204D01*
X5189Y2426D02*
Y2456D01*
X4816Y2441D02*
X4846D01*
X4831Y2426D02*
Y2456D01*
X5879Y4016D02*
X5909D01*
X5894Y4001D02*
Y4031D01*
X5524Y4016D02*
X5554D01*
X5539Y4001D02*
Y4031D01*
X5170Y4016D02*
X5200D01*
X5185Y4001D02*
Y4031D01*
X3409Y2885D02*
X3424D01*
X3416Y2877D02*
Y2892D01*
X3260Y2952D02*
X3275D01*
X3267Y2945D02*
Y2960D01*
X3556Y2185D02*
X3571D01*
X3563Y2178D02*
Y2193D01*
X3733Y3543D02*
X3748D01*
X3740Y3536D02*
Y3551D01*
X3713Y3248D02*
X3728D01*
X3720Y3241D02*
Y3256D01*
X4249Y3705D02*
X4264D01*
X4256Y3698D02*
Y3713D01*
X3831Y3878D02*
X3846D01*
X3839Y3870D02*
Y3885D01*
X3300Y3849D02*
X3315D01*
X3307Y3842D02*
Y3857D01*
X3728Y3480D02*
X3743D01*
X3736Y3472D02*
Y3487D01*
X3728Y2161D02*
X3743D01*
X3736Y2153D02*
Y2168D01*
X4249Y2386D02*
X4264D01*
X4256Y2379D02*
Y2394D01*
X3370Y2550D02*
X3385D01*
X3377Y2543D02*
Y2558D01*
X4173Y3898D02*
X4188D01*
X4180Y3890D02*
Y3905D01*
X2926Y3406D02*
X2941D01*
X2933Y3398D02*
Y3413D01*
X3658Y2543D02*
X3673D01*
X3666Y2536D02*
Y2551D01*
X3658Y2839D02*
X3673D01*
X3666Y2831D02*
Y2846D01*
X3241Y2618D02*
X3256D01*
X3248Y2611D02*
Y2626D01*
X3248Y4122D02*
X3263D01*
X3256Y4115D02*
Y4130D01*
X2505Y2218D02*
X2520D01*
X2513Y2210D02*
Y2225D01*
X2374Y2008D02*
X2389D01*
X2382Y2000D02*
Y2015D01*
X3367Y2748D02*
X3382D01*
X3374Y2741D02*
Y2756D01*
X2237Y3583D02*
X2252D01*
X2244Y3575D02*
Y3590D01*
X6902Y3681D02*
X6917D01*
X6909Y3674D02*
Y3689D01*
X7217Y2842D02*
X7245D01*
X7231Y2828D02*
Y2856D01*
X7237Y4101D02*
X7252D01*
X7244Y4094D02*
Y4109D01*
X7468Y7343D02*
X7483D01*
X7475Y7335D02*
Y7350D01*
X3969Y2913D02*
X3984D01*
X3976Y2906D02*
Y2921D01*
X3609Y2722D02*
X3624D01*
X3616Y2715D02*
Y2730D01*
X7178Y7323D02*
X7193D01*
X7185Y7315D02*
Y7330D01*
X7335Y7205D02*
X7350D01*
X7343Y7197D02*
Y7212D01*
X7276Y6811D02*
X7291D01*
X7283Y6804D02*
Y6819D01*
X4028Y5206D02*
X4043D01*
X4035Y5199D02*
Y5214D01*
X4087Y6870D02*
X4102D01*
X4094Y6863D02*
Y6878D01*
X6324Y7014D02*
X6354D01*
X6339Y6999D02*
Y7029D01*
X5772Y7014D02*
X5802D01*
X5787Y6999D02*
Y7029D01*
X5224Y7008D02*
X5254D01*
X5239Y6993D02*
Y7023D01*
X4854Y7362D02*
X4884D01*
X4869Y7347D02*
Y7377D01*
X5772Y8104D02*
X5802D01*
X5787Y8089D02*
Y8119D01*
X5221Y8104D02*
X5251D01*
X5236Y8089D02*
Y8119D01*
X4855Y7874D02*
X4885D01*
X4870Y7859D02*
Y7889D01*
X6881Y6122D02*
X6896D01*
X6888Y6115D02*
Y6130D01*
X3044Y4225D02*
X3059D01*
X3051Y4217D02*
Y4232D01*
X2886Y4331D02*
X2901D01*
X2894Y4323D02*
Y4338D01*
X2886Y4281D02*
X2901D01*
X2894Y4274D02*
Y4289D01*
X3851Y5955D02*
X3866D01*
X3858Y5947D02*
Y5962D01*
X3802Y5551D02*
X3817D01*
X3809Y5544D02*
Y5559D01*
X3186Y2687D02*
X3201D01*
X3194Y2680D02*
Y2695D01*
X3024Y2736D02*
X3039D01*
X3031Y2729D02*
Y2744D01*
X3200Y4169D02*
X3215D01*
X3207Y4161D02*
Y4176D01*
X3786Y4148D02*
X3801D01*
X3793Y4140D02*
Y4155D01*
X3319Y4449D02*
X3334D01*
X3327Y4441D02*
Y4456D01*
X3122Y4449D02*
X3137D01*
X3130Y4441D02*
Y4456D01*
X6754Y7146D02*
X6769D01*
X6762Y7138D02*
Y7153D01*
X3555Y6201D02*
X3570D01*
X3563Y6193D02*
Y6208D01*
X3654Y4317D02*
X3669D01*
X3661Y4309D02*
Y4324D01*
X7473Y7126D02*
X7488D01*
X7480Y7118D02*
Y7133D01*
X3930Y4291D02*
X3945D01*
X3937Y4284D02*
Y4299D01*
X3654Y4075D02*
X3669D01*
X3661Y4068D02*
Y4083D01*
X4588Y7002D02*
X4603D01*
X4595Y6995D02*
Y7010D01*
X7404Y2749D02*
X7419D01*
X7411Y2742D02*
Y2757D01*
X2311Y3106D02*
X2326D01*
X2318Y3098D02*
Y3113D01*
X3811Y2839D02*
X3826D01*
X3819Y2831D02*
Y2846D01*
X3782Y2671D02*
X3797D01*
X3789Y2664D02*
Y2679D01*
X3605Y2630D02*
X3620D01*
X3612Y2622D02*
Y2637D01*
X3250Y2722D02*
X3265D01*
X3258Y2715D02*
Y2730D01*
X3059Y2445D02*
X3074D01*
X3066Y2438D02*
Y2453D01*
X2896Y2854D02*
X2911D01*
X2904Y2847D02*
Y2862D01*
X3811Y4317D02*
X3826D01*
X3819Y4309D02*
Y4324D01*
X3595Y4101D02*
X3610D01*
X3602Y4094D02*
Y4109D01*
X3250Y4199D02*
X3265D01*
X3258Y4191D02*
Y4206D01*
X3059Y3922D02*
X3074D01*
X3066Y3915D02*
Y3930D01*
X2311Y4685D02*
X2326D01*
X2318Y4678D02*
Y4693D01*
X2849Y3243D02*
X2879D01*
X2864Y3228D02*
Y3258D01*
X2844Y4817D02*
X2874D01*
X2859Y4802D02*
Y4832D01*
X4361Y7701D02*
X4376D01*
X4369Y7694D02*
Y7709D01*
X6690Y7973D02*
X6705D01*
X6697Y7965D02*
Y7980D01*
X6928Y7707D02*
X6943D01*
X6935Y7699D02*
Y7714D01*
X7552Y7126D02*
X7567D01*
X7559Y7118D02*
Y7133D01*
X6981Y7411D02*
X6996D01*
X6988Y7404D02*
Y7419D01*
X6493Y6250D02*
X6508D01*
X6501Y6242D02*
Y6257D01*
X7329Y6100D02*
X7344D01*
X7337Y6093D02*
Y6108D01*
X3535Y5073D02*
X3550D01*
X3543Y5066D02*
Y5081D01*
X6431Y6102D02*
X6446D01*
X6439Y6095D02*
Y6110D01*
X7197Y6166D02*
X7212D01*
X7204Y6158D02*
Y6173D01*
X3029Y2923D02*
X3044D01*
X3036Y2916D02*
Y2931D01*
X3634Y6447D02*
X3649D01*
X3642Y6439D02*
Y6454D01*
X4166Y7835D02*
X4181D01*
X4173Y7827D02*
Y7842D01*
X4166Y7657D02*
X4181D01*
X4173Y7650D02*
Y7665D01*
X3516Y4305D02*
X3531D01*
X3524Y4298D02*
Y4313D01*
X3235Y4305D02*
X3250D01*
X3242Y4298D02*
Y4313D01*
X4067Y5306D02*
X4082D01*
X4075Y5299D02*
Y5314D01*
X4028Y5157D02*
X4043D01*
X4035Y5150D02*
Y5165D01*
X3260Y5157D02*
X3275D01*
X3268Y5150D02*
Y5165D01*
X7394Y5404D02*
X7409D01*
X7402Y5396D02*
Y5411D01*
X3536Y2579D02*
X3551D01*
X3543Y2571D02*
Y2586D01*
X2630Y2037D02*
X2645D01*
X2638Y2030D02*
Y2045D01*
X7276Y5866D02*
X7291D01*
X7283Y5859D02*
Y5874D01*
X3437Y4429D02*
X3452D01*
X3445Y4422D02*
Y4437D01*
X2965Y3602D02*
X2980D01*
X2972Y3595D02*
Y3610D01*
X3398Y4173D02*
X3413D01*
X3405Y4166D02*
Y4181D01*
X3368Y2697D02*
X3383D01*
X3376Y2689D02*
Y2704D01*
X3366Y4224D02*
X3381D01*
X3374Y4217D02*
Y4232D01*
X4477Y7835D02*
X4492D01*
X4484Y7827D02*
Y7842D01*
X6422Y7014D02*
X6452D01*
X6437Y6999D02*
Y7029D01*
X6422Y8104D02*
X6452D01*
X6437Y8089D02*
Y8119D01*
X6422Y7722D02*
X6452D01*
X6437Y7707D02*
Y7737D01*
X6422Y7396D02*
X6452D01*
X6437Y7381D02*
Y7411D01*
X4067Y6811D02*
X4082D01*
X4075Y6804D02*
Y6819D01*
X4442Y7185D02*
X4457D01*
X4449Y7178D02*
Y7193D01*
X3969Y7900D02*
X3984D01*
X3976Y7893D02*
Y7908D01*
X3920Y7900D02*
X3935D01*
X3927Y7893D02*
Y7908D01*
X4284Y7900D02*
X4299D01*
X4291Y7893D02*
Y7908D01*
X5032Y8140D02*
X5047D01*
X5039Y8132D02*
Y8147D01*
X4294Y7224D02*
X4309D01*
X4301Y7217D02*
Y7232D01*
X4244Y7224D02*
X4259D01*
X4252Y7217D02*
Y7232D01*
X4442Y7136D02*
X4457D01*
X4449Y7128D02*
Y7143D01*
X4225Y7900D02*
X4240D01*
X4232Y7893D02*
Y7908D01*
X6527Y4331D02*
X6557D01*
X6542Y4316D02*
Y4346D01*
X6323Y4677D02*
X6338D01*
X6331Y4670D02*
Y4685D01*
X6527Y3051D02*
X6557D01*
X6542Y3036D02*
Y3066D01*
X6430Y3484D02*
X6445D01*
X6437Y3477D02*
Y3492D01*
X6660Y4435D02*
X6675D01*
X6668Y4427D02*
Y4442D01*
X6660Y3155D02*
X6675D01*
X6668Y3148D02*
Y3163D01*
X6193Y3425D02*
X6208D01*
X6201Y3418D02*
Y3433D01*
X6193Y4705D02*
X6208D01*
X6201Y4697D02*
Y4712D01*
X6469Y4764D02*
X6484D01*
X6476Y4756D02*
Y4771D01*
X6469Y3543D02*
X6484D01*
X6476Y3536D02*
Y3551D01*
X7571Y7264D02*
X7586D01*
X7579Y7256D02*
Y7271D01*
X7709Y7264D02*
X7724D01*
X7717Y7256D02*
Y7271D01*
X7198Y6949D02*
X7213D01*
X7205Y6942D02*
Y6957D01*
X4825Y4254D02*
X4840D01*
X4833Y4246D02*
Y4261D01*
X5002Y4322D02*
X5017D01*
X5010Y4315D02*
Y4330D01*
X5180Y4254D02*
X5195D01*
X5187Y4246D02*
Y4261D01*
X5357Y4322D02*
X5372D01*
X5364Y4315D02*
Y4330D01*
X5534Y4254D02*
X5549D01*
X5541Y4246D02*
Y4261D01*
X5713Y4322D02*
X5728D01*
X5720Y4315D02*
Y4330D01*
X5888Y4254D02*
X5903D01*
X5896Y4246D02*
Y4261D01*
X6067Y4322D02*
X6082D01*
X6075Y4315D02*
Y4330D01*
X6317Y4331D02*
X6347D01*
X6332Y4316D02*
Y4346D01*
X6317Y3051D02*
X6347D01*
X6332Y3036D02*
Y3066D01*
X4815Y2679D02*
X4830D01*
X4823Y2671D02*
Y2686D01*
X5002Y2747D02*
X5017D01*
X5010Y2740D02*
Y2755D01*
X5170Y2679D02*
X5185D01*
X5177Y2671D02*
Y2686D01*
X5357Y2747D02*
X5372D01*
X5364Y2740D02*
Y2755D01*
X5534Y2679D02*
X5549D01*
X5541Y2671D02*
Y2686D01*
X5721Y2747D02*
X5736D01*
X5728Y2740D02*
Y2755D01*
X5888Y2679D02*
X5903D01*
X5896Y2671D02*
Y2686D01*
X6075Y2747D02*
X6090D01*
X6083Y2740D02*
Y2755D01*
X8666Y6161D02*
X8696D01*
X8681Y6146D02*
Y6176D01*
X8489Y5767D02*
X8519D01*
X8504Y5752D02*
Y5782D01*
X4816Y4016D02*
X4846D01*
X4831Y4001D02*
Y4031D01*
M02*
