G04*
G04 #@! TF.GenerationSoftware,Altium Limited,CircuitStudio,1.5.1 (13)*
G04*
G04 Layer_Color=15065295*
%FSLAX23Y23*%
%MOIN*%
G70*
G01*
G75*
%ADD43C,0.010*%
%ADD44C,0.020*%
%ADD73C,0.008*%
%ADD74C,0.012*%
%ADD75C,0.010*%
%ADD76C,0.004*%
%ADD77C,0.005*%
%ADD78C,0.008*%
G36*
X6123Y4851D02*
X6126Y4851D01*
X6129Y4850D01*
X6132Y4850D01*
X6136Y4849D01*
X6139Y4847D01*
X6140Y4847D01*
X6141Y4847D01*
X6143Y4846D01*
X6145Y4844D01*
X6147Y4843D01*
X6150Y4841D01*
X6152Y4839D01*
X6154Y4837D01*
X6154Y4836D01*
X6155Y4836D01*
X6155Y4834D01*
X6157Y4833D01*
X6158Y4830D01*
X6159Y4828D01*
X6160Y4825D01*
X6161Y4822D01*
Y4822D01*
X6161Y4821D01*
X6161Y4819D01*
X6162Y4816D01*
X6162Y4813D01*
X6162Y4809D01*
X6163Y4805D01*
Y4799D01*
Y4719D01*
X6128D01*
Y4785D01*
Y4785D01*
Y4786D01*
Y4787D01*
Y4788D01*
Y4790D01*
Y4792D01*
X6128Y4796D01*
X6128Y4800D01*
X6127Y4805D01*
X6127Y4809D01*
X6126Y4811D01*
X6126Y4812D01*
Y4812D01*
X6125Y4813D01*
X6125Y4814D01*
X6124Y4815D01*
X6122Y4819D01*
X6120Y4820D01*
X6119Y4821D01*
X6118Y4822D01*
X6118Y4822D01*
X6117Y4822D01*
X6115Y4823D01*
X6113Y4824D01*
X6112Y4825D01*
X6109Y4825D01*
X6107Y4825D01*
X6105D01*
X6104Y4825D01*
X6102Y4825D01*
X6099Y4824D01*
X6096Y4823D01*
X6094Y4822D01*
X6091Y4820D01*
X6090Y4820D01*
X6090Y4819D01*
X6088Y4818D01*
X6087Y4817D01*
X6085Y4815D01*
X6084Y4813D01*
X6082Y4810D01*
X6081Y4807D01*
Y4807D01*
X6081Y4805D01*
X6080Y4803D01*
X6080Y4800D01*
X6080Y4798D01*
X6079Y4796D01*
X6079Y4794D01*
Y4791D01*
X6079Y4788D01*
X6078Y4785D01*
Y4781D01*
Y4777D01*
Y4719D01*
X6044D01*
Y4849D01*
X6076D01*
Y4829D01*
X6076Y4830D01*
X6077Y4830D01*
X6078Y4832D01*
X6079Y4833D01*
X6081Y4835D01*
X6083Y4836D01*
X6085Y4839D01*
X6088Y4841D01*
X6090Y4842D01*
X6094Y4844D01*
X6097Y4846D01*
X6101Y4848D01*
X6105Y4849D01*
X6109Y4850D01*
X6114Y4851D01*
X6119Y4851D01*
X6120D01*
X6123Y4851D01*
D02*
G37*
G36*
X5941D02*
X5944Y4851D01*
X5948Y4850D01*
X5952Y4849D01*
X5956Y4847D01*
X5960Y4845D01*
X5949Y4815D01*
X5949Y4815D01*
X5947Y4816D01*
X5946Y4817D01*
X5944Y4818D01*
X5941Y4819D01*
X5939Y4820D01*
X5936Y4820D01*
X5933Y4821D01*
X5932D01*
X5930Y4820D01*
X5929Y4820D01*
X5927Y4820D01*
X5925Y4819D01*
X5923Y4818D01*
X5921Y4816D01*
X5920Y4816D01*
X5920Y4816D01*
X5919Y4815D01*
X5918Y4813D01*
X5916Y4811D01*
X5915Y4809D01*
X5914Y4806D01*
X5913Y4802D01*
Y4801D01*
X5913Y4801D01*
X5912Y4800D01*
Y4799D01*
X5912Y4797D01*
X5912Y4795D01*
X5912Y4793D01*
X5911Y4790D01*
X5911Y4787D01*
X5911Y4783D01*
Y4779D01*
X5911Y4775D01*
X5910Y4770D01*
Y4764D01*
Y4758D01*
Y4719D01*
X5876D01*
Y4849D01*
X5908D01*
Y4830D01*
X5908Y4830D01*
X5909Y4832D01*
X5911Y4834D01*
X5913Y4837D01*
X5915Y4840D01*
X5917Y4843D01*
X5920Y4846D01*
X5922Y4847D01*
X5922Y4848D01*
X5923Y4848D01*
X5925Y4849D01*
X5927Y4849D01*
X5929Y4850D01*
X5931Y4851D01*
X5934Y4851D01*
X5937Y4851D01*
X5939D01*
X5941Y4851D01*
D02*
G37*
G36*
X5147D02*
X5150Y4851D01*
X5153Y4850D01*
X5157Y4850D01*
X5160Y4849D01*
X5164Y4847D01*
X5165Y4847D01*
X5166Y4847D01*
X5167Y4846D01*
X5169Y4844D01*
X5172Y4843D01*
X5174Y4841D01*
X5176Y4839D01*
X5179Y4837D01*
X5179Y4836D01*
X5179Y4836D01*
X5180Y4834D01*
X5181Y4833D01*
X5182Y4830D01*
X5183Y4828D01*
X5185Y4825D01*
X5185Y4822D01*
Y4822D01*
X5186Y4821D01*
X5186Y4819D01*
X5186Y4816D01*
X5187Y4813D01*
X5187Y4809D01*
X5187Y4805D01*
Y4799D01*
Y4719D01*
X5153D01*
Y4785D01*
Y4785D01*
Y4786D01*
Y4787D01*
Y4788D01*
Y4790D01*
Y4792D01*
X5153Y4796D01*
X5152Y4800D01*
X5152Y4805D01*
X5151Y4809D01*
X5151Y4811D01*
X5151Y4812D01*
Y4812D01*
X5150Y4813D01*
X5150Y4814D01*
X5149Y4815D01*
X5146Y4819D01*
X5145Y4820D01*
X5143Y4821D01*
X5143Y4822D01*
X5143Y4822D01*
X5141Y4822D01*
X5140Y4823D01*
X5138Y4824D01*
X5136Y4825D01*
X5134Y4825D01*
X5131Y4825D01*
X5130D01*
X5128Y4825D01*
X5126Y4825D01*
X5124Y4824D01*
X5121Y4823D01*
X5118Y4822D01*
X5115Y4820D01*
X5115Y4820D01*
X5114Y4819D01*
X5113Y4818D01*
X5111Y4817D01*
X5110Y4815D01*
X5108Y4813D01*
X5107Y4810D01*
X5106Y4807D01*
Y4807D01*
X5105Y4805D01*
X5105Y4803D01*
X5104Y4800D01*
X5104Y4798D01*
X5104Y4796D01*
X5104Y4794D01*
Y4791D01*
X5103Y4788D01*
X5103Y4785D01*
Y4781D01*
Y4777D01*
Y4719D01*
X5069D01*
Y4849D01*
X5101D01*
Y4829D01*
X5101Y4830D01*
X5101Y4830D01*
X5102Y4832D01*
X5104Y4833D01*
X5105Y4835D01*
X5107Y4836D01*
X5110Y4839D01*
X5112Y4841D01*
X5115Y4842D01*
X5118Y4844D01*
X5122Y4846D01*
X5126Y4848D01*
X5130Y4849D01*
X5134Y4850D01*
X5139Y4851D01*
X5143Y4851D01*
X5145D01*
X5147Y4851D01*
D02*
G37*
G36*
X5524D02*
X5526Y4851D01*
X5529Y4850D01*
X5533Y4850D01*
X5536Y4849D01*
X5540Y4847D01*
X5541Y4847D01*
X5542Y4847D01*
X5543Y4846D01*
X5546Y4844D01*
X5548Y4843D01*
X5550Y4841D01*
X5553Y4839D01*
X5555Y4837D01*
X5555Y4836D01*
X5555Y4836D01*
X5556Y4834D01*
X5557Y4833D01*
X5559Y4830D01*
X5560Y4828D01*
X5561Y4825D01*
X5561Y4822D01*
Y4822D01*
X5562Y4821D01*
X5562Y4819D01*
X5562Y4816D01*
X5563Y4813D01*
X5563Y4809D01*
X5563Y4805D01*
Y4799D01*
Y4719D01*
X5529D01*
Y4785D01*
Y4785D01*
Y4786D01*
Y4787D01*
Y4788D01*
Y4790D01*
Y4792D01*
X5529Y4796D01*
X5528Y4800D01*
X5528Y4805D01*
X5527Y4809D01*
X5527Y4811D01*
X5527Y4812D01*
Y4812D01*
X5526Y4813D01*
X5526Y4814D01*
X5525Y4815D01*
X5523Y4819D01*
X5521Y4820D01*
X5519Y4821D01*
X5519Y4822D01*
X5519Y4822D01*
X5518Y4822D01*
X5516Y4823D01*
X5514Y4824D01*
X5512Y4825D01*
X5510Y4825D01*
X5507Y4825D01*
X5506D01*
X5504Y4825D01*
X5502Y4825D01*
X5500Y4824D01*
X5497Y4823D01*
X5494Y4822D01*
X5491Y4820D01*
X5491Y4820D01*
X5490Y4819D01*
X5489Y4818D01*
X5488Y4817D01*
X5486Y4815D01*
X5484Y4813D01*
X5483Y4810D01*
X5482Y4807D01*
Y4807D01*
X5481Y4805D01*
X5481Y4803D01*
X5481Y4800D01*
X5480Y4798D01*
X5480Y4796D01*
X5480Y4794D01*
Y4791D01*
X5479Y4788D01*
X5479Y4785D01*
Y4781D01*
Y4777D01*
Y4719D01*
X5445D01*
Y4849D01*
X5477D01*
Y4829D01*
X5477Y4830D01*
X5477Y4830D01*
X5478Y4832D01*
X5480Y4833D01*
X5481Y4835D01*
X5483Y4836D01*
X5486Y4839D01*
X5488Y4841D01*
X5491Y4842D01*
X5495Y4844D01*
X5498Y4846D01*
X5502Y4848D01*
X5506Y4849D01*
X5510Y4850D01*
X5515Y4851D01*
X5519Y4851D01*
X5521D01*
X5524Y4851D01*
D02*
G37*
G36*
X5410Y4866D02*
X5375D01*
Y4898D01*
X5410D01*
Y4866D01*
D02*
G37*
G36*
X4672Y4672D02*
X4673Y4672D01*
X4673Y4671D01*
X4674Y4671D01*
X4675Y4671D01*
X4676Y4671D01*
X4677Y4671D01*
X4677Y4670D01*
X4678Y4670D01*
X4679Y4669D01*
X4680Y4669D01*
X4681Y4668D01*
X4682Y4667D01*
X4682Y4667D01*
X4682Y4667D01*
X4682Y4667D01*
X4682Y4666D01*
X4683Y4666D01*
X4683Y4665D01*
X4683Y4665D01*
X4684Y4664D01*
X4684Y4663D01*
X4685Y4662D01*
X4685Y4661D01*
X4685Y4660D01*
X4685Y4659D01*
X4686Y4658D01*
X4686Y4656D01*
X4686Y4655D01*
Y4655D01*
Y4654D01*
Y4654D01*
X4686Y4653D01*
X4661D01*
Y4653D01*
Y4653D01*
X4662Y4653D01*
Y4652D01*
X4662Y4652D01*
X4662Y4651D01*
X4662Y4650D01*
X4662Y4649D01*
X4663Y4648D01*
X4664Y4646D01*
X4664Y4645D01*
X4665D01*
X4665Y4645D01*
X4665Y4645D01*
X4666Y4644D01*
X4666Y4644D01*
X4667Y4643D01*
X4669Y4643D01*
X4670Y4642D01*
X4671Y4642D01*
X4671Y4642D01*
X4672D01*
X4672Y4642D01*
X4673Y4643D01*
X4674Y4643D01*
X4675Y4643D01*
X4676Y4643D01*
X4677Y4644D01*
X4677Y4644D01*
X4677Y4644D01*
X4677Y4645D01*
X4678Y4645D01*
X4678Y4646D01*
X4679Y4647D01*
X4679Y4648D01*
X4680Y4649D01*
X4686Y4648D01*
Y4648D01*
X4686Y4648D01*
X4686Y4648D01*
X4685Y4647D01*
X4685Y4647D01*
X4685Y4647D01*
X4684Y4645D01*
X4684Y4644D01*
X4683Y4643D01*
X4682Y4642D01*
X4681Y4641D01*
X4681D01*
X4680Y4640D01*
X4680Y4640D01*
X4680Y4640D01*
X4680Y4640D01*
X4679Y4640D01*
X4679Y4639D01*
X4678Y4639D01*
X4677Y4639D01*
X4677Y4639D01*
X4675Y4638D01*
X4673Y4638D01*
X4671Y4638D01*
X4671D01*
X4670Y4638D01*
X4670Y4638D01*
X4669Y4638D01*
X4668Y4638D01*
X4667Y4638D01*
X4665Y4639D01*
X4664Y4639D01*
X4664Y4640D01*
X4663Y4640D01*
X4662Y4641D01*
X4661Y4641D01*
X4660Y4642D01*
X4660Y4642D01*
X4660Y4642D01*
X4660Y4643D01*
X4659Y4643D01*
X4659Y4643D01*
X4659Y4644D01*
X4658Y4645D01*
X4658Y4645D01*
X4658Y4646D01*
X4657Y4647D01*
X4657Y4648D01*
X4657Y4649D01*
X4656Y4650D01*
X4656Y4652D01*
X4656Y4653D01*
X4656Y4654D01*
Y4655D01*
Y4655D01*
Y4655D01*
X4656Y4656D01*
X4656Y4657D01*
X4656Y4657D01*
X4656Y4658D01*
X4656Y4659D01*
X4657Y4661D01*
X4657Y4662D01*
X4658Y4663D01*
X4658Y4664D01*
X4659Y4665D01*
X4659Y4666D01*
X4660Y4667D01*
X4660Y4667D01*
X4660Y4667D01*
X4661Y4668D01*
X4661Y4668D01*
X4661Y4668D01*
X4662Y4669D01*
X4662Y4669D01*
X4663Y4669D01*
X4664Y4670D01*
X4665Y4670D01*
X4666Y4671D01*
X4666Y4671D01*
X4668Y4671D01*
X4669Y4672D01*
X4670Y4672D01*
X4671Y4672D01*
X4672D01*
X4672Y4672D01*
D02*
G37*
G36*
X4770D02*
X4770Y4672D01*
X4771Y4671D01*
X4772Y4671D01*
X4772Y4671D01*
X4773Y4671D01*
X4774Y4671D01*
X4775Y4670D01*
X4776Y4670D01*
X4777Y4669D01*
X4778Y4669D01*
X4778Y4668D01*
X4779Y4667D01*
X4779Y4667D01*
X4779Y4667D01*
X4780Y4667D01*
X4780Y4666D01*
X4780Y4666D01*
X4781Y4665D01*
X4781Y4665D01*
X4781Y4664D01*
X4782Y4663D01*
X4782Y4662D01*
X4782Y4661D01*
X4783Y4660D01*
X4783Y4659D01*
X4783Y4658D01*
X4783Y4656D01*
X4783Y4655D01*
Y4655D01*
Y4654D01*
Y4654D01*
X4783Y4653D01*
X4759D01*
Y4653D01*
Y4653D01*
X4759Y4653D01*
Y4652D01*
X4759Y4652D01*
X4759Y4651D01*
X4759Y4650D01*
X4760Y4649D01*
X4760Y4648D01*
X4761Y4646D01*
X4762Y4645D01*
X4762D01*
X4762Y4645D01*
X4763Y4645D01*
X4763Y4644D01*
X4764Y4644D01*
X4765Y4643D01*
X4766Y4643D01*
X4767Y4642D01*
X4768Y4642D01*
X4769Y4642D01*
X4769D01*
X4770Y4642D01*
X4771Y4643D01*
X4771Y4643D01*
X4772Y4643D01*
X4773Y4643D01*
X4774Y4644D01*
X4774Y4644D01*
X4774Y4644D01*
X4775Y4645D01*
X4775Y4645D01*
X4776Y4646D01*
X4776Y4647D01*
X4777Y4648D01*
X4777Y4649D01*
X4783Y4648D01*
Y4648D01*
X4783Y4648D01*
X4783Y4648D01*
X4783Y4647D01*
X4783Y4647D01*
X4783Y4647D01*
X4782Y4645D01*
X4781Y4644D01*
X4780Y4643D01*
X4779Y4642D01*
X4778Y4641D01*
X4778D01*
X4778Y4640D01*
X4778Y4640D01*
X4777Y4640D01*
X4777Y4640D01*
X4777Y4640D01*
X4776Y4639D01*
X4776Y4639D01*
X4775Y4639D01*
X4774Y4639D01*
X4773Y4638D01*
X4771Y4638D01*
X4769Y4638D01*
X4768D01*
X4768Y4638D01*
X4767Y4638D01*
X4766Y4638D01*
X4766Y4638D01*
X4765Y4638D01*
X4763Y4639D01*
X4762Y4639D01*
X4761Y4640D01*
X4760Y4640D01*
X4759Y4641D01*
X4758Y4641D01*
X4758Y4642D01*
X4757Y4642D01*
X4757Y4642D01*
X4757Y4643D01*
X4757Y4643D01*
X4757Y4643D01*
X4756Y4644D01*
X4756Y4645D01*
X4755Y4645D01*
X4755Y4646D01*
X4755Y4647D01*
X4754Y4648D01*
X4754Y4649D01*
X4754Y4650D01*
X4754Y4652D01*
X4753Y4653D01*
X4753Y4654D01*
Y4655D01*
Y4655D01*
Y4655D01*
X4753Y4656D01*
X4754Y4657D01*
X4754Y4657D01*
X4754Y4658D01*
X4754Y4659D01*
X4754Y4661D01*
X4755Y4662D01*
X4755Y4663D01*
X4756Y4664D01*
X4756Y4665D01*
X4757Y4666D01*
X4758Y4667D01*
X4758Y4667D01*
X4758Y4667D01*
X4758Y4668D01*
X4758Y4668D01*
X4759Y4668D01*
X4759Y4669D01*
X4760Y4669D01*
X4761Y4669D01*
X4761Y4670D01*
X4762Y4670D01*
X4763Y4671D01*
X4764Y4671D01*
X4765Y4671D01*
X4766Y4672D01*
X4767Y4672D01*
X4769Y4672D01*
X4769D01*
X4770Y4672D01*
D02*
G37*
G36*
X6009Y4866D02*
X5975D01*
Y4898D01*
X6009D01*
Y4866D01*
D02*
G37*
G36*
X4432Y4672D02*
X4432Y4672D01*
X4433Y4671D01*
X4434Y4671D01*
X4434Y4671D01*
X4435Y4671D01*
X4436Y4671D01*
X4437Y4670D01*
X4438Y4670D01*
X4439Y4669D01*
X4440Y4669D01*
X4440Y4668D01*
X4441Y4667D01*
X4441Y4667D01*
X4441Y4667D01*
X4442Y4667D01*
X4442Y4666D01*
X4442Y4666D01*
X4443Y4665D01*
X4443Y4665D01*
X4443Y4664D01*
X4444Y4663D01*
X4444Y4662D01*
X4444Y4661D01*
X4445Y4660D01*
X4445Y4659D01*
X4445Y4658D01*
X4445Y4656D01*
X4445Y4655D01*
Y4655D01*
Y4654D01*
Y4654D01*
X4445Y4653D01*
X4421D01*
Y4653D01*
Y4653D01*
X4421Y4653D01*
Y4652D01*
X4421Y4652D01*
X4421Y4651D01*
X4421Y4650D01*
X4422Y4649D01*
X4422Y4648D01*
X4423Y4646D01*
X4424Y4645D01*
X4424D01*
X4424Y4645D01*
X4425Y4645D01*
X4425Y4644D01*
X4426Y4644D01*
X4427Y4643D01*
X4428Y4643D01*
X4429Y4642D01*
X4430Y4642D01*
X4431Y4642D01*
X4431D01*
X4432Y4642D01*
X4433Y4643D01*
X4433Y4643D01*
X4434Y4643D01*
X4435Y4643D01*
X4436Y4644D01*
X4436Y4644D01*
X4436Y4644D01*
X4437Y4645D01*
X4437Y4645D01*
X4438Y4646D01*
X4438Y4647D01*
X4439Y4648D01*
X4439Y4649D01*
X4445Y4648D01*
Y4648D01*
X4445Y4648D01*
X4445Y4648D01*
X4445Y4647D01*
X4445Y4647D01*
X4445Y4647D01*
X4444Y4645D01*
X4443Y4644D01*
X4442Y4643D01*
X4441Y4642D01*
X4440Y4641D01*
X4440D01*
X4440Y4640D01*
X4440Y4640D01*
X4439Y4640D01*
X4439Y4640D01*
X4439Y4640D01*
X4438Y4639D01*
X4438Y4639D01*
X4437Y4639D01*
X4436Y4639D01*
X4435Y4638D01*
X4433Y4638D01*
X4431Y4638D01*
X4430D01*
X4430Y4638D01*
X4429Y4638D01*
X4428Y4638D01*
X4428Y4638D01*
X4427Y4638D01*
X4425Y4639D01*
X4424Y4639D01*
X4423Y4640D01*
X4422Y4640D01*
X4421Y4641D01*
X4420Y4641D01*
X4420Y4642D01*
X4419Y4642D01*
X4419Y4642D01*
X4419Y4643D01*
X4419Y4643D01*
X4419Y4643D01*
X4418Y4644D01*
X4418Y4645D01*
X4417Y4645D01*
X4417Y4646D01*
X4417Y4647D01*
X4416Y4648D01*
X4416Y4649D01*
X4416Y4650D01*
X4416Y4652D01*
X4415Y4653D01*
X4415Y4654D01*
Y4655D01*
Y4655D01*
Y4655D01*
X4415Y4656D01*
X4416Y4657D01*
X4416Y4657D01*
X4416Y4658D01*
X4416Y4659D01*
X4416Y4661D01*
X4417Y4662D01*
X4417Y4663D01*
X4418Y4664D01*
X4418Y4665D01*
X4419Y4666D01*
X4420Y4667D01*
X4420Y4667D01*
X4420Y4667D01*
X4420Y4668D01*
X4420Y4668D01*
X4421Y4668D01*
X4421Y4669D01*
X4422Y4669D01*
X4423Y4669D01*
X4423Y4670D01*
X4424Y4670D01*
X4425Y4671D01*
X4426Y4671D01*
X4427Y4671D01*
X4428Y4672D01*
X4429Y4672D01*
X4431Y4672D01*
X4431D01*
X4432Y4672D01*
D02*
G37*
G36*
X4615Y4719D02*
X4581D01*
X4581Y4860D01*
X4546Y4719D01*
X4511D01*
X4476Y4860D01*
Y4719D01*
X4442D01*
Y4898D01*
X4496D01*
X4528Y4775D01*
X4560Y4898D01*
X4615D01*
Y4719D01*
D02*
G37*
G36*
X5653Y4851D02*
X5655Y4851D01*
X5658Y4850D01*
X5661Y4850D01*
X5664Y4849D01*
X5668Y4848D01*
X5672Y4847D01*
X5675Y4845D01*
X5679Y4843D01*
X5683Y4841D01*
X5687Y4839D01*
X5690Y4835D01*
X5693Y4832D01*
X5694Y4832D01*
X5694Y4831D01*
X5695Y4830D01*
X5696Y4828D01*
X5697Y4826D01*
X5698Y4824D01*
X5700Y4821D01*
X5702Y4818D01*
X5703Y4814D01*
X5705Y4809D01*
X5706Y4805D01*
X5707Y4799D01*
X5708Y4793D01*
X5709Y4787D01*
X5710Y4781D01*
Y4773D01*
X5624D01*
Y4773D01*
Y4773D01*
Y4772D01*
X5624Y4771D01*
X5624Y4768D01*
X5625Y4765D01*
X5626Y4761D01*
X5627Y4757D01*
X5629Y4753D01*
X5632Y4750D01*
X5632Y4749D01*
X5633Y4748D01*
X5635Y4747D01*
X5637Y4745D01*
X5640Y4744D01*
X5644Y4743D01*
X5647Y4742D01*
X5652Y4741D01*
X5653D01*
X5654Y4742D01*
X5656Y4742D01*
X5658Y4742D01*
X5661Y4743D01*
X5663Y4744D01*
X5665Y4746D01*
X5665Y4746D01*
X5666Y4746D01*
X5667Y4748D01*
X5668Y4749D01*
X5670Y4751D01*
X5671Y4753D01*
X5672Y4757D01*
X5674Y4760D01*
X5708Y4754D01*
Y4754D01*
X5708Y4753D01*
X5707Y4752D01*
X5707Y4751D01*
X5706Y4750D01*
X5705Y4748D01*
X5703Y4744D01*
X5700Y4739D01*
X5696Y4734D01*
X5692Y4730D01*
X5687Y4726D01*
X5687D01*
X5686Y4725D01*
X5685Y4725D01*
X5684Y4724D01*
X5683Y4723D01*
X5681Y4722D01*
X5679Y4722D01*
X5677Y4721D01*
X5672Y4719D01*
X5666Y4717D01*
X5659Y4716D01*
X5651Y4716D01*
X5650D01*
X5648Y4716D01*
X5646D01*
X5643Y4716D01*
X5640Y4717D01*
X5636Y4717D01*
X5632Y4719D01*
X5628Y4720D01*
X5624Y4721D01*
X5620Y4723D01*
X5616Y4725D01*
X5612Y4728D01*
X5608Y4730D01*
X5604Y4734D01*
X5601Y4738D01*
X5601Y4738D01*
X5601Y4738D01*
X5600Y4739D01*
X5599Y4741D01*
X5598Y4743D01*
X5597Y4745D01*
X5596Y4747D01*
X5595Y4750D01*
X5594Y4753D01*
X5592Y4756D01*
X5591Y4760D01*
X5590Y4764D01*
X5590Y4768D01*
X5589Y4773D01*
X5589Y4778D01*
X5588Y4783D01*
Y4783D01*
Y4784D01*
Y4786D01*
X5589Y4788D01*
X5589Y4791D01*
X5589Y4794D01*
X5590Y4797D01*
X5590Y4801D01*
X5592Y4809D01*
X5594Y4813D01*
X5595Y4818D01*
X5597Y4822D01*
X5600Y4826D01*
X5602Y4829D01*
X5605Y4833D01*
X5605Y4833D01*
X5606Y4834D01*
X5607Y4835D01*
X5608Y4836D01*
X5610Y4837D01*
X5612Y4839D01*
X5614Y4841D01*
X5617Y4842D01*
X5620Y4844D01*
X5623Y4846D01*
X5626Y4847D01*
X5630Y4849D01*
X5634Y4850D01*
X5639Y4851D01*
X5643Y4851D01*
X5648Y4851D01*
X5651D01*
X5653Y4851D01*
D02*
G37*
G36*
X5792D02*
X5794Y4851D01*
X5797Y4850D01*
X5800Y4850D01*
X5804Y4849D01*
X5807Y4848D01*
X5811Y4847D01*
X5815Y4845D01*
X5819Y4843D01*
X5822Y4841D01*
X5826Y4839D01*
X5830Y4835D01*
X5833Y4832D01*
X5833Y4832D01*
X5834Y4831D01*
X5834Y4830D01*
X5835Y4828D01*
X5837Y4826D01*
X5838Y4824D01*
X5840Y4821D01*
X5841Y4818D01*
X5843Y4814D01*
X5844Y4809D01*
X5845Y4805D01*
X5847Y4799D01*
X5848Y4793D01*
X5849Y4787D01*
X5849Y4781D01*
Y4773D01*
X5763D01*
Y4773D01*
Y4773D01*
Y4772D01*
X5763Y4771D01*
X5764Y4768D01*
X5764Y4765D01*
X5765Y4761D01*
X5767Y4757D01*
X5768Y4753D01*
X5771Y4750D01*
X5771Y4749D01*
X5773Y4748D01*
X5774Y4747D01*
X5777Y4745D01*
X5779Y4744D01*
X5783Y4743D01*
X5787Y4742D01*
X5791Y4741D01*
X5792D01*
X5794Y4742D01*
X5796Y4742D01*
X5798Y4742D01*
X5800Y4743D01*
X5802Y4744D01*
X5805Y4746D01*
X5805Y4746D01*
X5806Y4746D01*
X5807Y4748D01*
X5808Y4749D01*
X5809Y4751D01*
X5810Y4753D01*
X5812Y4757D01*
X5813Y4760D01*
X5847Y4754D01*
Y4754D01*
X5847Y4753D01*
X5847Y4752D01*
X5846Y4751D01*
X5845Y4750D01*
X5844Y4748D01*
X5842Y4744D01*
X5839Y4739D01*
X5836Y4734D01*
X5831Y4730D01*
X5826Y4726D01*
X5826D01*
X5826Y4725D01*
X5825Y4725D01*
X5824Y4724D01*
X5822Y4723D01*
X5821Y4722D01*
X5819Y4722D01*
X5816Y4721D01*
X5811Y4719D01*
X5805Y4717D01*
X5798Y4716D01*
X5791Y4716D01*
X5789D01*
X5788Y4716D01*
X5785D01*
X5782Y4716D01*
X5779Y4717D01*
X5775Y4717D01*
X5772Y4719D01*
X5768Y4720D01*
X5764Y4721D01*
X5759Y4723D01*
X5755Y4725D01*
X5751Y4728D01*
X5747Y4730D01*
X5744Y4734D01*
X5740Y4738D01*
X5740Y4738D01*
X5740Y4738D01*
X5739Y4739D01*
X5738Y4741D01*
X5738Y4743D01*
X5737Y4745D01*
X5735Y4747D01*
X5734Y4750D01*
X5733Y4753D01*
X5732Y4756D01*
X5731Y4760D01*
X5730Y4764D01*
X5729Y4768D01*
X5728Y4773D01*
X5728Y4778D01*
X5728Y4783D01*
Y4783D01*
Y4784D01*
Y4786D01*
X5728Y4788D01*
X5728Y4791D01*
X5729Y4794D01*
X5729Y4797D01*
X5730Y4801D01*
X5732Y4809D01*
X5733Y4813D01*
X5735Y4818D01*
X5737Y4822D01*
X5739Y4826D01*
X5742Y4829D01*
X5745Y4833D01*
X5745Y4833D01*
X5745Y4834D01*
X5746Y4835D01*
X5748Y4836D01*
X5749Y4837D01*
X5751Y4839D01*
X5754Y4841D01*
X5756Y4842D01*
X5759Y4844D01*
X5763Y4846D01*
X5766Y4847D01*
X5770Y4849D01*
X5774Y4850D01*
X5778Y4851D01*
X5782Y4851D01*
X5787Y4851D01*
X5790D01*
X5792Y4851D01*
D02*
G37*
G36*
X5272D02*
X5273D01*
X5275Y4851D01*
X5278Y4850D01*
X5280Y4850D01*
X5283Y4849D01*
X5286Y4848D01*
X5289Y4846D01*
X5293Y4844D01*
X5296Y4842D01*
X5300Y4840D01*
X5303Y4837D01*
X5306Y4834D01*
X5309Y4830D01*
Y4849D01*
X5341D01*
Y4732D01*
Y4731D01*
Y4731D01*
Y4730D01*
Y4728D01*
Y4726D01*
X5341Y4724D01*
X5341Y4719D01*
X5340Y4713D01*
X5340Y4708D01*
X5339Y4702D01*
X5338Y4700D01*
X5337Y4698D01*
X5337Y4697D01*
X5337Y4696D01*
X5336Y4694D01*
X5335Y4691D01*
X5333Y4688D01*
X5331Y4685D01*
X5329Y4682D01*
X5327Y4680D01*
X5326Y4679D01*
X5325Y4679D01*
X5324Y4677D01*
X5322Y4676D01*
X5319Y4674D01*
X5316Y4673D01*
X5313Y4671D01*
X5308Y4670D01*
X5308Y4669D01*
X5306Y4669D01*
X5304Y4668D01*
X5301Y4668D01*
X5296Y4667D01*
X5291Y4666D01*
X5286Y4666D01*
X5279Y4666D01*
X5276D01*
X5274Y4666D01*
X5271D01*
X5268Y4666D01*
X5265Y4667D01*
X5261Y4667D01*
X5253Y4668D01*
X5246Y4671D01*
X5242Y4672D01*
X5238Y4673D01*
X5235Y4675D01*
X5232Y4677D01*
X5232Y4677D01*
X5232Y4678D01*
X5230Y4679D01*
X5228Y4681D01*
X5226Y4685D01*
X5223Y4689D01*
X5221Y4694D01*
X5219Y4700D01*
X5219Y4703D01*
X5219Y4706D01*
Y4706D01*
Y4707D01*
Y4708D01*
X5219Y4710D01*
X5258Y4705D01*
Y4705D01*
X5259Y4704D01*
X5259Y4703D01*
X5259Y4702D01*
X5260Y4699D01*
X5261Y4697D01*
X5263Y4696D01*
X5263Y4696D01*
X5264Y4695D01*
X5265Y4695D01*
X5267Y4694D01*
X5269Y4693D01*
X5271Y4693D01*
X5274Y4692D01*
X5278Y4692D01*
X5280D01*
X5283Y4692D01*
X5286Y4693D01*
X5289Y4693D01*
X5292Y4694D01*
X5295Y4695D01*
X5298Y4696D01*
X5299Y4696D01*
X5299Y4697D01*
X5300Y4697D01*
X5301Y4698D01*
X5302Y4700D01*
X5303Y4701D01*
X5304Y4703D01*
X5305Y4705D01*
Y4705D01*
X5305Y4706D01*
X5306Y4707D01*
X5306Y4709D01*
X5306Y4711D01*
X5307Y4713D01*
X5307Y4717D01*
Y4721D01*
Y4739D01*
X5307Y4739D01*
X5306Y4739D01*
X5305Y4738D01*
X5304Y4736D01*
X5303Y4735D01*
X5301Y4733D01*
X5299Y4731D01*
X5296Y4729D01*
X5294Y4727D01*
X5291Y4725D01*
X5284Y4722D01*
X5280Y4721D01*
X5277Y4720D01*
X5272Y4719D01*
X5268Y4719D01*
X5267D01*
X5265Y4719D01*
X5264D01*
X5261Y4719D01*
X5259Y4720D01*
X5256Y4720D01*
X5253Y4721D01*
X5250Y4722D01*
X5246Y4724D01*
X5243Y4726D01*
X5239Y4728D01*
X5236Y4730D01*
X5233Y4733D01*
X5230Y4737D01*
X5226Y4741D01*
Y4741D01*
X5226Y4741D01*
X5225Y4742D01*
X5225Y4744D01*
X5224Y4745D01*
X5223Y4748D01*
X5222Y4750D01*
X5221Y4753D01*
X5219Y4756D01*
X5218Y4759D01*
X5217Y4763D01*
X5216Y4766D01*
X5215Y4775D01*
X5215Y4779D01*
X5215Y4784D01*
Y4784D01*
Y4786D01*
Y4787D01*
X5215Y4790D01*
X5215Y4792D01*
X5215Y4795D01*
X5216Y4799D01*
X5217Y4802D01*
X5218Y4811D01*
X5220Y4815D01*
X5221Y4819D01*
X5223Y4823D01*
X5225Y4827D01*
X5227Y4831D01*
X5230Y4834D01*
X5230Y4834D01*
X5231Y4835D01*
X5232Y4836D01*
X5233Y4837D01*
X5235Y4838D01*
X5236Y4840D01*
X5238Y4841D01*
X5241Y4843D01*
X5244Y4844D01*
X5247Y4846D01*
X5253Y4849D01*
X5257Y4850D01*
X5261Y4851D01*
X5265Y4851D01*
X5269Y4851D01*
X5270D01*
X5272Y4851D01*
D02*
G37*
G36*
X6247D02*
X6249D01*
X6251Y4851D01*
X6253Y4850D01*
X6256Y4850D01*
X6259Y4849D01*
X6262Y4848D01*
X6265Y4846D01*
X6268Y4844D01*
X6272Y4842D01*
X6275Y4840D01*
X6278Y4837D01*
X6281Y4834D01*
X6285Y4830D01*
Y4849D01*
X6317D01*
Y4732D01*
Y4731D01*
Y4731D01*
Y4730D01*
Y4728D01*
Y4726D01*
X6316Y4724D01*
X6316Y4719D01*
X6316Y4713D01*
X6315Y4708D01*
X6314Y4702D01*
X6314Y4700D01*
X6313Y4698D01*
X6313Y4697D01*
X6312Y4696D01*
X6311Y4694D01*
X6310Y4691D01*
X6308Y4688D01*
X6307Y4685D01*
X6305Y4682D01*
X6302Y4680D01*
X6302Y4679D01*
X6301Y4679D01*
X6299Y4677D01*
X6297Y4676D01*
X6295Y4674D01*
X6292Y4673D01*
X6288Y4671D01*
X6284Y4670D01*
X6283Y4669D01*
X6282Y4669D01*
X6279Y4668D01*
X6276Y4668D01*
X6272Y4667D01*
X6267Y4666D01*
X6261Y4666D01*
X6255Y4666D01*
X6252D01*
X6249Y4666D01*
X6247D01*
X6244Y4666D01*
X6240Y4667D01*
X6237Y4667D01*
X6229Y4668D01*
X6221Y4671D01*
X6217Y4672D01*
X6214Y4673D01*
X6211Y4675D01*
X6208Y4677D01*
X6208Y4677D01*
X6207Y4678D01*
X6206Y4679D01*
X6203Y4681D01*
X6201Y4685D01*
X6198Y4689D01*
X6196Y4694D01*
X6195Y4700D01*
X6194Y4703D01*
X6194Y4706D01*
Y4706D01*
Y4707D01*
Y4708D01*
X6194Y4710D01*
X6234Y4705D01*
Y4705D01*
X6234Y4704D01*
X6234Y4703D01*
X6235Y4702D01*
X6236Y4699D01*
X6237Y4697D01*
X6238Y4696D01*
X6238Y4696D01*
X6239Y4695D01*
X6240Y4695D01*
X6242Y4694D01*
X6244Y4693D01*
X6247Y4693D01*
X6250Y4692D01*
X6253Y4692D01*
X6256D01*
X6258Y4692D01*
X6261Y4693D01*
X6264Y4693D01*
X6268Y4694D01*
X6271Y4695D01*
X6274Y4696D01*
X6274Y4696D01*
X6274Y4697D01*
X6275Y4697D01*
X6276Y4698D01*
X6277Y4700D01*
X6278Y4701D01*
X6279Y4703D01*
X6280Y4705D01*
Y4705D01*
X6281Y4706D01*
X6281Y4707D01*
X6281Y4709D01*
X6282Y4711D01*
X6282Y4713D01*
X6282Y4717D01*
Y4721D01*
Y4739D01*
X6282Y4739D01*
X6281Y4739D01*
X6281Y4738D01*
X6279Y4736D01*
X6278Y4735D01*
X6276Y4733D01*
X6274Y4731D01*
X6272Y4729D01*
X6269Y4727D01*
X6266Y4725D01*
X6259Y4722D01*
X6256Y4721D01*
X6252Y4720D01*
X6248Y4719D01*
X6243Y4719D01*
X6242D01*
X6241Y4719D01*
X6239D01*
X6237Y4719D01*
X6234Y4720D01*
X6231Y4720D01*
X6228Y4721D01*
X6225Y4722D01*
X6222Y4724D01*
X6218Y4726D01*
X6215Y4728D01*
X6211Y4730D01*
X6208Y4733D01*
X6205Y4737D01*
X6202Y4741D01*
Y4741D01*
X6201Y4741D01*
X6201Y4742D01*
X6200Y4744D01*
X6199Y4745D01*
X6198Y4748D01*
X6197Y4750D01*
X6196Y4753D01*
X6195Y4756D01*
X6194Y4759D01*
X6193Y4763D01*
X6192Y4766D01*
X6190Y4775D01*
X6190Y4779D01*
X6190Y4784D01*
Y4784D01*
Y4786D01*
Y4787D01*
X6190Y4790D01*
X6190Y4792D01*
X6191Y4795D01*
X6191Y4799D01*
X6192Y4802D01*
X6194Y4811D01*
X6195Y4815D01*
X6196Y4819D01*
X6198Y4823D01*
X6200Y4827D01*
X6203Y4831D01*
X6205Y4834D01*
X6206Y4834D01*
X6206Y4835D01*
X6207Y4836D01*
X6208Y4837D01*
X6210Y4838D01*
X6212Y4840D01*
X6214Y4841D01*
X6216Y4843D01*
X6219Y4844D01*
X6222Y4846D01*
X6229Y4849D01*
X6232Y4850D01*
X6236Y4851D01*
X6240Y4851D01*
X6245Y4851D01*
X6246D01*
X6247Y4851D01*
D02*
G37*
G36*
X4408Y4719D02*
X4372D01*
Y4898D01*
X4408D01*
Y4719D01*
D02*
G37*
G36*
X5410D02*
X5375D01*
Y4849D01*
X5410D01*
Y4719D01*
D02*
G37*
G36*
X6009D02*
X5975D01*
Y4849D01*
X6009D01*
Y4719D01*
D02*
G37*
G36*
X4735Y4898D02*
X4738D01*
X4740Y4897D01*
X4744D01*
X4751Y4897D01*
X4758Y4896D01*
X4764Y4895D01*
X4767Y4894D01*
X4770Y4893D01*
X4770D01*
X4770Y4893D01*
X4772Y4892D01*
X4774Y4891D01*
X4777Y4889D01*
X4780Y4886D01*
X4784Y4884D01*
X4787Y4880D01*
X4790Y4876D01*
Y4875D01*
X4791Y4875D01*
X4791Y4874D01*
X4792Y4874D01*
X4793Y4871D01*
X4794Y4868D01*
X4796Y4863D01*
X4797Y4859D01*
X4798Y4853D01*
X4798Y4848D01*
Y4847D01*
Y4847D01*
Y4846D01*
X4798Y4844D01*
Y4842D01*
X4798Y4841D01*
X4797Y4836D01*
X4795Y4830D01*
X4793Y4825D01*
X4790Y4819D01*
X4788Y4817D01*
X4786Y4814D01*
X4786Y4814D01*
X4786Y4814D01*
X4785Y4813D01*
X4784Y4812D01*
X4783Y4811D01*
X4781Y4810D01*
X4780Y4808D01*
X4778Y4807D01*
X4775Y4806D01*
X4772Y4804D01*
X4770Y4803D01*
X4766Y4802D01*
X4763Y4800D01*
X4759Y4799D01*
X4755Y4798D01*
X4751Y4798D01*
X4751D01*
X4751Y4797D01*
X4753Y4796D01*
X4755Y4795D01*
X4758Y4793D01*
X4761Y4791D01*
X4764Y4788D01*
X4767Y4786D01*
X4770Y4783D01*
X4770Y4782D01*
X4772Y4781D01*
X4773Y4779D01*
X4775Y4776D01*
X4779Y4772D01*
X4780Y4769D01*
X4782Y4767D01*
X4784Y4764D01*
X4786Y4761D01*
X4788Y4757D01*
X4791Y4753D01*
X4813Y4719D01*
X4769D01*
X4743Y4757D01*
X4743Y4758D01*
X4743Y4758D01*
X4742Y4759D01*
X4741Y4761D01*
X4740Y4762D01*
X4739Y4764D01*
X4736Y4769D01*
X4732Y4773D01*
X4729Y4777D01*
X4726Y4781D01*
X4725Y4783D01*
X4724Y4784D01*
X4724Y4784D01*
X4723Y4785D01*
X4722Y4786D01*
X4721Y4787D01*
X4719Y4788D01*
X4717Y4789D01*
X4715Y4790D01*
X4713Y4791D01*
X4713D01*
X4712Y4792D01*
X4711Y4792D01*
X4709Y4792D01*
X4706Y4793D01*
X4703Y4793D01*
X4700Y4793D01*
X4688D01*
Y4719D01*
X4652D01*
Y4898D01*
X4732D01*
X4735Y4898D01*
D02*
G37*
G36*
X5035Y4868D02*
X4939D01*
Y4828D01*
X5028D01*
Y4798D01*
X4939D01*
Y4749D01*
X5039D01*
Y4719D01*
X4902D01*
Y4898D01*
X5035D01*
Y4868D01*
D02*
G37*
G36*
X4649Y4639D02*
X4644D01*
Y4643D01*
X4644Y4643D01*
X4644Y4642D01*
X4644Y4642D01*
X4643Y4642D01*
X4643Y4641D01*
X4643Y4641D01*
X4642Y4641D01*
X4642Y4640D01*
X4641Y4640D01*
X4640Y4639D01*
X4640Y4639D01*
X4639Y4639D01*
X4638Y4638D01*
X4637Y4638D01*
X4636Y4638D01*
X4635Y4638D01*
X4634D01*
X4634Y4638D01*
X4633Y4638D01*
X4632Y4638D01*
X4631Y4638D01*
X4630Y4639D01*
X4629Y4639D01*
X4628Y4640D01*
X4628D01*
X4627Y4640D01*
X4627Y4640D01*
X4627Y4641D01*
X4626Y4641D01*
X4625Y4642D01*
X4624Y4643D01*
X4623Y4645D01*
X4623Y4646D01*
Y4646D01*
X4622Y4646D01*
X4622Y4646D01*
X4622Y4647D01*
X4622Y4647D01*
X4622Y4647D01*
X4622Y4648D01*
X4622Y4648D01*
X4621Y4650D01*
X4621Y4651D01*
X4621Y4653D01*
X4621Y4655D01*
Y4655D01*
Y4655D01*
Y4655D01*
Y4656D01*
X4621Y4656D01*
Y4656D01*
X4621Y4658D01*
X4621Y4659D01*
X4622Y4660D01*
X4622Y4662D01*
X4622Y4664D01*
Y4664D01*
X4622Y4664D01*
X4623Y4664D01*
X4623Y4664D01*
X4623Y4665D01*
X4624Y4666D01*
X4624Y4667D01*
X4625Y4668D01*
X4626Y4669D01*
X4627Y4670D01*
X4627D01*
X4627Y4670D01*
X4628Y4670D01*
X4628Y4670D01*
X4629Y4670D01*
X4629Y4671D01*
X4630Y4671D01*
X4632Y4671D01*
X4633Y4672D01*
X4634Y4672D01*
X4635D01*
X4636Y4672D01*
X4636Y4672D01*
X4637Y4671D01*
X4638Y4671D01*
X4639Y4671D01*
X4640Y4670D01*
X4640Y4670D01*
X4640Y4670D01*
X4640Y4670D01*
X4641Y4670D01*
X4642Y4669D01*
X4642Y4669D01*
X4643Y4668D01*
X4643Y4667D01*
Y4683D01*
X4649D01*
Y4639D01*
D02*
G37*
G36*
X4830D02*
X4825D01*
Y4683D01*
X4830D01*
Y4639D01*
D02*
G37*
G36*
X4409D02*
X4403D01*
Y4643D01*
X4403Y4643D01*
X4403Y4642D01*
X4403Y4642D01*
X4403Y4642D01*
X4402Y4641D01*
X4402Y4641D01*
X4402Y4641D01*
X4401Y4640D01*
X4400Y4640D01*
X4400Y4639D01*
X4399Y4639D01*
X4398Y4639D01*
X4397Y4638D01*
X4396Y4638D01*
X4395Y4638D01*
X4394Y4638D01*
X4394D01*
X4394Y4638D01*
X4393Y4638D01*
X4392Y4638D01*
X4391Y4638D01*
X4390Y4639D01*
X4388Y4639D01*
X4387Y4640D01*
X4387D01*
X4387Y4640D01*
X4387Y4640D01*
X4386Y4641D01*
X4385Y4641D01*
X4384Y4642D01*
X4384Y4643D01*
X4383Y4645D01*
X4382Y4646D01*
Y4646D01*
X4382Y4646D01*
X4382Y4646D01*
X4382Y4647D01*
X4382Y4647D01*
X4381Y4647D01*
X4381Y4648D01*
X4381Y4648D01*
X4381Y4650D01*
X4381Y4651D01*
X4380Y4653D01*
X4380Y4655D01*
Y4655D01*
Y4655D01*
Y4655D01*
Y4656D01*
X4380Y4656D01*
Y4656D01*
X4381Y4658D01*
X4381Y4659D01*
X4381Y4660D01*
X4381Y4662D01*
X4382Y4664D01*
Y4664D01*
X4382Y4664D01*
X4382Y4664D01*
X4382Y4664D01*
X4383Y4665D01*
X4383Y4666D01*
X4384Y4667D01*
X4385Y4668D01*
X4386Y4669D01*
X4387Y4670D01*
X4387D01*
X4387Y4670D01*
X4387Y4670D01*
X4387Y4670D01*
X4388Y4670D01*
X4389Y4671D01*
X4390Y4671D01*
X4391Y4671D01*
X4393Y4672D01*
X4394Y4672D01*
X4395D01*
X4395Y4672D01*
X4396Y4672D01*
X4397Y4671D01*
X4397Y4671D01*
X4398Y4671D01*
X4399Y4670D01*
X4399Y4670D01*
X4400Y4670D01*
X4400Y4670D01*
X4401Y4670D01*
X4401Y4669D01*
X4402Y4669D01*
X4402Y4668D01*
X4403Y4667D01*
Y4683D01*
X4409D01*
Y4639D01*
D02*
G37*
G36*
X4579D02*
X4573D01*
Y4676D01*
X4560Y4639D01*
X4555D01*
X4542Y4677D01*
Y4639D01*
X4536D01*
Y4683D01*
X4545D01*
X4556Y4652D01*
Y4651D01*
X4556Y4651D01*
X4556Y4651D01*
X4556Y4651D01*
X4556Y4650D01*
X4557Y4649D01*
X4557Y4648D01*
X4557Y4647D01*
X4558Y4646D01*
X4558Y4645D01*
X4558Y4645D01*
X4558Y4645D01*
X4558Y4646D01*
X4559Y4647D01*
X4559Y4648D01*
X4559Y4649D01*
X4560Y4650D01*
X4560Y4652D01*
X4571Y4683D01*
X4579D01*
Y4639D01*
D02*
G37*
G36*
X4499Y4672D02*
X4500Y4672D01*
X4501Y4671D01*
X4502Y4671D01*
X4503Y4671D01*
X4504Y4671D01*
X4504D01*
X4504Y4671D01*
X4505Y4670D01*
X4505Y4670D01*
X4506Y4670D01*
X4507Y4669D01*
X4507Y4669D01*
X4508Y4668D01*
X4509Y4668D01*
X4509Y4668D01*
X4509Y4667D01*
X4509Y4667D01*
X4509Y4666D01*
X4510Y4666D01*
X4510Y4665D01*
X4510Y4664D01*
X4511Y4663D01*
X4505Y4662D01*
Y4662D01*
X4505Y4662D01*
X4505Y4663D01*
X4505Y4663D01*
X4504Y4664D01*
X4504Y4665D01*
X4504Y4665D01*
X4503Y4666D01*
X4503Y4666D01*
X4503Y4666D01*
X4502Y4666D01*
X4502Y4666D01*
X4501Y4667D01*
X4500Y4667D01*
X4499Y4667D01*
X4498Y4667D01*
X4497D01*
X4497Y4667D01*
X4496Y4667D01*
X4495Y4667D01*
X4494Y4667D01*
X4493Y4666D01*
X4493Y4666D01*
X4493Y4666D01*
X4492Y4666D01*
X4492Y4665D01*
X4492Y4665D01*
X4492Y4665D01*
X4491Y4664D01*
X4491Y4664D01*
X4491Y4663D01*
Y4663D01*
Y4663D01*
X4491Y4663D01*
Y4662D01*
X4491Y4662D01*
X4492Y4661D01*
X4492Y4661D01*
X4492Y4661D01*
X4492Y4661D01*
X4492Y4661D01*
X4492Y4660D01*
X4493Y4660D01*
X4493Y4660D01*
X4494Y4660D01*
X4494D01*
X4494Y4660D01*
X4494Y4659D01*
X4495Y4659D01*
X4495Y4659D01*
X4496Y4659D01*
X4497Y4659D01*
X4497Y4659D01*
X4498Y4658D01*
X4499Y4658D01*
X4499D01*
X4499Y4658D01*
X4499Y4658D01*
X4500Y4658D01*
X4500Y4658D01*
X4501Y4658D01*
X4502Y4657D01*
X4503Y4657D01*
X4505Y4656D01*
X4506Y4656D01*
X4506Y4656D01*
X4507Y4656D01*
X4507Y4656D01*
X4507Y4655D01*
X4508Y4655D01*
X4508Y4655D01*
X4509Y4655D01*
X4509Y4654D01*
X4510Y4653D01*
X4510Y4653D01*
X4511Y4653D01*
X4511Y4652D01*
X4511Y4652D01*
X4511Y4651D01*
X4511Y4651D01*
X4512Y4650D01*
X4512Y4649D01*
X4512Y4648D01*
Y4648D01*
Y4648D01*
X4512Y4647D01*
X4512Y4646D01*
X4511Y4646D01*
X4511Y4645D01*
X4511Y4644D01*
X4510Y4643D01*
X4510Y4643D01*
X4510Y4642D01*
X4510Y4642D01*
X4509Y4641D01*
X4508Y4641D01*
X4508Y4640D01*
X4507Y4640D01*
X4506Y4639D01*
X4505D01*
X4505Y4639D01*
X4505Y4639D01*
X4504Y4639D01*
X4504Y4638D01*
X4502Y4638D01*
X4501Y4638D01*
X4500Y4638D01*
X4499Y4638D01*
X4498D01*
X4498Y4638D01*
X4497D01*
X4496Y4638D01*
X4496Y4638D01*
X4495Y4638D01*
X4494Y4638D01*
X4492Y4639D01*
X4490Y4640D01*
X4490Y4640D01*
X4489Y4640D01*
X4489Y4640D01*
X4489Y4641D01*
X4488Y4641D01*
X4488Y4641D01*
X4487Y4642D01*
X4487Y4643D01*
X4486Y4645D01*
X4485Y4646D01*
X4485Y4648D01*
X4490Y4649D01*
Y4649D01*
Y4649D01*
X4490Y4649D01*
X4490Y4648D01*
X4491Y4647D01*
X4491Y4646D01*
X4491Y4646D01*
X4492Y4645D01*
X4493Y4644D01*
X4493Y4644D01*
X4493Y4644D01*
X4494Y4643D01*
X4494Y4643D01*
X4495Y4643D01*
X4496Y4643D01*
X4497Y4642D01*
X4499Y4642D01*
X4499D01*
X4500Y4642D01*
X4501Y4643D01*
X4502Y4643D01*
X4503Y4643D01*
X4504Y4643D01*
X4504Y4644D01*
X4504Y4644D01*
X4505Y4644D01*
X4505Y4644D01*
X4505Y4645D01*
X4506Y4645D01*
X4506Y4646D01*
X4506Y4647D01*
X4506Y4647D01*
Y4648D01*
Y4648D01*
X4506Y4648D01*
X4506Y4649D01*
X4506Y4649D01*
X4505Y4649D01*
X4505Y4650D01*
X4504Y4650D01*
X4504Y4650D01*
X4504Y4650D01*
X4504Y4651D01*
X4503Y4651D01*
X4503Y4651D01*
X4502Y4651D01*
X4502Y4651D01*
X4501Y4652D01*
X4500Y4652D01*
X4500Y4652D01*
X4499Y4652D01*
X4499D01*
X4499Y4652D01*
X4498Y4652D01*
X4498Y4653D01*
X4497Y4653D01*
X4497Y4653D01*
X4496Y4653D01*
X4494Y4654D01*
X4493Y4654D01*
X4491Y4654D01*
X4491Y4655D01*
X4490Y4655D01*
X4490Y4655D01*
X4490Y4655D01*
X4490Y4655D01*
X4489Y4656D01*
X4489Y4656D01*
X4488Y4657D01*
X4487Y4657D01*
X4487Y4658D01*
X4487Y4658D01*
X4487Y4658D01*
X4486Y4659D01*
X4486Y4659D01*
X4486Y4660D01*
X4486Y4661D01*
X4486Y4661D01*
X4486Y4662D01*
Y4662D01*
Y4663D01*
X4486Y4663D01*
X4486Y4664D01*
X4486Y4664D01*
X4486Y4665D01*
X4486Y4666D01*
X4487Y4666D01*
X4487Y4666D01*
X4487Y4667D01*
X4487Y4667D01*
X4487Y4667D01*
X4488Y4668D01*
X4488Y4669D01*
X4489Y4669D01*
X4489Y4669D01*
X4489Y4670D01*
X4490Y4670D01*
X4490Y4670D01*
X4490Y4670D01*
X4491Y4670D01*
X4491Y4671D01*
X4492Y4671D01*
X4493Y4671D01*
X4493Y4671D01*
X4493Y4671D01*
X4494Y4671D01*
X4494Y4671D01*
X4495Y4672D01*
X4496Y4672D01*
X4497Y4672D01*
X4498D01*
X4499Y4672D01*
D02*
G37*
G36*
X4467D02*
X4468Y4672D01*
X4469Y4671D01*
X4470Y4671D01*
X4472Y4671D01*
X4473Y4671D01*
X4473Y4671D01*
X4473Y4671D01*
X4474Y4670D01*
X4474Y4670D01*
X4475Y4670D01*
X4475Y4669D01*
X4476Y4669D01*
X4476Y4668D01*
X4477Y4668D01*
X4477Y4668D01*
X4477Y4668D01*
X4477Y4667D01*
X4477Y4667D01*
X4478Y4666D01*
X4478Y4665D01*
X4478Y4665D01*
Y4664D01*
X4478Y4664D01*
X4478Y4664D01*
X4478Y4663D01*
Y4663D01*
X4478Y4662D01*
X4478Y4661D01*
Y4659D01*
Y4652D01*
Y4652D01*
Y4652D01*
Y4651D01*
Y4651D01*
Y4650D01*
Y4650D01*
X4479Y4648D01*
Y4646D01*
X4479Y4645D01*
X4479Y4644D01*
Y4643D01*
X4479Y4643D01*
X4479Y4642D01*
Y4642D01*
X4479Y4642D01*
X4479Y4642D01*
X4479Y4641D01*
X4479Y4641D01*
X4480Y4640D01*
X4480Y4639D01*
X4480Y4639D01*
X4474D01*
X4474Y4639D01*
X4474Y4639D01*
X4474Y4639D01*
X4474Y4640D01*
X4474Y4640D01*
X4474Y4641D01*
X4474Y4642D01*
X4473Y4643D01*
X4473D01*
X4473Y4642D01*
X4473Y4642D01*
X4472Y4642D01*
X4471Y4641D01*
X4471Y4641D01*
X4470Y4640D01*
X4469Y4639D01*
X4467Y4639D01*
X4467Y4639D01*
X4467Y4639D01*
X4466Y4639D01*
X4466Y4638D01*
X4465Y4638D01*
X4464Y4638D01*
X4462Y4638D01*
X4461Y4638D01*
X4461D01*
X4460Y4638D01*
X4460D01*
X4459Y4638D01*
X4458Y4638D01*
X4457Y4638D01*
X4456Y4639D01*
X4454Y4640D01*
X4453Y4640D01*
X4453Y4641D01*
X4453Y4641D01*
X4452Y4641D01*
X4452Y4642D01*
X4451Y4643D01*
X4451Y4644D01*
X4450Y4646D01*
X4450Y4646D01*
X4450Y4647D01*
Y4647D01*
Y4647D01*
X4450Y4648D01*
X4450Y4648D01*
X4451Y4649D01*
X4451Y4650D01*
X4451Y4651D01*
X4451Y4651D01*
X4451Y4651D01*
X4451Y4652D01*
X4452Y4652D01*
X4452Y4653D01*
X4452Y4653D01*
X4453Y4654D01*
X4453Y4654D01*
X4454Y4655D01*
X4454Y4655D01*
X4454Y4655D01*
X4455Y4655D01*
X4455Y4655D01*
X4456Y4656D01*
X4457Y4656D01*
X4457Y4656D01*
X4458Y4656D01*
X4458D01*
X4458Y4656D01*
X4459Y4657D01*
X4459Y4657D01*
X4460Y4657D01*
X4461Y4657D01*
X4462Y4657D01*
X4463Y4657D01*
X4463D01*
X4463Y4657D01*
X4464D01*
X4464Y4657D01*
X4465Y4657D01*
X4465Y4658D01*
X4466Y4658D01*
X4467Y4658D01*
X4468Y4658D01*
X4470Y4658D01*
X4471Y4659D01*
X4472Y4659D01*
X4473Y4659D01*
Y4659D01*
Y4659D01*
X4473Y4660D01*
Y4660D01*
Y4660D01*
Y4661D01*
Y4661D01*
Y4661D01*
Y4661D01*
X4473Y4662D01*
X4473Y4662D01*
X4473Y4663D01*
X4472Y4664D01*
X4472Y4665D01*
X4471Y4665D01*
X4471Y4665D01*
X4471Y4666D01*
X4470Y4666D01*
X4470Y4666D01*
X4469Y4667D01*
X4468Y4667D01*
X4467Y4667D01*
X4465Y4667D01*
X4464D01*
X4464Y4667D01*
X4463Y4667D01*
X4462Y4667D01*
X4461Y4667D01*
X4460Y4666D01*
X4459Y4666D01*
X4459Y4666D01*
X4459Y4666D01*
X4459Y4665D01*
X4458Y4665D01*
X4458Y4664D01*
X4457Y4663D01*
X4457Y4662D01*
X4457Y4661D01*
X4451Y4662D01*
Y4662D01*
X4451Y4662D01*
Y4662D01*
X4451Y4662D01*
X4452Y4663D01*
X4452Y4664D01*
X4452Y4665D01*
X4453Y4666D01*
X4453Y4666D01*
X4454Y4667D01*
X4454Y4667D01*
X4454Y4668D01*
X4454Y4668D01*
X4455Y4669D01*
X4456Y4669D01*
X4456Y4670D01*
X4457Y4670D01*
X4458Y4671D01*
X4459D01*
X4459Y4671D01*
X4459Y4671D01*
X4459Y4671D01*
X4460Y4671D01*
X4461Y4671D01*
X4462Y4671D01*
X4463Y4672D01*
X4464Y4672D01*
X4466Y4672D01*
X4467D01*
X4467Y4672D01*
D02*
G37*
G36*
X4373Y4639D02*
X4367D01*
Y4683D01*
X4373D01*
Y4639D01*
D02*
G37*
G36*
X4603Y4672D02*
X4604Y4672D01*
X4605Y4671D01*
X4606Y4671D01*
X4607Y4671D01*
X4608Y4671D01*
X4609Y4671D01*
X4609Y4671D01*
X4609Y4670D01*
X4610Y4670D01*
X4611Y4670D01*
X4611Y4669D01*
X4612Y4669D01*
X4612Y4668D01*
X4612Y4668D01*
X4613Y4668D01*
X4613Y4668D01*
X4613Y4667D01*
X4613Y4667D01*
X4614Y4666D01*
X4614Y4665D01*
X4614Y4665D01*
Y4664D01*
X4614Y4664D01*
X4614Y4664D01*
X4614Y4663D01*
Y4663D01*
X4614Y4662D01*
X4614Y4661D01*
Y4659D01*
Y4652D01*
Y4652D01*
Y4652D01*
Y4651D01*
Y4651D01*
Y4650D01*
Y4650D01*
X4614Y4648D01*
Y4646D01*
X4615Y4645D01*
X4615Y4644D01*
Y4643D01*
X4615Y4643D01*
X4615Y4642D01*
Y4642D01*
X4615Y4642D01*
X4615Y4642D01*
X4615Y4641D01*
X4615Y4641D01*
X4615Y4640D01*
X4616Y4639D01*
X4616Y4639D01*
X4610D01*
X4610Y4639D01*
X4610Y4639D01*
X4610Y4639D01*
X4610Y4640D01*
X4610Y4640D01*
X4610Y4641D01*
X4609Y4642D01*
X4609Y4643D01*
X4609D01*
X4609Y4642D01*
X4609Y4642D01*
X4608Y4642D01*
X4607Y4641D01*
X4606Y4641D01*
X4605Y4640D01*
X4604Y4639D01*
X4603Y4639D01*
X4603Y4639D01*
X4603Y4639D01*
X4602Y4639D01*
X4601Y4638D01*
X4601Y4638D01*
X4600Y4638D01*
X4598Y4638D01*
X4597Y4638D01*
X4597D01*
X4596Y4638D01*
X4596D01*
X4595Y4638D01*
X4594Y4638D01*
X4593Y4638D01*
X4591Y4639D01*
X4590Y4640D01*
X4589Y4640D01*
X4589Y4641D01*
X4589Y4641D01*
X4588Y4641D01*
X4588Y4642D01*
X4587Y4643D01*
X4587Y4644D01*
X4586Y4646D01*
X4586Y4646D01*
X4586Y4647D01*
Y4647D01*
Y4647D01*
X4586Y4648D01*
X4586Y4648D01*
X4586Y4649D01*
X4587Y4650D01*
X4587Y4651D01*
X4587Y4651D01*
X4587Y4651D01*
X4587Y4652D01*
X4588Y4652D01*
X4588Y4653D01*
X4588Y4653D01*
X4589Y4654D01*
X4589Y4654D01*
X4590Y4655D01*
X4590Y4655D01*
X4590Y4655D01*
X4591Y4655D01*
X4591Y4655D01*
X4592Y4656D01*
X4592Y4656D01*
X4593Y4656D01*
X4594Y4656D01*
X4594D01*
X4594Y4656D01*
X4595Y4657D01*
X4595Y4657D01*
X4596Y4657D01*
X4597Y4657D01*
X4598Y4657D01*
X4599Y4657D01*
X4599D01*
X4599Y4657D01*
X4600D01*
X4600Y4657D01*
X4601Y4657D01*
X4601Y4658D01*
X4602Y4658D01*
X4603Y4658D01*
X4604Y4658D01*
X4606Y4658D01*
X4607Y4659D01*
X4608Y4659D01*
X4609Y4659D01*
Y4659D01*
Y4659D01*
X4609Y4660D01*
Y4660D01*
Y4660D01*
Y4661D01*
Y4661D01*
Y4661D01*
Y4661D01*
X4609Y4662D01*
X4609Y4662D01*
X4608Y4663D01*
X4608Y4664D01*
X4608Y4665D01*
X4607Y4665D01*
X4607Y4665D01*
X4607Y4666D01*
X4606Y4666D01*
X4606Y4666D01*
X4605Y4667D01*
X4604Y4667D01*
X4602Y4667D01*
X4601Y4667D01*
X4600D01*
X4600Y4667D01*
X4599Y4667D01*
X4598Y4667D01*
X4597Y4667D01*
X4596Y4666D01*
X4595Y4666D01*
X4595Y4666D01*
X4595Y4666D01*
X4594Y4665D01*
X4594Y4665D01*
X4594Y4664D01*
X4593Y4663D01*
X4593Y4662D01*
X4592Y4661D01*
X4587Y4662D01*
Y4662D01*
X4587Y4662D01*
Y4662D01*
X4587Y4662D01*
X4587Y4663D01*
X4588Y4664D01*
X4588Y4665D01*
X4588Y4666D01*
X4589Y4666D01*
X4589Y4667D01*
X4590Y4667D01*
X4590Y4668D01*
X4590Y4668D01*
X4591Y4669D01*
X4591Y4669D01*
X4592Y4670D01*
X4593Y4670D01*
X4594Y4671D01*
X4594D01*
X4594Y4671D01*
X4595Y4671D01*
X4595Y4671D01*
X4596Y4671D01*
X4596Y4671D01*
X4598Y4671D01*
X4599Y4672D01*
X4600Y4672D01*
X4602Y4672D01*
X4602D01*
X4603Y4672D01*
D02*
G37*
G36*
X4805D02*
X4806Y4672D01*
X4807Y4671D01*
X4808Y4671D01*
X4810Y4671D01*
X4811Y4671D01*
X4811Y4671D01*
X4811Y4671D01*
X4812Y4670D01*
X4812Y4670D01*
X4813Y4670D01*
X4813Y4669D01*
X4814Y4669D01*
X4814Y4668D01*
X4815Y4668D01*
X4815Y4668D01*
X4815Y4668D01*
X4815Y4667D01*
X4815Y4667D01*
X4816Y4666D01*
X4816Y4665D01*
X4816Y4665D01*
Y4664D01*
X4816Y4664D01*
X4816Y4664D01*
X4816Y4663D01*
Y4663D01*
X4816Y4662D01*
X4816Y4661D01*
Y4659D01*
Y4652D01*
Y4652D01*
Y4652D01*
Y4651D01*
Y4651D01*
Y4650D01*
Y4650D01*
X4817Y4648D01*
Y4646D01*
X4817Y4645D01*
X4817Y4644D01*
Y4643D01*
X4817Y4643D01*
X4817Y4642D01*
Y4642D01*
X4817Y4642D01*
X4817Y4642D01*
X4817Y4641D01*
X4817Y4641D01*
X4818Y4640D01*
X4818Y4639D01*
X4818Y4639D01*
X4812D01*
X4812Y4639D01*
X4812Y4639D01*
X4812Y4639D01*
X4812Y4640D01*
X4812Y4640D01*
X4812Y4641D01*
X4812Y4642D01*
X4811Y4643D01*
X4811D01*
X4811Y4642D01*
X4811Y4642D01*
X4810Y4642D01*
X4809Y4641D01*
X4809Y4641D01*
X4808Y4640D01*
X4807Y4639D01*
X4805Y4639D01*
X4805Y4639D01*
X4805Y4639D01*
X4804Y4639D01*
X4804Y4638D01*
X4803Y4638D01*
X4802Y4638D01*
X4800Y4638D01*
X4799Y4638D01*
X4799D01*
X4798Y4638D01*
X4798D01*
X4797Y4638D01*
X4796Y4638D01*
X4795Y4638D01*
X4794Y4639D01*
X4792Y4640D01*
X4791Y4640D01*
X4791Y4641D01*
X4791Y4641D01*
X4790Y4641D01*
X4790Y4642D01*
X4789Y4643D01*
X4789Y4644D01*
X4788Y4646D01*
X4788Y4646D01*
X4788Y4647D01*
Y4647D01*
Y4647D01*
X4788Y4648D01*
X4788Y4648D01*
X4789Y4649D01*
X4789Y4650D01*
X4789Y4651D01*
X4789Y4651D01*
X4789Y4651D01*
X4789Y4652D01*
X4790Y4652D01*
X4790Y4653D01*
X4790Y4653D01*
X4791Y4654D01*
X4791Y4654D01*
X4792Y4655D01*
X4792Y4655D01*
X4792Y4655D01*
X4793Y4655D01*
X4793Y4655D01*
X4794Y4656D01*
X4795Y4656D01*
X4795Y4656D01*
X4796Y4656D01*
X4796D01*
X4796Y4656D01*
X4797Y4657D01*
X4797Y4657D01*
X4798Y4657D01*
X4799Y4657D01*
X4800Y4657D01*
X4801Y4657D01*
X4801D01*
X4801Y4657D01*
X4802D01*
X4802Y4657D01*
X4803Y4657D01*
X4803Y4658D01*
X4804Y4658D01*
X4805Y4658D01*
X4806Y4658D01*
X4808Y4658D01*
X4809Y4659D01*
X4810Y4659D01*
X4811Y4659D01*
Y4659D01*
Y4659D01*
X4811Y4660D01*
Y4660D01*
Y4660D01*
Y4661D01*
Y4661D01*
Y4661D01*
Y4661D01*
X4811Y4662D01*
X4811Y4662D01*
X4811Y4663D01*
X4810Y4664D01*
X4810Y4665D01*
X4809Y4665D01*
X4809Y4665D01*
X4809Y4666D01*
X4808Y4666D01*
X4808Y4666D01*
X4807Y4667D01*
X4806Y4667D01*
X4805Y4667D01*
X4803Y4667D01*
X4802D01*
X4802Y4667D01*
X4801Y4667D01*
X4800Y4667D01*
X4799Y4667D01*
X4798Y4666D01*
X4797Y4666D01*
X4797Y4666D01*
X4797Y4666D01*
X4797Y4665D01*
X4796Y4665D01*
X4796Y4664D01*
X4795Y4663D01*
X4795Y4662D01*
X4795Y4661D01*
X4789Y4662D01*
Y4662D01*
X4789Y4662D01*
Y4662D01*
X4789Y4662D01*
X4790Y4663D01*
X4790Y4664D01*
X4790Y4665D01*
X4791Y4666D01*
X4791Y4666D01*
X4792Y4667D01*
X4792Y4667D01*
X4792Y4668D01*
X4792Y4668D01*
X4793Y4669D01*
X4794Y4669D01*
X4794Y4670D01*
X4795Y4670D01*
X4796Y4671D01*
X4797D01*
X4797Y4671D01*
X4797Y4671D01*
X4797Y4671D01*
X4798Y4671D01*
X4799Y4671D01*
X4800Y4671D01*
X4801Y4672D01*
X4802Y4672D01*
X4804Y4672D01*
X4805D01*
X4805Y4672D01*
D02*
G37*
G36*
X4732Y4683D02*
X4733D01*
X4734Y4683D01*
X4735Y4683D01*
X4737Y4683D01*
X4738Y4683D01*
X4739Y4682D01*
X4740Y4682D01*
X4740D01*
X4740Y4682D01*
X4740Y4682D01*
X4741Y4682D01*
X4742Y4681D01*
X4742Y4681D01*
X4743Y4680D01*
X4744Y4679D01*
X4745Y4678D01*
Y4678D01*
X4745Y4678D01*
X4745Y4677D01*
X4745Y4677D01*
X4746Y4676D01*
X4746Y4675D01*
X4746Y4674D01*
X4747Y4672D01*
X4747Y4671D01*
Y4671D01*
Y4671D01*
Y4671D01*
X4747Y4670D01*
Y4670D01*
X4747Y4669D01*
X4746Y4668D01*
X4746Y4667D01*
X4745Y4666D01*
X4745Y4664D01*
X4744Y4664D01*
X4744Y4663D01*
X4743Y4663D01*
X4743Y4663D01*
X4743Y4663D01*
X4743Y4662D01*
X4743Y4662D01*
X4742Y4662D01*
X4742Y4662D01*
X4741Y4661D01*
X4741Y4661D01*
X4740Y4661D01*
X4739Y4660D01*
X4738Y4660D01*
X4737Y4660D01*
X4736Y4659D01*
X4735Y4659D01*
X4734Y4659D01*
X4734Y4659D01*
X4734Y4659D01*
X4735Y4658D01*
X4735Y4658D01*
X4736Y4657D01*
X4737Y4657D01*
X4738Y4657D01*
X4738Y4657D01*
X4738Y4656D01*
X4739Y4656D01*
X4739Y4655D01*
X4740Y4654D01*
X4741Y4653D01*
X4742Y4652D01*
X4742Y4651D01*
X4750Y4639D01*
X4743D01*
X4737Y4648D01*
Y4648D01*
X4737Y4648D01*
X4737Y4648D01*
X4736Y4648D01*
X4736Y4649D01*
X4735Y4650D01*
X4735Y4651D01*
X4734Y4652D01*
X4733Y4653D01*
X4733Y4654D01*
X4733Y4654D01*
X4732Y4654D01*
X4732Y4655D01*
X4732Y4655D01*
X4731Y4656D01*
X4730Y4657D01*
X4730Y4657D01*
X4730Y4657D01*
X4729Y4657D01*
X4729Y4657D01*
X4729Y4657D01*
X4728Y4658D01*
X4728Y4658D01*
X4727Y4658D01*
X4727D01*
X4727Y4658D01*
X4726D01*
X4726Y4658D01*
X4726Y4658D01*
X4725D01*
X4724Y4658D01*
X4717D01*
Y4639D01*
X4711D01*
Y4683D01*
X4732D01*
X4732Y4683D01*
D02*
G37*
%LPC*%
G36*
X4431Y4667D02*
X4430D01*
X4430Y4667D01*
X4429Y4667D01*
X4428Y4667D01*
X4427Y4667D01*
X4426Y4666D01*
X4425Y4665D01*
X4424Y4665D01*
X4424Y4664D01*
X4424Y4664D01*
X4423Y4664D01*
X4423Y4663D01*
X4422Y4662D01*
X4422Y4661D01*
X4422Y4659D01*
X4421Y4658D01*
X4440D01*
Y4658D01*
Y4658D01*
X4439Y4658D01*
Y4659D01*
X4439Y4659D01*
X4439Y4660D01*
X4439Y4661D01*
X4439Y4662D01*
X4438Y4663D01*
X4437Y4664D01*
Y4664D01*
X4437Y4664D01*
X4437Y4664D01*
X4436Y4665D01*
X4436Y4666D01*
X4435Y4666D01*
X4433Y4667D01*
X4432Y4667D01*
X4431Y4667D01*
X4431Y4667D01*
D02*
G37*
G36*
X4635D02*
X4635D01*
X4634Y4667D01*
X4634Y4667D01*
X4633Y4667D01*
X4632Y4666D01*
X4631Y4666D01*
X4630Y4665D01*
X4629Y4665D01*
X4629Y4664D01*
Y4664D01*
X4629Y4664D01*
X4629Y4664D01*
X4629Y4664D01*
X4628Y4663D01*
X4628Y4663D01*
X4628Y4662D01*
X4628Y4662D01*
X4627Y4661D01*
X4627Y4661D01*
X4627Y4660D01*
X4627Y4659D01*
X4627Y4658D01*
X4627Y4657D01*
X4626Y4656D01*
Y4655D01*
Y4655D01*
Y4654D01*
Y4654D01*
X4627Y4654D01*
Y4653D01*
X4627Y4653D01*
X4627Y4651D01*
X4627Y4650D01*
X4628Y4648D01*
X4628Y4647D01*
X4629Y4646D01*
X4629Y4645D01*
X4629D01*
X4629Y4645D01*
X4629Y4645D01*
X4630Y4644D01*
X4631Y4644D01*
X4632Y4643D01*
X4633Y4643D01*
X4634Y4642D01*
X4635Y4642D01*
X4635Y4642D01*
X4636D01*
X4636Y4642D01*
X4637Y4642D01*
X4637Y4643D01*
X4638Y4643D01*
X4639Y4644D01*
X4640Y4644D01*
X4641Y4645D01*
X4641Y4645D01*
Y4645D01*
X4642Y4645D01*
X4642Y4646D01*
X4642Y4646D01*
X4642Y4646D01*
X4642Y4646D01*
X4642Y4647D01*
X4643Y4648D01*
X4643Y4648D01*
X4643Y4649D01*
X4643Y4650D01*
X4644Y4650D01*
X4644Y4651D01*
X4644Y4652D01*
X4644Y4653D01*
Y4654D01*
Y4654D01*
Y4655D01*
Y4655D01*
X4644Y4655D01*
Y4656D01*
X4644Y4657D01*
X4644Y4657D01*
X4644Y4658D01*
X4643Y4660D01*
X4643Y4661D01*
X4642Y4663D01*
X4642Y4663D01*
X4641Y4664D01*
Y4664D01*
X4641Y4664D01*
X4641Y4665D01*
X4640Y4665D01*
X4640Y4666D01*
X4639Y4666D01*
X4638Y4667D01*
X4636Y4667D01*
X4636Y4667D01*
X4635Y4667D01*
D02*
G37*
G36*
X4731Y4678D02*
X4717D01*
Y4664D01*
X4730D01*
X4731Y4664D01*
X4732Y4664D01*
X4733Y4664D01*
X4734Y4664D01*
X4735Y4664D01*
X4736Y4664D01*
X4736Y4664D01*
X4736Y4664D01*
X4737Y4665D01*
X4737Y4665D01*
X4738Y4665D01*
X4738Y4666D01*
X4739Y4666D01*
X4739Y4667D01*
X4739Y4667D01*
X4740Y4667D01*
X4740Y4668D01*
X4740Y4668D01*
X4740Y4669D01*
X4740Y4669D01*
X4740Y4670D01*
X4741Y4671D01*
Y4671D01*
Y4671D01*
X4740Y4672D01*
X4740Y4672D01*
X4740Y4673D01*
X4740Y4674D01*
X4740Y4675D01*
X4739Y4675D01*
X4738Y4676D01*
X4738Y4676D01*
X4738Y4677D01*
X4737Y4677D01*
X4736Y4677D01*
X4735Y4678D01*
X4734Y4678D01*
X4733Y4678D01*
X4731Y4678D01*
D02*
G37*
G36*
X4769Y4667D02*
X4768D01*
X4768Y4667D01*
X4767Y4667D01*
X4766Y4667D01*
X4765Y4667D01*
X4764Y4666D01*
X4763Y4665D01*
X4762Y4665D01*
X4762Y4664D01*
X4762Y4664D01*
X4761Y4664D01*
X4761Y4663D01*
X4760Y4662D01*
X4760Y4661D01*
X4760Y4659D01*
X4759Y4658D01*
X4778D01*
Y4658D01*
Y4658D01*
X4777Y4658D01*
Y4659D01*
X4777Y4659D01*
X4777Y4660D01*
X4777Y4661D01*
X4777Y4662D01*
X4776Y4663D01*
X4775Y4664D01*
Y4664D01*
X4775Y4664D01*
X4775Y4664D01*
X4774Y4665D01*
X4774Y4666D01*
X4773Y4666D01*
X4771Y4667D01*
X4770Y4667D01*
X4769Y4667D01*
X4769Y4667D01*
D02*
G37*
G36*
X4671D02*
X4671D01*
X4670Y4667D01*
X4670Y4667D01*
X4669Y4667D01*
X4668Y4667D01*
X4667Y4666D01*
X4666Y4665D01*
X4665Y4665D01*
X4665Y4664D01*
X4664Y4664D01*
X4664Y4664D01*
X4663Y4663D01*
X4663Y4662D01*
X4662Y4661D01*
X4662Y4659D01*
X4662Y4658D01*
X4680D01*
Y4658D01*
Y4658D01*
X4680Y4658D01*
Y4659D01*
X4680Y4659D01*
X4680Y4660D01*
X4679Y4661D01*
X4679Y4662D01*
X4678Y4663D01*
X4678Y4664D01*
Y4664D01*
X4678Y4664D01*
X4677Y4664D01*
X4677Y4665D01*
X4676Y4666D01*
X4675Y4666D01*
X4674Y4667D01*
X4673Y4667D01*
X4672Y4667D01*
X4671Y4667D01*
D02*
G37*
G36*
X4811Y4655D02*
X4811D01*
X4811Y4655D01*
X4811Y4655D01*
X4810Y4655D01*
X4810Y4655D01*
X4810Y4654D01*
X4809Y4654D01*
X4809Y4654D01*
X4808Y4654D01*
X4807Y4654D01*
X4807Y4654D01*
X4806Y4653D01*
X4805Y4653D01*
X4804Y4653D01*
X4803Y4653D01*
X4802Y4653D01*
X4802D01*
X4801Y4653D01*
X4801Y4653D01*
X4800Y4652D01*
X4799Y4652D01*
X4798Y4652D01*
X4798Y4652D01*
X4797Y4652D01*
X4797D01*
X4797Y4651D01*
X4797Y4651D01*
X4796Y4651D01*
X4795Y4651D01*
X4795Y4650D01*
Y4650D01*
X4795Y4650D01*
X4795Y4649D01*
X4795Y4649D01*
X4794Y4649D01*
X4794Y4648D01*
X4794Y4648D01*
X4794Y4647D01*
Y4647D01*
Y4647D01*
X4794Y4646D01*
X4794Y4646D01*
X4795Y4645D01*
X4795Y4645D01*
X4795Y4644D01*
X4796Y4644D01*
X4796Y4643D01*
X4796Y4643D01*
X4796Y4643D01*
X4797Y4643D01*
X4798Y4643D01*
X4799Y4642D01*
X4800Y4642D01*
X4801Y4642D01*
X4801D01*
X4802Y4642D01*
X4803Y4642D01*
X4803Y4642D01*
X4804Y4643D01*
X4805Y4643D01*
X4806Y4643D01*
X4806Y4644D01*
X4807Y4644D01*
X4807Y4644D01*
X4808Y4645D01*
X4808Y4645D01*
X4809Y4646D01*
X4809Y4646D01*
X4810Y4647D01*
X4810Y4647D01*
X4810Y4648D01*
X4810Y4648D01*
X4810Y4649D01*
X4811Y4649D01*
X4811Y4650D01*
X4811Y4651D01*
X4811Y4653D01*
X4811Y4655D01*
D02*
G37*
G36*
X4729Y4868D02*
X4688D01*
Y4822D01*
X4723D01*
X4728Y4822D01*
X4734Y4822D01*
X4739Y4823D01*
X4742Y4823D01*
X4744Y4823D01*
X4746Y4824D01*
X4747Y4824D01*
X4747D01*
X4748Y4825D01*
X4749Y4825D01*
X4751Y4826D01*
X4754Y4828D01*
X4756Y4830D01*
X4757Y4832D01*
X4757Y4832D01*
X4758Y4833D01*
X4758Y4834D01*
X4759Y4835D01*
X4760Y4837D01*
X4760Y4840D01*
X4761Y4842D01*
X4761Y4845D01*
Y4846D01*
Y4847D01*
X4761Y4848D01*
X4760Y4850D01*
X4760Y4853D01*
X4759Y4855D01*
X4758Y4857D01*
X4756Y4860D01*
X4756Y4860D01*
X4755Y4861D01*
X4754Y4861D01*
X4752Y4863D01*
X4751Y4864D01*
X4748Y4865D01*
X4745Y4866D01*
X4742Y4867D01*
X4742D01*
X4741Y4867D01*
X4740D01*
X4737Y4867D01*
X4732D01*
X4729Y4868D01*
D02*
G37*
G36*
X4473Y4655D02*
X4473D01*
X4473Y4655D01*
X4473Y4655D01*
X4472Y4655D01*
X4472Y4655D01*
X4472Y4654D01*
X4471Y4654D01*
X4471Y4654D01*
X4470Y4654D01*
X4469Y4654D01*
X4469Y4654D01*
X4468Y4653D01*
X4467Y4653D01*
X4466Y4653D01*
X4465Y4653D01*
X4464Y4653D01*
X4464D01*
X4463Y4653D01*
X4463Y4653D01*
X4462Y4652D01*
X4461Y4652D01*
X4460Y4652D01*
X4460Y4652D01*
X4459Y4652D01*
X4459D01*
X4459Y4651D01*
X4459Y4651D01*
X4458Y4651D01*
X4458Y4651D01*
X4457Y4650D01*
Y4650D01*
X4457Y4650D01*
X4457Y4649D01*
X4457Y4649D01*
X4456Y4649D01*
X4456Y4648D01*
X4456Y4648D01*
X4456Y4647D01*
Y4647D01*
Y4647D01*
X4456Y4646D01*
X4456Y4646D01*
X4457Y4645D01*
X4457Y4645D01*
X4457Y4644D01*
X4458Y4644D01*
X4458Y4643D01*
X4458Y4643D01*
X4458Y4643D01*
X4459Y4643D01*
X4460Y4643D01*
X4461Y4642D01*
X4462Y4642D01*
X4463Y4642D01*
X4463D01*
X4464Y4642D01*
X4465Y4642D01*
X4465Y4642D01*
X4466Y4643D01*
X4467Y4643D01*
X4468Y4643D01*
X4468Y4644D01*
X4469Y4644D01*
X4469Y4644D01*
X4470Y4645D01*
X4470Y4645D01*
X4471Y4646D01*
X4471Y4646D01*
X4472Y4647D01*
X4472Y4647D01*
X4472Y4648D01*
X4472Y4648D01*
X4472Y4649D01*
X4473Y4649D01*
X4473Y4650D01*
X4473Y4651D01*
X4473Y4653D01*
X4473Y4655D01*
D02*
G37*
G36*
X4609D02*
X4609D01*
X4609Y4655D01*
X4608Y4655D01*
X4608Y4655D01*
X4608Y4655D01*
X4608Y4654D01*
X4607Y4654D01*
X4607Y4654D01*
X4606Y4654D01*
X4605Y4654D01*
X4605Y4654D01*
X4604Y4653D01*
X4603Y4653D01*
X4602Y4653D01*
X4601Y4653D01*
X4600Y4653D01*
X4600D01*
X4599Y4653D01*
X4599Y4653D01*
X4598Y4652D01*
X4597Y4652D01*
X4596Y4652D01*
X4596Y4652D01*
X4595Y4652D01*
X4595D01*
X4595Y4651D01*
X4594Y4651D01*
X4594Y4651D01*
X4593Y4651D01*
X4593Y4650D01*
Y4650D01*
X4593Y4650D01*
X4593Y4649D01*
X4592Y4649D01*
X4592Y4649D01*
X4592Y4648D01*
X4592Y4648D01*
X4592Y4647D01*
Y4647D01*
Y4647D01*
X4592Y4646D01*
X4592Y4646D01*
X4592Y4645D01*
X4593Y4645D01*
X4593Y4644D01*
X4594Y4644D01*
X4594Y4643D01*
X4594Y4643D01*
X4594Y4643D01*
X4595Y4643D01*
X4596Y4643D01*
X4596Y4642D01*
X4597Y4642D01*
X4599Y4642D01*
X4599D01*
X4600Y4642D01*
X4600Y4642D01*
X4601Y4642D01*
X4602Y4643D01*
X4603Y4643D01*
X4604Y4643D01*
X4604Y4644D01*
X4605Y4644D01*
X4605Y4644D01*
X4606Y4645D01*
X4606Y4645D01*
X4607Y4646D01*
X4607Y4646D01*
X4608Y4647D01*
X4608Y4647D01*
X4608Y4648D01*
X4608Y4648D01*
X4608Y4649D01*
X4608Y4649D01*
X4609Y4650D01*
X4609Y4651D01*
X4609Y4653D01*
X4609Y4655D01*
D02*
G37*
G36*
X5789Y4825D02*
X5787D01*
X5785Y4825D01*
X5783Y4824D01*
X5780Y4823D01*
X5777Y4822D01*
X5774Y4820D01*
X5771Y4817D01*
X5771Y4816D01*
X5770Y4815D01*
X5768Y4813D01*
X5767Y4811D01*
X5766Y4808D01*
X5765Y4804D01*
X5764Y4799D01*
X5764Y4794D01*
X5815D01*
Y4795D01*
Y4795D01*
Y4796D01*
X5815Y4797D01*
X5814Y4800D01*
X5814Y4803D01*
X5813Y4806D01*
X5812Y4810D01*
X5809Y4814D01*
X5807Y4817D01*
X5807Y4817D01*
X5806Y4818D01*
X5804Y4820D01*
X5802Y4821D01*
X5800Y4822D01*
X5796Y4824D01*
X5793Y4825D01*
X5789Y4825D01*
D02*
G37*
G36*
X6253D02*
X6253D01*
X6251Y4825D01*
X6249Y4825D01*
X6246Y4824D01*
X6243Y4823D01*
X6239Y4821D01*
X6236Y4819D01*
X6233Y4815D01*
X6233Y4815D01*
X6232Y4813D01*
X6231Y4811D01*
X6229Y4808D01*
X6228Y4804D01*
X6226Y4799D01*
X6225Y4793D01*
X6225Y4786D01*
Y4786D01*
Y4785D01*
Y4784D01*
X6225Y4783D01*
Y4781D01*
X6226Y4779D01*
X6226Y4774D01*
X6227Y4770D01*
X6229Y4765D01*
X6230Y4760D01*
X6233Y4756D01*
X6233Y4755D01*
X6235Y4754D01*
X6236Y4753D01*
X6238Y4751D01*
X6241Y4749D01*
X6245Y4748D01*
X6249Y4747D01*
X6253Y4746D01*
X6253D01*
X6255Y4746D01*
X6257Y4747D01*
X6260Y4748D01*
X6264Y4749D01*
X6267Y4750D01*
X6271Y4753D01*
X6274Y4756D01*
X6274Y4757D01*
X6275Y4758D01*
X6277Y4760D01*
X6278Y4763D01*
X6280Y4767D01*
X6281Y4772D01*
X6282Y4778D01*
X6283Y4785D01*
Y4785D01*
Y4786D01*
Y4787D01*
Y4788D01*
X6282Y4790D01*
X6282Y4792D01*
X6282Y4797D01*
X6281Y4801D01*
X6279Y4806D01*
X6277Y4811D01*
X6274Y4815D01*
X6274Y4816D01*
X6273Y4817D01*
X6271Y4818D01*
X6269Y4820D01*
X6266Y4822D01*
X6262Y4823D01*
X6258Y4825D01*
X6253Y4825D01*
D02*
G37*
G36*
X5278D02*
X5278D01*
X5276Y4825D01*
X5274Y4825D01*
X5271Y4824D01*
X5268Y4823D01*
X5264Y4821D01*
X5261Y4819D01*
X5258Y4815D01*
X5257Y4815D01*
X5256Y4813D01*
X5255Y4811D01*
X5254Y4808D01*
X5252Y4804D01*
X5251Y4799D01*
X5250Y4793D01*
X5250Y4786D01*
Y4786D01*
Y4785D01*
Y4784D01*
X5250Y4783D01*
Y4781D01*
X5250Y4779D01*
X5251Y4774D01*
X5252Y4770D01*
X5253Y4765D01*
X5255Y4760D01*
X5258Y4756D01*
X5258Y4755D01*
X5259Y4754D01*
X5261Y4753D01*
X5263Y4751D01*
X5266Y4749D01*
X5269Y4748D01*
X5273Y4747D01*
X5277Y4746D01*
X5278D01*
X5279Y4746D01*
X5282Y4747D01*
X5285Y4748D01*
X5288Y4749D01*
X5292Y4750D01*
X5295Y4753D01*
X5299Y4756D01*
X5299Y4757D01*
X5300Y4758D01*
X5301Y4760D01*
X5303Y4763D01*
X5305Y4767D01*
X5306Y4772D01*
X5307Y4778D01*
X5307Y4785D01*
Y4785D01*
Y4786D01*
Y4787D01*
Y4788D01*
X5307Y4790D01*
X5307Y4792D01*
X5306Y4797D01*
X5305Y4801D01*
X5304Y4806D01*
X5302Y4811D01*
X5299Y4815D01*
X5299Y4816D01*
X5298Y4817D01*
X5296Y4818D01*
X5293Y4820D01*
X5290Y4822D01*
X5287Y4823D01*
X5283Y4825D01*
X5278Y4825D01*
D02*
G37*
G36*
X5650D02*
X5648D01*
X5646Y4825D01*
X5643Y4824D01*
X5640Y4823D01*
X5637Y4822D01*
X5634Y4820D01*
X5631Y4817D01*
X5631Y4816D01*
X5630Y4815D01*
X5629Y4813D01*
X5628Y4811D01*
X5626Y4808D01*
X5625Y4804D01*
X5624Y4799D01*
X5624Y4794D01*
X5675D01*
Y4795D01*
Y4795D01*
Y4796D01*
X5675Y4797D01*
X5675Y4800D01*
X5674Y4803D01*
X5673Y4806D01*
X5672Y4810D01*
X5670Y4814D01*
X5668Y4817D01*
X5667Y4817D01*
X5666Y4818D01*
X5665Y4820D01*
X5663Y4821D01*
X5660Y4822D01*
X5657Y4824D01*
X5654Y4825D01*
X5650Y4825D01*
D02*
G37*
G36*
X4395Y4667D02*
X4394D01*
X4394Y4667D01*
X4393Y4667D01*
X4392Y4667D01*
X4391Y4666D01*
X4390Y4666D01*
X4389Y4665D01*
X4389Y4665D01*
X4388Y4664D01*
Y4664D01*
X4388Y4664D01*
X4388Y4664D01*
X4388Y4664D01*
X4388Y4663D01*
X4388Y4663D01*
X4387Y4662D01*
X4387Y4662D01*
X4387Y4661D01*
X4387Y4661D01*
X4387Y4660D01*
X4386Y4659D01*
X4386Y4658D01*
X4386Y4657D01*
X4386Y4656D01*
Y4655D01*
Y4655D01*
Y4654D01*
Y4654D01*
X4386Y4654D01*
Y4653D01*
X4386Y4653D01*
X4386Y4651D01*
X4387Y4650D01*
X4387Y4648D01*
X4388Y4647D01*
X4388Y4646D01*
X4389Y4645D01*
X4389D01*
X4389Y4645D01*
X4389Y4645D01*
X4390Y4644D01*
X4390Y4644D01*
X4391Y4643D01*
X4392Y4643D01*
X4393Y4642D01*
X4394Y4642D01*
X4395Y4642D01*
X4395D01*
X4395Y4642D01*
X4396Y4642D01*
X4397Y4643D01*
X4398Y4643D01*
X4399Y4644D01*
X4400Y4644D01*
X4400Y4645D01*
X4401Y4645D01*
Y4645D01*
X4401Y4645D01*
X4401Y4646D01*
X4401Y4646D01*
X4402Y4646D01*
X4402Y4646D01*
X4402Y4647D01*
X4402Y4648D01*
X4402Y4648D01*
X4403Y4649D01*
X4403Y4650D01*
X4403Y4650D01*
X4403Y4651D01*
X4403Y4652D01*
X4404Y4653D01*
Y4654D01*
Y4654D01*
Y4655D01*
Y4655D01*
X4403Y4655D01*
Y4656D01*
X4403Y4657D01*
X4403Y4657D01*
X4403Y4658D01*
X4403Y4660D01*
X4402Y4661D01*
X4402Y4663D01*
X4401Y4663D01*
X4401Y4664D01*
Y4664D01*
X4401Y4664D01*
X4400Y4665D01*
X4400Y4665D01*
X4399Y4666D01*
X4398Y4666D01*
X4397Y4667D01*
X4396Y4667D01*
X4395Y4667D01*
X4395Y4667D01*
D02*
G37*
%LPD*%
D43*
X6216Y6266D02*
G03*
X6216Y6266I-35J0D01*
G01*
X8773Y2165D02*
G03*
X8773Y2165I-111J0D01*
G01*
X2080D02*
G03*
X2080Y2165I-111J0D01*
G01*
X8773Y8075D02*
G03*
X8773Y8075I-111J0D01*
G01*
X2080Y8071D02*
G03*
X2080Y8071I-111J0D01*
G01*
X4006Y7500D02*
G03*
X4006Y7500I-118J0D01*
G01*
Y4666D02*
G03*
X4006Y4666I-118J0D01*
G01*
X8809D02*
G03*
X8809Y4666I-118J0D01*
G01*
Y7500D02*
G03*
X8809Y7500I-118J0D01*
G01*
X4805Y4317D02*
X4848D01*
X4805Y4404D02*
X4848D01*
Y4317D02*
Y4402D01*
X4659Y4404D02*
X4703D01*
X4659Y4403D02*
X4659D01*
Y4317D02*
X4703D01*
X4659Y4318D02*
X4659Y4318D01*
X4659Y4317D02*
Y4404D01*
X6774Y4356D02*
X6817D01*
X6774Y4443D02*
X6817D01*
Y4356D02*
Y4441D01*
X6628Y4443D02*
X6671D01*
X6628Y4442D02*
X6628D01*
Y4356D02*
X6671D01*
X6628Y4357D02*
X6628Y4357D01*
X6628Y4356D02*
Y4443D01*
X3597Y6261D02*
X3683D01*
X3598Y6261D02*
X3598Y6261D01*
X3597Y6217D02*
Y6261D01*
X3682D02*
Y6261D01*
X3683Y6217D02*
Y6261D01*
X3597Y6072D02*
X3681D01*
X3683D02*
Y6115D01*
X3597Y6072D02*
Y6115D01*
Y5850D02*
Y5894D01*
X3683Y5850D02*
Y5894D01*
X3597Y5850D02*
X3681D01*
X3683Y5996D02*
Y6039D01*
X3682D02*
Y6039D01*
X3597Y5996D02*
Y6039D01*
X3598D02*
X3598Y6039D01*
X3597D02*
X3683D01*
X3686Y5314D02*
X3716D01*
X3686Y5434D02*
X3716D01*
X3573Y5423D02*
Y5502D01*
X3494Y5423D02*
Y5502D01*
X3686Y5611D02*
X3716D01*
X3686Y5491D02*
X3716D01*
X6978Y7886D02*
Y7929D01*
X6892Y7886D02*
Y7929D01*
X6894D02*
X6978D01*
X6892Y7740D02*
Y7783D01*
X6893Y7740D02*
Y7740D01*
X6978D02*
Y7783D01*
X6977Y7740D02*
X6977Y7740D01*
X6892Y7740D02*
X6978D01*
X4459Y5571D02*
X4636D01*
Y5453D02*
Y5571D01*
X4459Y5453D02*
X4636D01*
X4459D02*
Y5571D01*
X2268Y2988D02*
Y3075D01*
Y2989D02*
X2268Y2989D01*
Y2988D02*
X2311D01*
X2268Y3074D02*
X2268D01*
Y3075D02*
X2311D01*
X2457Y2988D02*
Y3073D01*
X2413Y3075D02*
X2457D01*
X2413Y2988D02*
X2457D01*
X3661Y4187D02*
X3740D01*
X3661Y4108D02*
X3740D01*
X3161Y3953D02*
X3205D01*
X3161Y4039D02*
X3205D01*
Y3953D02*
Y4037D01*
X3016Y4039D02*
X3059D01*
X3016Y4038D02*
X3016D01*
Y3953D02*
X3059D01*
X3016Y3954D02*
X3016Y3954D01*
X3016Y3953D02*
Y4039D01*
X6407Y5256D02*
X6507D01*
X6407Y4956D02*
X6507D01*
X6407D02*
Y5256D01*
X6507Y4956D02*
Y5256D01*
X7244Y6870D02*
Y6949D01*
X7323Y6870D02*
Y6949D01*
X4670Y4178D02*
Y4257D01*
X4749Y4178D02*
Y4257D01*
X4203Y4252D02*
Y4331D01*
X4281Y4252D02*
Y4331D01*
X6250Y4252D02*
Y4331D01*
X6171Y4252D02*
Y4331D01*
X2110Y2346D02*
X2154D01*
X2110Y2260D02*
X2154D01*
X2110Y2262D02*
Y2346D01*
X2256Y2260D02*
X2299D01*
Y2261D02*
X2299D01*
X2256Y2346D02*
X2299D01*
Y2345D02*
X2299Y2345D01*
Y2260D02*
Y2346D01*
X2331Y2169D02*
X2374D01*
X2331Y2083D02*
X2374D01*
X2331Y2085D02*
Y2169D01*
X2477Y2083D02*
X2520D01*
Y2084D02*
X2520D01*
X2477Y2169D02*
X2520D01*
Y2168D02*
X2520Y2168D01*
Y2083D02*
Y2169D01*
X2233Y3758D02*
X2410D01*
Y3639D02*
Y3758D01*
X2233Y3639D02*
X2410D01*
X2233D02*
Y3758D01*
X2012Y3909D02*
Y3953D01*
X1925Y3909D02*
Y3953D01*
X1927D02*
X2012D01*
X1925Y3764D02*
Y3807D01*
X1926Y3764D02*
Y3764D01*
X2012D02*
Y3807D01*
X2011Y3764D02*
X2011Y3764D01*
X1925Y3764D02*
X2012D01*
X2583Y3724D02*
X2626D01*
X2583Y3638D02*
X2626D01*
X2583Y3640D02*
Y3724D01*
X2728Y3638D02*
X2772D01*
Y3639D02*
X2772D01*
X2728Y3724D02*
X2772D01*
Y3723D02*
X2772Y3723D01*
Y3638D02*
Y3724D01*
X3213Y6795D02*
X3256D01*
X3213Y6709D02*
X3256D01*
X3213Y6711D02*
Y6795D01*
X3358Y6709D02*
X3402D01*
Y6710D02*
X3402D01*
X3358Y6795D02*
X3402D01*
Y6794D02*
X3402Y6794D01*
Y6709D02*
Y6795D01*
X4248Y7752D02*
X4335D01*
X4249Y7752D02*
X4249Y7752D01*
X4248Y7709D02*
Y7752D01*
X4334D02*
Y7752D01*
X4335Y7709D02*
Y7752D01*
X4248Y7563D02*
X4333D01*
X4335D02*
Y7606D01*
X4248Y7563D02*
Y7606D01*
X8071Y3780D02*
X9409D01*
Y3228D02*
Y3780D01*
X8071Y3228D02*
X9409D01*
X8071D02*
Y3780D01*
X8858Y3228D02*
Y3780D01*
X3533Y4439D02*
Y4557D01*
Y4439D02*
X3711D01*
Y4557D01*
X3533D02*
X3711D01*
X3680Y5648D02*
X3760D01*
X3680Y5828D02*
X3760D01*
X7864Y6575D02*
Y6693D01*
Y6575D02*
X8041D01*
Y6693D01*
X7864D02*
X8041D01*
X6547Y6719D02*
X6591D01*
X6547Y6805D02*
X6591D01*
Y6719D02*
Y6803D01*
X6402Y6805D02*
X6445D01*
X6402Y6804D02*
X6402D01*
Y6719D02*
X6445D01*
X6402Y6719D02*
X6402Y6719D01*
X6402Y6719D02*
Y6805D01*
Y6620D02*
Y6707D01*
Y6621D02*
X6402Y6621D01*
Y6620D02*
X6445D01*
X6402Y6706D02*
X6402D01*
Y6707D02*
X6445D01*
X6591Y6620D02*
Y6705D01*
X6547Y6707D02*
X6591D01*
X6547Y6620D02*
X6591D01*
X4674Y7686D02*
X4874D01*
X4674Y7786D02*
X4874D01*
X4674Y7686D02*
Y7786D01*
X4874Y7686D02*
Y7786D01*
X5354Y8179D02*
X5502Y8031D01*
Y7648D02*
Y8031D01*
X4970Y7648D02*
Y8031D01*
X5118Y8179D01*
X5354D02*
X5502Y8031D01*
X4970Y7648D02*
X5177D01*
X5295D02*
X5502D01*
X5295Y8179D02*
X5354D01*
X5118D02*
X5177D01*
X5669D02*
X5728D01*
X5847D02*
X5906D01*
X5847Y7648D02*
X6053D01*
X5522D02*
X5728D01*
X5906Y8179D02*
X6053Y8031D01*
X5522D02*
X5669Y8179D01*
X5522Y7648D02*
Y8031D01*
X6053Y7648D02*
Y8031D01*
X5906Y8179D02*
X6053Y8031D01*
X6457Y8179D02*
X6604Y8031D01*
Y7648D02*
Y8031D01*
X6073Y7648D02*
Y8031D01*
X6220Y8179D01*
X6457D02*
X6604Y8031D01*
X6073Y7648D02*
X6279D01*
X6398D02*
X6604D01*
X6398Y8179D02*
X6457D01*
X6220D02*
X6279D01*
X5121Y7470D02*
X5179D01*
X5298D02*
X5357D01*
X5298Y6939D02*
X5504D01*
X4973D02*
X5179D01*
X5357Y7470D02*
X5504Y7323D01*
X4973D02*
X5121Y7470D01*
X4973Y6939D02*
Y7323D01*
X5504Y6939D02*
Y7323D01*
X5357Y7470D02*
X5504Y7323D01*
X5906Y7470D02*
X6053Y7323D01*
Y6939D02*
Y7323D01*
X5522Y6939D02*
Y7323D01*
X5669Y7470D01*
X5906D02*
X6053Y7323D01*
X5522Y6939D02*
X5728D01*
X5847D02*
X6053D01*
X5847Y7470D02*
X5906D01*
X5669D02*
X5728D01*
X6220Y7470D02*
X6279D01*
X6398D02*
X6457D01*
X6398Y6939D02*
X6604D01*
X6073D02*
X6279D01*
X6457Y7470D02*
X6604Y7323D01*
X6073D02*
X6220Y7470D01*
X6073Y6939D02*
Y7323D01*
X6604Y6939D02*
Y7323D01*
X6457Y7470D02*
X6604Y7323D01*
X1772Y7362D02*
Y7913D01*
X2559Y7362D02*
Y7913D01*
X1220D02*
X2559D01*
X1220Y7362D02*
Y7913D01*
Y7362D02*
X2559D01*
X1220Y6614D02*
X2559D01*
X1220D02*
Y7165D01*
X2559D01*
Y6614D02*
Y7165D01*
X1772Y6614D02*
Y7165D01*
Y5709D02*
Y6260D01*
X2559Y5709D02*
Y6260D01*
X1220D02*
X2559D01*
X1220Y5709D02*
Y6260D01*
Y5709D02*
X2559D01*
X1220Y4961D02*
X2559D01*
X1220D02*
Y5512D01*
X2559D01*
Y4961D02*
Y5512D01*
X1772Y4961D02*
Y5512D01*
X2413Y4563D02*
X2457D01*
X2413Y4650D02*
X2457D01*
Y4563D02*
Y4648D01*
X2268Y4650D02*
X2311D01*
X2268Y4649D02*
X2268D01*
Y4563D02*
X2311D01*
X2268Y4564D02*
X2268Y4564D01*
X2268Y4563D02*
Y4650D01*
X2859Y3931D02*
Y3956D01*
X2559Y3931D02*
Y3956D01*
X2859Y4656D02*
Y4681D01*
X2559Y4656D02*
Y4681D01*
X2859Y4156D02*
Y4456D01*
X2559Y4156D02*
Y4456D01*
Y3931D02*
X2859D01*
X2559Y4681D02*
X2859D01*
X3205Y4051D02*
Y4138D01*
X3205Y4137D02*
X3205Y4137D01*
X3161Y4138D02*
X3205D01*
Y4052D02*
X3205D01*
X3161Y4051D02*
X3205D01*
X3016Y4053D02*
Y4138D01*
Y4051D02*
X3059D01*
X3016Y4138D02*
X3059D01*
X3110Y4264D02*
X3189D01*
X3110Y4185D02*
X3189D01*
X2952Y4370D02*
X3032D01*
X2952Y4291D02*
X3032D01*
X3189Y4409D02*
X3268D01*
X3189Y4488D02*
X3268D01*
X3661Y4291D02*
X3740D01*
X3661Y4213D02*
X3740D01*
X7000Y3465D02*
Y3544D01*
X7079Y3465D02*
Y3544D01*
X2563Y3106D02*
X2863D01*
X2563Y2356D02*
X2863D01*
X2563Y2581D02*
Y2881D01*
X2863Y2581D02*
Y2881D01*
X2563Y3081D02*
Y3106D01*
X2863Y3081D02*
Y3106D01*
X2563Y2356D02*
Y2381D01*
X2863Y2356D02*
Y2381D01*
X2957Y2815D02*
X3036D01*
X2957Y2894D02*
X3036D01*
X3114Y2709D02*
X3194D01*
X3114Y2787D02*
X3194D01*
X3016Y2661D02*
X3059D01*
X3016Y2575D02*
X3059D01*
X3016Y2577D02*
Y2661D01*
X3161Y2575D02*
X3205D01*
Y2576D02*
X3205D01*
X3161Y2661D02*
X3205D01*
Y2660D02*
X3205Y2660D01*
Y2575D02*
Y2661D01*
X3012Y2776D02*
X3051D01*
X3061D01*
X3071Y2766D01*
X3666Y2632D02*
X3745D01*
X3666Y2711D02*
X3745D01*
X3666Y2736D02*
X3745D01*
X3666Y2815D02*
X3745D01*
X3608Y5272D02*
X3695D01*
X3609Y5272D02*
X3609Y5272D01*
X3608Y5228D02*
Y5272D01*
X3694D02*
Y5272D01*
X3695Y5228D02*
Y5272D01*
X3608Y5083D02*
X3693D01*
X3695D02*
Y5126D01*
X3608Y5083D02*
Y5126D01*
X3730Y5076D02*
X3830D01*
X3730Y5276D02*
X3830D01*
Y5076D02*
Y5276D01*
X3730Y5076D02*
Y5276D01*
X4706Y6170D02*
Y6270D01*
X4506Y6170D02*
Y6270D01*
X4706D01*
X4506Y6170D02*
X4706D01*
X4457Y6972D02*
X4500D01*
X4457Y6886D02*
X4500D01*
X4457Y6888D02*
Y6972D01*
X4603Y6886D02*
X4646D01*
Y6887D02*
X4646D01*
X4603Y6972D02*
X4646D01*
Y6971D02*
X4646Y6971D01*
Y6886D02*
Y6972D01*
X4429Y6929D02*
Y7008D01*
X4350Y6929D02*
Y7008D01*
X4673Y7155D02*
X4873D01*
X4673Y7255D02*
X4873D01*
X4673Y7155D02*
Y7255D01*
X4873Y7155D02*
Y7255D01*
X6737Y8031D02*
Y8111D01*
X6658Y8031D02*
Y8111D01*
X6860Y8122D02*
Y8165D01*
X6774Y8122D02*
Y8165D01*
X6776D02*
X6860D01*
X6774Y7976D02*
Y8020D01*
X6775Y7976D02*
Y7976D01*
X6860D02*
Y8020D01*
X6859Y7976D02*
X6859Y7976D01*
X6774Y7976D02*
X6860D01*
X6892D02*
X6978D01*
X6977D02*
X6977Y7976D01*
X6978D02*
Y8020D01*
X6893Y7976D02*
Y7976D01*
X6892D02*
Y8020D01*
X6894Y8165D02*
X6978D01*
X6892Y8122D02*
Y8165D01*
X6978Y8122D02*
Y8165D01*
X6801Y7008D02*
Y7087D01*
X6723Y7008D02*
Y7087D01*
X6827Y7142D02*
X6913D01*
X6828Y7142D02*
X6828Y7142D01*
X6827Y7098D02*
Y7142D01*
X6912D02*
Y7142D01*
X6913Y7098D02*
Y7142D01*
X6827Y6953D02*
X6911D01*
X6913D02*
Y6996D01*
X6827Y6953D02*
Y6996D01*
X6945Y6953D02*
Y6996D01*
X7031Y6953D02*
Y6996D01*
X6945Y6953D02*
X7030D01*
X7031Y7098D02*
Y7142D01*
X7031D02*
Y7142D01*
X6945Y7098D02*
Y7142D01*
X6946D02*
X6946Y7142D01*
X6945D02*
X7031D01*
X6945Y7378D02*
X7031D01*
X6946Y7378D02*
X6946Y7378D01*
X6945Y7335D02*
Y7378D01*
X7031D02*
Y7378D01*
X7031Y7335D02*
Y7378D01*
X6945Y7189D02*
X7030D01*
X7031D02*
Y7232D01*
X6945Y7189D02*
Y7232D01*
X7063Y7189D02*
X7150D01*
X7149D02*
X7149Y7189D01*
X7150D02*
Y7232D01*
X7064Y7189D02*
Y7189D01*
X7063D02*
Y7232D01*
X7065Y7378D02*
X7150D01*
X7063Y7335D02*
Y7378D01*
X7150Y7335D02*
Y7378D01*
X7228Y7189D02*
X7272D01*
X7228Y7102D02*
X7272D01*
X7228Y7104D02*
Y7189D01*
X7374Y7102D02*
X7417D01*
Y7103D02*
X7417D01*
X7374Y7189D02*
X7417D01*
Y7188D02*
X7417Y7188D01*
Y7102D02*
Y7189D01*
X7445Y6972D02*
X7488D01*
X7445Y6886D02*
X7488D01*
X7445Y6888D02*
Y6972D01*
X7591Y6886D02*
X7634D01*
Y6887D02*
X7634D01*
X7591Y6972D02*
X7634D01*
Y6971D02*
X7634Y6971D01*
Y6886D02*
Y6972D01*
X7480Y7087D02*
X7559D01*
X7480Y7008D02*
X7559D01*
X7204Y6140D02*
X7284D01*
X7204Y6061D02*
X7284D01*
X6571Y6205D02*
X6657D01*
X6656D02*
X6656Y6205D01*
X6657D02*
Y6248D01*
X6572Y6205D02*
Y6205D01*
X6571D02*
Y6248D01*
X6573Y6394D02*
X6657D01*
X6571Y6350D02*
Y6394D01*
X6657Y6350D02*
Y6394D01*
X6693D02*
X6780D01*
X6694Y6394D02*
X6694Y6394D01*
X6693Y6350D02*
Y6394D01*
X6779D02*
Y6394D01*
X6780Y6350D02*
Y6394D01*
X6693Y6205D02*
X6778D01*
X6780D02*
Y6248D01*
X6693Y6205D02*
Y6248D01*
X6657Y6114D02*
Y6157D01*
X6571Y6114D02*
Y6157D01*
X6573D02*
X6657D01*
X6571Y5969D02*
Y6012D01*
X6572Y5969D02*
Y5969D01*
X6657D02*
Y6012D01*
X6656Y5969D02*
X6656Y5969D01*
X6571Y5969D02*
X6657D01*
X6780Y6114D02*
Y6157D01*
X6693Y6114D02*
Y6157D01*
X6695D02*
X6780D01*
X6693Y5969D02*
Y6012D01*
X6694Y5969D02*
Y5969D01*
X6780D02*
Y6012D01*
X6779Y5969D02*
X6779Y5969D01*
X6693Y5969D02*
X6780D01*
X6540Y6102D02*
Y6181D01*
X6461Y6102D02*
Y6181D01*
X8071Y5433D02*
X9409D01*
Y4882D02*
Y5433D01*
X8071Y4882D02*
X9409D01*
X8071D02*
Y5433D01*
X8858Y4882D02*
Y5433D01*
X5114Y3862D02*
Y3906D01*
X5201Y3862D02*
Y3906D01*
X5114Y3862D02*
X5199D01*
X5201Y4008D02*
Y4051D01*
X5200D02*
Y4051D01*
X5114Y4008D02*
Y4051D01*
X5115D02*
X5115Y4051D01*
X5114D02*
X5201D01*
X6717Y4178D02*
Y4257D01*
X6638Y4178D02*
Y4257D01*
X7480Y3464D02*
Y3544D01*
X7402Y3464D02*
Y3544D01*
X2776Y2063D02*
Y2150D01*
X2776Y2149D02*
X2776Y2149D01*
X2733Y2150D02*
X2776D01*
Y2064D02*
X2776D01*
X2733Y2063D02*
X2776D01*
X2587Y2065D02*
Y2150D01*
Y2063D02*
X2630D01*
X2587Y2150D02*
X2630D01*
X3331Y3547D02*
X3374D01*
X3331Y3461D02*
X3374D01*
X3331Y3463D02*
Y3547D01*
X3476Y3461D02*
X3520D01*
Y3462D02*
X3520D01*
X3476Y3547D02*
X3520D01*
Y3546D02*
X3520Y3546D01*
Y3461D02*
Y3547D01*
X3476Y3362D02*
X3520D01*
X3476Y3449D02*
X3520D01*
Y3362D02*
Y3447D01*
X3331Y3449D02*
X3374D01*
X3331Y3448D02*
X3331D01*
Y3362D02*
X3374D01*
X3331Y3363D02*
X3331Y3363D01*
X3331Y3362D02*
Y3449D01*
X3472Y3736D02*
X3515D01*
X3472Y3823D02*
X3515D01*
Y3736D02*
Y3821D01*
X3326Y3823D02*
X3370D01*
X3326Y3822D02*
X3326D01*
Y3736D02*
X3370D01*
X3326Y3737D02*
X3326Y3737D01*
X3326Y3736D02*
Y3823D01*
X3831Y3362D02*
X3874D01*
X3831Y3449D02*
X3874D01*
Y3362D02*
Y3447D01*
X3685Y3449D02*
X3728D01*
X3685Y3448D02*
X3685D01*
Y3362D02*
X3728D01*
X3685Y3363D02*
X3685Y3363D01*
X3685Y3362D02*
Y3449D01*
X3902Y3626D02*
X3945D01*
X3902Y3539D02*
X3945D01*
X3902Y3541D02*
Y3626D01*
X4047Y3539D02*
X4091D01*
Y3540D02*
X4091D01*
X4047Y3626D02*
X4091D01*
Y3625D02*
X4091Y3625D01*
Y3539D02*
Y3626D01*
X3902Y3528D02*
X3945D01*
X3902Y3441D02*
X3945D01*
X3902Y3443D02*
Y3528D01*
X4047Y3441D02*
X4091D01*
Y3442D02*
X4091D01*
X4047Y3528D02*
X4091D01*
Y3527D02*
X4091Y3527D01*
Y3441D02*
Y3528D01*
X3902Y3724D02*
X3945D01*
X3902Y3638D02*
X3945D01*
X3902Y3640D02*
Y3724D01*
X4047Y3638D02*
X4091D01*
Y3639D02*
X4091D01*
X4047Y3724D02*
X4091D01*
Y3723D02*
X4091Y3723D01*
Y3638D02*
Y3724D01*
X3016Y2476D02*
Y2563D01*
Y2477D02*
X3016Y2477D01*
Y2476D02*
X3059D01*
X3016Y2562D02*
X3016D01*
Y2563D02*
X3059D01*
X3205Y2476D02*
Y2561D01*
X3161Y2563D02*
X3205D01*
X3161Y2476D02*
X3205D01*
X3563Y3386D02*
Y3465D01*
X3642Y3386D02*
Y3465D01*
X3878Y3740D02*
Y3819D01*
X3799Y3740D02*
Y3819D01*
X3267Y2924D02*
X3347D01*
X3267Y2846D02*
X3347D01*
X3878Y2421D02*
Y2500D01*
X3799Y2421D02*
Y2500D01*
X3563Y2067D02*
Y2146D01*
X3642Y2067D02*
Y2146D01*
X3902Y2406D02*
X3945D01*
X3902Y2319D02*
X3945D01*
X3902Y2321D02*
Y2406D01*
X4047Y2319D02*
X4091D01*
Y2320D02*
X4091D01*
X4047Y2406D02*
X4091D01*
Y2405D02*
X4091Y2405D01*
Y2319D02*
Y2406D01*
X3331Y2228D02*
X3374D01*
X3331Y2142D02*
X3374D01*
X3331Y2144D02*
Y2228D01*
X3476Y2142D02*
X3520D01*
Y2143D02*
X3520D01*
X3476Y2228D02*
X3520D01*
Y2227D02*
X3520Y2227D01*
Y2142D02*
Y2228D01*
X3831Y2043D02*
X3874D01*
X3831Y2130D02*
X3874D01*
Y2043D02*
Y2128D01*
X3685Y2130D02*
X3728D01*
X3685Y2129D02*
X3685D01*
Y2043D02*
X3728D01*
X3685Y2044D02*
X3685Y2044D01*
X3685Y2043D02*
Y2130D01*
X3476Y2043D02*
X3520D01*
X3476Y2130D02*
X3520D01*
Y2043D02*
Y2128D01*
X3331Y2130D02*
X3374D01*
X3331Y2129D02*
X3331D01*
Y2043D02*
X3374D01*
X3331Y2044D02*
X3331Y2044D01*
X3331Y2043D02*
Y2130D01*
X3472Y2417D02*
X3515D01*
X3472Y2504D02*
X3515D01*
Y2417D02*
Y2502D01*
X3326Y2504D02*
X3370D01*
X3326Y2503D02*
X3326D01*
Y2417D02*
X3370D01*
X3326Y2418D02*
X3326Y2418D01*
X3326Y2417D02*
Y2504D01*
X2016Y3626D02*
X2060D01*
X2016Y3539D02*
X2060D01*
X2016Y3541D02*
Y3626D01*
X2162Y3539D02*
X2205D01*
Y3540D02*
X2205D01*
X2162Y3626D02*
X2205D01*
Y3625D02*
X2205Y3625D01*
Y3539D02*
Y3626D01*
X6705Y3421D02*
Y3705D01*
X6957Y3421D02*
Y3705D01*
X7118Y3421D02*
Y3705D01*
X7370Y3421D02*
Y3705D01*
X7043Y4051D02*
X7130D01*
X7044Y4051D02*
X7044Y4051D01*
X7043Y4008D02*
Y4051D01*
X7129D02*
Y4051D01*
X7130Y4008D02*
Y4051D01*
X7043Y3862D02*
X7128D01*
X7130D02*
Y3906D01*
X7043Y3862D02*
Y3906D01*
X7043Y3067D02*
Y3154D01*
X7043Y3153D02*
X7043Y3153D01*
X7000Y3154D02*
X7043D01*
Y3068D02*
X7043D01*
X7000Y3067D02*
X7043D01*
X6854Y3069D02*
Y3154D01*
Y3067D02*
X6898D01*
X6854Y3154D02*
X6898D01*
X6827Y3067D02*
Y3154D01*
X6827Y3153D02*
X6827Y3153D01*
X6783Y3154D02*
X6827D01*
Y3068D02*
X6827D01*
X6783Y3067D02*
X6827D01*
X6638Y3069D02*
Y3154D01*
Y3067D02*
X6681D01*
X6638Y3154D02*
X6681D01*
X7051Y3165D02*
Y3252D01*
Y3166D02*
X7051Y3166D01*
Y3165D02*
X7094D01*
X7051Y3251D02*
X7051D01*
Y3252D02*
X7094D01*
X7240Y3165D02*
Y3250D01*
X7197Y3252D02*
X7240D01*
X7197Y3165D02*
X7240D01*
X7992Y3858D02*
X8071D01*
X7992Y3937D02*
X8071D01*
X8331Y3835D02*
Y3921D01*
Y3836D02*
X8331Y3836D01*
Y3835D02*
X8374D01*
X8331Y3920D02*
X8331D01*
Y3921D02*
X8374D01*
X8520Y3835D02*
Y3919D01*
X8476Y3921D02*
X8520D01*
X8476Y3835D02*
X8520D01*
X7992Y5512D02*
X8071D01*
X7992Y5591D02*
X8071D01*
X8331Y5488D02*
Y5575D01*
Y5489D02*
X8331Y5489D01*
Y5488D02*
X8374D01*
X8331Y5574D02*
X8331D01*
Y5575D02*
X8374D01*
X8520Y5488D02*
Y5573D01*
X8476Y5575D02*
X8520D01*
X8476Y5488D02*
X8520D01*
X7185Y4321D02*
Y4439D01*
Y4321D02*
X7362D01*
Y4439D01*
X7185D02*
X7362D01*
X5484Y3421D02*
Y3705D01*
X5736Y3421D02*
Y3705D01*
X5244Y3464D02*
Y3544D01*
X5165Y3464D02*
Y3544D01*
X5366Y3464D02*
Y3544D01*
X5445Y3464D02*
Y3544D01*
X5075Y3067D02*
Y3154D01*
X5075Y3153D02*
X5075Y3153D01*
X5031Y3154D02*
X5075D01*
Y3068D02*
X5075D01*
X5031Y3067D02*
X5075D01*
X4886Y3069D02*
Y3154D01*
Y3067D02*
X4929D01*
X4886Y3154D02*
X4929D01*
X4858Y3067D02*
Y3154D01*
X4858Y3153D02*
X4858Y3153D01*
X4815Y3154D02*
X4858D01*
Y3068D02*
X4858D01*
X4815Y3067D02*
X4858D01*
X4669Y3069D02*
Y3154D01*
Y3067D02*
X4713D01*
X4669Y3154D02*
X4713D01*
X5102Y3165D02*
Y3252D01*
Y3166D02*
X5102Y3166D01*
Y3165D02*
X5146D01*
X5102Y3251D02*
X5102D01*
Y3252D02*
X5146D01*
X5291Y3165D02*
Y3250D01*
X5248Y3252D02*
X5291D01*
X5248Y3165D02*
X5291D01*
X4874Y3421D02*
Y3705D01*
X5126Y3421D02*
Y3705D01*
X4118Y2504D02*
X4161D01*
X4118Y2417D02*
X4161D01*
X4118Y2419D02*
Y2504D01*
X4264Y2417D02*
X4307D01*
Y2418D02*
X4307D01*
X4264Y2504D02*
X4307D01*
Y2503D02*
X4307Y2503D01*
Y2417D02*
Y2504D01*
X3902Y2504D02*
X3945D01*
X3902Y2417D02*
X3945D01*
X3902Y2419D02*
Y2504D01*
X4047Y2417D02*
X4091D01*
Y2418D02*
X4091D01*
X4047Y2504D02*
X4091D01*
Y2503D02*
X4091Y2503D01*
Y2417D02*
Y2504D01*
X4583Y2240D02*
X4669D01*
X4584Y2240D02*
X4584Y2240D01*
X4583Y2197D02*
Y2240D01*
X4668D02*
Y2240D01*
X4669Y2197D02*
Y2240D01*
X4583Y2051D02*
X4667D01*
X4669D02*
Y2094D01*
X4583Y2051D02*
Y2094D01*
X6571Y2240D02*
X6657D01*
X6572Y2240D02*
X6572Y2240D01*
X6571Y2197D02*
Y2240D01*
X6656D02*
Y2240D01*
X6657Y2197D02*
Y2240D01*
X6571Y2051D02*
X6656D01*
X6657D02*
Y2094D01*
X6571Y2051D02*
Y2094D01*
X3902Y3823D02*
X3945D01*
X3902Y3736D02*
X3945D01*
X3902Y3738D02*
Y3823D01*
X4047Y3736D02*
X4091D01*
Y3737D02*
X4091D01*
X4047Y3823D02*
X4091D01*
Y3822D02*
X4091Y3822D01*
Y3736D02*
Y3823D01*
X4118Y3823D02*
X4161D01*
X4118Y3736D02*
X4161D01*
X4118Y3738D02*
Y3823D01*
X4264Y3736D02*
X4307D01*
Y3737D02*
X4307D01*
X4264Y3823D02*
X4307D01*
Y3822D02*
X4307Y3822D01*
Y3736D02*
Y3823D01*
X3632Y3071D02*
Y3189D01*
Y3071D02*
X3809D01*
Y3189D01*
X3632D02*
X3809D01*
X3902Y2307D02*
X3945D01*
X3902Y2220D02*
X3945D01*
X3902Y2222D02*
Y2307D01*
X4047Y2220D02*
X4091D01*
Y2221D02*
X4091D01*
X4047Y2307D02*
X4091D01*
Y2306D02*
X4091Y2306D01*
Y2220D02*
Y2307D01*
X8858Y5630D02*
Y6181D01*
X8071Y5630D02*
Y6181D01*
Y5630D02*
X9409D01*
Y6181D01*
X8071D02*
X9409D01*
X8071Y4528D02*
X9409D01*
Y3976D02*
Y4528D01*
X8071Y3976D02*
X9409D01*
X8071D02*
Y4528D01*
X8858Y3976D02*
Y4528D01*
X4035Y7618D02*
Y7697D01*
X4114Y7618D02*
Y7697D01*
X4657Y6059D02*
X4701D01*
X4657Y6146D02*
X4701D01*
Y6059D02*
Y6144D01*
X4512Y6146D02*
X4555D01*
X4512Y6145D02*
X4512D01*
Y6059D02*
X4555D01*
X4512Y6060D02*
X4512Y6060D01*
X4512Y6059D02*
Y6146D01*
X4213Y5926D02*
Y6006D01*
X4291Y5926D02*
Y6006D01*
X3681Y6308D02*
Y6388D01*
X3602Y6308D02*
Y6388D01*
X3937Y5807D02*
Y5886D01*
X3859Y5807D02*
Y5886D01*
X3779Y6309D02*
X3858D01*
X3859Y6279D02*
Y6385D01*
X3779Y6279D02*
Y6385D01*
X3543Y5905D02*
Y5985D01*
X3465Y5905D02*
Y5985D01*
X3902Y2209D02*
X3945D01*
X3902Y2122D02*
X3945D01*
X3902Y2124D02*
Y2209D01*
X4047Y2122D02*
X4091D01*
Y2123D02*
X4091D01*
X4047Y2209D02*
X4091D01*
Y2208D02*
X4091Y2208D01*
Y2122D02*
Y2209D01*
X6841Y5926D02*
Y5876D01*
X6851Y5866D01*
X6871D01*
X6881Y5876D01*
Y5926D01*
X6901D02*
X6941D01*
Y5916D01*
X6901Y5876D01*
Y5866D01*
X6978Y6224D02*
Y6174D01*
X6988Y6164D01*
X7008D01*
X7018Y6174D01*
Y6224D01*
X7078D02*
X7058Y6214D01*
X7038Y6194D01*
Y6174D01*
X7048Y6164D01*
X7068D01*
X7078Y6174D01*
Y6184D01*
X7068Y6194D01*
X7038D01*
X3947Y6091D02*
Y6041D01*
X3957Y6031D01*
X3977D01*
X3987Y6041D01*
Y6091D01*
X4007Y6031D02*
X4027D01*
X4017D01*
Y6091D01*
X4007Y6081D01*
X5955Y6300D02*
X5995D01*
X5975D01*
Y6240D01*
X6015D02*
Y6300D01*
X6045D01*
X6055Y6290D01*
Y6270D01*
X6045Y6260D01*
X6015D01*
X6075Y6300D02*
X6115D01*
Y6290D01*
X6075Y6250D01*
Y6240D01*
X8071Y6674D02*
X8111D01*
X8091D01*
Y6614D01*
X8131D02*
Y6674D01*
X8161D01*
X8171Y6664D01*
Y6644D01*
X8161Y6634D01*
X8131D01*
X8231Y6614D02*
X8191D01*
X8231Y6654D01*
Y6664D01*
X8221Y6674D01*
X8201D01*
X8191Y6664D01*
X6614Y6732D02*
Y6792D01*
X6644D01*
X6654Y6782D01*
Y6762D01*
X6644Y6752D01*
X6614D01*
X6634D02*
X6654Y6732D01*
X6714Y6792D02*
X6674D01*
Y6762D01*
X6694Y6772D01*
X6704D01*
X6714Y6762D01*
Y6742D01*
X6704Y6732D01*
X6684D01*
X6674Y6742D01*
X6774Y6732D02*
X6734D01*
X6774Y6772D01*
Y6782D01*
X6764Y6792D01*
X6744D01*
X6734Y6782D01*
X6614Y6634D02*
Y6694D01*
X6644D01*
X6654Y6684D01*
Y6664D01*
X6644Y6654D01*
X6614D01*
X6634D02*
X6654Y6634D01*
X6714Y6694D02*
X6674D01*
Y6664D01*
X6694Y6674D01*
X6704D01*
X6714Y6664D01*
Y6644D01*
X6704Y6634D01*
X6684D01*
X6674Y6644D01*
X6734Y6634D02*
X6754D01*
X6744D01*
Y6694D01*
X6734Y6684D01*
X6644Y6417D02*
X6584D01*
Y6447D01*
X6594Y6457D01*
X6614D01*
X6624Y6447D01*
Y6417D01*
Y6437D02*
X6644Y6457D01*
X6594Y6477D02*
X6584Y6487D01*
Y6507D01*
X6594Y6517D01*
X6604D01*
X6614Y6507D01*
Y6497D01*
Y6507D01*
X6624Y6517D01*
X6634D01*
X6644Y6507D01*
Y6487D01*
X6634Y6477D01*
X6584Y6577D02*
Y6537D01*
X6614D01*
X6604Y6557D01*
Y6567D01*
X6614Y6577D01*
X6634D01*
X6644Y6567D01*
Y6547D01*
X6634Y6537D01*
X6772Y5778D02*
X6712D01*
Y5808D01*
X6722Y5818D01*
X6742D01*
X6752Y5808D01*
Y5778D01*
Y5798D02*
X6772Y5818D01*
X6722Y5838D02*
X6712Y5848D01*
Y5868D01*
X6722Y5878D01*
X6732D01*
X6742Y5868D01*
Y5858D01*
Y5868D01*
X6752Y5878D01*
X6762D01*
X6772Y5868D01*
Y5848D01*
X6762Y5838D01*
X6772Y5928D02*
X6712D01*
X6742Y5898D01*
Y5938D01*
X6772Y6417D02*
X6712D01*
Y6447D01*
X6722Y6457D01*
X6742D01*
X6752Y6447D01*
Y6417D01*
Y6437D02*
X6772Y6457D01*
X6722Y6477D02*
X6712Y6487D01*
Y6507D01*
X6722Y6517D01*
X6732D01*
X6742Y6507D01*
Y6497D01*
Y6507D01*
X6752Y6517D01*
X6762D01*
X6772Y6507D01*
Y6487D01*
X6762Y6477D01*
X6722Y6537D02*
X6712Y6547D01*
Y6567D01*
X6722Y6577D01*
X6732D01*
X6742Y6567D01*
Y6557D01*
Y6567D01*
X6752Y6577D01*
X6762D01*
X6772Y6567D01*
Y6547D01*
X6762Y6537D01*
X6644Y5778D02*
X6584D01*
Y5808D01*
X6594Y5818D01*
X6614D01*
X6624Y5808D01*
Y5778D01*
Y5798D02*
X6644Y5818D01*
X6594Y5838D02*
X6584Y5848D01*
Y5868D01*
X6594Y5878D01*
X6604D01*
X6614Y5868D01*
Y5858D01*
Y5868D01*
X6624Y5878D01*
X6634D01*
X6644Y5868D01*
Y5848D01*
X6634Y5838D01*
X6644Y5938D02*
Y5898D01*
X6604Y5938D01*
X6594D01*
X6584Y5928D01*
Y5908D01*
X6594Y5898D01*
X3583Y5103D02*
X3523D01*
Y5133D01*
X3533Y5143D01*
X3553D01*
X3563Y5133D01*
Y5103D01*
Y5123D02*
X3583Y5143D01*
Y5163D02*
Y5183D01*
Y5173D01*
X3523D01*
X3533Y5163D01*
Y5213D02*
X3523Y5223D01*
Y5243D01*
X3533Y5253D01*
X3573D01*
X3583Y5243D01*
Y5223D01*
X3573Y5213D01*
X3533D01*
X3523Y5699D02*
X3583D01*
Y5739D01*
Y5759D02*
Y5779D01*
Y5769D01*
X3523D01*
X3533Y5759D01*
X4558Y6359D02*
X4538D01*
X4548D01*
Y6309D01*
X4538Y6299D01*
X4528D01*
X4518Y6309D01*
X4578Y6299D02*
Y6359D01*
X4608D01*
X4618Y6349D01*
Y6329D01*
X4608Y6319D01*
X4578D01*
X4668Y6299D02*
Y6359D01*
X4638Y6329D01*
X4678D01*
X3857Y5138D02*
Y5118D01*
Y5128D01*
X3907D01*
X3917Y5118D01*
Y5108D01*
X3907Y5098D01*
X3917Y5158D02*
X3857D01*
Y5188D01*
X3867Y5198D01*
X3887D01*
X3897Y5188D01*
Y5158D01*
X3867Y5218D02*
X3857Y5228D01*
Y5248D01*
X3867Y5258D01*
X3877D01*
X3887Y5248D01*
Y5238D01*
Y5248D01*
X3897Y5258D01*
X3907D01*
X3917Y5248D01*
Y5228D01*
X3907Y5218D01*
X7215Y6024D02*
X7205Y6034D01*
X7185D01*
X7175Y6024D01*
Y5984D01*
X7185Y5974D01*
X7205D01*
X7215Y5984D01*
X7275Y5974D02*
X7235D01*
X7275Y6014D01*
Y6024D01*
X7265Y6034D01*
X7245D01*
X7235Y6024D01*
X7335Y6034D02*
X7295D01*
Y6004D01*
X7315Y6014D01*
X7325D01*
X7335Y6004D01*
Y5984D01*
X7325Y5974D01*
X7305D01*
X7295Y5984D01*
X5020Y8229D02*
X5010Y8239D01*
X4990D01*
X4980Y8229D01*
Y8189D01*
X4990Y8179D01*
X5010D01*
X5020Y8189D01*
X5040Y8179D02*
X5060D01*
X5050D01*
Y8239D01*
X5040Y8229D01*
X5562D02*
X5552Y8239D01*
X5532D01*
X5522Y8229D01*
Y8189D01*
X5532Y8179D01*
X5552D01*
X5562Y8189D01*
X5622Y8179D02*
X5582D01*
X5622Y8219D01*
Y8229D01*
X5612Y8239D01*
X5592D01*
X5582Y8229D01*
X6113D02*
X6103Y8239D01*
X6083D01*
X6073Y8229D01*
Y8189D01*
X6083Y8179D01*
X6103D01*
X6113Y8189D01*
X6133Y8229D02*
X6143Y8239D01*
X6163D01*
X6173Y8229D01*
Y8219D01*
X6163Y8209D01*
X6153D01*
X6163D01*
X6173Y8199D01*
Y8189D01*
X6163Y8179D01*
X6143D01*
X6133Y8189D01*
X5010Y7520D02*
X5000Y7530D01*
X4980D01*
X4970Y7520D01*
Y7480D01*
X4980Y7470D01*
X5000D01*
X5010Y7480D01*
X5030D02*
X5040Y7470D01*
X5060D01*
X5070Y7480D01*
Y7520D01*
X5060Y7530D01*
X5040D01*
X5030Y7520D01*
Y7510D01*
X5040Y7500D01*
X5070D01*
X5522Y7520D02*
X5512Y7530D01*
X5492D01*
X5482Y7520D01*
Y7480D01*
X5492Y7470D01*
X5512D01*
X5522Y7480D01*
X5542Y7470D02*
X5562D01*
X5552D01*
Y7530D01*
X5542Y7520D01*
X5592D02*
X5602Y7530D01*
X5622D01*
X5632Y7520D01*
Y7480D01*
X5622Y7470D01*
X5602D01*
X5592Y7480D01*
Y7520D01*
X6093D02*
X6083Y7530D01*
X6063D01*
X6053Y7520D01*
Y7480D01*
X6063Y7470D01*
X6083D01*
X6093Y7480D01*
X6113Y7470D02*
X6133D01*
X6123D01*
Y7530D01*
X6113Y7520D01*
X6163Y7470D02*
X6183D01*
X6173D01*
Y7530D01*
X6163Y7520D01*
X4143Y7490D02*
X4203D01*
Y7520D01*
X4193Y7530D01*
X4153D01*
X4143Y7520D01*
Y7490D01*
X4203Y7550D02*
Y7570D01*
Y7560D01*
X4143D01*
X4153Y7550D01*
X3327Y7146D02*
Y7096D01*
X3352D01*
X3360Y7105D01*
Y7138D01*
X3352Y7146D01*
X3327D01*
X3377Y7138D02*
X3385Y7146D01*
X3402D01*
X3410Y7138D01*
Y7130D01*
X3402Y7121D01*
X3393D01*
X3402D01*
X3410Y7113D01*
Y7105D01*
X3402Y7096D01*
X3385D01*
X3377Y7105D01*
X4182Y6909D02*
X4242D01*
Y6939D01*
X4232Y6949D01*
X4192D01*
X4182Y6939D01*
Y6909D01*
Y7009D02*
Y6969D01*
X4212D01*
X4202Y6989D01*
Y6999D01*
X4212Y7009D01*
X4232D01*
X4242Y6999D01*
Y6979D01*
X4232Y6969D01*
X2332Y4114D02*
X2392D01*
Y4144D01*
X2382Y4154D01*
X2342D01*
X2332Y4144D01*
Y4114D01*
X2382Y4174D02*
X2392Y4184D01*
Y4204D01*
X2382Y4214D01*
X2342D01*
X2332Y4204D01*
Y4184D01*
X2342Y4174D01*
X2352D01*
X2362Y4184D01*
Y4214D01*
X2502Y7998D02*
X2482D01*
X2492D01*
Y7949D01*
X2482Y7939D01*
X2472D01*
X2462Y7949D01*
X2522Y7939D02*
X2542D01*
X2532D01*
Y7998D01*
X2522Y7988D01*
X2492Y6588D02*
X2472D01*
X2482D01*
Y6539D01*
X2472Y6529D01*
X2462D01*
X2452Y6539D01*
X2552Y6529D02*
X2512D01*
X2552Y6568D01*
Y6578D01*
X2542Y6588D01*
X2522D01*
X2512Y6578D01*
X2492Y4938D02*
X2472D01*
X2482D01*
Y4889D01*
X2472Y4879D01*
X2462D01*
X2452Y4889D01*
X2512Y4928D02*
X2522Y4938D01*
X2542D01*
X2552Y4928D01*
Y4918D01*
X2542Y4908D01*
X2532D01*
X2542D01*
X2552Y4898D01*
Y4889D01*
X2542Y4879D01*
X2522D01*
X2512Y4889D01*
X2502Y6348D02*
X2482D01*
X2492D01*
Y6299D01*
X2482Y6289D01*
X2472D01*
X2462Y6299D01*
X2552Y6289D02*
Y6348D01*
X2522Y6318D01*
X2562D01*
X1841Y4597D02*
X1821D01*
X1831D01*
Y4547D01*
X1821Y4537D01*
X1811D01*
X1801Y4547D01*
X1901Y4597D02*
X1861D01*
Y4567D01*
X1881Y4577D01*
X1891D01*
X1901Y4567D01*
Y4547D01*
X1891Y4537D01*
X1871D01*
X1861Y4547D01*
X8111Y3210D02*
X8091D01*
X8101D01*
Y3160D01*
X8091Y3150D01*
X8081D01*
X8071Y3160D01*
X8131Y3210D02*
X8171D01*
Y3200D01*
X8131Y3160D01*
Y3150D01*
X4745Y7658D02*
X4725D01*
X4735D01*
Y7608D01*
X4725Y7598D01*
X4715D01*
X4705Y7608D01*
X4765Y7598D02*
Y7658D01*
X4795D01*
X4805Y7648D01*
Y7628D01*
X4795Y7618D01*
X4765D01*
X4825Y7598D02*
X4845D01*
X4835D01*
Y7658D01*
X4825Y7648D01*
X4725Y7127D02*
X4705D01*
X4715D01*
Y7077D01*
X4705Y7067D01*
X4695D01*
X4685Y7077D01*
X4745Y7067D02*
Y7127D01*
X4775D01*
X4785Y7117D01*
Y7097D01*
X4775Y7087D01*
X4745D01*
X4845Y7067D02*
X4805D01*
X4845Y7107D01*
Y7117D01*
X4835Y7127D01*
X4815D01*
X4805Y7117D01*
X4003Y8194D02*
Y8234D01*
X3993Y8244D01*
X3973D01*
X3963Y8234D01*
Y8194D01*
X3973Y8184D01*
X3993D01*
X3983Y8204D02*
X4003Y8184D01*
X3993D02*
X4003Y8194D01*
X4023Y8184D02*
X4043D01*
X4033D01*
Y8244D01*
X4023Y8234D01*
X4318Y8194D02*
Y8234D01*
X4308Y8244D01*
X4288D01*
X4278Y8234D01*
Y8194D01*
X4288Y8184D01*
X4308D01*
X4298Y8204D02*
X4318Y8184D01*
X4308D02*
X4318Y8194D01*
X4378Y8184D02*
X4338D01*
X4378Y8224D01*
Y8234D01*
X4368Y8244D01*
X4348D01*
X4338Y8234D01*
X3183Y6898D02*
Y6931D01*
X3175Y6940D01*
X3158D01*
X3150Y6931D01*
Y6898D01*
X3158Y6890D01*
X3175D01*
X3166Y6906D02*
X3183Y6890D01*
X3175D02*
X3183Y6898D01*
X3200Y6931D02*
X3208Y6940D01*
X3225D01*
X3233Y6931D01*
Y6923D01*
X3225Y6915D01*
X3216D01*
X3225D01*
X3233Y6906D01*
Y6898D01*
X3225Y6890D01*
X3208D01*
X3200Y6898D01*
X4233Y7333D02*
Y7373D01*
X4223Y7383D01*
X4203D01*
X4193Y7373D01*
Y7333D01*
X4203Y7323D01*
X4223D01*
X4213Y7343D02*
X4233Y7323D01*
X4223D02*
X4233Y7333D01*
X4283Y7323D02*
Y7383D01*
X4253Y7353D01*
X4293D01*
X4724Y7972D02*
Y8032D01*
X4754D01*
X4764Y8022D01*
Y8002D01*
X4754Y7992D01*
X4724D01*
X4744D02*
X4764Y7972D01*
X4784D02*
X4804D01*
X4794D01*
Y8032D01*
X4784Y8022D01*
X4715Y7461D02*
Y7521D01*
X4745D01*
X4755Y7511D01*
Y7491D01*
X4745Y7481D01*
X4715D01*
X4735D02*
X4755Y7461D01*
X4815Y7521D02*
X4795Y7511D01*
X4775Y7491D01*
Y7471D01*
X4785Y7461D01*
X4805D01*
X4815Y7471D01*
Y7481D01*
X4805Y7491D01*
X4775D01*
X3258Y6624D02*
Y6684D01*
X3288D01*
X3298Y6674D01*
Y6654D01*
X3288Y6644D01*
X3258D01*
X3278D02*
X3298Y6624D01*
X3318Y6684D02*
X3358D01*
Y6674D01*
X3318Y6634D01*
Y6624D01*
X4675Y6900D02*
Y6960D01*
X4705D01*
X4715Y6950D01*
Y6930D01*
X4705Y6920D01*
X4675D01*
X4695D02*
X4715Y6900D01*
X4735D02*
X4755D01*
X4745D01*
Y6960D01*
X4735Y6950D01*
X4785D02*
X4795Y6960D01*
X4815D01*
X4825Y6950D01*
Y6940D01*
X4815Y6930D01*
X4805D01*
X4815D01*
X4825Y6920D01*
Y6910D01*
X4815Y6900D01*
X4795D01*
X4785Y6910D01*
X2283Y4478D02*
Y4538D01*
X2313D01*
X2323Y4528D01*
Y4508D01*
X2313Y4498D01*
X2283D01*
X2303D02*
X2323Y4478D01*
X2383D02*
X2343D01*
X2383Y4518D01*
Y4528D01*
X2373Y4538D01*
X2353D01*
X2343Y4528D01*
X2403Y4478D02*
X2423D01*
X2413D01*
Y4538D01*
X2403Y4528D01*
X2923Y4882D02*
Y4932D01*
X2948D01*
X2957Y4924D01*
Y4907D01*
X2948Y4899D01*
X2923D01*
X2940D02*
X2957Y4882D01*
X3007D02*
X2973D01*
X3007Y4915D01*
Y4924D01*
X2998Y4932D01*
X2982D01*
X2973Y4924D01*
X3057Y4882D02*
X3023D01*
X3057Y4915D01*
Y4924D01*
X3048Y4932D01*
X3032D01*
X3023Y4924D01*
X3100Y4882D02*
Y4932D01*
X3125D01*
X3134Y4924D01*
Y4907D01*
X3125Y4899D01*
X3100D01*
X3117D02*
X3134Y4882D01*
X3184D02*
X3150D01*
X3184Y4915D01*
Y4924D01*
X3175Y4932D01*
X3159D01*
X3150Y4924D01*
X3200D02*
X3209Y4932D01*
X3225D01*
X3234Y4924D01*
Y4915D01*
X3225Y4907D01*
X3217D01*
X3225D01*
X3234Y4899D01*
Y4890D01*
X3225Y4882D01*
X3209D01*
X3200Y4890D01*
X6368Y3858D02*
Y3918D01*
X6398D01*
X6408Y3908D01*
Y3888D01*
X6398Y3878D01*
X6368D01*
X6388D02*
X6408Y3858D01*
X6428Y3908D02*
X6438Y3918D01*
X6458D01*
X6468Y3908D01*
Y3898D01*
X6458Y3888D01*
X6448D01*
X6458D01*
X6468Y3878D01*
Y3868D01*
X6458Y3858D01*
X6438D01*
X6428Y3868D01*
X6488D02*
X6498Y3858D01*
X6518D01*
X6528Y3868D01*
Y3908D01*
X6518Y3918D01*
X6498D01*
X6488Y3908D01*
Y3898D01*
X6498Y3888D01*
X6528D01*
X2559Y4715D02*
Y4775D01*
X2589D01*
X2599Y4765D01*
Y4745D01*
X2589Y4735D01*
X2559D01*
X2579D02*
X2599Y4715D01*
X2659Y4775D02*
X2619D01*
Y4715D01*
X2659D01*
X2619Y4745D02*
X2639D01*
X2679Y4775D02*
Y4715D01*
X2719D01*
X2779D02*
X2739D01*
X2779Y4755D01*
Y4765D01*
X2769Y4775D01*
X2749D01*
X2739Y4765D01*
X4478Y5424D02*
X4512D01*
X4495D01*
Y5374D01*
X4528D02*
Y5424D01*
X4553D01*
X4562Y5416D01*
Y5399D01*
X4553Y5391D01*
X4528D01*
X4612Y5424D02*
X4595Y5416D01*
X4578Y5399D01*
Y5382D01*
X4587Y5374D01*
X4603D01*
X4612Y5382D01*
Y5391D01*
X4603Y5399D01*
X4578D01*
X3386Y4341D02*
Y4300D01*
X3394Y4291D01*
X3411D01*
X3419Y4300D01*
Y4341D01*
X3461Y4291D02*
Y4341D01*
X3436Y4316D01*
X3469D01*
X2598Y3130D02*
Y3190D01*
X2628D01*
X2638Y3180D01*
Y3160D01*
X2628Y3150D01*
X2598D01*
X2618D02*
X2638Y3130D01*
X2698Y3190D02*
X2658D01*
Y3130D01*
X2698D01*
X2658Y3160D02*
X2678D01*
X2718Y3190D02*
Y3130D01*
X2758D01*
X2808D02*
Y3190D01*
X2778Y3160D01*
X2818D01*
X4400Y3858D02*
Y3918D01*
X4430D01*
X4440Y3908D01*
Y3888D01*
X4430Y3878D01*
X4400D01*
X4420D02*
X4440Y3858D01*
X4460Y3918D02*
X4500D01*
Y3908D01*
X4460Y3868D01*
Y3858D01*
X4520D02*
X4540D01*
X4530D01*
Y3918D01*
X4520Y3908D01*
X3091Y3307D02*
Y3357D01*
X3116D01*
X3124Y3349D01*
Y3332D01*
X3116Y3324D01*
X3091D01*
X3107D02*
X3124Y3307D01*
X3174Y3357D02*
X3141D01*
Y3332D01*
X3157Y3340D01*
X3166D01*
X3174Y3332D01*
Y3315D01*
X3166Y3307D01*
X3149D01*
X3141Y3315D01*
X3191D02*
X3199Y3307D01*
X3216D01*
X3224Y3315D01*
Y3349D01*
X3216Y3357D01*
X3199D01*
X3191Y3349D01*
Y3340D01*
X3199Y3332D01*
X3224D01*
X2923Y3307D02*
Y3357D01*
X2948D01*
X2957Y3349D01*
Y3332D01*
X2948Y3324D01*
X2923D01*
X2940D02*
X2957Y3307D01*
X3007Y3357D02*
X2973D01*
Y3332D01*
X2990Y3340D01*
X2998D01*
X3007Y3332D01*
Y3315D01*
X2998Y3307D01*
X2982D01*
X2973Y3315D01*
X3023Y3349D02*
X3032Y3357D01*
X3048D01*
X3057Y3349D01*
Y3340D01*
X3048Y3332D01*
X3057Y3324D01*
Y3315D01*
X3048Y3307D01*
X3032D01*
X3023Y3315D01*
Y3324D01*
X3032Y3332D01*
X3023Y3340D01*
Y3349D01*
X3032Y3332D02*
X3048D01*
X1861Y3091D02*
X1841D01*
X1851D01*
Y3041D01*
X1841Y3031D01*
X1831D01*
X1821Y3041D01*
X1881D02*
X1891Y3031D01*
X1911D01*
X1921Y3041D01*
Y3081D01*
X1911Y3091D01*
X1891D01*
X1881Y3081D01*
Y3071D01*
X1891Y3061D01*
X1921D01*
X8111Y4863D02*
X8091D01*
X8101D01*
Y4813D01*
X8091Y4803D01*
X8081D01*
X8071Y4813D01*
X8131Y4803D02*
X8151D01*
X8141D01*
Y4863D01*
X8131Y4853D01*
X8181Y4803D02*
X8201D01*
X8191D01*
Y4863D01*
X8181Y4853D01*
X8111Y6261D02*
X8091D01*
X8101D01*
Y6211D01*
X8091Y6201D01*
X8081D01*
X8071Y6211D01*
X8131Y6201D02*
X8151D01*
X8141D01*
Y6261D01*
X8131Y6251D01*
X8181D02*
X8191Y6261D01*
X8211D01*
X8221Y6251D01*
Y6211D01*
X8211Y6201D01*
X8191D01*
X8181Y6211D01*
Y6251D01*
X8111Y4607D02*
X8091D01*
X8101D01*
Y4557D01*
X8091Y4547D01*
X8081D01*
X8071Y4557D01*
X8171Y4607D02*
X8151Y4597D01*
X8131Y4577D01*
Y4557D01*
X8141Y4547D01*
X8161D01*
X8171Y4557D01*
Y4567D01*
X8161Y4577D01*
X8131D01*
X6575Y5227D02*
X6565Y5237D01*
X6545D01*
X6535Y5227D01*
Y5187D01*
X6545Y5177D01*
X6565D01*
X6575Y5187D01*
Y5207D01*
X6555D01*
X6595Y5177D02*
Y5237D01*
X6635Y5177D01*
Y5237D01*
X6655D02*
Y5177D01*
X6685D01*
X6695Y5187D01*
Y5227D01*
X6685Y5237D01*
X6655D01*
X6402Y5348D02*
Y5289D01*
X6432D01*
X6442Y5299D01*
Y5338D01*
X6432Y5348D01*
X6402D01*
X6502D02*
X6462D01*
Y5289D01*
X6502D01*
X6462Y5318D02*
X6482D01*
X6522Y5348D02*
Y5289D01*
X6552D01*
X6562Y5299D01*
Y5308D01*
X6552Y5318D01*
X6522D01*
X6552D01*
X6562Y5328D01*
Y5338D01*
X6552Y5348D01*
X6522D01*
X6582D02*
Y5299D01*
X6592Y5289D01*
X6612D01*
X6622Y5299D01*
Y5348D01*
X6682Y5338D02*
X6672Y5348D01*
X6652D01*
X6642Y5338D01*
Y5299D01*
X6652Y5289D01*
X6672D01*
X6682Y5299D01*
Y5318D01*
X6662D01*
X6535Y5139D02*
X6575D01*
X6555D01*
Y5079D01*
X6595Y5139D02*
X6635Y5079D01*
Y5139D02*
X6595Y5079D01*
X6745Y5139D02*
X6725D01*
X6715Y5129D01*
Y5089D01*
X6725Y5079D01*
X6745D01*
X6755Y5089D01*
Y5129D01*
X6745Y5139D01*
X6775D02*
Y5089D01*
X6785Y5079D01*
X6805D01*
X6815Y5089D01*
Y5139D01*
X6835D02*
X6875D01*
X6855D01*
Y5079D01*
X6535Y4980D02*
Y5040D01*
X6565D01*
X6575Y5030D01*
Y5010D01*
X6565Y5000D01*
X6535D01*
X6555D02*
X6575Y4980D01*
X6595Y5040D02*
X6635Y4980D01*
Y5040D02*
X6595Y4980D01*
X6715Y5040D02*
X6735D01*
X6725D01*
Y4980D01*
X6715D01*
X6735D01*
X6765D02*
Y5040D01*
X6805Y4980D01*
Y5040D01*
X4472Y5673D02*
X4498D01*
X4485D01*
Y5593D01*
X4472D01*
X4498D01*
X4578Y5673D02*
X4552D01*
X4538Y5660D01*
Y5607D01*
X4552Y5593D01*
X4578D01*
X4592Y5607D01*
Y5660D01*
X4578Y5673D01*
X4618D02*
Y5607D01*
X4632Y5593D01*
X4658D01*
X4672Y5607D01*
Y5673D01*
X4698D02*
X4752D01*
X4725D01*
Y5593D01*
X7146Y4548D02*
Y4495D01*
X7172Y4469D01*
X7199Y4495D01*
Y4548D01*
X7266D02*
X7239D01*
X7226Y4535D01*
Y4482D01*
X7239Y4469D01*
X7266D01*
X7279Y4482D01*
Y4535D01*
X7266Y4548D01*
X7306D02*
Y4482D01*
X7319Y4469D01*
X7346D01*
X7359Y4482D01*
Y4548D01*
X7386D02*
X7439D01*
X7412D01*
Y4469D01*
X3455Y4579D02*
Y4632D01*
X3481Y4658D01*
X3508Y4632D01*
Y4579D01*
Y4618D01*
X3455D01*
X3535Y4658D02*
X3588D01*
X3561D01*
Y4579D01*
X3615Y4658D02*
X3668D01*
X3641D01*
Y4579D01*
X3695D02*
Y4658D01*
X3748Y4579D01*
Y4658D01*
X2286Y3845D02*
X2273Y3858D01*
X2246D01*
X2233Y3845D01*
Y3832D01*
X2246Y3818D01*
X2273D01*
X2286Y3805D01*
Y3792D01*
X2273Y3779D01*
X2246D01*
X2233Y3792D01*
X2313Y3858D02*
X2340D01*
X2326D01*
Y3779D01*
X2313D01*
X2340D01*
X2433Y3845D02*
X2420Y3858D01*
X2393D01*
X2380Y3845D01*
Y3792D01*
X2393Y3779D01*
X2420D01*
X2433Y3792D01*
Y3818D01*
X2406D01*
X7888Y6779D02*
X7875Y6793D01*
X7848D01*
X7835Y6779D01*
Y6726D01*
X7848Y6713D01*
X7875D01*
X7888Y6726D01*
Y6753D01*
X7861D01*
X7915Y6713D02*
Y6793D01*
X7968Y6713D01*
Y6793D01*
X7995D02*
Y6713D01*
X8035D01*
X8048Y6726D01*
Y6779D01*
X8035Y6793D01*
X7995D01*
X3665Y3275D02*
X3652Y3288D01*
X3625D01*
X3612Y3275D01*
Y3222D01*
X3625Y3209D01*
X3652D01*
X3665Y3222D01*
Y3248D01*
X3638D01*
X3692Y3209D02*
Y3288D01*
X3745Y3209D01*
Y3288D01*
X3772D02*
Y3209D01*
X3812D01*
X3825Y3222D01*
Y3275D01*
X3812Y3288D01*
X3772D01*
X6791Y2124D02*
X6771D01*
Y2184D01*
X6791D01*
X6941Y2124D02*
X6961D01*
Y2184D01*
X6941D01*
X7051Y2124D02*
Y2184D01*
X7081D01*
X7091Y2174D01*
Y2154D01*
X7081Y2144D01*
X7051D01*
X7111Y2184D02*
Y2124D01*
X7151D01*
X7171D02*
Y2164D01*
X7191Y2184D01*
X7211Y2164D01*
Y2124D01*
Y2154D01*
X7171D01*
X7231Y2184D02*
X7271D01*
X7251D01*
Y2124D01*
X7331Y2184D02*
X7291D01*
Y2124D01*
X7331D01*
X7291Y2154D02*
X7311D01*
X7351Y2184D02*
Y2124D01*
X7381D01*
X7391Y2134D01*
Y2174D01*
X7381Y2184D01*
X7351D01*
X7471Y2124D02*
X7491D01*
X7481D01*
Y2184D01*
X7471Y2174D01*
X7531Y2124D02*
X7551D01*
X7561Y2134D01*
Y2154D01*
X7551Y2164D01*
X7531D01*
X7521Y2154D01*
Y2134D01*
X7531Y2124D01*
X7581Y2164D02*
X7621D01*
X7581Y2124D01*
X7621D01*
X7700D02*
Y2184D01*
X7730D01*
X7740Y2174D01*
Y2154D01*
X7730Y2144D01*
X7700D01*
X7800Y2174D02*
X7790Y2184D01*
X7770D01*
X7760Y2174D01*
Y2134D01*
X7770Y2124D01*
X7790D01*
X7800Y2134D01*
X7820Y2184D02*
Y2124D01*
X7850D01*
X7860Y2134D01*
Y2144D01*
X7850Y2154D01*
X7820D01*
X7850D01*
X7860Y2164D01*
Y2174D01*
X7850Y2184D01*
X7820D01*
X7940Y2124D02*
Y2184D01*
X7970D01*
X7980Y2174D01*
Y2154D01*
X7970Y2144D01*
X7940D01*
X7960D02*
X7980Y2124D01*
X8000D02*
Y2164D01*
X8020Y2184D01*
X8040Y2164D01*
Y2124D01*
Y2154D01*
X8000D01*
X8060Y2184D02*
X8100D01*
X8080D01*
Y2124D01*
X8160Y2184D02*
X8120D01*
Y2124D01*
X8160D01*
X8120Y2154D02*
X8140D01*
X8180Y2184D02*
Y2124D01*
X8210D01*
X8220Y2134D01*
Y2174D01*
X8210Y2184D01*
X8180D01*
X8340D02*
X8320Y2174D01*
X8300Y2154D01*
Y2134D01*
X8310Y2124D01*
X8330D01*
X8340Y2134D01*
Y2144D01*
X8330Y2154D01*
X8300D01*
X8360Y2124D02*
Y2134D01*
X8370D01*
Y2124D01*
X8360D01*
X8450Y2184D02*
X8410D01*
Y2154D01*
X8430Y2164D01*
X8440D01*
X8450Y2154D01*
Y2134D01*
X8440Y2124D01*
X8420D01*
X8410Y2134D01*
X8470Y2124D02*
Y2164D01*
X8490Y2184D01*
X8510Y2164D01*
Y2124D01*
Y2154D01*
X8470D01*
X6791Y2025D02*
X6771D01*
Y2085D01*
X6791D01*
X6941Y2025D02*
X6961D01*
Y2085D01*
X6941D01*
X7051Y2025D02*
Y2085D01*
X7081D01*
X7091Y2075D01*
Y2055D01*
X7081Y2045D01*
X7051D01*
X7111Y2085D02*
Y2025D01*
X7151D01*
X7171D02*
Y2065D01*
X7191Y2085D01*
X7211Y2065D01*
Y2025D01*
Y2055D01*
X7171D01*
X7231Y2085D02*
X7271D01*
X7251D01*
Y2025D01*
X7331Y2085D02*
X7291D01*
Y2025D01*
X7331D01*
X7291Y2055D02*
X7311D01*
X7351Y2085D02*
Y2025D01*
X7381D01*
X7391Y2035D01*
Y2075D01*
X7381Y2085D01*
X7351D01*
X7511Y2025D02*
X7471D01*
X7511Y2065D01*
Y2075D01*
X7501Y2085D01*
X7481D01*
X7471Y2075D01*
X7541Y2025D02*
X7561D01*
X7571Y2035D01*
Y2055D01*
X7561Y2065D01*
X7541D01*
X7531Y2055D01*
Y2035D01*
X7541Y2025D01*
X7591Y2065D02*
X7631D01*
X7591Y2025D01*
X7631D01*
X7710D02*
Y2085D01*
X7740D01*
X7750Y2075D01*
Y2055D01*
X7740Y2045D01*
X7710D01*
X7810Y2075D02*
X7800Y2085D01*
X7780D01*
X7770Y2075D01*
Y2035D01*
X7780Y2025D01*
X7800D01*
X7810Y2035D01*
X7830Y2085D02*
Y2025D01*
X7860D01*
X7870Y2035D01*
Y2045D01*
X7860Y2055D01*
X7830D01*
X7860D01*
X7870Y2065D01*
Y2075D01*
X7860Y2085D01*
X7830D01*
X7950Y2025D02*
Y2085D01*
X7980D01*
X7990Y2075D01*
Y2055D01*
X7980Y2045D01*
X7950D01*
X7970D02*
X7990Y2025D01*
X8010D02*
Y2065D01*
X8030Y2085D01*
X8050Y2065D01*
Y2025D01*
Y2055D01*
X8010D01*
X8070Y2085D02*
X8110D01*
X8090D01*
Y2025D01*
X8170Y2085D02*
X8130D01*
Y2025D01*
X8170D01*
X8130Y2055D02*
X8150D01*
X8190Y2085D02*
Y2025D01*
X8220D01*
X8230Y2035D01*
Y2075D01*
X8220Y2085D01*
X8190D01*
X8310Y2025D02*
X8330D01*
X8320D01*
Y2085D01*
X8310Y2075D01*
X8360D02*
X8370Y2085D01*
X8390D01*
X8400Y2075D01*
Y2035D01*
X8390Y2025D01*
X8370D01*
X8360Y2035D01*
Y2075D01*
X8420Y2025D02*
Y2035D01*
X8430D01*
Y2025D01*
X8420D01*
X8470Y2085D02*
X8510D01*
Y2075D01*
X8470Y2035D01*
Y2025D01*
X8530D02*
Y2065D01*
X8550Y2085D01*
X8570Y2065D01*
Y2025D01*
Y2055D01*
X8530D01*
X1772Y8268D02*
X8858D01*
Y1969D02*
Y8268D01*
X1772Y1969D02*
Y8268D01*
Y1969D02*
X8858D01*
D44*
X4341Y7825D02*
G03*
X4341Y7825I-10J0D01*
G01*
X4026D02*
G03*
X4026Y7825I-10J0D01*
G01*
X2494Y4606D02*
G03*
X2494Y4606I-10J0D01*
G01*
X2498Y3031D02*
G03*
X2498Y3031I-10J0D01*
G01*
X9813Y3852D02*
X9880D01*
X9846D01*
Y3752D01*
X9963Y3852D02*
X9930D01*
X9913Y3835D01*
Y3769D01*
X9930Y3752D01*
X9963D01*
X9980Y3769D01*
Y3835D01*
X9963Y3852D01*
X10013Y3752D02*
Y3852D01*
X10063D01*
X10080Y3835D01*
Y3802D01*
X10063Y3785D01*
X10013D01*
X10280Y3835D02*
X10263Y3852D01*
X10230D01*
X10213Y3835D01*
Y3819D01*
X10230Y3802D01*
X10263D01*
X10280Y3785D01*
Y3769D01*
X10263Y3752D01*
X10230D01*
X10213Y3769D01*
X10313Y3852D02*
X10346D01*
X10330D01*
Y3752D01*
X10313D01*
X10346D01*
X10396Y3852D02*
Y3752D01*
X10463D01*
X10496Y3852D02*
Y3752D01*
Y3785D01*
X10563Y3852D01*
X10513Y3802D01*
X10563Y3752D01*
X8465Y3555D02*
Y3465D01*
X8510D01*
X8525Y3480D01*
Y3495D01*
X8510Y3510D01*
X8465D01*
X8510D01*
X8525Y3525D01*
Y3540D01*
X8510Y3555D01*
X8465D01*
X8555D02*
Y3465D01*
X8615D01*
X8645Y3555D02*
Y3465D01*
Y3495D01*
X8704Y3555D01*
X8660Y3510D01*
X8704Y3465D01*
X2264Y7274D02*
X2330D01*
X2297Y7308D02*
Y7241D01*
X2364Y7224D02*
X2397D01*
X2380D01*
Y7324D01*
X2364Y7308D01*
X2514Y7324D02*
X2447D01*
Y7274D01*
X2480Y7291D01*
X2497D01*
X2514Y7274D01*
Y7241D01*
X2497Y7224D01*
X2464D01*
X2447Y7241D01*
X2547Y7324D02*
Y7258D01*
X2580Y7224D01*
X2614Y7258D01*
Y7324D01*
X2747Y7224D02*
Y7324D01*
X2780Y7291D01*
X2814Y7324D01*
Y7224D01*
X2847D02*
Y7291D01*
X2880Y7324D01*
X2914Y7291D01*
Y7224D01*
Y7274D01*
X2847D01*
X2947Y7324D02*
X3014Y7224D01*
Y7324D02*
X2947Y7224D01*
X2283Y5601D02*
X2350D01*
X2383Y5551D02*
X2417D01*
X2400D01*
Y5651D01*
X2383Y5634D01*
X2533Y5651D02*
X2467D01*
Y5601D01*
X2500Y5618D01*
X2517D01*
X2533Y5601D01*
Y5568D01*
X2517Y5551D01*
X2483D01*
X2467Y5568D01*
X2567Y5651D02*
Y5585D01*
X2600Y5551D01*
X2633Y5585D01*
Y5651D01*
X2767Y5551D02*
Y5651D01*
X2800Y5618D01*
X2833Y5651D01*
Y5551D01*
X2867D02*
Y5618D01*
X2900Y5651D01*
X2933Y5618D01*
Y5551D01*
Y5601D01*
X2867D01*
X2967Y5651D02*
X3033Y5551D01*
Y5651D02*
X2967Y5551D01*
X1909Y7589D02*
Y7679D01*
X1954D01*
X1969Y7664D01*
Y7634D01*
X1954Y7619D01*
X1909D01*
X1939D02*
X1969Y7589D01*
X2059Y7679D02*
X1999D01*
Y7589D01*
X2059D01*
X1999Y7634D02*
X2029D01*
X2089Y7679D02*
Y7589D01*
X2134D01*
X2149Y7604D01*
Y7664D01*
X2134Y7679D01*
X2089D01*
X1909Y6931D02*
Y6841D01*
X1954D01*
X1969Y6856D01*
Y6871D01*
X1954Y6886D01*
X1909D01*
X1954D01*
X1969Y6901D01*
Y6916D01*
X1954Y6931D01*
X1909D01*
X1999D02*
Y6841D01*
X2059D01*
X2089Y6931D02*
Y6841D01*
Y6871D01*
X2149Y6931D01*
X2104Y6886D01*
X2149Y6841D01*
X1909Y5935D02*
Y6025D01*
X1954D01*
X1969Y6010D01*
Y5980D01*
X1954Y5965D01*
X1909D01*
X1939D02*
X1969Y5935D01*
X2059Y6025D02*
X1999D01*
Y5935D01*
X2059D01*
X1999Y5980D02*
X2029D01*
X2089Y6025D02*
Y5935D01*
X2134D01*
X2149Y5950D01*
Y6010D01*
X2134Y6025D01*
X2089D01*
X1909Y5277D02*
Y5187D01*
X1954D01*
X1969Y5202D01*
Y5217D01*
X1954Y5232D01*
X1909D01*
X1954D01*
X1969Y5247D01*
Y5262D01*
X1954Y5277D01*
X1909D01*
X1999D02*
Y5187D01*
X2059D01*
X2089Y5277D02*
Y5187D01*
Y5217D01*
X2149Y5277D01*
X2104Y5232D01*
X2149Y5187D01*
X8465Y5208D02*
Y5118D01*
X8510D01*
X8525Y5133D01*
Y5148D01*
X8510Y5163D01*
X8465D01*
X8510D01*
X8525Y5178D01*
Y5193D01*
X8510Y5208D01*
X8465D01*
X8555D02*
Y5118D01*
X8615D01*
X8645Y5208D02*
Y5118D01*
Y5148D01*
X8704Y5208D01*
X8660Y5163D01*
X8704Y5118D01*
X6771Y2322D02*
X6804D01*
X6787D01*
Y2222D01*
X6771D01*
X6804D01*
X6854D02*
Y2322D01*
X6887Y2289D01*
X6921Y2322D01*
Y2222D01*
X6954D02*
Y2322D01*
X7004D01*
X7021Y2305D01*
Y2272D01*
X7004Y2255D01*
X6954D01*
X6987D02*
X7021Y2222D01*
X7054Y2272D02*
X7121D01*
X7154Y2305D02*
X7171Y2322D01*
X7204D01*
X7221Y2305D01*
Y2239D01*
X7204Y2222D01*
X7171D01*
X7154Y2239D01*
Y2305D01*
X7254D02*
X7271Y2322D01*
X7304D01*
X7321Y2305D01*
Y2239D01*
X7304Y2222D01*
X7271D01*
X7254Y2239D01*
Y2305D01*
X7421Y2322D02*
X7354D01*
Y2272D01*
X7387Y2289D01*
X7404D01*
X7421Y2272D01*
Y2239D01*
X7404Y2222D01*
X7371D01*
X7354Y2239D01*
X7454Y2272D02*
X7521D01*
X7554Y2222D02*
Y2322D01*
X7604D01*
X7621Y2305D01*
Y2272D01*
X7604Y2255D01*
X7554D01*
X7720Y2305D02*
X7704Y2322D01*
X7670D01*
X7654Y2305D01*
Y2239D01*
X7670Y2222D01*
X7704D01*
X7720Y2239D01*
X7754Y2322D02*
Y2222D01*
X7804D01*
X7820Y2239D01*
Y2255D01*
X7804Y2272D01*
X7754D01*
X7804D01*
X7820Y2289D01*
Y2305D01*
X7804Y2322D01*
X7754D01*
X7954Y2222D02*
Y2322D01*
X8004D01*
X8020Y2305D01*
Y2272D01*
X8004Y2255D01*
X7954D01*
X7987D02*
X8020Y2222D01*
X8120Y2322D02*
X8054D01*
Y2222D01*
X8120D01*
X8054Y2272D02*
X8087D01*
X8154Y2322D02*
Y2255D01*
X8187Y2222D01*
X8220Y2255D01*
Y2322D01*
X8354Y2305D02*
X8370Y2322D01*
X8404D01*
X8420Y2305D01*
Y2289D01*
X8404Y2272D01*
X8387D01*
X8404D01*
X8420Y2255D01*
Y2239D01*
X8404Y2222D01*
X8370D01*
X8354Y2239D01*
X4352Y4489D02*
Y4555D01*
X4385Y4588D01*
X4418Y4555D01*
Y4489D01*
Y4538D01*
X4352D01*
X4452Y4489D02*
Y4588D01*
X4502D01*
X4518Y4572D01*
Y4538D01*
X4502Y4522D01*
X4452D01*
X4485D02*
X4518Y4489D01*
X4552Y4588D02*
Y4489D01*
X4602D01*
X4618Y4505D01*
Y4522D01*
X4602Y4538D01*
X4552D01*
X4602D01*
X4618Y4555D01*
Y4572D01*
X4602Y4588D01*
X4552D01*
X4652D02*
X4685D01*
X4668D01*
Y4489D01*
X4652D01*
X4685D01*
X4735Y4588D02*
X4802D01*
X4768D01*
Y4489D01*
X4835D02*
Y4588D01*
X4885D01*
X4901Y4572D01*
Y4538D01*
X4885Y4522D01*
X4835D01*
X4868D02*
X4901Y4489D01*
X4935D02*
Y4555D01*
X4968Y4588D01*
X5001Y4555D01*
Y4489D01*
Y4538D01*
X4935D01*
X5035Y4489D02*
Y4588D01*
X5085D01*
X5101Y4572D01*
Y4538D01*
X5085Y4522D01*
X5035D01*
X5068D02*
X5101Y4489D01*
X5135Y4588D02*
Y4572D01*
X5168Y4538D01*
X5201Y4572D01*
Y4588D01*
X5168Y4538D02*
Y4489D01*
X5335D02*
Y4588D01*
X5385D01*
X5401Y4572D01*
Y4538D01*
X5385Y4522D01*
X5335D01*
X5485Y4588D02*
X5451D01*
X5435Y4572D01*
Y4505D01*
X5451Y4489D01*
X5485D01*
X5501Y4505D01*
Y4572D01*
X5485Y4588D01*
X5535D02*
Y4489D01*
X5568Y4522D01*
X5601Y4489D01*
Y4588D01*
X5701D02*
X5635D01*
Y4489D01*
X5701D01*
X5635Y4538D02*
X5668D01*
X5735Y4489D02*
Y4588D01*
X5785D01*
X5801Y4572D01*
Y4538D01*
X5785Y4522D01*
X5735D01*
X5768D02*
X5801Y4489D01*
X5934Y4588D02*
Y4489D01*
X5984D01*
X6001Y4505D01*
Y4522D01*
X5984Y4538D01*
X5934D01*
X5984D01*
X6001Y4555D01*
Y4572D01*
X5984Y4588D01*
X5934D01*
X6084D02*
X6051D01*
X6034Y4572D01*
Y4505D01*
X6051Y4489D01*
X6084D01*
X6101Y4505D01*
Y4572D01*
X6084Y4588D01*
X6184D02*
X6151D01*
X6134Y4572D01*
Y4505D01*
X6151Y4489D01*
X6184D01*
X6201Y4505D01*
Y4572D01*
X6184Y4588D01*
X6301Y4572D02*
X6284Y4588D01*
X6251D01*
X6234Y4572D01*
Y4555D01*
X6251Y4538D01*
X6284D01*
X6301Y4522D01*
Y4505D01*
X6284Y4489D01*
X6251D01*
X6234Y4505D01*
X6334Y4588D02*
X6401D01*
X6368D01*
Y4489D01*
X6501Y4588D02*
X6434D01*
Y4489D01*
X6501D01*
X6434Y4538D02*
X6468D01*
X6534Y4489D02*
Y4588D01*
X6584D01*
X6601Y4572D01*
Y4538D01*
X6584Y4522D01*
X6534D01*
X6568D02*
X6601Y4489D01*
X8465Y5866D02*
Y5956D01*
X8510D01*
X8525Y5941D01*
Y5911D01*
X8510Y5896D01*
X8465D01*
X8495D02*
X8525Y5866D01*
X8615Y5956D02*
X8555D01*
Y5866D01*
X8615D01*
X8555Y5911D02*
X8585D01*
X8645Y5956D02*
Y5866D01*
X8689D01*
X8704Y5881D01*
Y5941D01*
X8689Y5956D01*
X8645D01*
X8465Y4213D02*
Y4303D01*
X8510D01*
X8525Y4288D01*
Y4258D01*
X8510Y4243D01*
X8465D01*
X8495D02*
X8525Y4213D01*
X8615Y4303D02*
X8555D01*
Y4213D01*
X8615D01*
X8555Y4258D02*
X8585D01*
X8645Y4303D02*
Y4213D01*
X8689D01*
X8704Y4228D01*
Y4288D01*
X8689Y4303D01*
X8645D01*
D73*
X4664Y4135D02*
G03*
X4664Y4135I-4J0D01*
G01*
X6632Y4135D02*
G03*
X6632Y4135I-4J0D01*
G01*
X3258Y4266D02*
G03*
X3258Y4266I-4J0D01*
G01*
X3909Y6157D02*
G03*
X3909Y6157I-4J0D01*
G01*
X4177Y7740D02*
G03*
X4177Y7740I-4J0D01*
G01*
X4353Y7166D02*
G03*
X4353Y7166I-4J0D01*
G01*
X4295Y6880D02*
G03*
X4295Y6880I-4J0D01*
G01*
X3585Y3677D02*
G03*
X3585Y3677I-4J0D01*
G01*
Y2358D02*
G03*
X3585Y2358I-4J0D01*
G01*
X3263Y2790D02*
G03*
X3263Y2790I-4J0D01*
G01*
X7018Y7758D02*
Y7872D01*
X7085Y7758D02*
Y7872D01*
X7018Y7835D02*
X7085D01*
X2370Y2252D02*
Y2310D01*
X2472Y2252D02*
Y2310D01*
X2370D02*
X2388D01*
X2455D02*
X2472D01*
X2417Y2539D02*
Y2654D01*
X2484Y2539D02*
Y2654D01*
X2417Y2616D02*
X2484D01*
X2055Y3709D02*
Y3767D01*
X2157Y3709D02*
Y3767D01*
X2055D02*
X2073D01*
X2140D02*
X2157D01*
X2626Y3800D02*
Y3858D01*
X2728Y3800D02*
Y3858D01*
X2626D02*
X2644D01*
X2711D02*
X2728D01*
X3309Y7071D02*
X3423D01*
X3309Y7004D02*
X3423D01*
X3386D02*
Y7071D01*
X3256Y6878D02*
Y6936D01*
X3358Y6878D02*
Y6936D01*
X3256D02*
X3274D01*
X3341D02*
X3358D01*
X2008Y2997D02*
X2217D01*
Y2846D02*
Y2997D01*
Y2617D02*
Y2768D01*
X2008Y2617D02*
X2217D01*
X1764D02*
X1898D01*
X1764D02*
Y2997D01*
X1898D01*
X1764Y4513D02*
X1898D01*
X1764Y4133D02*
Y4513D01*
Y4133D02*
X1898D01*
X2008D02*
X2217D01*
Y4283D01*
Y4362D02*
Y4513D01*
X2008D02*
X2217D01*
X7040Y6120D02*
X7063D01*
Y6006D02*
Y6120D01*
X7040Y6006D02*
X7063D01*
X7040D02*
Y6120D01*
X6979Y6130D02*
X7026D01*
X2417Y4114D02*
Y4228D01*
X2484Y4114D02*
Y4228D01*
X2417Y4191D02*
X2484D01*
X3089Y4378D02*
X3136D01*
X3093Y2902D02*
X3140D01*
X7020Y8091D02*
X7087D01*
Y8014D02*
Y8128D01*
X7020Y8014D02*
Y8128D01*
X7337Y7000D02*
X7384D01*
X6922Y6065D02*
X6939D01*
X6837D02*
X6855D01*
X6939Y6007D02*
Y6065D01*
X6837Y6007D02*
Y6065D01*
X6903Y3906D02*
X6961D01*
X6903Y4008D02*
X6961D01*
X6903Y3906D02*
Y3923D01*
Y3990D02*
Y4008D01*
X6758Y3959D02*
Y4073D01*
X6825Y3959D02*
Y4073D01*
X6758Y4035D02*
X6825D01*
X4799Y3959D02*
Y4073D01*
X4866Y3959D02*
Y4073D01*
X4799Y4035D02*
X4866D01*
X4964Y3906D02*
X5022D01*
X4964Y4008D02*
X5022D01*
X4964Y3906D02*
Y3923D01*
Y3990D02*
Y4008D01*
X7285Y7309D02*
X7400D01*
X7285Y7376D02*
X7400D01*
X7323Y7309D02*
Y7376D01*
X7285Y7297D02*
X7400D01*
X7285Y7230D02*
X7400D01*
X7362D02*
Y7297D01*
X2626Y2225D02*
Y2283D01*
X2728Y2225D02*
Y2283D01*
X2626D02*
X2644D01*
X2711D02*
X2728D01*
X3368Y3715D02*
X3482D01*
X3368Y3648D02*
X3482D01*
X3445D02*
Y3715D01*
X3368Y3636D02*
X3482D01*
X3368Y3569D02*
X3482D01*
X3445D02*
Y3636D01*
X3368Y2317D02*
X3482D01*
X3368Y2250D02*
X3482D01*
X3445D02*
Y2317D01*
X3368Y2396D02*
X3482D01*
X3368Y2329D02*
X3482D01*
X3445D02*
Y2396D01*
X6890Y3175D02*
Y3242D01*
X6852D02*
X6967D01*
X6852Y3175D02*
X6967D01*
X6634D02*
Y3242D01*
X6596D02*
X6711D01*
X6596Y3175D02*
X6711D01*
X7813Y5559D02*
X7860D01*
X7813Y3906D02*
X7860D01*
X4921Y3175D02*
Y3242D01*
X4884D02*
X4998D01*
X4884Y3175D02*
X4998D01*
X4665D02*
Y3242D01*
X4628D02*
X4742D01*
X4628Y3175D02*
X4742D01*
X4317Y2236D02*
X4384D01*
Y2159D02*
Y2274D01*
X4317Y2159D02*
Y2274D01*
X4442Y2094D02*
X4500D01*
X4442Y2197D02*
X4500D01*
X4442Y2094D02*
Y2112D01*
Y2179D02*
Y2197D01*
X6285Y2236D02*
X6352D01*
Y2159D02*
Y2274D01*
X6285Y2159D02*
Y2274D01*
X6430Y2094D02*
X6488D01*
X6430Y2197D02*
X6488D01*
X6430Y2094D02*
Y2112D01*
Y2179D02*
Y2197D01*
D74*
X2041Y4007D02*
G03*
X2041Y4007I-6J0D01*
G01*
Y2492D02*
G03*
X2041Y2492I-6J0D01*
G01*
D75*
X2351Y2214D02*
G03*
X2351Y2214I-5J0D01*
G01*
X2036Y3670D02*
G03*
X2036Y3670I-5J0D01*
G01*
X2607Y3762D02*
G03*
X2607Y3762I-5J0D01*
G01*
X3237Y6840D02*
G03*
X3237Y6840I-5J0D01*
G01*
X6818Y5969D02*
G03*
X6818Y5969I-5J0D01*
G01*
X7004Y3882D02*
G03*
X7004Y3882I-5J0D01*
G01*
X5065D02*
G03*
X5065Y3882I-5J0D01*
G01*
X2607Y2187D02*
G03*
X2607Y2187I-5J0D01*
G01*
X4543Y2071D02*
G03*
X4543Y2071I-5J0D01*
G01*
X6531D02*
G03*
X6531Y2071I-5J0D01*
G01*
D76*
X2307Y2807D02*
G03*
X2303Y2807I-2J0D01*
G01*
D02*
G03*
X2307Y2807I2J0D01*
G01*
X2303Y4323D02*
G03*
X2307Y4323I2J0D01*
G01*
D02*
G03*
X2303Y4323I-2J0D01*
G01*
D77*
X4384Y4134D02*
X4573D01*
X4384Y4331D02*
X4573D01*
X6352Y4134D02*
X6541D01*
X6352Y4331D02*
X6541D01*
X3337Y4274D02*
X3514D01*
X3337Y4073D02*
X3514D01*
X4705Y7947D02*
X4823D01*
X4705Y7801D02*
X4823D01*
X3087Y4654D02*
Y4772D01*
X3234Y4654D02*
Y4772D01*
X3066Y4654D02*
Y4772D01*
X2919Y4654D02*
Y4772D01*
Y3079D02*
Y3197D01*
X3066Y3079D02*
Y3197D01*
X3234Y3079D02*
Y3197D01*
X3087Y3079D02*
Y3197D01*
X3920Y6031D02*
Y6094D01*
X3797Y6031D02*
Y6094D01*
X4143Y7624D02*
Y7691D01*
X4204Y7624D02*
Y7691D01*
X4521Y7268D02*
Y7412D01*
X4327Y7268D02*
Y7412D01*
X4322Y6929D02*
Y6996D01*
X4261Y6929D02*
Y6996D01*
X4705Y7289D02*
X4823D01*
X4705Y7436D02*
X4823D01*
X4419Y3942D02*
X4537D01*
X4419Y4089D02*
X4537D01*
X6388D02*
X6506D01*
X6388Y3942D02*
X6506D01*
X3663Y3702D02*
X3817D01*
X3663Y3503D02*
X3817D01*
X3663Y2383D02*
X3817D01*
X3663Y2184D02*
X3817D01*
X3341Y2797D02*
X3518D01*
X3341Y2596D02*
X3518D01*
X4872Y4341D02*
Y4381D01*
X4892D01*
X4899Y4374D01*
Y4361D01*
X4892Y4354D01*
X4872D01*
X4885D02*
X4899Y4341D01*
X4912Y4381D02*
X4939D01*
Y4374D01*
X4912Y4347D01*
Y4341D01*
X4972D02*
Y4381D01*
X4952Y4361D01*
X4979D01*
X6841Y4380D02*
Y4420D01*
X6861D01*
X6867Y4413D01*
Y4400D01*
X6861Y4393D01*
X6841D01*
X6854D02*
X6867Y4380D01*
X6881Y4420D02*
X6907D01*
Y4413D01*
X6881Y4387D01*
Y4380D01*
X6921Y4413D02*
X6927Y4420D01*
X6941D01*
X6947Y4413D01*
Y4407D01*
X6941Y4400D01*
X6934D01*
X6941D01*
X6947Y4393D01*
Y4387D01*
X6941Y4380D01*
X6927D01*
X6921Y4387D01*
X3432Y5445D02*
Y5419D01*
X3452D01*
Y5432D01*
Y5419D01*
X3472D01*
X3432Y5458D02*
X3472D01*
Y5478D01*
X3465Y5485D01*
X3458D01*
X3452Y5478D01*
Y5458D01*
Y5478D01*
X3445Y5485D01*
X3438D01*
X3432Y5478D01*
Y5458D01*
X3472Y5498D02*
Y5512D01*
Y5505D01*
X3432D01*
X3438Y5498D01*
X3798Y5345D02*
X3792Y5338D01*
Y5325D01*
X3798Y5319D01*
X3825D01*
X3832Y5325D01*
Y5338D01*
X3825Y5345D01*
X3832Y5378D02*
X3792D01*
X3812Y5358D01*
Y5385D01*
X3798Y5398D02*
X3792Y5405D01*
Y5418D01*
X3798Y5425D01*
X3805D01*
X3812Y5418D01*
X3818Y5425D01*
X3825D01*
X3832Y5418D01*
Y5405D01*
X3825Y5398D01*
X3818D01*
X3812Y5405D01*
X3805Y5398D01*
X3798D01*
X3812Y5405D02*
Y5418D01*
X7382Y4398D02*
X7408D01*
X7395D01*
Y4359D01*
X7422D02*
Y4398D01*
X7442D01*
X7448Y4392D01*
Y4378D01*
X7442Y4372D01*
X7422D01*
X7488Y4398D02*
X7462D01*
Y4378D01*
X7475Y4385D01*
X7482D01*
X7488Y4378D01*
Y4365D01*
X7482Y4359D01*
X7468D01*
X7462Y4365D01*
X3602Y3760D02*
Y3727D01*
X3609Y3720D01*
X3622D01*
X3629Y3727D01*
Y3760D01*
X3642Y3720D02*
X3656D01*
X3649D01*
Y3760D01*
X3642Y3754D01*
X3696Y3720D02*
Y3760D01*
X3676Y3740D01*
X3702D01*
X3204Y3760D02*
Y3800D01*
X3224D01*
X3231Y3793D01*
Y3780D01*
X3224Y3773D01*
X3204D01*
X3218D02*
X3231Y3760D01*
X3264D02*
Y3800D01*
X3244Y3780D01*
X3271D01*
X3284Y3760D02*
X3298D01*
X3291D01*
Y3800D01*
X3284Y3793D01*
X4332Y3759D02*
Y3798D01*
X4352D01*
X4358Y3792D01*
Y3778D01*
X4352Y3772D01*
X4332D01*
X4345D02*
X4358Y3759D01*
X4392D02*
Y3798D01*
X4372Y3778D01*
X4398D01*
X4412Y3792D02*
X4418Y3798D01*
X4432D01*
X4438Y3792D01*
Y3765D01*
X4432Y3759D01*
X4418D01*
X4412Y3765D01*
Y3792D01*
X3197Y3386D02*
Y3426D01*
X3217D01*
X3223Y3419D01*
Y3406D01*
X3217Y3399D01*
X3197D01*
X3210D02*
X3223Y3386D01*
X3257D02*
Y3426D01*
X3237Y3406D01*
X3263D01*
X3277Y3426D02*
X3303D01*
Y3419D01*
X3277Y3392D01*
Y3386D01*
X3945Y3839D02*
Y3879D01*
X3965D01*
X3972Y3872D01*
Y3859D01*
X3965Y3852D01*
X3945D01*
X3958D02*
X3972Y3839D01*
X4005D02*
Y3879D01*
X3985Y3859D01*
X4012D01*
X4052Y3879D02*
X4038Y3872D01*
X4025Y3859D01*
Y3845D01*
X4032Y3839D01*
X4045D01*
X4052Y3845D01*
Y3852D01*
X4045Y3859D01*
X4025D01*
X3898Y3362D02*
Y3402D01*
X3918D01*
X3924Y3396D01*
Y3382D01*
X3918Y3376D01*
X3898D01*
X3911D02*
X3924Y3362D01*
X3964Y3402D02*
X3938D01*
Y3382D01*
X3951Y3389D01*
X3958D01*
X3964Y3382D01*
Y3369D01*
X3958Y3362D01*
X3944D01*
X3938Y3369D01*
X4004Y3402D02*
X3991Y3396D01*
X3978Y3382D01*
Y3369D01*
X3984Y3362D01*
X3998D01*
X4004Y3369D01*
Y3376D01*
X3998Y3382D01*
X3978D01*
X4114Y3563D02*
Y3603D01*
X4134D01*
X4141Y3596D01*
Y3583D01*
X4134Y3576D01*
X4114D01*
X4128D02*
X4141Y3563D01*
X4181Y3603D02*
X4154D01*
Y3583D01*
X4167Y3590D01*
X4174D01*
X4181Y3583D01*
Y3570D01*
X4174Y3563D01*
X4161D01*
X4154Y3570D01*
X4221Y3603D02*
X4194D01*
Y3583D01*
X4207Y3590D01*
X4214D01*
X4221Y3583D01*
Y3570D01*
X4214Y3563D01*
X4201D01*
X4194Y3570D01*
X3197Y3484D02*
Y3524D01*
X3217D01*
X3223Y3518D01*
Y3504D01*
X3217Y3498D01*
X3197D01*
X3210D02*
X3223Y3484D01*
X3263Y3524D02*
X3237D01*
Y3504D01*
X3250Y3511D01*
X3257D01*
X3263Y3504D01*
Y3491D01*
X3257Y3484D01*
X3243D01*
X3237Y3491D01*
X3297Y3484D02*
Y3524D01*
X3277Y3504D01*
X3303D01*
X4114Y3661D02*
Y3701D01*
X4134D01*
X4141Y3695D01*
Y3681D01*
X4134Y3675D01*
X4114D01*
X4128D02*
X4141Y3661D01*
X4181Y3701D02*
X4167Y3695D01*
X4154Y3681D01*
Y3668D01*
X4161Y3661D01*
X4174D01*
X4181Y3668D01*
Y3675D01*
X4174Y3681D01*
X4154D01*
X4221Y3661D02*
X4194D01*
X4221Y3688D01*
Y3695D01*
X4214Y3701D01*
X4201D01*
X4194Y3695D01*
X4114Y3465D02*
Y3505D01*
X4134D01*
X4141Y3498D01*
Y3485D01*
X4134Y3478D01*
X4114D01*
X4128D02*
X4141Y3465D01*
X4181Y3505D02*
X4167Y3498D01*
X4154Y3485D01*
Y3471D01*
X4161Y3465D01*
X4174D01*
X4181Y3471D01*
Y3478D01*
X4174Y3485D01*
X4154D01*
X4194Y3465D02*
X4207D01*
X4201D01*
Y3505D01*
X4194Y3498D01*
X3209Y3701D02*
Y3661D01*
X3229D01*
X3235Y3668D01*
Y3695D01*
X3229Y3701D01*
X3209D01*
X3249Y3661D02*
X3262D01*
X3255D01*
Y3701D01*
X3249Y3695D01*
X3309Y3661D02*
X3282D01*
X3309Y3688D01*
Y3695D01*
X3302Y3701D01*
X3289D01*
X3282Y3695D01*
X3209Y3623D02*
Y3583D01*
X3229D01*
X3235Y3589D01*
Y3616D01*
X3229Y3623D01*
X3209D01*
X3249Y3583D02*
X3262D01*
X3255D01*
Y3623D01*
X3249Y3616D01*
X3282Y3583D02*
X3295D01*
X3289D01*
Y3623D01*
X3282Y3616D01*
X3582Y3343D02*
X3577Y3348D01*
X3567D01*
X3562Y3343D01*
Y3324D01*
X3567Y3319D01*
X3577D01*
X3582Y3324D01*
X3607Y3319D02*
Y3348D01*
X3592Y3333D01*
X3612D01*
X3637Y3319D02*
Y3348D01*
X3622Y3333D01*
X3642D01*
X3755Y3760D02*
X3750Y3755D01*
Y3745D01*
X3755Y3740D01*
X3775D01*
X3780Y3745D01*
Y3755D01*
X3775Y3760D01*
X3780Y3785D02*
X3750D01*
X3765Y3770D01*
Y3790D01*
X3755Y3800D02*
X3750Y3805D01*
Y3815D01*
X3755Y3820D01*
X3760D01*
X3765Y3815D01*
Y3810D01*
Y3815D01*
X3770Y3820D01*
X3775D01*
X3780Y3815D01*
Y3805D01*
X3775Y3800D01*
X4439Y4390D02*
Y4357D01*
X4446Y4350D01*
X4459D01*
X4466Y4357D01*
Y4390D01*
X4479Y4350D02*
X4492D01*
X4486D01*
Y4390D01*
X4479Y4384D01*
X4512D02*
X4519Y4390D01*
X4532D01*
X4539Y4384D01*
Y4377D01*
X4532Y4370D01*
X4526D01*
X4532D01*
X4539Y4364D01*
Y4357D01*
X4532Y4350D01*
X4519D01*
X4512Y4357D01*
X6407Y4390D02*
Y4357D01*
X6414Y4350D01*
X6427D01*
X6434Y4357D01*
Y4390D01*
X6447Y4384D02*
X6454Y4390D01*
X6467D01*
X6474Y4384D01*
Y4377D01*
X6467Y4370D01*
X6474Y4364D01*
Y4357D01*
X6467Y4350D01*
X6454D01*
X6447Y4357D01*
Y4364D01*
X6454Y4370D01*
X6447Y4377D01*
Y4384D01*
X6454Y4370D02*
X6467D01*
X2122Y2529D02*
Y2568D01*
X2142D01*
X2148Y2562D01*
Y2548D01*
X2142Y2542D01*
X2122D01*
X2135D02*
X2148Y2529D01*
X2188Y2568D02*
X2162D01*
Y2529D01*
X2188D01*
X2162Y2548D02*
X2175D01*
X2202Y2568D02*
Y2529D01*
X2228D01*
X2242Y2568D02*
X2268D01*
Y2562D01*
X2242Y2535D01*
Y2529D01*
X2122Y4049D02*
Y4088D01*
X2142D01*
X2148Y4082D01*
Y4068D01*
X2142Y4062D01*
X2122D01*
X2135D02*
X2148Y4049D01*
X2188Y4088D02*
X2162D01*
Y4049D01*
X2188D01*
X2162Y4068D02*
X2175D01*
X2202Y4088D02*
Y4049D01*
X2228D01*
X2268Y4088D02*
X2255Y4082D01*
X2242Y4068D01*
Y4055D01*
X2248Y4049D01*
X2262D01*
X2268Y4055D01*
Y4062D01*
X2262Y4068D01*
X2242D01*
X2165Y2218D02*
Y2248D01*
X2180D01*
X2185Y2243D01*
Y2233D01*
X2180Y2228D01*
X2165D01*
X2175D02*
X2185Y2218D01*
X2215Y2248D02*
X2205Y2243D01*
X2195Y2233D01*
Y2223D01*
X2200Y2218D01*
X2210D01*
X2215Y2223D01*
Y2228D01*
X2210Y2233D01*
X2195D01*
X2225Y2243D02*
X2230Y2248D01*
X2240D01*
X2245Y2243D01*
Y2223D01*
X2240Y2218D01*
X2230D01*
X2225Y2223D01*
Y2243D01*
X2224Y2106D02*
Y2136D01*
X2239D01*
X2244Y2131D01*
Y2121D01*
X2239Y2116D01*
X2224D01*
X2234D02*
X2244Y2106D01*
X2274Y2136D02*
X2264Y2131D01*
X2254Y2121D01*
Y2111D01*
X2259Y2106D01*
X2269D01*
X2274Y2111D01*
Y2116D01*
X2269Y2121D01*
X2254D01*
X2304Y2136D02*
X2284D01*
Y2121D01*
X2294Y2126D01*
X2299D01*
X2304Y2121D01*
Y2111D01*
X2299Y2106D01*
X2289D01*
X2284Y2111D01*
X1929Y3976D02*
Y4006D01*
X1944D01*
X1949Y4001D01*
Y3991D01*
X1944Y3986D01*
X1929D01*
X1939D02*
X1949Y3976D01*
X1959Y4006D02*
X1979D01*
Y4001D01*
X1959Y3981D01*
Y3976D01*
X1989Y4001D02*
X1994Y4006D01*
X2004D01*
X2009Y4001D01*
Y3981D01*
X2004Y3976D01*
X1994D01*
X1989Y3981D01*
Y4001D01*
X2047Y3484D02*
Y3524D01*
X2067D01*
X2074Y3518D01*
Y3504D01*
X2067Y3498D01*
X2047D01*
X2061D02*
X2074Y3484D01*
X2114Y3524D02*
X2101Y3518D01*
X2087Y3504D01*
Y3491D01*
X2094Y3484D01*
X2107D01*
X2114Y3491D01*
Y3498D01*
X2107Y3504D01*
X2087D01*
X2127Y3491D02*
X2134Y3484D01*
X2147D01*
X2154Y3491D01*
Y3518D01*
X2147Y3524D01*
X2134D01*
X2127Y3518D01*
Y3511D01*
X2134Y3504D01*
X2154D01*
X2408Y2348D02*
Y2368D01*
X2403Y2373D01*
X2393D01*
X2388Y2368D01*
Y2348D01*
X2393Y2343D01*
X2403D01*
X2398Y2353D02*
X2408Y2343D01*
X2403D02*
X2408Y2348D01*
X2418Y2343D02*
X2428D01*
X2423D01*
Y2373D01*
X2418Y2368D01*
X2463Y2343D02*
X2443D01*
X2463Y2363D01*
Y2368D01*
X2458Y2373D01*
X2448D01*
X2443Y2368D01*
X2087Y3804D02*
Y3824D01*
X2082Y3829D01*
X2072D01*
X2067Y3824D01*
Y3804D01*
X2072Y3799D01*
X2082D01*
X2077Y3809D02*
X2087Y3799D01*
X2082D02*
X2087Y3804D01*
X2097Y3799D02*
X2107D01*
X2102D01*
Y3829D01*
X2097Y3824D01*
X2122Y3799D02*
X2132D01*
X2127D01*
Y3829D01*
X2122Y3824D01*
X6444Y4942D02*
X6431D01*
X6437D01*
Y4908D01*
X6431Y4902D01*
X6424D01*
X6417Y4908D01*
X6457Y4935D02*
X6464Y4942D01*
X6477D01*
X6484Y4935D01*
Y4928D01*
X6477Y4922D01*
X6484Y4915D01*
Y4908D01*
X6477Y4902D01*
X6464D01*
X6457Y4908D01*
Y4915D01*
X6464Y4922D01*
X6457Y4928D01*
Y4935D01*
X6464Y4922D02*
X6477D01*
X7165Y7068D02*
Y7034D01*
X7172Y7028D01*
X7185D01*
X7192Y7034D01*
Y7068D01*
X7232Y7028D02*
X7205D01*
X7232Y7054D01*
Y7061D01*
X7225Y7068D01*
X7212D01*
X7205Y7061D01*
X3563Y4420D02*
X3590D01*
X3576D01*
Y4380D01*
X3603D02*
Y4420D01*
X3623D01*
X3630Y4413D01*
Y4400D01*
X3623Y4393D01*
X3603D01*
X3663Y4380D02*
Y4420D01*
X3643Y4400D01*
X3670D01*
X3672Y3049D02*
X3698D01*
X3685D01*
Y3009D01*
X3712D02*
Y3049D01*
X3732D01*
X3738Y3042D01*
Y3029D01*
X3732Y3022D01*
X3712D01*
X3752Y3009D02*
X3765D01*
X3758D01*
Y3049D01*
X3752Y3042D01*
X4552Y5999D02*
Y6038D01*
X4572D01*
X4578Y6032D01*
Y6018D01*
X4572Y6012D01*
X4552D01*
X4565D02*
X4578Y5999D01*
X4618Y6038D02*
X4592D01*
Y6018D01*
X4605Y6025D01*
X4612D01*
X4618Y6018D01*
Y6005D01*
X4612Y5999D01*
X4598D01*
X4592Y6005D01*
X4632Y6032D02*
X4638Y6038D01*
X4652D01*
X4658Y6032D01*
Y6005D01*
X4652Y5999D01*
X4638D01*
X4632Y6005D01*
Y6032D01*
X3742Y6119D02*
X3702D01*
Y6138D01*
X3708Y6145D01*
X3722D01*
X3728Y6138D01*
Y6119D01*
Y6132D02*
X3742Y6145D01*
Y6158D02*
Y6172D01*
Y6165D01*
X3702D01*
X3708Y6158D01*
X3702Y6192D02*
Y6218D01*
X3708D01*
X3735Y6192D01*
X3742D01*
X7657Y6909D02*
Y6949D01*
X7677D01*
X7684Y6943D01*
Y6929D01*
X7677Y6923D01*
X7657D01*
X7671D02*
X7684Y6909D01*
X7697D02*
X7711D01*
X7704D01*
Y6949D01*
X7697Y6943D01*
X7757Y6949D02*
X7744Y6943D01*
X7731Y6929D01*
Y6916D01*
X7737Y6909D01*
X7751D01*
X7757Y6916D01*
Y6923D01*
X7751Y6929D01*
X7731D01*
X6929Y7224D02*
X6889D01*
Y7244D01*
X6896Y7251D01*
X6909D01*
X6916Y7244D01*
Y7224D01*
Y7238D02*
X6929Y7251D01*
Y7264D02*
Y7278D01*
Y7271D01*
X6889D01*
X6896Y7264D01*
X6889Y7324D02*
Y7298D01*
X6909D01*
X6902Y7311D01*
Y7318D01*
X6909Y7324D01*
X6922D01*
X6929Y7318D01*
Y7304D01*
X6922Y7298D01*
X3742Y5889D02*
X3702D01*
Y5908D01*
X3708Y5915D01*
X3722D01*
X3728Y5908D01*
Y5889D01*
Y5902D02*
X3742Y5915D01*
Y5928D02*
Y5942D01*
Y5935D01*
X3702D01*
X3708Y5928D01*
X3742Y5982D02*
X3702D01*
X3722Y5962D01*
Y5988D01*
X7126Y7402D02*
X7086D01*
Y7422D01*
X7093Y7428D01*
X7106D01*
X7113Y7422D01*
Y7402D01*
Y7415D02*
X7126Y7428D01*
Y7442D02*
Y7455D01*
Y7448D01*
X7086D01*
X7093Y7442D01*
X7126Y7502D02*
Y7475D01*
X7099Y7502D01*
X7093D01*
X7086Y7495D01*
Y7482D01*
X7093Y7475D01*
X6949Y6890D02*
Y6930D01*
X6969D01*
X6975Y6923D01*
Y6910D01*
X6969Y6903D01*
X6949D01*
X6962D02*
X6975Y6890D01*
X6989D02*
X7002D01*
X6995D01*
Y6930D01*
X6989Y6923D01*
X7022Y6890D02*
X7035D01*
X7029D01*
Y6930D01*
X7022Y6923D01*
X7441Y7165D02*
Y7205D01*
X7461D01*
X7468Y7199D01*
Y7185D01*
X7461Y7179D01*
X7441D01*
X7454D02*
X7468Y7165D01*
X7481Y7172D02*
X7488Y7165D01*
X7501D01*
X7508Y7172D01*
Y7199D01*
X7501Y7205D01*
X7488D01*
X7481Y7199D01*
Y7192D01*
X7488Y7185D01*
X7508D01*
X6831Y6890D02*
Y6930D01*
X6851D01*
X6857Y6923D01*
Y6910D01*
X6851Y6903D01*
X6831D01*
X6844D02*
X6857Y6890D01*
X6871Y6923D02*
X6877Y6930D01*
X6891D01*
X6897Y6923D01*
Y6916D01*
X6891Y6910D01*
X6897Y6903D01*
Y6896D01*
X6891Y6890D01*
X6877D01*
X6871Y6896D01*
Y6903D01*
X6877Y6910D01*
X6871Y6916D01*
Y6923D01*
X6877Y6910D02*
X6891D01*
X6870Y7785D02*
X6830D01*
Y7805D01*
X6837Y7812D01*
X6850D01*
X6857Y7805D01*
Y7785D01*
Y7799D02*
X6870Y7812D01*
X6830Y7852D02*
Y7825D01*
X6850D01*
X6843Y7839D01*
Y7845D01*
X6850Y7852D01*
X6863D01*
X6870Y7845D01*
Y7832D01*
X6863Y7825D01*
X6900Y8189D02*
Y8229D01*
X6920D01*
X6926Y8222D01*
Y8209D01*
X6920Y8202D01*
X6900D01*
X6913D02*
X6926Y8189D01*
X6940Y8222D02*
X6946Y8229D01*
X6960D01*
X6966Y8222D01*
Y8216D01*
X6960Y8209D01*
X6953D01*
X6960D01*
X6966Y8202D01*
Y8196D01*
X6960Y8189D01*
X6946D01*
X6940Y8196D01*
X6781Y8189D02*
Y8229D01*
X6801D01*
X6808Y8222D01*
Y8209D01*
X6801Y8202D01*
X6781D01*
X6795D02*
X6808Y8189D01*
X6848D02*
X6821D01*
X6848Y8216D01*
Y8222D01*
X6841Y8229D01*
X6828D01*
X6821Y8222D01*
X7018Y8229D02*
Y8189D01*
X7038D01*
X7044Y8196D01*
Y8222D01*
X7038Y8229D01*
X7018D01*
X7084Y8189D02*
X7058D01*
X7084Y8216D01*
Y8222D01*
X7078Y8229D01*
X7064D01*
X7058Y8222D01*
X5578Y3752D02*
X5572Y3758D01*
X5558D01*
X5552Y3752D01*
Y3725D01*
X5558Y3719D01*
X5572D01*
X5578Y3725D01*
X5592Y3752D02*
X5598Y3758D01*
X5612D01*
X5618Y3752D01*
Y3745D01*
X5612Y3738D01*
X5605D01*
X5612D01*
X5618Y3732D01*
Y3725D01*
X5612Y3719D01*
X5598D01*
X5592Y3725D01*
X5658Y3719D02*
X5632D01*
X5658Y3745D01*
Y3752D01*
X5652Y3758D01*
X5638D01*
X5632Y3752D01*
X6888Y3762D02*
X6882Y3768D01*
X6868D01*
X6862Y3762D01*
Y3735D01*
X6868Y3729D01*
X6882D01*
X6888Y3735D01*
X6902Y3762D02*
X6908Y3768D01*
X6922D01*
X6928Y3762D01*
Y3755D01*
X6922Y3748D01*
X6915D01*
X6922D01*
X6928Y3742D01*
Y3735D01*
X6922Y3729D01*
X6908D01*
X6902Y3735D01*
X6942Y3729D02*
X6955D01*
X6948D01*
Y3768D01*
X6942Y3762D01*
X7138D02*
X7132Y3768D01*
X7118D01*
X7112Y3762D01*
Y3735D01*
X7118Y3729D01*
X7132D01*
X7138Y3735D01*
X7152Y3762D02*
X7158Y3768D01*
X7172D01*
X7178Y3762D01*
Y3755D01*
X7172Y3748D01*
X7165D01*
X7172D01*
X7178Y3742D01*
Y3735D01*
X7172Y3729D01*
X7158D01*
X7152Y3735D01*
X7192Y3762D02*
X7198Y3768D01*
X7212D01*
X7218Y3762D01*
Y3735D01*
X7212Y3729D01*
X7198D01*
X7192Y3735D01*
Y3762D01*
X4158Y5945D02*
X4152Y5938D01*
Y5925D01*
X4158Y5919D01*
X4185D01*
X4192Y5925D01*
Y5938D01*
X4185Y5945D01*
X4192Y5985D02*
Y5958D01*
X4165Y5985D01*
X4158D01*
X4152Y5978D01*
Y5965D01*
X4158Y5958D01*
X4185Y5998D02*
X4192Y6005D01*
Y6018D01*
X4185Y6025D01*
X4158D01*
X4152Y6018D01*
Y6005D01*
X4158Y5998D01*
X4165D01*
X4172Y6005D01*
Y6025D01*
X6482Y5972D02*
X6476Y5965D01*
Y5952D01*
X6482Y5945D01*
X6509D01*
X6516Y5952D01*
Y5965D01*
X6509Y5972D01*
X6516Y6012D02*
Y5985D01*
X6489Y6012D01*
X6482D01*
X6476Y6005D01*
Y5992D01*
X6482Y5985D01*
X6516Y6045D02*
X6476D01*
X6496Y6025D01*
Y6052D01*
X3548Y6325D02*
X3542Y6318D01*
Y6305D01*
X3548Y6299D01*
X3575D01*
X3582Y6305D01*
Y6318D01*
X3575Y6325D01*
X3582Y6338D02*
Y6352D01*
Y6345D01*
X3542D01*
X3548Y6338D01*
X3542Y6398D02*
X3548Y6385D01*
X3562Y6372D01*
X3575D01*
X3582Y6378D01*
Y6392D01*
X3575Y6398D01*
X3568D01*
X3562Y6392D01*
Y6372D01*
X3798Y5525D02*
X3792Y5518D01*
Y5505D01*
X3798Y5499D01*
X3825D01*
X3832Y5505D01*
Y5518D01*
X3825Y5525D01*
X3832Y5538D02*
Y5552D01*
Y5545D01*
X3792D01*
X3798Y5538D01*
X3792Y5598D02*
Y5572D01*
X3812D01*
X3805Y5585D01*
Y5592D01*
X3812Y5598D01*
X3825D01*
X3832Y5592D01*
Y5578D01*
X3825Y5572D01*
X3408Y5915D02*
X3402Y5908D01*
Y5895D01*
X3408Y5889D01*
X3435D01*
X3442Y5895D01*
Y5908D01*
X3435Y5915D01*
X3442Y5928D02*
Y5942D01*
Y5935D01*
X3402D01*
X3408Y5928D01*
X3442Y5982D02*
X3402D01*
X3422Y5962D01*
Y5988D01*
X3968Y5825D02*
X3962Y5818D01*
Y5805D01*
X3968Y5799D01*
X3995D01*
X4002Y5805D01*
Y5818D01*
X3995Y5825D01*
X4002Y5838D02*
Y5852D01*
Y5845D01*
X3962D01*
X3968Y5838D01*
Y5872D02*
X3962Y5878D01*
Y5892D01*
X3968Y5898D01*
X3975D01*
X3982Y5892D01*
Y5885D01*
Y5892D01*
X3988Y5898D01*
X3995D01*
X4002Y5892D01*
Y5878D01*
X3995Y5872D01*
X7635Y7061D02*
X7628Y7068D01*
X7615D01*
X7608Y7061D01*
Y7034D01*
X7615Y7028D01*
X7628D01*
X7635Y7034D01*
X7648Y7061D02*
X7655Y7068D01*
X7668D01*
X7675Y7061D01*
Y7054D01*
X7668Y7048D01*
X7675Y7041D01*
Y7034D01*
X7668Y7028D01*
X7655D01*
X7648Y7034D01*
Y7041D01*
X7655Y7048D01*
X7648Y7054D01*
Y7061D01*
X7655Y7048D02*
X7668D01*
X6669Y7035D02*
X6663Y7028D01*
Y7015D01*
X6669Y7008D01*
X6696D01*
X6703Y7015D01*
Y7028D01*
X6696Y7035D01*
X6663Y7048D02*
Y7075D01*
X6669D01*
X6696Y7048D01*
X6703D01*
X7199Y6890D02*
X7194Y6885D01*
Y6875D01*
X7199Y6870D01*
X7219D01*
X7224Y6875D01*
Y6885D01*
X7219Y6890D01*
X7194Y6920D02*
X7199Y6910D01*
X7209Y6900D01*
X7219D01*
X7224Y6905D01*
Y6915D01*
X7219Y6920D01*
X7214D01*
X7209Y6915D01*
Y6900D01*
X6690Y8183D02*
X6683Y8190D01*
X6670D01*
X6663Y8183D01*
Y8156D01*
X6670Y8150D01*
X6683D01*
X6690Y8156D01*
X6730Y8190D02*
X6703D01*
Y8170D01*
X6717Y8176D01*
X6723D01*
X6730Y8170D01*
Y8156D01*
X6723Y8150D01*
X6710D01*
X6703Y8156D01*
X3988Y7645D02*
X3982Y7638D01*
Y7625D01*
X3988Y7619D01*
X4015D01*
X4022Y7625D01*
Y7638D01*
X4015Y7645D01*
X4022Y7678D02*
X3982D01*
X4002Y7658D01*
Y7685D01*
X4376Y6808D02*
X4369Y6801D01*
Y6788D01*
X4376Y6781D01*
X4403D01*
X4409Y6788D01*
Y6801D01*
X4403Y6808D01*
X4409Y6821D02*
Y6835D01*
Y6828D01*
X4369D01*
X4376Y6821D01*
X4409Y6881D02*
Y6855D01*
X4383Y6881D01*
X4376D01*
X4369Y6875D01*
Y6861D01*
X4376Y6855D01*
X3206Y4541D02*
X3199Y4548D01*
X3186D01*
X3179Y4541D01*
Y4515D01*
X3186Y4508D01*
X3199D01*
X3206Y4515D01*
X3219Y4508D02*
X3232D01*
X3226D01*
Y4548D01*
X3219Y4541D01*
X3252Y4548D02*
X3279D01*
Y4541D01*
X3252Y4515D01*
Y4508D01*
X3678Y4342D02*
X3672Y4348D01*
X3658D01*
X3652Y4342D01*
Y4315D01*
X3658Y4309D01*
X3672D01*
X3678Y4315D01*
X3692Y4309D02*
X3705D01*
X3698D01*
Y4348D01*
X3692Y4342D01*
X3725D02*
X3732Y4348D01*
X3745D01*
X3752Y4342D01*
Y4335D01*
X3745Y4328D01*
X3752Y4322D01*
Y4315D01*
X3745Y4309D01*
X3732D01*
X3725Y4315D01*
Y4322D01*
X3732Y4328D01*
X3725Y4335D01*
Y4342D01*
X3732Y4328D02*
X3745D01*
X7428Y3615D02*
X7422Y3608D01*
Y3595D01*
X7428Y3589D01*
X7455D01*
X7462Y3595D01*
Y3608D01*
X7455Y3615D01*
X7462Y3628D02*
Y3642D01*
Y3635D01*
X7422D01*
X7428Y3628D01*
X7455Y3662D02*
X7462Y3668D01*
Y3682D01*
X7455Y3688D01*
X7428D01*
X7422Y3682D01*
Y3668D01*
X7428Y3662D01*
X7435D01*
X7442Y3668D01*
Y3688D01*
X2970Y4423D02*
X2963Y4430D01*
X2950D01*
X2943Y4423D01*
Y4396D01*
X2950Y4390D01*
X2963D01*
X2970Y4396D01*
X3010Y4390D02*
X2983D01*
X3010Y4416D01*
Y4423D01*
X3003Y4430D01*
X2990D01*
X2983Y4423D01*
X3023D02*
X3030Y4430D01*
X3043D01*
X3050Y4423D01*
Y4396D01*
X3043Y4390D01*
X3030D01*
X3023Y4396D01*
Y4423D01*
X3688Y4082D02*
X3682Y4088D01*
X3668D01*
X3662Y4082D01*
Y4055D01*
X3668Y4049D01*
X3682D01*
X3688Y4055D01*
X3728Y4049D02*
X3702D01*
X3728Y4075D01*
Y4082D01*
X3722Y4088D01*
X3708D01*
X3702Y4082D01*
X3742Y4049D02*
X3755D01*
X3748D01*
Y4088D01*
X3742Y4082D01*
X7028Y3615D02*
X7022Y3608D01*
Y3595D01*
X7028Y3589D01*
X7055D01*
X7062Y3595D01*
Y3608D01*
X7055Y3615D01*
X7062Y3655D02*
Y3628D01*
X7035Y3655D01*
X7028D01*
X7022Y3648D01*
Y3635D01*
X7028Y3628D01*
X7062Y3695D02*
Y3668D01*
X7035Y3695D01*
X7028D01*
X7022Y3688D01*
Y3675D01*
X7028Y3668D01*
X2940Y4236D02*
X2933Y4243D01*
X2920D01*
X2913Y4236D01*
Y4209D01*
X2920Y4203D01*
X2933D01*
X2940Y4209D01*
X2980Y4203D02*
X2953D01*
X2980Y4229D01*
Y4236D01*
X2973Y4243D01*
X2960D01*
X2953Y4236D01*
X2993D02*
X3000Y4243D01*
X3013D01*
X3020Y4236D01*
Y4229D01*
X3013Y4223D01*
X3007D01*
X3013D01*
X3020Y4216D01*
Y4209D01*
X3013Y4203D01*
X3000D01*
X2993Y4209D01*
X6191Y4198D02*
X6186Y4203D01*
X6176D01*
X6171Y4198D01*
Y4178D01*
X6176Y4173D01*
X6186D01*
X6191Y4178D01*
X6221Y4173D02*
X6201D01*
X6221Y4193D01*
Y4198D01*
X6216Y4203D01*
X6206D01*
X6201Y4198D01*
X6231Y4203D02*
X6251D01*
Y4198D01*
X6231Y4178D01*
Y4173D01*
X6654Y4326D02*
X6649Y4331D01*
X6639D01*
X6634Y4326D01*
Y4306D01*
X6639Y4301D01*
X6649D01*
X6654Y4306D01*
X6684Y4301D02*
X6664D01*
X6684Y4321D01*
Y4326D01*
X6679Y4331D01*
X6669D01*
X6664Y4326D01*
X6694D02*
X6699Y4331D01*
X6709D01*
X6714Y4326D01*
Y4321D01*
X6709Y4316D01*
X6714Y4311D01*
Y4306D01*
X6709Y4301D01*
X6699D01*
X6694Y4306D01*
Y4311D01*
X6699Y4316D01*
X6694Y4321D01*
Y4326D01*
X6699Y4316D02*
X6709D01*
X6842Y4039D02*
X6882D01*
Y4058D01*
X6875Y4065D01*
X6848D01*
X6842Y4058D01*
Y4039D01*
X6882Y4078D02*
Y4092D01*
Y4085D01*
X6842D01*
X6848Y4078D01*
Y4112D02*
X6842Y4118D01*
Y4132D01*
X6848Y4138D01*
X6875D01*
X6882Y4132D01*
Y4118D01*
X6875Y4112D01*
X6848D01*
X2768Y3825D02*
Y3852D01*
X2762Y3858D01*
X2748D01*
X2742Y3852D01*
Y3825D01*
X2748Y3819D01*
X2762D01*
X2755Y3832D02*
X2768Y3819D01*
X2762D02*
X2768Y3825D01*
X2782Y3852D02*
X2788Y3858D01*
X2802D01*
X2808Y3852D01*
Y3845D01*
X2802Y3838D01*
X2808Y3832D01*
Y3825D01*
X2802Y3819D01*
X2788D01*
X2782Y3825D01*
Y3832D01*
X2788Y3838D01*
X2782Y3845D01*
Y3852D01*
X2788Y3838D02*
X2802D01*
X6935Y4065D02*
X6908D01*
X6902Y4058D01*
Y4045D01*
X6908Y4039D01*
X6935D01*
X6942Y4045D01*
Y4058D01*
X6928Y4052D02*
X6942Y4065D01*
Y4058D02*
X6935Y4065D01*
X6902Y4078D02*
Y4105D01*
X6908D01*
X6935Y4078D01*
X6942D01*
X4350Y7569D02*
Y7609D01*
X4370D01*
X4377Y7602D01*
Y7589D01*
X4370Y7582D01*
X4350D01*
X4364D02*
X4377Y7569D01*
X4410D02*
Y7609D01*
X4390Y7589D01*
X4417D01*
X2677Y3573D02*
Y3613D01*
X2697D01*
X2704Y3606D01*
Y3593D01*
X2697Y3586D01*
X2677D01*
X2690D02*
X2704Y3573D01*
X2744D02*
X2717D01*
X2744Y3599D01*
Y3606D01*
X2737Y3613D01*
X2724D01*
X2717Y3606D01*
X2757Y3613D02*
X2784D01*
Y3606D01*
X2757Y3579D01*
Y3573D01*
X2992Y4045D02*
X2952D01*
Y4065D01*
X2959Y4072D01*
X2972D01*
X2979Y4065D01*
Y4045D01*
Y4059D02*
X2992Y4072D01*
X2959Y4085D02*
X2952Y4092D01*
Y4105D01*
X2959Y4112D01*
X2965D01*
X2972Y4105D01*
Y4099D01*
Y4105D01*
X2979Y4112D01*
X2985D01*
X2992Y4105D01*
Y4092D01*
X2985Y4085D01*
X2959Y4125D02*
X2952Y4132D01*
Y4145D01*
X2959Y4152D01*
X2985D01*
X2992Y4145D01*
Y4132D01*
X2985Y4125D01*
X2959D01*
X3228Y3976D02*
Y4016D01*
X3248D01*
X3255Y4010D01*
Y3996D01*
X3248Y3990D01*
X3228D01*
X3242D02*
X3255Y3976D01*
X3268Y4010D02*
X3275Y4016D01*
X3288D01*
X3295Y4010D01*
Y4003D01*
X3288Y3996D01*
X3282D01*
X3288D01*
X3295Y3990D01*
Y3983D01*
X3288Y3976D01*
X3275D01*
X3268Y3983D01*
X3308Y3976D02*
X3322D01*
X3315D01*
Y4016D01*
X3308Y4010D01*
X7032Y4069D02*
Y4108D01*
X7052D01*
X7058Y4102D01*
Y4088D01*
X7052Y4082D01*
X7032D01*
X7045D02*
X7058Y4069D01*
X7092D02*
Y4108D01*
X7072Y4088D01*
X7098D01*
X7138Y4108D02*
X7112D01*
Y4088D01*
X7125Y4095D01*
X7132D01*
X7138Y4088D01*
Y4075D01*
X7132Y4069D01*
X7118D01*
X7112Y4075D01*
X2272Y3620D02*
X2299D01*
X2286D01*
Y3580D01*
X2312D02*
Y3620D01*
X2332D01*
X2339Y3614D01*
Y3600D01*
X2332Y3594D01*
X2312D01*
X2352Y3614D02*
X2359Y3620D01*
X2372D01*
X2379Y3614D01*
Y3607D01*
X2372Y3600D01*
X2366D01*
X2372D01*
X2379Y3594D01*
Y3587D01*
X2372Y3580D01*
X2359D01*
X2352Y3587D01*
X3091Y4420D02*
Y4395D01*
X3096Y4390D01*
X3106D01*
X3111Y4395D01*
Y4420D01*
X3121Y4415D02*
X3126Y4420D01*
X3136D01*
X3141Y4415D01*
Y4410D01*
X3136Y4405D01*
X3131D01*
X3136D01*
X3141Y4400D01*
Y4395D01*
X3136Y4390D01*
X3126D01*
X3121Y4395D01*
X3402Y2855D02*
Y2822D01*
X3408Y2815D01*
X3422D01*
X3428Y2822D01*
Y2855D01*
X3442Y2815D02*
X3455D01*
X3448D01*
Y2855D01*
X3442Y2848D01*
X3475Y2815D02*
X3488D01*
X3482D01*
Y2855D01*
X3475Y2848D01*
X3081Y2953D02*
Y2928D01*
X3086Y2923D01*
X3096D01*
X3101Y2928D01*
Y2953D01*
X3111Y2923D02*
X3121D01*
X3116D01*
Y2953D01*
X3111Y2948D01*
X3136D02*
X3141Y2953D01*
X3151D01*
X3156Y2948D01*
Y2928D01*
X3151Y2923D01*
X3141D01*
X3136Y2928D01*
Y2948D01*
X5102Y4069D02*
Y4108D01*
X5122D01*
X5128Y4102D01*
Y4088D01*
X5122Y4082D01*
X5102D01*
X5115D02*
X5128Y4069D01*
X5142Y4102D02*
X5148Y4108D01*
X5162D01*
X5168Y4102D01*
Y4095D01*
X5162Y4088D01*
X5155D01*
X5162D01*
X5168Y4082D01*
Y4075D01*
X5162Y4069D01*
X5148D01*
X5142Y4075D01*
X5182Y4102D02*
X5188Y4108D01*
X5202D01*
X5208Y4102D01*
Y4095D01*
X5202Y4088D01*
X5208Y4082D01*
Y4075D01*
X5202Y4069D01*
X5188D01*
X5182Y4075D01*
Y4082D01*
X5188Y4088D01*
X5182Y4095D01*
Y4102D01*
X5188Y4088D02*
X5202D01*
X2992Y2476D02*
X2962D01*
Y2491D01*
X2967Y2496D01*
X2977D01*
X2982Y2491D01*
Y2476D01*
Y2486D02*
X2992Y2496D01*
X2962Y2526D02*
X2967Y2516D01*
X2977Y2506D01*
X2987D01*
X2992Y2511D01*
Y2521D01*
X2987Y2526D01*
X2982D01*
X2977Y2521D01*
Y2506D01*
X2962Y2536D02*
Y2556D01*
X2967D01*
X2987Y2536D01*
X2992D01*
Y2579D02*
X2962D01*
Y2594D01*
X2967Y2599D01*
X2977D01*
X2982Y2594D01*
Y2579D01*
Y2589D02*
X2992Y2599D01*
X2962Y2629D02*
X2967Y2619D01*
X2977Y2609D01*
X2987D01*
X2992Y2614D01*
Y2624D01*
X2987Y2629D01*
X2982D01*
X2977Y2624D01*
Y2609D01*
X2962Y2659D02*
X2967Y2649D01*
X2977Y2639D01*
X2987D01*
X2992Y2644D01*
Y2654D01*
X2987Y2659D01*
X2982D01*
X2977Y2654D01*
Y2639D01*
X2697Y2018D02*
Y2048D01*
X2712D01*
X2717Y2043D01*
Y2033D01*
X2712Y2028D01*
X2697D01*
X2707D02*
X2717Y2018D01*
X2747Y2048D02*
X2737Y2043D01*
X2727Y2033D01*
Y2023D01*
X2732Y2018D01*
X2742D01*
X2747Y2023D01*
Y2028D01*
X2742Y2033D01*
X2727D01*
X2757Y2043D02*
X2762Y2048D01*
X2772D01*
X2777Y2043D01*
Y2038D01*
X2772Y2033D01*
X2767D01*
X2772D01*
X2777Y2028D01*
Y2023D01*
X2772Y2018D01*
X2762D01*
X2757Y2023D01*
X2313Y2933D02*
Y2973D01*
X2333D01*
X2340Y2966D01*
Y2953D01*
X2333Y2946D01*
X2313D01*
X2326D02*
X2340Y2933D01*
X2380Y2973D02*
X2353D01*
Y2953D01*
X2366Y2960D01*
X2373D01*
X2380Y2953D01*
Y2940D01*
X2373Y2933D01*
X2360D01*
X2353Y2940D01*
X2393Y2973D02*
X2420D01*
Y2966D01*
X2393Y2940D01*
Y2933D01*
X4995Y4055D02*
X4968D01*
X4962Y4048D01*
Y4035D01*
X4968Y4029D01*
X4995D01*
X5002Y4035D01*
Y4048D01*
X4988Y4042D02*
X5002Y4055D01*
Y4048D02*
X4995Y4055D01*
X5002Y4068D02*
Y4082D01*
Y4075D01*
X4962D01*
X4968Y4068D01*
Y4102D02*
X4962Y4108D01*
Y4122D01*
X4968Y4128D01*
X4995D01*
X5002Y4122D01*
Y4108D01*
X4995Y4102D01*
X4968D01*
X2762Y2254D02*
Y2273D01*
X2757Y2278D01*
X2747D01*
X2742Y2273D01*
Y2254D01*
X2747Y2249D01*
X2757D01*
X2752Y2259D02*
X2762Y2249D01*
X2757D02*
X2762Y2254D01*
X2772D02*
X2777Y2249D01*
X2787D01*
X2792Y2254D01*
Y2273D01*
X2787Y2278D01*
X2777D01*
X2772Y2273D01*
Y2268D01*
X2777Y2263D01*
X2792D01*
X4882Y4029D02*
X4922D01*
Y4048D01*
X4915Y4055D01*
X4888D01*
X4882Y4048D01*
Y4029D01*
X4922Y4068D02*
Y4082D01*
Y4075D01*
X4882D01*
X4888Y4068D01*
X4882Y4128D02*
X4888Y4115D01*
X4902Y4102D01*
X4915D01*
X4922Y4108D01*
Y4122D01*
X4915Y4128D01*
X4908D01*
X4902Y4122D01*
Y4102D01*
X2362Y2549D02*
X2402D01*
Y2569D01*
X2395Y2576D01*
X2368D01*
X2362Y2569D01*
Y2549D01*
X2402Y2589D02*
Y2603D01*
Y2596D01*
X2362D01*
X2368Y2589D01*
X2362Y2649D02*
Y2623D01*
X2382D01*
X2375Y2636D01*
Y2643D01*
X2382Y2649D01*
X2395D01*
X2402Y2643D01*
Y2629D01*
X2395Y2623D01*
X4768Y4144D02*
X4763Y4139D01*
Y4129D01*
X4768Y4124D01*
X4788D01*
X4793Y4129D01*
Y4139D01*
X4788Y4144D01*
X4793Y4169D02*
X4763D01*
X4778Y4154D01*
Y4174D01*
X4793Y4204D02*
Y4184D01*
X4773Y4204D01*
X4768D01*
X4763Y4199D01*
Y4189D01*
X4768Y4184D01*
X4223Y4198D02*
X4218Y4203D01*
X4208D01*
X4203Y4198D01*
Y4178D01*
X4208Y4173D01*
X4218D01*
X4223Y4178D01*
X4248Y4173D02*
Y4203D01*
X4233Y4188D01*
X4253D01*
X4263Y4173D02*
X4273D01*
X4268D01*
Y4203D01*
X4263Y4198D01*
X2933Y2781D02*
X2928Y2786D01*
X2918D01*
X2913Y2781D01*
Y2761D01*
X2918Y2756D01*
X2928D01*
X2933Y2761D01*
X2943Y2781D02*
X2948Y2786D01*
X2958D01*
X2963Y2781D01*
Y2776D01*
X2958Y2771D01*
X2953D01*
X2958D01*
X2963Y2766D01*
Y2761D01*
X2958Y2756D01*
X2948D01*
X2943Y2761D01*
X2973D02*
X2978Y2756D01*
X2988D01*
X2993Y2761D01*
Y2781D01*
X2988Y2786D01*
X2978D01*
X2973Y2781D01*
Y2776D01*
X2978Y2771D01*
X2993D01*
X5188Y3615D02*
X5182Y3608D01*
Y3595D01*
X5188Y3589D01*
X5215D01*
X5222Y3595D01*
Y3608D01*
X5215Y3615D01*
X5188Y3628D02*
X5182Y3635D01*
Y3648D01*
X5188Y3655D01*
X5195D01*
X5202Y3648D01*
Y3642D01*
Y3648D01*
X5208Y3655D01*
X5215D01*
X5222Y3648D01*
Y3635D01*
X5215Y3628D01*
X5188Y3668D02*
X5182Y3675D01*
Y3688D01*
X5188Y3695D01*
X5195D01*
X5202Y3688D01*
X5208Y3695D01*
X5215D01*
X5222Y3688D01*
Y3675D01*
X5215Y3668D01*
X5208D01*
X5202Y3675D01*
X5195Y3668D01*
X5188D01*
X5202Y3675D02*
Y3688D01*
X3818Y2682D02*
X3812Y2688D01*
X3798D01*
X3792Y2682D01*
Y2655D01*
X3798Y2649D01*
X3812D01*
X3818Y2655D01*
X3832Y2682D02*
X3838Y2688D01*
X3852D01*
X3858Y2682D01*
Y2675D01*
X3852Y2668D01*
X3845D01*
X3852D01*
X3858Y2662D01*
Y2655D01*
X3852Y2649D01*
X3838D01*
X3832Y2655D01*
X3872Y2688D02*
X3898D01*
Y2682D01*
X3872Y2655D01*
Y2649D01*
X2943Y2938D02*
X2938Y2943D01*
X2928D01*
X2923Y2938D01*
Y2918D01*
X2928Y2913D01*
X2938D01*
X2943Y2918D01*
X2953Y2938D02*
X2958Y2943D01*
X2968D01*
X2973Y2938D01*
Y2933D01*
X2968Y2928D01*
X2963D01*
X2968D01*
X2973Y2923D01*
Y2918D01*
X2968Y2913D01*
X2958D01*
X2953Y2918D01*
X3003Y2943D02*
X2993Y2938D01*
X2983Y2928D01*
Y2918D01*
X2988Y2913D01*
X2998D01*
X3003Y2918D01*
Y2923D01*
X2998Y2928D01*
X2983D01*
X5388Y3615D02*
X5382Y3608D01*
Y3595D01*
X5388Y3589D01*
X5415D01*
X5422Y3595D01*
Y3608D01*
X5415Y3615D01*
X5388Y3628D02*
X5382Y3635D01*
Y3648D01*
X5388Y3655D01*
X5395D01*
X5402Y3648D01*
Y3642D01*
Y3648D01*
X5408Y3655D01*
X5415D01*
X5422Y3648D01*
Y3635D01*
X5415Y3628D01*
X5382Y3695D02*
Y3668D01*
X5402D01*
X5395Y3682D01*
Y3688D01*
X5402Y3695D01*
X5415D01*
X5422Y3688D01*
Y3675D01*
X5415Y3668D01*
X3818Y2792D02*
X3812Y2798D01*
X3798D01*
X3792Y2792D01*
Y2765D01*
X3798Y2759D01*
X3812D01*
X3818Y2765D01*
X3832Y2792D02*
X3838Y2798D01*
X3852D01*
X3858Y2792D01*
Y2785D01*
X3852Y2778D01*
X3845D01*
X3852D01*
X3858Y2772D01*
Y2765D01*
X3852Y2759D01*
X3838D01*
X3832Y2765D01*
X3892Y2759D02*
Y2798D01*
X3872Y2778D01*
X3898D01*
X3322Y2963D02*
X3317Y2968D01*
X3307D01*
X3302Y2963D01*
Y2944D01*
X3307Y2939D01*
X3317D01*
X3322Y2944D01*
X3332Y2963D02*
X3337Y2968D01*
X3347D01*
X3352Y2963D01*
Y2958D01*
X3347Y2953D01*
X3342D01*
X3347D01*
X3352Y2949D01*
Y2944D01*
X3347Y2939D01*
X3337D01*
X3332Y2944D01*
X3362Y2963D02*
X3367Y2968D01*
X3377D01*
X3382Y2963D01*
Y2958D01*
X3377Y2953D01*
X3372D01*
X3377D01*
X3382Y2949D01*
Y2944D01*
X3377Y2939D01*
X3367D01*
X3362Y2944D01*
X7106Y7835D02*
Y7795D01*
X7126D01*
X7133Y7802D01*
Y7829D01*
X7126Y7835D01*
X7106D01*
X7166Y7795D02*
Y7835D01*
X7146Y7815D01*
X7173D01*
X7480Y7284D02*
Y7244D01*
X7500D01*
X7507Y7251D01*
Y7277D01*
X7500Y7284D01*
X7480D01*
X7520D02*
X7547D01*
Y7277D01*
X7520Y7251D01*
Y7244D01*
X7315Y7442D02*
Y7402D01*
X7335D01*
X7342Y7408D01*
Y7435D01*
X7335Y7442D01*
X7315D01*
X7355Y7435D02*
X7362Y7442D01*
X7375D01*
X7382Y7435D01*
Y7428D01*
X7375Y7422D01*
X7382Y7415D01*
Y7408D01*
X7375Y7402D01*
X7362D01*
X7355Y7408D01*
Y7415D01*
X7362Y7422D01*
X7355Y7428D01*
Y7435D01*
X7362Y7422D02*
X7375D01*
X3755Y2441D02*
X3750Y2436D01*
Y2426D01*
X3755Y2421D01*
X3775D01*
X3780Y2426D01*
Y2436D01*
X3775Y2441D01*
X3780Y2471D02*
Y2451D01*
X3760Y2471D01*
X3755D01*
X3750Y2466D01*
Y2456D01*
X3755Y2451D01*
X3750Y2501D02*
X3755Y2491D01*
X3765Y2481D01*
X3775D01*
X3780Y2486D01*
Y2496D01*
X3775Y2501D01*
X3770D01*
X3765Y2496D01*
Y2481D01*
X3583Y2013D02*
X3578Y2018D01*
X3568D01*
X3563Y2013D01*
Y1993D01*
X3568Y1988D01*
X3578D01*
X3583Y1993D01*
X3608Y1988D02*
Y2018D01*
X3593Y2003D01*
X3613D01*
X3623Y2013D02*
X3628Y2018D01*
X3638D01*
X3643Y2013D01*
Y1993D01*
X3638Y1988D01*
X3628D01*
X3623Y1993D01*
Y2013D01*
X3209Y2304D02*
Y2264D01*
X3229D01*
X3235Y2270D01*
Y2297D01*
X3229Y2304D01*
X3209D01*
X3249Y2264D02*
X3262D01*
X3255D01*
Y2304D01*
X3249Y2297D01*
X3282D02*
X3289Y2304D01*
X3302D01*
X3309Y2297D01*
Y2290D01*
X3302Y2284D01*
X3295D01*
X3302D01*
X3309Y2277D01*
Y2270D01*
X3302Y2264D01*
X3289D01*
X3282Y2270D01*
X3209Y2383D02*
Y2343D01*
X3229D01*
X3235Y2349D01*
Y2376D01*
X3229Y2383D01*
X3209D01*
X3249Y2343D02*
X3262D01*
X3255D01*
Y2383D01*
X3249Y2376D01*
X3302Y2343D02*
Y2383D01*
X3282Y2363D01*
X3309D01*
X4114Y2146D02*
Y2176D01*
X4129D01*
X4134Y2171D01*
Y2161D01*
X4129Y2156D01*
X4114D01*
X4124D02*
X4134Y2146D01*
X4159D02*
Y2176D01*
X4144Y2161D01*
X4164D01*
X4194Y2146D02*
X4174D01*
X4194Y2166D01*
Y2171D01*
X4189Y2176D01*
X4179D01*
X4174Y2171D01*
X4114Y2343D02*
Y2383D01*
X4134D01*
X4141Y2376D01*
Y2363D01*
X4134Y2356D01*
X4114D01*
X4128D02*
X4141Y2343D01*
X4174D02*
Y2383D01*
X4154Y2363D01*
X4181D01*
X4194Y2376D02*
X4201Y2383D01*
X4214D01*
X4221Y2376D01*
Y2369D01*
X4214Y2363D01*
X4207D01*
X4214D01*
X4221Y2356D01*
Y2349D01*
X4214Y2343D01*
X4201D01*
X4194Y2349D01*
X3197Y2165D02*
Y2205D01*
X3217D01*
X3223Y2199D01*
Y2185D01*
X3217Y2179D01*
X3197D01*
X3210D02*
X3223Y2165D01*
X3263Y2205D02*
X3250Y2199D01*
X3237Y2185D01*
Y2172D01*
X3243Y2165D01*
X3257D01*
X3263Y2172D01*
Y2179D01*
X3257Y2185D01*
X3237D01*
X3297Y2165D02*
Y2205D01*
X3277Y2185D01*
X3303D01*
X4114Y2244D02*
Y2274D01*
X4129D01*
X4134Y2269D01*
Y2259D01*
X4129Y2254D01*
X4114D01*
X4124D02*
X4134Y2244D01*
X4164Y2274D02*
X4154Y2269D01*
X4144Y2259D01*
Y2249D01*
X4149Y2244D01*
X4159D01*
X4164Y2249D01*
Y2254D01*
X4159Y2259D01*
X4144D01*
X4174Y2269D02*
X4179Y2274D01*
X4189D01*
X4194Y2269D01*
Y2264D01*
X4189Y2259D01*
X4194Y2254D01*
Y2249D01*
X4189Y2244D01*
X4179D01*
X4174Y2249D01*
Y2254D01*
X4179Y2259D01*
X4174Y2264D01*
Y2269D01*
X4179Y2259D02*
X4189D01*
X3898Y2057D02*
Y2097D01*
X3918D01*
X3924Y2090D01*
Y2077D01*
X3918Y2070D01*
X3898D01*
X3911D02*
X3924Y2057D01*
X3958D02*
Y2097D01*
X3938Y2077D01*
X3964D01*
X3998Y2057D02*
Y2097D01*
X3978Y2077D01*
X4004D01*
X3945Y2520D02*
Y2560D01*
X3965D01*
X3972Y2553D01*
Y2540D01*
X3965Y2533D01*
X3945D01*
X3958D02*
X3972Y2520D01*
X3985Y2560D02*
X4012D01*
Y2553D01*
X3985Y2526D01*
Y2520D01*
X4052D02*
X4025D01*
X4052Y2546D01*
Y2553D01*
X4045Y2560D01*
X4032D01*
X4025Y2553D01*
X3197Y2067D02*
Y2107D01*
X3217D01*
X3223Y2100D01*
Y2087D01*
X3217Y2080D01*
X3197D01*
X3210D02*
X3223Y2067D01*
X3263Y2107D02*
X3237D01*
Y2087D01*
X3250Y2094D01*
X3257D01*
X3263Y2087D01*
Y2074D01*
X3257Y2067D01*
X3243D01*
X3237Y2074D01*
X3277Y2100D02*
X3283Y2107D01*
X3297D01*
X3303Y2100D01*
Y2094D01*
X3297Y2087D01*
X3290D01*
X3297D01*
X3303Y2080D01*
Y2074D01*
X3297Y2067D01*
X3283D01*
X3277Y2074D01*
X4152Y2519D02*
Y2558D01*
X4172D01*
X4178Y2552D01*
Y2538D01*
X4172Y2532D01*
X4152D01*
X4165D02*
X4178Y2519D01*
X4212D02*
Y2558D01*
X4192Y2538D01*
X4218D01*
X4232Y2525D02*
X4238Y2519D01*
X4252D01*
X4258Y2525D01*
Y2552D01*
X4252Y2558D01*
X4238D01*
X4232Y2552D01*
Y2545D01*
X4238Y2538D01*
X4258D01*
X3307Y2417D02*
X3277D01*
Y2432D01*
X3282Y2437D01*
X3292D01*
X3297Y2432D01*
Y2417D01*
Y2427D02*
X3307Y2437D01*
Y2462D02*
X3277D01*
X3292Y2447D01*
Y2467D01*
X3282Y2477D02*
X3277Y2482D01*
Y2492D01*
X3282Y2497D01*
X3287D01*
X3292Y2492D01*
X3297Y2497D01*
X3302D01*
X3307Y2492D01*
Y2482D01*
X3302Y2477D01*
X3297D01*
X3292Y2482D01*
X3287Y2477D01*
X3282D01*
X3292Y2482D02*
Y2492D01*
X3602Y2442D02*
Y2408D01*
X3609Y2402D01*
X3622D01*
X3629Y2408D01*
Y2442D01*
X3642Y2402D02*
X3656D01*
X3649D01*
Y2442D01*
X3642Y2435D01*
X3702Y2442D02*
X3676D01*
Y2422D01*
X3689Y2428D01*
X3696D01*
X3702Y2422D01*
Y2408D01*
X3696Y2402D01*
X3682D01*
X3676Y2408D01*
X8008Y3832D02*
X8002Y3838D01*
X7988D01*
X7982Y3832D01*
Y3805D01*
X7988Y3799D01*
X8002D01*
X8008Y3805D01*
X8042Y3799D02*
Y3838D01*
X8022Y3818D01*
X8048D01*
X8088Y3838D02*
X8062D01*
Y3818D01*
X8075Y3825D01*
X8082D01*
X8088Y3818D01*
Y3805D01*
X8082Y3799D01*
X8068D01*
X8062Y3805D01*
X8008Y5492D02*
X8002Y5498D01*
X7988D01*
X7982Y5492D01*
Y5465D01*
X7988Y5459D01*
X8002D01*
X8008Y5465D01*
X8042Y5459D02*
Y5498D01*
X8022Y5478D01*
X8048D01*
X8088Y5498D02*
X8075Y5492D01*
X8062Y5478D01*
Y5465D01*
X8068Y5459D01*
X8082D01*
X8088Y5465D01*
Y5472D01*
X8082Y5478D01*
X8062D01*
X4968Y3752D02*
X4962Y3758D01*
X4948D01*
X4942Y3752D01*
Y3725D01*
X4948Y3719D01*
X4962D01*
X4968Y3725D01*
X5002Y3719D02*
Y3758D01*
X4982Y3738D01*
X5008D01*
X5022Y3758D02*
X5048D01*
Y3752D01*
X5022Y3725D01*
Y3719D01*
X6596Y3288D02*
Y3259D01*
X6611D01*
X6616Y3264D01*
Y3283D01*
X6611Y3288D01*
X6596D01*
X6626Y3259D02*
X6636D01*
X6631D01*
Y3288D01*
X6626Y3283D01*
X6651D02*
X6656Y3288D01*
X6666D01*
X6671Y3283D01*
Y3278D01*
X6666Y3273D01*
X6671Y3269D01*
Y3264D01*
X6666Y3259D01*
X6656D01*
X6651Y3264D01*
Y3269D01*
X6656Y3273D01*
X6651Y3278D01*
Y3283D01*
X6656Y3273D02*
X6666D01*
X6762Y3268D02*
Y3239D01*
X6777D01*
X6782Y3244D01*
Y3263D01*
X6777Y3268D01*
X6762D01*
X6792Y3239D02*
X6802D01*
X6797D01*
Y3268D01*
X6792Y3263D01*
X6817Y3244D02*
X6822Y3239D01*
X6832D01*
X6837Y3244D01*
Y3263D01*
X6832Y3268D01*
X6822D01*
X6817Y3263D01*
Y3258D01*
X6822Y3253D01*
X6837D01*
X6272Y2378D02*
Y2339D01*
X6292D01*
X6298Y2345D01*
Y2372D01*
X6292Y2378D01*
X6272D01*
X6338Y2339D02*
X6312D01*
X6338Y2365D01*
Y2372D01*
X6332Y2378D01*
X6318D01*
X6312Y2372D01*
X6352D02*
X6358Y2378D01*
X6372D01*
X6378Y2372D01*
Y2345D01*
X6372Y2339D01*
X6358D01*
X6352Y2345D01*
Y2372D01*
X4632Y3288D02*
Y3259D01*
X4647D01*
X4652Y3264D01*
Y3283D01*
X4647Y3288D01*
X4632D01*
X4682Y3259D02*
X4662D01*
X4682Y3278D01*
Y3283D01*
X4677Y3288D01*
X4667D01*
X4662Y3283D01*
X4712Y3259D02*
X4692D01*
X4712Y3278D01*
Y3283D01*
X4707Y3288D01*
X4697D01*
X4692Y3283D01*
X4792Y3268D02*
Y3239D01*
X4807D01*
X4812Y3244D01*
Y3263D01*
X4807Y3268D01*
X4792D01*
X4822Y3239D02*
X4832D01*
X4827D01*
Y3268D01*
X4822Y3263D01*
X4847Y3268D02*
X4867D01*
Y3263D01*
X4847Y3244D01*
Y3239D01*
X4302Y2378D02*
Y2339D01*
X4322D01*
X4328Y2345D01*
Y2372D01*
X4322Y2378D01*
X4302D01*
X4368Y2339D02*
X4342D01*
X4368Y2365D01*
Y2372D01*
X4362Y2378D01*
X4348D01*
X4342Y2372D01*
X4382Y2339D02*
X4395D01*
X4388D01*
Y2378D01*
X4382Y2372D01*
X6458Y2225D02*
Y2252D01*
X6452Y2258D01*
X6438D01*
X6432Y2252D01*
Y2225D01*
X6438Y2219D01*
X6452D01*
X6445Y2232D02*
X6458Y2219D01*
X6452D02*
X6458Y2225D01*
X6498Y2258D02*
X6472D01*
Y2238D01*
X6485Y2245D01*
X6492D01*
X6498Y2238D01*
Y2225D01*
X6492Y2219D01*
X6478D01*
X6472Y2225D01*
X4458D02*
Y2252D01*
X4452Y2258D01*
X4438D01*
X4432Y2252D01*
Y2225D01*
X4438Y2219D01*
X4452D01*
X4445Y2232D02*
X4458Y2219D01*
X4452D02*
X4458Y2225D01*
X4498Y2258D02*
X4485Y2252D01*
X4472Y2238D01*
Y2225D01*
X4478Y2219D01*
X4492D01*
X4498Y2225D01*
Y2232D01*
X4492Y2238D01*
X4472D01*
X7067Y3091D02*
Y3131D01*
X7087D01*
X7094Y3124D01*
Y3111D01*
X7087Y3104D01*
X7067D01*
X7080D02*
X7094Y3091D01*
X7107D02*
X7120D01*
X7114D01*
Y3131D01*
X7107Y3124D01*
X7140D02*
X7147Y3131D01*
X7160D01*
X7167Y3124D01*
Y3117D01*
X7160Y3111D01*
X7167Y3104D01*
Y3097D01*
X7160Y3091D01*
X7147D01*
X7140Y3097D01*
Y3104D01*
X7147Y3111D01*
X7140Y3117D01*
Y3124D01*
X7147Y3111D02*
X7160D01*
X6516Y3091D02*
Y3131D01*
X6536D01*
X6542Y3124D01*
Y3111D01*
X6536Y3104D01*
X6516D01*
X6529D02*
X6542Y3091D01*
X6556D02*
X6569D01*
X6562D01*
Y3131D01*
X6556Y3124D01*
X6589Y3097D02*
X6596Y3091D01*
X6609D01*
X6616Y3097D01*
Y3124D01*
X6609Y3131D01*
X6596D01*
X6589Y3124D01*
Y3117D01*
X6596Y3111D01*
X6616D01*
X8199Y3858D02*
Y3898D01*
X8219D01*
X8225Y3892D01*
Y3878D01*
X8219Y3872D01*
X8199D01*
X8212D02*
X8225Y3858D01*
X8265D02*
X8239D01*
X8265Y3885D01*
Y3892D01*
X8259Y3898D01*
X8245D01*
X8239Y3892D01*
X8279D02*
X8285Y3898D01*
X8299D01*
X8305Y3892D01*
Y3865D01*
X8299Y3858D01*
X8285D01*
X8279Y3865D01*
Y3892D01*
X7264Y3189D02*
Y3229D01*
X7284D01*
X7290Y3222D01*
Y3209D01*
X7284Y3202D01*
X7264D01*
X7277D02*
X7290Y3189D01*
X7330D02*
X7304D01*
X7330Y3216D01*
Y3222D01*
X7324Y3229D01*
X7310D01*
X7304Y3222D01*
X7364Y3189D02*
Y3229D01*
X7344Y3209D01*
X7370D01*
X6562Y2259D02*
Y2298D01*
X6582D01*
X6588Y2292D01*
Y2278D01*
X6582Y2272D01*
X6562D01*
X6575D02*
X6588Y2259D01*
X6628D02*
X6602D01*
X6628Y2285D01*
Y2292D01*
X6622Y2298D01*
X6608D01*
X6602Y2292D01*
X6668Y2298D02*
X6642D01*
Y2278D01*
X6655Y2285D01*
X6662D01*
X6668Y2278D01*
Y2265D01*
X6662Y2259D01*
X6648D01*
X6642Y2265D01*
X5092Y3089D02*
Y3128D01*
X5112D01*
X5118Y3122D01*
Y3108D01*
X5112Y3102D01*
X5092D01*
X5105D02*
X5118Y3089D01*
X5158D02*
X5132D01*
X5158Y3115D01*
Y3122D01*
X5152Y3128D01*
X5138D01*
X5132Y3122D01*
X5198Y3128D02*
X5185Y3122D01*
X5172Y3108D01*
Y3095D01*
X5178Y3089D01*
X5192D01*
X5198Y3095D01*
Y3102D01*
X5192Y3108D01*
X5172D01*
X4542Y3089D02*
Y3128D01*
X4562D01*
X4568Y3122D01*
Y3108D01*
X4562Y3102D01*
X4542D01*
X4555D02*
X4568Y3089D01*
X4608D02*
X4582D01*
X4608Y3115D01*
Y3122D01*
X4602Y3128D01*
X4588D01*
X4582Y3122D01*
X4622D02*
X4628Y3128D01*
X4642D01*
X4648Y3122D01*
Y3115D01*
X4642Y3108D01*
X4648Y3102D01*
Y3095D01*
X4642Y3089D01*
X4628D01*
X4622Y3095D01*
Y3102D01*
X4628Y3108D01*
X4622Y3115D01*
Y3122D01*
X4628Y3108D02*
X4642D01*
X8202Y5509D02*
Y5548D01*
X8222D01*
X8228Y5542D01*
Y5528D01*
X8222Y5522D01*
X8202D01*
X8215D02*
X8228Y5509D01*
X8268D02*
X8242D01*
X8268Y5535D01*
Y5542D01*
X8262Y5548D01*
X8248D01*
X8242Y5542D01*
X8282Y5515D02*
X8288Y5509D01*
X8302D01*
X8308Y5515D01*
Y5542D01*
X8302Y5548D01*
X8288D01*
X8282Y5542D01*
Y5535D01*
X8288Y5528D01*
X8308D01*
X5312Y3189D02*
Y3228D01*
X5332D01*
X5338Y3222D01*
Y3208D01*
X5332Y3202D01*
X5312D01*
X5325D02*
X5338Y3189D01*
X5352Y3222D02*
X5358Y3228D01*
X5372D01*
X5378Y3222D01*
Y3215D01*
X5372Y3208D01*
X5365D01*
X5372D01*
X5378Y3202D01*
Y3195D01*
X5372Y3189D01*
X5358D01*
X5352Y3195D01*
X5418Y3228D02*
X5405Y3222D01*
X5392Y3208D01*
Y3195D01*
X5398Y3189D01*
X5412D01*
X5418Y3195D01*
Y3202D01*
X5412Y3208D01*
X5392D01*
X4572Y2259D02*
Y2298D01*
X4592D01*
X4598Y2292D01*
Y2278D01*
X4592Y2272D01*
X4572D01*
X4585D02*
X4598Y2259D01*
X4612Y2292D02*
X4618Y2298D01*
X4632D01*
X4638Y2292D01*
Y2285D01*
X4632Y2278D01*
X4625D01*
X4632D01*
X4638Y2272D01*
Y2265D01*
X4632Y2259D01*
X4618D01*
X4612Y2265D01*
X4652Y2298D02*
X4678D01*
Y2292D01*
X4652Y2265D01*
Y2259D01*
X7812Y3953D02*
Y3924D01*
X7817Y3919D01*
X7829D01*
X7835Y3924D01*
Y3953D01*
X7870D02*
X7847D01*
Y3936D01*
X7858Y3942D01*
X7864D01*
X7870Y3936D01*
Y3924D01*
X7864Y3919D01*
X7852D01*
X7847Y3924D01*
X7772Y5613D02*
Y5584D01*
X7777Y5579D01*
X7789D01*
X7795Y5584D01*
Y5613D01*
X7807Y5579D02*
X7818D01*
X7812D01*
Y5613D01*
X7807Y5608D01*
X7859Y5613D02*
X7847Y5608D01*
X7836Y5596D01*
Y5584D01*
X7842Y5579D01*
X7853D01*
X7859Y5584D01*
Y5590D01*
X7853Y5596D01*
X7836D01*
X3779Y6479D02*
Y6439D01*
X3799D01*
X3806Y6446D01*
Y6472D01*
X3799Y6479D01*
X3779D01*
X3846D02*
X3832Y6472D01*
X3819Y6459D01*
Y6446D01*
X3826Y6439D01*
X3839D01*
X3846Y6446D01*
Y6452D01*
X3839Y6459D01*
X3819D01*
D78*
X2120Y4030D02*
X2290D01*
X2120Y3884D02*
Y4030D01*
Y3884D02*
X2290D01*
Y4030D01*
X4272Y8150D02*
X4547D01*
Y7854D02*
Y8150D01*
X4272Y7854D02*
X4547D01*
X4272D02*
Y8150D01*
X3957Y7854D02*
Y8150D01*
Y7854D02*
X4232D01*
Y8150D01*
X3957D02*
X4232D01*
X2290Y2369D02*
Y2515D01*
X2120Y2369D02*
X2290D01*
X2120D02*
Y2515D01*
X2290D01*
M02*
