G04*
G04 #@! TF.GenerationSoftware,Altium Limited,CircuitStudio,1.5.1 (13)*
G04*
G04 Layer_Color=20142*
%FSLAX23Y23*%
%MOIN*%
G70*
G01*
G75*
%ADD43C,0.010*%
%ADD46C,0.020*%
%ADD73R,0.068X0.058*%
%ADD74R,0.058X0.068*%
%ADD75R,0.144X0.081*%
%ADD76R,0.058X0.115*%
%ADD77R,0.063X0.173*%
G04:AMPARAMS|DCode=78|XSize=51mil|YSize=78mil|CornerRadius=7mil|HoleSize=0mil|Usage=FLASHONLY|Rotation=90.000|XOffset=0mil|YOffset=0mil|HoleType=Round|Shape=RoundedRectangle|*
%AMROUNDEDRECTD78*
21,1,0.051,0.064,0,0,90.0*
21,1,0.037,0.078,0,0,90.0*
1,1,0.014,0.032,0.018*
1,1,0.014,0.032,-0.018*
1,1,0.014,-0.032,-0.018*
1,1,0.014,-0.032,0.018*
%
%ADD78ROUNDEDRECTD78*%
G04:AMPARAMS|DCode=79|XSize=45mil|YSize=78mil|CornerRadius=7mil|HoleSize=0mil|Usage=FLASHONLY|Rotation=90.000|XOffset=0mil|YOffset=0mil|HoleType=Round|Shape=RoundedRectangle|*
%AMROUNDEDRECTD79*
21,1,0.045,0.065,0,0,90.0*
21,1,0.032,0.078,0,0,90.0*
1,1,0.013,0.032,0.016*
1,1,0.013,0.032,-0.016*
1,1,0.013,-0.032,-0.016*
1,1,0.013,-0.032,0.016*
%
%ADD79ROUNDEDRECTD79*%
%ADD80R,0.071X0.039*%
%ADD81R,0.043X0.045*%
%ADD82R,0.043X0.045*%
%ADD83R,0.032X0.058*%
%ADD84R,0.032X0.036*%
%ADD85R,0.169X0.158*%
%ADD86R,0.038X0.031*%
%ADD87R,0.014X0.020*%
%ADD88R,0.055X0.032*%
G04:AMPARAMS|DCode=89|XSize=83mil|YSize=141mil|CornerRadius=7mil|HoleSize=0mil|Usage=FLASHONLY|Rotation=0.000|XOffset=0mil|YOffset=0mil|HoleType=Round|Shape=RoundedRectangle|*
%AMROUNDEDRECTD89*
21,1,0.083,0.127,0,0,0.0*
21,1,0.070,0.141,0,0,0.0*
1,1,0.013,0.035,-0.064*
1,1,0.013,-0.035,-0.064*
1,1,0.013,-0.035,0.064*
1,1,0.013,0.035,0.064*
%
%ADD89ROUNDEDRECTD89*%
%ADD90R,0.087X0.232*%
%ADD91R,0.039X0.071*%
G04:AMPARAMS|DCode=92|XSize=83mil|YSize=141mil|CornerRadius=7mil|HoleSize=0mil|Usage=FLASHONLY|Rotation=270.000|XOffset=0mil|YOffset=0mil|HoleType=Round|Shape=RoundedRectangle|*
%AMROUNDEDRECTD92*
21,1,0.083,0.127,0,0,270.0*
21,1,0.070,0.141,0,0,270.0*
1,1,0.013,-0.064,-0.035*
1,1,0.013,-0.064,0.035*
1,1,0.013,0.064,0.035*
1,1,0.013,0.064,-0.035*
%
%ADD92ROUNDEDRECTD92*%
%ADD93R,0.055X0.058*%
G04:AMPARAMS|DCode=94|XSize=66mil|YSize=24mil|CornerRadius=6mil|HoleSize=0mil|Usage=FLASHONLY|Rotation=0.000|XOffset=0mil|YOffset=0mil|HoleType=Round|Shape=RoundedRectangle|*
%AMROUNDEDRECTD94*
21,1,0.066,0.012,0,0,0.0*
21,1,0.054,0.024,0,0,0.0*
1,1,0.012,0.027,-0.006*
1,1,0.012,-0.027,-0.006*
1,1,0.012,-0.027,0.006*
1,1,0.012,0.027,0.006*
%
%ADD94ROUNDEDRECTD94*%
%ADD95R,0.055X0.024*%
%ADD96R,0.071X0.126*%
%ADD97R,0.244X0.244*%
%ADD98R,0.058X0.055*%
G04:AMPARAMS|DCode=99|XSize=65mil|YSize=31mil|CornerRadius=7mil|HoleSize=0mil|Usage=FLASHONLY|Rotation=270.000|XOffset=0mil|YOffset=0mil|HoleType=Round|Shape=RoundedRectangle|*
%AMROUNDEDRECTD99*
21,1,0.065,0.017,0,0,270.0*
21,1,0.051,0.031,0,0,270.0*
1,1,0.014,-0.009,-0.026*
1,1,0.014,-0.009,0.026*
1,1,0.014,0.009,0.026*
1,1,0.014,0.009,-0.026*
%
%ADD99ROUNDEDRECTD99*%
%ADD100R,0.043X0.039*%
%ADD101R,0.032X0.058*%
%ADD102R,0.225X0.085*%
G04:AMPARAMS|DCode=103|XSize=55mil|YSize=24mil|CornerRadius=6mil|HoleSize=0mil|Usage=FLASHONLY|Rotation=0.000|XOffset=0mil|YOffset=0mil|HoleType=Round|Shape=RoundedRectangle|*
%AMROUNDEDRECTD103*
21,1,0.055,0.012,0,0,0.0*
21,1,0.043,0.024,0,0,0.0*
1,1,0.012,0.021,-0.006*
1,1,0.012,-0.021,-0.006*
1,1,0.012,-0.021,0.006*
1,1,0.012,0.021,0.006*
%
%ADD103ROUNDEDRECTD103*%
%ADD104C,0.165*%
%ADD105C,0.095*%
%ADD106R,0.068X0.068*%
%ADD107C,0.068*%
%ADD108C,0.183*%
%ADD109C,0.071*%
%ADD110R,0.071X0.071*%
%ADD111C,0.099*%
%ADD112R,0.099X0.099*%
%ADD113C,0.087*%
%ADD114R,0.087X0.087*%
%ADD115C,0.114*%
%ADD116R,0.064X0.064*%
%ADD117R,0.068X0.068*%
%ADD118C,0.068*%
%ADD119C,0.102*%
%ADD120R,0.071X0.071*%
%ADD121C,0.048*%
%ADD122C,0.038*%
G36*
X4415Y7441D02*
X4416D01*
Y7283D01*
X4343D01*
Y7421D01*
X4333D01*
Y7469D01*
X4365D01*
Y7441D01*
X4384D01*
Y7469D01*
X4415D01*
Y7441D01*
D02*
G37*
G36*
X4515Y7421D02*
X4505D01*
Y7283D01*
X4432D01*
Y7441D01*
X4433D01*
Y7469D01*
X4464D01*
Y7441D01*
X4483D01*
Y7469D01*
X4515D01*
Y7421D01*
D02*
G37*
D43*
X1772Y8268D02*
X8858D01*
Y1969D02*
Y8268D01*
X1772Y1969D02*
Y8268D01*
Y1969D02*
X8858D01*
D46*
X9813Y3702D02*
X9880D01*
X9846D01*
Y3602D01*
X9963Y3702D02*
X9930D01*
X9913Y3685D01*
Y3619D01*
X9930Y3602D01*
X9963D01*
X9980Y3619D01*
Y3685D01*
X9963Y3702D01*
X10013Y3602D02*
Y3702D01*
X10063D01*
X10080Y3685D01*
Y3652D01*
X10063Y3635D01*
X10013D01*
X10280Y3685D02*
X10263Y3702D01*
X10230D01*
X10213Y3685D01*
Y3669D01*
X10230Y3652D01*
X10263D01*
X10280Y3635D01*
Y3619D01*
X10263Y3602D01*
X10230D01*
X10213Y3619D01*
X10313Y3602D02*
Y3702D01*
X10346Y3669D01*
X10380Y3702D01*
Y3602D01*
D73*
X3263Y6752D02*
D03*
X3351D02*
D03*
X6540Y6762D02*
D03*
X6452D02*
D03*
Y6663D02*
D03*
X6540D02*
D03*
X2406Y4606D02*
D03*
X2318D02*
D03*
X2633Y3681D02*
D03*
X2721D02*
D03*
X3154Y3996D02*
D03*
X3066D02*
D03*
X3154Y4094D02*
D03*
X3066D02*
D03*
X2318Y3031D02*
D03*
X2406D02*
D03*
X2725Y2106D02*
D03*
X2638D02*
D03*
X3066Y2421D02*
D03*
X3154D02*
D03*
X3066Y2520D02*
D03*
X3154D02*
D03*
X4670Y2579D02*
D03*
X4582D02*
D03*
X4670Y2776D02*
D03*
X4582D02*
D03*
X4650Y6102D02*
D03*
X4563D02*
D03*
X4508Y6929D02*
D03*
X4595D02*
D03*
X7181Y7165D02*
D03*
X7268D02*
D03*
X7367Y6929D02*
D03*
X7279D02*
D03*
X7476Y7165D02*
D03*
X7563D02*
D03*
X7560Y5965D02*
D03*
X7648D02*
D03*
X7367Y3898D02*
D03*
X7279D02*
D03*
Y2638D02*
D03*
X7367D02*
D03*
X4567Y4350D02*
D03*
X4654D02*
D03*
X4567Y4154D02*
D03*
X4654D02*
D03*
D74*
X4291Y7701D02*
D03*
Y7614D02*
D03*
X3642Y5404D02*
D03*
Y5316D02*
D03*
X3640Y5901D02*
D03*
Y5989D02*
D03*
Y6210D02*
D03*
Y6122D02*
D03*
X4528Y5111D02*
D03*
Y5198D02*
D03*
X4646D02*
D03*
Y5111D02*
D03*
X4754Y5111D02*
D03*
Y5198D02*
D03*
X4862D02*
D03*
Y5111D02*
D03*
X6817Y8115D02*
D03*
Y8027D02*
D03*
X6935D02*
D03*
Y8115D02*
D03*
Y7878D02*
D03*
Y7791D02*
D03*
X6870Y7091D02*
D03*
Y7003D02*
D03*
X6988D02*
D03*
Y7091D02*
D03*
Y7327D02*
D03*
Y7240D02*
D03*
X6614Y6255D02*
D03*
Y6343D02*
D03*
X6737D02*
D03*
Y6255D02*
D03*
X6614Y6107D02*
D03*
Y6019D02*
D03*
X6737Y6107D02*
D03*
Y6019D02*
D03*
X6356Y3075D02*
D03*
Y2988D02*
D03*
X6566Y2982D02*
D03*
Y3070D02*
D03*
X6352Y4563D02*
D03*
Y4650D02*
D03*
X6561Y4650D02*
D03*
Y4563D02*
D03*
D75*
X8504Y6161D02*
D03*
X4048Y4055D02*
D03*
X2106Y4606D02*
D03*
X3740Y3524D02*
D03*
X6850Y3917D02*
D03*
Y3524D02*
D03*
X4252Y5512D02*
D03*
X8504Y5571D02*
D03*
D76*
X3642Y5551D02*
D03*
X3746D02*
D03*
D77*
X3642Y5738D02*
D03*
X3799D02*
D03*
D78*
X5039Y4141D02*
D03*
X6079Y2566D02*
D03*
Y2747D02*
D03*
X5371Y2566D02*
D03*
Y2747D02*
D03*
X5044Y2566D02*
D03*
Y2747D02*
D03*
X5725D02*
D03*
Y2566D02*
D03*
X6075Y4322D02*
D03*
Y4141D02*
D03*
X5720D02*
D03*
Y4322D02*
D03*
X5366D02*
D03*
Y4141D02*
D03*
X5039Y4322D02*
D03*
D79*
Y4259D02*
D03*
X6079Y2685D02*
D03*
Y2866D02*
D03*
X5371Y2685D02*
D03*
Y2866D02*
D03*
X5044Y2685D02*
D03*
Y2866D02*
D03*
X5725D02*
D03*
Y2685D02*
D03*
X6075Y4441D02*
D03*
Y4259D02*
D03*
X5720D02*
D03*
Y4441D02*
D03*
X5366D02*
D03*
Y4259D02*
D03*
X5039Y4441D02*
D03*
D80*
X3299Y7037D02*
D03*
X3433D02*
D03*
X7390Y6811D02*
D03*
X7256D02*
D03*
X7213Y4199D02*
D03*
X7079D02*
D03*
X7213Y2943D02*
D03*
X7079D02*
D03*
D81*
X3270Y6844D02*
D03*
X3307Y6936D02*
D03*
X2640Y3766D02*
D03*
X2677Y3858D02*
D03*
X2640Y2191D02*
D03*
X2677Y2283D02*
D03*
X6888Y6065D02*
D03*
X6851Y5973D02*
D03*
X7285Y4009D02*
D03*
X7323Y4101D02*
D03*
X7285Y2749D02*
D03*
X7323Y2842D02*
D03*
X5873Y2578D02*
D03*
X5910Y2670D02*
D03*
X5164Y2777D02*
D03*
X5201Y2869D02*
D03*
X5164Y2578D02*
D03*
X5201Y2670D02*
D03*
X5873Y2777D02*
D03*
X5910Y2869D02*
D03*
X5506Y2777D02*
D03*
X5544Y2869D02*
D03*
X5506Y2578D02*
D03*
X5544Y2670D02*
D03*
X4376Y2777D02*
D03*
X4414Y2869D02*
D03*
X4376Y2578D02*
D03*
X4414Y2670D02*
D03*
X4810Y2578D02*
D03*
X4847Y2670D02*
D03*
X4810Y2777D02*
D03*
X4847Y2869D02*
D03*
X5868Y4153D02*
D03*
X5906Y4245D02*
D03*
X5868Y4351D02*
D03*
X5906Y4444D02*
D03*
X5502Y4153D02*
D03*
X5539Y4245D02*
D03*
X5494Y4351D02*
D03*
X5531Y4444D02*
D03*
X5159Y4153D02*
D03*
X5197Y4245D02*
D03*
X5159Y4351D02*
D03*
X5197Y4444D02*
D03*
X4805Y4153D02*
D03*
X4843Y4245D02*
D03*
X4803Y4350D02*
D03*
X4841Y4443D02*
D03*
X4372Y4351D02*
D03*
X4409Y4444D02*
D03*
X4372Y4153D02*
D03*
X4409Y4245D02*
D03*
D82*
X3344Y6844D02*
D03*
X2715Y3766D02*
D03*
Y2191D02*
D03*
X6926Y5973D02*
D03*
X7360Y4009D02*
D03*
Y2749D02*
D03*
X5947Y2578D02*
D03*
X5239Y2777D02*
D03*
Y2578D02*
D03*
X5947Y2777D02*
D03*
X5581D02*
D03*
X5581Y2578D02*
D03*
X4451Y2777D02*
D03*
X4451Y2578D02*
D03*
X4884D02*
D03*
X4884Y2777D02*
D03*
X5943Y4153D02*
D03*
X5943Y4351D02*
D03*
X5577Y4153D02*
D03*
X5569Y4351D02*
D03*
X5234Y4153D02*
D03*
Y4351D02*
D03*
X4880Y4153D02*
D03*
X4878Y4350D02*
D03*
X4447Y4351D02*
D03*
X4447Y4153D02*
D03*
D83*
X4334Y7900D02*
D03*
X4384D02*
D03*
X4434D02*
D03*
X4484D02*
D03*
X4170D02*
D03*
X4120D02*
D03*
X4070D02*
D03*
X4020D02*
D03*
D84*
X4484Y8116D02*
D03*
X4434D02*
D03*
X4384D02*
D03*
X4334D02*
D03*
X4020D02*
D03*
X4070D02*
D03*
X4120D02*
D03*
X4170D02*
D03*
D85*
X4409Y8027D02*
D03*
X4095D02*
D03*
D86*
X4505Y8072D02*
D03*
X4314D02*
D03*
X4314Y7977D02*
D03*
X4505Y7977D02*
D03*
X4190D02*
D03*
X3999Y7977D02*
D03*
X3999Y8072D02*
D03*
X4190D02*
D03*
D87*
X4326Y8096D02*
D03*
X4493D02*
D03*
X4178D02*
D03*
X4011D02*
D03*
D88*
X7002Y6100D02*
D03*
Y6063D02*
D03*
Y6026D02*
D03*
X7101D02*
D03*
Y6100D02*
D03*
D89*
X4659Y7874D02*
D03*
X4869D02*
D03*
Y7362D02*
D03*
X4659D02*
D03*
X6566Y3238D02*
D03*
X6356D02*
D03*
X6352Y4813D02*
D03*
X6561D02*
D03*
D90*
X5236Y8104D02*
D03*
Y7722D02*
D03*
X5787D02*
D03*
Y8104D02*
D03*
X6339Y8104D02*
D03*
Y7722D02*
D03*
X5239Y7014D02*
D03*
Y7396D02*
D03*
X5787D02*
D03*
Y7014D02*
D03*
X6339Y7014D02*
D03*
Y7396D02*
D03*
D91*
X2451Y4104D02*
D03*
Y4238D02*
D03*
Y2530D02*
D03*
Y2663D02*
D03*
X3819Y6254D02*
D03*
Y6388D02*
D03*
X7053Y8138D02*
D03*
Y8004D02*
D03*
D92*
X3160Y4608D02*
D03*
Y4817D02*
D03*
X2992D02*
D03*
Y4608D02*
D03*
Y3033D02*
D03*
Y3243D02*
D03*
X3160D02*
D03*
Y3033D02*
D03*
X4449Y2966D02*
D03*
Y3176D02*
D03*
X4606D02*
D03*
Y2966D02*
D03*
X4449Y2467D02*
D03*
Y2257D02*
D03*
X4606D02*
D03*
Y2467D02*
D03*
X4449Y4750D02*
D03*
Y4541D02*
D03*
Y3832D02*
D03*
Y4042D02*
D03*
X4606Y4541D02*
D03*
Y4750D02*
D03*
Y4042D02*
D03*
Y3832D02*
D03*
D93*
X3189Y4224D02*
D03*
X3110Y4225D02*
D03*
X3032Y4331D02*
D03*
X2952Y4331D02*
D03*
X3189Y4449D02*
D03*
X3268Y4449D02*
D03*
X3740Y4148D02*
D03*
X3661Y4148D02*
D03*
X3740Y4252D02*
D03*
X3661Y4252D02*
D03*
X3898Y4250D02*
D03*
X3819Y4250D02*
D03*
X2957Y2756D02*
D03*
X3036Y2756D02*
D03*
X3114Y2650D02*
D03*
X3194Y2650D02*
D03*
X3272Y2874D02*
D03*
X3193Y2874D02*
D03*
X3666Y2573D02*
D03*
X3745Y2573D02*
D03*
X3666Y2677D02*
D03*
X3745Y2677D02*
D03*
X3823Y2675D02*
D03*
X3902Y2675D02*
D03*
X4217Y2677D02*
D03*
X4138Y2677D02*
D03*
X7172Y7022D02*
D03*
X7093Y7022D02*
D03*
X7559Y7047D02*
D03*
X7480Y7047D02*
D03*
X7284Y6100D02*
D03*
X7204Y6100D02*
D03*
X6496Y2608D02*
D03*
X6417Y2608D02*
D03*
X6421Y2874D02*
D03*
X6501Y2874D02*
D03*
X6417Y4173D02*
D03*
X6496Y4173D02*
D03*
X6496Y4449D02*
D03*
X6417Y4449D02*
D03*
X4134Y4252D02*
D03*
X4213Y4252D02*
D03*
D94*
X3312Y4250D02*
D03*
Y4224D02*
D03*
Y4199D02*
D03*
Y4173D02*
D03*
Y4148D02*
D03*
Y4122D02*
D03*
Y4096D02*
D03*
X3538D02*
D03*
Y4122D02*
D03*
Y4148D02*
D03*
Y4173D02*
D03*
Y4199D02*
D03*
Y4224D02*
D03*
Y4250D02*
D03*
X3317Y2675D02*
D03*
Y2650D02*
D03*
Y2624D02*
D03*
Y2598D02*
D03*
Y2573D02*
D03*
Y2547D02*
D03*
Y2522D02*
D03*
X3543D02*
D03*
Y2547D02*
D03*
Y2573D02*
D03*
Y2598D02*
D03*
Y2624D02*
D03*
Y2650D02*
D03*
Y2675D02*
D03*
D95*
X3112Y4356D02*
D03*
Y4331D02*
D03*
Y4305D02*
D03*
X3187D02*
D03*
Y4356D02*
D03*
X4048Y4250D02*
D03*
Y4199D02*
D03*
X3973D02*
D03*
Y4225D02*
D03*
Y4250D02*
D03*
X3191Y2781D02*
D03*
Y2730D02*
D03*
X3117D02*
D03*
Y2756D02*
D03*
Y2781D02*
D03*
X3978Y2675D02*
D03*
Y2650D02*
D03*
Y2624D02*
D03*
X4052D02*
D03*
Y2675D02*
D03*
X7285Y7022D02*
D03*
Y7073D02*
D03*
X7360D02*
D03*
Y7047D02*
D03*
Y7022D02*
D03*
D96*
X5012Y2441D02*
D03*
X4831D02*
D03*
X5371D02*
D03*
X5189D02*
D03*
X5725D02*
D03*
X5544D02*
D03*
X6079D02*
D03*
X5898D02*
D03*
X5012Y4016D02*
D03*
X4831D02*
D03*
X5898Y2982D02*
D03*
X6079D02*
D03*
X5544D02*
D03*
X5725D02*
D03*
X5189D02*
D03*
X5371D02*
D03*
X4835D02*
D03*
X5016D02*
D03*
X5366Y4016D02*
D03*
X5185D02*
D03*
X5720D02*
D03*
X5539D02*
D03*
X6075D02*
D03*
X5894D02*
D03*
X4831Y4557D02*
D03*
X5012D02*
D03*
X5185D02*
D03*
X5366D02*
D03*
X5539D02*
D03*
X5720D02*
D03*
X5894D02*
D03*
X6075D02*
D03*
D97*
X4921Y2185D02*
D03*
X5280D02*
D03*
X5634D02*
D03*
X5989D02*
D03*
X4921Y3760D02*
D03*
X5989Y3238D02*
D03*
X5634D02*
D03*
X5280D02*
D03*
X4926D02*
D03*
X5276Y3760D02*
D03*
X5630D02*
D03*
X5984D02*
D03*
X4921Y4813D02*
D03*
X5276D02*
D03*
X5630D02*
D03*
X5984D02*
D03*
D98*
X3642Y6308D02*
D03*
X3642Y6388D02*
D03*
X3898Y5807D02*
D03*
X3898Y5886D02*
D03*
X3504Y5905D02*
D03*
X3504Y5985D02*
D03*
X4252Y6006D02*
D03*
X4252Y5926D02*
D03*
X4075Y7697D02*
D03*
X4075Y7618D02*
D03*
X4390Y6929D02*
D03*
X4390Y7008D02*
D03*
X6697Y8031D02*
D03*
X6698Y8111D02*
D03*
X6762Y7008D02*
D03*
X6762Y7087D02*
D03*
X6501Y6102D02*
D03*
X6501Y6181D02*
D03*
X6579Y2821D02*
D03*
X6579Y2742D02*
D03*
X6575Y4320D02*
D03*
X6575Y4400D02*
D03*
D99*
X3896Y6108D02*
D03*
X3858D02*
D03*
X3821D02*
D03*
Y6018D02*
D03*
X3858D02*
D03*
X3896D02*
D03*
D100*
X4173Y7612D02*
D03*
Y7703D02*
D03*
X4291Y7008D02*
D03*
Y6917D02*
D03*
X7053Y7880D02*
D03*
Y7789D02*
D03*
X6870Y7329D02*
D03*
Y7238D02*
D03*
X6260Y2831D02*
D03*
Y2740D02*
D03*
Y2892D02*
D03*
Y2982D02*
D03*
X6663Y2892D02*
D03*
Y2982D02*
D03*
Y2831D02*
D03*
Y2740D02*
D03*
X6654Y4467D02*
D03*
Y4557D02*
D03*
X6654Y4397D02*
D03*
Y4306D02*
D03*
X6260Y4397D02*
D03*
Y4306D02*
D03*
X6260Y4467D02*
D03*
Y4557D02*
D03*
D101*
X4349Y7230D02*
D03*
X4399D02*
D03*
X4449D02*
D03*
X4499D02*
D03*
D102*
X7874Y5966D02*
D03*
Y5767D02*
D03*
X8189Y5966D02*
D03*
Y5767D02*
D03*
X8504Y5966D02*
D03*
Y5767D02*
D03*
D103*
X6423Y2691D02*
D03*
Y2717D02*
D03*
Y2742D02*
D03*
X6499D02*
D03*
Y2717D02*
D03*
Y2691D02*
D03*
X6419Y4266D02*
D03*
Y4291D02*
D03*
Y4317D02*
D03*
X6494D02*
D03*
Y4291D02*
D03*
Y4266D02*
D03*
D104*
X7756Y4291D02*
D03*
X7756Y5039D02*
D03*
X1969Y8071D02*
D03*
X8661Y8075D02*
D03*
Y2165D02*
D03*
X1969D02*
D03*
X7756Y3346D02*
D03*
X2874Y7638D02*
D03*
Y6890D02*
D03*
X2874Y5984D02*
D03*
X2874Y5236D02*
D03*
X7756Y2598D02*
D03*
D105*
X7606Y4491D02*
D03*
Y4091D02*
D03*
X8006Y4491D02*
D03*
Y4091D02*
D03*
X8006Y4839D02*
D03*
Y5239D02*
D03*
X7606Y4839D02*
D03*
Y5239D02*
D03*
X8006Y3146D02*
D03*
Y3546D02*
D03*
X7606Y3146D02*
D03*
Y3546D02*
D03*
X2624Y7838D02*
D03*
Y7438D02*
D03*
X3024Y7838D02*
D03*
Y7438D02*
D03*
Y6690D02*
D03*
Y7090D02*
D03*
X2624Y6690D02*
D03*
Y7090D02*
D03*
X2624Y6184D02*
D03*
Y5784D02*
D03*
X3024Y6184D02*
D03*
Y5784D02*
D03*
X3024Y5036D02*
D03*
Y5436D02*
D03*
X2624Y5036D02*
D03*
Y5436D02*
D03*
X7606Y2798D02*
D03*
Y2398D02*
D03*
X8006Y2798D02*
D03*
Y2398D02*
D03*
D106*
X4399Y5506D02*
D03*
Y6406D02*
D03*
X6299Y5006D02*
D03*
Y5866D02*
D03*
X2559Y4606D02*
D03*
X2563Y3031D02*
D03*
D107*
X4399Y5406D02*
D03*
Y5306D02*
D03*
Y5206D02*
D03*
Y5106D02*
D03*
Y5006D02*
D03*
Y6306D02*
D03*
Y6206D02*
D03*
Y6106D02*
D03*
Y6006D02*
D03*
Y5906D02*
D03*
Y5806D02*
D03*
Y5706D02*
D03*
X6299Y5106D02*
D03*
Y5206D02*
D03*
Y5306D02*
D03*
Y5406D02*
D03*
Y5506D02*
D03*
Y5606D02*
D03*
Y5706D02*
D03*
Y5966D02*
D03*
Y6066D02*
D03*
Y6166D02*
D03*
Y6266D02*
D03*
Y6366D02*
D03*
Y6466D02*
D03*
Y6566D02*
D03*
Y6666D02*
D03*
Y6766D02*
D03*
X2859Y4606D02*
D03*
Y4506D02*
D03*
Y4106D02*
D03*
Y4006D02*
D03*
X2559D02*
D03*
Y4106D02*
D03*
Y4506D02*
D03*
X2563Y2931D02*
D03*
Y2531D02*
D03*
Y2431D02*
D03*
X2863D02*
D03*
Y2531D02*
D03*
Y2931D02*
D03*
Y3031D02*
D03*
X4606Y2343D02*
D03*
X4921Y2361D02*
D03*
X5277D02*
D03*
X5630Y2362D02*
D03*
X6161Y2358D02*
D03*
X6437Y7396D02*
D03*
X6437Y7722D02*
D03*
Y8104D02*
D03*
X6437Y7014D02*
D03*
X4606Y4839D02*
D03*
X5984Y5000D02*
D03*
X5630D02*
D03*
X5276Y5006D02*
D03*
X4921Y5000D02*
D03*
X4606Y3268D02*
D03*
X4921Y3421D02*
D03*
X5280D02*
D03*
X5634D02*
D03*
X5989Y3425D02*
D03*
X4606Y3740D02*
D03*
X5984Y3593D02*
D03*
X5630Y3593D02*
D03*
X5276Y3593D02*
D03*
X4921Y3593D02*
D03*
X8504Y5856D02*
D03*
X2859Y4817D02*
D03*
X2864Y3243D02*
D03*
X6565Y4813D02*
D03*
X6566Y3238D02*
D03*
X6352Y4813D02*
D03*
X6358Y3238D02*
D03*
X4870Y7874D02*
D03*
X5236Y8104D02*
D03*
X5787Y8104D02*
D03*
X4869Y7362D02*
D03*
X5239Y7008D02*
D03*
X5787Y7014D02*
D03*
X6339Y7014D02*
D03*
D108*
X3828Y4666D02*
D03*
X8631D02*
D03*
X3828Y7500D02*
D03*
X8631D02*
D03*
D109*
X7559Y5789D02*
D03*
X3504Y6831D02*
D03*
X6457Y5106D02*
D03*
Y5206D02*
D03*
X4824Y7736D02*
D03*
X2854Y3681D02*
D03*
Y2106D02*
D03*
X3780Y5304D02*
D03*
X4656Y6220D02*
D03*
X4823Y7205D02*
D03*
X7520Y3819D02*
D03*
X7620Y2972D02*
D03*
D110*
X7559Y5689D02*
D03*
X3504Y6931D02*
D03*
X6457Y5006D02*
D03*
X2854Y3781D02*
D03*
Y2206D02*
D03*
X3780Y5404D02*
D03*
X7520Y3919D02*
D03*
D111*
X3504Y8104D02*
D03*
X3209D02*
D03*
X3504Y7907D02*
D03*
X3209D02*
D03*
Y7120D02*
D03*
X3504Y7711D02*
D03*
X3209D02*
D03*
D112*
X3504Y7120D02*
D03*
D113*
X7323Y2941D02*
D03*
Y2461D02*
D03*
X6850D02*
D03*
Y2941D02*
D03*
X7323Y4201D02*
D03*
Y3720D02*
D03*
X6850D02*
D03*
Y4201D02*
D03*
D114*
X7087Y3041D02*
D03*
Y4301D02*
D03*
D115*
X1949Y2598D02*
D03*
Y2898D02*
D03*
Y4472D02*
D03*
Y4173D02*
D03*
D116*
X2256Y2748D02*
D03*
Y4323D02*
D03*
D117*
X2843Y6437D02*
D03*
D118*
X2725D02*
D03*
X2607D02*
D03*
D119*
X2954D02*
D03*
X2497D02*
D03*
D120*
X4724Y7736D02*
D03*
X4556Y6220D02*
D03*
X4723Y7205D02*
D03*
X7520Y2972D02*
D03*
D121*
X7913Y7047D02*
D03*
X6181Y5306D02*
D03*
Y6266D02*
D03*
Y6366D02*
D03*
D122*
X4232Y7900D02*
D03*
X4449Y7136D02*
D03*
X3120Y7972D02*
D03*
X4252Y7224D02*
D03*
X4301D02*
D03*
X5039Y8140D02*
D03*
X4291Y7900D02*
D03*
X3927D02*
D03*
X3976D02*
D03*
X3163Y7953D02*
D03*
X4449Y7185D02*
D03*
X4075Y6811D02*
D03*
X4094Y6870D02*
D03*
X3666Y2500D02*
D03*
X4484Y7835D02*
D03*
X3976Y6206D02*
D03*
X3374Y2650D02*
D03*
X3374Y4224D02*
D03*
X3376Y2598D02*
D03*
X3405Y4173D02*
D03*
X2638Y3593D02*
D03*
X3445Y4429D02*
D03*
X7283Y5866D02*
D03*
X2638Y2037D02*
D03*
X3543Y2480D02*
D03*
X7402Y5404D02*
D03*
X3268Y5157D02*
D03*
X4035D02*
D03*
Y5206D02*
D03*
X4075Y5306D02*
D03*
X6358Y4266D02*
D03*
X3242Y4305D02*
D03*
X3524D02*
D03*
X4173Y7657D02*
D03*
Y7835D02*
D03*
X7172Y6946D02*
D03*
X7283Y6988D02*
D03*
X4934Y4245D02*
D03*
Y4023D02*
D03*
X5288Y4245D02*
D03*
Y4023D02*
D03*
X5643Y4245D02*
D03*
Y4023D02*
D03*
X4941Y4557D02*
D03*
X5285D02*
D03*
Y4350D02*
D03*
X5640Y4557D02*
D03*
Y4350D02*
D03*
X4938Y2670D02*
D03*
Y2444D02*
D03*
X5282Y2670D02*
D03*
Y2444D02*
D03*
X5640Y2441D02*
D03*
X5637Y2670D02*
D03*
X4941Y2982D02*
D03*
Y2776D02*
D03*
X5285Y2982D02*
D03*
Y2776D02*
D03*
X5650Y2982D02*
D03*
Y2776D02*
D03*
X3642Y6447D02*
D03*
X4138Y2740D02*
D03*
X3666Y2740D02*
D03*
X3036Y2825D02*
D03*
X3193Y2940D02*
D03*
X7204Y6166D02*
D03*
X6439Y6102D02*
D03*
X3543Y5073D02*
D03*
X7337Y6100D02*
D03*
X6501Y6250D02*
D03*
X6988Y7411D02*
D03*
X7093Y7093D02*
D03*
X7559Y6979D02*
D03*
X7195Y6811D02*
D03*
X6935Y7707D02*
D03*
X6697Y7973D02*
D03*
X4369Y7701D02*
D03*
X3896Y6171D02*
D03*
X4862Y5279D02*
D03*
X4460Y5198D02*
D03*
X2318Y4685D02*
D03*
X3066Y3922D02*
D03*
X3258Y4199D02*
D03*
X3602Y4101D02*
D03*
X3819Y4317D02*
D03*
X3740Y3396D02*
D03*
X3327Y2874D02*
D03*
X2904Y2756D02*
D03*
X3066Y2347D02*
D03*
X3258Y2624D02*
D03*
X3445Y2549D02*
D03*
X3612Y2531D02*
D03*
X3789Y2573D02*
D03*
X3819Y2740D02*
D03*
X4261Y2677D02*
D03*
X2318Y3106D02*
D03*
X7411Y2749D02*
D03*
X6370Y2608D02*
D03*
X6713Y2740D02*
D03*
X6575Y2687D02*
D03*
X6540Y2657D02*
D03*
X6319Y2742D02*
D03*
X6850Y3421D02*
D03*
X6575Y4262D02*
D03*
X6309Y4306D02*
D03*
X6371Y4173D02*
D03*
X6703Y4306D02*
D03*
X6535Y4238D02*
D03*
X4595Y7002D02*
D03*
X4350Y4472D02*
D03*
X3661Y4075D02*
D03*
X3937Y4291D02*
D03*
X7480Y6979D02*
D03*
X3661Y4317D02*
D03*
X4449Y4245D02*
D03*
X3563Y6201D02*
D03*
X6762Y7146D02*
D03*
X3130Y4449D02*
D03*
X3327D02*
D03*
X4272Y4252D02*
D03*
X3793Y4148D02*
D03*
X3207Y4169D02*
D03*
X3031Y2638D02*
D03*
X3194Y2589D02*
D03*
X4414Y2726D02*
D03*
X3809Y5551D02*
D03*
X3858Y5955D02*
D03*
X2894Y4281D02*
D03*
X2894Y4331D02*
D03*
X3051Y4225D02*
D03*
X6888Y6122D02*
D03*
X4055Y4311D02*
D03*
X3937Y2736D02*
D03*
X6535Y4941D02*
D03*
X6348Y2687D02*
D03*
X4941Y4350D02*
D03*
X5039Y4321D02*
D03*
X5366D02*
D03*
X5720Y4322D02*
D03*
X6075Y4321D02*
D03*
X5044Y2747D02*
D03*
X5371Y2746D02*
D03*
X5725D02*
D03*
X6079D02*
D03*
M02*
