G04*
G04 #@! TF.GenerationSoftware,Altium Limited,CircuitStudio,1.5.1 (13)*
G04*
G04 Layer_Color=20142*
%FSLAX23Y23*%
%MOIN*%
G70*
G01*
G75*
%ADD47C,0.020*%
%ADD48C,0.010*%
G04:AMPARAMS|DCode=80|XSize=83mil|YSize=141mil|CornerRadius=7mil|HoleSize=0mil|Usage=FLASHONLY|Rotation=90.000|XOffset=0mil|YOffset=0mil|HoleType=Round|Shape=RoundedRectangle|*
%AMROUNDEDRECTD80*
21,1,0.083,0.127,0,0,90.0*
21,1,0.070,0.141,0,0,90.0*
1,1,0.013,0.064,0.035*
1,1,0.013,0.064,-0.035*
1,1,0.013,-0.064,-0.035*
1,1,0.013,-0.064,0.035*
%
%ADD80ROUNDEDRECTD80*%
G04:AMPARAMS|DCode=81|XSize=83mil|YSize=141mil|CornerRadius=7mil|HoleSize=0mil|Usage=FLASHONLY|Rotation=180.000|XOffset=0mil|YOffset=0mil|HoleType=Round|Shape=RoundedRectangle|*
%AMROUNDEDRECTD81*
21,1,0.083,0.127,0,0,180.0*
21,1,0.070,0.141,0,0,180.0*
1,1,0.013,-0.035,0.064*
1,1,0.013,0.035,0.064*
1,1,0.013,0.035,-0.064*
1,1,0.013,-0.035,-0.064*
%
%ADD81ROUNDEDRECTD81*%
%ADD82R,0.068X0.058*%
%ADD83R,0.058X0.068*%
%ADD84R,0.055X0.024*%
G04:AMPARAMS|DCode=85|XSize=86mil|YSize=32mil|CornerRadius=7mil|HoleSize=0mil|Usage=FLASHONLY|Rotation=0.000|XOffset=0mil|YOffset=0mil|HoleType=Round|Shape=RoundedRectangle|*
%AMROUNDEDRECTD85*
21,1,0.086,0.018,0,0,0.0*
21,1,0.072,0.032,0,0,0.0*
1,1,0.014,0.036,-0.009*
1,1,0.014,-0.036,-0.009*
1,1,0.014,-0.036,0.009*
1,1,0.014,0.036,0.009*
%
%ADD85ROUNDEDRECTD85*%
%ADD86R,0.071X0.039*%
%ADD87R,0.058X0.055*%
%ADD88R,0.055X0.058*%
%ADD89R,0.043X0.045*%
%ADD90R,0.043X0.045*%
%ADD91R,0.039X0.071*%
%ADD92R,0.071X0.126*%
%ADD93R,0.244X0.244*%
G04:AMPARAMS|DCode=94|XSize=51mil|YSize=78mil|CornerRadius=7mil|HoleSize=0mil|Usage=FLASHONLY|Rotation=90.000|XOffset=0mil|YOffset=0mil|HoleType=Round|Shape=RoundedRectangle|*
%AMROUNDEDRECTD94*
21,1,0.051,0.064,0,0,90.0*
21,1,0.037,0.078,0,0,90.0*
1,1,0.014,0.032,0.018*
1,1,0.014,0.032,-0.018*
1,1,0.014,-0.032,-0.018*
1,1,0.014,-0.032,0.018*
%
%ADD94ROUNDEDRECTD94*%
G04:AMPARAMS|DCode=95|XSize=45mil|YSize=78mil|CornerRadius=7mil|HoleSize=0mil|Usage=FLASHONLY|Rotation=90.000|XOffset=0mil|YOffset=0mil|HoleType=Round|Shape=RoundedRectangle|*
%AMROUNDEDRECTD95*
21,1,0.045,0.065,0,0,90.0*
21,1,0.032,0.078,0,0,90.0*
1,1,0.013,0.032,0.016*
1,1,0.013,0.032,-0.016*
1,1,0.013,-0.032,-0.016*
1,1,0.013,-0.032,0.016*
%
%ADD95ROUNDEDRECTD95*%
%ADD96R,0.225X0.085*%
%ADD97R,0.043X0.039*%
%ADD98R,0.032X0.058*%
G04:AMPARAMS|DCode=99|XSize=65mil|YSize=31mil|CornerRadius=7mil|HoleSize=0mil|Usage=FLASHONLY|Rotation=270.000|XOffset=0mil|YOffset=0mil|HoleType=Round|Shape=RoundedRectangle|*
%AMROUNDEDRECTD99*
21,1,0.065,0.017,0,0,270.0*
21,1,0.051,0.031,0,0,270.0*
1,1,0.014,-0.009,-0.026*
1,1,0.014,-0.009,0.026*
1,1,0.014,0.009,0.026*
1,1,0.014,0.009,-0.026*
%
%ADD99ROUNDEDRECTD99*%
%ADD100R,0.087X0.232*%
%ADD101R,0.055X0.032*%
%ADD102R,0.032X0.058*%
%ADD103R,0.032X0.036*%
%ADD104R,0.169X0.158*%
%ADD105R,0.038X0.031*%
%ADD106R,0.014X0.020*%
%ADD107R,0.144X0.081*%
%ADD108R,0.063X0.173*%
%ADD109R,0.058X0.115*%
%ADD110R,0.083X0.030*%
%ADD111R,0.055X0.040*%
G04:AMPARAMS|DCode=112|XSize=66mil|YSize=24mil|CornerRadius=6mil|HoleSize=0mil|Usage=FLASHONLY|Rotation=0.000|XOffset=0mil|YOffset=0mil|HoleType=Round|Shape=RoundedRectangle|*
%AMROUNDEDRECTD112*
21,1,0.066,0.012,0,0,0.0*
21,1,0.054,0.024,0,0,0.0*
1,1,0.012,0.027,-0.006*
1,1,0.012,-0.027,-0.006*
1,1,0.012,-0.027,0.006*
1,1,0.012,0.027,0.006*
%
%ADD112ROUNDEDRECTD112*%
%ADD113R,0.146X0.093*%
%ADD114R,0.051X0.093*%
%ADD115R,0.051X0.093*%
%ADD116C,0.087*%
%ADD117R,0.087X0.087*%
%ADD118C,0.048*%
%ADD119C,0.071*%
%ADD120R,0.071X0.071*%
%ADD121C,0.095*%
%ADD122C,0.165*%
%ADD123R,0.071X0.071*%
%ADD124C,0.068*%
%ADD125R,0.068X0.068*%
%ADD126C,0.102*%
%ADD127C,0.068*%
%ADD128R,0.068X0.068*%
%ADD129C,0.114*%
%ADD130R,0.064X0.064*%
%ADD131C,0.183*%
%ADD132C,0.099*%
%ADD133R,0.099X0.099*%
%ADD134C,0.038*%
%ADD135C,0.058*%
G36*
X4415Y7441D02*
X4416D01*
Y7283D01*
X4343D01*
Y7421D01*
X4333D01*
Y7469D01*
X4365D01*
Y7441D01*
X4384D01*
Y7469D01*
X4415D01*
Y7441D01*
D02*
G37*
G36*
X4515Y7421D02*
X4505D01*
Y7283D01*
X4432D01*
Y7441D01*
X4433D01*
Y7469D01*
X4464D01*
Y7441D01*
X4483D01*
Y7469D01*
X4515D01*
Y7421D01*
D02*
G37*
D47*
X9813Y3702D02*
X9880D01*
X9846D01*
Y3602D01*
X9963Y3702D02*
X9930D01*
X9913Y3685D01*
Y3619D01*
X9930Y3602D01*
X9963D01*
X9980Y3619D01*
Y3685D01*
X9963Y3702D01*
X10013Y3602D02*
Y3702D01*
X10063D01*
X10080Y3685D01*
Y3652D01*
X10063Y3635D01*
X10013D01*
X10280Y3685D02*
X10263Y3702D01*
X10230D01*
X10213Y3685D01*
Y3669D01*
X10230Y3652D01*
X10263D01*
X10280Y3635D01*
Y3619D01*
X10263Y3602D01*
X10230D01*
X10213Y3619D01*
X10313Y3602D02*
Y3702D01*
X10346Y3669D01*
X10380Y3702D01*
Y3602D01*
D48*
X1772Y1969D02*
X8858D01*
X1772D02*
Y8268D01*
X8858Y1969D02*
Y8268D01*
X1772D02*
X8858D01*
D80*
X4675Y5075D02*
D03*
Y4866D02*
D03*
Y3185D02*
D03*
Y2976D02*
D03*
Y3507D02*
D03*
Y3717D02*
D03*
Y4022D02*
D03*
Y3813D02*
D03*
Y2238D02*
D03*
Y2447D02*
D03*
Y4561D02*
D03*
Y4770D02*
D03*
X3160Y3033D02*
D03*
Y3243D02*
D03*
X2992D02*
D03*
Y3033D02*
D03*
Y4608D02*
D03*
Y4817D02*
D03*
X3160D02*
D03*
Y4608D02*
D03*
D81*
X4681Y3327D02*
D03*
X4472D02*
D03*
X4672Y2067D02*
D03*
X4462D02*
D03*
X6542Y4331D02*
D03*
X6332D02*
D03*
Y3051D02*
D03*
X6542D02*
D03*
X4659Y7362D02*
D03*
X4869D02*
D03*
Y7874D02*
D03*
X4659D02*
D03*
D82*
X4237Y4016D02*
D03*
X4149D02*
D03*
X4247Y4203D02*
D03*
X4159D02*
D03*
X4256Y2461D02*
D03*
X4169D02*
D03*
X4237Y2579D02*
D03*
X4149D02*
D03*
X4237Y2726D02*
D03*
X4149D02*
D03*
X4040Y2461D02*
D03*
X3952D02*
D03*
X3377D02*
D03*
X3465D02*
D03*
X3381Y2087D02*
D03*
X3469D02*
D03*
X3736D02*
D03*
X3823D02*
D03*
X4040Y2264D02*
D03*
X3952D02*
D03*
X3469Y2185D02*
D03*
X3381D02*
D03*
X4040Y2362D02*
D03*
X3952D02*
D03*
X4040Y2165D02*
D03*
X3952D02*
D03*
X4256Y3780D02*
D03*
X4169D02*
D03*
X4040D02*
D03*
X3952D02*
D03*
X3154Y2520D02*
D03*
X3066D02*
D03*
X4040Y3681D02*
D03*
X3952D02*
D03*
X4040Y3484D02*
D03*
X3952D02*
D03*
X4040Y3583D02*
D03*
X3952D02*
D03*
X3736Y3406D02*
D03*
X3823D02*
D03*
X3377Y3780D02*
D03*
X3465D02*
D03*
X3381Y3406D02*
D03*
X3469D02*
D03*
Y3504D02*
D03*
X3381D02*
D03*
X2638Y2106D02*
D03*
X2725D02*
D03*
X7367Y2638D02*
D03*
X7279D02*
D03*
Y3898D02*
D03*
X7367D02*
D03*
X7583Y6929D02*
D03*
X7496D02*
D03*
X7367Y7146D02*
D03*
X7279D02*
D03*
X4595Y6929D02*
D03*
X4508D02*
D03*
X4563Y6102D02*
D03*
X4650D02*
D03*
X3154Y2618D02*
D03*
X3066D02*
D03*
Y4094D02*
D03*
X3154D02*
D03*
X2318Y4606D02*
D03*
X2406D02*
D03*
X6540Y6663D02*
D03*
X6452D02*
D03*
Y6762D02*
D03*
X6540D02*
D03*
X3351Y6752D02*
D03*
X3263D02*
D03*
X2721Y3681D02*
D03*
X2633D02*
D03*
X2067Y3583D02*
D03*
X2154D02*
D03*
X2382Y2126D02*
D03*
X2469D02*
D03*
X2161Y2303D02*
D03*
X2249D02*
D03*
X3066Y3996D02*
D03*
X3154D02*
D03*
X2406Y3031D02*
D03*
X2318D02*
D03*
D83*
X4675Y2859D02*
D03*
Y2771D02*
D03*
Y4227D02*
D03*
Y4139D02*
D03*
Y4356D02*
D03*
Y4443D02*
D03*
X6737Y6019D02*
D03*
Y6107D02*
D03*
X6614Y6019D02*
D03*
Y6107D02*
D03*
X6737Y6255D02*
D03*
Y6343D02*
D03*
X6614D02*
D03*
Y6255D02*
D03*
X7106Y7327D02*
D03*
Y7240D02*
D03*
X6988D02*
D03*
Y7327D02*
D03*
Y7091D02*
D03*
Y7003D02*
D03*
X6870D02*
D03*
Y7091D02*
D03*
X6935Y7791D02*
D03*
Y7878D02*
D03*
Y8115D02*
D03*
Y8027D02*
D03*
X6817D02*
D03*
Y8115D02*
D03*
X3640Y6122D02*
D03*
Y6210D02*
D03*
Y5989D02*
D03*
Y5901D02*
D03*
X3642Y5316D02*
D03*
Y5404D02*
D03*
X4675Y2555D02*
D03*
Y2642D02*
D03*
X4291Y7614D02*
D03*
Y7701D02*
D03*
X1969Y3902D02*
D03*
Y3814D02*
D03*
D84*
X4053Y4071D02*
D03*
Y4020D02*
D03*
X3978D02*
D03*
Y4045D02*
D03*
Y4071D02*
D03*
X4053Y2624D02*
D03*
Y2573D02*
D03*
X3978D02*
D03*
Y2598D02*
D03*
Y2624D02*
D03*
X7360Y7022D02*
D03*
Y7047D02*
D03*
Y7073D02*
D03*
X7285D02*
D03*
Y7022D02*
D03*
X4052Y2774D02*
D03*
Y2723D02*
D03*
X3978D02*
D03*
Y2748D02*
D03*
Y2774D02*
D03*
X3117Y2880D02*
D03*
Y2854D02*
D03*
Y2829D02*
D03*
X3191D02*
D03*
Y2880D02*
D03*
X3973Y4250D02*
D03*
Y4225D02*
D03*
Y4199D02*
D03*
X4048D02*
D03*
Y4250D02*
D03*
X3187Y4356D02*
D03*
Y4305D02*
D03*
X3112D02*
D03*
Y4331D02*
D03*
Y4356D02*
D03*
D85*
X3837Y2358D02*
D03*
Y2308D02*
D03*
Y2258D02*
D03*
Y2208D02*
D03*
X3643D02*
D03*
Y2258D02*
D03*
Y2308D02*
D03*
Y2358D02*
D03*
X3837Y3677D02*
D03*
Y3627D02*
D03*
Y3577D02*
D03*
Y3527D02*
D03*
X3643D02*
D03*
Y3577D02*
D03*
Y3627D02*
D03*
Y3677D02*
D03*
D86*
X3492Y2362D02*
D03*
X3358D02*
D03*
X3492Y2283D02*
D03*
X3358D02*
D03*
X3492Y3602D02*
D03*
X3358D02*
D03*
X3492Y3681D02*
D03*
X3358D02*
D03*
X7409Y7264D02*
D03*
X7276D02*
D03*
Y7343D02*
D03*
X7409D02*
D03*
X7213Y2933D02*
D03*
X7079D02*
D03*
X7213Y4193D02*
D03*
X7079D02*
D03*
X3433Y7037D02*
D03*
X3299D02*
D03*
D87*
X3602Y2067D02*
D03*
X3602Y2146D02*
D03*
X3839Y2500D02*
D03*
X3838Y2421D02*
D03*
X3839Y3819D02*
D03*
X3838Y3740D02*
D03*
X3602Y3386D02*
D03*
X3602Y3465D02*
D03*
X6668Y4572D02*
D03*
X6668Y4493D02*
D03*
X6501Y6181D02*
D03*
X6501Y6102D02*
D03*
X6762Y7087D02*
D03*
X6762Y7008D02*
D03*
X6698Y8111D02*
D03*
X6697Y8031D02*
D03*
X4390Y7008D02*
D03*
X4390Y6929D02*
D03*
X4075Y7618D02*
D03*
X4075Y7697D02*
D03*
X4252Y5926D02*
D03*
X4252Y6006D02*
D03*
X3504Y5985D02*
D03*
X3504Y5905D02*
D03*
X3898Y5886D02*
D03*
X3898Y5807D02*
D03*
X3642Y6388D02*
D03*
X3642Y6308D02*
D03*
X6201Y4646D02*
D03*
X6201Y4567D02*
D03*
X6201Y3287D02*
D03*
X6201Y3366D02*
D03*
X6668Y3213D02*
D03*
X6668Y3293D02*
D03*
X7283Y6870D02*
D03*
X7284Y6949D02*
D03*
D88*
X3267Y2885D02*
D03*
X3347Y2885D02*
D03*
X4217Y4321D02*
D03*
X4138Y4321D02*
D03*
X7204Y6100D02*
D03*
X7284Y6100D02*
D03*
X7480Y7047D02*
D03*
X7559Y7047D02*
D03*
X4104Y2874D02*
D03*
X4183Y2874D02*
D03*
X3902Y2774D02*
D03*
X3823Y2774D02*
D03*
X3745Y2775D02*
D03*
X3666Y2776D02*
D03*
X3745Y2671D02*
D03*
X3666Y2671D02*
D03*
X3194Y2748D02*
D03*
X3114Y2748D02*
D03*
X3036Y2854D02*
D03*
X2957Y2854D02*
D03*
X3819Y4250D02*
D03*
X3898Y4250D02*
D03*
X3661Y4252D02*
D03*
X3740Y4252D02*
D03*
X3268Y4449D02*
D03*
X3189Y4449D02*
D03*
X2952Y4331D02*
D03*
X3032Y4331D02*
D03*
X3110Y4225D02*
D03*
X3189Y4224D02*
D03*
X3661Y4148D02*
D03*
X3740Y4148D02*
D03*
D89*
X2677Y2283D02*
D03*
X2640Y2191D02*
D03*
X4833Y4436D02*
D03*
X4795Y4344D02*
D03*
X5010Y4137D02*
D03*
X5047Y4229D02*
D03*
X5187Y4436D02*
D03*
X5150Y4344D02*
D03*
X5364Y4137D02*
D03*
X5402Y4229D02*
D03*
X5541Y4436D02*
D03*
X5504Y4344D02*
D03*
X5719Y4137D02*
D03*
X5756Y4229D02*
D03*
X5896Y4436D02*
D03*
X5858Y4344D02*
D03*
X6073Y4137D02*
D03*
X6110Y4229D02*
D03*
X4833Y2861D02*
D03*
X4795Y2769D02*
D03*
X5010Y2562D02*
D03*
X5047Y2655D02*
D03*
X5728Y2562D02*
D03*
X5766Y2655D02*
D03*
X5541Y2861D02*
D03*
X5504Y2769D02*
D03*
X5896Y2861D02*
D03*
X5858Y2769D02*
D03*
X5374Y2562D02*
D03*
X5411Y2655D02*
D03*
X5187Y2861D02*
D03*
X5150Y2769D02*
D03*
X6083Y2562D02*
D03*
X6120Y2655D02*
D03*
X7323Y2842D02*
D03*
X7285Y2749D02*
D03*
X7323Y4101D02*
D03*
X7285Y4009D02*
D03*
X6851Y5973D02*
D03*
X6888Y6065D02*
D03*
X3307Y6936D02*
D03*
X3270Y6844D02*
D03*
X2677Y3858D02*
D03*
X2640Y3766D02*
D03*
X2106Y3767D02*
D03*
X2069Y3674D02*
D03*
X2421Y2310D02*
D03*
X2384Y2218D02*
D03*
D90*
X2715Y2191D02*
D03*
X4870Y4344D02*
D03*
X4972Y4229D02*
D03*
X5224Y4344D02*
D03*
X5327Y4229D02*
D03*
X5579Y4344D02*
D03*
X5681Y4229D02*
D03*
X5933Y4344D02*
D03*
X6035Y4229D02*
D03*
X4870Y2769D02*
D03*
X4972Y2655D02*
D03*
X5691D02*
D03*
X5579Y2769D02*
D03*
X5933D02*
D03*
X5337Y2655D02*
D03*
X5224Y2769D02*
D03*
X6045Y2655D02*
D03*
X7360Y2749D02*
D03*
Y4009D02*
D03*
X6926Y5973D02*
D03*
X3344Y6844D02*
D03*
X2715Y3766D02*
D03*
X2144Y3674D02*
D03*
X2459Y2218D02*
D03*
D91*
X7052Y7882D02*
D03*
Y7748D02*
D03*
X7053Y8004D02*
D03*
Y8138D02*
D03*
X3819Y6388D02*
D03*
Y6254D02*
D03*
X2451Y4238D02*
D03*
Y4104D02*
D03*
Y2663D02*
D03*
Y2530D02*
D03*
D92*
X6075Y4557D02*
D03*
X5894D02*
D03*
X5720D02*
D03*
X5539D02*
D03*
X5366D02*
D03*
X5185D02*
D03*
X5012D02*
D03*
X4831D02*
D03*
X5894Y4016D02*
D03*
X6075D02*
D03*
X5539D02*
D03*
X5720D02*
D03*
X5185D02*
D03*
X5366D02*
D03*
X5016Y2982D02*
D03*
X4835D02*
D03*
X5371D02*
D03*
X5189D02*
D03*
X5725D02*
D03*
X5544D02*
D03*
X6079D02*
D03*
X5898D02*
D03*
X4831Y4016D02*
D03*
X5012D02*
D03*
X5898Y2441D02*
D03*
X6079D02*
D03*
X5544D02*
D03*
X5725D02*
D03*
X5189D02*
D03*
X5371D02*
D03*
X4831D02*
D03*
X5012D02*
D03*
D93*
X5984Y4813D02*
D03*
X5630D02*
D03*
X5276D02*
D03*
X4921D02*
D03*
X5984Y3760D02*
D03*
X5630D02*
D03*
X5276D02*
D03*
X4926Y3238D02*
D03*
X5280D02*
D03*
X5634D02*
D03*
X5989D02*
D03*
X4921Y3760D02*
D03*
X5989Y2185D02*
D03*
X5634D02*
D03*
X5280D02*
D03*
X4921D02*
D03*
D94*
X5010Y4322D02*
D03*
X5187Y4135D02*
D03*
X5364Y4322D02*
D03*
X5720D02*
D03*
X5541Y4135D02*
D03*
X5896D02*
D03*
X6075Y4322D02*
D03*
X5541Y2560D02*
D03*
X5728Y2747D02*
D03*
X5010D02*
D03*
X4823Y2560D02*
D03*
X5364Y2747D02*
D03*
X5177Y2560D02*
D03*
X6083Y2747D02*
D03*
X4833Y4135D02*
D03*
X5896Y2560D02*
D03*
D95*
X5010Y4441D02*
D03*
X5187Y4254D02*
D03*
X5364Y4441D02*
D03*
X5720D02*
D03*
X5541Y4254D02*
D03*
X5896D02*
D03*
X6075Y4441D02*
D03*
X5541Y2679D02*
D03*
X5728Y2866D02*
D03*
X5010D02*
D03*
X4823Y2679D02*
D03*
X5364Y2866D02*
D03*
X5177Y2679D02*
D03*
X6083Y2866D02*
D03*
X4833Y4254D02*
D03*
X5896Y2679D02*
D03*
D96*
X8504Y5767D02*
D03*
Y5966D02*
D03*
X8189Y5767D02*
D03*
Y5966D02*
D03*
X7874Y5767D02*
D03*
Y5966D02*
D03*
D97*
X4291Y6917D02*
D03*
Y7008D02*
D03*
X4173Y7703D02*
D03*
Y7612D02*
D03*
D98*
X4499Y7230D02*
D03*
X4449D02*
D03*
X4399D02*
D03*
X4349D02*
D03*
D99*
X3896Y6018D02*
D03*
X3858D02*
D03*
X3821D02*
D03*
Y6108D02*
D03*
X3858D02*
D03*
X3896D02*
D03*
D100*
X6339Y7396D02*
D03*
Y7014D02*
D03*
X5787Y7014D02*
D03*
Y7396D02*
D03*
X5239D02*
D03*
Y7014D02*
D03*
X6339Y7722D02*
D03*
Y8104D02*
D03*
X5787Y8104D02*
D03*
Y7722D02*
D03*
X5236D02*
D03*
Y8104D02*
D03*
D101*
X7101Y6100D02*
D03*
Y6026D02*
D03*
X7002D02*
D03*
Y6063D02*
D03*
Y6100D02*
D03*
D102*
X4020Y7900D02*
D03*
X4070D02*
D03*
X4120D02*
D03*
X4170D02*
D03*
X4484D02*
D03*
X4434D02*
D03*
X4384D02*
D03*
X4334D02*
D03*
D103*
X4170Y8116D02*
D03*
X4120D02*
D03*
X4070D02*
D03*
X4020D02*
D03*
X4334D02*
D03*
X4384D02*
D03*
X4434D02*
D03*
X4484D02*
D03*
D104*
X4095Y8027D02*
D03*
X4409D02*
D03*
D105*
X4190Y8072D02*
D03*
X3999D02*
D03*
X3999Y7977D02*
D03*
X4190Y7977D02*
D03*
X4505D02*
D03*
X4314Y7977D02*
D03*
X4314Y8072D02*
D03*
X4505D02*
D03*
D106*
X4011Y8096D02*
D03*
X4178D02*
D03*
X4493D02*
D03*
X4326D02*
D03*
D107*
X6909Y3583D02*
D03*
X7323D02*
D03*
X3720Y3150D02*
D03*
X3622Y4498D02*
D03*
X8681Y6161D02*
D03*
X2461Y3760D02*
D03*
X8681Y5600D02*
D03*
X4252Y5413D02*
D03*
D108*
X3799Y5738D02*
D03*
X3642D02*
D03*
D109*
X3746Y5551D02*
D03*
X3642D02*
D03*
D110*
X6331Y4622D02*
D03*
Y4522D02*
D03*
Y4472D02*
D03*
Y4572D02*
D03*
X6543Y4622D02*
D03*
Y4572D02*
D03*
Y4472D02*
D03*
Y4522D02*
D03*
X6331Y3343D02*
D03*
Y3243D02*
D03*
Y3193D02*
D03*
Y3293D02*
D03*
X6543Y3343D02*
D03*
Y3293D02*
D03*
Y3193D02*
D03*
Y3243D02*
D03*
D111*
X2329Y2492D02*
D03*
Y2392D02*
D03*
X2081D02*
D03*
Y2492D02*
D03*
Y4007D02*
D03*
Y3907D02*
D03*
X2329D02*
D03*
Y4007D02*
D03*
D112*
X3543Y2774D02*
D03*
Y2748D02*
D03*
Y2722D02*
D03*
Y2697D02*
D03*
Y2671D02*
D03*
Y2646D02*
D03*
Y2620D02*
D03*
X3317D02*
D03*
Y2646D02*
D03*
Y2671D02*
D03*
Y2697D02*
D03*
Y2722D02*
D03*
Y2748D02*
D03*
Y2774D02*
D03*
X3538Y4250D02*
D03*
Y4224D02*
D03*
Y4199D02*
D03*
Y4173D02*
D03*
Y4148D02*
D03*
Y4122D02*
D03*
Y4096D02*
D03*
X3312D02*
D03*
Y4122D02*
D03*
Y4148D02*
D03*
Y4173D02*
D03*
Y4199D02*
D03*
Y4224D02*
D03*
Y4250D02*
D03*
D113*
X4439Y4689D02*
D03*
X4449Y2976D02*
D03*
Y2455D02*
D03*
X4439Y4266D02*
D03*
D114*
X4530Y4445D02*
D03*
X4348D02*
D03*
X4539Y2732D02*
D03*
X4358D02*
D03*
X4539Y2211D02*
D03*
X4358D02*
D03*
X4530Y4022D02*
D03*
X4348D02*
D03*
D115*
X4439Y4445D02*
D03*
X4449Y2732D02*
D03*
Y2211D02*
D03*
X4439Y4022D02*
D03*
D116*
X7323Y2941D02*
D03*
Y2461D02*
D03*
X6850D02*
D03*
Y2941D02*
D03*
Y4201D02*
D03*
Y3720D02*
D03*
X7323D02*
D03*
Y4201D02*
D03*
D117*
X7087Y3041D02*
D03*
Y4301D02*
D03*
D118*
X6181Y6366D02*
D03*
Y6266D02*
D03*
X6457Y5315D02*
D03*
D119*
X7620Y2972D02*
D03*
X7520Y3819D02*
D03*
X4823Y7205D02*
D03*
X4656Y6220D02*
D03*
X3780Y5304D02*
D03*
X2854Y3681D02*
D03*
X4824Y7736D02*
D03*
X3504Y6831D02*
D03*
X2854Y2106D02*
D03*
X6457Y5206D02*
D03*
Y5106D02*
D03*
X8404Y6161D02*
D03*
X8089D02*
D03*
X7776D02*
D03*
X7657Y5787D02*
D03*
D120*
X7520Y2972D02*
D03*
X4723Y7205D02*
D03*
X4556Y6220D02*
D03*
X4724Y7736D02*
D03*
X8504Y6161D02*
D03*
X8189D02*
D03*
X7876D02*
D03*
D121*
X8006Y2398D02*
D03*
Y2798D02*
D03*
X7606Y2398D02*
D03*
Y2798D02*
D03*
X2624Y5436D02*
D03*
Y5036D02*
D03*
X3024Y5436D02*
D03*
Y5036D02*
D03*
X3024Y5784D02*
D03*
Y6184D02*
D03*
X2624Y5784D02*
D03*
Y6184D02*
D03*
X2624Y7090D02*
D03*
Y6690D02*
D03*
X3024Y7090D02*
D03*
Y6690D02*
D03*
Y7438D02*
D03*
Y7838D02*
D03*
X2624Y7438D02*
D03*
Y7838D02*
D03*
X7606Y3546D02*
D03*
Y3146D02*
D03*
X8006Y3546D02*
D03*
Y3146D02*
D03*
X7606Y5239D02*
D03*
Y4839D02*
D03*
X8006Y5239D02*
D03*
Y4839D02*
D03*
X8006Y4091D02*
D03*
Y4491D02*
D03*
X7606Y4091D02*
D03*
Y4491D02*
D03*
D122*
X7756Y2598D02*
D03*
X2874Y5236D02*
D03*
X2874Y5984D02*
D03*
X2874Y6890D02*
D03*
Y7638D02*
D03*
X7756Y3346D02*
D03*
X1969Y2165D02*
D03*
X8661D02*
D03*
Y8075D02*
D03*
X1969Y8071D02*
D03*
X7756Y5039D02*
D03*
X7756Y4291D02*
D03*
D123*
X7520Y3919D02*
D03*
X3780Y5404D02*
D03*
X2854Y3781D02*
D03*
X3504Y6931D02*
D03*
X2854Y2206D02*
D03*
X6457Y5006D02*
D03*
X7657Y5687D02*
D03*
D124*
X2863Y3031D02*
D03*
Y2931D02*
D03*
Y2531D02*
D03*
Y2431D02*
D03*
X2563D02*
D03*
Y2531D02*
D03*
Y2931D02*
D03*
X2559Y4506D02*
D03*
Y4106D02*
D03*
Y4006D02*
D03*
X2859D02*
D03*
Y4106D02*
D03*
Y4506D02*
D03*
Y4606D02*
D03*
X4399Y5406D02*
D03*
Y5306D02*
D03*
Y5206D02*
D03*
Y5106D02*
D03*
Y5006D02*
D03*
Y6306D02*
D03*
Y6206D02*
D03*
Y6106D02*
D03*
Y6006D02*
D03*
Y5906D02*
D03*
Y5806D02*
D03*
Y5706D02*
D03*
X6299Y5106D02*
D03*
Y5206D02*
D03*
Y5306D02*
D03*
Y5406D02*
D03*
Y5506D02*
D03*
Y5606D02*
D03*
Y5706D02*
D03*
Y5966D02*
D03*
Y6066D02*
D03*
Y6166D02*
D03*
Y6266D02*
D03*
Y6366D02*
D03*
Y6466D02*
D03*
Y6566D02*
D03*
Y6666D02*
D03*
Y6766D02*
D03*
X6075Y4557D02*
D03*
X5720D02*
D03*
X5366D02*
D03*
X5012D02*
D03*
X6079Y2982D02*
D03*
X5725D02*
D03*
X5371D02*
D03*
X5016D02*
D03*
X5898Y2441D02*
D03*
X5544D02*
D03*
X5189D02*
D03*
X4831D02*
D03*
X5894Y4016D02*
D03*
X5539D02*
D03*
X5185D02*
D03*
X6339Y7014D02*
D03*
X5787Y7014D02*
D03*
X5239Y7008D02*
D03*
X4869Y7362D02*
D03*
X5787Y8104D02*
D03*
X5236Y8104D02*
D03*
X4870Y7874D02*
D03*
X2864Y3243D02*
D03*
X2859Y4817D02*
D03*
X6437Y7014D02*
D03*
X6437Y8104D02*
D03*
Y7722D02*
D03*
X6437Y7396D02*
D03*
X6542Y4331D02*
D03*
Y3051D02*
D03*
X6332Y4331D02*
D03*
Y3051D02*
D03*
X8681Y6161D02*
D03*
X8504Y5767D02*
D03*
X4831Y4016D02*
D03*
D125*
X2563Y3031D02*
D03*
X2559Y4606D02*
D03*
X4399Y5506D02*
D03*
Y6406D02*
D03*
X6299Y5006D02*
D03*
Y5866D02*
D03*
D126*
X2497Y6437D02*
D03*
X2954D02*
D03*
D127*
X2607D02*
D03*
X2725D02*
D03*
D128*
X2843D02*
D03*
D129*
X1949Y4173D02*
D03*
Y4472D02*
D03*
Y2898D02*
D03*
Y2598D02*
D03*
D130*
X2256Y4323D02*
D03*
Y2748D02*
D03*
D131*
X3887Y4666D02*
D03*
X8691D02*
D03*
X3887Y7500D02*
D03*
X8691D02*
D03*
D132*
X3209Y7711D02*
D03*
X3504D02*
D03*
X3209Y7120D02*
D03*
Y7907D02*
D03*
X3504D02*
D03*
X3209Y8104D02*
D03*
X3504D02*
D03*
D133*
Y7120D02*
D03*
D134*
X4675Y5000D02*
D03*
X3896Y6191D02*
D03*
X3986Y6206D02*
D03*
X4537Y2638D02*
D03*
Y2067D02*
D03*
X4055Y4114D02*
D03*
X4380Y3543D02*
D03*
X4449Y2455D02*
D03*
X4075Y4380D02*
D03*
X4104Y2943D02*
D03*
X4675Y3583D02*
D03*
X4053Y2665D02*
D03*
X3902Y2774D02*
D03*
X4439Y4266D02*
D03*
Y4445D02*
D03*
X4547Y3327D02*
D03*
X4272Y4321D02*
D03*
X4242Y2874D02*
D03*
X4360Y2116D02*
D03*
Y2579D02*
D03*
X3839Y2559D02*
D03*
X4169Y2461D02*
D03*
X3416Y2885D02*
D03*
X3267Y2952D02*
D03*
X3563Y2185D02*
D03*
X3740Y3543D02*
D03*
X3720Y3248D02*
D03*
X4256Y3705D02*
D03*
X3839Y3878D02*
D03*
X3307Y3849D02*
D03*
X3736Y3480D02*
D03*
Y2161D02*
D03*
X4256Y2386D02*
D03*
X3377Y2550D02*
D03*
X4180Y3898D02*
D03*
X2933Y3406D02*
D03*
X3666Y2543D02*
D03*
X3666Y2839D02*
D03*
X3248Y2618D02*
D03*
X3256Y4122D02*
D03*
X2513Y2218D02*
D03*
X2382Y2008D02*
D03*
X3374Y2748D02*
D03*
X2244Y3583D02*
D03*
X6909Y3681D02*
D03*
X7244Y4101D02*
D03*
X7475Y7343D02*
D03*
X3976Y2913D02*
D03*
X3616Y2722D02*
D03*
X7185Y7323D02*
D03*
X7343Y7205D02*
D03*
X7283Y6811D02*
D03*
X4035Y5206D02*
D03*
X4094Y6870D02*
D03*
X6888Y6122D02*
D03*
X3051Y4225D02*
D03*
X2894Y4331D02*
D03*
X2894Y4281D02*
D03*
X3858Y5955D02*
D03*
X3809Y5551D02*
D03*
X3194Y2687D02*
D03*
X3031Y2736D02*
D03*
X3207Y4169D02*
D03*
X3793Y4148D02*
D03*
X3327Y4449D02*
D03*
X3130D02*
D03*
X6762Y7146D02*
D03*
X3563Y6201D02*
D03*
X3661Y4317D02*
D03*
X7480Y7126D02*
D03*
X3937Y4291D02*
D03*
X3661Y4075D02*
D03*
X4595Y7002D02*
D03*
X7411Y2749D02*
D03*
X2318Y3106D02*
D03*
X3819Y2839D02*
D03*
X3789Y2671D02*
D03*
X3612Y2630D02*
D03*
X3258Y2722D02*
D03*
X3066Y2445D02*
D03*
X2904Y2854D02*
D03*
X3819Y4317D02*
D03*
X3602Y4101D02*
D03*
X3258Y4199D02*
D03*
X3066Y3922D02*
D03*
X2318Y4685D02*
D03*
X4369Y7701D02*
D03*
X6697Y7973D02*
D03*
X6935Y7707D02*
D03*
X7559Y7126D02*
D03*
X6988Y7411D02*
D03*
X6501Y6250D02*
D03*
X7337Y6100D02*
D03*
X3543Y5073D02*
D03*
X6439Y6102D02*
D03*
X7204Y6166D02*
D03*
X3036Y2923D02*
D03*
X3642Y6447D02*
D03*
X4173Y7835D02*
D03*
Y7657D02*
D03*
X3524Y4305D02*
D03*
X3242D02*
D03*
X4075Y5306D02*
D03*
X4035Y5157D02*
D03*
X3268D02*
D03*
X7402Y5404D02*
D03*
X3543Y2579D02*
D03*
X2638Y2037D02*
D03*
X7283Y5866D02*
D03*
X3445Y4429D02*
D03*
X2972Y3602D02*
D03*
X3405Y4173D02*
D03*
X3376Y2697D02*
D03*
X3374Y4224D02*
D03*
X4484Y7835D02*
D03*
X4075Y6811D02*
D03*
X4449Y7185D02*
D03*
X3976Y7900D02*
D03*
X3927D02*
D03*
X4291D02*
D03*
X5039Y8140D02*
D03*
X4301Y7224D02*
D03*
X4252D02*
D03*
X4449Y7136D02*
D03*
X4232Y7900D02*
D03*
X6331Y4677D02*
D03*
X6437Y3484D02*
D03*
X6668Y4435D02*
D03*
Y3155D02*
D03*
X6201Y3425D02*
D03*
X6201Y4705D02*
D03*
X6476Y4764D02*
D03*
Y3543D02*
D03*
X7579Y7264D02*
D03*
X7717D02*
D03*
X7205Y6949D02*
D03*
X4833Y4254D02*
D03*
X5010Y4322D02*
D03*
X5187Y4254D02*
D03*
X5364Y4322D02*
D03*
X5541Y4254D02*
D03*
X5720Y4322D02*
D03*
X5896Y4254D02*
D03*
X6075Y4322D02*
D03*
X4823Y2679D02*
D03*
X5010Y2747D02*
D03*
X5177Y2679D02*
D03*
X5364Y2747D02*
D03*
X5541Y2679D02*
D03*
X5728Y2747D02*
D03*
X5896Y2679D02*
D03*
X6083Y2747D02*
D03*
D135*
X7231Y2842D02*
D03*
M02*
